  0
SECTION
  2
HEADER
  9
$ACADVER
  1
AC1014
  9
$HANDSEED
  5
FFFF
  9
$MEASUREMENT
 70
     1
  0
ENDSEC
  0
SECTION
  2
TABLES
  0
TABLE
  2
VPORT
  5
8
330
0
100
AcDbSymbolTable
 70
     4
  0
VPORT
  5
2E
330
8
100
AcDbSymbolTableRecord
100
AcDbViewportTableRecord
  2
*ACTIVE
 70
     0
 10
0.0
 20
0.0
 11
1.0
 21
1.0
 12
210.0
 22
148.5
 13
0.0
 23
0.0
 14
10.0
 24
10.0
 15
10.0
 25
10.0
 16
0.0
 26
0.0
 36
1.0
 17
0.0
 27
0.0
 37
0.0
 40
341.0
 41
1.24
 42
50.0
 43
0.0
 44
0.0
 50
0.0
 51
0.0
 71
     0
 72
   100
 73
     1
 74
     3
 75
     0
 76
     0
 77
     0
 78
     0
  0
ENDTAB
  0
TABLE
  2
LTYPE
  5
5
330
0
100
AcDbSymbolTable
 70
     1
  0
LTYPE
  5
14
330
5
100
AcDbSymbolTableRecord
100
AcDbLinetypeTableRecord
  2
BYBLOCK
 70
     0
  3

 72
    65
 73
     0
 40
0.0
  0
LTYPE
  5
15
330
5
100
AcDbSymbolTableRecord
100
AcDbLinetypeTableRecord
  2
BYLAYER
 70
     0
  3

 72
    65
 73
     0
 40
0.0
  0
LTYPE
  5
16
330
5
100
AcDbSymbolTableRecord
100
AcDbLinetypeTableRecord
  2
CONTINUOUS
 70
     0
  3
Solid line
 72
    65
 73
     0
 40
0.0
  0
ENDTAB
  0
TABLE
  2
LAYER
  5
2
100
AcDbSymbolTable
 70
1
  0
LAYER
  5
50
100
AcDbSymbolTableRecord
100
AcDbLayerTableRecord
  2
0
 70
0
  6
CONTINUOUS
  0
ENDTAB
  0
TABLE
  2
STYLE
  5
3
330
0
100
AcDbSymbolTable
 70
     1
  0
STYLE
  5
11
330
3
100
AcDbSymbolTableRecord
100
AcDbTextStyleTableRecord
  2
STANDARD
 70
     0
 40
0.0
 41
1.0
 50
0.0
 71
     0
 42
2.5
  3
txt
  4

  0
ENDTAB
  0
TABLE
  2
VIEW
  5
6
330
0
100
AcDbSymbolTable
 70
     0
  0
ENDTAB
  0
TABLE
  2
UCS
  5
7
330
0
100
AcDbSymbolTable
 70
     0
  0
ENDTAB
  0
TABLE
  2
APPID
  5
9
330
0
100
AcDbSymbolTable
 70
     2
  0
APPID
  5
12
330
9
100
AcDbSymbolTableRecord
100
AcDbRegAppTableRecord
  2
ACAD
 70
     0
  0
ENDTAB
  0
TABLE
  2
DIMSTYLE
  5
A
330
0
100
AcDbSymbolTable
 70
     1
  0
DIMSTYLE
105
27
330
A
100
AcDbSymbolTableRecord
100
AcDbDimStyleTableRecord
  2
ISO-25
 70
     0
  3

  4

  5

  6

  7

 40
1.0
 41
2.5
 42
0.625
 43
3.75
 44
1.25
 45
0.0
 46
0.0
 47
0.0
 48
0.0
140
2.5
141
2.5
142
0.0
143
0.03937007874016
144
1.0
145
0.0
146
1.0
147
0.625
 71
     0
 72
     0
 73
     0
 74
     0
 75
     0
 76
     0
 77
     1
 78
     8
170
     0
171
     3
172
     1
173
     0
174
     0
175
     0
176
     0
177
     0
178
     0
270
     2
271
     2
272
     2
273
     2
274
     3
340
11
275
     0
280
     0
281
     0
282
     0
283
     0
284
     8
285
     0
286
     0
287
     3
288
     0
  0
ENDTAB
  0
TABLE
  2
BLOCK_RECORD
  5
1
330
0
100
AcDbSymbolTable
 70
     1
  0
BLOCK_RECORD
  5
1F
330
1
100
AcDbSymbolTableRecord
100
AcDbBlockTableRecord
  2
*MODEL_SPACE
  0
BLOCK_RECORD
  5
1B
330
1
100
AcDbSymbolTableRecord
100
AcDbBlockTableRecord
  2
*PAPER_SPACE
  0
ENDTAB
  0
ENDSEC
  0
SECTION
  2
BLOCKS
  0
BLOCK
  5
20
330
1F
100
AcDbEntity
  8
0
100
AcDbBlockBegin
  2
*MODEL_SPACE
 70
     0
 10
0.0
 20
0.0
 30
0.0
  3
*MODEL_SPACE
  1

  0
ENDBLK
  5
21
330
1F
100
AcDbEntity
  8
0
100
AcDbBlockEnd
  0
BLOCK
  5
1C
330
1B
100
AcDbEntity
 67
     1
  8
0
100
AcDbBlockBegin
  2
*PAPER_SPACE
  1

  0
ENDBLK
  5
1D
330
1B
100
AcDbEntity
 67
     1
  8
0
100
AcDbBlockEnd
  0
ENDSEC
  0
SECTION
  2
ENTITIES
  0
LINE
  5
100
100
AcDbEntity
  8
0
 62
7
100
AcDbLine
 10
780.930497
 20
649.116053
 30
0.0
 11
784.097897
 21
666.869273
 31
0.0
  0
LINE
  5
101
100
AcDbEntity
  8
0
 62
7
100
AcDbLine
 10
784.097897
 20
666.869273
 30
0.0
 11
777.928997
 21
689.594716
 31
0.0
  0
LINE
  5
102
100
AcDbEntity
  8
0
 62
7
100
AcDbLine
 10
777.928997
 20
689.594716
 30
0.0
 11
766.934072
 21
708.016823
 31
0.0
  0
LINE
  5
103
100
AcDbEntity
  8
0
 62
7
100
AcDbLine
 10
766.934072
 20
708.016823
 30
0.0
 11
751.445297
 21
723.837713
 31
0.0
  0
LINE
  5
104
100
AcDbEntity
  8
0
 62
7
100
AcDbLine
 10
751.445297
 20
723.837713
 30
0.0
 11
738.675625
 21
743.018243
 31
0.0
  0
LINE
  5
105
100
AcDbEntity
  8
0
 62
7
100
AcDbLine
 10
738.675625
 20
743.018243
 30
0.0
 11
726.667472
 21
762.808291
 31
0.0
  0
LINE
  5
106
100
AcDbEntity
  8
0
 62
7
100
AcDbLine
 10
726.667472
 20
762.808291
 30
0.0
 11
717.843835
 21
780.660713
 31
0.0
  0
LINE
  5
107
100
AcDbEntity
  8
0
 62
7
100
AcDbLine
 10
717.843835
 20
780.660713
 30
0.0
 11
712.978622
 21
799.861441
 31
0.0
  0
LINE
  5
108
100
AcDbEntity
  8
0
 62
7
100
AcDbLine
 10
712.978622
 20
799.861441
 30
0.0
 11
710.636695
 21
815.984873
 31
0.0
  0
LINE
  5
109
100
AcDbEntity
  8
0
 62
7
100
AcDbLine
 10
710.636695
 20
815.984873
 30
0.0
 11
710.046272
 21
832.412791
 31
0.0
  0
LINE
  5
10a
100
AcDbEntity
  8
0
 62
7
100
AcDbLine
 10
710.046272
 20
832.412791
 30
0.0
 11
712.648210
 21
858.036023
 31
0.0
  0
LINE
  5
10b
100
AcDbEntity
  8
0
 62
7
100
AcDbLine
 10
712.648210
 20
858.036023
 30
0.0
 11
720.653972
 21
882.514741
 31
0.0
  0
LINE
  5
10c
100
AcDbEntity
  8
0
 62
7
100
AcDbLine
 10
720.653972
 20
882.514741
 30
0.0
 11
735.684137
 21
907.844498
 31
0.0
  0
LINE
  5
10d
100
AcDbEntity
  8
0
 62
7
100
AcDbLine
 10
735.684137
 20
907.844498
 30
0.0
 11
756.096347
 21
932.465138
 31
0.0
  0
LINE
  5
10e
100
AcDbEntity
  8
0
 62
7
100
AcDbLine
 10
756.096347
 20
932.465138
 30
0.0
 11
763.946597
 21
946.334566
 31
0.0
  0
LINE
  5
10f
100
AcDbEntity
  8
0
 62
7
100
AcDbLine
 10
763.946597
 20
946.334566
 30
0.0
 11
766.639022
 21
955.143098
 31
0.0
  0
LINE
  5
110
100
AcDbEntity
  8
0
 62
7
100
AcDbLine
 10
766.639022
 20
955.143098
 30
0.0
 11
771.838772
 21
968.106368
 31
0.0
  0
LINE
  5
111
100
AcDbEntity
  8
0
 62
7
100
AcDbLine
 10
771.838772
 20
968.106368
 30
0.0
 11
776.687072
 21
981.286426
 31
0.0
  0
LINE
  5
112
100
AcDbEntity
  8
0
 62
7
100
AcDbLine
 10
776.687072
 20
981.286426
 30
0.0
 11
781.110272
 21
995.801251
 31
0.0
  0
LINE
  5
113
100
AcDbEntity
  8
0
 62
7
100
AcDbLine
 10
781.110272
 20
995.801251
 30
0.0
 11
784.814297
 21
1010.458441
 31
0.0
  0
LINE
  5
114
100
AcDbEntity
  8
0
 62
7
100
AcDbLine
 10
784.814297
 20
1010.458441
 30
0.0
 11
792.886997
 21
1027.319716
 31
0.0
  0
LINE
  5
115
100
AcDbEntity
  8
0
 62
7
100
AcDbLine
 10
792.886997
 20
1027.319716
 30
0.0
 11
802.714172
 21
1046.197328
 31
0.0
  0
LINE
  5
116
100
AcDbEntity
  8
0
 62
7
100
AcDbLine
 10
802.714172
 20
1046.197328
 30
0.0
 11
817.234472
 21
1064.738813
 31
0.0
  0
LINE
  5
117
100
AcDbEntity
  8
0
 62
7
100
AcDbLine
 10
817.234472
 20
1064.738813
 30
0.0
 11
834.448772
 21
1075.539398
 31
0.0
  0
LINE
  5
118
100
AcDbEntity
  8
0
 62
7
100
AcDbLine
 10
834.448772
 20
1075.539398
 30
0.0
 11
844.220672
 21
1057.484693
 31
0.0
  0
LINE
  5
119
100
AcDbEntity
  8
0
 62
7
100
AcDbLine
 10
844.220672
 20
1057.484693
 30
0.0
 11
849.708272
 21
1034.684873
 31
0.0
  0
LINE
  5
11a
100
AcDbEntity
  8
0
 62
7
100
AcDbLine
 10
849.708272
 20
1034.684873
 30
0.0
 11
854.254172
 21
1013.255258
 31
0.0
  0
LINE
  5
11b
100
AcDbEntity
  8
0
 62
7
100
AcDbLine
 10
854.254172
 20
1013.255258
 30
0.0
 11
860.973422
 21
996.912323
 31
0.0
  0
LINE
  5
11c
100
AcDbEntity
  8
0
 62
7
100
AcDbLine
 10
860.973422
 20
996.912323
 30
0.0
 11
867.151247
 21
987.508681
 31
0.0
  0
LINE
  5
11d
100
AcDbEntity
  8
0
 62
7
100
AcDbLine
 10
867.151247
 20
987.508681
 30
0.0
 11
870.927647
 21
981.324338
 31
0.0
  0
LINE
  5
11e
100
AcDbEntity
  8
0
 62
7
100
AcDbLine
 10
870.927647
 20
981.324338
 30
0.0
 11
876.940847
 21
973.950728
 31
0.0
  0
LINE
  5
11f
100
AcDbEntity
  8
0
 62
7
100
AcDbLine
 10
876.940847
 20
973.950728
 30
0.0
 11
886.065272
 21
971.446066
 31
0.0
  0
LINE
  5
120
100
AcDbEntity
  8
0
 62
7
100
AcDbLine
 10
886.065272
 20
971.446066
 30
0.0
 11
905.822147
 21
970.793356
 31
0.0
  0
LINE
  5
121
100
AcDbEntity
  8
0
 62
7
100
AcDbLine
 10
905.822147
 20
970.793356
 30
0.0
 11
925.160072
 21
966.491941
 31
0.0
  0
LINE
  5
122
100
AcDbEntity
  8
0
 62
7
100
AcDbLine
 10
925.160072
 20
966.491941
 30
0.0
 11
942.156647
 21
961.602893
 31
0.0
  0
LINE
  5
123
100
AcDbEntity
  8
0
 62
7
100
AcDbLine
 10
942.156647
 20
961.602893
 30
0.0
 11
958.494572
 21
955.038166
 31
0.0
  0
LINE
  5
124
100
AcDbEntity
  8
0
 62
7
100
AcDbLine
 10
958.494572
 20
955.038166
 30
0.0
 11
971.587697
 21
949.706041
 31
0.0
  0
LINE
  5
125
100
AcDbEntity
  8
0
 62
7
100
AcDbLine
 10
971.587697
 20
949.706041
 30
0.0
 11
984.388547
 21
943.608691
 31
0.0
  0
LINE
  5
126
100
AcDbEntity
  8
0
 62
7
100
AcDbLine
 10
984.388547
 20
943.608691
 30
0.0
 11
997.003622
 21
935.126611
 31
0.0
  0
LINE
  5
127
100
AcDbEntity
  8
0
 62
7
100
AcDbLine
 10
997.003622
 20
935.126611
 30
0.0
 11
1009.071047
 21
925.754086
 31
0.0
  0
LINE
  5
128
100
AcDbEntity
  8
0
 62
7
100
AcDbLine
 10
1009.071047
 20
925.754086
 30
0.0
 11
1026.148622
 21
908.346128
 31
0.0
  0
LINE
  5
129
100
AcDbEntity
  8
0
 62
7
100
AcDbLine
 10
1026.148622
 20
908.346128
 30
0.0
 11
1038.012497
 21
899.713823
 31
0.0
  0
LINE
  5
12a
100
AcDbEntity
  8
0
 62
7
100
AcDbLine
 10
1038.012497
 20
899.713823
 30
0.0
 11
1052.862122
 21
906.625456
 31
0.0
  0
LINE
  5
12b
100
AcDbEntity
  8
0
 62
7
100
AcDbLine
 10
1052.862122
 20
906.625456
 30
0.0
 11
1067.687897
 21
913.415198
 31
0.0
  0
LINE
  5
12c
100
AcDbEntity
  8
0
 62
7
100
AcDbLine
 10
1067.687897
 20
913.415198
 30
0.0
 11
1088.699147
 21
925.101173
 31
0.0
  0
LINE
  5
12d
100
AcDbEntity
  8
0
 62
7
100
AcDbLine
 10
1088.699147
 20
925.101173
 30
0.0
 11
1110.712697
 21
941.627506
 31
0.0
  0
LINE
  5
12e
100
AcDbEntity
  8
0
 62
7
100
AcDbLine
 10
1110.712697
 20
941.627506
 30
0.0
 11
1127.787272
 21
953.834888
 31
0.0
  0
LINE
  5
12f
100
AcDbEntity
  8
0
 62
7
100
AcDbLine
 10
1127.787272
 20
953.834888
 30
0.0
 11
1143.918497
 21
962.427143
 31
0.0
  0
LINE
  5
130
100
AcDbEntity
  8
0
 62
7
100
AcDbLine
 10
1143.918497
 20
962.427143
 30
0.0
 11
1150.131497
 21
954.354826
 31
0.0
  0
LINE
  5
131
100
AcDbEntity
  8
0
 62
7
100
AcDbLine
 10
1150.131497
 20
954.354826
 30
0.0
 11
1152.532022
 21
941.891911
 31
0.0
  0
LINE
  5
132
100
AcDbEntity
  8
0
 62
7
100
AcDbLine
 10
1152.532022
 20
941.891911
 30
0.0
 11
1153.033172
 21
931.741238
 31
0.0
  0
LINE
  5
133
100
AcDbEntity
  8
0
 62
7
100
AcDbLine
 10
1153.033172
 20
931.741238
 30
0.0
 11
1151.356097
 21
917.066791
 31
0.0
  0
LINE
  5
134
100
AcDbEntity
  8
0
 62
7
100
AcDbLine
 10
1151.356097
 20
917.066791
 30
0.0
 11
1149.443597
 21
899.012093
 31
0.0
  0
LINE
  5
135
100
AcDbEntity
  8
0
 62
7
100
AcDbLine
 10
1149.443597
 20
899.012093
 30
0.0
 11
1145.900297
 21
881.318918
 31
0.0
  0
LINE
  5
136
100
AcDbEntity
  8
0
 62
7
100
AcDbLine
 10
1145.900297
 20
881.318918
 30
0.0
 11
1140.838922
 21
866.621618
 31
0.0
  0
LINE
  5
137
100
AcDbEntity
  8
0
 62
7
100
AcDbLine
 10
1140.838922
 20
866.621618
 30
0.0
 11
1134.215822
 21
852.449468
 31
0.0
  0
LINE
  5
138
100
AcDbEntity
  8
0
 62
7
100
AcDbLine
 10
1134.215822
 20
852.449468
 30
0.0
 11
1120.158722
 21
834.293858
 31
0.0
  0
LINE
  5
139
100
AcDbEntity
  8
0
 62
7
100
AcDbLine
 10
1120.158722
 20
834.293858
 30
0.0
 11
1105.037147
 21
816.929063
 31
0.0
  0
LINE
  5
13a
100
AcDbEntity
  8
0
 62
7
100
AcDbLine
 10
1105.037147
 20
816.929063
 30
0.0
 11
1101.931772
 21
805.850768
 31
0.0
  0
LINE
  5
13b
100
AcDbEntity
  8
0
 62
7
100
AcDbLine
 10
1101.931772
 20
805.850768
 30
0.0
 11
1100.505122
 21
794.151698
 31
0.0
  0
LINE
  5
13c
100
AcDbEntity
  8
0
 62
7
100
AcDbLine
 10
1100.505122
 20
794.151698
 30
0.0
 11
1097.405447
 21
777.514186
 31
0.0
  0
LINE
  5
13d
100
AcDbEntity
  8
0
 62
7
100
AcDbLine
 10
1097.405447
 20
777.514186
 30
0.0
 11
1093.577897
 21
761.410321
 31
0.0
  0
LINE
  5
13e
100
AcDbEntity
  8
0
 62
7
100
AcDbLine
 10
1093.577897
 20
761.410321
 30
0.0
 11
1090.275872
 21
750.190073
 31
0.0
  0
LINE
  5
13f
100
AcDbEntity
  8
0
 62
7
100
AcDbLine
 10
1090.275872
 20
750.190073
 30
0.0
 11
1083.736322
 21
732.367096
 31
0.0
  0
LINE
  5
140
100
AcDbEntity
  8
0
 62
7
100
AcDbLine
 10
1083.736322
 20
732.367096
 30
0.0
 11
1075.654097
 21
716.359666
 31
0.0
  0
LINE
  5
141
100
AcDbEntity
  8
0
 62
7
100
AcDbLine
 10
1075.654097
 20
716.359666
 30
0.0
 11
1063.924997
 21
701.111108
 31
0.0
  0
LINE
  5
142
100
AcDbEntity
  8
0
 62
7
100
AcDbLine
 10
1063.924997
 20
701.111108
 30
0.0
 11
1050.991247
 21
689.985713
 31
0.0
  0
LINE
  5
143
100
AcDbEntity
  8
0
 62
7
100
AcDbLine
 10
1050.991247
 20
689.985713
 30
0.0
 11
1034.277722
 21
680.798596
 31
0.0
  0
LINE
  5
144
100
AcDbEntity
  8
0
 62
7
100
AcDbLine
 10
1034.277722
 20
680.798596
 30
0.0
 11
1004.302622
 21
670.411411
 31
0.0
  0
LINE
  5
145
100
AcDbEntity
  8
0
 62
7
100
AcDbLine
 10
1004.302622
 20
670.411411
 30
0.0
 11
979.156397
 21
662.213266
 31
0.0
  0
LINE
  5
146
100
AcDbEntity
  8
0
 62
7
100
AcDbLine
 10
979.156397
 20
662.213266
 30
0.0
 11
980.934647
 21
641.553916
 31
0.0
  0
LINE
  5
147
100
AcDbEntity
  8
0
 62
7
100
AcDbLine
 10
980.934647
 20
641.553916
 30
0.0
 11
1002.171197
 21
615.271456
 31
0.0
  0
LINE
  5
148
100
AcDbEntity
  8
0
 62
7
100
AcDbLine
 10
1002.171197
 20
615.271456
 30
0.0
 11
1015.163522
 21
592.704563
 31
0.0
  0
LINE
  5
149
100
AcDbEntity
  8
0
 62
7
100
AcDbLine
 10
1015.163522
 20
592.704563
 30
0.0
 11
1030.838147
 21
574.427056
 31
0.0
  0
LINE
  5
14a
100
AcDbEntity
  8
0
 62
7
100
AcDbLine
 10
1030.838147
 20
574.427056
 30
0.0
 11
1051.000847
 21
547.667528
 31
0.0
  0
LINE
  5
14b
100
AcDbEntity
  8
0
 62
7
100
AcDbLine
 10
1051.000847
 20
547.667528
 30
0.0
 11
1068.911372
 21
520.708516
 31
0.0
  0
LINE
  5
14c
100
AcDbEntity
  8
0
 62
7
100
AcDbLine
 10
1068.911372
 20
520.708516
 30
0.0
 11
1080.330422
 21
508.015471
 31
0.0
  0
LINE
  5
14d
100
AcDbEntity
  8
0
 62
7
100
AcDbLine
 10
1080.330422
 20
508.015471
 30
0.0
 11
1092.102047
 21
495.679891
 31
0.0
  0
LINE
  5
14e
100
AcDbEntity
  8
0
 62
7
100
AcDbLine
 10
1092.102047
 20
495.679891
 30
0.0
 11
1115.789372
 21
472.104541
 31
0.0
  0
LINE
  5
14f
100
AcDbEntity
  8
0
 62
7
100
AcDbLine
 10
1115.789372
 20
472.104541
 30
0.0
 11
1143.147797
 21
452.997916
 31
0.0
  0
LINE
  5
150
100
AcDbEntity
  8
0
 62
7
100
AcDbLine
 10
1143.147797
 20
452.997916
 30
0.0
 11
1153.524422
 21
447.848416
 31
0.0
  0
LINE
  5
151
100
AcDbEntity
  8
0
 62
7
100
AcDbLine
 10
1153.524422
 20
447.848416
 30
0.0
 11
1164.383372
 21
443.600116
 31
0.0
  0
LINE
  5
152
100
AcDbEntity
  8
0
 62
7
100
AcDbLine
 10
1164.383372
 20
443.600116
 30
0.0
 11
1183.190822
 21
435.243091
 31
0.0
  0
LINE
  5
153
100
AcDbEntity
  8
0
 62
7
100
AcDbLine
 10
1183.190822
 20
435.243091
 30
0.0
 11
1201.012772
 21
424.827616
 31
0.0
  0
LINE
  5
154
100
AcDbEntity
  8
0
 62
7
100
AcDbLine
 10
1201.012772
 20
424.827616
 30
0.0
 11
1224.588722
 21
407.290741
 31
0.0
  0
LINE
  5
155
100
AcDbEntity
  8
0
 62
7
100
AcDbLine
 10
1224.588722
 20
407.290741
 30
0.0
 11
1245.997097
 21
387.402391
 31
0.0
  0
LINE
  5
156
100
AcDbEntity
  8
0
 62
7
100
AcDbLine
 10
1245.997097
 20
387.402391
 30
0.0
 11
1269.195572
 21
360.900391
 31
0.0
  0
LINE
  5
157
100
AcDbEntity
  8
0
 62
7
100
AcDbLine
 10
1269.195572
 20
360.900391
 30
0.0
 11
1289.590772
 21
332.001541
 31
0.0
  0
LINE
  5
158
100
AcDbEntity
  8
0
 62
7
100
AcDbLine
 10
1289.590772
 20
332.001541
 30
0.0
 11
1301.623547
 21
310.613416
 31
0.0
  0
LINE
  5
159
100
AcDbEntity
  8
0
 62
7
100
AcDbLine
 10
1301.623547
 20
310.613416
 30
0.0
 11
1312.420472
 21
288.689491
 31
0.0
  0
LINE
  5
15a
100
AcDbEntity
  8
0
 62
7
100
AcDbLine
 10
1312.420472
 20
288.689491
 30
0.0
 11
1318.911797
 21
272.489041
 31
0.0
  0
LINE
  5
15b
100
AcDbEntity
  8
0
 62
7
100
AcDbLine
 10
1318.911797
 20
272.489041
 30
0.0
 11
1324.375547
 21
255.732091
 31
0.0
  0
LINE
  5
15c
100
AcDbEntity
  8
0
 62
7
100
AcDbLine
 10
1324.375547
 20
255.732091
 30
0.0
 11
1332.756497
 21
223.782691
 31
0.0
  0
LINE
  5
15d
100
AcDbEntity
  8
0
 62
7
100
AcDbLine
 10
1332.756497
 20
223.782691
 30
0.0
 11
1337.394497
 21
191.074366
 31
0.0
  0
LINE
  5
15e
100
AcDbEntity
  8
0
 62
7
100
AcDbLine
 10
1337.394497
 20
191.074366
 30
0.0
 11
1340.701472
 21
174.557416
 31
0.0
  0
LINE
  5
15f
100
AcDbEntity
  8
0
 62
7
100
AcDbLine
 10
1340.701472
 20
174.557416
 30
0.0
 11
1343.143697
 21
158.010916
 31
0.0
  0
LINE
  5
160
100
AcDbEntity
  8
0
 62
7
100
AcDbLine
 10
1343.143697
 20
158.010916
 30
0.0
 11
1345.769522
 21
141.950566
 31
0.0
  0
LINE
  5
161
100
AcDbEntity
  8
0
 62
7
100
AcDbLine
 10
1345.769522
 20
141.950566
 30
0.0
 11
1352.310722
 21
126.497116
 31
0.0
  0
LINE
  5
162
100
AcDbEntity
  8
0
 62
7
100
AcDbLine
 10
1352.310722
 20
126.497116
 30
0.0
 11
1372.276922
 21
113.381716
 31
0.0
  0
LINE
  5
163
100
AcDbEntity
  8
0
 62
7
100
AcDbLine
 10
1372.276922
 20
113.381716
 30
0.0
 11
1394.342072
 21
109.640416
 31
0.0
  0
LINE
  5
164
100
AcDbEntity
  8
0
 62
7
100
AcDbLine
 10
1394.342072
 20
109.640416
 30
0.0
 11
1413.575972
 21
108.080266
 31
0.0
  0
LINE
  5
165
100
AcDbEntity
  8
0
 62
7
100
AcDbLine
 10
1413.575972
 20
108.080266
 30
0.0
 11
1432.786022
 21
108.319666
 31
0.0
  0
LINE
  5
166
100
AcDbEntity
  8
0
 62
7
100
AcDbLine
 10
1432.786022
 20
108.319666
 30
0.0
 11
1459.682072
 21
110.522191
 31
0.0
  0
LINE
  5
167
100
AcDbEntity
  8
0
 62
7
100
AcDbLine
 10
1459.682072
 20
110.522191
 30
0.0
 11
1486.413272
 21
114.121441
 31
0.0
  0
LINE
  5
168
100
AcDbEntity
  8
0
 62
7
100
AcDbLine
 10
1486.413272
 20
114.121441
 30
0.0
 11
1509.005372
 21
118.148641
 31
0.0
  0
LINE
  5
169
100
AcDbEntity
  8
0
 62
7
100
AcDbLine
 10
1509.005372
 20
118.148641
 30
0.0
 11
1532.678972
 21
123.478291
 31
0.0
  0
LINE
  5
16a
100
AcDbEntity
  8
0
 62
7
100
AcDbLine
 10
1532.678972
 20
123.478291
 30
0.0
 11
1558.509422
 21
130.759216
 31
0.0
  0
LINE
  5
16b
100
AcDbEntity
  8
0
 62
7
100
AcDbLine
 10
1558.509422
 20
130.759216
 30
0.0
 11
1585.396397
 21
140.362741
 31
0.0
  0
LINE
  5
16c
100
AcDbEntity
  8
0
 62
7
100
AcDbLine
 10
1585.396397
 20
140.362741
 30
0.0
 11
1604.582522
 21
149.531266
 31
0.0
  0
LINE
  5
16d
100
AcDbEntity
  8
0
 62
7
100
AcDbLine
 10
1604.582522
 20
149.531266
 30
0.0
 11
1622.598347
 21
159.557041
 31
0.0
  0
LINE
  5
16e
100
AcDbEntity
  8
0
 62
7
100
AcDbLine
 10
1622.598347
 20
159.557041
 30
0.0
 11
1638.272972
 21
168.589666
 31
0.0
  0
LINE
  5
16f
100
AcDbEntity
  8
0
 62
7
100
AcDbLine
 10
1638.272972
 20
168.589666
 30
0.0
 11
1653.470747
 21
176.658166
 31
0.0
  0
LINE
  5
170
100
AcDbEntity
  8
0
 62
7
100
AcDbLine
 10
1653.470747
 20
176.658166
 30
0.0
 11
1672.720922
 21
183.879841
 31
0.0
  0
LINE
  5
171
100
AcDbEntity
  8
0
 62
7
100
AcDbLine
 10
1672.720922
 20
183.879841
 30
0.0
 11
1680.509597
 21
172.465441
 31
0.0
  0
LINE
  5
172
100
AcDbEntity
  8
0
 62
7
100
AcDbLine
 10
1680.509597
 20
172.465441
 30
0.0
 11
1664.242172
 21
153.044116
 31
0.0
  0
LINE
  5
173
100
AcDbEntity
  8
0
 62
7
100
AcDbLine
 10
1664.242172
 20
153.044116
 30
0.0
 11
1635.130472
 21
128.135491
 31
0.0
  0
LINE
  5
174
100
AcDbEntity
  8
0
 62
7
100
AcDbLine
 10
1635.130472
 20
128.135491
 30
0.0
 11
1610.376047
 21
112.492591
 31
0.0
  0
LINE
  5
175
100
AcDbEntity
  8
0
 62
7
100
AcDbLine
 10
1610.376047
 20
112.492591
 30
0.0
 11
1579.322297
 21
96.310216
 31
0.0
  0
LINE
  5
176
100
AcDbEntity
  8
0
 62
7
100
AcDbLine
 10
1579.322297
 20
96.310216
 30
0.0
 11
1541.187947
 21
79.597141
 31
0.0
  0
LINE
  5
177
100
AcDbEntity
  8
0
 62
7
100
AcDbLine
 10
1541.187947
 20
79.597141
 30
0.0
 11
1500.357647
 21
65.120491
 31
0.0
  0
LINE
  5
178
100
AcDbEntity
  8
0
 62
7
100
AcDbLine
 10
1500.357647
 20
65.120491
 30
0.0
 11
1466.467922
 21
58.313641
 31
0.0
  0
LINE
  5
179
100
AcDbEntity
  8
0
 62
7
100
AcDbLine
 10
1466.467922
 20
58.313641
 30
0.0
 11
1422.156422
 21
52.129816
 31
0.0
  0
LINE
  5
17a
100
AcDbEntity
  8
0
 62
7
100
AcDbLine
 10
1422.156422
 20
52.129816
 30
0.0
 11
1389.088172
 21
50.767741
 31
0.0
  0
LINE
  5
17b
100
AcDbEntity
  8
0
 62
7
100
AcDbLine
 10
1389.088172
 20
50.767741
 30
0.0
 11
1371.161672
 21
52.566016
 31
0.0
  0
LINE
  5
17c
100
AcDbEntity
  8
0
 62
7
100
AcDbLine
 10
1371.161672
 20
52.566016
 30
0.0
 11
1350.492272
 21
54.036091
 31
0.0
  0
LINE
  5
17d
100
AcDbEntity
  8
0
 62
7
100
AcDbLine
 10
1350.492272
 20
54.036091
 30
0.0
 11
1327.421822
 21
57.497416
 31
0.0
  0
LINE
  5
17e
100
AcDbEntity
  8
0
 62
7
100
AcDbLine
 10
1327.421822
 20
57.497416
 30
0.0
 11
1314.380372
 21
58.164166
 31
0.0
  0
LINE
  5
17f
100
AcDbEntity
  8
0
 62
7
100
AcDbLine
 10
1314.380372
 20
58.164166
 30
0.0
 11
1301.338847
 21
58.830916
 31
0.0
  0
LINE
  5
180
100
AcDbEntity
  8
0
 62
7
100
AcDbLine
 10
1301.338847
 20
58.830916
 30
0.0
 11
1283.900822
 21
57.189541
 31
0.0
  0
LINE
  5
181
100
AcDbEntity
  8
0
 62
7
100
AcDbLine
 10
1283.900822
 20
57.189541
 30
0.0
 11
1276.970822
 21
54.601141
 31
0.0
  0
LINE
  5
182
100
AcDbEntity
  8
0
 62
7
100
AcDbLine
 10
1276.970822
 20
54.601141
 30
0.0
 11
1253.094347
 21
42.698941
 31
0.0
  0
LINE
  5
183
100
AcDbEntity
  8
0
 62
7
100
AcDbLine
 10
1253.094347
 20
42.698941
 30
0.0
 11
1230.297572
 21
31.987441
 31
0.0
  0
LINE
  5
184
100
AcDbEntity
  8
0
 62
7
100
AcDbLine
 10
1230.297572
 20
31.987441
 30
0.0
 11
1185.599072
 21
21.542716
 31
0.0
  0
LINE
  5
185
100
AcDbEntity
  8
0
 62
7
100
AcDbLine
 10
1185.599072
 20
21.542716
 30
0.0
 11
1136.205272
 21
16.768891
 31
0.0
  0
LINE
  5
186
100
AcDbEntity
  8
0
 62
7
100
AcDbLine
 10
1136.205272
 20
16.768891
 30
0.0
 11
1094.068022
 21
20.712316
 31
0.0
  0
LINE
  5
187
100
AcDbEntity
  8
0
 62
7
100
AcDbLine
 10
1094.068022
 20
20.712316
 30
0.0
 11
1059.256172
 21
23.199391
 31
0.0
  0
LINE
  5
188
100
AcDbEntity
  8
0
 62
7
100
AcDbLine
 10
1059.256172
 20
23.199391
 30
0.0
 11
1005.046997
 21
24.222316
 31
0.0
  0
LINE
  5
189
100
AcDbEntity
  8
0
 62
7
100
AcDbLine
 10
1005.046997
 20
24.222316
 30
0.0
 11
960.454022
 21
20.673391
 31
0.0
  0
LINE
  5
18a
100
AcDbEntity
  8
0
 62
7
100
AcDbLine
 10
960.454022
 20
20.673391
 30
0.0
 11
937.662347
 21
17.445541
 31
0.0
  0
LINE
  5
18b
100
AcDbEntity
  8
0
 62
7
100
AcDbLine
 10
937.662347
 20
17.445541
 30
0.0
 11
912.353372
 21
13.388041
 31
0.0
  0
LINE
  5
18c
100
AcDbEntity
  8
0
 62
7
100
AcDbLine
 10
912.353372
 20
13.388041
 30
0.0
 11
908.338847
 21
13.094791
 31
0.0
  0
LINE
  5
18d
100
AcDbEntity
  8
0
 62
7
100
AcDbLine
 10
908.338847
 20
13.094791
 30
0.0
 11
904.992047
 21
12.930841
 31
0.0
  0
LINE
  5
18e
100
AcDbEntity
  8
0
 62
7
100
AcDbLine
 10
904.992047
 20
12.930841
 30
0.0
 11
902.091347
 21
12.855466
 31
0.0
  0
LINE
  5
18f
100
AcDbEntity
  8
0
 62
7
100
AcDbLine
 10
902.091347
 20
12.855466
 30
0.0
 11
899.414972
 21
12.827716
 31
0.0
  0
LINE
  5
190
100
AcDbEntity
  8
0
 62
7
100
AcDbLine
 10
899.414972
 20
12.827716
 30
0.0
 11
886.520072
 21
12.379366
 31
0.0
  0
LINE
  5
191
100
AcDbEntity
  8
0
 62
7
100
AcDbLine
 10
886.520072
 20
12.379366
 30
0.0
 11
864.113072
 21
14.026591
 31
0.0
  0
LINE
  5
192
100
AcDbEntity
  8
0
 62
7
100
AcDbLine
 10
864.113072
 20
14.026591
 30
0.0
 11
844.093847
 21
20.478841
 31
0.0
  0
LINE
  5
193
100
AcDbEntity
  8
0
 62
7
100
AcDbLine
 10
844.093847
 20
20.478841
 30
0.0
 11
833.557397
 21
25.244941
 31
0.0
  0
LINE
  5
194
100
AcDbEntity
  8
0
 62
7
100
AcDbLine
 10
833.557397
 20
25.244941
 30
0.0
 11
823.861697
 21
31.723516
 31
0.0
  0
LINE
  5
195
100
AcDbEntity
  8
0
 62
7
100
AcDbLine
 10
823.861697
 20
31.723516
 30
0.0
 11
801.517772
 21
49.954216
 31
0.0
  0
LINE
  5
196
100
AcDbEntity
  8
0
 62
7
100
AcDbLine
 10
801.517772
 20
49.954216
 30
0.0
 11
786.755672
 21
70.787041
 31
0.0
  0
LINE
  5
197
100
AcDbEntity
  8
0
 62
7
100
AcDbLine
 10
786.755672
 20
70.787041
 30
0.0
 11
787.064222
 21
79.920541
 31
0.0
  0
LINE
  5
198
100
AcDbEntity
  8
0
 62
7
100
AcDbLine
 10
787.064222
 20
79.920541
 30
0.0
 11
790.238447
 21
88.498741
 31
0.0
  0
LINE
  5
199
100
AcDbEntity
  8
0
 62
7
100
AcDbLine
 10
790.238447
 20
88.498741
 30
0.0
 11
803.463647
 21
104.614291
 31
0.0
  0
LINE
  5
19a
100
AcDbEntity
  8
0
 62
7
100
AcDbLine
 10
803.463647
 20
104.614291
 30
0.0
 11
818.454272
 21
119.119216
 31
0.0
  0
LINE
  5
19b
100
AcDbEntity
  8
0
 62
7
100
AcDbLine
 10
818.454272
 20
119.119216
 30
0.0
 11
836.888447
 21
143.045716
 31
0.0
  0
LINE
  5
19c
100
AcDbEntity
  8
0
 62
7
100
AcDbLine
 10
836.888447
 20
143.045716
 30
0.0
 11
846.066047
 21
165.845791
 31
0.0
  0
LINE
  5
19d
100
AcDbEntity
  8
0
 62
7
100
AcDbLine
 10
846.066047
 20
165.845791
 30
0.0
 11
850.964597
 21
194.804566
 31
0.0
  0
LINE
  5
19e
100
AcDbEntity
  8
0
 62
7
100
AcDbLine
 10
850.964597
 20
194.804566
 30
0.0
 11
853.130822
 21
220.771216
 31
0.0
  0
LINE
  5
19f
100
AcDbEntity
  8
0
 62
7
100
AcDbLine
 10
853.130822
 20
220.771216
 30
0.0
 11
851.941697
 21
236.558791
 31
0.0
  0
LINE
  5
1a0
100
AcDbEntity
  8
0
 62
7
100
AcDbLine
 10
851.941697
 20
236.558791
 30
0.0
 11
846.054497
 21
252.540541
 31
0.0
  0
LINE
  5
1a1
100
AcDbEntity
  8
0
 62
7
100
AcDbLine
 10
846.054497
 20
252.540541
 30
0.0
 11
836.982197
 21
269.221966
 31
0.0
  0
LINE
  5
1a2
100
AcDbEntity
  8
0
 62
7
100
AcDbLine
 10
836.982197
 20
269.221966
 30
0.0
 11
828.427922
 21
286.199266
 31
0.0
  0
LINE
  5
1a3
100
AcDbEntity
  8
0
 62
7
100
AcDbLine
 10
828.427922
 20
286.199266
 30
0.0
 11
819.923072
 21
303.381991
 31
0.0
  0
LINE
  5
1a4
100
AcDbEntity
  8
0
 62
7
100
AcDbLine
 10
819.923072
 20
303.381991
 30
0.0
 11
811.305572
 21
320.496991
 31
0.0
  0
LINE
  5
1a5
100
AcDbEntity
  8
0
 62
7
100
AcDbLine
 10
811.305572
 20
320.496991
 30
0.0
 11
802.233947
 21
338.836666
 31
0.0
  0
LINE
  5
1a6
100
AcDbEntity
  8
0
 62
7
100
AcDbLine
 10
802.233947
 20
338.836666
 30
0.0
 11
793.887497
 21
357.471466
 31
0.0
  0
LINE
  5
1a7
100
AcDbEntity
  8
0
 62
7
100
AcDbLine
 10
793.887497
 20
357.471466
 30
0.0
 11
787.443272
 21
372.017641
 31
0.0
  0
LINE
  5
1a8
100
AcDbEntity
  8
0
 62
7
100
AcDbLine
 10
787.443272
 20
372.017641
 30
0.0
 11
781.656047
 21
386.916541
 31
0.0
  0
LINE
  5
1a9
100
AcDbEntity
  8
0
 62
7
100
AcDbLine
 10
781.656047
 20
386.916541
 30
0.0
 11
775.982822
 21
401.925016
 31
0.0
  0
LINE
  5
1aa
100
AcDbEntity
  8
0
 62
7
100
AcDbLine
 10
775.982822
 20
401.925016
 30
0.0
 11
770.381972
 21
416.955991
 31
0.0
  0
LINE
  5
1ab
100
AcDbEntity
  8
0
 62
7
100
AcDbLine
 10
770.381972
 20
416.955991
 30
0.0
 11
763.749722
 21
436.555366
 31
0.0
  0
LINE
  5
1ac
100
AcDbEntity
  8
0
 62
7
100
AcDbLine
 10
763.749722
 20
436.555366
 30
0.0
 11
757.780547
 21
456.397666
 31
0.0
  0
LINE
  5
1ad
100
AcDbEntity
  8
0
 62
7
100
AcDbLine
 10
757.780547
 20
456.397666
 30
0.0
 11
753.664247
 21
470.986966
 31
0.0
  0
LINE
  5
1ae
100
AcDbEntity
  8
0
 62
7
100
AcDbLine
 10
753.664247
 20
470.986966
 30
0.0
 11
750.307397
 21
485.778391
 31
0.0
  0
LINE
  5
1af
100
AcDbEntity
  8
0
 62
7
100
AcDbLine
 10
750.307397
 20
485.778391
 30
0.0
 11
744.878815
 21
511.842128
 31
0.0
  0
LINE
  5
1b0
100
AcDbEntity
  8
0
 62
7
100
AcDbLine
 10
744.878815
 20
511.842128
 30
0.0
 11
743.577820
 21
536.794801
 31
0.0
  0
LINE
  5
1b1
100
AcDbEntity
  8
0
 62
7
100
AcDbLine
 10
743.577820
 20
536.794801
 30
0.0
 11
745.662970
 21
560.385278
 31
0.0
  0
LINE
  5
1b2
100
AcDbEntity
  8
0
 62
7
100
AcDbLine
 10
745.662970
 20
560.385278
 30
0.0
 11
750.392822
 21
582.362453
 31
0.0
  0
LINE
  5
1b3
100
AcDbEntity
  8
0
 62
7
100
AcDbLine
 10
750.392822
 20
582.362453
 30
0.0
 11
757.790597
 21
602.608396
 31
0.0
  0
LINE
  5
1b4
100
AcDbEntity
  8
0
 62
7
100
AcDbLine
 10
757.790597
 20
602.608396
 30
0.0
 11
766.859972
 21
620.827576
 31
0.0
  0
LINE
  5
1b5
100
AcDbEntity
  8
0
 62
7
100
AcDbLine
 10
766.859972
 20
620.827576
 30
0.0
 11
780.930497
 21
649.115903
 31
0.0
  0
LINE
  5
1b6
100
AcDbEntity
  8
0
 62
7
100
AcDbLine
 10
780.930497
 20
649.115903
 30
0.0
 11
780.930497
 21
649.116053
 31
0.0
  0
ENDSEC
  0
SECTION
  2
OBJECTS
  0
DICTIONARY
  5
C
330
0
100
AcDbDictionary
  3
ACAD_GROUP
350
D
  3
ACAD_MLINESTYLE
350
17
  0
DICTIONARY
  5
D
330
C
100
AcDbDictionary
  0
DICTIONARY
  5
1A
330
C
100
AcDbDictionary
  0
DICTIONARY
  5
17
330
C
100
AcDbDictionary
  3
STANDARD
350
18
  0
DICTIONARY
  5
19
330
C
100
AcDbDictionary
  0
ENDSEC
  0
EOF
