  0
SECTION
  2
HEADER
  9
$ACADVER
  1
AC1014
  9
$HANDSEED
  5
FFFF
  9
$MEASUREMENT
 70
     1
  0
ENDSEC
  0
SECTION
  2
TABLES
  0
TABLE
  2
VPORT
  5
8
330
0
100
AcDbSymbolTable
 70
     4
  0
VPORT
  5
2E
330
8
100
AcDbSymbolTableRecord
100
AcDbViewportTableRecord
  2
*ACTIVE
 70
     0
 10
0.0
 20
0.0
 11
1.0
 21
1.0
 12
210.0
 22
148.5
 13
0.0
 23
0.0
 14
10.0
 24
10.0
 15
10.0
 25
10.0
 16
0.0
 26
0.0
 36
1.0
 17
0.0
 27
0.0
 37
0.0
 40
341.0
 41
1.24
 42
50.0
 43
0.0
 44
0.0
 50
0.0
 51
0.0
 71
     0
 72
   100
 73
     1
 74
     3
 75
     0
 76
     0
 77
     0
 78
     0
  0
ENDTAB
  0
TABLE
  2
LTYPE
  5
5
330
0
100
AcDbSymbolTable
 70
     1
  0
LTYPE
  5
14
330
5
100
AcDbSymbolTableRecord
100
AcDbLinetypeTableRecord
  2
BYBLOCK
 70
     0
  3

 72
    65
 73
     0
 40
0.0
  0
LTYPE
  5
15
330
5
100
AcDbSymbolTableRecord
100
AcDbLinetypeTableRecord
  2
BYLAYER
 70
     0
  3

 72
    65
 73
     0
 40
0.0
  0
LTYPE
  5
16
330
5
100
AcDbSymbolTableRecord
100
AcDbLinetypeTableRecord
  2
CONTINUOUS
 70
     0
  3
Solid line
 72
    65
 73
     0
 40
0.0
  0
ENDTAB
  0
TABLE
  2
LAYER
  5
2
100
AcDbSymbolTable
 70
1
  0
LAYER
  5
50
100
AcDbSymbolTableRecord
100
AcDbLayerTableRecord
  2
0
 70
0
  6
CONTINUOUS
  0
ENDTAB
  0
TABLE
  2
STYLE
  5
3
330
0
100
AcDbSymbolTable
 70
     1
  0
STYLE
  5
11
330
3
100
AcDbSymbolTableRecord
100
AcDbTextStyleTableRecord
  2
STANDARD
 70
     0
 40
0.0
 41
1.0
 50
0.0
 71
     0
 42
2.5
  3
txt
  4

  0
ENDTAB
  0
TABLE
  2
VIEW
  5
6
330
0
100
AcDbSymbolTable
 70
     0
  0
ENDTAB
  0
TABLE
  2
UCS
  5
7
330
0
100
AcDbSymbolTable
 70
     0
  0
ENDTAB
  0
TABLE
  2
APPID
  5
9
330
0
100
AcDbSymbolTable
 70
     2
  0
APPID
  5
12
330
9
100
AcDbSymbolTableRecord
100
AcDbRegAppTableRecord
  2
ACAD
 70
     0
  0
ENDTAB
  0
TABLE
  2
DIMSTYLE
  5
A
330
0
100
AcDbSymbolTable
 70
     1
  0
DIMSTYLE
105
27
330
A
100
AcDbSymbolTableRecord
100
AcDbDimStyleTableRecord
  2
ISO-25
 70
     0
  3

  4

  5

  6

  7

 40
1.0
 41
2.5
 42
0.625
 43
3.75
 44
1.25
 45
0.0
 46
0.0
 47
0.0
 48
0.0
140
2.5
141
2.5
142
0.0
143
0.03937007874016
144
1.0
145
0.0
146
1.0
147
0.625
 71
     0
 72
     0
 73
     0
 74
     0
 75
     0
 76
     0
 77
     1
 78
     8
170
     0
171
     3
172
     1
173
     0
174
     0
175
     0
176
     0
177
     0
178
     0
270
     2
271
     2
272
     2
273
     2
274
     3
340
11
275
     0
280
     0
281
     0
282
     0
283
     0
284
     8
285
     0
286
     0
287
     3
288
     0
  0
ENDTAB
  0
TABLE
  2
BLOCK_RECORD
  5
1
330
0
100
AcDbSymbolTable
 70
     1
  0
BLOCK_RECORD
  5
1F
330
1
100
AcDbSymbolTableRecord
100
AcDbBlockTableRecord
  2
*MODEL_SPACE
  0
BLOCK_RECORD
  5
1B
330
1
100
AcDbSymbolTableRecord
100
AcDbBlockTableRecord
  2
*PAPER_SPACE
  0
ENDTAB
  0
ENDSEC
  0
SECTION
  2
BLOCKS
  0
BLOCK
  5
20
330
1F
100
AcDbEntity
  8
0
100
AcDbBlockBegin
  2
*MODEL_SPACE
 70
     0
 10
0.0
 20
0.0
 30
0.0
  3
*MODEL_SPACE
  1

  0
ENDBLK
  5
21
330
1F
100
AcDbEntity
  8
0
100
AcDbBlockEnd
  0
BLOCK
  5
1C
330
1B
100
AcDbEntity
 67
     1
  8
0
100
AcDbBlockBegin
  2
*PAPER_SPACE
  1

  0
ENDBLK
  5
1D
330
1B
100
AcDbEntity
 67
     1
  8
0
100
AcDbBlockEnd
  0
ENDSEC
  0
SECTION
  2
ENTITIES
  0
LINE
  5
100
100
AcDbEntity
  8
0
 62
7
100
AcDbLine
 10
275.494925
 20
228.993719
 30
0.0
 11
276.612314
 21
235.256660
 31
0.0
  0
LINE
  5
101
100
AcDbEntity
  8
0
 62
7
100
AcDbLine
 10
276.612314
 20
235.256660
 30
0.0
 11
274.436063
 21
243.273691
 31
0.0
  0
LINE
  5
102
100
AcDbEntity
  8
0
 62
7
100
AcDbLine
 10
274.436063
 20
243.273691
 30
0.0
 11
270.557298
 21
249.772602
 31
0.0
  0
LINE
  5
103
100
AcDbEntity
  8
0
 62
7
100
AcDbLine
 10
270.557298
 20
249.772602
 30
0.0
 11
265.093202
 21
255.353860
 31
0.0
  0
LINE
  5
104
100
AcDbEntity
  8
0
 62
7
100
AcDbLine
 10
265.093202
 20
255.353860
 30
0.0
 11
260.588345
 21
262.120325
 31
0.0
  0
LINE
  5
105
100
AcDbEntity
  8
0
 62
7
100
AcDbLine
 10
260.588345
 20
262.120325
 30
0.0
 11
256.352136
 21
269.101814
 31
0.0
  0
LINE
  5
106
100
AcDbEntity
  8
0
 62
7
100
AcDbLine
 10
256.352136
 20
269.101814
 30
0.0
 11
253.239353
 21
275.399752
 31
0.0
  0
LINE
  5
107
100
AcDbEntity
  8
0
 62
7
100
AcDbLine
 10
253.239353
 20
275.399752
 30
0.0
 11
251.523014
 21
282.173342
 31
0.0
  0
LINE
  5
108
100
AcDbEntity
  8
0
 62
7
100
AcDbLine
 10
251.523014
 20
282.173342
 30
0.0
 11
250.696834
 21
287.861330
 31
0.0
  0
LINE
  5
109
100
AcDbEntity
  8
0
 62
7
100
AcDbLine
 10
250.696834
 20
287.861330
 30
0.0
 11
250.488546
 21
293.656735
 31
0.0
  0
LINE
  5
10a
100
AcDbEntity
  8
0
 62
7
100
AcDbLine
 10
250.488546
 20
293.656735
 30
0.0
 11
251.406452
 21
302.696042
 31
0.0
  0
LINE
  5
10b
100
AcDbEntity
  8
0
 62
7
100
AcDbLine
 10
251.406452
 20
302.696042
 30
0.0
 11
254.230707
 21
311.331589
 31
0.0
  0
LINE
  5
10c
100
AcDbEntity
  8
0
 62
7
100
AcDbLine
 10
254.230707
 20
311.331589
 30
0.0
 11
259.533015
 21
320.267365
 31
0.0
  0
LINE
  5
10d
100
AcDbEntity
  8
0
 62
7
100
AcDbLine
 10
259.533015
 20
320.267365
 30
0.0
 11
266.733989
 21
328.952979
 31
0.0
  0
LINE
  5
10e
100
AcDbEntity
  8
0
 62
7
100
AcDbLine
 10
266.733989
 20
328.952979
 30
0.0
 11
269.503383
 21
333.845805
 31
0.0
  0
LINE
  5
10f
100
AcDbEntity
  8
0
 62
7
100
AcDbLine
 10
269.503383
 20
333.845805
 30
0.0
 11
270.453211
 21
336.953260
 31
0.0
  0
LINE
  5
110
100
AcDbEntity
  8
0
 62
7
100
AcDbLine
 10
270.453211
 20
336.953260
 30
0.0
 11
272.287567
 21
341.526413
 31
0.0
  0
LINE
  5
111
100
AcDbEntity
  8
0
 62
7
100
AcDbLine
 10
272.287567
 20
341.526413
 30
0.0
 11
273.997939
 21
346.176045
 31
0.0
  0
LINE
  5
112
100
AcDbEntity
  8
0
 62
7
100
AcDbLine
 10
273.997939
 20
346.176045
 30
0.0
 11
275.558346
 21
351.296552
 31
0.0
  0
LINE
  5
113
100
AcDbEntity
  8
0
 62
7
100
AcDbLine
 10
275.558346
 20
351.296552
 30
0.0
 11
276.865044
 21
356.467283
 31
0.0
  0
LINE
  5
114
100
AcDbEntity
  8
0
 62
7
100
AcDbLine
 10
276.865044
 20
356.467283
 30
0.0
 11
279.712913
 21
362.415566
 31
0.0
  0
LINE
  5
115
100
AcDbEntity
  8
0
 62
7
100
AcDbLine
 10
279.712913
 20
362.415566
 30
0.0
 11
283.179722
 21
369.075169
 31
0.0
  0
LINE
  5
116
100
AcDbEntity
  8
0
 62
7
100
AcDbLine
 10
283.179722
 20
369.075169
 30
0.0
 11
288.302161
 21
375.616192
 31
0.0
  0
LINE
  5
117
100
AcDbEntity
  8
0
 62
7
100
AcDbLine
 10
288.302161
 20
375.616192
 30
0.0
 11
294.374984
 21
379.426399
 31
0.0
  0
LINE
  5
118
100
AcDbEntity
  8
0
 62
7
100
AcDbLine
 10
294.374984
 20
379.426399
 30
0.0
 11
297.822293
 21
373.057100
 31
0.0
  0
LINE
  5
119
100
AcDbEntity
  8
0
 62
7
100
AcDbLine
 10
297.822293
 20
373.057100
 30
0.0
 11
299.758196
 21
365.013830
 31
0.0
  0
LINE
  5
11a
100
AcDbEntity
  8
0
 62
7
100
AcDbLine
 10
299.758196
 20
365.013830
 30
0.0
 11
301.361889
 21
357.453938
 31
0.0
  0
LINE
  5
11b
100
AcDbEntity
  8
0
 62
7
100
AcDbLine
 10
301.361889
 20
357.453938
 30
0.0
 11
303.732291
 21
351.688514
 31
0.0
  0
LINE
  5
11c
100
AcDbEntity
  8
0
 62
7
100
AcDbLine
 10
303.732291
 20
351.688514
 30
0.0
 11
305.911690
 21
348.371118
 31
0.0
  0
LINE
  5
11d
100
AcDbEntity
  8
0
 62
7
100
AcDbLine
 10
305.911690
 20
348.371118
 30
0.0
 11
307.243920
 21
346.189419
 31
0.0
  0
LINE
  5
11e
100
AcDbEntity
  8
0
 62
7
100
AcDbLine
 10
307.243920
 20
346.189419
 30
0.0
 11
309.365243
 21
343.588174
 31
0.0
  0
LINE
  5
11f
100
AcDbEntity
  8
0
 62
7
100
AcDbLine
 10
309.365243
 20
343.588174
 30
0.0
 11
312.584138
 21
342.704584
 31
0.0
  0
LINE
  5
120
100
AcDbEntity
  8
0
 62
7
100
AcDbLine
 10
312.584138
 20
342.704584
 30
0.0
 11
319.553924
 21
342.474323
 31
0.0
  0
LINE
  5
121
100
AcDbEntity
  8
0
 62
7
100
AcDbLine
 10
319.553924
 20
342.474323
 30
0.0
 11
326.375914
 21
340.956879
 31
0.0
  0
LINE
  5
122
100
AcDbEntity
  8
0
 62
7
100
AcDbLine
 10
326.375914
 20
340.956879
 30
0.0
 11
332.371928
 21
339.232132
 31
0.0
  0
LINE
  5
123
100
AcDbEntity
  8
0
 62
7
100
AcDbLine
 10
332.371928
 20
339.232132
 30
0.0
 11
338.135585
 21
336.916242
 31
0.0
  0
LINE
  5
124
100
AcDbEntity
  8
0
 62
7
100
AcDbLine
 10
338.135585
 20
336.916242
 30
0.0
 11
342.754549
 21
335.035187
 31
0.0
  0
LINE
  5
125
100
AcDbEntity
  8
0
 62
7
100
AcDbLine
 10
342.754549
 20
335.035187
 30
0.0
 11
347.270404
 21
332.884177
 31
0.0
  0
LINE
  5
126
100
AcDbEntity
  8
0
 62
7
100
AcDbLine
 10
347.270404
 20
332.884177
 30
0.0
 11
351.720722
 21
329.891888
 31
0.0
  0
LINE
  5
127
100
AcDbEntity
  8
0
 62
7
100
AcDbLine
 10
351.720722
 20
329.891888
 30
0.0
 11
355.977842
 21
326.585469
 31
0.0
  0
LINE
  5
128
100
AcDbEntity
  8
0
 62
7
100
AcDbLine
 10
355.977842
 20
326.585469
 30
0.0
 11
362.002431
 21
320.444329
 31
0.0
  0
LINE
  5
129
100
AcDbEntity
  8
0
 62
7
100
AcDbLine
 10
362.002431
 20
320.444329
 30
0.0
 11
366.187742
 21
317.399043
 31
0.0
  0
LINE
  5
12a
100
AcDbEntity
  8
0
 62
7
100
AcDbLine
 10
366.187742
 20
317.399043
 30
0.0
 11
371.426360
 21
319.837314
 31
0.0
  0
LINE
  5
12b
100
AcDbEntity
  8
0
 62
7
100
AcDbLine
 10
371.426360
 20
319.837314
 30
0.0
 11
376.656564
 21
322.232584
 31
0.0
  0
LINE
  5
12c
100
AcDbEntity
  8
0
 62
7
100
AcDbLine
 10
376.656564
 20
322.232584
 30
0.0
 11
384.068866
 21
326.355136
 31
0.0
  0
LINE
  5
12d
100
AcDbEntity
  8
0
 62
7
100
AcDbLine
 10
384.068866
 20
326.355136
 30
0.0
 11
391.834757
 21
332.185259
 31
0.0
  0
LINE
  5
12e
100
AcDbEntity
  8
0
 62
7
100
AcDbLine
 10
391.834757
 20
332.185259
 30
0.0
 11
397.858288
 21
336.491752
 31
0.0
  0
LINE
  5
12f
100
AcDbEntity
  8
0
 62
7
100
AcDbLine
 10
397.858288
 20
336.491752
 30
0.0
 11
403.549025
 21
339.522909
 31
0.0
  0
LINE
  5
130
100
AcDbEntity
  8
0
 62
7
100
AcDbLine
 10
403.549025
 20
339.522909
 30
0.0
 11
405.740834
 21
336.675175
 31
0.0
  0
LINE
  5
131
100
AcDbEntity
  8
0
 62
7
100
AcDbLine
 10
405.740834
 20
336.675175
 30
0.0
 11
406.587686
 21
332.278535
 31
0.0
  0
LINE
  5
132
100
AcDbEntity
  8
0
 62
7
100
AcDbLine
 10
406.587686
 20
332.278535
 30
0.0
 11
406.764480
 21
328.697603
 31
0.0
  0
LINE
  5
133
100
AcDbEntity
  8
0
 62
7
100
AcDbLine
 10
406.764480
 20
328.697603
 30
0.0
 11
406.172845
 21
323.520785
 31
0.0
  0
LINE
  5
134
100
AcDbEntity
  8
0
 62
7
100
AcDbLine
 10
406.172845
 20
323.520785
 30
0.0
 11
405.498158
 21
317.151488
 31
0.0
  0
LINE
  5
135
100
AcDbEntity
  8
0
 62
7
100
AcDbLine
 10
405.498158
 20
317.151488
 30
0.0
 11
404.248160
 21
310.909729
 31
0.0
  0
LINE
  5
136
100
AcDbEntity
  8
0
 62
7
100
AcDbLine
 10
404.248160
 20
310.909729
 30
0.0
 11
402.462620
 21
305.724849
 31
0.0
  0
LINE
  5
137
100
AcDbEntity
  8
0
 62
7
100
AcDbLine
 10
402.462620
 20
305.724849
 30
0.0
 11
400.126137
 21
300.725229
 31
0.0
  0
LINE
  5
138
100
AcDbEntity
  8
0
 62
7
100
AcDbLine
 10
400.126137
 20
300.725229
 30
0.0
 11
395.167105
 21
294.320333
 31
0.0
  0
LINE
  5
139
100
AcDbEntity
  8
0
 62
7
100
AcDbLine
 10
395.167105
 20
294.320333
 30
0.0
 11
389.832549
 21
288.194420
 31
0.0
  0
LINE
  5
13a
100
AcDbEntity
  8
0
 62
7
100
AcDbLine
 10
389.832549
 20
288.194420
 30
0.0
 11
388.737042
 21
284.286243
 31
0.0
  0
LINE
  5
13b
100
AcDbEntity
  8
0
 62
7
100
AcDbLine
 10
388.737042
 20
284.286243
 30
0.0
 11
388.233751
 21
280.159071
 31
0.0
  0
LINE
  5
13c
100
AcDbEntity
  8
0
 62
7
100
AcDbLine
 10
388.233751
 20
280.159071
 30
0.0
 11
387.140255
 21
274.289727
 31
0.0
  0
LINE
  5
13d
100
AcDbEntity
  8
0
 62
7
100
AcDbLine
 10
387.140255
 20
274.289727
 30
0.0
 11
385.789980
 21
268.608641
 31
0.0
  0
LINE
  5
13e
100
AcDbEntity
  8
0
 62
7
100
AcDbLine
 10
385.789980
 20
268.608641
 30
0.0
 11
384.625099
 21
264.650387
 31
0.0
  0
LINE
  5
13f
100
AcDbEntity
  8
0
 62
7
100
AcDbLine
 10
384.625099
 20
264.650387
 30
0.0
 11
382.318091
 21
258.362837
 31
0.0
  0
LINE
  5
140
100
AcDbEntity
  8
0
 62
7
100
AcDbLine
 10
382.318091
 20
258.362837
 30
0.0
 11
379.466862
 21
252.715771
 31
0.0
  0
LINE
  5
141
100
AcDbEntity
  8
0
 62
7
100
AcDbLine
 10
379.466862
 20
252.715771
 30
0.0
 11
375.329096
 21
247.336419
 31
0.0
  0
LINE
  5
142
100
AcDbEntity
  8
0
 62
7
100
AcDbLine
 10
375.329096
 20
247.336419
 30
0.0
 11
370.766357
 21
243.411627
 31
0.0
  0
LINE
  5
143
100
AcDbEntity
  8
0
 62
7
100
AcDbLine
 10
370.766357
 20
243.411627
 30
0.0
 11
364.870196
 21
240.170616
 31
0.0
  0
LINE
  5
144
100
AcDbEntity
  8
0
 62
7
100
AcDbLine
 10
364.870196
 20
240.170616
 30
0.0
 11
354.295647
 21
236.506248
 31
0.0
  0
LINE
  5
145
100
AcDbEntity
  8
0
 62
7
100
AcDbLine
 10
354.295647
 20
236.506248
 30
0.0
 11
345.424618
 21
233.614124
 31
0.0
  0
LINE
  5
146
100
AcDbEntity
  8
0
 62
7
100
AcDbLine
 10
345.424618
 20
233.614124
 30
0.0
 11
346.051945
 21
226.325965
 31
0.0
  0
LINE
  5
147
100
AcDbEntity
  8
0
 62
7
100
AcDbLine
 10
346.051945
 20
226.325965
 30
0.0
 11
353.543728
 21
217.054097
 31
0.0
  0
LINE
  5
148
100
AcDbEntity
  8
0
 62
7
100
AcDbLine
 10
353.543728
 20
217.054097
 30
0.0
 11
358.127131
 21
209.092999
 31
0.0
  0
LINE
  5
149
100
AcDbEntity
  8
0
 62
7
100
AcDbLine
 10
358.127131
 20
209.092999
 30
0.0
 11
363.656791
 21
202.645100
 31
0.0
  0
LINE
  5
14a
100
AcDbEntity
  8
0
 62
7
100
AcDbLine
 10
363.656791
 20
202.645100
 30
0.0
 11
370.769743
 21
193.204934
 31
0.0
  0
LINE
  5
14b
100
AcDbEntity
  8
0
 62
7
100
AcDbLine
 10
370.769743
 20
193.204934
 30
0.0
 11
377.088179
 21
183.694393
 31
0.0
  0
LINE
  5
14c
100
AcDbEntity
  8
0
 62
7
100
AcDbLine
 10
377.088179
 20
183.694393
 30
0.0
 11
381.116566
 21
179.216569
 31
0.0
  0
LINE
  5
14d
100
AcDbEntity
  8
0
 62
7
100
AcDbLine
 10
381.116566
 20
179.216569
 30
0.0
 11
385.269333
 21
174.864850
 31
0.0
  0
LINE
  5
14e
100
AcDbEntity
  8
0
 62
7
100
AcDbLine
 10
385.269333
 20
174.864850
 30
0.0
 11
393.625695
 21
166.547991
 31
0.0
  0
LINE
  5
14f
100
AcDbEntity
  8
0
 62
7
100
AcDbLine
 10
393.625695
 20
166.547991
 30
0.0
 11
403.277140
 21
159.807598
 31
0.0
  0
LINE
  5
150
100
AcDbEntity
  8
0
 62
7
100
AcDbLine
 10
403.277140
 20
159.807598
 30
0.0
 11
406.937782
 21
157.990969
 31
0.0
  0
LINE
  5
151
100
AcDbEntity
  8
0
 62
7
100
AcDbLine
 10
406.937782
 20
157.990969
 30
0.0
 11
410.768579
 21
156.492263
 31
0.0
  0
LINE
  5
152
100
AcDbEntity
  8
0
 62
7
100
AcDbLine
 10
410.768579
 20
156.492263
 30
0.0
 11
417.403429
 21
153.544090
 31
0.0
  0
LINE
  5
153
100
AcDbEntity
  8
0
 62
7
100
AcDbLine
 10
417.403429
 20
153.544090
 30
0.0
 11
423.690617
 21
149.869742
 31
0.0
  0
LINE
  5
154
100
AcDbEntity
  8
0
 62
7
100
AcDbLine
 10
423.690617
 20
149.869742
 30
0.0
 11
432.007688
 21
143.683122
 31
0.0
  0
LINE
  5
155
100
AcDbEntity
  8
0
 62
7
100
AcDbLine
 10
432.007688
 20
143.683122
 30
0.0
 11
439.560087
 21
136.666955
 31
0.0
  0
LINE
  5
156
100
AcDbEntity
  8
0
 62
7
100
AcDbLine
 10
439.560087
 20
136.666955
 30
0.0
 11
447.743994
 21
127.317638
 31
0.0
  0
LINE
  5
157
100
AcDbEntity
  8
0
 62
7
100
AcDbLine
 10
447.743994
 20
127.317638
 30
0.0
 11
454.938967
 21
117.122766
 31
0.0
  0
LINE
  5
158
100
AcDbEntity
  8
0
 62
7
100
AcDbLine
 10
454.938967
 20
117.122766
 30
0.0
 11
459.183863
 21
109.577511
 31
0.0
  0
LINE
  5
159
100
AcDbEntity
  8
0
 62
7
100
AcDbLine
 10
459.183863
 20
109.577511
 30
0.0
 11
462.992778
 21
101.843237
 31
0.0
  0
LINE
  5
15a
100
AcDbEntity
  8
0
 62
7
100
AcDbLine
 10
462.992778
 20
101.843237
 30
0.0
 11
465.282773
 21
96.128078
 31
0.0
  0
LINE
  5
15b
100
AcDbEntity
  8
0
 62
7
100
AcDbLine
 10
465.282773
 20
96.128078
 30
0.0
 11
467.210263
 21
90.216599
 31
0.0
  0
LINE
  5
15c
100
AcDbEntity
  8
0
 62
7
100
AcDbLine
 10
467.210263
 20
90.216599
 30
0.0
 11
470.166875
 21
78.945560
 31
0.0
  0
LINE
  5
15d
100
AcDbEntity
  8
0
 62
7
100
AcDbLine
 10
470.166875
 20
78.945560
 30
0.0
 11
471.803059
 21
67.406790
 31
0.0
  0
LINE
  5
15e
100
AcDbEntity
  8
0
 62
7
100
AcDbLine
 10
471.803059
 20
67.406790
 30
0.0
 11
472.969686
 21
61.579977
 31
0.0
  0
LINE
  5
15f
100
AcDbEntity
  8
0
 62
7
100
AcDbLine
 10
472.969686
 20
61.579977
 30
0.0
 11
473.831249
 21
55.742740
 31
0.0
  0
LINE
  5
160
100
AcDbEntity
  8
0
 62
7
100
AcDbLine
 10
473.831249
 20
55.742740
 30
0.0
 11
474.757581
 21
50.077005
 31
0.0
  0
LINE
  5
161
100
AcDbEntity
  8
0
 62
7
100
AcDbLine
 10
474.757581
 20
50.077005
 30
0.0
 11
477.065171
 21
44.625371
 31
0.0
  0
LINE
  5
162
100
AcDbEntity
  8
0
 62
7
100
AcDbLine
 10
477.065171
 20
44.625371
 30
0.0
 11
484.108803
 21
39.998550
 31
0.0
  0
LINE
  5
163
100
AcDbEntity
  8
0
 62
7
100
AcDbLine
 10
484.108803
 20
39.998550
 30
0.0
 11
491.892898
 21
38.678702
 31
0.0
  0
LINE
  5
164
100
AcDbEntity
  8
0
 62
7
100
AcDbLine
 10
491.892898
 20
38.678702
 30
0.0
 11
498.678190
 21
38.128316
 31
0.0
  0
LINE
  5
165
100
AcDbEntity
  8
0
 62
7
100
AcDbLine
 10
498.678190
 20
38.128316
 30
0.0
 11
505.455069
 21
38.212771
 31
0.0
  0
LINE
  5
166
100
AcDbEntity
  8
0
 62
7
100
AcDbLine
 10
505.455069
 20
38.212771
 30
0.0
 11
514.943398
 21
38.989773
 31
0.0
  0
LINE
  5
167
100
AcDbEntity
  8
0
 62
7
100
AcDbLine
 10
514.943398
 20
38.989773
 30
0.0
 11
524.373571
 21
40.259508
 31
0.0
  0
LINE
  5
168
100
AcDbEntity
  8
0
 62
7
100
AcDbLine
 10
524.373571
 20
40.259508
 30
0.0
 11
532.343562
 21
41.680215
 31
0.0
  0
LINE
  5
169
100
AcDbEntity
  8
0
 62
7
100
AcDbLine
 10
532.343562
 20
41.680215
 30
0.0
 11
540.695082
 21
43.560397
 31
0.0
  0
LINE
  5
16a
100
AcDbEntity
  8
0
 62
7
100
AcDbLine
 10
540.695082
 20
43.560397
 30
0.0
 11
549.807491
 21
46.128946
 31
0.0
  0
LINE
  5
16b
100
AcDbEntity
  8
0
 62
7
100
AcDbLine
 10
549.807491
 20
46.128946
 30
0.0
 11
559.292618
 21
49.516856
 31
0.0
  0
LINE
  5
16c
100
AcDbEntity
  8
0
 62
7
100
AcDbLine
 10
559.292618
 20
49.516856
 30
0.0
 11
566.061056
 21
52.751308
 31
0.0
  0
LINE
  5
16d
100
AcDbEntity
  8
0
 62
7
100
AcDbLine
 10
566.061056
 20
52.751308
 30
0.0
 11
572.416639
 21
56.288178
 31
0.0
  0
LINE
  5
16e
100
AcDbEntity
  8
0
 62
7
100
AcDbLine
 10
572.416639
 20
56.288178
 30
0.0
 11
577.946299
 21
59.474688
 31
0.0
  0
LINE
  5
16f
100
AcDbEntity
  8
0
 62
7
100
AcDbLine
 10
577.946299
 20
59.474688
 30
0.0
 11
583.307736
 21
62.321075
 31
0.0
  0
LINE
  5
170
100
AcDbEntity
  8
0
 62
7
100
AcDbLine
 10
583.307736
 20
62.321075
 30
0.0
 11
590.098770
 21
64.868722
 31
0.0
  0
LINE
  5
171
100
AcDbEntity
  8
0
 62
7
100
AcDbLine
 10
590.098770
 20
64.868722
 30
0.0
 11
592.846441
 21
60.841975
 31
0.0
  0
LINE
  5
172
100
AcDbEntity
  8
0
 62
7
100
AcDbLine
 10
592.846441
 20
60.841975
 30
0.0
 11
587.107655
 21
53.990563
 31
0.0
  0
LINE
  5
173
100
AcDbEntity
  8
0
 62
7
100
AcDbLine
 10
587.107655
 20
53.990563
 30
0.0
 11
576.837694
 21
45.203354
 31
0.0
  0
LINE
  5
174
100
AcDbEntity
  8
0
 62
7
100
AcDbLine
 10
576.837694
 20
45.203354
 30
0.0
 11
568.104883
 21
39.684886
 31
0.0
  0
LINE
  5
175
100
AcDbEntity
  8
0
 62
7
100
AcDbLine
 10
568.104883
 20
39.684886
 30
0.0
 11
557.149810
 21
33.976104
 31
0.0
  0
LINE
  5
176
100
AcDbEntity
  8
0
 62
7
100
AcDbLine
 10
557.149810
 20
33.976104
 30
0.0
 11
543.696859
 21
28.080102
 31
0.0
  0
LINE
  5
177
100
AcDbEntity
  8
0
 62
7
100
AcDbLine
 10
543.696859
 20
28.080102
 30
0.0
 11
529.292837
 21
22.973062
 31
0.0
  0
LINE
  5
178
100
AcDbEntity
  8
0
 62
7
100
AcDbLine
 10
529.292837
 20
22.973062
 30
0.0
 11
517.337295
 21
20.571757
 31
0.0
  0
LINE
  5
179
100
AcDbEntity
  8
0
 62
7
100
AcDbLine
 10
517.337295
 20
20.571757
 30
0.0
 11
501.705182
 21
18.390241
 31
0.0
  0
LINE
  5
17a
100
AcDbEntity
  8
0
 62
7
100
AcDbLine
 10
501.705182
 20
18.390241
 30
0.0
 11
490.039439
 21
17.909731
 31
0.0
  0
LINE
  5
17b
100
AcDbEntity
  8
0
 62
7
100
AcDbLine
 10
490.039439
 20
17.909731
 30
0.0
 11
483.715368
 21
18.544122
 31
0.0
  0
LINE
  5
17c
100
AcDbEntity
  8
0
 62
7
100
AcDbLine
 10
483.715368
 20
18.544122
 30
0.0
 11
476.423663
 21
19.062732
 31
0.0
  0
LINE
  5
17d
100
AcDbEntity
  8
0
 62
7
100
AcDbLine
 10
476.423663
 20
19.062732
 30
0.0
 11
468.284921
 21
20.283811
 31
0.0
  0
LINE
  5
17e
100
AcDbEntity
  8
0
 62
7
100
AcDbLine
 10
468.284921
 20
20.283811
 30
0.0
 11
463.684187
 21
20.519025
 31
0.0
  0
LINE
  5
17f
100
AcDbEntity
  8
0
 62
7
100
AcDbLine
 10
463.684187
 20
20.519025
 30
0.0
 11
459.083427
 21
20.754240
 31
0.0
  0
LINE
  5
180
100
AcDbEntity
  8
0
 62
7
100
AcDbLine
 10
459.083427
 20
20.754240
 30
0.0
 11
452.931679
 21
20.175199
 31
0.0
  0
LINE
  5
181
100
AcDbEntity
  8
0
 62
7
100
AcDbLine
 10
452.931679
 20
20.175199
 30
0.0
 11
450.486929
 21
19.262069
 31
0.0
  0
LINE
  5
182
100
AcDbEntity
  8
0
 62
7
100
AcDbLine
 10
450.486929
 20
19.262069
 30
0.0
 11
442.063839
 21
15.063237
 31
0.0
  0
LINE
  5
183
100
AcDbEntity
  8
0
 62
7
100
AcDbLine
 10
442.063839
 20
15.063237
 30
0.0
 11
434.021644
 21
11.284458
 31
0.0
  0
LINE
  5
184
100
AcDbEntity
  8
0
 62
7
100
AcDbLine
 10
434.021644
 20
11.284458
 30
0.0
 11
418.253006
 21
7.599791
 31
0.0
  0
LINE
  5
185
100
AcDbEntity
  8
0
 62
7
100
AcDbLine
 10
418.253006
 20
7.599791
 30
0.0
 11
400.827971
 21
5.915692
 31
0.0
  0
LINE
  5
186
100
AcDbEntity
  8
0
 62
7
100
AcDbLine
 10
400.827971
 20
5.915692
 30
0.0
 11
385.962886
 21
7.306845
 31
0.0
  0
LINE
  5
187
100
AcDbEntity
  8
0
 62
7
100
AcDbLine
 10
385.962886
 20
7.306845
 30
0.0
 11
373.682039
 21
8.184230
 31
0.0
  0
LINE
  5
188
100
AcDbEntity
  8
0
 62
7
100
AcDbLine
 10
373.682039
 20
8.184230
 30
0.0
 11
354.558246
 21
8.545095
 31
0.0
  0
LINE
  5
189
100
AcDbEntity
  8
0
 62
7
100
AcDbLine
 10
354.558246
 20
8.545095
 30
0.0
 11
338.826836
 21
7.293113
 31
0.0
  0
LINE
  5
18a
100
AcDbEntity
  8
0
 62
7
100
AcDbLine
 10
338.826836
 20
7.293113
 30
0.0
 11
330.786439
 21
6.154399
 31
0.0
  0
LINE
  5
18b
100
AcDbEntity
  8
0
 62
7
100
AcDbLine
 10
330.786439
 20
6.154399
 30
0.0
 11
321.857995
 21
4.723003
 31
0.0
  0
LINE
  5
18c
100
AcDbEntity
  8
0
 62
7
100
AcDbLine
 10
321.857995
 20
4.723003
 30
0.0
 11
320.441760
 21
4.619551
 31
0.0
  0
LINE
  5
18d
100
AcDbEntity
  8
0
 62
7
100
AcDbLine
 10
320.441760
 20
4.619551
 30
0.0
 11
319.261083
 21
4.561713
 31
0.0
  0
LINE
  5
18e
100
AcDbEntity
  8
0
 62
7
100
AcDbLine
 10
319.261083
 20
4.561713
 30
0.0
 11
318.237781
 21
4.535123
 31
0.0
  0
LINE
  5
18f
100
AcDbEntity
  8
0
 62
7
100
AcDbLine
 10
318.237781
 20
4.535123
 30
0.0
 11
317.293615
 21
4.525333
 31
0.0
  0
LINE
  5
190
100
AcDbEntity
  8
0
 62
7
100
AcDbLine
 10
317.293615
 20
4.525333
 30
0.0
 11
312.744581
 21
4.367165
 31
0.0
  0
LINE
  5
191
100
AcDbEntity
  8
0
 62
7
100
AcDbLine
 10
312.744581
 20
4.367165
 30
0.0
 11
304.839889
 21
4.948270
 31
0.0
  0
LINE
  5
192
100
AcDbEntity
  8
0
 62
7
100
AcDbLine
 10
304.839889
 20
4.948270
 30
0.0
 11
297.777552
 21
7.224480
 31
0.0
  0
LINE
  5
193
100
AcDbEntity
  8
0
 62
7
100
AcDbLine
 10
297.777552
 20
7.224480
 30
0.0
 11
294.060526
 21
8.905854
 31
0.0
  0
LINE
  5
194
100
AcDbEntity
  8
0
 62
7
100
AcDbLine
 10
294.060526
 20
8.905854
 30
0.0
 11
290.640099
 21
11.191351
 31
0.0
  0
LINE
  5
195
100
AcDbEntity
  8
0
 62
7
100
AcDbLine
 10
290.640099
 20
11.191351
 30
0.0
 11
282.757659
 21
17.622737
 31
0.0
  0
LINE
  5
196
100
AcDbEntity
  8
0
 62
7
100
AcDbLine
 10
282.757659
 20
17.622737
 30
0.0
 11
277.549918
 21
24.972095
 31
0.0
  0
LINE
  5
197
100
AcDbEntity
  8
0
 62
7
100
AcDbLine
 10
277.549918
 20
24.972095
 30
0.0
 11
277.658767
 21
28.194191
 31
0.0
  0
LINE
  5
198
100
AcDbEntity
  8
0
 62
7
100
AcDbLine
 10
277.658767
 20
28.194191
 30
0.0
 11
278.778563
 21
31.220389
 31
0.0
  0
LINE
  5
199
100
AcDbEntity
  8
0
 62
7
100
AcDbLine
 10
278.778563
 20
31.220389
 30
0.0
 11
283.444120
 21
36.905597
 31
0.0
  0
LINE
  5
19a
100
AcDbEntity
  8
0
 62
7
100
AcDbLine
 10
283.444120
 20
36.905597
 30
0.0
 11
288.732479
 21
42.022612
 31
0.0
  0
LINE
  5
19b
100
AcDbEntity
  8
0
 62
7
100
AcDbLine
 10
288.732479
 20
42.022612
 30
0.0
 11
295.235647
 21
50.463350
 31
0.0
  0
LINE
  5
19c
100
AcDbEntity
  8
0
 62
7
100
AcDbLine
 10
295.235647
 20
50.463350
 30
0.0
 11
298.473300
 21
58.506710
 31
0.0
  0
LINE
  5
19d
100
AcDbEntity
  8
0
 62
7
100
AcDbLine
 10
298.473300
 20
58.506710
 30
0.0
 11
300.201400
 21
68.722722
 31
0.0
  0
LINE
  5
19e
100
AcDbEntity
  8
0
 62
7
100
AcDbLine
 10
300.201400
 20
68.722722
 30
0.0
 11
300.965596
 21
77.883179
 31
0.0
  0
LINE
  5
19f
100
AcDbEntity
  8
0
 62
7
100
AcDbLine
 10
300.965596
 20
77.883179
 30
0.0
 11
300.546099
 21
83.452685
 31
0.0
  0
LINE
  5
1a0
100
AcDbEntity
  8
0
 62
7
100
AcDbLine
 10
300.546099
 20
83.452685
 30
0.0
 11
298.469225
 21
89.090691
 31
0.0
  0
LINE
  5
1a1
100
AcDbEntity
  8
0
 62
7
100
AcDbLine
 10
298.469225
 20
89.090691
 30
0.0
 11
295.268720
 21
94.975527
 31
0.0
  0
LINE
  5
1a2
100
AcDbEntity
  8
0
 62
7
100
AcDbLine
 10
295.268720
 20
94.975527
 30
0.0
 11
292.250961
 21
100.964741
 31
0.0
  0
LINE
  5
1a3
100
AcDbEntity
  8
0
 62
7
100
AcDbLine
 10
292.250961
 20
100.964741
 30
0.0
 11
289.250639
 21
107.026425
 31
0.0
  0
LINE
  5
1a4
100
AcDbEntity
  8
0
 62
7
100
AcDbLine
 10
289.250639
 20
107.026425
 30
0.0
 11
286.210577
 21
113.064216
 31
0.0
  0
LINE
  5
1a5
100
AcDbEntity
  8
0
 62
7
100
AcDbLine
 10
286.210577
 20
113.064216
 30
0.0
 11
283.010309
 21
119.534046
 31
0.0
  0
LINE
  5
1a6
100
AcDbEntity
  8
0
 62
7
100
AcDbLine
 10
283.010309
 20
119.534046
 30
0.0
 11
280.065867
 21
126.107989
 31
0.0
  0
LINE
  5
1a7
100
AcDbEntity
  8
0
 62
7
100
AcDbLine
 10
280.065867
 20
126.107989
 30
0.0
 11
277.792488
 21
131.239557
 31
0.0
  0
LINE
  5
1a8
100
AcDbEntity
  8
0
 62
7
100
AcDbLine
 10
277.792488
 20
131.239557
 30
0.0
 11
275.750883
 21
136.495557
 31
0.0
  0
LINE
  5
1a9
100
AcDbEntity
  8
0
 62
7
100
AcDbLine
 10
275.750883
 20
136.495557
 30
0.0
 11
273.749496
 21
141.790214
 31
0.0
  0
LINE
  5
1aa
100
AcDbEntity
  8
0
 62
7
100
AcDbLine
 10
273.749496
 20
141.790214
 30
0.0
 11
271.773640
 21
147.092808
 31
0.0
  0
LINE
  5
1ab
100
AcDbEntity
  8
0
 62
7
100
AcDbLine
 10
271.773640
 20
147.092808
 30
0.0
 11
269.433930
 21
154.007032
 31
0.0
  0
LINE
  5
1ac
100
AcDbEntity
  8
0
 62
7
100
AcDbLine
 10
269.433930
 20
154.007032
 30
0.0
 11
267.328138
 21
161.006954
 31
0.0
  0
LINE
  5
1ad
100
AcDbEntity
  8
0
 62
7
100
AcDbLine
 10
267.328138
 20
161.006954
 30
0.0
 11
265.875998
 21
166.153735
 31
0.0
  0
LINE
  5
1ae
100
AcDbEntity
  8
0
 62
7
100
AcDbLine
 10
265.875998
 20
166.153735
 30
0.0
 11
264.691776
 21
171.371821
 31
0.0
  0
LINE
  5
1af
100
AcDbEntity
  8
0
 62
7
100
AcDbLine
 10
264.691776
 20
171.371821
 30
0.0
 11
262.776693
 21
180.566529
 31
0.0
  0
LINE
  5
1b0
100
AcDbEntity
  8
0
 62
7
100
AcDbLine
 10
262.776693
 20
180.566529
 30
0.0
 11
262.317731
 21
189.369277
 31
0.0
  0
LINE
  5
1b1
100
AcDbEntity
  8
0
 62
7
100
AcDbLine
 10
262.317731
 20
189.369277
 30
0.0
 11
263.053325
 21
197.691473
 31
0.0
  0
LINE
  5
1b2
100
AcDbEntity
  8
0
 62
7
100
AcDbLine
 10
263.053325
 20
197.691473
 30
0.0
 11
264.721912
 21
205.444532
 31
0.0
  0
LINE
  5
1b3
100
AcDbEntity
  8
0
 62
7
100
AcDbLine
 10
264.721912
 20
205.444532
 30
0.0
 11
267.331683
 21
212.586851
 31
0.0
  0
LINE
  5
1b4
100
AcDbEntity
  8
0
 62
7
100
AcDbLine
 10
267.331683
 20
212.586851
 30
0.0
 11
270.531157
 21
219.014173
 31
0.0
  0
LINE
  5
1b5
100
AcDbEntity
  8
0
 62
7
100
AcDbLine
 10
270.531157
 20
219.014173
 30
0.0
 11
275.494925
 21
228.993666
 31
0.0
  0
LINE
  5
1b6
100
AcDbEntity
  8
0
 62
7
100
AcDbLine
 10
275.494925
 20
228.993666
 30
0.0
 11
275.494925
 21
228.993719
 31
0.0
  0
ENDSEC
  0
SECTION
  2
OBJECTS
  0
DICTIONARY
  5
C
330
0
100
AcDbDictionary
  3
ACAD_GROUP
350
D
  3
ACAD_MLINESTYLE
350
17
  0
DICTIONARY
  5
D
330
C
100
AcDbDictionary
  0
DICTIONARY
  5
1A
330
C
100
AcDbDictionary
  0
DICTIONARY
  5
17
330
C
100
AcDbDictionary
  3
STANDARD
350
18
  0
DICTIONARY
  5
19
330
C
100
AcDbDictionary
  0
ENDSEC
  0
EOF
