<?xml version="1.0" encoding="UTF-8" standalone="no"?>
<svg
   xmlns:dc="http://purl.org/dc/elements/1.1/"
   xmlns:cc="http://creativecommons.org/ns#"
   xmlns:rdf="http://www.w3.org/1999/02/22-rdf-syntax-ns#"
   xmlns:svg="http://www.w3.org/2000/svg"
   xmlns="http://www.w3.org/2000/svg"
   xmlns:sodipodi="http://sodipodi.sourceforge.net/DTD/sodipodi-0.dtd"
   xmlns:inkscape="http://www.inkscape.org/namespaces/inkscape"
   version="1.1"
   id="Layer_1"
   x="0px"
   y="0px"
   viewBox="0 0 2262.519 1660.3337"
   enable-background="new 0 0 2262.519 1660.3337"
   xml:space="preserve"
   sodipodi:docname="chat_base.svg"
   inkscape:version="0.92.2 2405546, 2018-03-11"><metadata
     id="metadata3781"><rdf:RDF><cc:Work
         rdf:about=""><dc:format>image/svg+xml</dc:format><dc:type
           rdf:resource="http://purl.org/dc/dcmitype/StillImage" /><dc:title></dc:title></cc:Work></rdf:RDF></metadata><defs
     id="defs3779" /><sodipodi:namedview
     pagecolor="#ffffff"
     bordercolor="#666666"
     borderopacity="1"
     objecttolerance="10"
     gridtolerance="10"
     guidetolerance="10"
     inkscape:pageopacity="0"
     inkscape:pageshadow="2"
     inkscape:window-width="1280"
     inkscape:window-height="995"
     id="namedview3777"
     showgrid="false"
     inkscape:zoom="0.48664915"
     inkscape:cx="1436.328"
     inkscape:cy="641.04501"
     inkscape:window-x="0"
     inkscape:window-y="28"
     inkscape:window-maximized="1"
     inkscape:current-layer="Layer_1" /><g
     id="g3774"
     transform="translate(-4.109737,14.384079)"><path
       d="m 673.7958,483.0355 c 22.2394,-2.4708 42.7329,3.4786 62.5427,11.6906 37.1741,15.4102 67.9333,39.4833 94.2069,69.9504 15.0845,17.4922 27.2689,36.9787 39.1221,56.3892 10.0996,16.5388 19.7371,33.6551 28.9274,50.8885 5.8159,10.9055 12.1679,21.9116 19.3658,32.2872 13.013,18.7582 26.6017,36.7912 44.7543,50.9619 18.216,14.2202 68.5425,34.60735 82.6354,25.25825 12.187,-8.0848 0.4089,-37.04725 -4.002,-53.97155 -5.527,-21.2067 -21.7955,-29.07503 -35.3116,-45.65733 -11.84662,-14.5339 -22.5443,-36.34327 -33.0371,-51.96077 -10.0406,-14.9448 -15.2484,-32.0624 -18.2518,-49.4042 -2.4608,-14.2077 -4.5628,-28.6528 -3.9098,-43.4018 1.0248,-23.1469 3.512,-45.6904 14.1436,-66.8026 13.2709,-26.3537 24.41753,-41.50749 47.2565,-66.60053 13.058,-17.28785 10.1683,-21.94658 14.0569,-30.23728 3.8466,-8.2007 10.1755,-26.27167 13.3974,-34.85777 6.4657,-17.2307 5.649,-21.41222 10.8363,-38.89602 2.3402,-7.888 18.4072,-36.17925 23.8665,-47.65185 6.5972,-14.35691 30.9263,-38.52746 42.3128,-39.12276 13.6428,9.29244 14.3196,36.7445 20.346,54.4727 5.4106,29.36745 5.7459,30.03893 15.0202,50.3634 4.2693,5.7232 13.2723,20.78398 13.2723,20.78398 3.2185,8.1161 11.434,13.71083 20.1835,13.17103 20.1791,-1.2448 32.692,1.3637 52.1264,6.6055 15.1661,4.0905 30.4507,8.2022 44.446,15.2717 11.271,5.6932 23.7739,8.1857 34.5253,15.2393 11.8599,7.781 22.0237,14.44214 32.91,23.80614 13.4499,14.03307 34.4076,36.28845 38.5886,34.72035 6.876,-2.579 32.7337,-15.9062 39.5672,-18.2685 30.0495,-16.90741 25.5349,-12.10393 57.3664,-37.61641 23.0273,-13.00137 22.9241,-21.15838 44.2744,-27.73285 8.7451,0.7078 9.5174,18.86701 11.4847,27.38031 3.1196,13.4991 -0.8152,11.55879 -1.5679,33.10016 -2.5306,18.94 -1.8446,29.36653 -7.2744,47.66383 -3.9744,13.3922 -8.8286,26.034 -15.5793,38.4926 -7.1547,13.204 -29.8579,35.56244 -38.9049,47.36054 -2.5747,3.3574 -6.4524,25.90882 -6.0427,30.36982 1.5227,16.587 -2.2001,29.46989 -5.6038,45.83469 -4.1582,15.24947 -3.9347,13.91616 -13.8486,40.90381 -12.7631,27.02808 -11.8803,25.24259 -24.9621,42.70209 -13.6588,18.2297 -22.9086,20.51895 -39.1771,36.33025 -7.1235,6.9232 -48.845,28.69162 -57.658,32.75062 -19.3215,8.8989 -11.2978,19.03513 -10.411,39.98553 1.3306,31.4335 52.6722,47.09022 77.2651,72.95302 16.2222,16.48187 20.0522,36.2944 32.2705,53.1309 8.986,12.3824 21.308,21.6246 30.9209,33.3715 19.0781,23.3133 42.4564,41.5405 68.061,56.9093 8.7859,5.2736 18.6707,8.8589 28.3141,12.5304 17.2283,6.5591 33.3628,14.8113 48.8392,25.03 21.9186,14.4725 41.9139,31.2473 59.9791,49.9003 21.806,22.5155 41.3024,47.0913 58.1249,73.8678 11.6604,18.5597 20.9762,38.2371 30.4396,57.7494 6.7133,13.8422 11.0535,29.1116 15.9401,43.9432 9.1938,27.9065 14.8188,56.9547 17.3586,86.2103 1.2723,14.6548 7.9305,29.3772 7.6656,44.0846 -0.2372,13.1686 5.4992,29.9287 12.2227,42.0184 25.2868,21.0369 27.0235,18.1037 56.0418,22.4756 13.1573,1.9823 38.1437,2.978 51.2586,1.761 21.7363,-2.0175 50.0597,-3.2351 71.503,-7.7357 31.6719,-6.6475 28.0931,-3.5129 61.6876,-12.4758 40.1868,-8.7349 28.2249,-9.6485 70.2899,-22.5126 28.8902,-12.0367 22.793,-12.0317 49.6026,-25.5924 16.4832,-9.0241 25.5277,-15.4914 41.1632,-22.8015 19.8262,-11.6042 36.6016,-15.9363 36.0518,5.5903 -0.9312,5.1377 -36.7401,44.2138 -60.5055,59.1066 -32.4486,20.3342 -30.7634,21.1404 -74.4109,42.4337 -35.3419,17.2195 -65.1516,28.3428 -105.2862,41.5863 -33.0365,9.2057 -52.7043,9.2228 -104.2683,17.3209 -46.4214,4.048 -48.4903,0.9888 -67.993,-0.5816 -28.8118,-2.3201 -25.2396,-0.7152 -58.3198,-6.5752 l -34.7773,-1.778 c -37.6279,2.5574 -13.5438,1.3988 -32.4907,5.6397 -4.5671,-0.52 -21.0112,9.9539 -22.963,14.9063 -7.0603,17.915 -13.192,17.6162 -30.0728,26.6717 -17.8351,9.5677 -35.5677,8.3436 -53.9918,5.8394 -2.9773,-0.4048 -5.9957,-1.7155 -8.6222,-3.2467 -5.9531,-3.4709 -10.8274,-2.8992 -17.2098,0.4113 -17.2686,8.957 -35.8479,10.4513 -54.8278,5.861 -14.238,-3.4434 -28.1415,-7.8547 -41.1484,-14.7059 -10.566,-5.5654 -19.5426,-13.8243 -31.8422,-16.6047 -5.1163,-1.1565 -8.6847,-6.8271 -11.0392,-12.1719 -7.0497,-16.0028 -3.5677,-10.8143 -4.8488,-28.5049 1.0109,-4.5082 -0.147,-8.8484 -2.0033,-18.6373 l -10.0368,-6.2436 c -12.6213,-3.0513 -11.7912,-1.2399 -23.9858,-1.4541 l -11.6456,-1.8082 -14.3475,2.1895 -9.7882,6.44 c -4.7892,13.6785 -2.0035,8.6552 -12.2463,20.6985 -13.1791,15.4954 -30.083,23.0669 -50.5839,22.2216 -3.6583,-0.151 -7.3286,0.01 -10.9927,-0.03 -13.7751,-0.1475 -13.2318,0.02 -17.4852,13.1703 -6.0543,18.7186 -24.4894,38.1016 -46.4753,39.9485 -15.7236,1.321 -18.7981,0.2225 -34.4444,1.3447 -2.4877,0.1783 -18.2742,1.1116 -20.0159,-0.1452 -15.4053,-1.802 -24.5613,-6.7235 -36.5524,-10.6541 -9.6259,-3.1553 -18.845,-8.7932 -26.9762,-14.9929 -14.2595,-10.8722 -23.5291,-18.3517 -37.3396,-33.14 -0.4886,-0.9628 0,0 -5.1548,-5.8574 -5.0446,-3.9805 -6.4821,-6.9116 -6.9803,-13.0873 -0.6626,-8.2139 0.2117,-16.3889 4.6437,-23.6156 9.8492,-16.0599 24.6334,-27.6306 37.6211,-40.8273 7.9631,-8.0914 18.1904,-20.9574 24.6461,-30.0171 13.0511,-18.3156 7.6222,-17.0993 12.1696,-32.285 3.9676,-19.8546 3.2156,-20.2503 6.1548,-38.1456 3.8412,-15.3401 3.3473,-17.8067 3.2649,-35.0883 0.3442,-18.8521 -1.4272,-23.1618 -9.4351,-42.3591 -8.5544,-13.6995 -15.8686,-30.6527 -23.5021,-44.8783 -8.0527,-15.0067 -14.5768,-30.844 -22.8298,-45.7303 -8.8402,-15.9457 -15.6731,-32.8289 -23.2241,-49.2993 -5.86,-12.7821 -11.6165,-25.851 -16.3086,-39.2601 -4.709,-13.4568 -10.4518,-26.5558 -15.0321,-40.0526 -5.9109,-17.4182 -12.0698,-34.7389 -16.8019,-52.5889 -3.4539,-13.0276 -7.8604,-25.7875 -9.9642,-39.1743 -0.7927,-5.0438 -6.184,-5.2883 -9.2495,-7.9888 -19.9743,-17.5959 -42.4114,-32.0145 -63.702,-47.8672 -18.4716,-13.7538 -37.7979,-26.2898 -51.4392,-45.0724 -6.9974,-9.6348 -12.1268,-20.7834 -17.0754,-31.7122 C 855.894,849.79 846.67,835.0777 839.1737,819.5276 827.9742,796.2951 814.074,774.6556 801.4019,752.317 c -8.3995,-14.8068 -19.1888,-28.2896 -29.257,-42.1108 -15.6224,-21.4457 -33.9069,-40.4313 -54.6454,-56.9749 -12.5282,-9.994 -26.2418,-12.70258 -43.0566,-12.03068 -17.6176,0.704 -39.62134,-4.34181 -52.2509,-6.2874 -9.46577,0.005 -12.72308,-2.94391 -22.6042,-8.44485 -9.97918,-5.69255 -12.51628,-7.62094 -19.59677,-14.17565 -6.94054,-8.72484 -13.75653,-19.19122 -14.53813,-37.09882 -0.6116,-14.0145 5.0681,-25.6904 11.0356,-38.0897 7.8104,-16.2285 19.9413,-27.6963 33.6826,-37.6184 18.8788,-13.6319 40.541,-19.1317 63.6247,-16.4501 z"
       id="path3768"
       inkscape:connector-curvature="0"
       sodipodi:nodetypes="csccccscscccscccccccccccccccccccccccccccccscccscccsccccccccccccccsccccccccccccccccccccccccccccccsccccccsccccccccccccccscscccccccsccc" /></g></svg>