<?xml version="1.0" encoding="UTF-8" standalone="no"?>
<!-- Created with Inkscape (http://www.inkscape.org/) -->

<svg
   xmlns:dc="http://purl.org/dc/elements/1.1/"
   xmlns:cc="http://creativecommons.org/ns#"
   xmlns:rdf="http://www.w3.org/1999/02/22-rdf-syntax-ns#"
   xmlns:svg="http://www.w3.org/2000/svg"
   xmlns="http://www.w3.org/2000/svg"
   xmlns:sodipodi="http://sodipodi.sourceforge.net/DTD/sodipodi-0.dtd"
   xmlns:inkscape="http://www.inkscape.org/namespaces/inkscape"
   version="1.1"
   id="svg80"
   width="1499.0845"
   height="837.17249"
   viewBox="0 0 1499.0845 837.17248"
   sodipodi:docname="meeple_space_knights.svg"
   inkscape:version="0.92.2 2405546, 2018-03-11">
  <metadata
     id="metadata86">
    <rdf:RDF>
      <cc:Work
         rdf:about="">
        <dc:format>image/svg+xml</dc:format>
        <dc:type
           rdf:resource="http://purl.org/dc/dcmitype/StillImage" />
      </cc:Work>
    </rdf:RDF>
  </metadata>
  <defs
     id="defs84" />
  <sodipodi:namedview
     pagecolor="#ffffff"
     bordercolor="#666666"
     borderopacity="1"
     objecttolerance="10"
     gridtolerance="10"
     guidetolerance="10"
     inkscape:pageopacity="0"
     inkscape:pageshadow="2"
     inkscape:window-width="1920"
     inkscape:window-height="1015"
     id="namedview82"
     showgrid="false"
     inkscape:zoom="0.57714842"
     inkscape:cx="984.41747"
     inkscape:cy="535.66239"
     inkscape:window-x="1280"
     inkscape:window-y="0"
     inkscape:window-maximized="1"
     inkscape:current-layer="svg80"
     showguides="true">
    <inkscape:grid
       type="xygrid"
       id="grid60"
       originx="603.83951"
       originy="-59.999991" />
  </sodipodi:namedview>
  <path
     style="fill:#000000;stroke-width:1.33333337"
     d="m 98.360134,836.12492 c -3.76063,-2.39123 3.051306,-23.76805 5.587896,-33.75036 1.63697,-6.44201 -62.01205,-20.10169 -86.969594,-27.55885 -3.797652,-1.13472 -7.0063277,-1.80046 -9.7207747,-3.275 -2.7144469,-1.47455 -3.0969056,-0.69496 -4.9176441,-5.06487 -0.555359,-1.23844 -1.84866749,-4.55006 -1.56029036,-6.15591 0.28837716,-1.60586 0.32068006,-4.56888 1.19137056,-6.3353 0.8706925,-1.76643 1.9671842,-3.56143 3.1587654,-5.2816 1.1915811,-1.72016 2.4782516,-3.36547 3.7293016,-4.83253 18.3233196,-19.32854 55.3478396,-62.16289 68.7076896,-74.58795 8.91219,-8.2886 33.003386,-31.16665 40.666986,-44 7.10186,-11.89267 27.29689,-28.47108 31.92228,-36.79254 4.42795,-7.96626 6.48537,-11.50954 8.74047,-15.88671 2.25511,-4.37717 4.7079,-9.58823 9.9266,-20.89005 3.238,-7.01242 5.57899,-12.15404 6.90941,-16.0714 1.33043,-3.91735 1.65029,-6.61043 0.84604,-8.72577 -0.72563,-1.90848 -0.89238,-3.02216 -1.43522,-3.68973 -0.54284,-0.66757 -1.46178,-0.88903 -3.69176,-1.01303 -2.22998,-0.124 -5.77101,-0.15056 -11.55805,-0.42834 -5.78704,-0.27777 -13.8201,-0.80677 -25.03412,-1.93566 -7.7459,-0.77976 -13.74168,-1.90179 -19.1793,-3.77718 -5.43762,-1.87539 -10.31707,-4.50414 -15.830306,-8.29735 -4.88307,-3.35964 -9.66835,-7.66499 -13.78142,-12.27257 -4.11307,-4.60759 -7.55393,-9.5174 -9.74816,-14.08598 -3.89406,-8.10776 -4.0234,-8.95707 -3.45713,-22.70097 0.51962,-12.61151 1.03963,-15.10738 4.45509,-21.3827 1.98551,-3.64803 4.30478,-7.07881 7.1371,-10.44239 2.83232,-3.36357 6.17768,-6.65993 10.21535,-10.03911 4.03767,-3.37919 8.767646,-6.84119 14.369206,-10.53605 5.60157,-3.69485 12.07467,-7.62256 19.59867,-11.93316 5.6206,-3.22009 11.2193,-6.35306 16.7973,-9.39946 5.5781,-3.04641 11.1355,-6.00624 16.6735,-8.88006 5.5379,-2.87381 11.0564,-5.6616 16.5566,-8.36391 5.5001,-2.70232 10.982,-5.31915 16.4468,-7.85106 5.4647,-2.5319 10.9124,-4.97887 16.3441,-7.34145 5.4317,-2.36259 10.8474,-4.64078 16.2484,-6.83513 5.401,-2.19436 10.7872,-4.30487 16.1598,-6.33208 5.3726,-2.02722 10.7317,-3.97113 16.0783,-5.8323 9.5333,-3.31855 18.6922,-7.33283 20.3531,-8.92059 0.6228,-0.59533 1.1509,-1.26458 1.6259,-2.15871 0.475,-0.89412 0.8968,-2.01312 1.3069,-3.50795 0.41,-1.49484 0.8083,-3.3655 1.2363,-5.76296 0.4279,-2.39746 0.8855,-5.32171 1.4142,-8.92371 0.5971,-4.06838 1.2737,-7.95535 2.041,-11.68435 0.7672,-3.72901 1.625,-7.30006 2.5844,-10.73663 0.9595,-3.43658 2.0206,-32.73867 3.1944,-35.92974 1.1738,-3.19108 2.4603,-6.27114 3.8706,-9.26366 1.4103,-2.99252 2.33171,-13.24853 4.00061,-16.08944 1.6689,-2.84091 4.08519,-8.2667 6.03479,-11.00294 1.9496,-2.73623 4.0451,-5.43187 6.2975,-8.11037 2.2525,-2.67851 4.6619,-5.33988 7.2393,-8.0076 3.6298,-3.75695 6.9396,-6.97951 10.0896,-9.77798 3.1499,-2.79847 6.14,-5.17284 9.1303,-7.23339 2.9902,-2.06056 5.9806,-3.80729 9.1313,-5.3505 3.1506,-1.54321 6.4614,-2.88288 10.0925,-4.1293 5.1268,-1.75987 8.2438,-2.70589 12.482,-3.21198 2.119,-0.25304 4.5184,-0.39608 7.5893,-0.47587 3.071,-0.0798 6.8136,-0.0963 11.6193,-0.0963 5.6389,0 10.1523,0.059 14.0143,0.27545 3.862,0.21645 7.0726,0.59038 10.1063,1.22026 3.0337,0.62989 5.8904,1.51573 9.0444,2.756 3.1539,1.24028 6.6052,2.83499 10.8282,4.88262 3.2602,1.58083 6.3397,3.53642 9.9978,6.47721 3.6581,2.9408 7.8948,6.86681 13.4694,12.38847 2.9113,2.88367 5.6083,5.7108 8.1088,8.51802 2.5006,2.80722 4.8049,5.59452 6.9308,8.39851 2.1259,2.804 4.68599,11.33658 6.47329,14.21058 1.7872,2.874 2.80151,10.08942 4.28611,13.10665 1.4846,3.01723 2.8269,6.12438 4.045,9.35807 1.218,3.23369 2.3117,32.59391 3.2991,36.11729 0.9875,3.52338 1.8686,7.2099 2.6615,11.09618 0.793,3.88629 1.4976,7.97233 2.132,12.29475 0.722,4.91934 1.3358,8.73405 2.0153,11.74535 0.6796,3.0113 1.4249,5.2192 2.4098,6.92494 0.985,1.70573 2.2097,2.9093 3.848,3.91195 1.6384,1.00265 3.6903,1.80437 6.3299,2.7064 3.3,1.12772 12,4.25943 19.3334,6.95933 7.3333,2.69992 14.8333,5.37712 16.6666,5.94935 1.8334,0.57223 7.5334,2.97932 12.6667,5.34912 5.1333,2.3698 12.2816,5.47377 15.885,6.89773 5.5155,2.17955 13.0548,5.61985 21.6436,9.8039 8.5888,4.18405 18.2271,9.11184 27.9406,14.26639 9.7135,5.15454 19.5023,10.53583 28.392,15.62687 8.8897,5.09104 16.8804,9.89183 22.9978,13.88536 6.4954,4.24028 12.149,8.81216 16.9004,13.65384 4.7514,4.84168 8.6005,9.95315 11.4866,15.27261 3.4658,6.38798 3.9798,8.84206 4.5009,21.48964 0.5671,13.76357 0.4418,14.58161 -3.4768,22.70097 -3.3356,6.91124 -9.14963,14.08397 -16.0063,20.23099 -6.85668,6.14703 -14.756,11.26835 -22.2622,14.07678 -1.9167,0.71714 -5.2172,1.53746 -8.99066,2.28138 -3.77347,0.74393 -8.01989,1.41147 -11.82844,1.82304 -9.11943,0.98552 -17.55475,2.05472 -25.16422,3.17828 -7.60947,1.12357 -14.39309,2.3015 -20.20912,3.50448 -5.81603,1.20298 -10.66447,2.43101 -14.40358,3.65477 -3.73911,1.22376 -6.36888,2.44326 -7.74758,3.62916 -2.47985,2.13306 -3.6097,4.56713 -3.31945,8.17307 0.29025,3.60594 2.0006,8.38375 5.20115,15.20427 4.91435,10.47289 12.19712,26.90306 19.13645,42.99993 6.93932,16.09687 13.5352,31.86042 17.07575,41.00007 1.5625,4.03333 7.0979,17.83333 12.3009,30.66667 5.203,12.83333 13.0553,32.63333 17.4494,44 4.3942,11.36667 9.3569,23.66667 11.0282,27.33333 6.3697,13.97439 29.99942,63.16796 27.6416,75.65097 -0.61357,3.24845 -1.87837,5.49884 -3.48897,7.0844 -1.61061,1.58555 -3.56701,2.50628 -5.56379,3.09539 -1.99677,0.58911 -4.03393,0.8466 -5.80603,1.1057 -1.7721,0.25909 -3.27916,0.51979 -4.21573,1.11531 -0.8708,0.55369 -34.05561,-0.20927 -96.20561,-0.19805 -116.95367,3.41777 -113.12649,3.49654 -116.95367,3.41777 -111.38421,-2.29235 -93.24626,2.7348 -128.0421,2.72852 l -112.9481,-0.0204 c -62.1214,-0.0107 -113.660466,-0.47344 -114.531256,-1.02714 z"
     id="path195-3"
     inkscape:connector-curvature="0"
     sodipodi:nodetypes="cssscssscsssscscssssssssssssscsssssssscssscssssssscsssssssssscssssssssscssssccscssscscccscscssscscscscccsssccssccc" />
  <path
     style="fill:#000000;stroke-width:1.33333337"
     d="m 848.36007,836.12492 c -0.94018,-0.59781 -1.679,-1.38676 -2.21875,-2.3899 -0.53976,-1.00314 -0.88044,-2.22046 -1.02434,-3.675 -0.14389,-1.45454 -0.091,-3.14631 0.15641,-5.09833 0.24741,-1.95202 0.68933,-4.1643 1.32348,-6.65988 3.27395,-12.88402 20.4428,-59.41619 28.2123,-76.46268 1.3369,-2.93333 5.9903,-14.63333 10.3407,-26 4.3505,-11.36667 12.1754,-31.16667 17.3887,-44 5.2132,-12.83334 10.757,-26.63334 12.3195,-30.66667 6.5845,-16.99753 25.38224,-60.7297 35.81964,-83.33334 3.238,-7.01242 4.9664,-10.92887 5.68424,-13.62105 0.71783,-2.69218 0.42511,-4.16009 -0.37914,-6.27543 -0.7256,-1.90847 -2.73013,-3.71132 -6.02963,-5.41263 -3.2995,-1.70131 -7.89397,-3.30109 -13.79947,-4.80341 -5.90549,-1.50232 -13.12205,-2.9072 -21.66575,-4.21872 -8.54369,-1.31151 -18.41453,-2.52967 -29.62859,-3.65856 -7.7459,-0.77976 -13.74168,-1.90179 -19.17929,-3.77718 -5.43761,-1.87539 -10.31706,-4.50414 -15.83031,-8.29735 -4.88306,-3.35962 -9.66834,-7.66497 -13.78141,-12.27256 -4.11307,-4.60759 -7.55394,-9.51741 -9.74819,-14.08599 -1.94704,-4.05386 -2.95289,-6.29313 -3.40119,-9.23692 -0.4483,-2.94379 -0.33906,-6.5921 -0.0559,-13.46405 0.51964,-12.61151 1.0396,-15.10738 4.4551,-21.3827 1.9855,-3.64803 4.3048,-7.07881 7.1371,-10.44239 2.8323,-3.36357 6.1777,-6.65993 10.2154,-10.03911 4.0376,-3.37919 8.7676,-6.84119 14.3692,-10.53605 5.6015,-3.69485 12.0746,-7.62256 19.5986,-11.93316 5.6206,-3.22009 11.2193,-6.35306 16.7973,-9.39946 5.5781,-3.04641 11.1355,-6.00624 16.6735,-8.88006 5.5379,-2.87381 11.0564,-5.6616 16.55673,-8.36391 5.5001,-2.70232 10.982,-5.31915 16.4468,-7.85106 5.4647,-2.5319 10.9124,-4.97887 16.3441,-7.34145 5.4317,-2.36259 10.8474,-4.64078 16.2484,-6.83513 5.401,-2.19436 10.7872,-4.30487 16.1598,-6.33208 5.3726,-2.02722 10.73169,-3.97113 16.07829,-5.8323 9.5333,-3.31855 16.907,-4.88248 19.4342,-6.47024 6.3926,-1.95006 12.5679,-3.53533 16.7288,-5.51802 6.4743,-2.57775 7.7048,-8.50229 3.7609,-12.69359 -2.3851,-3.14797 -12.8016,-3.40557 -15.0944,-4.09257 -9.6685,-1.74621 -27.9198,-4.30243 -30.3442,-15.38003 -2.2938,-10.48075 2.4539,-11.83895 13.1623,-30.75717 10.7084,-18.91822 22.4103,-35.25839 35.1336,-62.54355 1.4103,-2.99252 2.4288,-31.30118 2.6268,-34.59007 0.4998,-8.30144 0.6942,-9.54702 2.6438,-12.28326 1.9496,-2.73623 2.8725,-6.31996 5.1249,-8.99846 2.2525,-2.67851 4.4301,-3.66737 7.0075,-6.33508 3.6298,-3.75696 6.2743,-4.7971 9.4243,-7.59557 3.1499,-2.79846 5.3077,-2.30607 9.0252,-4.09613 2.9744,-1.43224 6.8899,-2.26735 10.0502,-3.22184 3.7011,-1.11786 8.2508,-2.3536 12.4749,-3.04639 3.1913,-0.52341 6.0643,-0.86633 9.0167,-1.26274 2.115,-0.28399 6.0344,-0.39608 9.1053,-0.47587 3.071,-0.0798 7.2468,-0.23856 12.0525,-0.23856 5.6389,0 10.5855,-0.0153 14.4475,0.20113 3.862,0.21645 9.774,0.45302 14.6545,0.78709 3.235,0.22144 6.4748,0.41926 9.6941,0.80676 3.8187,0.45966 7.6631,0.87908 11.3978,1.79909 4.1838,1.03067 8.3494,2.30206 12.2438,4.14619 4.0912,1.93733 7.9009,4.47181 11.5202,7.1905 3.0564,2.29583 6.5688,4.75456 9.4082,7.21853 2.1167,1.83677 3.3993,4.01729 5.2616,6.51574 1.8623,2.49846 2.5716,5.31486 3.5415,7.99023 1.1626,3.20676 0.9563,10.1882 0.9563,10.1882 l 0.6785,33.62655 c 8.8575,20.34069 32.4482,50.91868 36.8969,57.56125 4.4487,6.64257 19.5948,24.36032 14.7556,36.58803 -3.6857,9.31305 -16.0153,10.52616 -27.2648,12.6289 -2.3143,0.6077 -8.9034,1.62505 -15.7199,4.95307 -5.072,4.99525 -3.5021,9.47795 -1.4301,11.82562 2.2544,2.55441 5.3213,5.05288 8.2349,6.12395 4.6334,1.70334 8.0835,4.56101 10.7231,5.46304 3.3,1.12772 12,4.25943 19.3334,6.95933 7.3333,2.69992 14.8333,5.37712 16.6666,5.94935 1.8334,0.57223 7.5334,2.97932 12.6667,5.34912 5.1333,2.3698 12.2816,5.47377 15.885,6.89773 5.5155,2.17955 13.0548,5.61985 21.6436,9.8039 8.5888,4.18405 18.2271,9.11184 27.9406,14.26639 9.7135,5.15454 19.5023,10.53583 28.392,15.62687 8.8897,5.09104 16.8804,9.89183 22.9978,13.88536 6.4954,4.24028 12.149,8.81216 16.9004,13.65384 4.7514,4.84168 8.6005,9.95315 11.4866,15.27261 3.4658,6.38798 3.9798,8.84206 4.5009,21.48964 0.2835,6.88179 0.394,10.52719 -0.056,13.46706 -0.4502,2.93988 -1.4612,5.17423 -3.4205,9.23391 -3.3356,6.91124 -9.1496,14.08397 -16.0063,20.23099 -6.8567,6.14703 -14.756,11.26835 -22.2622,14.07678 -1.9167,0.71714 -5.2172,1.53746 -8.9907,2.28138 -3.7734,0.74393 -8.0199,1.41147 -11.8284,1.82304 -9.1194,0.98552 -15.5638,1.51871 -20.455,1.93397 -4.8911,0.41526 -8.2289,0.7126 -11.1351,1.22642 -2.9062,0.51383 -5.3809,1.24413 -8.5457,2.52532 -3.1648,1.28119 -7.0198,3.11327 -12.6866,5.83064 -2.4799,2.13305 4.3185,8.98661 13.4735,16.48691 9.155,7.50029 20.6668,15.64732 27.6138,20.36733 24.5788,16.69961 36.3785,26.17354 69.2919,50.92032 12.2903,9.24081 35.3281,25.25307 38.4617,32.35254 1.4815,1.39363 2.3735,4.10206 2.7158,6.77748 0.3422,2.67543 0.1347,5.31786 -0.5828,6.57949 -0.7176,1.26163 -3.6297,3.74597 -5.1374,6.22119 -1.5077,2.47521 -6.2053,6.77907 -6.2053,6.77907 0,0 -41.8763,24.193 -86.4891,38.01002 4.3942,11.36667 9.3569,23.66667 11.0282,27.33333 6.3697,13.97439 24.4157,63.36364 27.6416,75.65097 0.6116,2.32957 1.0314,4.42681 1.2586,6.29952 0.2271,1.87271 0.2616,3.52088 0.1026,4.95229 -0.159,1.43142 -0.5115,2.64608 -1.0585,3.65176 -0.5469,1.00569 -1.2882,1.8024 -2.2248,2.39792 -0.8708,0.55369 -52.4332,1.01591 -114.5832,1.02713 -112.0897,0.0203 -113.022,-10e-4 -115.7285,-2.7081 -3.0976,-3.09754 -10.2782,-18.27835 -14.5824,-30.82917 -2.9359,-8.56084 -15.6777,-36.0907 -34.9176,-75.44232 -2.0325,-4.15593 -4.263,-6.98796 -6.5714,-8.70978 -2.3084,-1.72182 -4.6947,-2.33343 -7.0389,-2.04852 -2.3442,0.28492 -4.6463,1.46636 -6.7862,3.33063 -2.1399,1.86428 -4.1177,4.4114 -5.8132,7.42767 -19.2399,39.35162 -31.9818,66.88148 -34.9177,75.44232 -4.2309,12.3371 -11.2681,27.11311 -14.5534,30.55769 l -2.8613,3 -112.94809,-0.0204 c -62.12153,-0.0107 -113.66053,-0.47344 -114.53133,-1.02714 h -8e-5 l -8e-5,-1e-5 h -7e-5 z"
     id="path195-3-6"
     inkscape:connector-curvature="0"
     sodipodi:nodetypes="csssscccccscsssssssssssssscssssssssccccszcsssssssssssssssssssscczaccsssccscssscsccscscscssscssscssscccsssscscccssscccccccccc" />
  <path
     style="fill:#000000;fill-opacity:1;stroke:#000000;stroke-width:1.6432066;stroke-opacity:1"
     d="M 1042.8424,13.586311 951.65541,103.85809 836.29819,219.02222 720.94076,334.18634 605.5833,449.35051 l 21.3779,21.08253 21.37775,21.08253 115.35744,-115.16417 115.35743,-115.16412 115.35729,-115.16412 92.03669,-96.984453 7.1371,-11.573176 1.6272,-11.767448 -1.477,-10.65097 -5.3445,-5.2706329 -5.3443,-5.270635 -11.5314,-3.64988499 -15.4851,4.17928199 z"
     id="rect49"
     inkscape:connector-curvature="0"
     sodipodi:nodetypes="ccccccccccccccccccc" />
  <path
     style="fill:#000000;fill-opacity:1;stroke:#000000;stroke-width:1.76440978;stroke-opacity:1"
     d="M 944.67291,463.24792 814.80554,345.98544 684.9383,228.72299 555.07104,111.46046 459.61586,26.078104 443.80675,14.526077 425.35173,8.3961891 l -16.3567,3.7528449 -5.4029,5.983694 -5.4029,5.983675 -0.65867,10.444267 1.06842,13.570952 7.75873,15.036282 105.48997,96.161986 129.86735,117.26256 129.86724,117.26243 129.86729,117.26247 21.61161,-23.93473 z"
     id="rect49-7"
     inkscape:connector-curvature="0"
     sodipodi:nodetypes="ccccccccccccccccccc" />
  <path
     style="display:inline;fill:#fd0000;fill-opacity:1;fill-rule:evenodd;stroke:#ff0000;stroke-width:1px;stroke-linecap:butt;stroke-linejoin:miter;stroke-opacity:1"
     d="m 1145.0866,84.303546 1.2252,351.624714"
     id="path3812"
     inkscape:connector-type="polyline"
     inkscape:connector-curvature="0" />
  <path
     style="fill:none;fill-rule:evenodd;stroke:#ff0000;stroke-width:1px;stroke-linecap:butt;stroke-linejoin:miter;stroke-opacity:1"
     d="m 1053.8112,195.05586 180.1005,-0.61259"
     id="path4621"
     inkscape:connector-type="polyline"
     inkscape:connector-curvature="0" />
  <path
     style="fill:none;fill-rule:evenodd;stroke:#ff0000;stroke-width:1.02052736px;stroke-linecap:butt;stroke-linejoin:miter;stroke-opacity:1"
     d="m 1052.0782,313.05568 187.6816,-0.61223"
     id="path4623"
     inkscape:connector-type="polyline"
     inkscape:connector-curvature="0" />
  <path
     style="fill:none;fill-rule:evenodd;stroke:#fe0000;stroke-width:1.01193213px;stroke-linecap:butt;stroke-linejoin:miter;stroke-opacity:1"
     d="m 1003.641,284.67142 283.0978,-1.08251"
     id="path4625"
     inkscape:connector-type="polyline"
     inkscape:connector-curvature="0" />
  <path
     style="fill:none;fill-rule:evenodd;stroke:#fb0000;stroke-width:0.98860961px;stroke-linecap:butt;stroke-linejoin:miter;stroke-opacity:1"
     d="m 1072.7958,256.24662 140.1628,-1.09247"
     id="path4627"
     inkscape:connector-type="polyline"
     inkscape:connector-curvature="0"
     sodipodi:nodetypes="cc" />
</svg>
