  0
SECTION
  2
HEADER
  9
$ACADVER
  1
AC1014
  9
$HANDSEED
  5
FFFF
  9
$MEASUREMENT
 70
     1
  0
ENDSEC
  0
SECTION
  2
TABLES
  0
TABLE
  2
VPORT
  5
8
330
0
100
AcDbSymbolTable
 70
     4
  0
VPORT
  5
2E
330
8
100
AcDbSymbolTableRecord
100
AcDbViewportTableRecord
  2
*ACTIVE
 70
     0
 10
0.0
 20
0.0
 11
1.0
 21
1.0
 12
210.0
 22
148.5
 13
0.0
 23
0.0
 14
10.0
 24
10.0
 15
10.0
 25
10.0
 16
0.0
 26
0.0
 36
1.0
 17
0.0
 27
0.0
 37
0.0
 40
341.0
 41
1.24
 42
50.0
 43
0.0
 44
0.0
 50
0.0
 51
0.0
 71
     0
 72
   100
 73
     1
 74
     3
 75
     0
 76
     0
 77
     0
 78
     0
  0
ENDTAB
  0
TABLE
  2
LTYPE
  5
5
330
0
100
AcDbSymbolTable
 70
     1
  0
LTYPE
  5
14
330
5
100
AcDbSymbolTableRecord
100
AcDbLinetypeTableRecord
  2
BYBLOCK
 70
     0
  3

 72
    65
 73
     0
 40
0.0
  0
LTYPE
  5
15
330
5
100
AcDbSymbolTableRecord
100
AcDbLinetypeTableRecord
  2
BYLAYER
 70
     0
  3

 72
    65
 73
     0
 40
0.0
  0
LTYPE
  5
16
330
5
100
AcDbSymbolTableRecord
100
AcDbLinetypeTableRecord
  2
CONTINUOUS
 70
     0
  3
Solid line
 72
    65
 73
     0
 40
0.0
  0
ENDTAB
  0
TABLE
  2
LAYER
  5
2
100
AcDbSymbolTable
 70
1
  0
LAYER
  5
50
100
AcDbSymbolTableRecord
100
AcDbLayerTableRecord
  2
0
 70
0
  6
CONTINUOUS
  0
ENDTAB
  0
TABLE
  2
STYLE
  5
3
330
0
100
AcDbSymbolTable
 70
     1
  0
STYLE
  5
11
330
3
100
AcDbSymbolTableRecord
100
AcDbTextStyleTableRecord
  2
STANDARD
 70
     0
 40
0.0
 41
1.0
 50
0.0
 71
     0
 42
2.5
  3
txt
  4

  0
ENDTAB
  0
TABLE
  2
VIEW
  5
6
330
0
100
AcDbSymbolTable
 70
     0
  0
ENDTAB
  0
TABLE
  2
UCS
  5
7
330
0
100
AcDbSymbolTable
 70
     0
  0
ENDTAB
  0
TABLE
  2
APPID
  5
9
330
0
100
AcDbSymbolTable
 70
     2
  0
APPID
  5
12
330
9
100
AcDbSymbolTableRecord
100
AcDbRegAppTableRecord
  2
ACAD
 70
     0
  0
ENDTAB
  0
TABLE
  2
DIMSTYLE
  5
A
330
0
100
AcDbSymbolTable
 70
     1
  0
DIMSTYLE
105
27
330
A
100
AcDbSymbolTableRecord
100
AcDbDimStyleTableRecord
  2
ISO-25
 70
     0
  3

  4

  5

  6

  7

 40
1.0
 41
2.5
 42
0.625
 43
3.75
 44
1.25
 45
0.0
 46
0.0
 47
0.0
 48
0.0
140
2.5
141
2.5
142
0.0
143
0.03937007874016
144
1.0
145
0.0
146
1.0
147
0.625
 71
     0
 72
     0
 73
     0
 74
     0
 75
     0
 76
     0
 77
     1
 78
     8
170
     0
171
     3
172
     1
173
     0
174
     0
175
     0
176
     0
177
     0
178
     0
270
     2
271
     2
272
     2
273
     2
274
     3
340
11
275
     0
280
     0
281
     0
282
     0
283
     0
284
     8
285
     0
286
     0
287
     3
288
     0
  0
ENDTAB
  0
TABLE
  2
BLOCK_RECORD
  5
1
330
0
100
AcDbSymbolTable
 70
     1
  0
BLOCK_RECORD
  5
1F
330
1
100
AcDbSymbolTableRecord
100
AcDbBlockTableRecord
  2
*MODEL_SPACE
  0
BLOCK_RECORD
  5
1B
330
1
100
AcDbSymbolTableRecord
100
AcDbBlockTableRecord
  2
*PAPER_SPACE
  0
ENDTAB
  0
ENDSEC
  0
SECTION
  2
BLOCKS
  0
BLOCK
  5
20
330
1F
100
AcDbEntity
  8
0
100
AcDbBlockBegin
  2
*MODEL_SPACE
 70
     0
 10
0.0
 20
0.0
 30
0.0
  3
*MODEL_SPACE
  1

  0
ENDBLK
  5
21
330
1F
100
AcDbEntity
  8
0
100
AcDbBlockEnd
  0
BLOCK
  5
1C
330
1B
100
AcDbEntity
 67
     1
  8
0
100
AcDbBlockBegin
  2
*PAPER_SPACE
  1

  0
ENDBLK
  5
1D
330
1B
100
AcDbEntity
 67
     1
  8
0
100
AcDbBlockEnd
  0
ENDSEC
  0
SECTION
  2
ENTITIES
  0
LWPOLYLINE
  5
100
100
AcDbEntity
  8
0
 62
7
100
AcDbPolyline
 90
113
 70
1
 10
26.024452
 20
0.277170
 30
0.0
 10
27.502917
 20
9.206952
 30
0.0
 10
4.492211
 20
16.498565
 30
0.0
 10
1.920256
 20
17.365075
 30
0.0
 10
0.619130
 20
18.705156
 30
0.0
 10
0.206303
 20
20.333907
 30
0.0
 10
0.521520
 20
22.010122
 30
0.0
 10
1.357276
 20
23.407545
 30
0.0
 10
2.343987
 20
24.686152
 30
0.0
 10
20.522897
 20
44.420880
 30
0.0
 10
31.282704
 20
56.062547
 30
0.0
 10
39.728807
 20
65.797240
 30
0.0
 10
42.041390
 20
70.000599
 30
0.0
 10
44.667803
 20
75.527758
 30
0.0
 10
46.495918
 20
79.779983
 30
0.0
 10
46.719766
 20
82.088676
 30
0.0
 10
46.340030
 20
83.064917
 30
0.0
 10
45.363252
 20
83.332948
 30
0.0
 10
42.305185
 20
83.446280
 30
0.0
 10
35.681574
 20
83.958423
 30
0.0
 10
30.607051
 20
84.957802
 30
0.0
 10
26.418615
 20
87.153142
 30
0.0
 10
22.772281
 20
90.400260
 30
0.0
 10
20.193081
 20
94.127176
 30
0.0
 10
19.278382
 20
100.133474
 30
0.0
 10
20.457124
 20
105.790980
 30
0.0
 10
22.345482
 20
108.553862
 30
0.0
 10
25.048293
 20
111.210044
 30
0.0
 10
28.850146
 20
113.997707
 30
0.0
 10
34.035627
 20
117.155022
 30
0.0
 10
38.479913
 20
119.641963
 30
0.0
 10
42.891443
 20
121.991479
 30
0.0
 10
47.272044
 20
124.204430
 30
0.0
 10
51.623593
 20
126.281690
 30
0.0
 10
55.947969
 20
128.224115
 30
0.0
 10
60.247025
 20
130.032576
 30
0.0
 10
64.522639
 20
131.707939
 30
0.0
 10
68.776689
 20
133.251069
 30
0.0
 10
74.161781
 20
135.611308
 30
0.0
 10
74.591967
 20
136.182467
 30
0.0
 10
74.937751
 20
137.110612
 30
0.0
 10
75.264855
 20
138.635395
 30
0.0
 10
75.639029
 20
140.996460
 30
0.0
 10
76.179043
 20
144.087944
 30
0.0
 10
76.862832
 20
146.928678
 30
0.0
 10
77.708017
 20
156.435088
 30
0.0
 10
78.732114
 20
158.886098
 30
0.0
 10
79.790608
 20
163.143096
 30
0.0
 10
81.387313
 20
166.054291
 30
0.0
 10
83.053527
 20
168.200159
 30
0.0
 10
84.968925
 20
170.318837
 30
0.0
 10
87.638465
 20
172.905927
 30
0.0
 10
90.054190
 20
174.819762
 30
0.0
 10
92.470180
 20
176.235415
 30
0.0
 10
95.140487
 20
177.327959
 30
0.0
 10
98.443017
 20
178.177795
 30
0.0
 10
100.451019
 20
178.303703
 30
0.0
 10
103.525292
 20
178.329182
 30
0.0
 10
107.233242
 20
178.256303
 30
0.0
 10
109.907201
 20
177.933442
 30
0.0
 10
112.300198
 20
177.204250
 30
0.0
 10
115.165160
 20
175.912391
 30
0.0
 10
117.810411
 20
174.198629
 30
0.0
 10
121.374190
 20
170.920846
 30
0.0
 10
123.519643
 20
168.667120
 30
0.0
 10
125.353417
 20
166.445014
 30
0.0
 10
127.066142
 20
162.685131
 30
0.0
 10
128.200175
 20
159.217330
 30
0.0
 10
129.270415
 20
156.741341
 30
0.0
 10
130.143302
 20
147.185308
 30
0.0
 10
130.847490
 20
144.249443
 30
0.0
 10
131.411582
 20
140.996457
 30
0.0
 10
131.944797
 20
137.888833
 30
0.0
 10
132.582390
 20
136.056610
 30
0.0
 10
133.600506
 20
135.021573
 30
0.0
 10
135.275293
 20
134.305505
 30
0.0
 10
140.390588
 20
132.464182
 30
0.0
 10
144.800293
 20
130.890083
 30
0.0
 10
148.151690
 20
129.474795
 30
0.0
 10
152.354597
 20
127.649771
 30
0.0
 10
158.081133
 20
125.055822
 30
0.0
 10
165.473750
 20
121.281173
 30
0.0
 10
172.985800
 20
117.146564
 30
0.0
 10
179.070634
 20
113.472729
 30
0.0
 10
183.542199
 20
109.860150
 30
0.0
 10
186.581362
 20
105.819272
 30
0.0
 10
187.772225
 20
100.133471
 30
0.0
 10
186.852321
 20
94.127173
 30
0.0
 10
182.617321
 20
88.774390
 30
0.0
 10
176.727114
 20
85.049909
 30
0.0
 10
174.348335
 20
84.446294
 30
0.0
 10
171.218727
 20
83.963948
 30
0.0
 10
164.560694
 20
83.123028
 30
0.0
 10
159.213697
 20
82.195801
 30
0.0
 10
155.402750
 20
81.228809
 30
0.0
 10
153.352870
 20
80.268594
 30
0.0
 10
152.474598
 20
78.106136
 30
0.0
 10
153.850736
 20
74.083340
 30
0.0
 10
158.913922
 20
62.706275
 30
0.0
 10
163.431881
 20
51.858339
 30
0.0
 10
166.686494
 20
43.744449
 30
0.0
 10
171.303314
 20
32.102783
 30
0.0
 10
174.221192
 20
24.870839
 30
0.0
 10
181.534699
 20
4.854853
 30
0.0
 10
180.611576
 20
2.980439
 30
0.0
 10
179.139490
 20
2.161450
 30
0.0
 10
177.603311
 20
1.868900
 30
0.0
 10
176.487899
 20
1.573808
 30
0.0
 10
151.033498
 20
1.626209
 30
0.0
 10
120.089505
 20
0.721924
 30
0.0
 10
86.211699
 20
0.000003
 30
0.0
 10
56.327514
 20
0.005400
 30
0.0
 10
26.024452
 20
0.277164
 30
0.0
  0
LWPOLYLINE
  5
101
100
AcDbEntity
  8
0
 62
7
100
AcDbPolyline
 90
197
 70
1
 10
224.461938
 20
0.277170
 30
0.0
 10
223.874894
 20
0.909497
 30
0.0
 10
223.603870
 20
1.881841
 30
0.0
 10
223.645254
 20
3.230774
 30
0.0
 10
223.995425
 20
4.992867
 30
0.0
 10
231.459929
 20
25.223618
 30
0.0
 10
234.195906
 20
32.102785
 30
0.0
 10
238.796666
 20
43.744452
 30
0.0
 10
242.056201
 20
51.858342
 30
0.0
 10
251.533480
 20
73.906955
 30
0.0
 10
253.037436
 20
77.510858
 30
0.0
 10
252.937122
 20
79.171232
 30
0.0
 10
251.341782
 20
80.603324
 30
0.0
 10
247.690672
 20
81.874226
 30
0.0
 10
241.958276
 20
82.990429
 30
0.0
 10
234.119044
 20
83.958423
 30
0.0
 10
229.044524
 20
84.957802
 30
0.0
 10
224.856088
 20
87.153142
 30
0.0
 10
221.209756
 20
90.400257
 30
0.0
 10
218.630548
 20
94.127176
 30
0.0
 10
217.730649
 20
96.571111
 30
0.0
 10
217.715859
 20
100.133474
 30
0.0
 10
218.092348
 20
102.352741
 30
0.0
 10
220.668355
 20
106.147096
 30
0.0
 10
223.715003
 20
109.376317
 30
0.0
 10
227.402245
 20
112.393194
 30
0.0
 10
232.358491
 20
115.435903
 30
0.0
 10
233.701082
 20
116.099068
 30
0.0
 10
235.069359
 20
116.709562
 30
0.0
 10
236.451140
 20
117.291529
 30
0.0
 10
237.834250
 20
117.869119
 30
0.0
 10
239.876272
 20
118.726216
 30
0.0
 10
241.925049
 20
119.567395
 30
0.0
 10
243.983206
 20
120.384881
 30
0.0
 10
246.053375
 20
121.170900
 30
0.0
 10
252.995885
 20
123.694617
 30
0.0
 10
259.984182
 20
126.133912
 30
0.0
 10
266.983901
 20
128.450945
 30
0.0
 10
273.960673
 20
130.607881
 30
0.0
 10
275.582595
 20
131.133055
 30
0.0
 10
277.183774
 20
131.839768
 30
0.0
 10
278.537806
 20
132.811265
 30
0.0
 10
279.418313
 20
134.130803
 30
0.0
 10
279.619025
 20
135.624254
 30
0.0
 10
279.302081
 20
137.206206
 30
0.0
 10
278.633003
 20
138.663123
 30
0.0
 10
277.777393
 20
139.781475
 30
0.0
 10
276.944538
 20
140.391009
 30
0.0
 10
276.117318
 20
140.619244
 30
0.0
 10
275.121717
 20
140.699301
 30
0.0
 10
273.783666
 20
140.864301
 30
0.0
 10
271.374106
 20
141.314553
 30
0.0
 10
268.902977
 20
142.001258
 30
0.0
 10
266.865077
 20
143.136807
 30
0.0
 10
265.755097
 20
144.933600
 30
0.0
 10
265.644792
 20
146.671119
 30
0.0
 10
266.206291
 20
148.165364
 30
0.0
 10
267.412844
 20
150.078183
 30
0.0
 10
269.237622
 20
153.071435
 30
0.0
 10
271.411968
 20
156.753530
 30
0.0
 10
273.685585
 20
160.515268
 30
0.0
 10
276.059162
 20
164.692086
 30
0.0
 10
278.533387
 20
169.619416
 30
0.0
 10
278.792044
 20
171.261068
 30
0.0
 10
279.001170
 20
174.165990
 30
0.0
 10
279.150184
 20
177.085611
 30
0.0
 10
279.228395
 20
178.771372
 30
0.0
 10
279.320946
 20
180.103986
 30
0.0
 10
279.434293
 20
180.948517
 30
0.0
 10
279.619581
 20
181.516964
 30
0.0
 10
279.927900
 20
182.021318
 30
0.0
 10
280.273578
 20
182.599086
 30
0.0
 10
280.575838
 20
183.217468
 30
0.0
 10
280.893126
 20
183.832984
 30
0.0
 10
281.283863
 20
184.402161
 30
0.0
 10
281.729078
 20
184.863785
 30
0.0
 10
282.178658
 20
185.241316
 30
0.0
 10
282.644351
 20
185.618307
 30
0.0
 10
283.137931
 20
186.078317
 30
0.0
 10
285.631444
 20
188.087979
 30
0.0
 10
288.019361
 20
189.171746
 30
0.0
 10
290.678477
 20
190.024191
 30
0.0
 10
293.979127
 20
190.830216
 30
0.0
 10
296.364796
 20
191.164315
 30
0.0
 10
298.773906
 20
191.290223
 30
0.0
 10
301.962797
 20
191.353342
 30
0.0
 10
305.785365
 20
191.300126
 30
0.0
 10
309.662701
 20
191.091875
 30
0.0
 10
312.227599
 20
190.878420
 30
0.0
 10
315.243267
 20
190.402411
 30
0.0
 10
318.482772
 20
189.305398
 30
0.0
 10
321.530825
 20
187.402911
 30
0.0
 10
322.155295
 20
186.939904
 30
0.0
 10
322.796989
 20
186.464643
 30
0.0
 10
323.427914
 20
185.981041
 30
0.0
 10
324.020078
 20
185.493009
 30
0.0
 10
324.404571
 20
185.111575
 30
0.0
 10
324.741385
 20
184.696679
 30
0.0
 10
325.065579
 20
184.248959
 30
0.0
 10
325.412210
 20
183.769052
 30
0.0
 10
325.730398
 20
183.259388
 30
0.0
 10
325.969263
 20
182.729565
 30
0.0
 10
326.163865
 20
182.190964
 30
0.0
 10
326.349232
 20
181.654971
 30
0.0
 10
326.518538
 20
180.875834
 30
0.0
 10
326.591087
 20
179.988985
 30
0.0
 10
326.605904
 20
179.261219
 30
0.0
 10
326.602200
 20
178.959343
 30
0.0
 10
326.647073
 20
176.735086
 30
0.0
 10
326.691946
 20
174.510832
 30
0.0
 10
326.736846
 20
172.286575
 30
0.0
 10
326.781720
 20
170.062318
 30
0.0
 10
329.130241
 20
165.659371
 30
0.0
 10
332.100294
 20
161.088334
 30
0.0
 10
334.851644
 20
157.196853
 30
0.0
 10
336.544024
 20
154.832570
 30
0.0
 10
337.830667
 20
153.033486
 30
0.0
 10
339.417611
 20
150.546429
 30
0.0
 10
340.543784
 20
147.782298
 30
0.0
 10
340.448110
 20
145.151987
 30
0.0
 10
339.328103
 20
143.668598
 30
0.0
 10
337.591669
 20
142.765890
 30
0.0
 10
335.480003
 20
142.220883
 30
0.0
 10
333.234299
 20
141.810591
 30
0.0
 10
332.579719
 20
141.661818
 30
0.0
 10
331.601396
 20
141.425246
 30
0.0
 10
330.399711
 20
141.053724
 30
0.0
 10
329.075075
 20
140.500091
 30
0.0
 10
328.157394
 20
139.218994
 30
0.0
 10
327.497841
 20
137.527815
 30
0.0
 10
327.217144
 20
135.680999
 30
0.0
 10
327.436008
 20
133.932987
 30
0.0
 10
328.069685
 20
132.742608
 30
0.0
 10
329.059174
 20
131.756498
 30
0.0
 10
330.261864
 20
130.968418
 30
0.0
 10
331.535118
 20
130.372121
 30
0.0
 10
338.126788
 20
127.871587
 30
0.0
 10
344.686656
 20
125.527574
 30
0.0
 10
351.208027
 20
123.180177
 30
0.0
 10
357.684233
 20
120.669501
 30
0.0
 10
360.126126
 20
119.650236
 30
0.0
 10
362.552434
 20
118.593181
 30
0.0
 10
364.956835
 20
117.488262
 30
0.0
 10
367.333058
 20
116.325411
 30
0.0
 10
370.124703
 20
114.892155
 30
0.0
 10
372.889996
 20
113.405704
 30
0.0
 10
375.606473
 20
111.836035
 30
0.0
 10
378.251725
 20
110.153129
 30
0.0
 10
379.419992
 20
109.373047
 30
0.0
 10
380.572835
 20
108.563546
 30
0.0
 10
381.660907
 20
107.681875
 30
0.0
 10
382.634997
 20
106.685290
 30
0.0
 10
383.784268
 20
105.198313
 30
0.0
 10
384.794950
 20
103.600582
 30
0.0
 10
385.619286
 20
101.907251
 30
0.0
 10
386.209598
 20
100.133471
 30
0.0
 10
386.194781
 20
96.570312
 30
0.0
 10
385.289774
 20
94.127173
 30
0.0
 10
381.054773
 20
88.774390
 30
0.0
 10
375.164566
 20
85.049909
 30
0.0
 10
372.785777
 20
84.446294
 30
0.0
 10
369.656179
 20
83.963948
 30
0.0
 10
364.244127
 20
83.452251
 30
0.0
 10
361.297965
 20
83.127761
 30
0.0
 10
359.036915
 20
82.459603
 30
0.0
 10
355.680252
 20
80.916913
 30
0.0
 10
359.245116
 20
76.554752
 30
0.0
 10
366.551267
 20
71.165895
 30
0.0
 10
384.884749
 20
57.693227
 30
0.0
 10
395.061074
 20
49.133284
 30
0.0
 10
395.779630
 20
47.340076
 30
0.0
 10
395.625431
 20
45.599253
 30
0.0
 10
394.266160
 20
43.953229
 30
0.0
 10
392.624341
 20
42.159600
 30
0.0
 10
369.740766
 20
32.102783
 30
0.0
 10
372.658644
 20
24.870839
 30
0.0
 10
379.972151
 20
4.854853
 30
0.0
 10
380.305156
 20
3.188105
 30
0.0
 10
380.332302
 20
1.877811
 30
0.0
 10
380.052241
 20
0.911617
 30
0.0
 10
379.463596
 20
0.277167
 30
0.0
 10
349.146790
 20
0.005405
 30
0.0
 10
318.526958
 20
0.721924
 30
0.0
 10
314.668698
 20
8.878808
 30
0.0
 10
305.430082
 20
28.839589
 30
0.0
 10
303.691399
 20
31.144052
 30
0.0
 10
301.829024
 20
31.686056
 30
0.0
 10
300.033508
 20
30.804827
 30
0.0
 10
298.495433
 20
28.839589
 30
0.0
 10
289.256791
 20
8.878808
 30
0.0
 10
285.406204
 20
0.793753
 30
0.0
 10
284.649152
 20
0.000003
 30
0.0
 10
254.764969
 20
0.005400
 30
0.0
 10
224.461888
 20
0.277164
 30
0.0
 10
224.461866
 20
0.277164
 30
0.0
 10
224.461845
 20
0.277167
 30
0.0
 10
224.461827
 20
0.277167
 30
0.0
  0
LWPOLYLINE
  5
102
100
AcDbEntity
  8
0
 62
1
100
AcDbPolyline
 90
2
 70
0
 10
302.970833
 20
199.196577
 30
0.0
 10
303.295001
 20
106.162537
 30
0.0
  0
LWPOLYLINE
  5
103
100
AcDbEntity
  8
0
 62
1
100
AcDbPolyline
 90
2
 70
0
 10
278.820883
 20
169.893360
 30
0.0
 10
326.472475
 20
170.055441
 30
0.0
  0
LWPOLYLINE
  5
104
100
AcDbEntity
  8
0
 62
1
100
AcDbPolyline
 90
2
 70
0
 10
278.362360
 20
132.322574
 30
0.0
 10
328.019784
 20
132.484560
 30
0.0
  0
LWPOLYLINE
  5
105
100
AcDbEntity
  8
0
 62
1
100
AcDbPolyline
 90
2
 70
0
 10
265.546684
 20
146.182577
 30
0.0
 10
340.449645
 20
146.468991
 30
0.0
  0
LWPOLYLINE
  5
106
100
AcDbEntity
  8
0
 62
1
100
AcDbPolyline
 90
2
 70
0
 10
303.424594
 20
135.181209
 30
0.0
 10
326.982512
 20
135.472783
 30
0.0
  0
ENDSEC
  0
SECTION
  2
OBJECTS
  0
DICTIONARY
  5
C
330
0
100
AcDbDictionary
  3
ACAD_GROUP
350
D
  3
ACAD_MLINESTYLE
350
17
  0
DICTIONARY
  5
D
330
C
100
AcDbDictionary
  0
DICTIONARY
  5
1A
330
C
100
AcDbDictionary
  0
DICTIONARY
  5
17
330
C
100
AcDbDictionary
  3
STANDARD
350
18
  0
DICTIONARY
  5
19
330
C
100
AcDbDictionary
  0
ENDSEC
  0
EOF
