  0
SECTION
  2
HEADER
  9
$ACADVER
  1
AC1014
  9
$HANDSEED
  5
FFFF
  9
$MEASUREMENT
 70
     1
  0
ENDSEC
  0
SECTION
  2
TABLES
  0
TABLE
  2
VPORT
  5
8
330
0
100
AcDbSymbolTable
 70
     4
  0
VPORT
  5
2E
330
8
100
AcDbSymbolTableRecord
100
AcDbViewportTableRecord
  2
*ACTIVE
 70
     0
 10
0.0
 20
0.0
 11
1.0
 21
1.0
 12
210.0
 22
148.5
 13
0.0
 23
0.0
 14
10.0
 24
10.0
 15
10.0
 25
10.0
 16
0.0
 26
0.0
 36
1.0
 17
0.0
 27
0.0
 37
0.0
 40
341.0
 41
1.24
 42
50.0
 43
0.0
 44
0.0
 50
0.0
 51
0.0
 71
     0
 72
   100
 73
     1
 74
     3
 75
     0
 76
     0
 77
     0
 78
     0
  0
ENDTAB
  0
TABLE
  2
LTYPE
  5
5
330
0
100
AcDbSymbolTable
 70
     1
  0
LTYPE
  5
14
330
5
100
AcDbSymbolTableRecord
100
AcDbLinetypeTableRecord
  2
BYBLOCK
 70
     0
  3

 72
    65
 73
     0
 40
0.0
  0
LTYPE
  5
15
330
5
100
AcDbSymbolTableRecord
100
AcDbLinetypeTableRecord
  2
BYLAYER
 70
     0
  3

 72
    65
 73
     0
 40
0.0
  0
LTYPE
  5
16
330
5
100
AcDbSymbolTableRecord
100
AcDbLinetypeTableRecord
  2
CONTINUOUS
 70
     0
  3
Solid line
 72
    65
 73
     0
 40
0.0
  0
ENDTAB
  0
TABLE
  2
LAYER
  5
2
100
AcDbSymbolTable
 70
1
  0
LAYER
  5
50
100
AcDbSymbolTableRecord
100
AcDbLayerTableRecord
  2
0
 70
0
  6
CONTINUOUS
  0
ENDTAB
  0
TABLE
  2
STYLE
  5
3
330
0
100
AcDbSymbolTable
 70
     1
  0
STYLE
  5
11
330
3
100
AcDbSymbolTableRecord
100
AcDbTextStyleTableRecord
  2
STANDARD
 70
     0
 40
0.0
 41
1.0
 50
0.0
 71
     0
 42
2.5
  3
txt
  4

  0
ENDTAB
  0
TABLE
  2
VIEW
  5
6
330
0
100
AcDbSymbolTable
 70
     0
  0
ENDTAB
  0
TABLE
  2
UCS
  5
7
330
0
100
AcDbSymbolTable
 70
     0
  0
ENDTAB
  0
TABLE
  2
APPID
  5
9
330
0
100
AcDbSymbolTable
 70
     2
  0
APPID
  5
12
330
9
100
AcDbSymbolTableRecord
100
AcDbRegAppTableRecord
  2
ACAD
 70
     0
  0
ENDTAB
  0
TABLE
  2
DIMSTYLE
  5
A
330
0
100
AcDbSymbolTable
 70
     1
  0
DIMSTYLE
105
27
330
A
100
AcDbSymbolTableRecord
100
AcDbDimStyleTableRecord
  2
ISO-25
 70
     0
  3

  4

  5

  6

  7

 40
1.0
 41
2.5
 42
0.625
 43
3.75
 44
1.25
 45
0.0
 46
0.0
 47
0.0
 48
0.0
140
2.5
141
2.5
142
0.0
143
0.03937007874016
144
1.0
145
0.0
146
1.0
147
0.625
 71
     0
 72
     0
 73
     0
 74
     0
 75
     0
 76
     0
 77
     1
 78
     8
170
     0
171
     3
172
     1
173
     0
174
     0
175
     0
176
     0
177
     0
178
     0
270
     2
271
     2
272
     2
273
     2
274
     3
340
11
275
     0
280
     0
281
     0
282
     0
283
     0
284
     8
285
     0
286
     0
287
     3
288
     0
  0
ENDTAB
  0
TABLE
  2
BLOCK_RECORD
  5
1
330
0
100
AcDbSymbolTable
 70
     1
  0
BLOCK_RECORD
  5
1F
330
1
100
AcDbSymbolTableRecord
100
AcDbBlockTableRecord
  2
*MODEL_SPACE
  0
BLOCK_RECORD
  5
1B
330
1
100
AcDbSymbolTableRecord
100
AcDbBlockTableRecord
  2
*PAPER_SPACE
  0
ENDTAB
  0
ENDSEC
  0
SECTION
  2
BLOCKS
  0
BLOCK
  5
20
330
1F
100
AcDbEntity
  8
0
100
AcDbBlockBegin
  2
*MODEL_SPACE
 70
     0
 10
0.0
 20
0.0
 30
0.0
  3
*MODEL_SPACE
  1

  0
ENDBLK
  5
21
330
1F
100
AcDbEntity
  8
0
100
AcDbBlockEnd
  0
BLOCK
  5
1C
330
1B
100
AcDbEntity
 67
     1
  8
0
100
AcDbBlockBegin
  2
*PAPER_SPACE
  1

  0
ENDBLK
  5
1D
330
1B
100
AcDbEntity
 67
     1
  8
0
100
AcDbBlockEnd
  0
ENDSEC
  0
SECTION
  2
ENTITIES
  0
LWPOLYLINE
  5
100
100
AcDbEntity
  8
0
 62
7
100
AcDbPolyline
 90
113
 70
1
 10
26.024452
 20
0.277170
 30
0.0
 10
27.502917
 20
9.206952
 30
0.0
 10
4.492211
 20
16.498565
 30
0.0
 10
1.920256
 20
17.365075
 30
0.0
 10
0.619130
 20
18.705156
 30
0.0
 10
0.206303
 20
20.333907
 30
0.0
 10
0.521520
 20
22.010122
 30
0.0
 10
1.357276
 20
23.407545
 30
0.0
 10
2.343987
 20
24.686152
 30
0.0
 10
20.522897
 20
44.420880
 30
0.0
 10
31.282704
 20
56.062547
 30
0.0
 10
39.728807
 20
65.797240
 30
0.0
 10
42.041390
 20
70.000599
 30
0.0
 10
44.667803
 20
75.527758
 30
0.0
 10
46.495918
 20
79.779983
 30
0.0
 10
46.719766
 20
82.088676
 30
0.0
 10
46.340030
 20
83.064917
 30
0.0
 10
45.363252
 20
83.332948
 30
0.0
 10
42.305185
 20
83.446280
 30
0.0
 10
35.681574
 20
83.958423
 30
0.0
 10
30.607051
 20
84.957802
 30
0.0
 10
26.418615
 20
87.153142
 30
0.0
 10
22.772281
 20
90.400260
 30
0.0
 10
20.193081
 20
94.127176
 30
0.0
 10
19.278382
 20
100.133474
 30
0.0
 10
20.457124
 20
105.790980
 30
0.0
 10
22.345482
 20
108.553862
 30
0.0
 10
25.048293
 20
111.210044
 30
0.0
 10
28.850146
 20
113.997707
 30
0.0
 10
34.035627
 20
117.155022
 30
0.0
 10
38.479913
 20
119.641963
 30
0.0
 10
42.891443
 20
121.991479
 30
0.0
 10
47.272044
 20
124.204430
 30
0.0
 10
51.623593
 20
126.281690
 30
0.0
 10
55.947969
 20
128.224115
 30
0.0
 10
60.247025
 20
130.032576
 30
0.0
 10
64.522639
 20
131.707939
 30
0.0
 10
68.776689
 20
133.251069
 30
0.0
 10
74.161781
 20
135.611308
 30
0.0
 10
74.591967
 20
136.182467
 30
0.0
 10
74.937751
 20
137.110612
 30
0.0
 10
75.264855
 20
138.635395
 30
0.0
 10
75.639029
 20
140.996460
 30
0.0
 10
76.179043
 20
144.087944
 30
0.0
 10
76.862832
 20
146.928678
 30
0.0
 10
77.708017
 20
156.435088
 30
0.0
 10
78.732114
 20
158.886098
 30
0.0
 10
79.790608
 20
163.143096
 30
0.0
 10
81.387313
 20
166.054291
 30
0.0
 10
83.053527
 20
168.200159
 30
0.0
 10
84.968925
 20
170.318837
 30
0.0
 10
87.638465
 20
172.905927
 30
0.0
 10
90.054190
 20
174.819762
 30
0.0
 10
92.470180
 20
176.235415
 30
0.0
 10
95.140487
 20
177.327959
 30
0.0
 10
98.443017
 20
178.177795
 30
0.0
 10
100.451019
 20
178.303703
 30
0.0
 10
103.525292
 20
178.329182
 30
0.0
 10
107.233242
 20
178.256303
 30
0.0
 10
109.907201
 20
177.933442
 30
0.0
 10
112.300198
 20
177.204250
 30
0.0
 10
115.165160
 20
175.912391
 30
0.0
 10
117.810411
 20
174.198629
 30
0.0
 10
121.374190
 20
170.920846
 30
0.0
 10
123.519643
 20
168.667120
 30
0.0
 10
125.353417
 20
166.445014
 30
0.0
 10
127.066142
 20
162.685131
 30
0.0
 10
128.200175
 20
159.217330
 30
0.0
 10
129.270415
 20
156.741341
 30
0.0
 10
130.143302
 20
147.185308
 30
0.0
 10
130.847490
 20
144.249443
 30
0.0
 10
131.411582
 20
140.996457
 30
0.0
 10
131.944797
 20
137.888833
 30
0.0
 10
132.582390
 20
136.056610
 30
0.0
 10
133.600506
 20
135.021573
 30
0.0
 10
135.275293
 20
134.305505
 30
0.0
 10
140.390588
 20
132.464182
 30
0.0
 10
144.800293
 20
130.890083
 30
0.0
 10
148.151690
 20
129.474795
 30
0.0
 10
152.354597
 20
127.649771
 30
0.0
 10
158.081133
 20
125.055822
 30
0.0
 10
165.473750
 20
121.281173
 30
0.0
 10
172.985800
 20
117.146564
 30
0.0
 10
179.070634
 20
113.472729
 30
0.0
 10
183.542199
 20
109.860150
 30
0.0
 10
186.581362
 20
105.819272
 30
0.0
 10
187.772225
 20
100.133471
 30
0.0
 10
186.852321
 20
94.127173
 30
0.0
 10
182.617321
 20
88.774390
 30
0.0
 10
176.727114
 20
85.049909
 30
0.0
 10
174.348335
 20
84.446294
 30
0.0
 10
171.218727
 20
83.963948
 30
0.0
 10
164.560694
 20
83.123028
 30
0.0
 10
159.213697
 20
82.195801
 30
0.0
 10
155.402750
 20
81.228809
 30
0.0
 10
153.352870
 20
80.268594
 30
0.0
 10
152.474598
 20
78.106136
 30
0.0
 10
153.850736
 20
74.083340
 30
0.0
 10
158.913922
 20
62.706275
 30
0.0
 10
163.431881
 20
51.858339
 30
0.0
 10
166.686494
 20
43.744449
 30
0.0
 10
171.303314
 20
32.102783
 30
0.0
 10
174.221192
 20
24.870839
 30
0.0
 10
181.534699
 20
4.854853
 30
0.0
 10
180.611576
 20
2.980439
 30
0.0
 10
179.139490
 20
2.161450
 30
0.0
 10
177.603311
 20
1.868900
 30
0.0
 10
176.487899
 20
1.573808
 30
0.0
 10
151.033498
 20
1.626209
 30
0.0
 10
120.089505
 20
0.721924
 30
0.0
 10
86.211699
 20
0.000003
 30
0.0
 10
56.327514
 20
0.005400
 30
0.0
 10
26.024452
 20
0.277164
 30
0.0
  0
LWPOLYLINE
  5
101
100
AcDbEntity
  8
0
 62
7
100
AcDbPolyline
 90
357
 70
1
 10
232.928605
 20
0.277170
 30
0.0
 10
232.752016
 20
0.405376
 30
0.0
 10
232.595351
 20
0.553117
 30
0.0
 10
232.458551
 20
0.720968
 30
0.0
 10
232.341560
 20
0.909497
 30
0.0
 10
232.244318
 20
1.119280
 30
0.0
 10
232.166774
 20
1.350883
 30
0.0
 10
232.108865
 20
1.604878
 30
0.0
 10
232.070537
 20
1.881841
 30
0.0
 10
232.051725
 20
2.182339
 30
0.0
 10
232.052519
 20
2.506948
 30
0.0
 10
232.072601
 20
2.856235
 30
0.0
 10
232.112037
 20
3.230774
 30
0.0
 10
232.170772
 20
3.631134
 30
0.0
 10
232.248750
 20
4.057888
 30
0.0
 10
232.345915
 20
4.511609
 30
0.0
 10
232.462208
 20
4.992867
 30
0.0
 10
233.704897
 20
8.957802
 30
0.0
 10
235.748417
 20
14.695247
 30
0.0
 10
238.014957
 20
20.639191
 30
0.0
 10
239.926712
 20
25.223618
 30
0.0
 10
240.341568
 20
26.202990
 30
0.0
 10
240.995706
 20
27.826457
 30
0.0
 10
241.799338
 20
29.868297
 30
0.0
 10
242.662689
 20
32.102785
 30
0.0
 10
243.673194
 20
34.713067
 30
0.0
 10
244.877463
 20
37.778098
 30
0.0
 10
246.124535
 20
40.915892
 30
0.0
 10
247.263449
 20
43.744452
 30
0.0
 10
248.296518
 20
46.294652
 30
0.0
 10
249.255434
 20
48.674523
 30
0.0
 10
250.033240
 20
50.617832
 30
0.0
 10
250.522984
 20
51.858342
 30
0.0
 10
252.350434
 20
56.359706
 30
0.0
 10
254.879343
 20
62.326418
 30
0.0
 10
257.599395
 20
68.571243
 30
0.0
 10
260.000264
 20
73.906955
 30
0.0
 10
260.569978
 20
75.152632
 30
0.0
 10
261.002288
 20
76.137557
 30
0.0
 10
261.309575
 20
76.908156
 30
0.0
 10
261.504219
 20
77.510858
 30
0.0
 10
261.617328
 20
78.009867
 30
0.0
 10
261.655037
 20
78.445686
 30
0.0
 10
261.592259
 20
78.829184
 30
0.0
 10
261.403905
 20
79.171232
 30
0.0
 10
259.975337
 20
80.239548
 30
0.0
 10
258.159912
 20
80.739785
 30
0.0
 10
256.180342
 20
80.975852
 30
0.0
 10
254.259342
 20
81.251646
 30
0.0
 10
252.669199
 20
81.551495
 30
0.0
 10
251.066814
 20
81.784675
 30
0.0
 10
249.459073
 20
81.988023
 30
0.0
 10
247.852870
 20
82.198386
 30
0.0
 10
246.380193
 20
82.403324
 30
0.0
 10
244.906816
 20
82.603195
 30
0.0
 10
243.432846
 20
82.798675
 30
0.0
 10
241.958392
 20
82.990429
 30
0.0
 10
239.990424
 20
83.191377
 30
0.0
 10
238.015690
 20
83.354464
 30
0.0
 10
236.052500
 20
83.577532
 30
0.0
 10
234.119161
 20
83.958423
 30
0.0
 10
231.395143
 20
84.695452
 30
0.0
 10
228.700566
 20
85.572789
 30
0.0
 10
226.115907
 20
86.684745
 30
0.0
 10
223.721642
 20
88.125624
 30
0.0
 10
222.181065
 20
89.374489
 30
0.0
 10
220.785624
 20
90.806091
 30
0.0
 10
219.585447
 20
92.397848
 30
0.0
 10
218.630664
 20
94.127176
 30
0.0
 10
218.090372
 20
95.561731
 30
0.0
 10
217.743122
 20
97.070869
 30
0.0
 10
217.610970
 20
98.609733
 30
0.0
 10
217.715976
 20
100.133474
 30
0.0
 10
218.132001
 20
101.770036
 30
0.0
 10
218.816772
 20
103.343415
 30
0.0
 10
219.689270
 20
104.815231
 30
0.0
 10
220.668472
 20
106.147096
 30
0.0
 10
221.383058
 20
106.996665
 30
0.0
 10
222.133168
 20
107.816164
 30
0.0
 10
222.912588
 20
108.608433
 30
0.0
 10
223.715120
 20
109.376317
 30
0.0
 10
224.599410
 20
110.175007
 30
0.0
 10
225.509116
 20
110.945606
 30
0.0
 10
226.443633
 20
111.685780
 30
0.0
 10
227.402361
 20
112.393194
 30
0.0
 10
228.602011
 20
113.215641
 30
0.0
 10
229.829580
 20
113.997339
 30
0.0
 10
231.082601
 20
114.737641
 30
0.0
 10
232.358607
 20
115.435903
 30
0.0
 10
233.701199
 20
116.099068
 30
0.0
 10
235.069473
 20
116.709562
 30
0.0
 10
236.451257
 20
117.291529
 30
0.0
 10
237.834366
 20
117.869119
 30
0.0
 10
239.876388
 20
118.726216
 30
0.0
 10
241.925166
 20
119.567395
 30
0.0
 10
243.983322
 20
120.384881
 30
0.0
 10
246.053491
 20
121.170900
 30
0.0
 10
252.996002
 20
123.694617
 30
0.0
 10
259.984299
 20
126.133912
 30
0.0
 10
266.984018
 20
128.450945
 30
0.0
 10
273.960789
 20
130.607881
 30
0.0
 10
275.582711
 20
131.133055
 30
0.0
 10
277.183890
 20
131.839768
 30
0.0
 10
278.537922
 20
132.811265
 30
0.0
 10
279.418429
 20
134.130803
 30
0.0
 10
279.619142
 20
135.624254
 30
0.0
 10
279.302197
 20
137.206206
 30
0.0
 10
278.633119
 20
138.663123
 30
0.0
 10
277.777510
 20
139.781475
 30
0.0
 10
276.944654
 20
140.391009
 30
0.0
 10
276.117434
 20
140.619244
 30
0.0
 10
275.121834
 20
140.699301
 30
0.0
 10
273.783783
 20
140.864301
 30
0.0
 10
271.374222
 20
141.314553
 30
0.0
 10
268.903093
 20
142.001258
 30
0.0
 10
266.865193
 20
143.136807
 30
0.0
 10
265.755213
 20
144.933600
 30
0.0
 10
265.644908
 20
146.671119
 30
0.0
 10
266.206407
 20
148.165364
 30
0.0
 10
267.412960
 20
150.078183
 30
0.0
 10
269.237738
 20
153.071435
 30
0.0
 10
271.412084
 20
156.753530
 30
0.0
 10
273.685702
 20
160.515268
 30
0.0
 10
276.059279
 20
164.692086
 30
0.0
 10
278.533503
 20
169.619416
 30
0.0
 10
278.792160
 20
171.261068
 30
0.0
 10
279.001287
 20
174.165990
 30
0.0
 10
279.150300
 20
177.085611
 30
0.0
 10
279.228511
 20
178.771372
 30
0.0
 10
279.321062
 20
180.103986
 30
0.0
 10
279.434410
 20
180.948517
 30
0.0
 10
279.619697
 20
181.516964
 30
0.0
 10
279.928016
 20
182.021318
 30
0.0
 10
281.283980
 20
184.402161
 30
0.0
 10
283.138047
 20
186.078317
 30
0.0
 10
285.631560
 20
188.087979
 30
0.0
 10
288.019478
 20
189.171746
 30
0.0
 10
290.678593
 20
190.024191
 30
0.0
 10
293.979244
 20
190.830216
 30
0.0
 10
296.364912
 20
191.164315
 30
0.0
 10
298.774023
 20
191.290223
 30
0.0
 10
301.962914
 20
191.353342
 30
0.0
 10
305.785481
 20
191.300126
 30
0.0
 10
309.662818
 20
191.091875
 30
0.0
 10
312.227715
 20
190.878420
 30
0.0
 10
315.243383
 20
190.402411
 30
0.0
 10
318.482889
 20
189.305398
 30
0.0
 10
321.530942
 20
187.402911
 30
0.0
 10
324.020194
 20
185.493009
 30
0.0
 10
325.412326
 20
183.769052
 30
0.0
 10
325.730514
 20
183.259388
 30
0.0
 10
325.969380
 20
182.729565
 30
0.0
 10
326.163954
 20
182.190964
 30
0.0
 10
326.349348
 20
181.654971
 30
0.0
 10
326.518655
 20
180.875834
 30
0.0
 10
326.591204
 20
179.988985
 30
0.0
 10
326.606020
 20
179.261219
 30
0.0
 10
326.602316
 20
178.959343
 30
0.0
 10
326.647189
 20
176.735086
 30
0.0
 10
326.692063
 20
174.510829
 30
0.0
 10
326.736963
 20
172.286575
 30
0.0
 10
326.781836
 20
170.062318
 30
0.0
 10
329.130357
 20
165.659371
 30
0.0
 10
332.100411
 20
161.088334
 30
0.0
 10
334.851786
 20
157.196853
 30
0.0
 10
336.544141
 20
154.832570
 30
0.0
 10
337.830783
 20
153.033486
 30
0.0
 10
339.417728
 20
150.546429
 30
0.0
 10
340.543900
 20
147.782298
 30
0.0
 10
340.448227
 20
145.151987
 30
0.0
 10
339.328219
 20
143.668598
 30
0.0
 10
337.591785
 20
142.765890
 30
0.0
 10
335.480119
 20
142.220883
 30
0.0
 10
333.234415
 20
141.810591
 30
0.0
 10
332.579836
 20
141.661818
 30
0.0
 10
331.601512
 20
141.425246
 30
0.0
 10
330.399828
 20
141.053724
 30
0.0
 10
329.075191
 20
140.500091
 30
0.0
 10
328.157511
 20
139.218992
 30
0.0
 10
327.497957
 20
137.527815
 30
0.0
 10
327.217261
 20
135.680999
 30
0.0
 10
327.436124
 20
133.932987
 30
0.0
 10
328.069801
 20
132.742608
 30
0.0
 10
329.059290
 20
131.756498
 30
0.0
 10
330.261980
 20
130.968418
 30
0.0
 10
331.535234
 20
130.372121
 30
0.0
 10
338.126905
 20
127.871587
 30
0.0
 10
344.686772
 20
125.527574
 30
0.0
 10
351.208143
 20
123.180177
 30
0.0
 10
357.684349
 20
120.669501
 30
0.0
 10
360.126242
 20
119.650236
 30
0.0
 10
362.552551
 20
118.593181
 30
0.0
 10
364.956952
 20
117.488262
 30
0.0
 10
367.333175
 20
116.325411
 30
0.0
 10
370.124820
 20
114.892155
 30
0.0
 10
372.890113
 20
113.405704
 30
0.0
 10
375.606590
 20
111.836035
 30
0.0
 10
378.251841
 20
110.153129
 30
0.0
 10
379.420109
 20
109.373047
 30
0.0
 10
380.572951
 20
108.563546
 30
0.0
 10
381.661024
 20
107.681875
 30
0.0
 10
382.635114
 20
106.685290
 30
0.0
 10
383.808329
 20
105.203478
 30
0.0
 10
384.858857
 20
103.614356
 30
0.0
 10
385.691184
 20
101.922748
 30
0.0
 10
386.209714
 20
100.133471
 30
0.0
 10
386.364389
 20
98.409769
 30
0.0
 10
386.236040
 20
96.661807
 30
0.0
 10
385.847711
 20
94.948487
 30
0.0
 10
385.222421
 20
93.328708
 30
0.0
 10
384.435762
 20
91.999685
 30
0.0
 10
383.438230
 20
90.799786
 30
0.0
 10
382.290944
 20
89.725771
 30
0.0
 10
381.054890
 20
88.774390
 30
0.0
 10
379.264507
 20
87.715112
 30
0.0
 10
377.344558
 20
86.883315
 30
0.0
 10
375.357828
 20
86.181294
 30
0.0
 10
373.367077
 20
85.511334
 30
0.0
 10
371.013291
 20
84.752430
 30
0.0
 10
368.631459
 20
84.082042
 30
0.0
 10
366.232508
 20
83.469706
 30
0.0
 10
363.827498
 20
82.884971
 30
0.0
 10
362.211503
 20
82.589945
 30
0.0
 10
360.296369
 20
82.342430
 30
0.0
 10
358.466378
 20
82.128438
 30
0.0
 10
357.105785
 20
81.933974
 30
0.0
 10
356.173129
 20
81.775499
 30
0.0
 10
355.278070
 20
81.592590
 30
0.0
 10
354.281517
 20
81.255916
 30
0.0
 10
353.044404
 20
80.636151
 30
0.0
 10
353.173812
 20
79.969036
 30
0.0
 10
353.696788
 20
79.485073
 30
0.0
 10
354.411559
 20
79.102149
 30
0.0
 10
355.116330
 20
78.738149
 30
0.0
 10
355.974559
 20
78.174227
 30
0.0
 10
357.116448
 20
77.377013
 30
0.0
 10
358.290510
 20
76.542605
 30
0.0
 10
359.245232
 20
75.867105
 30
0.0
 10
361.193545
 20
74.488501
 30
0.0
 10
363.197261
 20
73.049298
 30
0.0
 10
365.080168
 20
71.700436
 30
0.0
 10
366.666001
 20
70.592856
 30
0.0
 10
371.031600
 20
67.634015
 30
0.0
 10
374.948492
 20
64.941472
 30
0.0
 10
379.278848
 20
61.849715
 30
0.0
 10
384.884866
 20
57.693227
 30
0.0
 10
387.539801
 20
55.866779
 30
0.0
 10
390.373885
 20
53.943092
 30
0.0
 10
393.007548
 20
51.754485
 30
0.0
 10
395.061191
 20
49.133284
 30
0.0
 10
395.443487
 20
48.304324
 30
0.0
 10
395.687089
 20
47.406910
 30
0.0
 10
395.758844
 20
46.489176
 30
0.0
 10
395.625547
 20
45.599253
 30
0.0
 10
395.158557
 20
44.561967
 30
0.0
 10
394.445029
 20
43.643429
 30
0.0
 10
393.571481
 20
42.842892
 30
0.0
 10
392.624458
 20
42.159600
 30
0.0
 10
387.984671
 20
40.180253
 30
0.0
 10
381.747622
 20
38.545681
 30
0.0
 10
374.947724
 20
36.846719
 30
0.0
 10
368.619394
 20
34.674215
 30
0.0
 10
366.682617
 20
33.805408
 30
0.0
 10
364.650776
 20
32.807590
 30
0.0
 10
362.958818
 20
31.776064
 30
0.0
 10
362.041693
 20
30.806142
 30
0.0
 10
362.131043
 20
29.803289
 30
0.0
 10
362.550884
 20
28.259937
 30
0.0
 10
363.121458
 20
26.505863
 30
0.0
 10
363.662927
 20
24.870839
 30
0.0
 10
365.595471
 20
19.345217
 30
0.0
 10
367.808366
 20
13.543936
 30
0.0
 10
369.776893
 20
8.402108
 30
0.0
 10
370.976434
 20
4.854853
 30
0.0
 10
371.088274
 20
4.404072
 30
0.0
 10
371.181089
 20
3.976150
 30
0.0
 10
371.254802
 20
3.570891
 30
0.0
 10
371.309439
 20
3.188105
 30
0.0
 10
371.344946
 20
2.827597
 30
0.0
 10
371.361350
 20
2.489174
 30
0.0
 10
371.358704
 20
2.172642
 30
0.0
 10
371.336744
 20
1.877811
 30
0.0
 10
371.295601
 20
1.604486
 30
0.0
 10
371.235197
 20
1.352473
 30
0.0
 10
371.155584
 20
1.121582
 30
0.0
 10
371.056682
 20
0.911617
 30
0.0
 10
370.938493
 20
0.722389
 30
0.0
 10
370.801015
 20
0.553699
 30
0.0
 10
370.644197
 20
0.405355
 30
0.0
 10
370.468037
 20
0.277167
 30
0.0
 10
369.351840
 20
0.173318
 30
0.0
 10
365.887597
 20
0.087463
 30
0.0
 10
359.383318
 20
0.028519
 30
0.0
 10
349.147065
 20
0.005395
 30
0.0
 10
331.951847
 20
0.014364
 30
0.0
 10
322.984271
 20
0.093046
 30
0.0
 10
319.443167
 20
0.307030
 30
0.0
 10
318.527233
 20
0.721908
 30
0.0
 10
317.738774
 20
1.875192
 30
0.0
 10
316.717827
 20
3.862406
 30
0.0
 10
315.637004
 20
6.318594
 30
0.0
 10
314.668973
 20
8.878792
 30
0.0
 10
313.613603
 20
11.489079
 30
0.0
 10
311.667328
 20
15.804161
 30
0.0
 10
308.912221
 20
21.646753
 30
0.0
 10
305.430358
 20
28.839573
 30
0.0
 10
305.017713
 20
29.599472
 30
0.0
 10
304.588400
 20
30.233313
 30
0.0
 10
304.145382
 20
30.746401
 30
0.0
 10
303.691675
 20
31.144036
 30
0.0
 10
303.230241
 20
31.431516
 30
0.0
 10
302.764045
 20
31.614142
 30
0.0
 10
302.296077
 20
31.697219
 30
0.0
 10
301.829299
 20
31.686053
 30
0.0
 10
301.366701
 20
31.585924
 30
0.0
 10
300.911274
 20
31.402139
 30
0.0
 10
300.465980
 20
31.140006
 30
0.0
 10
300.033784
 20
30.804824
 30
0.0
 10
299.617673
 20
30.401890
 30
0.0
 10
299.220640
 20
29.936504
 30
0.0
 10
298.845672
 20
29.413970
 30
0.0
 10
298.495708
 20
28.839586
 30
0.0
 10
295.013817
 20
21.646767
 30
0.0
 10
292.258711
 20
15.804174
 30
0.0
 10
290.312463
 20
11.489092
 30
0.0
 10
289.257066
 20
8.878806
 30
0.0
 10
288.305386
 20
6.366597
 30
0.0
 10
287.237951
 20
3.953973
 30
0.0
 10
286.217427
 20
1.982502
 30
0.0
 10
285.406479
 20
0.793750
 30
0.0
 10
285.217223
 20
0.595313
 30
0.0
 10
285.027940
 20
0.396875
 30
0.0
 10
284.838683
 20
0.198438
 30
0.0
 10
284.649427
 20
-0.000000
 30
0.0
 10
279.295054
 20
0.001323
 30
0.0
 10
273.940681
 20
0.002646
 30
0.0
 10
268.586281
 20
0.003969
 30
0.0
 10
263.231911
 20
0.005292
 30
0.0
 10
251.595382
 20
0.028337
 30
0.0
 10
242.003149
 20
0.087286
 30
0.0
 10
235.449528
 20
0.173175
 30
0.0
 10
232.928830
 20
0.277045
 30
0.0
 10
232.928824
 20
0.277045
 30
0.0
 10
232.928819
 20
0.277045
 30
0.0
 10
232.928814
 20
0.277045
 30
0.0
 10
232.928808
 20
0.277045
 30
0.0
 10
232.928803
 20
0.277045
 30
0.0
 10
232.928798
 20
0.277045
 30
0.0
 10
232.928792
 20
0.277048
 30
0.0
 10
232.928787
 20
0.277048
 30
0.0
 10
232.928782
 20
0.277048
 30
0.0
 10
232.928777
 20
0.277048
 30
0.0
 10
232.928774
 20
0.277048
 30
0.0
 10
232.928769
 20
0.277048
 30
0.0
 10
232.928782
 20
0.277048
 30
0.0
 10
232.928798
 20
0.277048
 30
0.0
 10
232.928811
 20
0.277051
 30
0.0
  0
LWPOLYLINE
  5
102
100
AcDbEntity
  8
0
 62
1
100
AcDbPolyline
 90
2
 70
0
 10
302.971653
 20
199.198176
 30
0.0
 10
303.294180
 20
67.423769
 30
0.0
  0
LWPOLYLINE
  5
103
100
AcDbEntity
  8
0
 62
1
100
AcDbPolyline
 90
5
 70
0
 10
278.820883
 20
169.893360
 30
0.0
 10
290.733775
 20
169.933881
 30
0.0
 10
302.646692
 20
169.974402
 30
0.0
 10
314.559583
 20
170.014921
 30
0.0
 10
326.472475
 20
170.055441
 30
0.0
  0
LWPOLYLINE
  5
104
100
AcDbEntity
  8
0
 62
1
100
AcDbPolyline
 90
5
 70
0
 10
260.971732
 20
79.783293
 30
0.0
 10
284.449762
 20
79.823279
 30
0.0
 10
307.927776
 20
79.863268
 30
0.0
 10
331.405790
 20
79.903255
 30
0.0
 10
354.883804
 20
79.943241
 30
0.0
  0
LWPOLYLINE
  5
105
100
AcDbEntity
  8
0
 62
1
100
AcDbPolyline
 90
5
 70
0
 10
303.343128
 20
78.984812
 30
0.0
 10
313.923657
 20
79.056956
 30
0.0
 10
324.504213
 20
79.129102
 30
0.0
 10
335.084742
 20
79.201246
 30
0.0
 10
345.665270
 20
79.273390
 30
0.0
  0
LWPOLYLINE
  5
106
100
AcDbEntity
  8
0
 62
1
100
AcDbPolyline
 90
5
 70
0
 10
303.424594
 20
135.181209
 30
0.0
 10
309.314086
 20
135.254102
 30
0.0
 10
315.203553
 20
135.326995
 30
0.0
 10
321.093046
 20
135.399890
 30
0.0
 10
326.982512
 20
135.472783
 30
0.0
  0
ENDSEC
  0
SECTION
  2
OBJECTS
  0
DICTIONARY
  5
C
330
0
100
AcDbDictionary
  3
ACAD_GROUP
350
D
  3
ACAD_MLINESTYLE
350
17
  0
DICTIONARY
  5
D
330
C
100
AcDbDictionary
  0
DICTIONARY
  5
1A
330
C
100
AcDbDictionary
  0
DICTIONARY
  5
17
330
C
100
AcDbDictionary
  3
STANDARD
350
18
  0
DICTIONARY
  5
19
330
C
100
AcDbDictionary
  0
ENDSEC
  0
EOF
