  0
SECTION
  2
HEADER
  9
$ACADVER
  1
AC1014
  9
$HANDSEED
  5
FFFF
  9
$MEASUREMENT
 70
     1
  0
ENDSEC
  0
SECTION
  2
TABLES
  0
TABLE
  2
VPORT
  5
8
330
0
100
AcDbSymbolTable
 70
     4
  0
VPORT
  5
2E
330
8
100
AcDbSymbolTableRecord
100
AcDbViewportTableRecord
  2
*ACTIVE
 70
     0
 10
0.0
 20
0.0
 11
1.0
 21
1.0
 12
210.0
 22
148.5
 13
0.0
 23
0.0
 14
10.0
 24
10.0
 15
10.0
 25
10.0
 16
0.0
 26
0.0
 36
1.0
 17
0.0
 27
0.0
 37
0.0
 40
341.0
 41
1.24
 42
50.0
 43
0.0
 44
0.0
 50
0.0
 51
0.0
 71
     0
 72
   100
 73
     1
 74
     3
 75
     0
 76
     0
 77
     0
 78
     0
  0
ENDTAB
  0
TABLE
  2
LTYPE
  5
5
330
0
100
AcDbSymbolTable
 70
     1
  0
LTYPE
  5
14
330
5
100
AcDbSymbolTableRecord
100
AcDbLinetypeTableRecord
  2
BYBLOCK
 70
     0
  3

 72
    65
 73
     0
 40
0.0
  0
LTYPE
  5
15
330
5
100
AcDbSymbolTableRecord
100
AcDbLinetypeTableRecord
  2
BYLAYER
 70
     0
  3

 72
    65
 73
     0
 40
0.0
  0
LTYPE
  5
16
330
5
100
AcDbSymbolTableRecord
100
AcDbLinetypeTableRecord
  2
CONTINUOUS
 70
     0
  3
Solid line
 72
    65
 73
     0
 40
0.0
  0
ENDTAB
  0
TABLE
  2
LAYER
  5
2
100
AcDbSymbolTable
 70
1
  0
LAYER
  5
50
100
AcDbSymbolTableRecord
100
AcDbLayerTableRecord
  2
0
 70
0
  6
CONTINUOUS
  0
ENDTAB
  0
TABLE
  2
STYLE
  5
3
330
0
100
AcDbSymbolTable
 70
     1
  0
STYLE
  5
11
330
3
100
AcDbSymbolTableRecord
100
AcDbTextStyleTableRecord
  2
STANDARD
 70
     0
 40
0.0
 41
1.0
 50
0.0
 71
     0
 42
2.5
  3
txt
  4

  0
ENDTAB
  0
TABLE
  2
VIEW
  5
6
330
0
100
AcDbSymbolTable
 70
     0
  0
ENDTAB
  0
TABLE
  2
UCS
  5
7
330
0
100
AcDbSymbolTable
 70
     0
  0
ENDTAB
  0
TABLE
  2
APPID
  5
9
330
0
100
AcDbSymbolTable
 70
     2
  0
APPID
  5
12
330
9
100
AcDbSymbolTableRecord
100
AcDbRegAppTableRecord
  2
ACAD
 70
     0
  0
ENDTAB
  0
TABLE
  2
DIMSTYLE
  5
A
330
0
100
AcDbSymbolTable
 70
     1
  0
DIMSTYLE
105
27
330
A
100
AcDbSymbolTableRecord
100
AcDbDimStyleTableRecord
  2
ISO-25
 70
     0
  3

  4

  5

  6

  7

 40
1.0
 41
2.5
 42
0.625
 43
3.75
 44
1.25
 45
0.0
 46
0.0
 47
0.0
 48
0.0
140
2.5
141
2.5
142
0.0
143
0.03937007874016
144
1.0
145
0.0
146
1.0
147
0.625
 71
     0
 72
     0
 73
     0
 74
     0
 75
     0
 76
     0
 77
     1
 78
     8
170
     0
171
     3
172
     1
173
     0
174
     0
175
     0
176
     0
177
     0
178
     0
270
     2
271
     2
272
     2
273
     2
274
     3
340
11
275
     0
280
     0
281
     0
282
     0
283
     0
284
     8
285
     0
286
     0
287
     3
288
     0
  0
ENDTAB
  0
TABLE
  2
BLOCK_RECORD
  5
1
330
0
100
AcDbSymbolTable
 70
     1
  0
BLOCK_RECORD
  5
1F
330
1
100
AcDbSymbolTableRecord
100
AcDbBlockTableRecord
  2
*MODEL_SPACE
  0
BLOCK_RECORD
  5
1B
330
1
100
AcDbSymbolTableRecord
100
AcDbBlockTableRecord
  2
*PAPER_SPACE
  0
ENDTAB
  0
ENDSEC
  0
SECTION
  2
BLOCKS
  0
BLOCK
  5
20
330
1F
100
AcDbEntity
  8
0
100
AcDbBlockBegin
  2
*MODEL_SPACE
 70
     0
 10
0.0
 20
0.0
 30
0.0
  3
*MODEL_SPACE
  1

  0
ENDBLK
  5
21
330
1F
100
AcDbEntity
  8
0
100
AcDbBlockEnd
  0
BLOCK
  5
1C
330
1B
100
AcDbEntity
 67
     1
  8
0
100
AcDbBlockBegin
  2
*PAPER_SPACE
  1

  0
ENDBLK
  5
1D
330
1B
100
AcDbEntity
 67
     1
  8
0
100
AcDbBlockEnd
  0
ENDSEC
  0
SECTION
  2
ENTITIES
  0
LINE
  5
100
100
AcDbEntity
  8
0
 62
7
100
AcDbLine
 10
26.024452
 20
0.277170
 30
0.0
 11
27.502917
 21
9.206952
 31
0.0
  0
LINE
  5
101
100
AcDbEntity
  8
0
 62
7
100
AcDbLine
 10
27.502917
 20
9.206952
 30
0.0
 11
4.492211
 21
16.498565
 31
0.0
  0
LINE
  5
102
100
AcDbEntity
  8
0
 62
7
100
AcDbLine
 10
4.492211
 20
16.498565
 30
0.0
 11
1.920256
 21
17.365075
 31
0.0
  0
LINE
  5
103
100
AcDbEntity
  8
0
 62
7
100
AcDbLine
 10
1.920256
 20
17.365075
 30
0.0
 11
0.619130
 21
18.705156
 31
0.0
  0
LINE
  5
104
100
AcDbEntity
  8
0
 62
7
100
AcDbLine
 10
0.619130
 20
18.705156
 30
0.0
 11
0.206303
 21
20.333907
 31
0.0
  0
LINE
  5
105
100
AcDbEntity
  8
0
 62
7
100
AcDbLine
 10
0.206303
 20
20.333907
 30
0.0
 11
0.521520
 21
22.010122
 31
0.0
  0
LINE
  5
106
100
AcDbEntity
  8
0
 62
7
100
AcDbLine
 10
0.521520
 20
22.010122
 30
0.0
 11
1.357276
 21
23.407545
 31
0.0
  0
LINE
  5
107
100
AcDbEntity
  8
0
 62
7
100
AcDbLine
 10
1.357276
 20
23.407545
 30
0.0
 11
2.343987
 21
24.686152
 31
0.0
  0
LINE
  5
108
100
AcDbEntity
  8
0
 62
7
100
AcDbLine
 10
2.343987
 20
24.686152
 30
0.0
 11
20.522897
 21
44.420880
 31
0.0
  0
LINE
  5
109
100
AcDbEntity
  8
0
 62
7
100
AcDbLine
 10
20.522897
 20
44.420880
 30
0.0
 11
31.282704
 21
56.062547
 31
0.0
  0
LINE
  5
10a
100
AcDbEntity
  8
0
 62
7
100
AcDbLine
 10
31.282704
 20
56.062547
 30
0.0
 11
39.728807
 21
65.797240
 31
0.0
  0
LINE
  5
10b
100
AcDbEntity
  8
0
 62
7
100
AcDbLine
 10
39.728807
 20
65.797240
 30
0.0
 11
42.041390
 21
70.000599
 31
0.0
  0
LINE
  5
10c
100
AcDbEntity
  8
0
 62
7
100
AcDbLine
 10
42.041390
 20
70.000599
 30
0.0
 11
44.667803
 21
75.527758
 31
0.0
  0
LINE
  5
10d
100
AcDbEntity
  8
0
 62
7
100
AcDbLine
 10
44.667803
 20
75.527758
 30
0.0
 11
46.495918
 21
79.779983
 31
0.0
  0
LINE
  5
10e
100
AcDbEntity
  8
0
 62
7
100
AcDbLine
 10
46.495918
 20
79.779983
 30
0.0
 11
46.719766
 21
82.088676
 31
0.0
  0
LINE
  5
10f
100
AcDbEntity
  8
0
 62
7
100
AcDbLine
 10
46.719766
 20
82.088676
 30
0.0
 11
46.340030
 21
83.064917
 31
0.0
  0
LINE
  5
110
100
AcDbEntity
  8
0
 62
7
100
AcDbLine
 10
46.340030
 20
83.064917
 30
0.0
 11
45.363252
 21
83.332948
 31
0.0
  0
LINE
  5
111
100
AcDbEntity
  8
0
 62
7
100
AcDbLine
 10
45.363252
 20
83.332948
 30
0.0
 11
42.305185
 21
83.446280
 31
0.0
  0
LINE
  5
112
100
AcDbEntity
  8
0
 62
7
100
AcDbLine
 10
42.305185
 20
83.446280
 30
0.0
 11
35.681574
 21
83.958423
 31
0.0
  0
LINE
  5
113
100
AcDbEntity
  8
0
 62
7
100
AcDbLine
 10
35.681574
 20
83.958423
 30
0.0
 11
30.607051
 21
84.957802
 31
0.0
  0
LINE
  5
114
100
AcDbEntity
  8
0
 62
7
100
AcDbLine
 10
30.607051
 20
84.957802
 30
0.0
 11
26.418615
 21
87.153142
 31
0.0
  0
LINE
  5
115
100
AcDbEntity
  8
0
 62
7
100
AcDbLine
 10
26.418615
 20
87.153142
 30
0.0
 11
22.772281
 21
90.400260
 31
0.0
  0
LINE
  5
116
100
AcDbEntity
  8
0
 62
7
100
AcDbLine
 10
22.772281
 20
90.400260
 30
0.0
 11
20.193081
 21
94.127176
 31
0.0
  0
LINE
  5
117
100
AcDbEntity
  8
0
 62
7
100
AcDbLine
 10
20.193081
 20
94.127176
 30
0.0
 11
19.278382
 21
100.133474
 31
0.0
  0
LINE
  5
118
100
AcDbEntity
  8
0
 62
7
100
AcDbLine
 10
19.278382
 20
100.133474
 30
0.0
 11
20.457124
 21
105.790980
 31
0.0
  0
LINE
  5
119
100
AcDbEntity
  8
0
 62
7
100
AcDbLine
 10
20.457124
 20
105.790980
 30
0.0
 11
22.345482
 21
108.553862
 31
0.0
  0
LINE
  5
11a
100
AcDbEntity
  8
0
 62
7
100
AcDbLine
 10
22.345482
 20
108.553862
 30
0.0
 11
25.048293
 21
111.210044
 31
0.0
  0
LINE
  5
11b
100
AcDbEntity
  8
0
 62
7
100
AcDbLine
 10
25.048293
 20
111.210044
 30
0.0
 11
28.850146
 21
113.997707
 31
0.0
  0
LINE
  5
11c
100
AcDbEntity
  8
0
 62
7
100
AcDbLine
 10
28.850146
 20
113.997707
 30
0.0
 11
34.035627
 21
117.155022
 31
0.0
  0
LINE
  5
11d
100
AcDbEntity
  8
0
 62
7
100
AcDbLine
 10
34.035627
 20
117.155022
 30
0.0
 11
38.479913
 21
119.641963
 31
0.0
  0
LINE
  5
11e
100
AcDbEntity
  8
0
 62
7
100
AcDbLine
 10
38.479913
 20
119.641963
 30
0.0
 11
42.891443
 21
121.991479
 31
0.0
  0
LINE
  5
11f
100
AcDbEntity
  8
0
 62
7
100
AcDbLine
 10
42.891443
 20
121.991479
 30
0.0
 11
47.272044
 21
124.204430
 31
0.0
  0
LINE
  5
120
100
AcDbEntity
  8
0
 62
7
100
AcDbLine
 10
47.272044
 20
124.204430
 30
0.0
 11
51.623593
 21
126.281690
 31
0.0
  0
LINE
  5
121
100
AcDbEntity
  8
0
 62
7
100
AcDbLine
 10
51.623593
 20
126.281690
 30
0.0
 11
55.947969
 21
128.224115
 31
0.0
  0
LINE
  5
122
100
AcDbEntity
  8
0
 62
7
100
AcDbLine
 10
55.947969
 20
128.224115
 30
0.0
 11
60.247025
 21
130.032576
 31
0.0
  0
LINE
  5
123
100
AcDbEntity
  8
0
 62
7
100
AcDbLine
 10
60.247025
 20
130.032576
 30
0.0
 11
64.522639
 21
131.707939
 31
0.0
  0
LINE
  5
124
100
AcDbEntity
  8
0
 62
7
100
AcDbLine
 10
64.522639
 20
131.707939
 30
0.0
 11
68.776689
 21
133.251069
 31
0.0
  0
LINE
  5
125
100
AcDbEntity
  8
0
 62
7
100
AcDbLine
 10
68.776689
 20
133.251069
 30
0.0
 11
74.161781
 21
135.611308
 31
0.0
  0
LINE
  5
126
100
AcDbEntity
  8
0
 62
7
100
AcDbLine
 10
74.161781
 20
135.611308
 30
0.0
 11
74.591967
 21
136.182467
 31
0.0
  0
LINE
  5
127
100
AcDbEntity
  8
0
 62
7
100
AcDbLine
 10
74.591967
 20
136.182467
 30
0.0
 11
74.937751
 21
137.110612
 31
0.0
  0
LINE
  5
128
100
AcDbEntity
  8
0
 62
7
100
AcDbLine
 10
74.937751
 20
137.110612
 30
0.0
 11
75.264855
 21
138.635395
 31
0.0
  0
LINE
  5
129
100
AcDbEntity
  8
0
 62
7
100
AcDbLine
 10
75.264855
 20
138.635395
 30
0.0
 11
75.639029
 21
140.996460
 31
0.0
  0
LINE
  5
12a
100
AcDbEntity
  8
0
 62
7
100
AcDbLine
 10
75.639029
 20
140.996460
 30
0.0
 11
76.179043
 21
144.087944
 31
0.0
  0
LINE
  5
12b
100
AcDbEntity
  8
0
 62
7
100
AcDbLine
 10
76.179043
 20
144.087944
 30
0.0
 11
76.862832
 21
146.928678
 31
0.0
  0
LINE
  5
12c
100
AcDbEntity
  8
0
 62
7
100
AcDbLine
 10
76.862832
 20
146.928678
 30
0.0
 11
77.708017
 21
156.435088
 31
0.0
  0
LINE
  5
12d
100
AcDbEntity
  8
0
 62
7
100
AcDbLine
 10
77.708017
 20
156.435088
 30
0.0
 11
78.732114
 21
158.886098
 31
0.0
  0
LINE
  5
12e
100
AcDbEntity
  8
0
 62
7
100
AcDbLine
 10
78.732114
 20
158.886098
 30
0.0
 11
79.790608
 21
163.143096
 31
0.0
  0
LINE
  5
12f
100
AcDbEntity
  8
0
 62
7
100
AcDbLine
 10
79.790608
 20
163.143096
 30
0.0
 11
81.387313
 21
166.054291
 31
0.0
  0
LINE
  5
130
100
AcDbEntity
  8
0
 62
7
100
AcDbLine
 10
81.387313
 20
166.054291
 30
0.0
 11
83.053527
 21
168.200159
 31
0.0
  0
LINE
  5
131
100
AcDbEntity
  8
0
 62
7
100
AcDbLine
 10
83.053527
 20
168.200159
 30
0.0
 11
84.968925
 21
170.318837
 31
0.0
  0
LINE
  5
132
100
AcDbEntity
  8
0
 62
7
100
AcDbLine
 10
84.968925
 20
170.318837
 30
0.0
 11
87.638465
 21
172.905927
 31
0.0
  0
LINE
  5
133
100
AcDbEntity
  8
0
 62
7
100
AcDbLine
 10
87.638465
 20
172.905927
 30
0.0
 11
90.054190
 21
174.819762
 31
0.0
  0
LINE
  5
134
100
AcDbEntity
  8
0
 62
7
100
AcDbLine
 10
90.054190
 20
174.819762
 30
0.0
 11
92.470180
 21
176.235415
 31
0.0
  0
LINE
  5
135
100
AcDbEntity
  8
0
 62
7
100
AcDbLine
 10
92.470180
 20
176.235415
 30
0.0
 11
95.140487
 21
177.327959
 31
0.0
  0
LINE
  5
136
100
AcDbEntity
  8
0
 62
7
100
AcDbLine
 10
95.140487
 20
177.327959
 30
0.0
 11
98.443017
 21
178.177795
 31
0.0
  0
LINE
  5
137
100
AcDbEntity
  8
0
 62
7
100
AcDbLine
 10
98.443017
 20
178.177795
 30
0.0
 11
100.451019
 21
178.303703
 31
0.0
  0
LINE
  5
138
100
AcDbEntity
  8
0
 62
7
100
AcDbLine
 10
100.451019
 20
178.303703
 30
0.0
 11
103.525292
 21
178.329182
 31
0.0
  0
LINE
  5
139
100
AcDbEntity
  8
0
 62
7
100
AcDbLine
 10
103.525292
 20
178.329182
 30
0.0
 11
107.233242
 21
178.256303
 31
0.0
  0
LINE
  5
13a
100
AcDbEntity
  8
0
 62
7
100
AcDbLine
 10
107.233242
 20
178.256303
 30
0.0
 11
109.907201
 21
177.933442
 31
0.0
  0
LINE
  5
13b
100
AcDbEntity
  8
0
 62
7
100
AcDbLine
 10
109.907201
 20
177.933442
 30
0.0
 11
112.300198
 21
177.204250
 31
0.0
  0
LINE
  5
13c
100
AcDbEntity
  8
0
 62
7
100
AcDbLine
 10
112.300198
 20
177.204250
 30
0.0
 11
115.165160
 21
175.912391
 31
0.0
  0
LINE
  5
13d
100
AcDbEntity
  8
0
 62
7
100
AcDbLine
 10
115.165160
 20
175.912391
 30
0.0
 11
117.810411
 21
174.198629
 31
0.0
  0
LINE
  5
13e
100
AcDbEntity
  8
0
 62
7
100
AcDbLine
 10
117.810411
 20
174.198629
 30
0.0
 11
121.374190
 21
170.920846
 31
0.0
  0
LINE
  5
13f
100
AcDbEntity
  8
0
 62
7
100
AcDbLine
 10
121.374190
 20
170.920846
 30
0.0
 11
123.519643
 21
168.667120
 31
0.0
  0
LINE
  5
140
100
AcDbEntity
  8
0
 62
7
100
AcDbLine
 10
123.519643
 20
168.667120
 30
0.0
 11
125.353417
 21
166.445014
 31
0.0
  0
LINE
  5
141
100
AcDbEntity
  8
0
 62
7
100
AcDbLine
 10
125.353417
 20
166.445014
 30
0.0
 11
127.066142
 21
162.685131
 31
0.0
  0
LINE
  5
142
100
AcDbEntity
  8
0
 62
7
100
AcDbLine
 10
127.066142
 20
162.685131
 30
0.0
 11
128.200175
 21
159.217330
 31
0.0
  0
LINE
  5
143
100
AcDbEntity
  8
0
 62
7
100
AcDbLine
 10
128.200175
 20
159.217330
 30
0.0
 11
129.270415
 21
156.741341
 31
0.0
  0
LINE
  5
144
100
AcDbEntity
  8
0
 62
7
100
AcDbLine
 10
129.270415
 20
156.741341
 30
0.0
 11
130.143302
 21
147.185308
 31
0.0
  0
LINE
  5
145
100
AcDbEntity
  8
0
 62
7
100
AcDbLine
 10
130.143302
 20
147.185308
 30
0.0
 11
130.847490
 21
144.249443
 31
0.0
  0
LINE
  5
146
100
AcDbEntity
  8
0
 62
7
100
AcDbLine
 10
130.847490
 20
144.249443
 30
0.0
 11
131.411582
 21
140.996457
 31
0.0
  0
LINE
  5
147
100
AcDbEntity
  8
0
 62
7
100
AcDbLine
 10
131.411582
 20
140.996457
 30
0.0
 11
131.944797
 21
137.888833
 31
0.0
  0
LINE
  5
148
100
AcDbEntity
  8
0
 62
7
100
AcDbLine
 10
131.944797
 20
137.888833
 30
0.0
 11
132.582390
 21
136.056610
 31
0.0
  0
LINE
  5
149
100
AcDbEntity
  8
0
 62
7
100
AcDbLine
 10
132.582390
 20
136.056610
 30
0.0
 11
133.600506
 21
135.021573
 31
0.0
  0
LINE
  5
14a
100
AcDbEntity
  8
0
 62
7
100
AcDbLine
 10
133.600506
 20
135.021573
 30
0.0
 11
135.275293
 21
134.305505
 31
0.0
  0
LINE
  5
14b
100
AcDbEntity
  8
0
 62
7
100
AcDbLine
 10
135.275293
 20
134.305505
 30
0.0
 11
140.390588
 21
132.464182
 31
0.0
  0
LINE
  5
14c
100
AcDbEntity
  8
0
 62
7
100
AcDbLine
 10
140.390588
 20
132.464182
 30
0.0
 11
144.800293
 21
130.890083
 31
0.0
  0
LINE
  5
14d
100
AcDbEntity
  8
0
 62
7
100
AcDbLine
 10
144.800293
 20
130.890083
 30
0.0
 11
148.151690
 21
129.474795
 31
0.0
  0
LINE
  5
14e
100
AcDbEntity
  8
0
 62
7
100
AcDbLine
 10
148.151690
 20
129.474795
 30
0.0
 11
152.354597
 21
127.649771
 31
0.0
  0
LINE
  5
14f
100
AcDbEntity
  8
0
 62
7
100
AcDbLine
 10
152.354597
 20
127.649771
 30
0.0
 11
158.081133
 21
125.055822
 31
0.0
  0
LINE
  5
150
100
AcDbEntity
  8
0
 62
7
100
AcDbLine
 10
158.081133
 20
125.055822
 30
0.0
 11
165.473750
 21
121.281173
 31
0.0
  0
LINE
  5
151
100
AcDbEntity
  8
0
 62
7
100
AcDbLine
 10
165.473750
 20
121.281173
 30
0.0
 11
172.985800
 21
117.146564
 31
0.0
  0
LINE
  5
152
100
AcDbEntity
  8
0
 62
7
100
AcDbLine
 10
172.985800
 20
117.146564
 30
0.0
 11
179.070634
 21
113.472729
 31
0.0
  0
LINE
  5
153
100
AcDbEntity
  8
0
 62
7
100
AcDbLine
 10
179.070634
 20
113.472729
 30
0.0
 11
183.542199
 21
109.860150
 31
0.0
  0
LINE
  5
154
100
AcDbEntity
  8
0
 62
7
100
AcDbLine
 10
183.542199
 20
109.860150
 30
0.0
 11
186.581362
 21
105.819272
 31
0.0
  0
LINE
  5
155
100
AcDbEntity
  8
0
 62
7
100
AcDbLine
 10
186.581362
 20
105.819272
 30
0.0
 11
187.772225
 21
100.133471
 31
0.0
  0
LINE
  5
156
100
AcDbEntity
  8
0
 62
7
100
AcDbLine
 10
187.772225
 20
100.133471
 30
0.0
 11
186.852321
 21
94.127173
 31
0.0
  0
LINE
  5
157
100
AcDbEntity
  8
0
 62
7
100
AcDbLine
 10
186.852321
 20
94.127173
 30
0.0
 11
182.617321
 21
88.774390
 31
0.0
  0
LINE
  5
158
100
AcDbEntity
  8
0
 62
7
100
AcDbLine
 10
182.617321
 20
88.774390
 30
0.0
 11
176.727114
 21
85.049909
 31
0.0
  0
LINE
  5
159
100
AcDbEntity
  8
0
 62
7
100
AcDbLine
 10
176.727114
 20
85.049909
 30
0.0
 11
174.348335
 21
84.446294
 31
0.0
  0
LINE
  5
15a
100
AcDbEntity
  8
0
 62
7
100
AcDbLine
 10
174.348335
 20
84.446294
 30
0.0
 11
171.218727
 21
83.963948
 31
0.0
  0
LINE
  5
15b
100
AcDbEntity
  8
0
 62
7
100
AcDbLine
 10
171.218727
 20
83.963948
 30
0.0
 11
164.560694
 21
83.123028
 31
0.0
  0
LINE
  5
15c
100
AcDbEntity
  8
0
 62
7
100
AcDbLine
 10
164.560694
 20
83.123028
 30
0.0
 11
159.213697
 21
82.195801
 31
0.0
  0
LINE
  5
15d
100
AcDbEntity
  8
0
 62
7
100
AcDbLine
 10
159.213697
 20
82.195801
 30
0.0
 11
155.402750
 21
81.228809
 31
0.0
  0
LINE
  5
15e
100
AcDbEntity
  8
0
 62
7
100
AcDbLine
 10
155.402750
 20
81.228809
 30
0.0
 11
153.352870
 21
80.268594
 31
0.0
  0
LINE
  5
15f
100
AcDbEntity
  8
0
 62
7
100
AcDbLine
 10
153.352870
 20
80.268594
 30
0.0
 11
152.474598
 21
78.106136
 31
0.0
  0
LINE
  5
160
100
AcDbEntity
  8
0
 62
7
100
AcDbLine
 10
152.474598
 20
78.106136
 30
0.0
 11
153.850736
 21
74.083340
 31
0.0
  0
LINE
  5
161
100
AcDbEntity
  8
0
 62
7
100
AcDbLine
 10
153.850736
 20
74.083340
 30
0.0
 11
158.913922
 21
62.706275
 31
0.0
  0
LINE
  5
162
100
AcDbEntity
  8
0
 62
7
100
AcDbLine
 10
158.913922
 20
62.706275
 30
0.0
 11
163.431881
 21
51.858339
 31
0.0
  0
LINE
  5
163
100
AcDbEntity
  8
0
 62
7
100
AcDbLine
 10
163.431881
 20
51.858339
 30
0.0
 11
166.686494
 21
43.744449
 31
0.0
  0
LINE
  5
164
100
AcDbEntity
  8
0
 62
7
100
AcDbLine
 10
166.686494
 20
43.744449
 30
0.0
 11
171.303314
 21
32.102783
 31
0.0
  0
LINE
  5
165
100
AcDbEntity
  8
0
 62
7
100
AcDbLine
 10
171.303314
 20
32.102783
 30
0.0
 11
174.221192
 21
24.870839
 31
0.0
  0
LINE
  5
166
100
AcDbEntity
  8
0
 62
7
100
AcDbLine
 10
174.221192
 20
24.870839
 30
0.0
 11
181.534699
 21
4.854853
 31
0.0
  0
LINE
  5
167
100
AcDbEntity
  8
0
 62
7
100
AcDbLine
 10
181.534699
 20
4.854853
 30
0.0
 11
180.611576
 21
2.980439
 31
0.0
  0
LINE
  5
168
100
AcDbEntity
  8
0
 62
7
100
AcDbLine
 10
180.611576
 20
2.980439
 30
0.0
 11
179.139490
 21
2.161450
 31
0.0
  0
LINE
  5
169
100
AcDbEntity
  8
0
 62
7
100
AcDbLine
 10
179.139490
 20
2.161450
 30
0.0
 11
177.603311
 21
1.868900
 31
0.0
  0
LINE
  5
16a
100
AcDbEntity
  8
0
 62
7
100
AcDbLine
 10
177.603311
 20
1.868900
 30
0.0
 11
176.487899
 21
1.573808
 31
0.0
  0
LINE
  5
16b
100
AcDbEntity
  8
0
 62
7
100
AcDbLine
 10
176.487899
 20
1.573808
 30
0.0
 11
151.033498
 21
1.626209
 31
0.0
  0
LINE
  5
16c
100
AcDbEntity
  8
0
 62
7
100
AcDbLine
 10
151.033498
 20
1.626209
 30
0.0
 11
120.089505
 21
0.721924
 31
0.0
  0
LINE
  5
16d
100
AcDbEntity
  8
0
 62
7
100
AcDbLine
 10
120.089505
 20
0.721924
 30
0.0
 11
86.211699
 21
0.000003
 31
0.0
  0
LINE
  5
16e
100
AcDbEntity
  8
0
 62
7
100
AcDbLine
 10
86.211699
 20
0.000003
 30
0.0
 11
56.327514
 21
0.005400
 31
0.0
  0
LINE
  5
16f
100
AcDbEntity
  8
0
 62
7
100
AcDbLine
 10
56.327514
 20
0.005400
 30
0.0
 11
26.024452
 21
0.277164
 31
0.0
  0
LINE
  5
170
100
AcDbEntity
  8
0
 62
7
100
AcDbLine
 10
26.024452
 20
0.277164
 30
0.0
 11
26.024452
 21
0.277170
 31
0.0
  0
LINE
  5
171
100
AcDbEntity
  8
0
 62
7
100
AcDbLine
 10
224.461938
 20
0.277170
 30
0.0
 11
223.874894
 21
0.909497
 31
0.0
  0
LINE
  5
172
100
AcDbEntity
  8
0
 62
7
100
AcDbLine
 10
223.874894
 20
0.909497
 30
0.0
 11
223.603870
 21
1.881841
 31
0.0
  0
LINE
  5
173
100
AcDbEntity
  8
0
 62
7
100
AcDbLine
 10
223.603870
 20
1.881841
 30
0.0
 11
223.645254
 21
3.230774
 31
0.0
  0
LINE
  5
174
100
AcDbEntity
  8
0
 62
7
100
AcDbLine
 10
223.645254
 20
3.230774
 30
0.0
 11
223.995425
 21
4.992867
 31
0.0
  0
LINE
  5
175
100
AcDbEntity
  8
0
 62
7
100
AcDbLine
 10
223.995425
 20
4.992867
 30
0.0
 11
231.459929
 21
25.223618
 31
0.0
  0
LINE
  5
176
100
AcDbEntity
  8
0
 62
7
100
AcDbLine
 10
231.459929
 20
25.223618
 30
0.0
 11
234.195906
 21
32.102785
 31
0.0
  0
LINE
  5
177
100
AcDbEntity
  8
0
 62
7
100
AcDbLine
 10
234.195906
 20
32.102785
 30
0.0
 11
238.796666
 21
43.744452
 31
0.0
  0
LINE
  5
178
100
AcDbEntity
  8
0
 62
7
100
AcDbLine
 10
238.796666
 20
43.744452
 30
0.0
 11
242.056201
 21
51.858342
 31
0.0
  0
LINE
  5
179
100
AcDbEntity
  8
0
 62
7
100
AcDbLine
 10
242.056201
 20
51.858342
 30
0.0
 11
251.533480
 21
73.906955
 31
0.0
  0
LINE
  5
17a
100
AcDbEntity
  8
0
 62
7
100
AcDbLine
 10
251.533480
 20
73.906955
 30
0.0
 11
253.037436
 21
77.510858
 31
0.0
  0
LINE
  5
17b
100
AcDbEntity
  8
0
 62
7
100
AcDbLine
 10
253.037436
 20
77.510858
 30
0.0
 11
252.937122
 21
79.171232
 31
0.0
  0
LINE
  5
17c
100
AcDbEntity
  8
0
 62
7
100
AcDbLine
 10
252.937122
 20
79.171232
 30
0.0
 11
251.341782
 21
80.603324
 31
0.0
  0
LINE
  5
17d
100
AcDbEntity
  8
0
 62
7
100
AcDbLine
 10
251.341782
 20
80.603324
 30
0.0
 11
247.690672
 21
81.874226
 31
0.0
  0
LINE
  5
17e
100
AcDbEntity
  8
0
 62
7
100
AcDbLine
 10
247.690672
 20
81.874226
 30
0.0
 11
241.958276
 21
82.990429
 31
0.0
  0
LINE
  5
17f
100
AcDbEntity
  8
0
 62
7
100
AcDbLine
 10
241.958276
 20
82.990429
 30
0.0
 11
234.119044
 21
83.958423
 31
0.0
  0
LINE
  5
180
100
AcDbEntity
  8
0
 62
7
100
AcDbLine
 10
234.119044
 20
83.958423
 30
0.0
 11
229.044524
 21
84.957802
 31
0.0
  0
LINE
  5
181
100
AcDbEntity
  8
0
 62
7
100
AcDbLine
 10
229.044524
 20
84.957802
 30
0.0
 11
224.856088
 21
87.153142
 31
0.0
  0
LINE
  5
182
100
AcDbEntity
  8
0
 62
7
100
AcDbLine
 10
224.856088
 20
87.153142
 30
0.0
 11
221.209756
 21
90.400257
 31
0.0
  0
LINE
  5
183
100
AcDbEntity
  8
0
 62
7
100
AcDbLine
 10
221.209756
 20
90.400257
 30
0.0
 11
218.630548
 21
94.127176
 31
0.0
  0
LINE
  5
184
100
AcDbEntity
  8
0
 62
7
100
AcDbLine
 10
218.630548
 20
94.127176
 30
0.0
 11
217.730649
 21
96.571111
 31
0.0
  0
LINE
  5
185
100
AcDbEntity
  8
0
 62
7
100
AcDbLine
 10
217.730649
 20
96.571111
 30
0.0
 11
217.715859
 21
100.133474
 31
0.0
  0
LINE
  5
186
100
AcDbEntity
  8
0
 62
7
100
AcDbLine
 10
217.715859
 20
100.133474
 30
0.0
 11
218.894604
 21
105.790980
 31
0.0
  0
LINE
  5
187
100
AcDbEntity
  8
0
 62
7
100
AcDbLine
 10
218.894604
 20
105.790980
 30
0.0
 11
220.782962
 21
108.553862
 31
0.0
  0
LINE
  5
188
100
AcDbEntity
  8
0
 62
7
100
AcDbLine
 10
220.782962
 20
108.553862
 30
0.0
 11
223.485787
 21
111.210044
 31
0.0
  0
LINE
  5
189
100
AcDbEntity
  8
0
 62
7
100
AcDbLine
 10
223.485787
 20
111.210044
 30
0.0
 11
227.287638
 21
113.997707
 31
0.0
  0
LINE
  5
18a
100
AcDbEntity
  8
0
 62
7
100
AcDbLine
 10
227.287638
 20
113.997707
 30
0.0
 11
232.473101
 21
117.155022
 31
0.0
  0
LINE
  5
18b
100
AcDbEntity
  8
0
 62
7
100
AcDbLine
 10
232.473101
 20
117.155022
 30
0.0
 11
236.917386
 21
119.641963
 31
0.0
  0
LINE
  5
18c
100
AcDbEntity
  8
0
 62
7
100
AcDbLine
 10
236.917386
 20
119.641963
 30
0.0
 11
241.328917
 21
121.991479
 31
0.0
  0
LINE
  5
18d
100
AcDbEntity
  8
0
 62
7
100
AcDbLine
 10
241.328917
 20
121.991479
 30
0.0
 11
245.709551
 21
124.204430
 31
0.0
  0
LINE
  5
18e
100
AcDbEntity
  8
0
 62
7
100
AcDbLine
 10
245.709551
 20
124.204430
 30
0.0
 11
250.061101
 21
126.281690
 31
0.0
  0
LINE
  5
18f
100
AcDbEntity
  8
0
 62
7
100
AcDbLine
 10
250.061101
 20
126.281690
 30
0.0
 11
254.385477
 21
128.224115
 31
0.0
  0
LINE
  5
190
100
AcDbEntity
  8
0
 62
7
100
AcDbLine
 10
254.385477
 20
128.224115
 30
0.0
 11
258.684533
 21
130.032576
 31
0.0
  0
LINE
  5
191
100
AcDbEntity
  8
0
 62
7
100
AcDbLine
 10
258.684533
 20
130.032576
 30
0.0
 11
262.960147
 21
131.707939
 31
0.0
  0
LINE
  5
192
100
AcDbEntity
  8
0
 62
7
100
AcDbLine
 10
262.960147
 20
131.707939
 30
0.0
 11
267.214194
 21
133.251069
 31
0.0
  0
LINE
  5
193
100
AcDbEntity
  8
0
 62
7
100
AcDbLine
 10
267.214194
 20
133.251069
 30
0.0
 11
272.356160
 21
134.962986
 31
0.0
  0
LINE
  5
194
100
AcDbEntity
  8
0
 62
7
100
AcDbLine
 10
272.356160
 20
134.962986
 30
0.0
 11
275.323594
 21
136.422962
 31
0.0
  0
LINE
  5
195
100
AcDbEntity
  8
0
 62
7
100
AcDbLine
 10
275.323594
 20
136.422962
 30
0.0
 11
275.536081
 21
139.552258
 31
0.0
  0
LINE
  5
196
100
AcDbEntity
  8
0
 62
7
100
AcDbLine
 10
275.536081
 20
139.552258
 30
0.0
 11
273.783666
 21
140.864301
 31
0.0
  0
LINE
  5
197
100
AcDbEntity
  8
0
 62
7
100
AcDbLine
 10
273.783666
 20
140.864301
 30
0.0
 11
271.479860
 21
141.482701
 31
0.0
  0
LINE
  5
198
100
AcDbEntity
  8
0
 62
7
100
AcDbLine
 10
271.479860
 20
141.482701
 30
0.0
 11
269.686990
 21
142.441003
 31
0.0
  0
LINE
  5
199
100
AcDbEntity
  8
0
 62
7
100
AcDbLine
 10
269.686990
 20
142.441003
 30
0.0
 11
268.520284
 21
144.417864
 31
0.0
  0
LINE
  5
19a
100
AcDbEntity
  8
0
 62
7
100
AcDbLine
 10
268.520284
 20
144.417864
 30
0.0
 11
269.384916
 21
148.468540
 31
0.0
  0
LINE
  5
19b
100
AcDbEntity
  8
0
 62
7
100
AcDbLine
 10
269.384916
 20
148.468540
 30
0.0
 11
270.696349
 21
150.802313
 31
0.0
  0
LINE
  5
19c
100
AcDbEntity
  8
0
 62
7
100
AcDbLine
 10
270.696349
 20
150.802313
 30
0.0
 11
273.861507
 21
157.666676
 31
0.0
  0
LINE
  5
19d
100
AcDbEntity
  8
0
 62
7
100
AcDbLine
 10
273.861507
 20
157.666676
 30
0.0
 11
278.695471
 21
168.646935
 31
0.0
  0
LINE
  5
19e
100
AcDbEntity
  8
0
 62
7
100
AcDbLine
 10
278.695471
 20
168.646935
 30
0.0
 11
279.228395
 21
178.771372
 31
0.0
  0
LINE
  5
19f
100
AcDbEntity
  8
0
 62
7
100
AcDbLine
 10
279.228395
 20
178.771372
 30
0.0
 11
279.927900
 21
182.021318
 31
0.0
  0
LINE
  5
1a0
100
AcDbEntity
  8
0
 62
7
100
AcDbLine
 10
279.927900
 20
182.021318
 30
0.0
 11
281.283863
 21
184.402161
 31
0.0
  0
LINE
  5
1a1
100
AcDbEntity
  8
0
 62
7
100
AcDbLine
 10
281.283863
 20
184.402161
 30
0.0
 11
283.137931
 21
186.078317
 31
0.0
  0
LINE
  5
1a2
100
AcDbEntity
  8
0
 62
7
100
AcDbLine
 10
283.137931
 20
186.078317
 30
0.0
 11
285.631444
 21
188.087979
 31
0.0
  0
LINE
  5
1a3
100
AcDbEntity
  8
0
 62
7
100
AcDbLine
 10
285.631444
 20
188.087979
 30
0.0
 11
288.019361
 21
189.171746
 31
0.0
  0
LINE
  5
1a4
100
AcDbEntity
  8
0
 62
7
100
AcDbLine
 10
288.019361
 20
189.171746
 30
0.0
 11
290.678477
 21
190.024191
 31
0.0
  0
LINE
  5
1a5
100
AcDbEntity
  8
0
 62
7
100
AcDbLine
 10
290.678477
 20
190.024191
 30
0.0
 11
293.979127
 21
190.830216
 31
0.0
  0
LINE
  5
1a6
100
AcDbEntity
  8
0
 62
7
100
AcDbLine
 10
293.979127
 20
190.830216
 30
0.0
 11
296.364796
 21
191.164315
 31
0.0
  0
LINE
  5
1a7
100
AcDbEntity
  8
0
 62
7
100
AcDbLine
 10
296.364796
 20
191.164315
 30
0.0
 11
298.773906
 21
191.290223
 31
0.0
  0
LINE
  5
1a8
100
AcDbEntity
  8
0
 62
7
100
AcDbLine
 10
298.773906
 20
191.290223
 30
0.0
 11
301.962797
 21
191.353342
 31
0.0
  0
LINE
  5
1a9
100
AcDbEntity
  8
0
 62
7
100
AcDbLine
 10
301.962797
 20
191.353342
 30
0.0
 11
305.785365
 21
191.300126
 31
0.0
  0
LINE
  5
1aa
100
AcDbEntity
  8
0
 62
7
100
AcDbLine
 10
305.785365
 20
191.300126
 30
0.0
 11
309.662701
 21
191.091875
 31
0.0
  0
LINE
  5
1ab
100
AcDbEntity
  8
0
 62
7
100
AcDbLine
 10
309.662701
 20
191.091875
 30
0.0
 11
312.227599
 21
190.878420
 31
0.0
  0
LINE
  5
1ac
100
AcDbEntity
  8
0
 62
7
100
AcDbLine
 10
312.227599
 20
190.878420
 30
0.0
 11
315.243267
 21
190.402411
 31
0.0
  0
LINE
  5
1ad
100
AcDbEntity
  8
0
 62
7
100
AcDbLine
 10
315.243267
 20
190.402411
 30
0.0
 11
318.482772
 21
189.305398
 31
0.0
  0
LINE
  5
1ae
100
AcDbEntity
  8
0
 62
7
100
AcDbLine
 10
318.482772
 20
189.305398
 30
0.0
 11
321.530825
 21
187.402911
 31
0.0
  0
LINE
  5
1af
100
AcDbEntity
  8
0
 62
7
100
AcDbLine
 10
321.530825
 20
187.402911
 30
0.0
 11
323.790869
 21
185.378402
 31
0.0
  0
LINE
  5
1b0
100
AcDbEntity
  8
0
 62
7
100
AcDbLine
 10
323.790869
 20
185.378402
 30
0.0
 11
325.624644
 21
182.239430
 31
0.0
  0
LINE
  5
1b1
100
AcDbEntity
  8
0
 62
7
100
AcDbLine
 10
325.624644
 20
182.239430
 30
0.0
 11
326.602253
 21
178.959343
 31
0.0
  0
LINE
  5
1b2
100
AcDbEntity
  8
0
 62
7
100
AcDbLine
 10
326.602253
 20
178.959343
 30
0.0
 11
326.724464
 21
168.429154
 31
0.0
  0
LINE
  5
1b3
100
AcDbEntity
  8
0
 62
7
100
AcDbLine
 10
326.724464
 20
168.429154
 30
0.0
 11
330.949516
 21
157.580612
 31
0.0
  0
LINE
  5
1b4
100
AcDbEntity
  8
0
 62
7
100
AcDbLine
 10
330.949516
 20
157.580612
 30
0.0
 11
333.281130
 21
152.047712
 31
0.0
  0
LINE
  5
1b5
100
AcDbEntity
  8
0
 62
7
100
AcDbLine
 10
333.281130
 20
152.047712
 30
0.0
 11
334.402143
 21
149.713711
 31
0.0
  0
LINE
  5
1b6
100
AcDbEntity
  8
0
 62
7
100
AcDbLine
 10
334.402143
 20
149.713711
 30
0.0
 11
335.849229
 21
145.970534
 31
0.0
  0
LINE
  5
1b7
100
AcDbEntity
  8
0
 62
7
100
AcDbLine
 10
335.849229
 20
145.970534
 30
0.0
 11
335.278919
 21
143.860120
 31
0.0
  0
LINE
  5
1b8
100
AcDbEntity
  8
0
 62
7
100
AcDbLine
 10
335.278919
 20
143.860120
 30
0.0
 11
333.414850
 21
142.536221
 31
0.0
  0
LINE
  5
1b9
100
AcDbEntity
  8
0
 62
7
100
AcDbLine
 10
333.414850
 20
142.536221
 30
0.0
 11
331.286013
 21
141.925198
 31
0.0
  0
LINE
  5
1ba
100
AcDbEntity
  8
0
 62
7
100
AcDbLine
 10
331.286013
 20
141.925198
 30
0.0
 11
328.834384
 21
140.604869
 31
0.0
  0
LINE
  5
1bb
100
AcDbEntity
  8
0
 62
7
100
AcDbLine
 10
328.834384
 20
140.604869
 30
0.0
 11
328.102440
 21
137.677413
 31
0.0
  0
LINE
  5
1bc
100
AcDbEntity
  8
0
 62
7
100
AcDbLine
 10
328.102440
 20
137.677413
 30
0.0
 11
330.417200
 21
135.750934
 31
0.0
  0
LINE
  5
1bd
100
AcDbEntity
  8
0
 62
7
100
AcDbLine
 10
330.417200
 20
135.750934
 30
0.0
 11
333.712798
 21
134.305505
 31
0.0
  0
LINE
  5
1be
100
AcDbEntity
  8
0
 62
7
100
AcDbLine
 10
333.712798
 20
134.305505
 30
0.0
 11
338.828093
 21
132.464182
 31
0.0
  0
LINE
  5
1bf
100
AcDbEntity
  8
0
 62
7
100
AcDbLine
 10
338.828093
 20
132.464182
 30
0.0
 11
343.237798
 21
130.890083
 31
0.0
  0
LINE
  5
1c0
100
AcDbEntity
  8
0
 62
7
100
AcDbLine
 10
343.237798
 20
130.890083
 30
0.0
 11
346.589195
 21
129.474795
 31
0.0
  0
LINE
  5
1c1
100
AcDbEntity
  8
0
 62
7
100
AcDbLine
 10
346.589195
 20
129.474795
 30
0.0
 11
350.792102
 21
127.649771
 31
0.0
  0
LINE
  5
1c2
100
AcDbEntity
  8
0
 62
7
100
AcDbLine
 10
350.792102
 20
127.649771
 30
0.0
 11
356.518638
 21
125.055822
 31
0.0
  0
LINE
  5
1c3
100
AcDbEntity
  8
0
 62
7
100
AcDbLine
 10
356.518638
 20
125.055822
 30
0.0
 11
363.911255
 21
121.281173
 31
0.0
  0
LINE
  5
1c4
100
AcDbEntity
  8
0
 62
7
100
AcDbLine
 10
363.911255
 20
121.281173
 30
0.0
 11
371.423305
 21
117.146564
 31
0.0
  0
LINE
  5
1c5
100
AcDbEntity
  8
0
 62
7
100
AcDbLine
 10
371.423305
 20
117.146564
 30
0.0
 11
377.508140
 21
113.472729
 31
0.0
  0
LINE
  5
1c6
100
AcDbEntity
  8
0
 62
7
100
AcDbLine
 10
377.508140
 20
113.472729
 30
0.0
 11
381.979704
 21
109.860150
 31
0.0
  0
LINE
  5
1c7
100
AcDbEntity
  8
0
 62
7
100
AcDbLine
 10
381.979704
 20
109.860150
 30
0.0
 11
385.018867
 21
105.819272
 31
0.0
  0
LINE
  5
1c8
100
AcDbEntity
  8
0
 62
7
100
AcDbLine
 10
385.018867
 20
105.819272
 30
0.0
 11
386.209730
 21
100.133471
 31
0.0
  0
LINE
  5
1c9
100
AcDbEntity
  8
0
 62
7
100
AcDbLine
 10
386.209730
 20
100.133471
 30
0.0
 11
386.194913
 21
96.570312
 31
0.0
  0
LINE
  5
1ca
100
AcDbEntity
  8
0
 62
7
100
AcDbLine
 10
386.194913
 20
96.570312
 30
0.0
 11
385.289906
 21
94.127173
 31
0.0
  0
LINE
  5
1cb
100
AcDbEntity
  8
0
 62
7
100
AcDbLine
 10
385.289906
 20
94.127173
 30
0.0
 11
381.054906
 21
88.774390
 31
0.0
  0
LINE
  5
1cc
100
AcDbEntity
  8
0
 62
7
100
AcDbLine
 10
381.054906
 20
88.774390
 30
0.0
 11
375.164698
 21
85.049909
 31
0.0
  0
LINE
  5
1cd
100
AcDbEntity
  8
0
 62
7
100
AcDbLine
 10
375.164698
 20
85.049909
 30
0.0
 11
372.785909
 21
84.446294
 31
0.0
  0
LINE
  5
1ce
100
AcDbEntity
  8
0
 62
7
100
AcDbLine
 10
372.785909
 20
84.446294
 30
0.0
 11
369.656311
 21
83.963948
 31
0.0
  0
LINE
  5
1cf
100
AcDbEntity
  8
0
 62
7
100
AcDbLine
 10
369.656311
 20
83.963948
 30
0.0
 11
364.244259
 21
83.452251
 31
0.0
  0
LINE
  5
1d0
100
AcDbEntity
  8
0
 62
7
100
AcDbLine
 10
364.244259
 20
83.452251
 30
0.0
 11
361.298097
 21
83.127761
 31
0.0
  0
LINE
  5
1d1
100
AcDbEntity
  8
0
 62
7
100
AcDbLine
 10
361.298097
 20
83.127761
 30
0.0
 11
359.037048
 21
82.459603
 31
0.0
  0
LINE
  5
1d2
100
AcDbEntity
  8
0
 62
7
100
AcDbLine
 10
359.037048
 20
82.459603
 30
0.0
 11
355.680385
 21
80.916913
 31
0.0
  0
LINE
  5
1d3
100
AcDbEntity
  8
0
 62
7
100
AcDbLine
 10
355.680385
 20
80.916913
 30
0.0
 11
359.245248
 21
76.554752
 31
0.0
  0
LINE
  5
1d4
100
AcDbEntity
  8
0
 62
7
100
AcDbLine
 10
359.245248
 20
76.554752
 30
0.0
 11
366.551400
 21
71.165895
 31
0.0
  0
LINE
  5
1d5
100
AcDbEntity
  8
0
 62
7
100
AcDbLine
 10
366.551400
 20
71.165895
 30
0.0
 11
384.884882
 21
57.693227
 31
0.0
  0
LINE
  5
1d6
100
AcDbEntity
  8
0
 62
7
100
AcDbLine
 10
384.884882
 20
57.693227
 30
0.0
 11
395.061207
 21
49.133284
 31
0.0
  0
LINE
  5
1d7
100
AcDbEntity
  8
0
 62
7
100
AcDbLine
 10
395.061207
 20
49.133284
 30
0.0
 11
395.779762
 21
47.340076
 31
0.0
  0
LINE
  5
1d8
100
AcDbEntity
  8
0
 62
7
100
AcDbLine
 10
395.779762
 20
47.340076
 30
0.0
 11
395.625563
 21
45.599253
 31
0.0
  0
LINE
  5
1d9
100
AcDbEntity
  8
0
 62
7
100
AcDbLine
 10
395.625563
 20
45.599253
 30
0.0
 11
394.266292
 21
43.953229
 31
0.0
  0
LINE
  5
1da
100
AcDbEntity
  8
0
 62
7
100
AcDbLine
 10
394.266292
 20
43.953229
 30
0.0
 11
392.624473
 21
42.159600
 31
0.0
  0
LINE
  5
1db
100
AcDbEntity
  8
0
 62
7
100
AcDbLine
 10
392.624473
 20
42.159600
 30
0.0
 11
369.740899
 21
32.102783
 31
0.0
  0
LINE
  5
1dc
100
AcDbEntity
  8
0
 62
7
100
AcDbLine
 10
369.740899
 20
32.102783
 30
0.0
 11
372.658777
 21
24.870839
 31
0.0
  0
LINE
  5
1dd
100
AcDbEntity
  8
0
 62
7
100
AcDbLine
 10
372.658777
 20
24.870839
 30
0.0
 11
379.972283
 21
4.854853
 31
0.0
  0
LINE
  5
1de
100
AcDbEntity
  8
0
 62
7
100
AcDbLine
 10
379.972283
 20
4.854853
 30
0.0
 11
380.305288
 21
3.188105
 31
0.0
  0
LINE
  5
1df
100
AcDbEntity
  8
0
 62
7
100
AcDbLine
 10
380.305288
 20
3.188105
 30
0.0
 11
380.332434
 21
1.877811
 31
0.0
  0
LINE
  5
1e0
100
AcDbEntity
  8
0
 62
7
100
AcDbLine
 10
380.332434
 20
1.877811
 30
0.0
 11
380.052373
 21
0.911617
 31
0.0
  0
LINE
  5
1e1
100
AcDbEntity
  8
0
 62
7
100
AcDbLine
 10
380.052373
 20
0.911617
 30
0.0
 11
379.463728
 21
0.277167
 31
0.0
  0
LINE
  5
1e2
100
AcDbEntity
  8
0
 62
7
100
AcDbLine
 10
379.463728
 20
0.277167
 30
0.0
 11
349.146923
 21
0.005405
 31
0.0
  0
LINE
  5
1e3
100
AcDbEntity
  8
0
 62
7
100
AcDbLine
 10
349.146923
 20
0.005405
 30
0.0
 11
318.527090
 21
0.721924
 31
0.0
  0
LINE
  5
1e4
100
AcDbEntity
  8
0
 62
7
100
AcDbLine
 10
318.527090
 20
0.721924
 30
0.0
 11
314.668830
 21
8.878808
 31
0.0
  0
LINE
  5
1e5
100
AcDbEntity
  8
0
 62
7
100
AcDbLine
 10
314.668830
 20
8.878808
 30
0.0
 11
305.430215
 21
28.839589
 31
0.0
  0
LINE
  5
1e6
100
AcDbEntity
  8
0
 62
7
100
AcDbLine
 10
305.430215
 20
28.839589
 30
0.0
 11
303.691532
 21
31.144052
 31
0.0
  0
LINE
  5
1e7
100
AcDbEntity
  8
0
 62
7
100
AcDbLine
 10
303.691532
 20
31.144052
 30
0.0
 11
301.829156
 21
31.686056
 31
0.0
  0
LINE
  5
1e8
100
AcDbEntity
  8
0
 62
7
100
AcDbLine
 10
301.829156
 20
31.686056
 30
0.0
 11
300.033641
 21
30.804827
 31
0.0
  0
LINE
  5
1e9
100
AcDbEntity
  8
0
 62
7
100
AcDbLine
 10
300.033641
 20
30.804827
 30
0.0
 11
298.495565
 21
28.839589
 31
0.0
  0
LINE
  5
1ea
100
AcDbEntity
  8
0
 62
7
100
AcDbLine
 10
298.495565
 20
28.839589
 30
0.0
 11
289.256923
 21
8.878808
 31
0.0
  0
LINE
  5
1eb
100
AcDbEntity
  8
0
 62
7
100
AcDbLine
 10
289.256923
 20
8.878808
 30
0.0
 11
285.406336
 21
0.793753
 31
0.0
  0
LINE
  5
1ec
100
AcDbEntity
  8
0
 62
7
100
AcDbLine
 10
285.406336
 20
0.793753
 30
0.0
 11
284.649284
 21
0.000003
 31
0.0
  0
LINE
  5
1ed
100
AcDbEntity
  8
0
 62
7
100
AcDbLine
 10
284.649284
 20
0.000003
 30
0.0
 11
254.765101
 21
0.005400
 31
0.0
  0
LINE
  5
1ee
100
AcDbEntity
  8
0
 62
7
100
AcDbLine
 10
254.765101
 20
0.005400
 30
0.0
 11
224.462020
 21
0.277164
 31
0.0
  0
LINE
  5
1ef
100
AcDbEntity
  8
0
 62
7
100
AcDbLine
 10
224.462020
 20
0.277164
 30
0.0
 11
224.461999
 21
0.277164
 31
0.0
  0
LINE
  5
1f0
100
AcDbEntity
  8
0
 62
7
100
AcDbLine
 10
224.461999
 20
0.277164
 30
0.0
 11
224.461978
 21
0.277167
 31
0.0
  0
LINE
  5
1f1
100
AcDbEntity
  8
0
 62
7
100
AcDbLine
 10
224.461978
 20
0.277167
 30
0.0
 11
224.461959
 21
0.277167
 31
0.0
  0
LINE
  5
1f2
100
AcDbEntity
  8
0
 62
7
100
AcDbLine
 10
224.461959
 20
0.277167
 30
0.0
 11
224.461938
 21
0.277170
 31
0.0
  0
ENDSEC
  0
SECTION
  2
OBJECTS
  0
DICTIONARY
  5
C
330
0
100
AcDbDictionary
  3
ACAD_GROUP
350
D
  3
ACAD_MLINESTYLE
350
17
  0
DICTIONARY
  5
D
330
C
100
AcDbDictionary
  0
DICTIONARY
  5
1A
330
C
100
AcDbDictionary
  0
DICTIONARY
  5
17
330
C
100
AcDbDictionary
  3
STANDARD
350
18
  0
DICTIONARY
  5
19
330
C
100
AcDbDictionary
  0
ENDSEC
  0
EOF
