<?xml version="1.0" encoding="UTF-8" standalone="no"?>
<!-- Created with Inkscape (http://www.inkscape.org/) -->

<svg
   xmlns:dc="http://purl.org/dc/elements/1.1/"
   xmlns:cc="http://creativecommons.org/ns#"
   xmlns:rdf="http://www.w3.org/1999/02/22-rdf-syntax-ns#"
   xmlns:svg="http://www.w3.org/2000/svg"
   xmlns="http://www.w3.org/2000/svg"
   xmlns:sodipodi="http://sodipodi.sourceforge.net/DTD/sodipodi-0.dtd"
   xmlns:inkscape="http://www.inkscape.org/namespaces/inkscape"
   version="1.1"
   id="svg80"
   width="1663.0781"
   height="798.30194"
   viewBox="0 0 1663.0781 798.30194"
   sodipodi:docname="meeple_space_knights.svg"
   inkscape:version="0.92.2 2405546, 2018-03-11">
  <metadata
     id="metadata86">
    <rdf:RDF>
      <cc:Work
         rdf:about="">
        <dc:format>image/svg+xml</dc:format>
        <dc:type
           rdf:resource="http://purl.org/dc/dcmitype/StillImage" />
      </cc:Work>
    </rdf:RDF>
  </metadata>
  <defs
     id="defs84" />
  <sodipodi:namedview
     pagecolor="#ffffff"
     bordercolor="#666666"
     borderopacity="1"
     objecttolerance="10"
     gridtolerance="10"
     guidetolerance="10"
     inkscape:pageopacity="0"
     inkscape:pageshadow="2"
     inkscape:window-width="1920"
     inkscape:window-height="1015"
     id="namedview82"
     showgrid="true"
     inkscape:zoom="0.81621112"
     inkscape:cx="828.25353"
     inkscape:cy="401.98646"
     inkscape:window-x="1280"
     inkscape:window-y="0"
     inkscape:window-maximized="1"
     inkscape:current-layer="svg80"
     showguides="true">
    <inkscape:grid
       type="xygrid"
       id="grid60"
       originx="677.46868"
       originy="-38.118446" />
  </sodipodi:namedview>
  <path
     style="fill:#000000;stroke-width:1.33333337"
     d="m 39.98932,775.37283 c -3.76063,-2.39123 -4.29973,-7.8408 -1.76314,-17.82311 3.27394,-12.88401 20.4428,-59.41619 28.2123,-76.46268 1.3369,-2.93333 5.9903,-14.63333 10.3407,-26 4.3505,-11.36667 12.1754,-31.16667 17.3887,-44 5.2132,-12.83334 10.757,-26.63334 12.3195,-30.66667 6.5845,-16.99753 25.3821,-60.7297 35.8195,-83.33334 6.476,-14.02484 6.9136,-15.6658 5.3051,-19.89648 -2.9025,-7.6339 -26.2672,-13.57776 -71.1233,-18.09332 -15.4918,-1.55952 -23.98313,-4.48812 -35.00961,-12.07453 -9.76614,-6.71928 -19.14111,-17.2214 -23.52958,-26.35855 -3.89406,-8.10776 -4.0234,-8.95707 -3.45713,-22.70097 0.51962,-12.61151 1.03963,-15.10738 4.45509,-21.3827 1.98551,-3.64803 4.30478,-7.07881 7.1371,-10.44239 2.83232,-3.36357 6.17768,-6.65993 10.21535,-10.03911 4.03767,-3.37919 8.76765,-6.84119 14.36921,-10.53605 5.60157,-3.69485 12.07467,-7.62256 19.59867,-11.93316 5.6206,-3.22009 11.2193,-6.35306 16.7973,-9.39946 5.5781,-3.04641 11.1355,-6.00624 16.6735,-8.88006 5.5379,-2.87381 11.0564,-5.6616 16.5566,-8.36391 5.5001,-2.70232 10.982,-5.31915 16.4468,-7.85106 5.4647,-2.5319 10.9124,-4.97887 16.3441,-7.34145 5.4317,-2.36259 10.8474,-4.64078 16.2484,-6.83513 5.401,-2.19436 10.7872,-4.30487 16.1598,-6.33208 5.3726,-2.02722 10.7317,-3.97113 16.0783,-5.8323 9.5333,-3.31855 18.6922,-7.33283 20.3531,-8.92059 0.6228,-0.59533 1.1509,-1.26458 1.6259,-2.15871 0.475,-0.89412 0.8968,-2.01312 1.3069,-3.50795 0.41,-1.49484 0.8083,-3.3655 1.2363,-5.76296 0.4279,-2.39746 0.8855,-5.32171 1.4142,-8.92371 0.5971,-4.06838 1.2737,-7.95535 2.041,-11.68435 0.7672,-3.72901 1.625,-7.30006 2.5844,-10.73663 0.9595,-3.43658 2.0206,-6.73867 3.1944,-9.92974 1.1738,-3.19108 2.4603,-6.27114 3.8706,-9.26366 1.4103,-2.99252 2.9443,-5.89749 4.6132,-8.7384 1.6689,-2.84091 3.4726,-5.61774 5.4222,-8.35398 1.9496,-2.73623 4.0451,-5.43187 6.2975,-8.11037 2.2525,-2.67851 4.6619,-5.33988 7.2393,-8.0076 3.6298,-3.75695 6.9396,-6.97951 10.0896,-9.77798 3.1499,-2.79847 6.14,-5.17284 9.1303,-7.23339 2.9902,-2.06056 5.9806,-3.80729 9.1313,-5.3505 3.1506,-1.54321 6.4614,-2.88288 10.0925,-4.1293 5.1268,-1.75987 8.2438,-2.70589 12.482,-3.21198 2.119,-0.25304 4.5184,-0.39608 7.5893,-0.47587 3.071,-0.0798 6.8136,-0.0963 11.6193,-0.0963 5.6389,0 10.1523,0.059 14.0143,0.27545 3.862,0.21645 7.0726,0.59038 10.1063,1.22026 3.0337,0.62989 5.8904,1.51573 9.0444,2.756 3.1539,1.24028 6.6052,2.83499 10.8282,4.88262 3.2602,1.58083 6.3397,3.53642 9.9978,6.47721 3.6581,2.9408 7.8948,6.86681 13.4694,12.38847 2.9113,2.88367 5.6083,5.7108 8.1088,8.51802 2.5006,2.80722 4.8049,5.59452 6.9308,8.39851 2.1259,2.804 4.0734,5.62469 5.8607,8.49869 1.7872,2.874 3.4141,5.80131 4.8987,8.81854 1.4846,3.01723 2.8269,6.12438 4.045,9.35807 1.218,3.23369 2.3117,6.59391 3.2991,10.11729 0.9875,3.52338 1.8686,7.2099 2.6615,11.09618 0.793,3.88629 1.4976,7.97233 2.132,12.29475 0.722,4.91934 1.3358,8.73405 2.0153,11.74535 0.6796,3.0113 1.4249,5.2192 2.4098,6.92494 0.985,1.70573 2.2097,2.9093 3.848,3.91195 1.6384,1.00265 3.6903,1.80437 6.3299,2.7064 3.3,1.12772 12,4.25943 19.3334,6.95933 7.3333,2.69992 14.8333,5.37712 16.6666,5.94935 1.8334,0.57223 7.5334,2.97932 12.6667,5.34912 5.1333,2.3698 12.2816,5.47377 15.885,6.89773 5.5155,2.17955 13.0548,5.61985 21.6436,9.8039 8.5888,4.18405 18.2271,9.11184 27.9406,14.26639 9.7135,5.15454 19.5023,10.53583 28.392,15.62687 8.8897,5.09104 16.8804,9.89183 22.9978,13.88536 6.4954,4.24028 12.149,8.81216 16.9004,13.65384 4.7514,4.84168 8.6005,9.95315 11.4866,15.27261 3.4658,6.38798 3.9798,8.84206 4.5009,21.48964 0.5671,13.76357 0.4418,14.58161 -3.4768,22.70097 -6.6712,13.82248 -23.2561,28.69091 -38.2685,34.30777 -3.8334,1.43428 -13.202,3.28127 -20.8191,4.10442 -36.4777,3.94207 -62.0097,9.22307 -67.5245,13.96669 -4.9597,4.26611 -4.5194,9.7363 1.8817,23.37734 9.8287,20.94577 29.1311,65.72071 36.2122,84 1.5625,4.03333 7.0979,17.83333 12.3009,30.66667 5.203,12.83333 13.0553,32.63333 17.4494,44 4.3942,11.36667 9.3569,23.66667 11.0282,27.33333 6.3697,13.97439 24.4157,63.36364 27.6416,75.65097 2.4464,9.31826 1.8242,14.91941 -1.9221,17.30149 -0.8708,0.55369 -52.4332,1.01591 -114.5832,1.02713 -112.0897,0.0203 -113.022,-0.001 -115.7285,-2.7081 -3.0976,-3.09754 -10.2782,-18.27835 -14.5824,-30.82917 -2.9359,-8.56084 -15.6777,-36.0907 -34.9176,-75.44232 -8.1075,-16.58231 -11.1827,-21.66667 -13.1049,-21.66667 -1.9221,0 -4.9973,5.08436 -13.1048,21.66667 -19.2399,39.35162 -31.9818,66.88148 -34.9177,75.44232 -4.2309,12.3371 -11.2681,27.11311 -14.5534,30.55769 l -2.8613,3 -112.9481,-0.0204 c -62.1214,-0.0107 -113.66047,-0.47344 -114.53126,-1.02714 z"
     id="path195-3"
     inkscape:connector-curvature="0"
     sodipodi:nodetypes="csccccccsssssssscsssssssscssscssssssscsssssssssscssssssssscssssccscssscsccccccccsccscscccsccccccc" />
  <path
     style="fill:#000000;stroke-width:1.33333337"
     d="m 789.98926,775.37283 c -3.7607,-2.39123 -4.2998,-7.8408 -1.7632,-17.82311 3.274,-12.88401 20.4428,-59.41619 28.2123,-76.46268 1.3369,-2.93333 5.9903,-14.63333 10.3407,-26 4.3505,-11.36667 12.1754,-31.16667 17.3887,-44 5.2132,-12.83334 10.757,-26.63334 12.3195,-30.66667 6.5845,-16.99753 25.3822,-60.7297 35.81962,-83.33334 6.476,-14.02484 6.9136,-15.6658 5.3051,-19.89648 -2.9025,-7.6339 -26.26722,-13.57776 -71.12342,-18.09332 -15.4918,-1.55952 -23.9831,-4.48812 -35.0096,-12.07453 -9.7661,-6.71928 -19.1411,-17.2214 -23.5296,-26.35855 -3.894,-8.10776 -4.0234,-8.95707 -3.4571,-22.70097 0.5196,-12.61151 1.0396,-15.10738 4.4551,-21.3827 1.9855,-3.64803 4.3048,-7.07881 7.1371,-10.44239 2.8323,-3.36357 6.1777,-6.65993 10.2154,-10.03911 4.0376,-3.37919 8.7676,-6.84119 14.3692,-10.53605 5.6015,-3.69485 12.0746,-7.62256 19.5986,-11.93316 5.6206,-3.22009 11.2193,-6.35306 16.7973,-9.39946 5.5781,-3.04641 11.1355,-6.00624 16.6735,-8.88006 5.5379,-2.87381 11.0564,-5.6616 16.5567,-8.36391 5.5001,-2.70232 10.982,-5.31915 16.4468,-7.85106 5.46472,-2.5319 10.91242,-4.97887 16.34412,-7.34145 5.4317,-2.36259 10.8474,-4.64078 16.2484,-6.83513 5.401,-2.19436 10.7872,-4.30487 16.1598,-6.33208 5.3726,-2.02722 10.7317,-3.97113 16.0783,-5.8323 9.5333,-3.31855 18.6922,-7.33283 20.3531,-8.92059 0.6228,-0.59533 1.1509,-1.26458 1.6259,-2.15871 0.475,-0.89412 0.8968,-2.01312 1.3069,-3.50795 0.41,-1.49484 0.8083,-3.3655 1.2363,-5.76296 0.4279,-2.39746 0.8855,-5.32171 1.4142,-8.92371 0.5971,-4.06838 1.2737,-7.95535 2.041,-11.68435 0.7672,-3.72901 1.625,-7.30006 2.5844,-10.73663 0.9595,-3.43657 2.0206,-6.73866 3.1944,-9.92973 1.1738,-3.19108 2.4603,-6.27114 3.8706,-9.26366 1.4103,-2.99252 2.9443,-5.89749 4.6132,-8.7384 1.6689,-2.84092 3.4726,-5.61775 5.4222,-8.35399 1.94962,-2.73623 4.04512,-5.43187 6.29752,-8.11037 2.2525,-2.67851 4.6619,-5.33988 7.2393,-8.0076 3.6298,-3.75695 6.9396,-6.97951 10.0896,-9.77798 3.1499,-2.79847 6.14,-5.17284 9.1303,-7.23339 2.9902,-2.06056 5.9806,-3.80729 9.1313,-5.3505 3.1506,-1.54321 6.4614,-2.88288 10.0925,-4.1293 5.1268,-1.75987 8.2438,-2.70589 12.482,-3.21198 2.119,-0.25304 4.5184,-0.39608 7.5893,-0.47587 3.071,-0.0798 6.8136,-0.0963 11.6193,-0.0963 5.6389,0 10.1523,0.059 14.0143,0.27545 3.862,0.21645 7.0726,0.59038 10.1063,1.22026 3.0337,0.62989 5.8904,1.51573 9.0444,2.756 3.1539,1.24028 6.6052,2.83499 10.8282,4.88262 3.2602,1.58083 6.3397,3.53642 9.9978,6.47721 3.6581,2.9408 7.8948,6.86681 13.4694,12.38847 2.9113,2.88367 5.6083,5.7108 8.1088,8.51802 2.5006,2.80722 4.8049,5.59452 6.9308,8.39851 2.1259,2.804 4.0734,5.62469 5.8607,8.4987 1.7872,2.874 3.4141,5.80131 4.8987,8.81854 1.4846,3.01723 2.8269,6.12438 4.045,9.35807 1.218,3.23369 2.3117,6.59391 3.2991,10.11729 0.9875,3.52337 1.8686,7.20989 2.6615,11.09617 0.793,3.88629 1.4976,7.97233 2.132,12.29475 0.722,4.91934 1.3358,8.73405 2.0153,11.74535 0.6796,3.0113 1.4249,5.2192 2.4098,6.92494 0.985,1.70573 2.2097,2.9093 3.848,3.91195 1.6384,1.00265 3.6903,1.80437 6.3299,2.7064 3.3,1.12772 12,4.25943 19.3334,6.95933 7.3333,2.69992 14.8333,5.37712 16.6666,5.94935 1.8334,0.57223 7.5334,2.97932 12.6667,5.34912 5.1333,2.3698 12.2816,5.47377 15.885,6.89773 5.5155,2.17955 13.0548,5.61985 21.6436,9.8039 8.5888,4.18405 18.2271,9.11184 27.9406,14.26639 9.7135,5.15454 19.5023,10.53583 28.392,15.62687 8.8897,5.09104 16.8804,9.89183 22.9978,13.88536 6.4954,4.24028 12.149,8.81216 16.9004,13.65384 4.7514,4.84168 8.6005,9.95315 11.4866,15.27261 3.4658,6.38798 3.9798,8.84206 4.5009,21.48964 0.5671,13.76357 0.4418,14.58161 -3.4768,22.70097 -6.6712,13.82248 -23.2561,28.69091 -38.2685,34.30777 -3.8334,1.43428 -13.202,3.28127 -20.8191,4.10442 -36.4777,3.94207 -62.0097,9.22307 -67.5245,13.96669 -4.9597,4.26611 -4.5194,9.7363 1.8817,23.37734 9.8287,20.94577 29.1311,65.72071 36.2122,84 1.5625,4.03333 7.0979,17.83333 12.3009,30.66667 5.203,12.83333 13.0553,32.63333 17.4494,44 4.3942,11.36667 9.3569,23.66667 11.0282,27.33333 6.3697,13.97439 24.4157,63.36364 27.6416,75.65097 2.4464,9.31826 1.8242,14.91941 -1.9221,17.30149 -0.8708,0.55369 -52.4332,1.01591 -114.5832,1.02713 -112.0897,0.0203 -113.022,-0.001 -115.7285,-2.7081 -3.0976,-3.09754 -10.2782,-18.27835 -14.5824,-30.82917 -2.9359,-8.56084 -15.6777,-36.0907 -34.9176,-75.44232 -8.1075,-16.58231 -11.1827,-21.66667 -13.1049,-21.66667 -1.9221,0 -4.9973,5.08436 -13.1048,21.66667 -19.2399,39.35162 -31.9818,66.88148 -34.9177,75.44232 -4.2309,12.3371 -11.2681,27.11311 -14.5534,30.55769 l -2.8613,3 -112.94812,-0.0204 c -62.12152,-0.0107 -113.66052,-0.47344 -114.53132,-1.02714 z"
     id="path195-3-6"
     inkscape:connector-curvature="0"
     sodipodi:nodetypes="csccccccsssssssscsssssssscssscssssssscsssssssssscssssssssscssssccscssscsccccccccsccscscccsccccccc" />
  <path
     style="fill:none;fill-opacity:1;stroke:#000000;stroke-width:1.76440978;stroke-opacity:1"
     d="m 1015.2727,43.695656 -151.08413,88.258674 -151.08405,88.25868 -151.08411,88.25865 -151.08415,88.25869 16.26628,27.84503 16.26614,27.84501 151.08413,-88.2587 151.08412,-88.25865 151.08407,-88.25866 151.0841,-88.258673 -16.2663,-27.845038 z"
     id="rect49"
     inkscape:connector-curvature="0"
     sodipodi:nodetypes="ccccccccccccc" />
  <path
     style="fill:none;fill-opacity:1;stroke:#000000;stroke-width:1.76440978;stroke-opacity:1"
     d="M 1015.7424,395.5624 864.67395,307.27692 713.60557,218.99145 562.53714,130.7059 411.46868,42.420387 l -16.2711,27.842167 -16.2711,27.842092 151.0683,88.285514 151.06851,88.28554 151.06839,88.28546 151.06842,88.28549 16.2711,-27.84213 z"
     id="rect49-7"
     inkscape:connector-curvature="0"
     sodipodi:nodetypes="ccccccccccccc" />
</svg>
