<?xml version="1.0" encoding="UTF-8" standalone="no"?>
<!-- Created with Inkscape (http://www.inkscape.org/) -->

<svg
   xmlns:dc="http://purl.org/dc/elements/1.1/"
   xmlns:cc="http://creativecommons.org/ns#"
   xmlns:rdf="http://www.w3.org/1999/02/22-rdf-syntax-ns#"
   xmlns:svg="http://www.w3.org/2000/svg"
   xmlns="http://www.w3.org/2000/svg"
   xmlns:sodipodi="http://sodipodi.sourceforge.net/DTD/sodipodi-0.dtd"
   xmlns:inkscape="http://www.inkscape.org/namespaces/inkscape"
   version="1.1"
   id="svg80"
   width="1663.0781"
   height="798.30194"
   viewBox="0 0 1663.0781 798.30194"
   sodipodi:docname="meeple_space_knights.svg"
   inkscape:version="0.92.2 2405546, 2018-03-11">
  <metadata
     id="metadata86">
    <rdf:RDF>
      <cc:Work
         rdf:about="">
        <dc:format>image/svg+xml</dc:format>
        <dc:type
           rdf:resource="http://purl.org/dc/dcmitype/StillImage" />
      </cc:Work>
    </rdf:RDF>
  </metadata>
  <defs
     id="defs84" />
  <sodipodi:namedview
     pagecolor="#ffffff"
     bordercolor="#666666"
     borderopacity="1"
     objecttolerance="10"
     gridtolerance="10"
     guidetolerance="10"
     inkscape:pageopacity="0"
     inkscape:pageshadow="2"
     inkscape:window-width="1920"
     inkscape:window-height="1015"
     id="namedview82"
     showgrid="false"
     inkscape:zoom="0.57714842"
     inkscape:cx="858.68979"
     inkscape:cy="460.90239"
     inkscape:window-x="1280"
     inkscape:window-y="0"
     inkscape:window-maximized="1"
     inkscape:current-layer="svg80"
     showguides="true">
    <inkscape:grid
       type="xygrid"
       id="grid60"
       originx="677.46868"
       originy="-38.118446" />
  </sodipodi:namedview>
  <path
     style="fill:#000000;stroke-width:1.33333337"
     d="m 171.98932,775.37283 c -3.76063,-2.39123 3.05131,-23.76805 5.5879,-33.75036 3.27394,-12.88401 -96.162823,-21.482 -103.445777,-38.96165 -2.221436,-4.95375 3.352707,-13.6742 8.356907,-19.54241 18.32332,-19.32854 55.34784,-62.16289 68.70769,-74.58795 8.91219,-8.2886 33.00339,-31.16665 40.66699,-44 7.10186,-11.89267 27.2969,-28.47108 31.92228,-36.79254 8.8559,-15.93251 8.22967,-14.17312 18.66707,-36.77676 6.476,-14.02484 9.36395,-20.56649 7.75545,-24.79717 -2.9025,-7.6339 3.13695,-2.5512 -41.71915,-7.06676 -15.4918,-1.55952 -23.98313,-4.48812 -35.00961,-12.07453 -9.76614,-6.71928 -19.14111,-17.2214 -23.52958,-26.35855 -3.89406,-8.10776 -4.0234,-8.95707 -3.45713,-22.70097 0.51962,-12.61151 1.03963,-15.10738 4.45509,-21.3827 1.98551,-3.64803 4.30478,-7.07881 7.1371,-10.44239 2.83232,-3.36357 6.17768,-6.65993 10.21535,-10.03911 4.03767,-3.37919 8.76765,-6.84119 14.36921,-10.53605 5.60157,-3.69485 12.07467,-7.62256 19.59867,-11.93316 5.6206,-3.22009 11.2193,-6.35306 16.7973,-9.39946 5.5781,-3.04641 11.1355,-6.00624 16.6735,-8.88006 5.5379,-2.87381 11.0564,-5.6616 16.5566,-8.36391 5.5001,-2.70232 10.982,-5.31915 16.4468,-7.85106 5.4647,-2.5319 10.9124,-4.97887 16.3441,-7.34145 5.4317,-2.36259 10.8474,-4.64078 16.2484,-6.83513 5.401,-2.19436 10.7872,-4.30487 16.1598,-6.33208 5.3726,-2.02722 10.7317,-3.97113 16.0783,-5.8323 9.5333,-3.31855 18.6922,-7.33283 20.3531,-8.92059 0.6228,-0.59533 1.1509,-1.26458 1.6259,-2.15871 0.475,-0.89412 0.8968,-2.01312 1.3069,-3.50795 0.41,-1.49484 0.8083,-3.3655 1.2363,-5.76296 0.4279,-2.39746 0.8855,-5.32171 1.4142,-8.92371 0.5971,-4.06838 1.2737,-7.95535 2.041,-11.68435 0.7672,-3.72901 1.625,-7.30006 2.5844,-10.73663 0.9595,-3.43658 2.0206,-32.73867 3.1944,-35.92974 1.1738,-3.19108 2.4603,-6.27114 3.8706,-9.26366 1.4103,-2.99252 2.33171,-13.24853 4.00061,-16.08944 1.6689,-2.84091 4.08519,-8.2667 6.03479,-11.00294 1.9496,-2.73623 4.0451,-5.43187 6.2975,-8.11037 2.2525,-2.67851 4.6619,-5.33988 7.2393,-8.0076 3.6298,-3.75695 6.9396,-6.97951 10.0896,-9.77798 3.1499,-2.79847 6.14,-5.17284 9.1303,-7.23339 2.9902,-2.06056 5.9806,-3.80729 9.1313,-5.3505 3.1506,-1.54321 6.4614,-2.88288 10.0925,-4.1293 5.1268,-1.75987 8.2438,-2.70589 12.482,-3.21198 2.119,-0.25304 4.5184,-0.39608 7.5893,-0.47587 3.071,-0.0798 6.8136,-0.0963 11.6193,-0.0963 5.6389,0 10.1523,0.059 14.0143,0.27545 3.862,0.21645 7.0726,0.59038 10.1063,1.22026 3.0337,0.62989 5.8904,1.51573 9.0444,2.756 3.1539,1.24028 6.6052,2.83499 10.8282,4.88262 3.2602,1.58083 6.3397,3.53642 9.9978,6.47721 3.6581,2.9408 7.8948,6.86681 13.4694,12.38847 2.9113,2.88367 5.6083,5.7108 8.1088,8.51802 2.5006,2.80722 4.8049,5.59452 6.9308,8.39851 2.1259,2.804 4.68599,11.33658 6.47329,14.21058 1.7872,2.874 2.80151,10.08942 4.28611,13.10665 1.4846,3.01723 2.8269,6.12438 4.045,9.35807 1.218,3.23369 2.3117,32.59391 3.2991,36.11729 0.9875,3.52338 1.8686,7.2099 2.6615,11.09618 0.793,3.88629 1.4976,7.97233 2.132,12.29475 0.722,4.91934 1.3358,8.73405 2.0153,11.74535 0.6796,3.0113 1.4249,5.2192 2.4098,6.92494 0.985,1.70573 2.2097,2.9093 3.848,3.91195 1.6384,1.00265 3.6903,1.80437 6.3299,2.7064 3.3,1.12772 12,4.25943 19.3334,6.95933 7.3333,2.69992 14.8333,5.37712 16.6666,5.94935 1.8334,0.57223 7.5334,2.97932 12.6667,5.34912 5.1333,2.3698 12.2816,5.47377 15.885,6.89773 5.5155,2.17955 13.0548,5.61985 21.6436,9.8039 8.5888,4.18405 18.2271,9.11184 27.9406,14.26639 9.7135,5.15454 19.5023,10.53583 28.392,15.62687 8.8897,5.09104 16.8804,9.89183 22.9978,13.88536 6.4954,4.24028 12.149,8.81216 16.9004,13.65384 4.7514,4.84168 8.6005,9.95315 11.4866,15.27261 3.4658,6.38798 3.9798,8.84206 4.5009,21.48964 0.5671,13.76357 0.4418,14.58161 -3.4768,22.70097 -6.6712,13.82248 -23.2561,28.69091 -38.2685,34.30777 -3.8334,1.43428 -13.202,3.28127 -20.8191,4.10442 -36.4777,3.94207 -62.0097,9.22307 -67.5245,13.96669 -4.9597,4.26611 -4.5194,9.7363 1.8817,23.37734 9.8287,20.94577 29.1311,65.72071 36.2122,84 1.5625,4.03333 7.0979,17.83333 12.3009,30.66667 5.203,12.83333 13.0553,32.63333 17.4494,44 4.3942,11.36667 9.3569,23.66667 11.0282,27.33333 6.3697,13.97439 29.99942,63.16796 27.6416,75.65097 -2.45429,12.99378 -15.32822,10.01872 -19.07452,12.4008 -0.8708,0.55369 -34.05561,-0.20927 -96.20561,-0.19805 -116.95367,3.41777 -113.12649,3.49654 -116.95367,3.41777 -111.38421,-2.29235 -93.24626,2.7348 -128.0421,2.72852 l -112.9481,-0.0204 c -62.1214,-0.0107 -113.66047,-0.47344 -114.53126,-1.02714 z"
     id="path195-3"
     inkscape:connector-curvature="0"
     sodipodi:nodetypes="csccsssccsssssssscsssssssscssscssssssscsssssssssscssssssssscssssccscssscsccccccccscccccssccc" />
  <path
     style="fill:#000000;stroke-width:1.33333337"
     d="m 921.98926,775.37283 c -3.7607,-2.39123 -4.2998,-7.8408 -1.7632,-17.82311 3.274,-12.88401 20.4428,-59.41619 28.2123,-76.46268 1.3369,-2.93333 5.9903,-14.63333 10.3407,-26 4.3505,-11.36667 12.1754,-31.16667 17.3887,-44 5.2132,-12.83334 10.757,-26.63334 12.3195,-30.66667 6.5845,-16.99753 25.38224,-60.7297 35.81964,-83.33334 6.476,-14.02484 6.9136,-15.6658 5.3051,-19.89648 -2.9025,-7.6339 -26.2672,-13.57776 -71.12344,-18.09332 -15.4918,-1.55952 -23.9831,-4.48812 -35.0096,-12.07453 -9.7661,-6.71928 -19.1411,-17.2214 -23.5296,-26.35855 -3.894,-8.10776 -4.0234,-8.95707 -3.4571,-22.70097 0.5196,-12.61151 1.0396,-15.10738 4.4551,-21.3827 1.9855,-3.64803 4.3048,-7.07881 7.1371,-10.44239 2.8323,-3.36357 6.1777,-6.65993 10.2154,-10.03911 4.0376,-3.37919 8.7676,-6.84119 14.3692,-10.53605 5.6015,-3.69485 12.0746,-7.62256 19.5986,-11.93316 5.6206,-3.22009 11.2193,-6.35306 16.7973,-9.39946 5.5781,-3.04641 11.1355,-6.00624 16.6735,-8.88006 5.5379,-2.87381 11.0564,-5.6616 16.55674,-8.36391 5.5001,-2.70232 10.982,-5.31915 16.4468,-7.85106 5.4647,-2.5319 10.9124,-4.97887 16.3441,-7.34145 5.4317,-2.36259 10.8474,-4.64078 16.2484,-6.83513 5.401,-2.19436 10.7872,-4.30487 16.1598,-6.33208 5.3726,-2.02722 10.7317,-3.97113 16.0783,-5.8323 9.5333,-3.31855 17.7733,-4.88248 19.4342,-6.47024 5.7429,-1.95006 10.3033,-3.10217 11.2155,-5.51802 0.41,-1.49484 6.4394,-5.09816 0.8031,-11.82726 -4.7701,-6.29594 -7.7819,-4.49574 -15.3306,-7.29616 -4.8459,-1.79777 -9.4953,-4.16291 -11.1858,-11.09353 0.8735,-15.55399 5.0993,-17.22832 8.2245,-24.1302 1.4718,-3.25032 10.4944,-22.87737 11.9628,-25.94405 4.6391,-9.68854 16.8598,-38.50767 18.2701,-41.50019 1.4103,-2.99252 1.8162,-34.9767 2.0142,-38.26559 0.4998,-8.30144 0.6942,-9.54702 2.6438,-12.28326 1.9496,-2.73623 2.8725,-6.31996 5.1249,-8.99846 2.2525,-2.67851 4.4301,-3.66737 7.0075,-6.33508 3.6298,-3.75696 6.2743,-4.7971 9.4243,-7.595566 3.1499,-2.798466 5.3077,-2.306069 9.0252,-4.096135 2.9744,-1.432233 6.8899,-2.267343 10.0502,-3.221838 3.7011,-1.117863 8.2508,-2.353603 12.4749,-3.04639 3.1913,-0.523409 6.0643,-0.866329 9.0167,-1.262741 2.115,-0.283992 6.0344,-0.39608 9.1053,-0.47587 3.071,-0.0798 7.2468,-0.238563 12.0525,-0.238563 5.6389,0 10.5855,-0.01532 14.4475,0.201131 3.862,0.21645 9.774,0.453022 14.6545,0.787095 3.235,0.221437 6.4748,0.41926 9.6941,0.806762 3.8187,0.459656 7.6631,0.87908 11.3978,1.799088 4.1838,1.030664 8.3494,2.302056 12.2438,4.14619 4.0912,1.937333 7.9009,4.471811 11.5202,7.190497 3.0564,2.29583 6.0414,4.84447 8.5419,7.65169 2.5006,2.80722 6.9308,11.86383 6.9308,11.86383 l 3.6949,12.39718 0.4619,39.79914 c 0,0 14.7506,37.76867 15.9687,41.00236 1.218,3.23369 7.1804,17.63675 8.8124,20.91175 2.519,5.05484 5.544,10.81266 9.7062,22.96886 -1.422,7.97967 -1.259,8.96395 -9.2008,12.98008 -7.2416,3.08158 -8.4438,0.64356 -17.312,7.2996 -2.6896,5.15535 -3.7513,9.35866 -2.7664,11.0644 0.985,1.70573 7.1104,6.27853 8.7487,7.28118 1.6384,1.00265 9.8162,4.56101 12.4558,5.46304 3.3,1.12772 12,4.25943 19.3334,6.95933 7.3333,2.69992 14.8333,5.37712 16.6666,5.94935 1.8334,0.57223 7.5334,2.97932 12.6667,5.34912 5.1333,2.3698 12.2816,5.47377 15.885,6.89773 5.5155,2.17955 13.0548,5.61985 21.6436,9.8039 8.5888,4.18405 18.2271,9.11184 27.9406,14.26639 9.7135,5.15454 19.5023,10.53583 28.392,15.62687 8.8897,5.09104 16.8804,9.89183 22.9978,13.88536 6.4954,4.24028 12.149,8.81216 16.9004,13.65384 4.7514,4.84168 8.6005,9.95315 11.4866,15.27261 3.4658,6.38798 3.9798,8.84206 4.5009,21.48964 0.5671,13.76357 0.4418,14.58161 -3.4768,22.70097 -6.6712,13.82248 -23.2561,28.69091 -38.2685,34.30777 -3.8334,1.43428 -13.202,3.28127 -20.8191,4.10442 -36.4777,3.94207 -30.1552,0.64686 -52.8224,11.51635 -4.9597,4.26611 27.1933,27.41423 41.0873,36.85424 24.5788,16.69964 36.3785,26.17354 69.2919,50.92032 12.2903,9.24081 38.391,30.15376 41.5246,37.25323 5.926,5.57451 -2.7775,12.88033 -2.7775,12.88033 0,0 -51.3714,32.76921 -95.9842,46.58623 4.3942,11.36667 9.3569,23.66667 11.0282,27.33333 6.3697,13.97439 24.4157,63.36364 27.6416,75.65097 2.4464,9.31826 1.8242,14.91941 -1.9221,17.30149 -0.8708,0.55369 -52.4332,1.01591 -114.5832,1.02713 -112.0897,0.0203 -113.022,-0.001 -115.7285,-2.7081 -3.0976,-3.09754 -10.2782,-18.27835 -14.5824,-30.82917 -2.9359,-8.56084 -15.6777,-36.0907 -34.9176,-75.44232 -8.1301,-16.62372 -19.4275,-12.06508 -26.2097,0 -19.2399,39.35162 -31.9818,66.88148 -34.9177,75.44232 -4.2309,12.3371 -11.2681,27.11311 -14.5534,30.55769 l -2.8613,3 -112.9481,-0.0204 c -62.12154,-0.0107 -113.66054,-0.47344 -114.53134,-1.02714 z"
     id="path195-3-6"
     inkscape:connector-curvature="0"
     sodipodi:nodetypes="csccccccsssssssscsssssssscccscssssssssssssssssssssscccsscccsssccscssscsccccccssccccscscccccccccc" />
  <path
     style="fill:none;fill-opacity:1;stroke:#000000;stroke-width:1.6432066;stroke-opacity:1"
     d="m 1116.4716,-47.165777 -91.187,90.271778 -115.35722,115.164129 -115.35743,115.16412 -115.35746,115.16417 21.3779,21.08253 21.37775,21.08253 115.35744,-115.16417 115.35743,-115.16412 115.35729,-115.164123 92.0367,-96.984448 7.1371,-11.573176 1.6272,-11.767448 -1.477,-10.65097 -5.3445,-5.270633 -5.3443,-5.270635 -11.5314,-3.649885 -15.4851,4.179282 z"
     id="rect49"
     inkscape:connector-curvature="0"
     sodipodi:nodetypes="ccccccccccccccccccc" />
  <path
     style="fill:none;fill-opacity:1;stroke:#000000;stroke-width:1.76440978;stroke-opacity:1"
     d="M 1018.3021,402.49583 888.43473,285.23335 758.56749,167.9709 628.70023,50.708376 l -95.45518,-85.38236 -15.80911,-11.552027 -18.45502,-6.129888 -16.3567,3.752845 -5.4029,5.983694 -5.4029,5.983675 -0.65867,10.444267 1.06842,13.570952 7.75873,15.0362821 105.48997,96.1619899 129.86735,117.262554 129.86724,117.26243 129.86729,117.26247 21.61161,-23.93473 z"
     id="rect49-7"
     inkscape:connector-curvature="0"
     sodipodi:nodetypes="ccccccccccccccccccc" />
</svg>
