  0
SECTION
  2
HEADER
  9
$ACADVER
  1
AC1014
  9
$HANDSEED
  5
FFFF
  9
$MEASUREMENT
 70
     1
  0
ENDSEC
  0
SECTION
  2
TABLES
  0
TABLE
  2
VPORT
  5
8
330
0
100
AcDbSymbolTable
 70
     4
  0
VPORT
  5
2E
330
8
100
AcDbSymbolTableRecord
100
AcDbViewportTableRecord
  2
*ACTIVE
 70
     0
 10
0.0
 20
0.0
 11
1.0
 21
1.0
 12
210.0
 22
148.5
 13
0.0
 23
0.0
 14
10.0
 24
10.0
 15
10.0
 25
10.0
 16
0.0
 26
0.0
 36
1.0
 17
0.0
 27
0.0
 37
0.0
 40
341.0
 41
1.24
 42
50.0
 43
0.0
 44
0.0
 50
0.0
 51
0.0
 71
     0
 72
   100
 73
     1
 74
     3
 75
     0
 76
     0
 77
     0
 78
     0
  0
ENDTAB
  0
TABLE
  2
LTYPE
  5
5
330
0
100
AcDbSymbolTable
 70
     1
  0
LTYPE
  5
14
330
5
100
AcDbSymbolTableRecord
100
AcDbLinetypeTableRecord
  2
BYBLOCK
 70
     0
  3

 72
    65
 73
     0
 40
0.0
  0
LTYPE
  5
15
330
5
100
AcDbSymbolTableRecord
100
AcDbLinetypeTableRecord
  2
BYLAYER
 70
     0
  3

 72
    65
 73
     0
 40
0.0
  0
LTYPE
  5
16
330
5
100
AcDbSymbolTableRecord
100
AcDbLinetypeTableRecord
  2
CONTINUOUS
 70
     0
  3
Solid line
 72
    65
 73
     0
 40
0.0
  0
ENDTAB
  0
TABLE
  2
LAYER
  5
2
100
AcDbSymbolTable
 70
2
  0
LAYER
  5
50
100
AcDbSymbolTableRecord
100
AcDbLayerTableRecord
  2
0
 70
0
  6
CONTINUOUS
  0
LAYER
  5
51
100
AcDbSymbolTableRecord
100
AcDbLayerTableRecord
  2
Calque_1
 70
0
  6
CONTINUOUS
  0
ENDTAB
  0
TABLE
  2
STYLE
  5
3
330
0
100
AcDbSymbolTable
 70
     1
  0
STYLE
  5
11
330
3
100
AcDbSymbolTableRecord
100
AcDbTextStyleTableRecord
  2
STANDARD
 70
     0
 40
0.0
 41
1.0
 50
0.0
 71
     0
 42
2.5
  3
txt
  4

  0
ENDTAB
  0
TABLE
  2
VIEW
  5
6
330
0
100
AcDbSymbolTable
 70
     0
  0
ENDTAB
  0
TABLE
  2
UCS
  5
7
330
0
100
AcDbSymbolTable
 70
     0
  0
ENDTAB
  0
TABLE
  2
APPID
  5
9
330
0
100
AcDbSymbolTable
 70
     2
  0
APPID
  5
12
330
9
100
AcDbSymbolTableRecord
100
AcDbRegAppTableRecord
  2
ACAD
 70
     0
  0
ENDTAB
  0
TABLE
  2
DIMSTYLE
  5
A
330
0
100
AcDbSymbolTable
 70
     1
  0
DIMSTYLE
105
27
330
A
100
AcDbSymbolTableRecord
100
AcDbDimStyleTableRecord
  2
ISO-25
 70
     0
  3

  4

  5

  6

  7

 40
1.0
 41
2.5
 42
0.625
 43
3.75
 44
1.25
 45
0.0
 46
0.0
 47
0.0
 48
0.0
140
2.5
141
2.5
142
0.0
143
0.03937007874016
144
1.0
145
0.0
146
1.0
147
0.625
 71
     0
 72
     0
 73
     0
 74
     0
 75
     0
 76
     0
 77
     1
 78
     8
170
     0
171
     3
172
     1
173
     0
174
     0
175
     0
176
     0
177
     0
178
     0
270
     2
271
     2
272
     2
273
     2
274
     3
340
11
275
     0
280
     0
281
     0
282
     0
283
     0
284
     8
285
     0
286
     0
287
     3
288
     0
  0
ENDTAB
  0
TABLE
  2
BLOCK_RECORD
  5
1
330
0
100
AcDbSymbolTable
 70
     1
  0
BLOCK_RECORD
  5
1F
330
1
100
AcDbSymbolTableRecord
100
AcDbBlockTableRecord
  2
*MODEL_SPACE
  0
BLOCK_RECORD
  5
1B
330
1
100
AcDbSymbolTableRecord
100
AcDbBlockTableRecord
  2
*PAPER_SPACE
  0
ENDTAB
  0
ENDSEC
  0
SECTION
  2
BLOCKS
  0
BLOCK
  5
20
330
1F
100
AcDbEntity
  8
0
100
AcDbBlockBegin
  2
*MODEL_SPACE
 70
     0
 10
0.0
 20
0.0
 30
0.0
  3
*MODEL_SPACE
  1

  0
ENDBLK
  5
21
330
1F
100
AcDbEntity
  8
0
100
AcDbBlockEnd
  0
BLOCK
  5
1C
330
1B
100
AcDbEntity
 67
     1
  8
0
100
AcDbBlockBegin
  2
*PAPER_SPACE
  1

  0
ENDBLK
  5
1D
330
1B
100
AcDbEntity
 67
     1
  8
0
100
AcDbBlockEnd
  0
ENDSEC
  0
SECTION
  2
ENTITIES
  0
LWPOLYLINE
  5
100
100
AcDbEntity
  8
Calque_1
 62
7
100
AcDbPolyline
 90
54
 70
1
 10
118.356946
 20
9.487884
 30
0.0
 10
116.221923
 20
9.944024
 30
0.0
 10
114.243877
 20
10.747214
 30
0.0
 10
112.568830
 20
11.822374
 30
0.0
 10
111.342806
 20
13.094434
 30
0.0
 10
110.537273
 20
16.525614
 30
0.0
 10
112.543200
 20
22.754164
 30
0.0
 10
113.411216
 20
24.284774
 30
0.0
 10
115.855923
 20
28.511844
 30
0.0
 10
120.313783
 20
32.903724
 30
0.0
 10
124.915628
 20
35.277774
 30
0.0
 10
126.417519
 20
35.777294
 30
0.0
 10
128.763890
 20
36.481554
 30
0.0
 10
131.409724
 20
36.911624
 30
0.0
 10
133.263031
 20
37.486294
 30
0.0
 10
136.049625
 20
37.820974
 30
0.0
 10
143.195216
 20
38.068414
 30
0.0
 10
148.278977
 20
38.156714
 30
0.0
 10
154.304097
 20
38.219914
 30
0.0
 10
161.221111
 20
38.257014
 30
0.0
 10
168.980561
 20
38.267014
 30
0.0
 10
175.192421
 20
38.262014
 30
0.0
 10
179.895571
 20
38.248314
 30
0.0
 10
185.755461
 20
38.155814
 30
0.0
 10
188.519561
 20
37.913194
 30
0.0
 10
190.147221
 20
37.444454
 30
0.0
 10
193.249841
 20
36.112444
 30
0.0
 10
195.895681
 20
35.402824
 30
0.0
 10
200.729231
 20
33.778274
 30
0.0
 10
201.080651
 20
33.513694
 30
0.0
 10
206.022221
 20
27.520454
 30
0.0
 10
206.310221
 20
27.163694
 30
0.0
 10
209.407891
 20
22.010524
 30
0.0
 10
209.746771
 20
19.557614
 30
0.0
 10
209.948741
 20
16.599714
 30
0.0
 10
209.015491
 20
14.056764
 30
0.0
 10
207.064231
 20
12.111154
 30
0.0
 10
204.212161
 20
10.945264
 30
0.0
 10
200.229551
 20
10.101774
 30
0.0
 10
197.411421
 20
9.686134
 30
0.0
 10
194.433331
 20
9.578824
 30
0.0
 10
189.970831
 20
9.660324
 30
0.0
 10
186.927301
 20
9.760024
 30
0.0
 10
184.116931
 20
9.899494
 30
0.0
 10
181.852261
 20
10.060234
 30
0.0
 10
180.445831
 20
10.223744
 30
0.0
 10
169.747231
 20
11.449234
 30
0.0
 10
157.666912
 20
11.781924
 30
0.0
 10
146.525015
 20
11.242474
 30
0.0
 10
138.641668
 20
9.851534
 30
0.0
 10
135.353159
 20
9.585854
 30
0.0
 10
129.064421
 20
9.404144
 30
0.0
 10
122.493126
 20
9.355144
 30
0.0
 10
118.356946
 20
9.487634
 30
0.0
  0
LWPOLYLINE
  5
101
100
AcDbEntity
  8
Calque_1
 62
7
100
AcDbPolyline
 90
13
 70
1
 10
105.443907
 20
28.044214
 30
0.0
 10
104.023218
 20
30.895894
 30
0.0
 10
103.834781
 20
38.133624
 30
0.0
 10
104.598167
 20
47.005844
 30
0.0
 10
106.002364
 20
50.094444
 30
0.0
 10
110.066668
 20
44.245094
 30
0.0
 10
113.241668
 20
40.588264
 30
0.0
 10
116.416668
 20
36.964034
 30
0.0
 10
113.759041
 20
34.013814
 30
0.0
 10
111.293678
 20
31.978324
 30
0.0
 10
109.256916
 20
29.614824
 30
0.0
 10
106.548588
 20
27.530794
 30
0.0
 10
106.147327
 20
27.687524
 30
0.0
  0
LWPOLYLINE
  5
102
100
AcDbEntity
  8
Calque_1
 62
7
100
AcDbPolyline
 90
9
 70
1
 10
208.099581
 20
31.627054
 30
0.0
 10
204.257291
 20
36.334154
 30
0.0
 10
206.534211
 20
38.408854
 30
0.0
 10
210.141301
 20
44.097224
 30
0.0
 10
213.278031
 20
50.800004
 30
0.0
 10
215.729511
 20
44.134144
 30
0.0
 10
216.527781
 20
36.881004
 30
0.0
 10
215.982611
 20
30.701944
 30
0.0
 10
213.002611
 20
27.516664
 30
0.0
  0
LWPOLYLINE
  5
103
100
AcDbEntity
  8
Calque_1
 62
7
100
AcDbPolyline
 90
128
 70
1
 10
88.370834
 20
58.898924
 30
0.0
 10
87.745466
 20
59.024414
 30
0.0
 10
86.564302
 20
59.130904
 30
0.0
 10
84.996624
 20
59.207104
 30
0.0
 10
83.211717
 20
59.241804
 30
0.0
 10
77.258334
 20
59.795764
 30
0.0
 10
74.739748
 20
60.324934
 30
0.0
 10
73.108408
 20
60.636554
 30
0.0
 10
68.791667
 20
62.395404
 30
0.0
 10
64.558334
 20
64.386444
 30
0.0
 10
61.647917
 20
65.837714
 30
0.0
 10
61.030556
 20
66.363294
 30
0.0
 10
60.567391
 20
66.674934
 30
0.0
 10
59.090278
 20
67.733264
 30
0.0
 10
57.808238
 20
68.791594
 30
0.0
 10
52.563889
 20
72.630834
 30
0.0
 10
50.094445
 20
74.773764
 30
0.0
 10
45.508334
 20
78.883354
 30
0.0
 10
41.980556
 20
82.070314
 30
0.0
 10
38.224933
 20
85.192664
 30
0.0
 10
30.545000
 20
90.862824
 30
0.0
 10
23.479601
 20
94.191594
 30
0.0
 10
22.754167
 20
94.544374
 30
0.0
 10
21.846616
 20
94.897154
 30
0.0
 10
20.544519
 20
95.224694
 30
0.0
 10
17.811960
 20
95.974674
 30
0.0
 10
14.287500
 20
96.497574
 30
0.0
 10
9.979585
 20
96.925954
 30
0.0
 10
7.905316
 20
97.418674
 30
0.0
 10
7.588983
 20
97.631044
 30
0.0
 10
7.089412
 20
97.719344
 30
0.0
 10
5.842644
 20
98.440744
 30
0.0
 10
5.291667
 20
100.073144
 30
0.0
 10
6.049897
 20
103.249164
 30
0.0
 10
8.425633
 20
108.730444
 30
0.0
 10
9.700360
 20
111.452334
 30
0.0
 10
10.230556
 20
112.689544
 30
0.0
 10
10.483157
 20
113.363534
 30
0.0
 10
11.090475
 20
114.731234
 30
0.0
 10
11.916405
 20
116.823294
 30
0.0
 10
12.694603
 20
119.238794
 30
0.0
 10
13.312536
 20
121.314674
 30
0.0
 10
13.753146
 20
122.590184
 30
0.0
 10
15.077989
 20
127.057194
 30
0.0
 10
17.285010
 20
137.406844
 30
0.0
 10
19.802813
 20
148.505214
 30
0.0
 10
21.720000
 20
154.923774
 30
0.0
 10
22.225000
 20
156.499484
 30
0.0
 10
22.714461
 20
158.561724
 30
0.0
 10
23.617621
 20
162.277684
 30
0.0
 10
25.032697
 20
167.392954
 30
0.0
 10
26.666851
 20
172.861014
 30
0.0
 10
28.383970
 20
179.348264
 30
0.0
 10
29.280556
 20
182.601814
 30
0.0
 10
30.250695
 20
185.110394
 30
0.0
 10
31.328715
 20
186.391774
 30
0.0
 10
31.239575
 20
184.723554
 30
0.0
 10
30.853963
 20
182.001424
 30
0.0
 10
30.338312
 20
179.238314
 30
0.0
 10
29.859050
 20
177.447124
 30
0.0
 10
29.292367
 20
174.801294
 30
0.0
 10
28.402116
 20
170.038794
 30
0.0
 10
27.349218
 20
164.570734
 30
0.0
 10
26.268182
 20
159.102684
 30
0.0
 10
25.508355
 20
155.307054
 30
0.0
 10
25.008249
 20
153.963314
 30
0.0
 10
24.698699
 20
152.290884
 30
0.0
 10
22.891782
 20
139.699904
 30
0.0
 10
22.105368
 20
134.578454
 30
0.0
 10
21.627097
 20
126.913234
 30
0.0
 10
21.880540
 20
119.265864
 30
0.0
 10
22.431569
 20
116.186254
 30
0.0
 10
23.284015
 20
113.558284
 30
0.0
 10
24.451784
 20
111.348664
 30
0.0
 10
25.948786
 20
109.524074
 30
0.0
 10
27.788926
 20
108.051224
 30
0.0
 10
29.986115
 20
106.896804
 30
0.0
 10
32.729351
 20
106.227194
 30
0.0
 10
36.540536
 20
105.881484
 30
0.0
 10
40.612044
 20
105.893884
 30
0.0
 10
44.136247
 20
106.298394
 30
0.0
 10
46.754522
 20
106.797334
 30
0.0
 10
49.388893
 20
107.245394
 30
0.0
 10
51.723841
 20
107.624934
 30
0.0
 10
53.622227
 20
107.959084
 30
0.0
 10
56.837405
 20
108.331534
 30
0.0
 10
60.861998
 20
108.492484
 30
0.0
 10
64.747860
 20
108.430084
 30
0.0
 10
67.546846
 20
108.132574
 30
0.0
 10
69.818330
 20
107.492474
 30
0.0
 10
71.110501
 20
106.507304
 30
0.0
 10
71.738807
 20
104.721934
 30
0.0
 10
72.018703
 20
101.681294
 30
0.0
 10
72.215019
 20
98.910764
 30
0.0
 10
72.490410
 20
96.319294
 30
0.0
 10
73.295739
 20
91.595044
 30
0.0
 10
74.469330
 20
87.351544
 30
0.0
 10
76.045827
 20
83.431804
 30
0.0
 10
79.412616
 20
77.940264
 30
0.0
 10
84.100221
 20
72.733154
 30
0.0
 10
85.440240
 20
71.512044
 30
0.0
 10
86.837303
 20
70.332874
 30
0.0
 10
88.286310
 20
69.200474
 30
0.0
 10
89.782159
 20
68.119664
 30
0.0
 10
91.319751
 20
67.095284
 30
0.0
 10
92.893980
 20
66.132154
 30
0.0
 10
94.499746
 20
65.235114
 30
0.0
 10
96.131949
 20
64.408994
 30
0.0
 10
98.621395
 20
63.257274
 30
0.0
 10
100.873636
 20
62.292594
 30
0.0
 10
102.607726
 20
61.629664
 30
0.0
 10
103.542717
 20
61.383194
 30
0.0
 10
104.025646
 20
61.261744
 30
0.0
 10
104.258857
 20
60.942864
 30
0.0
 10
104.224657
 20
60.494754
 30
0.0
 10
103.905340
 20
59.985644
 30
0.0
 10
103.401787
 20
59.641474
 30
0.0
 10
102.417603
 20
59.416874
 30
0.0
 10
100.603196
 20
59.264784
 30
0.0
 10
97.608977
 20
59.138144
 30
0.0
 10
95.280407
 20
59.046344
 30
0.0
 10
93.161523
 20
58.944354
 30
0.0
 10
91.485999
 20
58.844554
 30
0.0
 10
90.487508
 20
58.759354
 30
0.0
 10
89.883927
 20
58.715054
 30
0.0
 10
89.283654
 20
58.726554
 30
0.0
 10
88.756141
 20
58.789254
 30
0.0
 10
88.370841
 20
58.898684
 30
0.0
  0
LWPOLYLINE
  5
104
100
AcDbEntity
  8
Calque_1
 62
7
100
AcDbPolyline
 90
768
 70
1
 10
117.122223
 20
59.864384
 30
0.0
 10
114.851928
 20
60.726584
 30
0.0
 10
112.654279
 20
61.699394
 30
0.0
 10
110.845575
 20
62.632344
 30
0.0
 10
109.742116
 20
63.374994
 30
0.0
 10
109.184992
 20
64.122244
 30
0.0
 10
109.381533
 20
64.704504
 30
0.0
 10
110.389603
 20
65.172204
 30
0.0
 10
112.267063
 20
65.575774
 30
0.0
 10
114.055653
 20
65.916814
 30
0.0
 10
115.987957
 20
66.389304
 30
0.0
 10
118.376035
 20
67.077024
 30
0.0
 10
121.531946
 20
68.063784
 30
0.0
 10
131.151283
 20
72.199634
 30
0.0
 10
133.039439
 20
73.303064
 30
0.0
 10
134.515369
 20
74.321834
 30
0.0
 10
135.476297
 20
75.199694
 30
0.0
 10
135.819446
 20
75.880434
 30
0.0
 10
135.794766
 20
76.178884
 30
0.0
 10
135.693890
 20
76.378804
 30
0.0
 10
135.476545
 20
76.473804
 30
0.0
 10
135.102459
 20
76.457404
 30
0.0
 10
134.531365
 20
76.323194
 30
0.0
 10
133.722992
 20
76.064774
 30
0.0
 10
132.637071
 20
75.675724
 30
0.0
 10
131.233331
 20
75.149624
 30
0.0
 10
130.602172
 20
74.915664
 30
0.0
 10
129.957680
 20
74.686034
 30
0.0
 10
129.317943
 20
74.466564
 30
0.0
 10
128.701047
 20
74.263104
 30
0.0
 10
126.823608
 20
73.726064
 30
0.0
 10
126.482544
 20
73.653564
 30
0.0
 10
126.053009
 20
73.557764
 30
0.0
 10
125.552368
 20
73.442824
 30
0.0
 10
124.997983
 20
73.312804
 30
0.0
 10
124.407218
 20
73.171814
 30
0.0
 10
123.797436
 20
73.023964
 30
0.0
 10
123.186001
 20
72.873364
 30
0.0
 10
122.590275
 20
72.724124
 30
0.0
 10
120.784705
 20
72.285924
 30
0.0
 10
119.080896
 20
71.910874
 30
0.0
 10
115.940373
 20
71.344504
 30
0.0
 10
113.092325
 20
71.013584
 30
0.0
 10
110.460371
 20
70.906654
 30
0.0
 10
108.344704
 20
70.953954
 30
0.0
 10
106.588297
 20
71.141424
 30
0.0
 10
104.745326
 20
71.542034
 30
0.0
 10
102.369966
 20
72.228754
 30
0.0
 10
100.577209
 20
73.090654
 30
0.0
 10
98.819176
 20
74.496934
 30
0.0
 10
97.258162
 20
76.291104
 30
0.0
 10
96.056468
 20
78.316654
 30
0.0
 10
95.125235
 20
80.556284
 30
0.0
 10
94.350050
 20
82.826074
 30
0.0
 10
93.854975
 20
84.719444
 30
0.0
 10
93.764065
 20
85.829774
 30
0.0
 10
94.059056
 20
86.256424
 30
0.0
 10
94.816067
 20
86.349024
 30
0.0
 10
96.303602
 20
86.087474
 30
0.0
 10
98.790164
 20
85.451524
 30
0.0
 10
102.289053
 20
84.699774
 30
0.0
 10
106.430260
 20
84.184624
 30
0.0
 10
111.422627
 20
83.887494
 30
0.0
 10
117.474993
 20
83.789794
 30
0.0
 10
125.668409
 20
84.001984
 30
0.0
 10
131.722617
 20
84.611974
 30
0.0
 10
133.836259
 20
85.048054
 30
0.0
 10
135.281588
 20
85.561884
 30
0.0
 10
136.014101
 20
86.146214
 30
0.0
 10
135.989291
 20
86.793814
 30
0.0
 10
135.254013
 20
87.067384
 30
0.0
 10
133.389912
 20
86.961794
 30
0.0
 10
129.725529
 20
86.750544
 30
0.0
 10
120.053758
 20
87.107114
 30
0.0
 10
114.215573
 20
87.461384
 30
0.0
 10
109.361668
 20
87.979854
 30
0.0
 10
105.661318
 20
88.639214
 30
0.0
 10
103.283796
 20
89.416154
 30
0.0
 10
102.821413
 20
89.626634
 30
0.0
 10
102.365737
 20
89.799004
 30
0.0
 10
101.969246
 20
89.915474
 30
0.0
 10
101.684421
 20
89.958274
 30
0.0
 10
100.468589
 20
90.310214
 30
0.0
 10
98.651164
 20
91.188984
 30
0.0
 10
96.724633
 20
92.329034
 30
0.0
 10
95.181482
 20
93.464794
 30
0.0
 10
93.979197
 20
94.763614
 30
0.0
 10
93.245780
 20
96.294064
 30
0.0
 10
92.879980
 20
98.390174
 30
0.0
 10
92.780550
 20
101.386014
 30
0.0
 10
92.816710
 20
102.853714
 30
0.0
 10
92.924567
 20
104.308684
 30
0.0
 10
93.103161
 20
105.748614
 30
0.0
 10
93.351536
 20
107.171234
 30
0.0
 10
95.023746
 20
112.642944
 30
0.0
 10
97.736040
 20
117.654944
 30
0.0
 10
101.427281
 20
122.061054
 30
0.0
 10
103.672595
 20
124.609204
 30
0.0
 10
104.422212
 20
126.417984
 30
0.0
 10
102.987049
 20
128.338124
 30
0.0
 10
100.369776
 20
130.164204
 30
0.0
 10
96.217981
 20
131.324184
 30
0.0
 10
91.866067
 20
131.334184
 30
0.0
 10
87.185704
 20
130.177474
 30
0.0
 10
82.048562
 20
127.837974
 30
0.0
 10
76.539469
 20
125.012054
 30
0.0
 10
71.437490
 20
122.584464
 30
0.0
 10
65.733646
 20
120.849424
 30
0.0
 10
63.008391
 20
120.633594
 30
0.0
 10
60.256230
 20
120.834824
 30
0.0
 10
54.706383
 20
122.226814
 30
0.0
 10
50.228934
 20
124.757394
 30
0.0
 10
49.050971
 20
125.593914
 30
0.0
 10
48.397852
 20
125.941854
 30
0.0
 10
47.557036
 20
126.690124
 30
0.0
 10
46.035637
 20
128.510494
 30
0.0
 10
44.336626
 20
130.766334
 30
0.0
 10
42.962978
 20
132.821014
 30
0.0
 10
41.911229
 20
134.888994
 30
0.0
 10
40.908972
 20
137.355414
 30
0.0
 10
39.863878
 20
141.272144
 30
0.0
 10
39.492435
 20
143.100664
 30
0.0
 10
38.912767
 20
150.628684
 30
0.0
 10
39.197298
 20
159.165324
 30
0.0
 10
39.577860
 20
162.807124
 30
0.0
 10
40.033900
 20
166.511294
 30
0.0
 10
40.953228
 20
171.097404
 30
0.0
 10
42.143772
 20
175.683514
 30
0.0
 10
44.108430
 20
182.691384
 30
0.0
 10
44.637597
 20
183.953024
 30
0.0
 10
45.155545
 20
185.280734
 30
0.0
 10
45.477599
 20
186.536224
 30
0.0
 10
46.933859
 20
190.500184
 30
0.0
 10
48.375694
 20
194.186714
 30
0.0
 10
48.683323
 20
195.029854
 30
0.0
 10
49.259088
 20
196.780524
 30
0.0
 10
50.549425
 20
199.918028
 30
0.0
 10
51.898899
 20
202.918408
 30
0.0
 10
52.652073
 20
204.257688
 30
0.0
 10
52.652426
 20
201.995332
 30
0.0
 10
51.981291
 20
199.555284
 30
0.0
 10
51.157604
 20
195.791854
 30
0.0
 10
50.629192
 20
193.675184
 30
0.0
 10
49.559432
 20
189.441854
 30
0.0
 10
47.864005
 20
182.205954
 30
0.0
 10
46.570221
 20
175.191244
 30
0.0
 10
45.695993
 20
168.510864
 30
0.0
 10
45.259233
 20
162.277964
 30
0.0
 10
45.853456
 20
154.164074
 30
0.0
 10
46.491310
 20
151.330824
 30
0.0
 10
46.952941
 20
149.225184
 30
0.0
 10
47.772356
 20
146.724184
 30
0.0
 10
48.935552
 20
144.657504
 30
0.0
 10
49.546348
 20
143.840174
 30
0.0
 10
50.412809
 20
142.644094
 30
0.0
 10
52.445854
 20
140.592484
 30
0.0
 10
55.309111
 20
138.724574
 30
0.0
 10
58.587831
 20
137.265064
 30
0.0
 10
61.867246
 20
136.438634
 30
0.0
 10
65.207914
 20
136.136024
 30
0.0
 10
68.136917
 20
136.274164
 30
0.0
 10
71.008946
 20
136.899754
 30
0.0
 10
74.178693
 20
138.059484
 30
0.0
 10
76.488096
 20
138.978904
 30
0.0
 10
77.963762
 20
139.478514
 30
0.0
 10
79.714952
 20
140.214774
 30
0.0
 10
82.081498
 20
141.645944
 30
0.0
 10
84.649344
 20
143.496644
 30
0.0
 10
87.004437
 20
145.491474
 30
0.0
 10
89.245599
 20
147.826534
 30
0.0
 10
91.323925
 20
150.395274
 30
0.0
 10
93.677106
 20
154.465384
 30
0.0
 10
94.203775
 20
156.482174
 30
0.0
 10
93.837948
 20
159.632864
 30
0.0
 10
90.574753
 20
159.305964
 30
0.0
 10
87.312373
 20
158.035084
 30
0.0
 10
82.197096
 20
155.948064
 30
0.0
 10
81.117816
 20
155.541984
 30
0.0
 10
80.256818
 20
155.189264
 30
0.0
 10
78.616411
 20
154.545464
 30
0.0
 10
77.020588
 20
154.119444
 30
0.0
 10
75.334053
 20
153.883904
 30
0.0
 10
73.421491
 20
153.811604
 30
0.0
 10
70.135957
 20
154.108224
 30
0.0
 10
67.309373
 20
155.007884
 30
0.0
 10
62.897999
 20
158.678814
 30
0.0
 10
60.486982
 20
163.377034
 30
0.0
 10
59.225767
 20
169.643554
 30
0.0
 10
59.069228
 20
177.942094
 30
0.0
 10
59.972240
 20
188.736314
 30
0.0
 10
60.633032
 20
195.012264
 30
0.0
 10
61.363102
 20
200.480316
 30
0.0
 10
62.074312
 20
204.082149
 30
0.0
 10
62.790208
 20
207.433538
 30
0.0
 10
63.649486
 20
211.490482
 30
0.0
 10
64.482433
 20
214.841871
 30
0.0
 10
65.952134
 20
220.486316
 30
0.0
 10
66.833990
 20
223.308538
 30
0.0
 10
69.144434
 20
228.071038
 30
0.0
 10
70.332389
 20
230.770187
 30
0.0
 10
70.899684
 20
232.852118
 30
0.0
 10
70.104875
 20
233.539094
 30
0.0
 10
68.469431
 20
232.928555
 30
0.0
 10
67.733323
 20
231.572089
 30
0.0
 10
67.582776
 20
230.900709
 30
0.0
 10
66.913397
 20
230.909209
 30
0.0
 10
65.635477
 20
230.563156
 30
0.0
 10
64.779712
 20
230.001509
 30
0.0
 10
63.323601
 20
228.895356
 30
0.0
 10
60.501379
 20
226.650384
 30
0.0
 10
57.438989
 20
224.329909
 30
0.0
 10
53.058604
 20
220.479117
 30
0.0
 10
47.249900
 20
214.996956
 30
0.0
 10
39.902557
 20
207.782375
 30
0.0
 10
35.132761
 20
203.059865
 30
0.0
 10
32.456442
 20
200.528601
 30
0.0
 10
30.296602
 20
199.319641
 30
0.0
 10
29.735067
 20
199.492545
 30
0.0
 10
29.794927
 20
200.268264
 30
0.0
 10
30.149418
 20
201.203620
 30
0.0
 10
30.667368
 20
202.120348
 30
0.0
 10
32.306366
 20
204.953899
 30
0.0
 10
34.549892
 20
209.491875
 30
0.0
 10
37.062375
 20
215.023772
 30
0.0
 10
39.508243
 20
220.839086
 30
0.0
 10
42.085399
 20
227.375787
 30
0.0
 10
43.526471
 20
231.424537
 30
0.0
 10
44.815041
 20
235.128703
 30
0.0
 10
46.221414
 20
238.725223
 30
0.0
 10
46.832817
 20
240.888067
 30
0.0
 10
46.743197
 20
242.252275
 30
0.0
 10
46.046500
 20
243.452890
 30
0.0
 10
45.317879
 20
244.558540
 30
0.0
 10
44.791916
 20
245.533531
 30
0.0
 10
43.498937
 20
247.232199
 30
0.0
 10
42.129763
 20
248.338988
 30
0.0
 10
39.997059
 20
249.872356
 30
0.0
 10
37.906597
 20
251.375046
 30
0.0
 10
36.811923
 20
252.324041
 30
0.0
 10
36.672485
 20
253.616785
 30
0.0
 10
37.907859
 20
254.737626
 30
0.0
 10
40.299302
 20
255.058532
 30
0.0
 10
42.527355
 20
255.356382
 30
0.0
 10
48.683327
 20
256.101099
 30
0.0
 10
52.988769
 20
256.453588
 30
0.0
 10
55.166215
 20
256.673545
 30
0.0
 10
59.959058
 20
259.617276
 30
0.0
 10
66.168098
 20
264.811254
 30
0.0
 10
69.910112
 20
268.717325
 30
0.0
 10
73.921702
 20
273.226634
 30
0.0
 10
79.420467
 20
279.576635
 30
0.0
 10
82.301698
 20
282.908413
 30
0.0
 10
85.176186
 20
285.596965
 30
0.0
 10
90.008365
 20
289.452250
 30
0.0
 10
94.364659
 20
292.891807
 30
0.0
 10
96.243367
 20
294.669265
 30
0.0
 10
96.032662
 20
295.241881
 30
0.0
 10
95.186505
 20
295.773582
 30
0.0
 10
88.463281
 20
297.755645
 30
0.0
 10
74.788890
 20
301.414486
 30
0.0
 10
69.320834
 20
302.866182
 30
0.0
 10
61.030556
 20
305.034014
 30
0.0
 10
59.619445
 20
305.410449
 30
0.0
 10
52.303384
 20
307.269451
 30
0.0
 10
53.708008
 20
304.960692
 30
0.0
 10
61.529733
 20
298.786223
 30
0.0
 10
67.287664
 20
293.672754
 30
0.0
 10
70.623367
 20
289.967870
 30
0.0
 10
71.178407
 20
288.019154
 30
0.0
 10
70.679849
 20
287.864104
 30
0.0
 10
69.334079
 20
287.627512
 30
0.0
 10
67.001188
 20
287.287446
 30
0.0
 10
63.541269
 20
286.821974
 30
0.0
 10
61.661323
 20
286.539491
 30
0.0
 10
60.798936
 20
286.341533
 30
0.0
 10
61.192702
 20
285.251084
 30
0.0
 10
63.505663
 20
283.124129
 30
0.0
 10
65.611268
 20
281.169243
 30
0.0
 10
66.495197
 20
279.183150
 30
0.0
 10
66.683838
 20
276.798287
 30
0.0
 10
65.992619
 20
276.893064
 30
0.0
 10
64.770551
 20
277.147467
 30
0.0
 10
61.505166
 20
277.459597
 30
0.0
 10
58.776716
 20
277.789139
 30
0.0
 10
57.419985
 20
277.147597
 30
0.0
 10
57.194019
 20
275.614909
 30
0.0
 10
57.855556
 20
273.486088
 30
0.0
 10
58.353855
 20
272.306967
 30
0.0
 10
58.561112
 20
271.522742
 30
0.0
 10
57.837777
 20
270.502895
 30
0.0
 10
55.825267
 20
270.181626
 30
0.0
 10
52.475772
 20
269.641273
 30
0.0
 10
52.234589
 20
267.520203
 30
0.0
 10
52.340722
 20
265.252262
 30
0.0
 10
50.593121
 20
262.959319
 30
0.0
 10
48.207086
 20
262.074707
 30
0.0
 10
45.484118
 20
261.843425
 30
0.0
 10
42.852166
 20
262.251356
 30
0.0
 10
40.739180
 20
263.284383
 30
0.0
 10
38.104085
 20
265.389122
 30
0.0
 10
35.844463
 20
267.292494
 30
0.0
 10
33.718758
 20
269.204669
 30
0.0
 10
31.485417
 20
271.335816
 30
0.0
 10
27.869445
 20
275.041175
 30
0.0
 10
27.388693
 20
275.673535
 30
0.0
 10
26.232841
 20
276.946154
 30
0.0
 10
21.145497
 20
283.305321
 30
0.0
 10
16.999405
 20
289.773909
 30
0.0
 10
14.835516
 20
293.246541
 30
0.0
 10
11.530819
 20
298.450006
 30
0.0
 10
10.339221
 20
303.565284
 30
0.0
 10
9.681417
 20
308.472338
 30
0.0
 10
9.703667
 20
311.260566
 30
0.0
 10
10.230556
 20
313.242378
 30
0.0
 10
12.085758
 20
316.558855
 30
0.0
 10
15.578078
 20
318.744166
 30
0.0
 10
16.702966
 20
319.086933
 30
0.0
 10
17.187523
 20
319.630549
 30
0.0
 10
20.128687
 20
320.148264
 30
0.0
 10
26.105556
 20
318.764931
 30
0.0
 10
31.397223
 20
317.500231
 30
0.0
 10
35.806945
 20
316.441673
 30
0.0
 10
40.216667
 20
315.392528
 30
0.0
 10
44.802778
 20
314.334754
 30
0.0
 10
49.565278
 20
313.228573
 30
0.0
 10
58.208334
 20
311.138066
 30
0.0
 10
66.498612
 20
309.197836
 30
0.0
 10
75.704667
 20
307.020156
 30
0.0
 10
80.786112
 20
305.829598
 30
0.0
 10
85.019445
 20
304.805579
 30
0.0
 10
99.664609
 20
302.101516
 30
0.0
 10
109.641779
 20
302.167778
 30
0.0
 10
111.823448
 20
302.334367
 30
0.0
 10
116.214325
 20
302.473372
 30
0.0
 10
119.763411
 20
302.143269
 30
0.0
 10
122.126390
 20
301.317579
 30
0.0
 10
123.593057
 20
302.088654
 30
0.0
 10
135.995835
 20
302.983596
 30
0.0
 10
148.695835
 20
302.718855
 30
0.0
 10
163.512501
 20
302.159071
 30
0.0
 10
179.916671
 20
301.647813
 30
0.0
 10
187.677781
 20
300.851607
 30
0.0
 10
193.915871
 20
300.500999
 30
0.0
 10
200.640121
 20
300.642613
 30
0.0
 10
207.409591
 20
301.251910
 30
0.0
 10
213.783331
 20
302.304354
 30
0.0
 10
220.612001
 20
304.000667
 30
0.0
 10
222.955561
 20
304.474558
 30
0.0
 10
230.187501
 20
305.823706
 30
0.0
 10
245.533331
 20
309.037645
 30
0.0
 10
254.352781
 20
310.859353
 30
0.0
 10
259.644451
 20
311.900675
 30
0.0
 10
262.675031
 20
312.486224
 30
0.0
 10
264.759721
 20
312.902440
 30
0.0
 10
268.888731
 20
313.727812
 30
0.0
 10
274.637501
 20
314.838809
 30
0.0
 10
280.907541
 20
316.062030
 30
0.0
 10
288.219451
 20
317.514869
 30
0.0
 10
289.952471
 20
317.882343
 30
0.0
 10
291.394451
 20
318.217420
 30
0.0
 10
295.619371
 20
318.970766
 30
0.0
 10
300.665721
 20
319.444637
 30
0.0
 10
305.425051
 20
319.571161
 30
0.0
 10
308.788921
 20
319.282470
 30
0.0
 10
310.228361
 20
318.983310
 30
0.0
 10
311.612061
 20
318.733362
 30
0.0
 10
312.832801
 20
318.296429
 30
0.0
 10
313.593631
 20
317.031071
 30
0.0
 10
314.890601
 20
312.498980
 30
0.0
 10
315.119861
 20
309.305413
 30
0.0
 10
314.787941
 20
308.528122
 30
0.0
 10
314.498691
 20
307.289071
 30
0.0
 10
313.592111
 20
303.838594
 30
0.0
 10
313.153051
 20
301.412257
 30
0.0
 10
312.608631
 20
299.849937
 30
0.0
 10
311.855561
 20
298.603647
 30
0.0
 10
310.797221
 20
296.807788
 30
0.0
 10
309.738891
 20
295.065001
 30
0.0
 10
305.329171
 20
288.566619
 30
0.0
 10
302.476261
 20
284.645099
 30
0.0
 10
299.259681
 20
280.559128
 30
0.0
 10
297.979511
 20
278.442461
 30
0.0
 10
292.797151
 20
272.361681
 30
0.0
 10
288.319361
 20
268.845387
 30
0.0
 10
286.011941
 20
267.319940
 30
0.0
 10
283.812411
 20
266.083600
 30
0.0
 10
280.619501
 20
264.704996
 30
0.0
 10
277.344361
 20
264.447484
 30
0.0
 10
274.385861
 20
264.547573
 30
0.0
 10
273.198871
 20
265.396760
 30
0.0
 10
272.391761
 20
266.884280
 30
0.0
 10
273.071831
 20
268.417973
 30
0.0
 10
273.579431
 20
269.401072
 30
0.0
 10
273.553131
 20
270.382356
 30
0.0
 10
273.151061
 20
271.176672
 30
0.0
 10
272.031991
 20
271.114932
 30
0.0
 10
270.868531
 20
270.889213
 30
0.0
 10
269.861761
 20
270.694728
 30
0.0
 10
268.973451
 20
270.749918
 30
0.0
 10
268.097871
 20
271.225911
 30
0.0
 10
267.168371
 20
273.664646
 30
0.0
 10
268.022971
 20
276.307520
 30
0.0
 10
268.583561
 20
277.182532
 30
0.0
 10
268.816721
 20
278.099829
 30
0.0
 10
268.602071
 20
278.897529
 30
0.0
 10
267.458251
 20
279.047231
 30
0.0
 10
264.982411
 20
279.456777
 30
0.0
 10
263.877831
 20
280.374744
 30
0.0
 10
264.395971
 20
281.249159
 30
0.0
 10
265.641721
 20
282.575009
 30
0.0
 10
266.993871
 20
284.054854
 30
0.0
 10
267.405611
 20
285.152185
 30
0.0
 10
267.405611
 20
285.617111
 30
0.0
 10
267.405611
 20
286.082036
 30
0.0
 10
264.884891
 20
285.973166
 30
0.0
 10
262.364171
 20
285.864295
 30
0.0
 10
258.188231
 20
285.799165
 30
0.0
 10
255.997211
 20
286.084019
 30
0.0
 10
254.136191
 20
287.142525
 30
0.0
 10
253.294501
 20
288.402708
 30
0.0
 10
256.313621
 20
291.788329
 30
0.0
 10
260.350051
 20
295.517563
 30
0.0
 10
268.945271
 20
302.794668
 30
0.0
 10
273.531381
 20
305.974185
 30
0.0
 10
277.026351
 20
308.291852
 30
0.0
 10
277.812211
 20
310.092752
 30
0.0
 10
277.268911
 20
310.736598
 30
0.0
 10
275.325361
 20
310.657918
 30
0.0
 10
272.575261
 20
310.136107
 30
0.0
 10
269.101551
 20
309.203062
 30
0.0
 10
266.052271
 20
308.336958
 30
0.0
 10
264.322591
 20
307.976090
 30
0.0
 10
263.219511
 20
307.768121
 30
0.0
 10
261.676751
 20
307.269633
 30
0.0
 10
259.899721
 20
306.770180
 30
0.0
 10
258.233381
 20
306.559891
 30
0.0
 10
252.480851
 20
305.211930
 30
0.0
 10
246.062551
 20
302.996800
 30
0.0
 10
241.123661
 20
302.182718
 30
0.0
 10
234.816031
 20
300.593354
 30
0.0
 10
230.636991
 20
299.508345
 30
0.0
 10
227.578951
 20
298.910179
 30
0.0
 10
225.537991
 20
297.882710
 30
0.0
 10
225.896491
 20
296.183504
 30
0.0
 10
227.616561
 20
294.569781
 30
0.0
 10
231.862511
 20
291.882189
 30
0.0
 10
234.773661
 20
289.634398
 30
0.0
 10
237.595881
 20
287.409291
 30
0.0
 10
239.888941
 20
285.769735
 30
0.0
 10
242.711161
 20
283.283071
 30
0.0
 10
248.209511
 20
278.350934
 30
0.0
 10
252.065981
 20
274.847509
 30
0.0
 10
253.511051
 20
273.973770
 30
0.0
 10
254.467171
 20
273.298308
 30
0.0
 10
255.718751
 20
272.004688
 30
0.0
 10
259.702151
 20
268.180855
 30
0.0
 10
264.230611
 20
264.487695
 30
0.0
 10
273.664601
 20
258.938899
 30
0.0
 10
274.108391
 20
258.623816
 30
0.0
 10
280.448681
 20
257.125127
 30
0.0
 10
284.689151
 20
257.087687
 30
0.0
 10
288.633191
 20
257.708257
 30
0.0
 10
289.888451
 20
257.256430
 30
0.0
 10
290.688941
 20
256.098917
 30
0.0
 10
288.482401
 20
253.543470
 30
0.0
 10
284.004321
 20
249.405201
 30
0.0
 10
280.822851
 20
246.516947
 30
0.0
 10
278.996351
 20
244.141362
 30
0.0
 10
278.237631
 20
242.635712
 30
0.0
 10
277.964711
 20
241.305303
 30
0.0
 10
278.180131
 20
240.255887
 30
0.0
 10
278.886461
 20
239.593217
 30
0.0
 10
279.707741
 20
238.742842
 30
0.0
 10
280.534451
 20
232.419297
 30
0.0
 10
282.992061
 20
223.131956
 30
0.0
 10
285.714911
 20
215.316654
 30
0.0
 10
287.515621
 20
210.784734
 30
0.0
 10
288.488111
 20
208.296355
 30
0.0
 10
289.442841
 20
205.051802
 30
0.0
 10
289.515541
 20
204.103263
 30
0.0
 10
289.125971
 20
203.689762
 30
0.0
 10
287.899021
 20
204.051058
 30
0.0
 10
285.397311
 20
205.989478
 30
0.0
 10
281.964771
 20
208.956538
 30
0.0
 10
278.533071
 20
211.980756
 30
0.0
 10
271.799651
 20
217.663900
 30
0.0
 10
269.746491
 20
219.361693
 30
0.0
 10
268.319491
 20
220.772804
 30
0.0
 10
266.192241
 20
222.801527
 30
0.0
 10
260.517431
 20
226.836123
 30
0.0
 10
258.293211
 20
228.121578
 30
0.0
 10
254.446491
 20
230.591022
 30
0.0
 10
251.946941
 20
231.716795
 30
0.0
 10
250.686451
 20
231.216991
 30
0.0
 10
250.825091
 20
228.952789
 30
0.0
 10
251.177871
 20
228.622977
 30
0.0
 10
251.585471
 20
227.300061
 30
0.0
 10
254.697381
 20
218.898623
 30
0.0
 10
257.887821
 20
212.019456
 30
0.0
 10
258.242051
 20
210.520150
 30
0.0
 10
258.627011
 20
207.433345
 30
0.0
 10
259.520491
 20
203.023622
 30
0.0
 10
260.368891
 20
198.437511
 30
0.0
 10
261.257271
 20
191.945294
 30
0.0
 10
261.495471
 20
184.150014
 30
0.0
 10
261.249611
 20
176.397404
 30
0.0
 10
260.345851
 20
171.097234
 30
0.0
 10
259.841171
 20
169.156954
 30
0.0
 10
257.993731
 20
164.772714
 30
0.0
 10
255.367211
 20
160.241034
 30
0.0
 10
252.663591
 20
156.937114
 30
0.0
 10
250.929881
 20
155.575014
 30
0.0
 10
250.606721
 20
155.488014
 30
0.0
 10
250.472311
 20
155.278864
 30
0.0
 10
246.529251
 20
153.629444
 30
0.0
 10
244.320991
 20
153.413094
 30
0.0
 10
241.590361
 20
153.649044
 30
0.0
 10
237.152531
 20
154.677294
 30
0.0
 10
234.032561
 20
155.974254
 30
0.0
 10
231.948531
 20
156.501594
 30
0.0
 10
229.507051
 20
156.494594
 30
0.0
 10
228.759121
 20
156.059184
 30
0.0
 10
228.600091
 20
154.854314
 30
0.0
 10
230.333851
 20
150.843454
 30
0.0
 10
234.703071
 20
145.957454
 30
0.0
 10
240.459691
 20
141.364624
 30
0.0
 10
246.355631
 20
138.233294
 30
0.0
 10
250.757191
 20
136.135304
 30
0.0
 10
255.195411
 20
134.231214
 30
0.0
 10
259.703481
 20
133.706814
 30
0.0
 10
263.559051
 20
134.237914
 30
0.0
 10
267.469321
 20
136.247524
 30
0.0
 10
271.347101
 20
140.198804
 30
0.0
 10
273.050091
 20
144.578004
 30
0.0
 10
273.188641
 20
145.671454
 30
0.0
 10
273.338611
 20
146.093574
 30
0.0
 10
273.521751
 20
146.354884
 30
0.0
 10
274.988861
 20
149.434154
 30
0.0
 10
276.277321
 20
154.340114
 30
0.0
 10
276.681721
 20
166.875984
 30
0.0
 10
275.161361
 20
182.385944
 30
0.0
 10
274.737111
 20
184.989884
 30
0.0
 10
274.243631
 20
188.030394
 30
0.0
 10
273.654571
 20
191.122704
 30
0.0
 10
273.000491
 20
193.851224
 30
0.0
 10
271.573711
 20
199.122510
 30
0.0
 10
271.054191
 20
202.063107
 30
0.0
 10
270.946951
 20
203.684810
 30
0.0
 10
271.389231
 20
203.610730
 30
0.0
 10
273.990271
 20
198.953093
 30
0.0
 10
276.739521
 20
192.792894
 30
0.0
 10
277.254361
 20
191.339894
 30
0.0
 10
277.651431
 20
190.323444
 30
0.0
 10
278.739711
 20
187.230294
 30
0.0
 10
279.400091
 20
184.685344
 30
0.0
 10
279.490991
 20
184.120434
 30
0.0
 10
279.709551
 20
183.527684
 30
0.0
 10
281.361601
 20
177.623444
 30
0.0
 10
282.274091
 20
173.390114
 30
0.0
 10
282.941711
 20
169.156774
 30
0.0
 10
283.494331
 20
165.805384
 30
0.0
 10
283.641061
 20
148.370794
 30
0.0
 10
282.944721
 20
144.285944
 30
0.0
 10
282.274181
 20
140.581774
 30
0.0
 10
281.733611
 20
138.325234
 30
0.0
 10
277.510641
 20
129.198684
 30
0.0
 10
275.404761
 20
126.978794
 30
0.0
 10
272.706631
 20
124.835554
 30
0.0
 10
269.651841
 20
122.934604
 30
0.0
 10
266.475971
 20
121.441544
 30
0.0
 10
263.198951
 20
120.343384
 30
0.0
 10
260.185671
 20
119.747884
 30
0.0
 10
257.242671
 20
119.631924
 30
0.0
 10
254.176471
 20
119.972394
 30
0.0
 10
250.472301
 20
120.739154
 30
0.0
 10
247.871271
 20
121.692124
 30
0.0
 10
240.992111
 20
124.766714
 30
0.0
 10
233.545801
 20
127.974074
 30
0.0
 10
228.545431
 20
128.763724
 30
0.0
 10
224.786901
 20
128.309614
 30
0.0
 10
221.180631
 20
126.597974
 30
0.0
 10
219.185691
 20
124.549654
 30
0.0
 10
219.110891
 20
122.030744
 30
0.0
 10
220.046541
 20
119.865504
 30
0.0
 10
221.745241
 20
116.351174
 30
0.0
 10
224.740011
 20
108.942844
 30
0.0
 10
225.081361
 20
98.424834
 30
0.0
 10
224.026871
 20
94.432484
 30
0.0
 10
223.073121
 20
92.015744
 30
0.0
 10
221.971241
 20
90.725824
 30
0.0
 10
220.472331
 20
90.113954
 30
0.0
 10
219.779241
 20
89.934394
 30
0.0
 10
219.055351
 20
89.721494
 30
0.0
 10
218.386451
 20
89.501884
 30
0.0
 10
218.099421
 20
89.397894
 30
0.0
 10
217.858301
 20
89.302194
 30
0.0
 10
209.383151
 20
87.944994
 30
0.0
 10
202.941591
 20
87.394364
 30
0.0
 10
196.721421
 20
87.104814
 30
0.0
 10
194.158911
 20
86.974114
 30
0.0
 10
192.504841
 20
86.751034
 30
0.0
 10
190.275901
 20
86.487324
 30
0.0
 10
186.331271
 20
86.258914
 30
0.0
 10
181.437341
 20
85.852284
 30
0.0
 10
180.816381
 20
85.039294
 30
0.0
 10
181.882101
 20
84.642514
 30
0.0
 10
183.973741
 20
84.155814
 30
0.0
 10
186.588701
 20
83.643644
 30
0.0
 10
188.912631
 20
83.185644
 30
0.0
 10
190.500531
 20
83.008054
 30
0.0
 10
193.182931
 20
82.872224
 30
0.0
 10
201.259851
 20
82.746204
 30
0.0
 10
207.671401
 20
82.789004
 30
0.0
 10
211.971901
 20
82.994164
 30
0.0
 10
214.953061
 20
83.431564
 30
0.0
 10
217.406581
 20
84.171084
 30
0.0
 10
218.767121
 20
84.617784
 30
0.0
 10
219.492221
 20
84.607484
 30
0.0
 10
219.738761
 20
84.048224
 30
0.0
 10
219.663561
 20
82.848074
 30
0.0
 10
218.728291
 20
79.712114
 30
0.0
 10
216.884851
 20
76.219974
 30
0.0
 10
214.617411
 20
73.145144
 30
0.0
 10
212.410171
 20
71.261094
 30
0.0
 10
210.771701
 20
70.737294
 30
0.0
 10
208.248101
 20
70.353274
 30
0.0
 10
204.971801
 20
70.123034
 30
0.0
 10
201.075231
 20
70.060634
 30
0.0
 10
194.372461
 20
70.461084
 30
0.0
 10
192.936261
 20
70.838384
 30
0.0
 10
191.205651
 20
71.231524
 30
0.0
 10
189.006301
 20
71.708054
 30
0.0
 10
186.443151
 20
72.285854
 30
0.0
 10
184.405681
 20
72.705024
 30
0.0
 10
183.470211
 20
72.800224
 30
0.0
 10
184.333561
 20
71.767594
 30
0.0
 10
186.893811
 20
70.222094
 30
0.0
 10
191.914151
 20
68.328404
 30
0.0
 10
198.933661
 20
66.521954
 30
0.0
 10
199.748601
 20
66.339654
 30
0.0
 10
200.521681
 20
66.156764
 30
0.0
 10
201.870931
 20
65.808904
 30
0.0
 10
202.838721
 20
65.517724
 30
0.0
 10
203.282371
 20
65.322584
 30
0.0
 10
203.219071
 20
64.769624
 30
0.0
 10
202.324901
 20
64.113434
 30
0.0
 10
200.890651
 20
63.511174
 30
0.0
 10
199.207091
 20
63.119984
 30
0.0
 10
192.138431
 20
62.263594
 30
0.0
 10
188.559851
 20
62.269594
 30
0.0
 10
183.702321
 20
63.135854
 30
0.0
 10
179.387631
 20
64.843954
 30
0.0
 10
176.056461
 20
66.764794
 30
0.0
 10
173.049531
 20
69.073374
 30
0.0
 10
169.762301
 20
72.301464
 30
0.0
 10
165.590221
 20
76.980854
 30
0.0
 10
163.213231
 20
79.894404
 30
0.0
 10
161.847781
 20
82.085304
 30
0.0
 10
161.287811
 20
83.992024
 30
0.0
 10
161.327311
 20
86.053034
 30
0.0
 10
162.328721
 20
89.464754
 30
0.0
 10
164.466531
 20
93.260844
 30
0.0
 10
167.552141
 20
97.163314
 30
0.0
 10
169.391421
 20
99.067564
 30
0.0
 10
171.396921
 20
100.894154
 30
0.0
 10
173.479301
 20
102.687474
 30
0.0
 10
175.294041
 20
104.274424
 30
0.0
 10
177.684641
 20
106.104314
 30
0.0
 10
181.151521
 20
108.481724
 30
0.0
 10
184.434211
 20
110.742654
 30
0.0
 10
186.851251
 20
112.694254
 30
0.0
 10
188.560151
 20
114.479154
 30
0.0
 10
189.718401
 20
116.239994
 30
0.0
 10
190.490601
 20
118.331784
 30
0.0
 10
190.768311
 20
121.531654
 30
0.0
 10
190.617471
 20
126.839374
 30
0.0
 10
189.815101
 20
128.939994
 30
0.0
 10
189.007791
 20
127.806804
 30
0.0
 10
188.716301
 20
124.913464
 30
0.0
 10
187.830911
 20
121.451194
 30
0.0
 10
185.011601
 20
118.711554
 30
0.0
 10
183.498751
 20
117.838034
 30
0.0
 10
182.576601
 20
117.474714
 30
0.0
 10
182.158371
 20
117.371084
 30
0.0
 10
181.857081
 20
117.121934
 30
0.0
 10
181.556371
 20
116.872784
 30
0.0
 10
181.139541
 20
116.769154
 30
0.0
 10
178.361961
 20
115.725784
 30
0.0
 10
176.202031
 20
114.820744
 30
0.0
 10
174.207991
 20
114.109954
 30
0.0
 10
171.765571
 20
113.328194
 30
0.0
 10
169.837381
 20
112.607654
 30
0.0
 10
168.364171
 20
111.895984
 30
0.0
 10
167.286651
 20
111.140834
 30
0.0
 10
166.545551
 20
110.289864
 30
0.0
 10
166.081601
 20
109.290734
 30
0.0
 10
165.835531
 20
108.091074
 30
0.0
 10
165.748031
 20
106.638564
 30
0.0
 10
165.312541
 20
103.105834
 30
0.0
 10
164.664531
 20
100.740874
 30
0.0
 10
164.287531
 20
100.568064
 30
0.0
 10
163.512601
 20
100.217914
 30
0.0
 10
163.040121
 20
100.004664
 30
0.0
 10
162.536011
 20
99.776274
 30
0.0
 10
162.060601
 20
99.560114
 30
0.0
 10
161.674201
 20
99.383554
 30
0.0
 10
160.369841
 20
99.169324
 30
0.0
 10
158.480229
 20
99.268224
 30
0.0
 10
156.491922
 20
99.623234
 30
0.0
 10
154.891461
 20
100.177454
 30
0.0
 10
153.025761
 20
101.895714
 30
0.0
 10
152.316726
 20
105.149114
 30
0.0
 10
151.813399
 20
107.935404
 30
0.0
 10
150.760637
 20
110.248364
 30
0.0
 10
149.147675
 20
112.104814
 30
0.0
 10
146.963747
 20
113.521614
 30
0.0
 10
144.908477
 20
114.193764
 30
0.0
 10
141.993157
 20
114.824534
 30
0.0
 10
139.321720
 20
115.342884
 30
0.0
 10
137.852805
 20
115.744734
 30
0.0
 10
137.572383
 20
115.868554
 30
0.0
 10
137.261693
 20
115.969954
 30
0.0
 10
136.958538
 20
116.038454
 30
0.0
 10
136.700721
 20
116.063654
 30
0.0
 10
134.254493
 20
116.736664
 30
0.0
 10
131.900414
 20
118.396874
 30
0.0
 10
130.270729
 20
120.924784
 30
0.0
 10
129.482775
 20
125.724384
 30
0.0
 10
128.541426
 20
129.372804
 30
0.0
 10
127.180152
 20
125.773584
 30
0.0
 10
126.808561
 20
123.347714
 30
0.0
 10
126.798341
 20
121.063134
 30
0.0
 10
127.160414
 20
118.896214
 30
0.0
 10
127.905708
 20
116.823344
 30
0.0
 10
130.589660
 20
112.865234
 30
0.0
 10
134.937604
 20
108.999804
 30
0.0
 10
137.230660
 20
107.204564
 30
0.0
 10
137.977004
 20
106.702984
 30
0.0
 10
139.523716
 20
105.802894
 30
0.0
 10
144.143688
 20
102.996994
 30
0.0
 10
148.016175
 20
100.176994
 30
0.0
 10
153.239151
 20
94.720564
 30
0.0
 10
155.591299
 20
90.080434
 30
0.0
 10
156.117197
 20
87.866264
 30
0.0
 10
156.280660
 20
85.507574
 30
0.0
 10
156.191630
 20
83.268824
 30
0.0
 10
155.748554
 20
81.661314
 30
0.0
 10
154.687436
 20
80.135044
 30
0.0
 10
152.744287
 20
78.140014
 30
0.0
 10
150.566238
 20
75.877824
 30
0.0
 10
148.882813
 20
73.906674
 30
0.0
 10
146.804961
 20
71.369914
 30
0.0
 10
144.454587
 20
68.813034
 30
0.0
 10
140.821879
 20
65.585354
 30
0.0
 10
138.641769
 20
64.205284
 30
0.0
 10
134.055658
 20
61.810124
 30
0.0
 10
129.645936
 20
60.296644
 30
0.0
 10
128.972764
 20
60.157404
 30
0.0
 10
128.183011
 20
59.989794
 30
0.0
 10
127.375067
 20
59.814904
 30
0.0
 10
126.647325
 20
59.653834
 30
0.0
 10
124.406468
 20
59.370624
 30
0.0
 10
121.675472
 20
59.320024
 30
0.0
 10
119.049152
 20
59.488904
 30
0.0
 10
117.122324
 20
59.864124
 30
0.0
 10
117.122302
 20
59.864174
 30
0.0
 10
117.122279
 20
59.864224
 30
0.0
 10
117.122257
 20
59.864274
 30
0.0
  0
LWPOLYLINE
  5
105
100
AcDbEntity
  8
Calque_1
 62
7
100
AcDbPolyline
 90
36
 70
1
 10
193.833751
 20
97.410954
 30
0.0
 10
194.282881
 20
97.628694
 30
0.0
 10
194.892081
 20
97.718994
 30
0.0
 10
198.823741
 20
98.459674
 30
0.0
 10
202.577851
 20
99.506094
 30
0.0
 10
203.879951
 20
99.836124
 30
0.0
 10
204.787501
 20
100.188904
 30
0.0
 10
205.866661
 20
100.541674
 30
0.0
 10
206.727781
 20
100.894454
 30
0.0
 10
207.765291
 20
101.247234
 30
0.0
 10
209.020831
 20
101.600014
 30
0.0
 10
209.923601
 20
101.952794
 30
0.0
 10
210.608331
 20
102.305564
 30
0.0
 10
210.731191
 20
102.554714
 30
0.0
 10
211.026571
 20
102.658344
 30
0.0
 10
212.356961
 20
103.547744
 30
0.0
 10
213.077781
 20
105.189284
 30
0.0
 10
212.804171
 20
106.055984
 30
0.0
 10
210.981931
 20
106.186124
 30
0.0
 10
208.668061
 20
105.833344
 30
0.0
 10
207.236121
 20
105.480564
 30
0.0
 10
206.022221
 20
105.127794
 30
0.0
 10
205.311881
 20
104.775014
 30
0.0
 10
203.812581
 20
104.367154
 30
0.0
 10
201.275241
 20
103.363904
 30
0.0
 10
199.495831
 20
102.658344
 30
0.0
 10
198.507051
 20
102.160054
 30
0.0
 10
197.893761
 20
101.952794
 30
0.0
 10
196.690501
 20
101.552604
 30
0.0
 10
192.793061
 20
99.836924
 30
0.0
 10
191.412261
 20
99.220904
 30
0.0
 10
190.074011
 20
98.628664
 30
0.0
 10
188.653001
 20
97.786084
 30
0.0
 10
188.564201
 20
97.006664
 30
0.0
 10
191.100871
 20
96.871574
 30
0.0
 10
193.833761
 20
97.410964
 30
0.0
  0
LWPOLYLINE
  5
106
100
AcDbEntity
  8
Calque_1
 62
7
100
AcDbPolyline
 90
48
 70
1
 10
127.705557
 20
99.142664
 30
0.0
 10
127.957821
 20
99.345324
 30
0.0
 10
128.021771
 20
99.526274
 30
0.0
 10
127.888711
 20
99.734564
 30
0.0
 10
127.549932
 20
100.019204
 30
0.0
 10
127.242501
 20
100.222064
 30
0.0
 10
126.911656
 20
100.388194
 30
0.0
 10
126.597141
 20
100.500444
 30
0.0
 10
126.338698
 20
100.541644
 30
0.0
 10
125.979335
 20
100.593944
 30
0.0
 10
125.390039
 20
100.736334
 30
0.0
 10
124.652519
 20
100.947074
 30
0.0
 10
123.848485
 20
101.204424
 30
0.0
 10
118.600453
 20
102.891834
 30
0.0
 10
113.897313
 20
104.248494
 30
0.0
 10
110.193791
 20
105.152144
 30
0.0
 10
107.944614
 20
105.480534
 30
0.0
 10
107.469297
 20
105.522334
 30
0.0
 10
106.889796
 20
105.636024
 30
0.0
 10
106.279389
 20
105.804274
 30
0.0
 10
105.711354
 20
106.009744
 30
0.0
 10
104.334341
 20
106.415134
 30
0.0
 10
102.986085
 20
106.538764
 30
0.0
 10
101.910912
 20
106.383774
 30
0.0
 10
101.353148
 20
105.953344
 30
0.0
 10
101.478051
 20
105.280094
 30
0.0
 10
102.167107
 20
104.541594
 30
0.0
 10
103.216451
 20
103.899734
 30
0.0
 10
104.422219
 20
103.516374
 30
0.0
 10
105.234712
 20
103.362794
 30
0.0
 10
105.981992
 20
103.147764
 30
0.0
 10
106.935826
 20
102.777824
 30
0.0
 10
108.367982
 20
102.159524
 30
0.0
 10
111.457395
 20
101.135754
 30
0.0
 10
115.651463
 20
100.196794
 30
0.0
 10
120.376725
 20
99.450974
 30
0.0
 10
125.059720
 20
99.006594
 30
0.0
 10
125.758523
 20
98.962594
 30
0.0
 10
126.357280
 20
98.917794
 30
0.0
 10
126.792327
 20
98.877494
 30
0.0
 10
126.999997
 20
98.846894
 30
0.0
 10
127.110238
 20
98.851894
 30
0.0
 10
127.280013
 20
98.909494
 30
0.0
 10
127.486169
 20
99.009574
 30
0.0
 10
127.705553
 20
99.142464
 30
0.0
 10
127.705553
 20
99.142464
 30
0.0
 10
127.705553
 20
99.142464
 30
0.0
 10
127.705553
 20
99.142454
 30
0.0
  0
LWPOLYLINE
  5
107
100
AcDbEntity
  8
Calque_1
 62
7
100
AcDbPolyline
 90
241
 70
1
 10
129.945093
 20
164.659034
 30
0.0
 10
130.140951
 20
168.550394
 30
0.0
 10
130.146251
 20
173.359234
 30
0.0
 10
129.976219
 20
178.196204
 30
0.0
 10
129.646019
 20
182.171964
 30
0.0
 10
128.665920
 20
186.959624
 30
0.0
 10
126.973989
 20
189.042284
 30
0.0
 10
125.981824
 20
189.329184
 30
0.0
 10
124.522204
 20
188.822784
 30
0.0
 10
119.694138
 20
186.719834
 30
0.0
 10
116.325776
 20
185.483684
 30
0.0
 10
113.588503
 20
184.862224
 30
0.0
 10
110.653705
 20
184.603354
 30
0.0
 10
107.955793
 20
184.604354
 30
0.0
 10
106.360343
 20
185.009094
 30
0.0
 10
104.097591
 20
185.784564
 30
0.0
 10
103.011092
 20
186.310544
 30
0.0
 10
102.858037
 20
186.528554
 30
0.0
 10
102.490057
 20
186.619254
 30
0.0
 10
101.940733
 20
186.904234
 30
0.0
 10
101.351678
 20
187.589394
 30
0.0
 10
100.859078
 20
188.326374
 30
0.0
 10
100.541648
 20
188.735924
 30
0.0
 10
98.869029
 20
191.686594
 30
0.0
 10
98.087176
 20
193.787574
 30
0.0
 10
97.580177
 20
195.741344
 30
0.0
 10
97.641547
 20
197.666088
 30
0.0
 10
98.253533
 20
199.763387
 30
0.0
 10
99.179014
 20
201.449700
 30
0.0
 10
100.180870
 20
202.141481
 30
0.0
 10
101.095130
 20
201.819213
 30
0.0
 10
102.677609
 20
201.044402
 30
0.0
 10
104.682177
 20
199.531373
 30
0.0
 10
105.293438
 20
196.890724
 30
0.0
 10
105.785743
 20
193.331164
 30
0.0
 10
106.085394
 20
192.027114
 30
0.0
 10
106.397785
 20
191.159194
 30
0.0
 10
107.619362
 20
189.590224
 30
0.0
 10
109.339005
 20
188.562734
 30
0.0
 10
111.393468
 20
188.139454
 30
0.0
 10
113.619509
 20
188.383144
 30
0.0
 10
114.951361
 20
188.896194
 30
0.0
 10
116.046338
 20
189.660744
 30
0.0
 10
116.890259
 20
190.663864
 30
0.0
 10
117.468946
 20
191.892634
 30
0.0
 10
118.872359
 20
193.732784
 30
0.0
 10
122.055816
 20
193.171294
 30
0.0
 10
123.934409
 20
192.578084
 30
0.0
 10
124.808791
 20
192.424364
 30
0.0
 10
124.666912
 20
193.575474
 30
0.0
 10
123.251872
 20
195.485424
 30
0.0
 10
120.956428
 20
197.715956
 30
0.0
 10
118.173338
 20
199.828786
 30
0.0
 10
115.563770
 20
201.435925
 30
0.0
 10
113.876695
 20
202.434907
 30
0.0
 10
111.124982
 20
203.908404
 30
0.0
 10
105.802825
 20
206.437196
 30
0.0
 10
102.781776
 20
207.888034
 30
0.0
 10
101.258207
 20
208.491481
 30
0.0
 10
99.000657
 20
209.488262
 30
0.0
 10
92.074982
 20
213.193988
 30
0.0
 10
87.335821
 20
216.712432
 30
0.0
 10
83.955177
 20
220.600769
 30
0.0
 10
83.490255
 20
221.544907
 30
0.0
 10
83.290675
 20
222.289117
 30
0.0
 10
83.324525
 20
223.140661
 30
0.0
 10
83.559893
 20
224.406804
 30
0.0
 10
83.786194
 20
225.356025
 30
0.0
 10
84.077410
 20
226.321136
 30
0.0
 10
84.436034
 20
227.305872
 30
0.0
 10
84.864560
 20
228.313969
 30
0.0
 10
85.941290
 20
230.415184
 30
0.0
 10
87.327547
 20
232.654664
 30
0.0
 10
89.043277
 20
235.062291
 30
0.0
 10
91.108427
 20
237.667946
 30
0.0
 10
93.542942
 20
240.501512
 30
0.0
 10
96.366771
 20
243.592871
 30
0.0
 10
100.736545
 20
249.297901
 30
0.0
 10
102.160747
 20
253.162737
 30
0.0
 10
102.506656
 20
255.128235
 30
0.0
 10
102.777663
 20
257.646241
 30
0.0
 10
101.478122
 20
259.315820
 30
0.0
 10
98.806914
 20
259.968700
 30
0.0
 10
95.750743
 20
259.067962
 30
0.0
 10
91.898593
 20
257.881373
 30
0.0
 10
87.136093
 20
256.859972
 30
0.0
 10
81.900973
 20
256.224735
 30
0.0
 10
83.033704
 20
259.698820
 30
0.0
 10
88.775751
 20
266.592409
 30
0.0
 10
99.111181
 20
274.108149
 30
0.0
 10
99.483315
 20
274.405463
 30
0.0
 10
101.159010
 20
275.536313
 30
0.0
 10
103.716649
 20
276.961581
 30
0.0
 10
112.956245
 20
281.162495
 30
0.0
 10
113.741856
 20
281.469626
 30
0.0
 10
116.496705
 20
282.554009
 30
0.0
 10
121.274752
 20
284.011976
 30
0.0
 10
122.195782
 20
284.276078
 30
0.0
 10
123.068155
 20
284.492853
 30
0.0
 10
123.793479
 20
284.639897
 30
0.0
 10
124.273363
 20
284.694797
 30
0.0
 10
124.852781
 20
284.751497
 30
0.0
 10
125.849113
 20
284.903424
 30
0.0
 10
127.122579
 20
285.127427
 30
0.0
 10
128.533394
 20
285.400354
 30
0.0
 10
130.199724
 20
285.686352
 30
0.0
 10
132.005165
 20
285.908159
 30
0.0
 10
133.809832
 20
286.051623
 30
0.0
 10
135.473842
 20
286.102593
 30
0.0
 10
136.954266
 20
286.129013
 30
0.0
 10
138.422381
 20
286.200953
 30
0.0
 10
139.708568
 20
286.307430
 30
0.0
 10
140.643208
 20
286.437453
 30
0.0
 10
141.471317
 20
286.599579
 30
0.0
 10
142.467446
 20
286.793467
 30
0.0
 10
143.506274
 20
286.994778
 30
0.0
 10
144.462482
 20
287.179175
 30
0.0
 10
147.005703
 20
287.909434
 30
0.0
 10
149.645516
 20
289.064264
 30
0.0
 10
152.017694
 20
290.458429
 30
0.0
 10
153.758011
 20
291.906690
 30
0.0
 10
154.516050
 20
292.784573
 30
0.0
 10
154.960560
 20
293.488672
 30
0.0
 10
155.169844
 20
294.186942
 30
0.0
 10
155.222204
 20
295.047341
 30
0.0
 10
155.081372
 20
296.401019
 30
0.0
 10
154.469625
 20
297.154921
 30
0.0
 10
153.103086
 20
297.461177
 30
0.0
 10
150.697878
 20
297.471916
 30
0.0
 10
149.197592
 20
297.391768
 30
0.0
 10
147.593740
 20
297.244472
 30
0.0
 10
146.078411
 20
297.051012
 30
0.0
 10
144.843717
 20
296.832593
 30
0.0
 10
143.567637
 20
296.566091
 30
0.0
 10
141.939674
 20
296.242278
 30
0.0
 10
140.169124
 20
295.902103
 30
0.0
 10
138.465278
 20
295.586425
 30
0.0
 10
135.157384
 20
294.977771
 30
0.0
 10
132.972531
 20
294.541468
 30
0.0
 10
131.417384
 20
294.171110
 30
0.0
 10
129.998611
 20
293.760294
 30
0.0
 10
128.112906
 20
293.199760
 30
0.0
 10
126.117616
 20
292.638274
 30
0.0
 10
124.343032
 20
292.166375
 30
0.0
 10
123.119445
 20
291.874601
 30
0.0
 10
122.721329
 20
291.781754
 30
0.0
 10
122.289314
 20
291.662403
 30
0.0
 10
121.875490
 20
291.531933
 30
0.0
 10
121.531945
 20
291.405728
 30
0.0
 10
119.750810
 20
290.692920
 30
0.0
 10
118.273080
 20
290.131085
 30
0.0
 10
117.214784
 20
289.762779
 30
0.0
 10
116.691950
 20
289.630554
 30
0.0
 10
111.252215
 20
287.161109
 30
0.0
 10
105.997848
 20
284.691664
 30
0.0
 10
103.899000
 20
283.445523
 30
0.0
 10
101.334514
 20
281.964008
 30
0.0
 10
100.365278
 20
281.439089
 30
0.0
 10
97.895833
 20
279.764960
 30
0.0
 10
94.267366
 20
277.302688
 30
0.0
 10
92.444679
 20
276.224998
 30
0.0
 10
92.016202
 20
275.960414
 30
0.0
 10
89.458525
 20
273.931942
 30
0.0
 10
84.146333
 20
269.345831
 30
0.0
 10
79.922282
 20
265.344350
 30
0.0
 10
75.218184
 20
260.141399
 30
0.0
 10
69.276500
 20
252.765275
 30
0.0
 10
68.037153
 20
251.066510
 30
0.0
 10
66.950404
 20
249.472662
 30
0.0
 10
65.250293
 20
246.629162
 30
0.0
 10
64.207354
 20
244.293661
 30
0.0
 10
63.852777
 20
242.525046
 30
0.0
 10
63.921075
 20
241.366298
 30
0.0
 10
64.180182
 20
240.670494
 30
0.0
 10
64.711416
 20
240.331119
 30
0.0
 10
65.596100
 20
240.241659
 30
0.0
 10
67.123658
 20
240.527541
 30
0.0
 10
69.369512
 20
241.472462
 30
0.0
 10
72.601248
 20
243.207333
 30
0.0
 10
77.086456
 20
245.863067
 30
0.0
 10
79.551389
 20
247.297214
 30
0.0
 10
82.155886
 20
248.804463
 30
0.0
 10
85.019444
 20
250.646268
 30
0.0
 10
89.798400
 20
252.843680
 30
0.0
 10
94.742508
 20
254.350801
 30
0.0
 10
96.011962
 20
253.483029
 30
0.0
 10
96.661111
 20
251.776409
 30
0.0
 10
95.087629
 20
246.937857
 30
0.0
 10
89.789578
 20
239.888881
 30
0.0
 10
84.768139
 20
233.602533
 30
0.0
 10
81.328020
 20
227.596505
 30
0.0
 10
79.270098
 20
223.267721
 30
0.0
 10
77.882842
 20
219.776612
 30
0.0
 10
76.989435
 20
214.925132
 30
0.0
 10
77.352580
 20
213.172966
 30
0.0
 10
78.522470
 20
211.819337
 30
0.0
 10
80.157744
 20
210.660240
 30
0.0
 10
82.476250
 20
209.332582
 30
0.0
 10
84.717545
 20
208.239994
 30
0.0
 10
86.121180
 20
207.786102
 30
0.0
 10
86.349935
 20
207.762772
 30
0.0
 10
86.587613
 20
207.699242
 30
0.0
 10
86.806120
 20
207.605222
 30
0.0
 10
86.977361
 20
207.490410
 30
0.0
 10
87.887639
 20
207.045026
 30
0.0
 10
89.605555
 20
206.389443
 30
0.0
 10
92.339583
 20
205.230833
 30
0.0
 10
92.780556
 20
199.163884
 30
0.0
 10
93.299312
 20
191.710554
 30
0.0
 10
93.970127
 20
190.031944
 30
0.0
 10
94.993221
 20
188.187934
 30
0.0
 10
96.260312
 20
186.352504
 30
0.0
 10
97.663116
 20
184.699614
 30
0.0
 10
99.254468
 20
183.434074
 30
0.0
 10
101.578382
 20
182.033044
 30
0.0
 10
104.119509
 20
180.777874
 30
0.0
 10
106.362500
 20
179.949944
 30
0.0
 10
110.197800
 20
179.578104
 30
0.0
 10
113.806386
 20
179.878644
 30
0.0
 10
116.945834
 20
180.617834
 30
0.0
 10
119.897589
 20
181.372724
 30
0.0
 10
121.749672
 20
181.252964
 30
0.0
 10
122.766667
 20
179.375534
 30
0.0
 10
119.961103
 20
170.645114
 30
0.0
 10
118.703592
 20
168.055854
 30
0.0
 10
118.180556
 20
166.676364
 30
0.0
 10
119.238889
 20
166.158364
 30
0.0
 10
120.297222
 20
166.454514
 30
0.0
 10
121.335438
 20
167.199664
 30
0.0
 10
122.345557
 20
167.465634
 30
0.0
 10
123.427328
 20
167.569474
 30
0.0
 10
124.509755
 20
167.398544
 30
0.0
 10
125.391164
 20
166.843234
 30
0.0
 10
126.817522
 20
164.324244
 30
0.0
 10
127.422844
 20
163.108394
 30
0.0
 10
128.011210
 20
162.513084
 30
0.0
 10
129.490892
 20
162.504084
 30
0.0
 10
129.945092
 20
164.658654
 30
0.0
 10
129.945092
 20
164.658644
 30
0.0
 10
129.945092
 20
164.658634
 30
0.0
 10
129.945093
 20
164.658834
 30
0.0
  0
LWPOLYLINE
  5
108
100
AcDbEntity
  8
Calque_1
 62
7
100
AcDbPolyline
 90
171
 70
1
 10
189.245251
 20
166.246534
 30
0.0
 10
189.807061
 20
170.290544
 30
0.0
 10
190.686821
 20
171.957094
 30
0.0
 10
192.551821
 20
172.817434
 30
0.0
 10
194.868861
 20
171.450004
 30
0.0
 10
196.438321
 20
170.214654
 30
0.0
 10
197.293781
 20
170.110474
 30
0.0
 10
197.476161
 20
171.175364
 30
0.0
 10
197.026391
 20
173.447184
 30
0.0
 10
196.652671
 20
175.326794
 30
0.0
 10
196.497221
 20
176.992954
 30
0.0
 10
196.731411
 20
178.453084
 30
0.0
 10
197.787091
 20
179.723744
 30
0.0
 10
198.915021
 20
180.618754
 30
0.0
 10
199.815561
 20
181.062104
 30
0.0
 10
202.158251
 20
181.103004
 30
0.0
 10
206.753481
 20
181.030604
 30
0.0
 10
212.476311
 20
181.026604
 30
0.0
 10
215.572921
 20
181.842294
 30
0.0
 10
218.810421
 20
182.990574
 30
0.0
 10
219.427781
 20
183.486024
 30
0.0
 10
219.801281
 20
183.797654
 30
0.0
 10
221.955731
 20
185.499154
 30
0.0
 10
224.354441
 20
188.543384
 30
0.0
 10
225.353101
 20
191.285014
 30
0.0
 10
225.996791
 20
195.055604
 30
0.0
 10
226.218491
 20
199.239340
 30
0.0
 10
225.951231
 20
203.220448
 30
0.0
 10
225.931531
 20
204.513326
 30
0.0
 10
226.564321
 20
205.377642
 30
0.0
 10
228.196201
 20
206.048308
 30
0.0
 10
231.173761
 20
206.760238
 30
0.0
 10
233.399441
 20
207.493505
 30
0.0
 10
234.559271
 20
207.786543
 30
0.0
 10
235.790741
 20
208.039301
 30
0.0
 10
238.759951
 20
209.189530
 30
0.0
 10
241.904961
 20
210.430926
 30
0.0
 10
244.034051
 20
212.452968
 30
0.0
 10
245.460181
 20
214.757442
 30
0.0
 10
245.024651
 20
216.904335
 30
0.0
 10
244.495211
 20
218.394678
 30
0.0
 10
243.936641
 20
220.662932
 30
0.0
 10
239.280751
 20
232.657377
 30
0.0
 10
232.046851
 20
243.012668
 30
0.0
 10
228.982651
 20
247.407715
 30
0.0
 10
227.692411
 20
249.979588
 30
0.0
 10
227.696411
 20
251.010755
 30
0.0
 10
228.437691
 20
251.831671
 30
0.0
 10
229.368721
 20
252.366768
 30
0.0
 10
230.254611
 20
252.589322
 30
0.0
 10
232.816121
 20
251.829549
 30
0.0
 10
236.721591
 20
249.940654
 30
0.0
 10
240.878381
 20
247.508277
 30
0.0
 10
244.193851
 20
245.118060
 30
0.0
 10
246.923981
 20
242.947158
 30
0.0
 10
252.036921
 20
239.469477
 30
0.0
 10
260.697851
 20
234.317320
 30
0.0
 10
266.179561
 20
232.833748
 30
0.0
 10
268.370931
 20
233.401427
 30
0.0
 10
268.961041
 20
235.382465
 30
0.0
 10
267.777071
 20
239.249731
 30
0.0
 10
265.431031
 20
242.857301
 30
0.0
 10
261.734431
 20
247.388541
 30
0.0
 10
259.291851
 20
251.169564
 30
0.0
 10
257.141311
 20
253.899327
 30
0.0
 10
252.028371
 20
259.125421
 30
0.0
 10
245.961061
 20
264.876327
 30
0.0
 10
240.947401
 20
269.180524
 30
0.0
 10
235.302961
 20
273.504755
 30
0.0
 10
225.209031
 20
280.190874
 30
0.0
 10
222.425771
 20
281.671236
 30
0.0
 10
220.762091
 20
282.575416
 30
0.0
 10
217.195351
 20
284.033598
 30
0.0
 10
203.729351
 20
289.371797
 30
0.0
 10
200.201571
 20
290.623478
 30
0.0
 10
191.382131
 20
292.649382
 30
0.0
 10
190.024071
 20
292.907329
 30
0.0
 10
188.673461
 20
293.203486
 30
0.0
 10
187.486551
 20
293.501276
 30
0.0
 10
186.619631
 20
293.764121
 30
0.0
 10
185.850131
 20
294.003356
 30
0.0
 10
184.928501
 20
294.236860
 30
0.0
 10
183.970491
 20
294.437875
 30
0.0
 10
183.091851
 20
294.579641
 30
0.0
 10
182.060111
 20
294.733405
 30
0.0
 10
180.685241
 20
294.967083
 30
0.0
 10
179.146661
 20
295.248930
 30
0.0
 10
177.623791
 20
295.547196
 30
0.0
 10
172.877011
 20
296.425193
 30
0.0
 10
169.297151
 20
296.899453
 30
0.0
 10
166.989791
 20
296.960379
 30
0.0
 10
166.060491
 20
296.598373
 30
0.0
 10
166.499501
 20
294.892381
 30
0.0
 10
168.247121
 20
292.820728
 30
0.0
 10
170.569261
 20
291.072446
 30
0.0
 10
172.731831
 20
290.336567
 30
0.0
 10
173.040061
 20
290.284530
 30
0.0
 10
173.517141
 20
290.142846
 30
0.0
 10
174.097901
 20
289.933155
 30
0.0
 10
174.717221
 20
289.677094
 30
0.0
 10
176.633681
 20
288.938661
 30
0.0
 10
178.988971
 20
288.294394
 30
0.0
 10
182.316281
 20
287.620626
 30
0.0
 10
187.148791
 20
286.793690
 30
0.0
 10
187.972861
 20
286.651502
 30
0.0
 10
188.912681
 20
286.478120
 30
0.0
 10
189.852501
 20
286.295468
 30
0.0
 10
190.676571
 20
286.125473
 30
0.0
 10
194.204351
 20
285.422947
 30
0.0
 10
197.379351
 20
284.747629
 30
0.0
 10
201.083511
 20
283.825372
 30
0.0
 10
205.903761
 20
282.562431
 30
0.0
 10
208.853551
 20
281.869900
 30
0.0
 10
213.824641
 20
280.187794
 30
0.0
 10
221.368241
 20
276.946611
 30
0.0
 10
224.951621
 20
275.370192
 30
0.0
 10
225.910681
 20
274.624525
 30
0.0
 10
226.695391
 20
274.108789
 30
0.0
 10
229.658511
 20
272.024948
 30
0.0
 10
231.863381
 20
269.613821
 30
0.0
 10
236.537681
 20
265.328654
 30
0.0
 10
239.382101
 20
262.829665
 30
0.0
 10
241.601401
 20
260.559441
 30
0.0
 10
243.056321
 20
257.087261
 30
0.0
 10
242.150031
 20
255.591168
 30
0.0
 10
239.557111
 20
255.058789
 30
0.0
 10
237.243241
 20
255.411566
 30
0.0
 10
235.924551
 20
255.764344
 30
0.0
 10
233.710201
 20
256.128247
 30
0.0
 10
230.722761
 20
257.251401
 30
0.0
 10
228.992371
 20
257.936965
 30
0.0
 10
227.053021
 20
258.601701
 30
0.0
 10
225.061441
 20
259.074231
 30
0.0
 10
223.607531
 20
258.559141
 30
0.0
 10
222.424071
 20
257.685135
 30
0.0
 10
222.250181
 20
255.757179
 30
0.0
 10
222.602961
 20
253.647680
 30
0.0
 10
222.852111
 20
253.456647
 30
0.0
 10
222.955741
 20
252.997352
 30
0.0
 10
224.249031
 20
249.073284
 30
0.0
 10
228.096861
 20
242.623657
 30
0.0
 10
233.376091
 20
234.099752
 30
0.0
 10
237.061211
 20
223.135147
 30
0.0
 10
236.336951
 20
220.613768
 30
0.0
 10
233.186291
 20
217.748283
 30
0.0
 10
231.693521
 20
216.594864
 30
0.0
 10
230.829171
 20
215.912258
 30
0.0
 10
227.055311
 20
213.414200
 30
0.0
 10
223.090201
 20
211.345906
 30
0.0
 10
221.469471
 20
210.705912
 30
0.0
 10
220.486291
 20
210.281476
 30
0.0
 10
214.055511
 20
207.077665
 30
0.0
 10
212.289251
 20
206.285211
 30
0.0
 10
211.468551
 20
206.022679
 30
0.0
 10
204.291331
 20
202.609054
 30
0.0
 10
197.202961
 20
198.992686
 30
0.0
 10
196.277241
 20
198.238796
 30
0.0
 10
194.299251
 20
196.737624
 30
0.0
 10
192.123421
 20
194.969124
 30
0.0
 10
190.722041
 20
193.572514
 30
0.0
 10
189.196031
 20
191.124914
 30
0.0
 10
188.036271
 20
188.464114
 30
0.0
 10
187.334711
 20
183.974064
 30
0.0
 10
187.347011
 20
181.151844
 30
0.0
 10
187.164051
 20
174.506984
 30
0.0
 10
187.450371
 20
167.128924
 30
0.0
 10
187.803821
 20
164.596324
 30
0.0
 10
188.380531
 20
164.042124
 30
0.0
 10
188.940331
 20
164.465644
 30
0.0
 10
189.245411
 20
166.246984
 30
0.0
 10
189.245341
 20
166.246984
 30
0.0
  0
LWPOLYLINE
  5
109
100
AcDbEntity
  8
Calque_1
 62
7
100
AcDbPolyline
 90
42
 70
1
 10
200.730561
 20
185.364854
 30
0.0
 10
198.104571
 20
186.031534
 30
0.0
 10
196.497221
 20
186.459154
 30
0.0
 10
193.830941
 20
188.080614
 30
0.0
 10
191.911111
 20
189.812154
 30
0.0
 10
192.832361
 20
190.912004
 30
0.0
 10
195.620301
 20
192.453974
 30
0.0
 10
197.797971
 20
193.393924
 30
0.0
 10
199.250421
 20
193.571854
 30
0.0
 10
200.501921
 20
192.890054
 30
0.0
 10
202.076731
 20
191.250854
 30
0.0
 10
203.231021
 20
190.009124
 30
0.0
 10
204.133471
 20
189.208074
 30
0.0
 10
204.955951
 20
188.719194
 30
0.0
 10
205.870291
 20
188.413984
 30
0.0
 10
206.774161
 20
188.224394
 30
0.0
 10
207.509131
 20
188.188894
 30
0.0
 10
208.243871
 20
188.318194
 30
0.0
 10
209.147051
 20
188.623024
 30
0.0
 10
211.329561
 20
189.932004
 30
0.0
 10
212.913551
 20
192.572394
 30
0.0
 10
213.595231
 20
194.586364
 30
0.0
 10
213.783331
 20
196.909954
 30
0.0
 10
213.934081
 20
199.077221
 30
0.0
 10
214.649251
 20
200.217447
 30
0.0
 10
216.148551
 20
201.086804
 30
0.0
 10
218.635951
 20
201.953406
 30
0.0
 10
220.489951
 20
202.816565
 30
0.0
 10
220.976901
 20
202.038158
 30
0.0
 10
221.903701
 20
198.325873
 30
0.0
 10
222.076281
 20
195.392004
 30
0.0
 10
221.639341
 20
193.182414
 30
0.0
 10
220.467421
 20
190.629244
 30
0.0
 10
218.986811
 20
189.194694
 30
0.0
 10
217.261711
 20
187.796394
 30
0.0
 10
215.304451
 20
186.645514
 30
0.0
 10
213.151551
 20
185.749704
 30
0.0
 10
210.839521
 20
185.116624
 30
0.0
 10
208.404891
 20
184.753944
 30
0.0
 10
205.884171
 20
184.669344
 30
0.0
 10
203.313891
 20
184.870434
 30
0.0
 10
200.730561
 20
185.364904
 30
0.0
  0
LWPOLYLINE
  5
10a
100
AcDbEntity
  8
Calque_1
 62
7
100
AcDbPolyline
 90
60
 70
1
 10
244.047131
 20
166.539654
 30
0.0
 10
244.779531
 20
167.209784
 30
0.0
 10
245.061901
 20
168.082674
 30
0.0
 10
244.898891
 20
169.237074
 30
0.0
 10
244.295121
 20
170.751754
 30
0.0
 10
243.629121
 20
172.471774
 30
0.0
 10
243.557221
 20
174.012724
 30
0.0
 10
244.151711
 20
175.839764
 30
0.0
 10
245.484721
 20
178.418104
 30
0.0
 10
247.317271
 20
181.877284
 30
0.0
 10
248.453761
 20
184.519994
 30
0.0
 10
249.067561
 20
186.837504
 30
0.0
 10
249.332001
 20
189.321084
 30
0.0
 10
249.402501
 20
191.749254
 30
0.0
 10
249.280651
 20
193.306494
 30
0.0
 10
248.938701
 20
194.135894
 30
0.0
 10
248.348841
 20
194.380564
 30
0.0
 10
248.007451
 20
194.329464
 30
0.0
 10
247.793031
 20
194.150554
 30
0.0
 10
247.681801
 20
193.805664
 30
0.0
 10
247.650001
 20
193.256574
 30
0.0
 10
247.427731
 20
191.610284
 30
0.0
 10
246.859431
 20
189.353874
 30
0.0
 10
246.092861
 20
186.997894
 30
0.0
 10
245.275761
 20
185.052874
 30
0.0
 10
243.988861
 20
183.246204
 30
0.0
 10
241.950641
 20
180.955144
 30
0.0
 10
239.931491
 20
178.988174
 30
0.0
 10
238.701801
 20
178.153804
 30
0.0
 10
238.421071
 20
178.093704
 30
0.0
 10
237.952691
 20
177.929084
 30
0.0
 10
237.361881
 20
177.685164
 30
0.0
 10
236.713891
 20
177.387154
 30
0.0
 10
235.373931
 20
176.753674
 30
0.0
 10
234.243301
 20
176.278104
 30
0.0
 10
232.892751
 20
175.794524
 30
0.0
 10
230.893061
 20
175.137014
 30
0.0
 10
229.167991
 20
174.598034
 30
0.0
 10
227.616311
 20
174.183324
 30
0.0
 10
225.740681
 20
173.773204
 30
0.0
 10
223.043751
 20
173.247974
 30
0.0
 10
220.947791
 20
172.694754
 30
0.0
 10
219.664651
 20
171.982644
 30
0.0
 10
219.184911
 20
171.103184
 30
0.0
 10
219.499201
 20
170.047864
 30
0.0
 10
220.351951
 20
169.406924
 30
0.0
 10
222.190321
 20
168.676784
 30
0.0
 10
225.046521
 20
167.846724
 30
0.0
 10
228.952781
 20
166.906034
 30
0.0
 10
229.756881
 20
166.725814
 30
0.0
 10
230.474631
 20
166.567614
 30
0.0
 10
231.119191
 20
166.430164
 30
0.0
 10
231.703751
 20
166.312194
 30
0.0
 10
233.705201
 20
166.009654
 30
0.0
 10
235.799891
 20
165.917154
 30
0.0
 10
238.830561
 20
165.953354
 30
0.0
 10
240.859951
 20
166.021154
 30
0.0
 10
242.378011
 20
166.138364
 30
0.0
 10
243.426491
 20
166.309644
 30
0.0
 10
244.047131
 20
166.539694
 30
0.0
  0
LWPOLYLINE
  5
10b
100
AcDbEntity
  8
Calque_1
 62
7
100
AcDbPolyline
 90
39
 70
1
 10
85.195834
 20
167.410794
 30
0.0
 10
88.059949
 20
167.869154
 30
0.0
 10
90.487501
 20
168.238294
 30
0.0
 10
93.965742
 20
168.875754
 30
0.0
 10
96.827766
 20
169.656264
 30
0.0
 10
98.768616
 20
170.478084
 30
0.0
 10
99.483334
 20
171.239484
 30
0.0
 10
99.267790
 20
171.913364
 30
0.0
 10
98.188295
 20
172.447944
 30
0.0
 10
95.595555
 20
173.042964
 30
0.0
 10
90.840279
 20
173.898144
 30
0.0
 10
86.626744
 20
175.096934
 30
0.0
 10
83.449584
 20
176.426074
 30
0.0
 10
83.000454
 20
176.649354
 30
0.0
 10
82.391251
 20
176.742954
 30
0.0
 10
80.360455
 20
177.586724
 30
0.0
 10
76.943727
 20
180.475554
 30
0.0
 10
73.534877
 20
184.727104
 30
0.0
 10
72.535569
 20
187.042614
 30
0.0
 10
71.953629
 20
189.580794
 30
0.0
 10
71.428234
 20
191.783244
 30
0.0
 10
70.870661
 20
192.311834
 30
0.0
 10
70.475761
 20
191.271294
 30
0.0
 10
70.400205
 20
190.195334
 30
0.0
 10
70.438388
 20
188.766364
 30
0.0
 10
70.727567
 20
186.225984
 30
0.0
 10
71.267762
 20
184.021484
 30
0.0
 10
73.263309
 20
180.124234
 30
0.0
 10
75.384823
 20
176.673944
 30
0.0
 10
76.200001
 20
174.357804
 30
0.0
 10
75.992744
 20
173.463654
 30
0.0
 10
75.768399
 20
172.857814
 30
0.0
 10
75.494445
 20
172.238824
 30
0.0
 10
74.826441
 20
170.243354
 30
0.0
 10
75.189857
 20
168.857024
 30
0.0
 10
76.721009
 20
167.912084
 30
0.0
 10
79.556212
 20
167.240804
 30
0.0
 10
81.952055
 20
166.956704
 30
0.0
 10
85.195834
 20
167.410754
 30
0.0
  0
LWPOLYLINE
  5
10c
100
AcDbEntity
  8
Calque_1
 62
7
100
AcDbPolyline
 90
39
 70
1
 10
199.524541
 20
208.916056
 30
0.0
 10
205.508871
 20
214.898800
 30
0.0
 10
210.795411
 20
219.707377
 30
0.0
 10
215.002281
 20
223.015304
 30
0.0
 10
217.747621
 20
224.496098
 30
0.0
 10
218.167881
 20
224.656320
 30
0.0
 10
218.598301
 20
224.919177
 30
0.0
 10
219.287501
 20
225.606996
 30
0.0
 10
219.784301
 20
226.225912
 30
0.0
 10
220.172421
 20
226.483338
 30
0.0
 10
221.170311
 20
226.842910
 30
0.0
 10
223.133171
 20
227.707413
 30
0.0
 10
225.226131
 20
228.845595
 30
0.0
 10
226.182831
 20
229.808579
 30
0.0
 10
226.226831
 20
230.867436
 30
0.0
 10
224.728141
 20
232.714646
 30
0.0
 10
223.312201
 20
234.411083
 30
0.0
 10
222.511941
 20
235.640560
 30
0.0
 10
219.593431
 20
241.711168
 30
0.0
 10
217.447071
 20
244.475005
 30
0.0
 10
217.099461
 20
244.345469
 30
0.0
 10
216.949971
 20
244.034033
 30
0.0
 10
216.262461
 20
238.289543
 30
0.0
 10
213.338511
 20
234.053057
 30
0.0
 10
211.826391
 20
232.299764
 30
0.0
 10
210.419051
 20
230.540282
 30
0.0
 10
209.411481
 20
229.242720
 30
0.0
 10
209.053331
 20
228.807675
 30
0.0
 10
208.860481
 20
228.600005
 30
0.0
 10
207.746801
 20
227.488903
 30
0.0
 10
206.204781
 20
225.626007
 30
0.0
 10
204.385031
 20
223.227025
 30
0.0
 10
202.438161
 20
220.507666
 30
0.0
 10
196.391441
 20
210.740612
 30
0.0
 10
195.415551
 20
207.795273
 30
0.0
 10
195.693471
 20
206.462213
 30
0.0
 10
196.264641
 20
206.422403
 30
0.0
 10
197.103671
 20
206.812209
 30
0.0
 10
199.524581
 20
208.916052
 30
0.0
  0
LWPOLYLINE
  5
10d
100
AcDbEntity
  8
Calque_1
 62
7
100
AcDbPolyline
 90
34
 70
1
 10
122.766668
 20
208.977756
 30
0.0
 10
121.107072
 20
213.242741
 30
0.0
 10
117.957100
 20
218.985230
 30
0.0
 10
114.724159
 20
223.272352
 30
0.0
 10
110.614934
 20
228.047431
 30
0.0
 10
109.630750
 20
229.147962
 30
0.0
 10
109.077803
 20
229.845233
 30
0.0
 10
108.230581
 20
230.730897
 30
0.0
 10
106.538890
 20
232.284363
 30
0.0
 10
103.519656
 20
235.800809
 30
0.0
 10
104.598612
 20
239.736120
 30
0.0
 10
105.797833
 20
242.930873
 30
0.0
 10
105.333567
 20
243.735969
 30
0.0
 10
103.487587
 20
242.236140
 30
0.0
 10
100.541668
 20
238.516123
 30
0.0
 10
98.790711
 20
236.079977
 30
0.0
 10
96.810221
 20
233.369454
 30
0.0
 10
93.283221
 20
228.175696
 30
0.0
 10
92.496846
 20
225.492054
 30
0.0
 10
92.882103
 20
224.295499
 30
0.0
 10
94.544445
 20
223.442362
 30
0.0
 10
101.883139
 20
220.506743
 30
0.0
 10
104.967194
 20
219.298369
 30
0.0
 10
106.002492
 20
218.834482
 30
0.0
 10
106.983252
 20
218.281067
 30
0.0
 10
107.771887
 20
217.845188
 30
0.0
 10
108.345264
 20
217.663893
 30
0.0
 10
109.007835
 20
217.384817
 30
0.0
 10
110.010918
 20
216.713849
 30
0.0
 10
111.363526
 20
215.724376
 30
0.0
 10
112.866439
 20
214.679538
 30
0.0
 10
114.318156
 20
213.633076
 30
0.0
 10
115.547670
 20
212.639703
 30
0.0
 10
120.443800
 20
209.166080
 30
0.0
  0
LWPOLYLINE
  5
10e
100
AcDbEntity
  8
Calque_1
 62
7
100
AcDbPolyline
 90
101
 70
1
 10
192.590991
 20
216.807998
 30
0.0
 10
192.851141
 20
217.280424
 30
0.0
 10
193.187281
 20
218.199940
 30
0.0
 10
193.556001
 20
219.139263
 30
0.0
 10
193.913901
 20
220.096931
 30
0.0
 10
194.639441
 20
223.630709
 30
0.0
 10
194.653241
 20
227.609865
 30
0.0
 10
194.021691
 20
231.218463
 30
0.0
 10
192.811251
 20
233.640568
 30
0.0
 10
192.440841
 20
234.067593
 30
0.0
 10
191.979791
 20
234.653485
 30
0.0
 10
191.486841
 20
235.321051
 30
0.0
 10
191.020751
 20
235.993098
 30
0.0
 10
189.792691
 20
237.552076
 30
0.0
 10
187.984341
 20
239.533994
 30
0.0
 10
184.140341
 20
243.184586
 30
0.0
 10
182.757021
 20
244.171264
 30
0.0
 10
181.151421
 20
245.135528
 30
0.0
 10
177.923741
 20
247.035416
 30
0.0
 10
176.170111
 20
248.395774
 30
0.0
 10
176.230011
 20
251.403744
 30
0.0
 10
177.749221
 20
253.709098
 30
0.0
 10
178.232861
 20
255.214243
 30
0.0
 10
177.893531
 20
256.961613
 30
0.0
 10
177.372631
 20
258.931902
 30
0.0
 10
177.167361
 20
260.246973
 30
0.0
 10
177.670951
 20
261.592930
 30
0.0
 10
179.537611
 20
262.050885
 30
0.0
 10
181.337121
 20
261.806585
 30
0.0
 10
184.164121
 20
261.220992
 30
0.0
 10
188.444681
 20
260.267432
 30
0.0
 10
191.106031
 20
259.645518
 30
0.0
 10
193.851401
 20
258.834969
 30
0.0
 10
202.681211
 20
255.779814
 30
0.0
 10
204.963901
 20
255.763894
 30
0.0
 10
204.808461
 20
256.013043
 30
0.0
 10
204.434731
 20
256.116672
 30
0.0
 10
204.061011
 20
256.261878
 30
0.0
 10
203.905571
 20
256.610991
 30
0.0
 10
202.768941
 20
257.749693
 30
0.0
 10
198.397651
 20
260.298881
 30
0.0
 10
195.004281
 20
261.906665
 30
0.0
 10
192.498871
 20
262.819450
 30
0.0
 10
192.056781
 20
262.910710
 30
0.0
 10
191.760761
 20
263.130111
 30
0.0
 10
191.390481
 20
263.403785
 30
0.0
 10
190.769811
 20
263.625527
 30
0.0
 10
189.480141
 20
263.979482
 30
0.0
 10
187.501401
 20
264.571028
 30
0.0
 10
182.665891
 20
265.953062
 30
0.0
 10
180.161721
 20
266.347233
 30
0.0
 10
179.013571
 20
266.447303
 30
0.0
 10
177.842241
 20
266.687900
 30
0.0
 10
175.716511
 20
267.044821
 30
0.0
 10
172.273751
 20
267.424567
 30
0.0
 10
169.376101
 20
267.628785
 30
0.0
 10
167.744501
 20
267.518617
 30
0.0
 10
167.025071
 20
266.999311
 30
0.0
 10
166.863901
 20
265.976114
 30
0.0
 10
166.980371
 20
265.385950
 30
0.0
 10
167.390611
 20
264.713672
 30
0.0
 10
167.734411
 20
264.310232
 30
0.0
 10
168.185871
 20
263.842453
 30
0.0
 10
168.756391
 20
263.295732
 30
0.0
 10
169.457381
 20
262.655466
 30
0.0
 10
171.437951
 20
260.697415
 30
0.0
 10
172.473401
 20
259.116664
 30
0.0
 10
172.673401
 20
257.641982
 30
0.0
 10
172.147601
 20
256.002141
 30
0.0
 10
171.688611
 20
255.205038
 30
0.0
 10
171.044121
 20
254.337933
 30
0.0
 10
170.270701
 20
253.470055
 30
0.0
 10
169.424941
 20
252.670631
 30
0.0
 10
167.807441
 20
251.243440
 30
0.0
 10
166.644611
 20
250.156136
 30
0.0
 10
165.862741
 20
248.767642
 30
0.0
 10
166.032421
 20
247.317800
 30
0.0
 10
167.071081
 20
245.995979
 30
0.0
 10
168.896161
 20
244.991551
 30
0.0
 10
175.241361
 20
242.588668
 30
0.0
 10
179.965421
 20
240.453928
 30
0.0
 10
183.444251
 20
238.395154
 30
0.0
 10
186.053771
 20
236.220172
 30
0.0
 10
188.584611
 20
233.114724
 30
0.0
 10
189.504601
 20
231.434998
 30
0.0
 10
190.210261
 20
229.620411
 30
0.0
 10
190.713561
 20
227.633316
 30
0.0
 10
191.026481
 20
225.436071
 30
0.0
 10
191.160991
 20
222.991030
 30
0.0
 10
191.129091
 20
220.260547
 30
0.0
 10
191.078891
 20
218.556062
 30
0.0
 10
191.065991
 20
217.131959
 30
0.0
 10
191.089791
 20
216.137202
 30
0.0
 10
191.149691
 20
215.720752
 30
0.0
 10
191.459881
 20
215.592549
 30
0.0
 10
191.821691
 20
215.744750
 30
0.0
 10
192.207851
 20
216.156764
 30
0.0
 10
192.591051
 20
216.808003
 30
0.0
 10
192.591051
 20
216.808003
 30
0.0
 10
192.591061
 20
216.808003
 30
0.0
 10
192.591061
 20
216.808003
 30
0.0
  0
LWPOLYLINE
  5
10f
100
AcDbEntity
  8
Calque_1
 62
7
100
AcDbPolyline
 90
92
 70
1
 10
125.000552
 20
218.668280
 30
0.0
 10
124.947792
 20
219.722859
 30
0.0
 10
124.956092
 20
220.747744
 30
0.0
 10
125.027642
 20
221.747344
 30
0.0
 10
125.164560
 20
222.726071
 30
0.0
 10
125.643117
 20
224.638548
 30
0.0
 10
126.408971
 20
226.520456
 30
0.0
 10
127.479303
 20
228.407083
 30
0.0
 10
128.871310
 20
230.333714
 30
0.0
 10
132.689116
 20
234.448125
 30
0.0
 10
134.724984
 20
236.220535
 30
0.0
 10
137.216515
 20
238.122539
 30
0.0
 10
139.810646
 20
239.898782
 30
0.0
 10
142.154317
 20
241.293912
 30
0.0
 10
145.804374
 20
243.828188
 30
0.0
 10
148.837106
 20
246.450786
 30
0.0
 10
149.565021
 20
248.790949
 30
0.0
 10
148.958077
 20
251.196776
 30
0.0
 10
148.090015
 20
252.261176
 30
0.0
 10
146.866641
 20
253.555117
 30
0.0
 10
145.096240
 20
256.167509
 30
0.0
 10
145.103840
 20
258.747773
 30
0.0
 10
146.277936
 20
260.665025
 30
0.0
 10
149.378445
 20
263.830511
 30
0.0
 10
150.003737
 20
264.471845
 30
0.0
 10
150.515797
 20
265.079466
 30
0.0
 10
150.861783
 20
265.584832
 30
0.0
 10
150.988854
 20
265.919400
 30
0.0
 10
150.792447
 20
266.655273
 30
0.0
 10
150.247408
 20
267.236862
 30
0.0
 10
149.420014
 20
267.617692
 30
0.0
 10
148.376538
 20
267.751287
 30
0.0
 10
145.925851
 20
267.535642
 30
0.0
 10
142.725268
 20
266.997997
 30
0.0
 10
139.475622
 20
266.275291
 30
0.0
 10
136.877743
 20
265.504463
 30
0.0
 10
135.134800
 20
264.881387
 30
0.0
 10
133.173576
 20
264.202759
 30
0.0
 10
130.273250
 20
263.023179
 30
0.0
 10
126.531856
 20
261.261680
 30
0.0
 10
122.870176
 20
259.372345
 30
0.0
 10
120.208993
 20
257.809257
 30
0.0
 10
118.920570
 20
256.786090
 30
0.0
 10
118.227115
 20
255.906388
 30
0.0
 10
118.187555
 20
255.290391
 30
0.0
 10
118.860820
 20
255.058339
 30
0.0
 10
120.310978
 20
255.482155
 30
0.0
 10
123.192557
 20
256.527220
 30
0.0
 10
126.604512
 20
257.853963
 30
0.0
 10
129.645798
 20
259.122811
 30
0.0
 10
134.047720
 20
260.850600
 30
0.0
 10
137.239701
 20
261.584995
 30
0.0
 10
140.580156
 20
260.127480
 30
0.0
 10
140.962278
 20
258.949909
 30
0.0
 10
140.411898
 20
257.889514
 30
0.0
 10
139.643923
 20
256.963327
 30
0.0
 10
138.834220
 20
256.192441
 30
0.0
 10
138.028570
 20
255.263981
 30
0.0
 10
137.889679
 20
254.733151
 30
0.0
 10
137.894279
 20
254.085134
 30
0.0
 10
138.501821
 20
253.142788
 30
0.0
 10
139.903811
 20
251.500694
 30
0.0
 10
141.298187
 20
249.785160
 30
0.0
 10
141.667700
 20
248.829073
 30
0.0
 10
141.523733
 20
248.307834
 30
0.0
 10
141.463853
 20
247.800609
 30
0.0
 10
140.353643
 20
246.260280
 30
0.0
 10
138.275550
 20
244.822272
 30
0.0
 10
137.537498
 20
244.434683
 30
0.0
 10
137.230520
 20
244.110670
 30
0.0
 10
136.450262
 20
243.326572
 30
0.0
 10
134.574322
 20
241.832819
 30
0.0
 10
131.742062
 20
239.461511
 30
0.0
 10
130.136228
 20
237.993478
 30
0.0
 10
128.662564
 20
236.567547
 30
0.0
 10
126.421725
 20
234.148321
 30
0.0
 10
124.835135
 20
231.965992
 30
0.0
 10
124.230163
 20
230.870226
 30
0.0
 10
123.720329
 20
229.721557
 30
0.0
 10
123.282824
 20
228.482610
 30
0.0
 10
122.894841
 20
227.116010
 30
0.0
 10
122.597971
 20
225.463054
 30
0.0
 10
122.481611
 20
223.642830
 30
0.0
 10
122.527881
 20
221.774821
 30
0.0
 10
122.718906
 20
219.978514
 30
0.0
 10
123.463706
 20
217.078945
 30
0.0
 10
124.572989
 20
215.900004
 30
0.0
 10
124.913121
 20
215.978384
 30
0.0
 10
125.078265
 20
216.339709
 30
0.0
 10
125.097645
 20
217.173250
 30
0.0
 10
125.000515
 20
218.668278
 30
0.0
 10
125.000524
 20
218.668278
 30
0.0
  0
LWPOLYLINE
  5
110
100
AcDbEntity
  8
Calque_1
 62
7
100
AcDbPolyline
 90
56
 70
1
 10
148.343057
 20
275.853640
 30
0.0
 10
152.400002
 20
276.585823
 30
0.0
 10
155.751390
 20
277.294183
 30
0.0
 10
158.733056
 20
277.846988
 30
0.0
 10
162.242611
 20
277.505762
 30
0.0
 10
164.508691
 20
277.005903
 30
0.0
 10
166.687501
 20
276.565595
 30
0.0
 10
170.215281
 20
275.827933
 30
0.0
 10
172.662671
 20
275.618475
 30
0.0
 10
176.565281
 20
275.592005
 30
0.0
 10
179.034731
 20
275.643925
 30
0.0
 10
181.504171
 20
275.695845
 30
0.0
 10
181.504171
 20
276.539718
 30
0.0
 10
180.577071
 20
278.050772
 30
0.0
 10
178.279131
 20
279.052945
 30
0.0
 10
174.858121
 20
279.794425
 30
0.0
 10
171.875981
 20
280.526455
 30
0.0
 10
167.922221
 20
281.779487
 30
0.0
 10
166.191661
 20
282.725608
 30
0.0
 10
163.764801
 20
284.219249
 30
0.0
 10
162.678231
 20
284.900262
 30
0.0
 10
161.776621
 20
285.414240
 30
0.0
 10
161.026861
 20
285.768448
 30
0.0
 10
160.395852
 20
285.970153
 30
0.0
 10
159.357667
 20
285.945113
 30
0.0
 10
158.397224
 20
285.397238
 30
0.0
 10
158.305774
 20
285.326928
 30
0.0
 10
158.213744
 20
285.258498
 30
0.0
 10
158.030366
 20
285.128757
 30
0.0
 10
157.851974
 20
285.010876
 30
0.0
 10
157.683457
 20
284.907716
 30
0.0
 10
157.529699
 20
284.822136
 30
0.0
 10
157.395589
 20
284.757006
 30
0.0
 10
157.286012
 20
284.715186
 30
0.0
 10
157.205852
 20
284.699526
 30
0.0
 10
156.876820
 20
284.594653
 30
0.0
 10
156.209681
 20
284.314890
 30
0.0
 10
155.301453
 20
283.902844
 30
0.0
 10
154.249151
 20
283.401124
 30
0.0
 10
152.004502
 20
282.408666
 30
0.0
 10
150.325243
 20
281.834805
 30
0.0
 10
148.698222
 20
281.415544
 30
0.0
 10
146.579166
 20
280.794777
 30
0.0
 10
144.316979
 20
280.166240
 30
0.0
 10
142.345833
 20
279.728302
 30
0.0
 10
139.367060
 20
279.098799
 30
0.0
 10
137.281594
 20
278.371110
 30
0.0
 10
136.025303
 20
277.514844
 30
0.0
 10
135.534057
 20
276.499609
 30
0.0
 10
135.610657
 20
275.736791
 30
0.0
 10
136.239617
 20
275.458526
 30
0.0
 10
138.586923
 20
275.383126
 30
0.0
 10
142.345395
 20
275.455126
 30
0.0
 10
146.076839
 20
275.627603
 30
0.0
 10
148.343059
 20
275.853619
 30
0.0
 10
148.343058
 20
275.853635
 30
0.0
  0
LWPOLYLINE
  5
111
100
AcDbEntity
  8
Calque_1
 62
7
100
AcDbPolyline
 90
110
 70
1
 10
221.544451
 20
61.291694
 30
0.0
 10
219.650311
 20
61.462284
 30
0.0
 10
217.687221
 20
61.768284
 30
0.0
 10
216.108481
 20
62.124894
 30
0.0
 10
215.367351
 20
62.447304
 30
0.0
 10
215.520721
 20
62.623974
 30
0.0
 10
216.056011
 20
62.914554
 30
0.0
 10
216.888961
 20
63.278724
 30
0.0
 10
217.935321
 20
63.676164
 30
0.0
 10
219.585021
 20
64.302764
 30
0.0
 10
221.350661
 20
65.044334
 30
0.0
 10
223.185731
 20
65.877594
 30
0.0
 10
225.043741
 20
66.779274
 30
0.0
 10
231.775001
 20
70.604494
 30
0.0
 10
238.019321
 20
75.748234
 30
0.0
 10
242.780231
 20
81.342624
 30
0.0
 10
246.003311
 20
87.502094
 30
0.0
 10
247.876011
 20
94.393064
 30
0.0
 10
248.608321
 20
98.786344
 30
0.0
 10
249.022761
 20
102.885044
 30
0.0
 10
249.242201
 20
105.738934
 30
0.0
 10
249.641201
 20
107.403534
 30
0.0
 10
250.442421
 20
108.366294
 30
0.0
 10
251.868511
 20
109.114634
 30
0.0
 10
252.889971
 20
109.479694
 30
0.0
 10
254.180961
 20
109.684984
 30
0.0
 10
256.179221
 20
109.768984
 30
0.0
 10
259.322551
 20
109.769984
 30
0.0
 10
263.741201
 20
109.639924
 30
0.0
 10
266.105801
 20
109.385554
 30
0.0
 10
270.822591
 20
108.634864
 30
0.0
 10
274.988711
 20
108.014034
 30
0.0
 10
281.340281
 20
106.867054
 30
0.0
 10
284.062471
 20
106.616914
 30
0.0
 10
286.664431
 20
106.649214
 30
0.0
 10
289.113281
 20
106.953384
 30
0.0
 10
291.376131
 20
107.518884
 30
0.0
 10
293.420071
 20
108.335154
 30
0.0
 10
295.212211
 20
109.391644
 30
0.0
 10
296.719681
 20
110.677794
 30
0.0
 10
297.909561
 20
112.183064
 30
0.0
 10
298.805131
 20
113.868954
 30
0.0
 10
299.597911
 20
115.895374
 30
0.0
 10
300.272161
 20
118.177864
 30
0.0
 10
300.812151
 20
120.631974
 30
0.0
 10
301.315161
 20
130.475424
 30
0.0
 10
300.747661
 20
137.759454
 30
0.0
 10
300.209381
 20
143.756674
 30
0.0
 10
299.338201
 20
148.695564
 30
0.0
 10
297.925951
 20
154.340014
 30
0.0
 10
297.041121
 20
159.102514
 30
0.0
 10
296.543701
 20
163.512234
 30
0.0
 10
296.130181
 20
165.525274
 30
0.0
 10
295.816671
 20
167.392784
 30
0.0
 10
295.506351
 20
169.260304
 30
0.0
 10
295.100441
 20
171.273344
 30
0.0
 10
294.646381
 20
173.390014
 30
0.0
 10
294.220281
 20
175.506674
 30
0.0
 10
293.202701
 20
180.094264
 30
0.0
 10
292.460041
 20
182.385844
 30
0.0
 10
291.616701
 20
186.386384
 30
0.0
 10
291.163461
 20
190.386344
 30
0.0
 10
292.245701
 20
188.713584
 30
0.0
 10
294.021911
 20
184.734354
 30
0.0
 10
297.737281
 20
173.624034
 30
0.0
 10
299.943581
 20
165.129514
 30
0.0
 10
300.979711
 20
161.778594
 30
0.0
 10
302.396901
 20
156.809924
 30
0.0
 10
303.292961
 20
152.399734
 30
0.0
 10
304.099401
 20
149.048344
 30
0.0
 10
305.293011
 20
143.933064
 30
0.0
 10
307.272731
 20
134.408064
 30
0.0
 10
308.675031
 20
126.294174
 30
0.0
 10
309.353971
 20
123.648344
 30
0.0
 10
310.431201
 20
120.296954
 30
0.0
 10
311.491671
 20
116.945564
 30
0.0
 10
312.384721
 20
114.652514
 30
0.0
 10
314.137431
 20
110.242784
 30
0.0
 10
315.386761
 20
107.244174
 30
0.0
 10
316.686451
 20
104.157174
 30
0.0
 10
317.385891
 20
101.276354
 30
0.0
 10
317.404491
 20
99.679794
 30
0.0
 10
316.679711
 20
98.630714
 30
0.0
 10
315.297311
 20
97.844414
 30
0.0
 10
311.430601
 20
97.718884
 30
0.0
 10
306.887991
 20
97.483244
 30
0.0
 10
302.563771
 20
96.752654
 30
0.0
 10
298.301401
 20
95.490814
 30
0.0
 10
293.944371
 20
93.661414
 30
0.0
 10
290.343731
 20
91.784054
 30
0.0
 10
288.043041
 20
90.131314
 30
0.0
 10
284.162481
 20
87.295854
 30
0.0
 10
281.650831
 20
85.353944
 30
0.0
 10
279.005001
 20
83.321824
 30
0.0
 10
276.565621
 20
81.381544
 30
0.0
 10
274.096171
 20
79.357734
 30
0.0
 10
270.474361
 20
76.512454
 30
0.0
 10
266.507011
 20
73.701774
 30
0.0
 10
262.337701
 20
71.022554
 30
0.0
 10
258.109981
 20
68.571674
 30
0.0
 10
254.840341
 20
66.640214
 30
0.0
 10
253.023391
 20
65.953054
 30
0.0
 10
249.061091
 20
64.566234
 30
0.0
 10
245.202821
 20
63.228764
 30
0.0
 10
238.913991
 20
62.072774
 30
0.0
 10
230.709771
 20
61.351474
 30
0.0
 10
221.544431
 20
61.291374
 30
0.0
 10
221.544441
 20
61.291384
 30
0.0
 10
221.544441
 20
61.291394
 30
0.0
 10
221.544451
 20
61.291404
 30
0.0
  0
ENDSEC
  0
SECTION
  2
OBJECTS
  0
DICTIONARY
  5
C
330
0
100
AcDbDictionary
  3
ACAD_GROUP
350
D
  3
ACAD_MLINESTYLE
350
17
  0
DICTIONARY
  5
D
330
C
100
AcDbDictionary
  0
DICTIONARY
  5
1A
330
C
100
AcDbDictionary
  0
DICTIONARY
  5
17
330
C
100
AcDbDictionary
  3
STANDARD
350
18
  0
DICTIONARY
  5
19
330
C
100
AcDbDictionary
  0
ENDSEC
  0
EOF
