  0
SECTION
  2
HEADER
  9
$ACADVER
  1
AC1014
  9
$HANDSEED
  5
FFFF
  9
$MEASUREMENT
 70
     1
  0
ENDSEC
  0
SECTION
  2
TABLES
  0
TABLE
  2
VPORT
  5
8
330
0
100
AcDbSymbolTable
 70
     4
  0
VPORT
  5
2E
330
8
100
AcDbSymbolTableRecord
100
AcDbViewportTableRecord
  2
*ACTIVE
 70
     0
 10
0.0
 20
0.0
 11
1.0
 21
1.0
 12
210.0
 22
148.5
 13
0.0
 23
0.0
 14
10.0
 24
10.0
 15
10.0
 25
10.0
 16
0.0
 26
0.0
 36
1.0
 17
0.0
 27
0.0
 37
0.0
 40
341.0
 41
1.24
 42
50.0
 43
0.0
 44
0.0
 50
0.0
 51
0.0
 71
     0
 72
   100
 73
     1
 74
     3
 75
     0
 76
     0
 77
     0
 78
     0
  0
ENDTAB
  0
TABLE
  2
LTYPE
  5
5
330
0
100
AcDbSymbolTable
 70
     1
  0
LTYPE
  5
14
330
5
100
AcDbSymbolTableRecord
100
AcDbLinetypeTableRecord
  2
BYBLOCK
 70
     0
  3

 72
    65
 73
     0
 40
0.0
  0
LTYPE
  5
15
330
5
100
AcDbSymbolTableRecord
100
AcDbLinetypeTableRecord
  2
BYLAYER
 70
     0
  3

 72
    65
 73
     0
 40
0.0
  0
LTYPE
  5
16
330
5
100
AcDbSymbolTableRecord
100
AcDbLinetypeTableRecord
  2
CONTINUOUS
 70
     0
  3
Solid line
 72
    65
 73
     0
 40
0.0
  0
ENDTAB
  0
TABLE
  2
LAYER
  5
2
100
AcDbSymbolTable
 70
1
  0
LAYER
  5
50
100
AcDbSymbolTableRecord
100
AcDbLayerTableRecord
  2
0
 70
0
  6
CONTINUOUS
  0
ENDTAB
  0
TABLE
  2
STYLE
  5
3
330
0
100
AcDbSymbolTable
 70
     1
  0
STYLE
  5
11
330
3
100
AcDbSymbolTableRecord
100
AcDbTextStyleTableRecord
  2
STANDARD
 70
     0
 40
0.0
 41
1.0
 50
0.0
 71
     0
 42
2.5
  3
txt
  4

  0
ENDTAB
  0
TABLE
  2
VIEW
  5
6
330
0
100
AcDbSymbolTable
 70
     0
  0
ENDTAB
  0
TABLE
  2
UCS
  5
7
330
0
100
AcDbSymbolTable
 70
     0
  0
ENDTAB
  0
TABLE
  2
APPID
  5
9
330
0
100
AcDbSymbolTable
 70
     2
  0
APPID
  5
12
330
9
100
AcDbSymbolTableRecord
100
AcDbRegAppTableRecord
  2
ACAD
 70
     0
  0
ENDTAB
  0
TABLE
  2
DIMSTYLE
  5
A
330
0
100
AcDbSymbolTable
 70
     1
  0
DIMSTYLE
105
27
330
A
100
AcDbSymbolTableRecord
100
AcDbDimStyleTableRecord
  2
ISO-25
 70
     0
  3

  4

  5

  6

  7

 40
1.0
 41
2.5
 42
0.625
 43
3.75
 44
1.25
 45
0.0
 46
0.0
 47
0.0
 48
0.0
140
2.5
141
2.5
142
0.0
143
0.03937007874016
144
1.0
145
0.0
146
1.0
147
0.625
 71
     0
 72
     0
 73
     0
 74
     0
 75
     0
 76
     0
 77
     1
 78
     8
170
     0
171
     3
172
     1
173
     0
174
     0
175
     0
176
     0
177
     0
178
     0
270
     2
271
     2
272
     2
273
     2
274
     3
340
11
275
     0
280
     0
281
     0
282
     0
283
     0
284
     8
285
     0
286
     0
287
     3
288
     0
  0
ENDTAB
  0
TABLE
  2
BLOCK_RECORD
  5
1
330
0
100
AcDbSymbolTable
 70
     1
  0
BLOCK_RECORD
  5
1F
330
1
100
AcDbSymbolTableRecord
100
AcDbBlockTableRecord
  2
*MODEL_SPACE
  0
BLOCK_RECORD
  5
1B
330
1
100
AcDbSymbolTableRecord
100
AcDbBlockTableRecord
  2
*PAPER_SPACE
  0
ENDTAB
  0
ENDSEC
  0
SECTION
  2
BLOCKS
  0
BLOCK
  5
20
330
1F
100
AcDbEntity
  8
0
100
AcDbBlockBegin
  2
*MODEL_SPACE
 70
     0
 10
0.0
 20
0.0
 30
0.0
  3
*MODEL_SPACE
  1

  0
ENDBLK
  5
21
330
1F
100
AcDbEntity
  8
0
100
AcDbBlockEnd
  0
BLOCK
  5
1C
330
1B
100
AcDbEntity
 67
     1
  8
0
100
AcDbBlockBegin
  2
*PAPER_SPACE
  1

  0
ENDBLK
  5
1D
330
1B
100
AcDbEntity
 67
     1
  8
0
100
AcDbBlockEnd
  0
ENDSEC
  0
SECTION
  2
ENTITIES
  0
LINE
  5
100
100
AcDbEntity
  8
0
 62
7
100
AcDbLine
 10
6.878361
 20
0.409456
 30
0.0
 11
6.020311
 21
2.014127
 31
0.0
  0
LINE
  5
101
100
AcDbEntity
  8
0
 62
7
100
AcDbLine
 10
6.020311
 20
2.014127
 30
0.0
 11
6.411863
 21
5.125151
 31
0.0
  0
LINE
  5
102
100
AcDbEntity
  8
0
 62
7
100
AcDbLine
 10
6.411863
 20
5.125151
 30
0.0
 11
13.876369
 21
25.355907
 31
0.0
  0
LINE
  5
103
100
AcDbEntity
  8
0
 62
7
100
AcDbLine
 10
13.876369
 20
25.355907
 30
0.0
 11
16.612344
 21
32.235074
 31
0.0
  0
LINE
  5
104
100
AcDbEntity
  8
0
 62
7
100
AcDbLine
 10
16.612344
 20
32.235074
 30
0.0
 11
21.213105
 21
43.876735
 31
0.0
  0
LINE
  5
105
100
AcDbEntity
  8
0
 62
7
100
AcDbLine
 10
21.213105
 20
43.876735
 30
0.0
 11
24.472640
 21
51.990628
 31
0.0
  0
LINE
  5
106
100
AcDbEntity
  8
0
 62
7
100
AcDbLine
 10
24.472640
 20
51.990628
 30
0.0
 11
28.828980
 21
62.458701
 31
0.0
  0
LINE
  5
107
100
AcDbEntity
  8
0
 62
7
100
AcDbLine
 10
28.828980
 20
62.458701
 30
0.0
 11
33.949882
 21
74.039241
 31
0.0
  0
LINE
  5
108
100
AcDbEntity
  8
0
 62
7
100
AcDbLine
 10
33.949882
 20
74.039241
 30
0.0
 11
34.951906
 21
76.269839
 31
0.0
  0
LINE
  5
109
100
AcDbEntity
  8
0
 62
7
100
AcDbLine
 10
34.951906
 20
76.269839
 30
0.0
 11
35.453837
 21
77.643143
 31
0.0
  0
LINE
  5
10a
100
AcDbEntity
  8
0
 62
7
100
AcDbLine
 10
35.453837
 20
77.643143
 30
0.0
 11
35.554699
 21
78.530564
 31
0.0
  0
LINE
  5
10b
100
AcDbEntity
  8
0
 62
7
100
AcDbLine
 10
35.554699
 20
78.530564
 30
0.0
 11
35.353523
 21
79.303518
 31
0.0
  0
LINE
  5
10c
100
AcDbEntity
  8
0
 62
7
100
AcDbLine
 10
35.353523
 20
79.303518
 30
0.0
 11
33.758186
 21
80.735609
 31
0.0
  0
LINE
  5
10d
100
AcDbEntity
  8
0
 62
7
100
AcDbLine
 10
33.758186
 20
80.735609
 30
0.0
 11
30.107087
 21
82.006509
 31
0.0
  0
LINE
  5
10e
100
AcDbEntity
  8
0
 62
7
100
AcDbLine
 10
30.107087
 20
82.006509
 30
0.0
 11
16.535484
 21
84.090708
 31
0.0
  0
LINE
  5
10f
100
AcDbEntity
  8
0
 62
7
100
AcDbLine
 10
16.535484
 20
84.090708
 30
0.0
 11
11.460960
 21
85.090087
 31
0.0
  0
LINE
  5
110
100
AcDbEntity
  8
0
 62
7
100
AcDbLine
 10
11.460960
 20
85.090087
 30
0.0
 11
7.272524
 21
87.285425
 31
0.0
  0
LINE
  5
111
100
AcDbEntity
  8
0
 62
7
100
AcDbLine
 10
7.272524
 20
87.285425
 30
0.0
 11
3.626191
 21
90.532545
 31
0.0
  0
LINE
  5
112
100
AcDbEntity
  8
0
 62
7
100
AcDbLine
 10
3.626191
 20
90.532545
 30
0.0
 11
1.046990
 21
94.259458
 31
0.0
  0
LINE
  5
113
100
AcDbEntity
  8
0
 62
7
100
AcDbLine
 10
1.046990
 20
94.259458
 30
0.0
 11
0.147092
 21
96.703399
 31
0.0
  0
LINE
  5
114
100
AcDbEntity
  8
0
 62
7
100
AcDbLine
 10
0.147092
 20
96.703399
 30
0.0
 11
0.132291
 21
100.265757
 31
0.0
  0
LINE
  5
115
100
AcDbEntity
  8
0
 62
7
100
AcDbLine
 10
0.132291
 20
100.265757
 30
0.0
 11
0.434340
 21
103.723181
 31
0.0
  0
LINE
  5
116
100
AcDbEntity
  8
0
 62
7
100
AcDbLine
 10
0.434340
 20
103.723181
 30
0.0
 11
1.311034
 21
105.923263
 31
0.0
  0
LINE
  5
117
100
AcDbEntity
  8
0
 62
7
100
AcDbLine
 10
1.311034
 20
105.923263
 30
0.0
 11
3.199391
 21
108.686148
 31
0.0
  0
LINE
  5
118
100
AcDbEntity
  8
0
 62
7
100
AcDbLine
 10
3.199391
 20
108.686148
 30
0.0
 11
5.902203
 21
111.342326
 31
0.0
  0
LINE
  5
119
100
AcDbEntity
  8
0
 62
7
100
AcDbLine
 10
5.902203
 20
111.342326
 30
0.0
 11
9.704056
 21
114.129989
 31
0.0
  0
LINE
  5
11a
100
AcDbEntity
  8
0
 62
7
100
AcDbLine
 10
9.704056
 20
114.129989
 30
0.0
 11
14.889537
 21
117.287305
 31
0.0
  0
LINE
  5
11b
100
AcDbEntity
  8
0
 62
7
100
AcDbLine
 10
14.889537
 20
117.287305
 30
0.0
 11
19.333823
 21
119.774248
 31
0.0
  0
LINE
  5
11c
100
AcDbEntity
  8
0
 62
7
100
AcDbLine
 10
19.333823
 20
119.774248
 30
0.0
 11
23.745353
 21
122.123764
 31
0.0
  0
LINE
  5
11d
100
AcDbEntity
  8
0
 62
7
100
AcDbLine
 10
23.745353
 20
122.123764
 30
0.0
 11
28.125953
 21
124.336715
 31
0.0
  0
LINE
  5
11e
100
AcDbEntity
  8
0
 62
7
100
AcDbLine
 10
28.125953
 20
124.336715
 30
0.0
 11
32.477502
 21
126.413974
 31
0.0
  0
LINE
  5
11f
100
AcDbEntity
  8
0
 62
7
100
AcDbLine
 10
32.477502
 20
126.413974
 30
0.0
 11
36.801878
 21
128.356400
 31
0.0
  0
LINE
  5
120
100
AcDbEntity
  8
0
 62
7
100
AcDbLine
 10
36.801878
 20
128.356400
 30
0.0
 11
41.100934
 21
130.164859
 31
0.0
  0
LINE
  5
121
100
AcDbEntity
  8
0
 62
7
100
AcDbLine
 10
41.100934
 20
130.164859
 30
0.0
 11
45.376548
 21
131.840221
 31
0.0
  0
LINE
  5
122
100
AcDbEntity
  8
0
 62
7
100
AcDbLine
 10
45.376548
 20
131.840221
 30
0.0
 11
49.630598
 21
133.383353
 31
0.0
  0
LINE
  5
123
100
AcDbEntity
  8
0
 62
7
100
AcDbLine
 10
49.630598
 20
133.383353
 30
0.0
 11
55.015689
 21
135.743593
 31
0.0
  0
LINE
  5
124
100
AcDbEntity
  8
0
 62
7
100
AcDbLine
 10
55.015689
 20
135.743593
 30
0.0
 11
55.445875
 21
136.314752
 31
0.0
  0
LINE
  5
125
100
AcDbEntity
  8
0
 62
7
100
AcDbLine
 10
55.445875
 20
136.314751
 30
0.0
 11
55.791659
 21
137.242897
 31
0.0
  0
LINE
  5
126
100
AcDbEntity
  8
0
 62
7
100
AcDbLine
 10
55.791659
 20
137.242897
 30
0.0
 11
56.118764
 21
138.767680
 31
0.0
  0
LINE
  5
127
100
AcDbEntity
  8
0
 62
7
100
AcDbLine
 10
56.118764
 20
138.767680
 30
0.0
 11
56.492937
 21
141.128742
 31
0.0
  0
LINE
  5
128
100
AcDbEntity
  8
0
 62
7
100
AcDbLine
 10
56.492937
 20
141.128742
 30
0.0
 11
57.032952
 21
144.220226
 31
0.0
  0
LINE
  5
129
100
AcDbEntity
  8
0
 62
7
100
AcDbLine
 10
57.032952
 20
144.220226
 30
0.0
 11
57.716741
 21
147.060962
 31
0.0
  0
LINE
  5
12a
100
AcDbEntity
  8
0
 62
7
100
AcDbLine
 10
57.716741
 20
147.060962
 30
0.0
 11
58.561926
 21
149.688203
 31
0.0
  0
LINE
  5
12b
100
AcDbEntity
  8
0
 62
7
100
AcDbLine
 10
58.561926
 20
149.688203
 30
0.0
 11
59.586022
 21
152.139213
 31
0.0
  0
LINE
  5
12c
100
AcDbEntity
  8
0
 62
7
100
AcDbLine
 10
59.586022
 20
152.139213
 30
0.0
 11
60.806598
 21
154.451248
 31
0.0
  0
LINE
  5
12d
100
AcDbEntity
  8
0
 62
7
100
AcDbLine
 10
60.806598
 20
154.451248
 30
0.0
 11
62.241222
 21
156.661572
 31
0.0
  0
LINE
  5
12e
100
AcDbEntity
  8
0
 62
7
100
AcDbLine
 10
62.241222
 20
156.661572
 30
0.0
 11
63.907435
 21
158.807444
 31
0.0
  0
LINE
  5
12f
100
AcDbEntity
  8
0
 62
7
100
AcDbLine
 10
63.907435
 20
158.807444
 30
0.0
 11
65.822834
 21
160.926119
 31
0.0
  0
LINE
  5
130
100
AcDbEntity
  8
0
 62
7
100
AcDbLine
 10
65.822834
 20
160.926119
 30
0.0
 11
68.492374
 21
163.513209
 31
0.0
  0
LINE
  5
131
100
AcDbEntity
  8
0
 62
7
100
AcDbLine
 10
68.492374
 20
163.513209
 30
0.0
 11
70.908099
 21
165.427044
 31
0.0
  0
LINE
  5
132
100
AcDbEntity
  8
0
 62
7
100
AcDbLine
 10
70.908099
 20
165.427044
 30
0.0
 11
73.324089
 21
166.842699
 31
0.0
  0
LINE
  5
133
100
AcDbEntity
  8
0
 62
7
100
AcDbLine
 10
73.324089
 20
166.842699
 30
0.0
 11
75.994396
 21
167.935243
 31
0.0
  0
LINE
  5
134
100
AcDbEntity
  8
0
 62
7
100
AcDbLine
 10
75.994396
 20
167.935243
 30
0.0
 11
79.296925
 21
168.785077
 31
0.0
  0
LINE
  5
135
100
AcDbEntity
  8
0
 62
7
100
AcDbLine
 10
79.296925
 20
168.785077
 30
0.0
 11
81.304927
 21
168.910984
 31
0.0
  0
LINE
  5
136
100
AcDbEntity
  8
0
 62
7
100
AcDbLine
 10
81.304927
 20
168.910984
 30
0.0
 11
84.379200
 21
168.936464
 31
0.0
  0
LINE
  5
137
100
AcDbEntity
  8
0
 62
7
100
AcDbLine
 10
84.379200
 20
168.936466
 30
0.0
 11
88.087151
 21
168.863587
 31
0.0
  0
LINE
  5
138
100
AcDbEntity
  8
0
 62
7
100
AcDbLine
 10
88.087151
 20
168.863587
 30
0.0
 11
90.761109
 21
168.540726
 31
0.0
  0
LINE
  5
139
100
AcDbEntity
  8
0
 62
7
100
AcDbLine
 10
90.761109
 20
168.540726
 30
0.0
 11
93.154107
 21
167.811532
 31
0.0
  0
LINE
  5
13a
100
AcDbEntity
  8
0
 62
7
100
AcDbLine
 10
93.154107
 20
167.811532
 30
0.0
 11
96.019068
 21
166.519675
 31
0.0
  0
LINE
  5
13b
100
AcDbEntity
  8
0
 62
7
100
AcDbLine
 10
96.019068
 20
166.519675
 30
0.0
 11
98.664319
 21
164.805910
 31
0.0
  0
LINE
  5
13c
100
AcDbEntity
  8
0
 62
7
100
AcDbLine
 10
98.664319
 20
164.805910
 30
0.0
 11
102.228098
 21
161.528130
 31
0.0
  0
LINE
  5
13d
100
AcDbEntity
  8
0
 62
7
100
AcDbLine
 10
102.228098
 20
161.528130
 30
0.0
 11
104.373551
 21
159.274402
 31
0.0
  0
LINE
  5
13e
100
AcDbEntity
  8
0
 62
7
100
AcDbLine
 10
104.373551
 20
159.274402
 30
0.0
 11
106.207325
 21
157.052298
 31
0.0
  0
LINE
  5
13f
100
AcDbEntity
  8
0
 62
7
100
AcDbLine
 10
106.207325
 20
157.052298
 30
0.0
 11
107.757969
 21
154.803687
 31
0.0
  0
LINE
  5
140
100
AcDbEntity
  8
0
 62
7
100
AcDbLine
 10
107.757969
 20
154.803687
 30
0.0
 11
109.054083
 21
152.470445
 31
0.0
  0
LINE
  5
141
100
AcDbEntity
  8
0
 62
7
100
AcDbLine
 10
109.054083
 20
152.470445
 30
0.0
 11
110.124323
 21
149.994459
 31
0.0
  0
LINE
  5
142
100
AcDbEntity
  8
0
 62
7
100
AcDbLine
 10
110.124323
 20
149.994459
 30
0.0
 11
110.997210
 21
147.317592
 31
0.0
  0
LINE
  5
143
100
AcDbEntity
  8
0
 62
7
100
AcDbLine
 10
110.997210
 20
147.317592
 30
0.0
 11
111.701398
 21
144.381725
 31
0.0
  0
LINE
  5
144
100
AcDbEntity
  8
0
 62
7
100
AcDbLine
 10
111.701398
 20
144.381725
 30
0.0
 11
112.265490
 21
141.128739
 31
0.0
  0
LINE
  5
145
100
AcDbEntity
  8
0
 62
7
100
AcDbLine
 10
112.265490
 20
141.128739
 30
0.0
 11
112.798705
 21
138.021116
 31
0.0
  0
LINE
  5
146
100
AcDbEntity
  8
0
 62
7
100
AcDbLine
 10
112.798705
 20
138.021116
 30
0.0
 11
113.436298
 21
136.188894
 31
0.0
  0
LINE
  5
147
100
AcDbEntity
  8
0
 62
7
100
AcDbLine
 10
113.436298
 20
136.188894
 30
0.0
 11
114.454414
 21
135.153858
 31
0.0
  0
LINE
  5
148
100
AcDbEntity
  8
0
 62
7
100
AcDbLine
 10
114.454414
 20
135.153858
 30
0.0
 11
116.129200
 21
134.437789
 31
0.0
  0
LINE
  5
149
100
AcDbEntity
  8
0
 62
7
100
AcDbLine
 10
116.129200
 20
134.437789
 30
0.0
 11
121.244496
 21
132.596464
 31
0.0
  0
LINE
  5
14a
100
AcDbEntity
  8
0
 62
7
100
AcDbLine
 10
121.244496
 20
132.596464
 30
0.0
 11
125.654200
 21
131.022368
 31
0.0
  0
LINE
  5
14b
100
AcDbEntity
  8
0
 62
7
100
AcDbLine
 10
125.654200
 20
131.022368
 30
0.0
 11
129.005598
 21
129.607080
 31
0.0
  0
LINE
  5
14c
100
AcDbEntity
  8
0
 62
7
100
AcDbLine
 10
129.005598
 20
129.607080
 30
0.0
 11
133.208504
 21
127.782055
 31
0.0
  0
LINE
  5
14d
100
AcDbEntity
  8
0
 62
7
100
AcDbLine
 10
133.208504
 20
127.782055
 30
0.0
 11
138.935040
 21
125.188104
 31
0.0
  0
LINE
  5
14e
100
AcDbEntity
  8
0
 62
7
100
AcDbLine
 10
138.935040
 20
125.188104
 30
0.0
 11
146.327657
 21
121.413455
 31
0.0
  0
LINE
  5
14f
100
AcDbEntity
  8
0
 62
7
100
AcDbLine
 10
146.327657
 20
121.413455
 30
0.0
 11
153.839707
 21
117.278849
 31
0.0
  0
LINE
  5
150
100
AcDbEntity
  8
0
 62
7
100
AcDbLine
 10
153.839707
 20
117.278848
 30
0.0
 11
159.924542
 21
113.605011
 31
0.0
  0
LINE
  5
151
100
AcDbEntity
  8
0
 62
7
100
AcDbLine
 10
159.924542
 20
113.605011
 30
0.0
 11
164.396106
 21
109.992433
 31
0.0
  0
LINE
  5
152
100
AcDbEntity
  8
0
 62
7
100
AcDbLine
 10
164.396106
 20
109.992433
 30
0.0
 11
167.435269
 21
105.951554
 31
0.0
  0
LINE
  5
153
100
AcDbEntity
  8
0
 62
7
100
AcDbLine
 10
167.435269
 20
105.951554
 30
0.0
 11
168.322869
 21
103.729724
 31
0.0
  0
LINE
  5
154
100
AcDbEntity
  8
0
 62
7
100
AcDbLine
 10
168.322869
 20
103.729724
 30
0.0
 11
168.626132
 21
100.265757
 31
0.0
  0
LINE
  5
155
100
AcDbEntity
  8
0
 62
7
100
AcDbLine
 10
168.626132
 20
100.265757
 30
0.0
 11
168.611236
 21
96.702594
 31
0.0
  0
LINE
  5
156
100
AcDbEntity
  8
0
 62
7
100
AcDbLine
 10
168.611236
 20
96.702594
 30
0.0
 11
167.706218
 21
94.259456
 31
0.0
  0
LINE
  5
157
100
AcDbEntity
  8
0
 62
7
100
AcDbLine
 10
167.706229
 20
94.259456
 30
0.0
 11
163.471229
 21
88.906673
 31
0.0
  0
LINE
  5
158
100
AcDbEntity
  8
0
 62
7
100
AcDbLine
 10
163.471229
 20
88.906673
 30
0.0
 11
157.581022
 21
85.182191
 31
0.0
  0
LINE
  5
159
100
AcDbEntity
  8
0
 62
7
100
AcDbLine
 10
157.581022
 20
85.182191
 30
0.0
 11
155.202243
 21
84.578576
 31
0.0
  0
LINE
  5
15a
100
AcDbEntity
  8
0
 62
7
100
AcDbLine
 10
155.202243
 20
84.578576
 30
0.0
 11
152.072635
 21
84.096230
 31
0.0
  0
LINE
  5
15b
100
AcDbEntity
  8
0
 62
7
100
AcDbLine
 10
152.072635
 20
84.096230
 30
0.0
 11
140.067605
 21
82.328083
 31
0.0
  0
LINE
  5
15c
100
AcDbEntity
  8
0
 62
7
100
AcDbLine
 10
140.067605
 20
82.328083
 30
0.0
 11
136.256658
 21
81.361092
 31
0.0
  0
LINE
  5
15d
100
AcDbEntity
  8
0
 62
7
100
AcDbLine
 10
136.256658
 20
81.361092
 30
0.0
 11
134.206777
 21
80.400880
 31
0.0
  0
LINE
  5
15e
100
AcDbEntity
  8
0
 62
7
100
AcDbLine
 10
134.206777
 20
80.400880
 30
0.0
 11
133.492797
 21
79.465786
 31
0.0
  0
LINE
  5
15f
100
AcDbEntity
  8
0
 62
7
100
AcDbLine
 10
133.492797
 20
79.465786
 30
0.0
 11
133.328506
 21
78.238419
 31
0.0
  0
LINE
  5
160
100
AcDbEntity
  8
0
 62
7
100
AcDbLine
 10
133.328506
 20
78.238419
 30
0.0
 11
133.727818
 21
76.545969
 31
0.0
  0
LINE
  5
161
100
AcDbEntity
  8
0
 62
7
100
AcDbLine
 10
133.727818
 20
76.545969
 30
0.0
 11
134.704644
 21
74.215622
 31
0.0
  0
LINE
  5
162
100
AcDbEntity
  8
0
 62
7
100
AcDbLine
 10
134.704644
 20
74.215622
 30
0.0
 11
139.767830
 21
62.838560
 31
0.0
  0
LINE
  5
163
100
AcDbEntity
  8
0
 62
7
100
AcDbLine
 10
139.767830
 20
62.838560
 30
0.0
 11
144.285788
 21
51.990622
 31
0.0
  0
LINE
  5
164
100
AcDbEntity
  8
0
 62
7
100
AcDbLine
 10
144.285788
 20
51.990622
 30
0.0
 11
147.540402
 21
43.876733
 31
0.0
  0
LINE
  5
165
100
AcDbEntity
  8
0
 62
7
100
AcDbLine
 10
147.540402
 20
43.876733
 30
0.0
 11
152.157222
 21
32.235074
 31
0.0
  0
LINE
  5
166
100
AcDbEntity
  8
0
 62
7
100
AcDbLine
 10
152.157222
 20
32.235074
 30
0.0
 11
155.075100
 21
25.003112
 31
0.0
  0
LINE
  5
167
100
AcDbEntity
  8
0
 62
7
100
AcDbLine
 10
155.075100
 20
25.003112
 30
0.0
 11
162.388607
 21
4.987144
 31
0.0
  0
LINE
  5
168
100
AcDbEntity
  8
0
 62
7
100
AcDbLine
 10
162.388607
 20
4.987144
 30
0.0
 11
162.748760
 21
2.010106
 31
0.0
  0
LINE
  5
169
100
AcDbEntity
  8
0
 62
7
100
AcDbLine
 10
162.748760
 20
2.010106
 30
0.0
 11
161.880051
 21
0.409456
 31
0.0
  0
LINE
  5
16a
100
AcDbEntity
  8
0
 62
7
100
AcDbLine
 10
161.880051
 20
0.409456
 30
0.0
 11
152.801694
 21
0.219750
 31
0.0
  0
LINE
  5
16b
100
AcDbEntity
  8
0
 62
7
100
AcDbLine
 10
152.801694
 20
0.219750
 30
0.0
 11
131.563246
 21
0.137702
 31
0.0
  0
LINE
  5
16c
100
AcDbEntity
  8
0
 62
7
100
AcDbLine
 10
131.563246
 20
0.137702
 30
0.0
 11
105.400465
 21
0.225332
 31
0.0
  0
LINE
  5
16d
100
AcDbEntity
  8
0
 62
7
100
AcDbLine
 10
105.400465
 20
0.225332
 30
0.0
 11
100.943414
 21
0.854221
 31
0.0
  0
LINE
  5
16e
100
AcDbEntity
  8
0
 62
7
100
AcDbLine
 10
100.943414
 20
0.854221
 30
0.0
 11
99.134002
 21
3.994719
 31
0.0
  0
LINE
  5
16f
100
AcDbEntity
  8
0
 62
7
100
AcDbLine
 10
99.134002
 20
3.994719
 30
0.0
 11
97.085154
 21
9.011087
 31
0.0
  0
LINE
  5
170
100
AcDbEntity
  8
0
 62
7
100
AcDbLine
 10
97.085154
 20
9.011087
 30
0.0
 11
87.846539
 21
28.971862
 31
0.0
  0
LINE
  5
171
100
AcDbEntity
  8
0
 62
7
100
AcDbLine
 10
87.846539
 20
28.971862
 30
0.0
 11
86.471319
 21
31.718528
 31
0.0
  0
LINE
  5
172
100
AcDbEntity
  8
0
 62
7
100
AcDbLine
 10
86.471319
 20
31.718528
 30
0.0
 11
85.499171
 21
33.483471
 31
0.0
  0
LINE
  5
173
100
AcDbEntity
  8
0
 62
7
100
AcDbLine
 10
85.499171
 20
33.483471
 30
0.0
 11
84.379200
 21
34.704515
 31
0.0
  0
LINE
  5
174
100
AcDbEntity
  8
0
 62
7
100
AcDbLine
 10
84.379200
 20
34.704515
 30
0.0
 11
83.259251
 21
33.483471
 31
0.0
  0
LINE
  5
175
100
AcDbEntity
  8
0
 62
7
100
AcDbLine
 10
83.259251
 20
33.483471
 30
0.0
 11
82.287108
 21
31.718528
 31
0.0
  0
LINE
  5
176
100
AcDbEntity
  8
0
 62
7
100
AcDbLine
 10
82.287108
 20
31.718528
 30
0.0
 11
80.911889
 21
28.971862
 31
0.0
  0
LINE
  5
177
100
AcDbEntity
  8
0
 62
7
100
AcDbLine
 10
80.911889
 20
28.971862
 30
0.0
 11
71.673247
 21
9.011087
 31
0.0
  0
LINE
  5
178
100
AcDbEntity
  8
0
 62
7
100
AcDbLine
 10
71.673247
 20
9.011087
 30
0.0
 11
69.654133
 21
4.086265
 31
0.0
  0
LINE
  5
179
100
AcDbEntity
  8
0
 62
7
100
AcDbLine
 10
69.654133
 20
4.086265
 30
0.0
 11
67.822660
 21
0.926028
 31
0.0
  0
LINE
  5
17a
100
AcDbEntity
  8
0
 62
7
100
AcDbLine
 10
67.822660
 20
0.926028
 30
0.0
 11
67.444134
 21
0.529153
 31
0.0
  0
LINE
  5
17b
100
AcDbEntity
  8
0
 62
7
100
AcDbLine
 10
67.444134
 20
0.529153
 30
0.0
 11
67.065608
 21
0.132278
 31
0.0
  0
LINE
  5
17c
100
AcDbEntity
  8
0
 62
7
100
AcDbLine
 10
67.065608
 20
0.132278
 30
0.0
 11
52.123516
 21
0.134924
 31
0.0
  0
LINE
  5
17d
100
AcDbEntity
  8
0
 62
7
100
AcDbLine
 10
52.123516
 20
0.134924
 30
0.0
 11
37.181423
 21
0.137570
 31
0.0
  0
LINE
  5
17e
100
AcDbEntity
  8
0
 62
7
100
AcDbLine
 10
37.181423
 20
0.137676
 30
0.0
 11
15.952683
 21
0.219697
 31
0.0
  0
LINE
  5
17f
100
AcDbEntity
  8
0
 62
7
100
AcDbLine
 10
15.952683
 20
0.219697
 30
0.0
 11
6.878361
 21
0.409456
 31
0.0
  0
LINE
  5
180
100
AcDbEntity
  8
0
 62
7
100
AcDbLine
 10
6.878361
 20
0.409456
 30
0.0
 11
6.878361
 21
0.409456
 31
0.0
  0
LINE
  5
181
100
AcDbEntity
  8
0
 62
7
100
AcDbLine
 10
6.878361
 20
0.409456
 30
0.0
 11
6.878361
 21
0.409456
 31
0.0
  0
ENDSEC
  0
SECTION
  2
OBJECTS
  0
DICTIONARY
  5
C
330
0
100
AcDbDictionary
  3
ACAD_GROUP
350
D
  3
ACAD_MLINESTYLE
350
17
  0
DICTIONARY
  5
D
330
C
100
AcDbDictionary
  0
DICTIONARY
  5
1A
330
C
100
AcDbDictionary
  0
DICTIONARY
  5
17
330
C
100
AcDbDictionary
  3
STANDARD
350
18
  0
DICTIONARY
  5
19
330
C
100
AcDbDictionary
  0
ENDSEC
  0
EOF
