<?xml version="1.0" encoding="UTF-8" standalone="no"?>
<!-- Created with Inkscape (http://www.inkscape.org/) -->

<svg
   xmlns:dc="http://purl.org/dc/elements/1.1/"
   xmlns:cc="http://creativecommons.org/ns#"
   xmlns:rdf="http://www.w3.org/1999/02/22-rdf-syntax-ns#"
   xmlns:svg="http://www.w3.org/2000/svg"
   xmlns="http://www.w3.org/2000/svg"
   xmlns:sodipodi="http://sodipodi.sourceforge.net/DTD/sodipodi-0.dtd"
   xmlns:inkscape="http://www.inkscape.org/namespaces/inkscape"
   width="530.66864mm"
   height="543.90613mm"
   viewBox="0 0 530.66864 543.90613"
   version="1.1"
   id="svg8"
   inkscape:version="0.92.4 5da689c313, 2019-01-14"
   sodipodi:docname="crosse_hockey.svg">
  <defs
     id="defs2" />
  <sodipodi:namedview
     id="base"
     pagecolor="#ffffff"
     bordercolor="#666666"
     borderopacity="1.0"
     inkscape:pageopacity="0.0"
     inkscape:pageshadow="2"
     inkscape:zoom="0.35"
     inkscape:cx="1456.8862"
     inkscape:cy="817.00416"
     inkscape:document-units="mm"
     inkscape:current-layer="layer1"
     showgrid="false"
     inkscape:window-width="1280"
     inkscape:window-height="992"
     inkscape:window-x="0"
     inkscape:window-y="0"
     inkscape:window-maximized="1" />
  <metadata
     id="metadata5">
    <rdf:RDF>
      <cc:Work
         rdf:about="">
        <dc:format>image/svg+xml</dc:format>
        <dc:type
           rdf:resource="http://purl.org/dc/dcmitype/StillImage" />
        <dc:title></dc:title>
      </cc:Work>
    </rdf:RDF>
  </metadata>
  <g
     inkscape:label="Calque 1"
     inkscape:groupmode="layer"
     id="layer1"
     transform="translate(234.8302,111.21007)">
    <path
       style="fill:#000000;stroke-width:1.47800612"
       d="m 125.74329,401.21702 c -14.90808,5.87745 -51.722024,39.63977 -67.875039,30.4799 C 47.258301,420.69525 34.7899,393.85566 38.963096,379.97685 77.116425,346.48652 125.70671,349.66893 163.06725,310.21082 c 7.46853,-19.47092 11.31576,-40.04081 13.10533,-56.45349 11.55827,-60.10867 13.27542,-120.57468 17.58772,-165.912039 5.10987,-65.744886 3.97612,-91.8237637 13.58899,-140.803401 1.48468,-1.555682 -0.31442,-13.067936 10.21262,-9.258808 7.11276,2.573699 13.2495,5.506047 13.63718,6.516331 0.38768,1.010282 3.66444,27.400875 0.82117,58.5682339 l -5.17535,56.7313501 c -4.66454,83.861243 -12.74128,178.804763 -19.24854,257.913473 -0.17513,23.50563 -5.02172,26.41757 -7.94362,31.92135 -4.66345,8.78419 -21.45074,23.95898 -31.08913,28.71945"
       id="path928"
       inkscape:connector-curvature="0"
       sodipodi:nodetypes="cccccccssscccc" />
  </g>
</svg>
