  0
SECTION
  2
HEADER
  9
$ACADVER
  1
AC1014
  9
$HANDSEED
  5
FFFF
  9
$MEASUREMENT
 70
     1
  0
ENDSEC
  0
SECTION
  2
TABLES
  0
TABLE
  2
VPORT
  5
8
330
0
100
AcDbSymbolTable
 70
     4
  0
VPORT
  5
2E
330
8
100
AcDbSymbolTableRecord
100
AcDbViewportTableRecord
  2
*ACTIVE
 70
     0
 10
0.0
 20
0.0
 11
1.0
 21
1.0
 12
210.0
 22
148.5
 13
0.0
 23
0.0
 14
10.0
 24
10.0
 15
10.0
 25
10.0
 16
0.0
 26
0.0
 36
1.0
 17
0.0
 27
0.0
 37
0.0
 40
341.0
 41
1.24
 42
50.0
 43
0.0
 44
0.0
 50
0.0
 51
0.0
 71
     0
 72
   100
 73
     1
 74
     3
 75
     0
 76
     0
 77
     0
 78
     0
  0
ENDTAB
  0
TABLE
  2
LTYPE
  5
5
330
0
100
AcDbSymbolTable
 70
     1
  0
LTYPE
  5
14
330
5
100
AcDbSymbolTableRecord
100
AcDbLinetypeTableRecord
  2
BYBLOCK
 70
     0
  3

 72
    65
 73
     0
 40
0.0
  0
LTYPE
  5
15
330
5
100
AcDbSymbolTableRecord
100
AcDbLinetypeTableRecord
  2
BYLAYER
 70
     0
  3

 72
    65
 73
     0
 40
0.0
  0
LTYPE
  5
16
330
5
100
AcDbSymbolTableRecord
100
AcDbLinetypeTableRecord
  2
CONTINUOUS
 70
     0
  3
Solid line
 72
    65
 73
     0
 40
0.0
  0
ENDTAB
  0
TABLE
  2
LAYER
  5
2
100
AcDbSymbolTable
 70
1
  0
LAYER
  5
50
100
AcDbSymbolTableRecord
100
AcDbLayerTableRecord
  2
0
 70
0
  6
CONTINUOUS
  0
ENDTAB
  0
TABLE
  2
STYLE
  5
3
330
0
100
AcDbSymbolTable
 70
     1
  0
STYLE
  5
11
330
3
100
AcDbSymbolTableRecord
100
AcDbTextStyleTableRecord
  2
STANDARD
 70
     0
 40
0.0
 41
1.0
 50
0.0
 71
     0
 42
2.5
  3
txt
  4

  0
ENDTAB
  0
TABLE
  2
VIEW
  5
6
330
0
100
AcDbSymbolTable
 70
     0
  0
ENDTAB
  0
TABLE
  2
UCS
  5
7
330
0
100
AcDbSymbolTable
 70
     0
  0
ENDTAB
  0
TABLE
  2
APPID
  5
9
330
0
100
AcDbSymbolTable
 70
     2
  0
APPID
  5
12
330
9
100
AcDbSymbolTableRecord
100
AcDbRegAppTableRecord
  2
ACAD
 70
     0
  0
ENDTAB
  0
TABLE
  2
DIMSTYLE
  5
A
330
0
100
AcDbSymbolTable
 70
     1
  0
DIMSTYLE
105
27
330
A
100
AcDbSymbolTableRecord
100
AcDbDimStyleTableRecord
  2
ISO-25
 70
     0
  3

  4

  5

  6

  7

 40
1.0
 41
2.5
 42
0.625
 43
3.75
 44
1.25
 45
0.0
 46
0.0
 47
0.0
 48
0.0
140
2.5
141
2.5
142
0.0
143
0.03937007874016
144
1.0
145
0.0
146
1.0
147
0.625
 71
     0
 72
     0
 73
     0
 74
     0
 75
     0
 76
     0
 77
     1
 78
     8
170
     0
171
     3
172
     1
173
     0
174
     0
175
     0
176
     0
177
     0
178
     0
270
     2
271
     2
272
     2
273
     2
274
     3
340
11
275
     0
280
     0
281
     0
282
     0
283
     0
284
     8
285
     0
286
     0
287
     3
288
     0
  0
ENDTAB
  0
TABLE
  2
BLOCK_RECORD
  5
1
330
0
100
AcDbSymbolTable
 70
     1
  0
BLOCK_RECORD
  5
1F
330
1
100
AcDbSymbolTableRecord
100
AcDbBlockTableRecord
  2
*MODEL_SPACE
  0
BLOCK_RECORD
  5
1B
330
1
100
AcDbSymbolTableRecord
100
AcDbBlockTableRecord
  2
*PAPER_SPACE
  0
ENDTAB
  0
ENDSEC
  0
SECTION
  2
BLOCKS
  0
BLOCK
  5
20
330
1F
100
AcDbEntity
  8
0
100
AcDbBlockBegin
  2
*MODEL_SPACE
 70
     0
 10
0.0
 20
0.0
 30
0.0
  3
*MODEL_SPACE
  1

  0
ENDBLK
  5
21
330
1F
100
AcDbEntity
  8
0
100
AcDbBlockEnd
  0
BLOCK
  5
1C
330
1B
100
AcDbEntity
 67
     1
  8
0
100
AcDbBlockBegin
  2
*PAPER_SPACE
  1

  0
ENDBLK
  5
1D
330
1B
100
AcDbEntity
 67
     1
  8
0
100
AcDbBlockEnd
  0
ENDSEC
  0
SECTION
  2
ENTITIES
  0
LWPOLYLINE
  5
100
100
AcDbEntity
  8
0
 62
7
100
AcDbPolyline
 90
2048
 70
1
 10
3.718119
 20
203.159191
 30
0.0
 10
1.751513
 20
202.313908
 30
0.0
 10
-0.224616
 20
201.465193
 30
0.0
 10
-2.209981
 20
200.613050
 30
0.0
 10
-4.204292
 20
199.757490
 30
0.0
 10
-6.207263
 20
198.898529
 30
0.0
 10
-8.218606
 20
198.036169
 30
0.0
 10
-10.238032
 20
197.170424
 30
0.0
 10
-12.265254
 20
196.301299
 30
0.0
 10
-14.299983
 20
195.428812
 30
0.0
 10
-16.341933
 20
194.552966
 30
0.0
 10
-18.390815
 20
193.673774
 30
0.0
 10
-20.446341
 20
192.791245
 30
0.0
 10
-22.508224
 20
191.905389
 30
0.0
 10
-24.576175
 20
191.016215
 30
0.0
 10
-26.649908
 20
190.123733
 30
0.0
 10
-28.729130
 20
189.227954
 30
0.0
 10
-30.813560
 20
188.328887
 30
0.0
 10
-32.902909
 20
187.426542
 30
0.0
 10
-34.996885
 20
186.520928
 30
0.0
 10
-37.095200
 20
185.612056
 30
0.0
 10
-39.197571
 20
184.699935
 30
0.0
 10
-41.303707
 20
183.784575
 30
0.0
 10
-43.413323
 20
182.865987
 30
0.0
 10
-45.526127
 20
181.944179
 30
0.0
 10
-47.641830
 20
181.019161
 30
0.0
 10
-49.760150
 20
180.090945
 30
0.0
 10
-51.880796
 20
179.159538
 30
0.0
 10
-54.003482
 20
178.224951
 30
0.0
 10
-56.127917
 20
177.287194
 30
0.0
 10
-58.253815
 20
176.346277
 30
0.0
 10
-60.380888
 20
175.402209
 30
0.0
 10
-62.508847
 20
174.455000
 30
0.0
 10
-62.813716
 20
173.876437
 30
0.0
 10
-63.101127
 20
173.279582
 30
0.0
 10
-63.370830
 20
172.664925
 30
0.0
 10
-63.622576
 20
172.032953
 30
0.0
 10
-63.856113
 20
171.384155
 30
0.0
 10
-64.071196
 20
170.719019
 30
0.0
 10
-64.267572
 20
170.038032
 30
0.0
 10
-64.444994
 20
169.341684
 30
0.0
 10
-64.603209
 20
168.630463
 30
0.0
 10
-64.741973
 20
167.904856
 30
0.0
 10
-64.861030
 20
167.165351
 30
0.0
 10
-64.960135
 20
166.412438
 30
0.0
 10
-65.039036
 20
165.646605
 30
0.0
 10
-65.097485
 20
164.868338
 30
0.0
 10
-65.135233
 20
164.078127
 30
0.0
 10
-65.152035
 20
163.276460
 30
0.0
 10
-65.147642
 20
162.463826
 30
0.0
 10
-65.121793
 20
161.640711
 30
0.0
 10
-65.074236
 20
160.807605
 30
0.0
 10
-65.004733
 20
159.964996
 30
0.0
 10
-64.913028
 20
159.113371
 30
0.0
 10
-64.798877
 20
158.253219
 30
0.0
 10
-64.662026
 20
157.385029
 30
0.0
 10
-64.502228
 20
156.509288
 30
0.0
 10
-64.319232
 20
155.626486
 30
0.0
 10
-64.112791
 20
154.737108
 30
0.0
 10
-63.882654
 20
153.841645
 30
0.0
 10
-63.628572
 20
152.940584
 30
0.0
 10
-63.350293
 20
152.034414
 30
0.0
 10
-63.047570
 20
151.123622
 30
0.0
 10
-62.720154
 20
150.208698
 30
0.0
 10
-62.367792
 20
149.290128
 30
0.0
 10
-62.017492
 20
148.338483
 30
0.0
 10
-61.644482
 20
147.392182
 30
0.0
 10
-61.249840
 20
146.452313
 30
0.0
 10
-60.834638
 20
145.519965
 30
0.0
 10
-60.399949
 20
144.596227
 30
0.0
 10
-59.946844
 20
143.682189
 30
0.0
 10
-59.476402
 20
142.778940
 30
0.0
 10
-58.989693
 20
141.887567
 30
0.0
 10
-58.487789
 20
141.009164
 30
0.0
 10
-57.971767
 20
140.144812
 30
0.0
 10
-57.442698
 20
139.295608
 30
0.0
 10
-56.901654
 20
138.462636
 30
0.0
 10
-56.349712
 20
137.646987
 30
0.0
 10
-55.787944
 20
136.849752
 30
0.0
 10
-55.217422
 20
136.072015
 30
0.0
 10
-54.639221
 20
135.314870
 30
0.0
 10
-54.054412
 20
134.579402
 30
0.0
 10
-53.464074
 20
133.866705
 30
0.0
 10
-52.869274
 20
133.177862
 30
0.0
 10
-52.271089
 20
132.513967
 30
0.0
 10
-51.670590
 20
131.876107
 30
0.0
 10
-51.068854
 20
131.265369
 30
0.0
 10
-50.466953
 20
130.682847
 30
0.0
 10
-49.865957
 20
130.129627
 30
0.0
 10
-49.266943
 20
129.606797
 30
0.0
 10
-48.670985
 20
129.115447
 30
0.0
 10
-48.079155
 20
128.656667
 30
0.0
 10
-47.492523
 20
128.231545
 30
0.0
 10
-46.912168
 20
127.841174
 30
0.0
 10
-46.339162
 20
127.486635
 30
0.0
 10
-45.774576
 20
127.169024
 30
0.0
 10
-45.219485
 20
126.889428
 30
0.0
 10
-44.376271
 20
127.360402
 30
0.0
 10
-43.558444
 20
127.818597
 30
0.0
 10
-42.764646
 20
128.264491
 30
0.0
 10
-41.993529
 20
128.698569
 30
0.0
 10
-41.243729
 20
129.121310
 30
0.0
 10
-40.513897
 20
129.533192
 30
0.0
 10
-39.802678
 20
129.934703
 30
0.0
 10
-39.108713
 20
130.326315
 30
0.0
 10
-38.430650
 20
130.708514
 30
0.0
 10
-37.767133
 20
131.081780
 30
0.0
 10
-37.116806
 20
131.446593
 30
0.0
 10
-36.478313
 20
131.803436
 30
0.0
 10
-35.850303
 20
132.152787
 30
0.0
 10
-35.231419
 20
132.495126
 30
0.0
 10
-34.620303
 20
132.830938
 30
0.0
 10
-34.015603
 20
133.160701
 30
0.0
 10
-33.415962
 20
133.484895
 30
0.0
 10
-32.820028
 20
133.804001
 30
0.0
 10
-32.226443
 20
134.118501
 30
0.0
 10
-31.633851
 20
134.428878
 30
0.0
 10
-31.040901
 20
134.735607
 30
0.0
 10
-30.446234
 20
135.039174
 30
0.0
 10
-29.848495
 20
135.340056
 30
0.0
 10
-29.246333
 20
135.638736
 30
0.0
 10
-28.638389
 20
135.935696
 30
0.0
 10
-28.023307
 20
136.231413
 30
0.0
 10
-27.399737
 20
136.526371
 30
0.0
 10
-26.766316
 20
136.821048
 30
0.0
 10
-26.121698
 20
137.115926
 30
0.0
 10
-25.464522
 20
137.411486
 30
0.0
 10
-24.793434
 20
137.708211
 30
0.0
 10
-24.107079
 20
138.006579
 30
0.0
 10
-23.828767
 20
137.785703
 30
0.0
 10
-23.420451
 20
137.161074
 30
0.0
 10
-22.889656
 20
136.155782
 30
0.0
 10
-22.243909
 20
134.792916
 30
0.0
 10
-21.490736
 20
133.095563
 30
0.0
 10
-20.637663
 20
131.086810
 30
0.0
 10
-19.692216
 20
128.789750
 30
0.0
 10
-18.661921
 20
126.227470
 30
0.0
 10
-17.554304
 20
123.423053
 30
0.0
 10
-16.376892
 20
120.399596
 30
0.0
 10
-15.137210
 20
117.180180
 30
0.0
 10
-13.842784
 20
113.787896
 30
0.0
 10
-12.501141
 20
110.245835
 30
0.0
 10
-11.119806
 20
106.577082
 30
0.0
 10
-9.706307
 20
102.804730
 30
0.0
 10
-8.268168
 20
98.951859
 30
0.0
 10
-6.812916
 20
95.041567
 30
0.0
 10
-5.348077
 20
91.096936
 30
0.0
 10
-3.881177
 20
87.141055
 30
0.0
 10
-2.419742
 20
83.197017
 30
0.0
 10
-0.971298
 20
79.287904
 30
0.0
 10
0.456628
 20
75.436809
 30
0.0
 10
1.856511
 20
71.666820
 30
0.0
 10
3.220825
 20
68.001023
 30
0.0
 10
4.542043
 20
64.462509
 30
0.0
 10
5.812639
 20
61.074363
 30
0.0
 10
7.025088
 20
57.859679
 30
0.0
 10
8.171862
 20
54.841540
 30
0.0
 10
9.245437
 20
52.043036
 30
0.0
 10
10.238286
 20
49.487257
 30
0.0
 10
11.142883
 20
47.197290
 30
0.0
 10
11.951701
 20
45.196223
 30
0.0
 10
11.996253
 20
44.988551
 30
0.0
 10
12.050723
 20
44.788100
 30
0.0
 10
12.114934
 20
44.594804
 30
0.0
 10
12.188706
 20
44.408595
 30
0.0
 10
12.271864
 20
44.229409
 30
0.0
 10
12.364227
 20
44.057184
 30
0.0
 10
12.465619
 20
43.891848
 30
0.0
 10
12.575861
 20
43.733339
 30
0.0
 10
12.694776
 20
43.581593
 30
0.0
 10
12.822184
 20
43.436540
 30
0.0
 10
12.957909
 20
43.298118
 30
0.0
 10
13.101772
 20
43.166260
 30
0.0
 10
13.253596
 20
43.040903
 30
0.0
 10
13.413201
 20
42.921978
 30
0.0
 10
13.580411
 20
42.809422
 30
0.0
 10
13.755046
 20
42.703168
 30
0.0
 10
13.936930
 20
42.603150
 30
0.0
 10
14.125884
 20
42.509305
 30
0.0
 10
14.321729
 20
42.421564
 30
0.0
 10
14.524289
 20
42.339866
 30
0.0
 10
14.733385
 20
42.264139
 30
0.0
 10
14.948839
 20
42.194324
 30
0.0
 10
15.170473
 20
42.130353
 30
0.0
 10
15.398108
 20
42.072160
 30
0.0
 10
15.631568
 20
42.019680
 30
0.0
 10
15.870673
 20
41.972846
 30
0.0
 10
16.115247
 20
41.931595
 30
0.0
 10
16.365110
 20
41.895858
 30
0.0
 10
16.620085
 20
41.865574
 30
0.0
 10
16.879994
 20
41.840677
 30
0.0
 10
17.144658
 20
41.821097
 30
0.0
 10
17.413900
 20
41.806783
 30
0.0
 10
17.221782
 20
41.344432
 30
0.0
 10
17.042472
 20
40.888330
 30
0.0
 10
16.876147
 20
40.438713
 30
0.0
 10
16.722983
 20
39.995814
 30
0.0
 10
16.583158
 20
39.559862
 30
0.0
 10
16.456848
 20
39.131094
 30
0.0
 10
16.344230
 20
38.709740
 30
0.0
 10
16.245480
 20
38.296032
 30
0.0
 10
16.160775
 20
37.890204
 30
0.0
 10
16.090292
 20
37.492488
 30
0.0
 10
16.034208
 20
37.103116
 30
0.0
 10
15.992699
 20
36.722323
 30
0.0
 10
15.965942
 20
36.350340
 30
0.0
 10
15.954113
 20
35.987397
 30
0.0
 10
15.957391
 20
35.633731
 30
0.0
 10
15.975951
 20
35.289572
 30
0.0
 10
16.009970
 20
34.955152
 30
0.0
 10
16.059624
 20
34.630707
 30
0.0
 10
16.125091
 20
34.316464
 30
0.0
 10
16.206546
 20
34.012661
 30
0.0
 10
16.304168
 20
33.719527
 30
0.0
 10
16.418132
 20
33.437298
 30
0.0
 10
16.548615
 20
33.166203
 30
0.0
 10
16.695794
 20
32.906475
 30
0.0
 10
16.859846
 20
32.658352
 30
0.0
 10
17.040947
 20
32.422058
 30
0.0
 10
17.239275
 20
32.197831
 30
0.0
 10
17.455005
 20
31.985902
 30
0.0
 10
17.688315
 20
31.786505
 30
0.0
 10
17.939381
 20
31.599870
 30
0.0
 10
18.208380
 20
31.426232
 30
0.0
 10
18.495489
 20
31.265823
 30
0.0
 10
18.617379
 20
31.181474
 30
0.0
 10
18.740962
 20
31.097612
 30
0.0
 10
18.866232
 20
31.014231
 30
0.0
 10
18.993181
 20
30.931334
 30
0.0
 10
19.121802
 20
30.848919
 30
0.0
 10
19.252086
 20
30.766986
 30
0.0
 10
19.384028
 20
30.685534
 30
0.0
 10
19.517619
 20
30.604558
 30
0.0
 10
19.652852
 20
30.524061
 30
0.0
 10
19.789720
 20
30.444040
 30
0.0
 10
19.928216
 20
30.364499
 30
0.0
 10
20.068332
 20
30.285431
 30
0.0
 10
20.210061
 20
30.206836
 30
0.0
 10
20.353395
 20
30.128715
 30
0.0
 10
20.498328
 20
30.051068
 30
0.0
 10
20.644851
 20
29.973892
 30
0.0
 10
20.792958
 20
29.897186
 30
0.0
 10
20.942641
 20
29.820949
 30
0.0
 10
21.093893
 20
29.745181
 30
0.0
 10
21.246707
 20
29.669880
 30
0.0
 10
21.401074
 20
29.595048
 30
0.0
 10
21.556989
 20
29.520679
 30
0.0
 10
21.714443
 20
29.446776
 30
0.0
 10
21.873429
 20
29.373338
 30
0.0
 10
22.033940
 20
29.300360
 30
0.0
 10
22.195968
 20
29.227846
 30
0.0
 10
22.359506
 20
29.155795
 30
0.0
 10
22.524548
 20
29.084201
 30
0.0
 10
22.691084
 20
29.013068
 30
0.0
 10
22.859109
 20
28.942390
 30
0.0
 10
23.028615
 20
28.872172
 30
0.0
 10
23.199594
 20
28.802409
 30
0.0
 10
23.137544
 20
28.644932
 30
0.0
 10
23.076106
 20
28.489214
 30
0.0
 10
23.015325
 20
28.335370
 30
0.0
 10
22.955248
 20
28.183520
 30
0.0
 10
22.895922
 20
28.033784
 30
0.0
 10
22.837392
 20
27.886282
 30
0.0
 10
22.779705
 20
27.741129
 30
0.0
 10
22.722907
 20
27.598447
 30
0.0
 10
22.667044
 20
27.458352
 30
0.0
 10
22.612164
 20
27.320965
 30
0.0
 10
22.558312
 20
27.186403
 30
0.0
 10
22.505534
 20
27.054786
 30
0.0
 10
22.453877
 20
26.926236
 30
0.0
 10
22.403388
 20
26.800866
 30
0.0
 10
22.354111
 20
26.678797
 30
0.0
 10
22.306095
 20
26.560148
 30
0.0
 10
22.259385
 20
26.445038
 30
0.0
 10
22.214027
 20
26.333585
 30
0.0
 10
22.170068
 20
26.225907
 30
0.0
 10
22.127554
 20
26.122127
 30
0.0
 10
22.086532
 20
26.022361
 30
0.0
 10
22.047047
 20
25.926727
 30
0.0
 10
22.009147
 20
25.835343
 30
0.0
 10
21.972877
 20
25.748332
 30
0.0
 10
21.938283
 20
25.665808
 30
0.0
 10
21.905413
 20
25.587891
 30
0.0
 10
21.874312
 20
25.514702
 30
0.0
 10
21.845027
 20
25.446358
 30
0.0
 10
21.817604
 20
25.382979
 30
0.0
 10
21.792090
 20
25.324684
 30
0.0
 10
21.768529
 20
25.271587
 30
0.0
 10
21.746970
 20
25.223814
 30
0.0
 10
21.547152
 20
24.778634
 30
0.0
 10
21.333890
 20
24.290803
 30
0.0
 10
21.108312
 20
23.763377
 30
0.0
 10
20.871547
 20
23.199413
 30
0.0
 10
20.624724
 20
22.601973
 30
0.0
 10
20.368971
 20
21.974117
 30
0.0
 10
20.105417
 20
21.318897
 30
0.0
 10
19.835191
 20
20.639379
 30
0.0
 10
19.559420
 20
19.938616
 30
0.0
 10
19.279234
 20
19.219669
 30
0.0
 10
18.995761
 20
18.485599
 30
0.0
 10
18.710131
 20
17.739461
 30
0.0
 10
18.423470
 20
16.984316
 30
0.0
 10
18.136908
 20
16.223218
 30
0.0
 10
17.851574
 20
15.459234
 30
0.0
 10
17.568596
 20
14.695416
 30
0.0
 10
17.289103
 20
13.934824
 30
0.0
 10
17.014223
 20
13.180515
 30
0.0
 10
16.745085
 20
12.435554
 30
0.0
 10
16.482818
 20
11.702992
 30
0.0
 10
16.228549
 20
10.985894
 30
0.0
 10
15.983408
 20
10.287315
 30
0.0
 10
15.748524
 20
9.610312
 30
0.0
 10
15.525024
 20
8.957950
 30
0.0
 10
15.314038
 20
8.333280
 30
0.0
 10
15.116693
 20
7.739367
 30
0.0
 10
14.934119
 20
7.179265
 30
0.0
 10
14.767445
 20
6.656036
 30
0.0
 10
14.617798
 20
6.172737
 30
0.0
 10
14.486307
 20
5.732428
 30
0.0
 10
14.374102
 20
5.338165
 30
0.0
 10
14.282310
 20
4.993008
 30
0.0
 10
14.221776
 20
4.748900
 30
0.0
 10
14.166019
 20
4.511746
 30
0.0
 10
14.115044
 20
4.281477
 30
0.0
 10
14.068860
 20
4.058018
 30
0.0
 10
14.027472
 20
3.841298
 30
0.0
 10
13.990889
 20
3.631247
 30
0.0
 10
13.959117
 20
3.427796
 30
0.0
 10
13.932163
 20
3.230869
 30
0.0
 10
13.910033
 20
3.040396
 30
0.0
 10
13.892737
 20
2.856307
 30
0.0
 10
13.880281
 20
2.678531
 30
0.0
 10
13.872669
 20
2.506996
 30
0.0
 10
13.869912
 20
2.341629
 30
0.0
 10
13.872002
 20
2.182363
 30
0.0
 10
13.878971
 20
2.029121
 30
0.0
 10
13.890814
 20
1.881836
 30
0.0
 10
13.907538
 20
1.740434
 30
0.0
 10
13.929152
 20
1.604846
 30
0.0
 10
13.955661
 20
1.474999
 30
0.0
 10
13.987071
 20
1.350822
 30
0.0
 10
14.023392
 20
1.232244
 30
0.0
 10
14.064628
 20
1.119193
 30
0.0
 10
14.110788
 20
1.011600
 30
0.0
 10
14.161878
 20
0.909391
 30
0.0
 10
14.217906
 20
0.812496
 30
0.0
 10
14.278878
 20
0.720841
 30
0.0
 10
14.344802
 20
0.634360
 30
0.0
 10
14.415683
 20
0.552979
 30
0.0
 10
14.491531
 20
0.476623
 30
0.0
 10
14.572351
 20
0.405228
 30
0.0
 10
14.658150
 20
0.338717
 30
0.0
 10
14.748935
 20
0.277019
 30
0.0
 10
14.769427
 20
0.268367
 30
0.0
 10
14.789919
 20
0.259715
 30
0.0
 10
14.810411
 20
0.251063
 30
0.0
 10
14.830903
 20
0.242411
 30
0.0
 10
14.851395
 20
0.233759
 30
0.0
 10
14.871887
 20
0.225107
 30
0.0
 10
14.892379
 20
0.216456
 30
0.0
 10
14.912871
 20
0.207804
 30
0.0
 10
14.933363
 20
0.199152
 30
0.0
 10
14.953855
 20
0.190500
 30
0.0
 10
14.974347
 20
0.181848
 30
0.0
 10
14.994839
 20
0.173196
 30
0.0
 10
15.015331
 20
0.164544
 30
0.0
 10
15.035823
 20
0.155892
 30
0.0
 10
15.056315
 20
0.147241
 30
0.0
 10
15.076807
 20
0.138589
 30
0.0
 10
15.097299
 20
0.129937
 30
0.0
 10
15.117791
 20
0.121285
 30
0.0
 10
15.138283
 20
0.112633
 30
0.0
 10
15.158775
 20
0.103981
 30
0.0
 10
15.179267
 20
0.095329
 30
0.0
 10
15.199759
 20
0.086677
 30
0.0
 10
15.220251
 20
0.078026
 30
0.0
 10
15.240743
 20
0.069374
 30
0.0
 10
15.261235
 20
0.060722
 30
0.0
 10
15.281727
 20
0.052070
 30
0.0
 10
15.302219
 20
0.043418
 30
0.0
 10
15.322711
 20
0.034766
 30
0.0
 10
15.343203
 20
0.026114
 30
0.0
 10
15.363695
 20
0.017462
 30
0.0
 10
15.384187
 20
0.008811
 30
0.0
 10
15.404679
 20
0.000159
 30
0.0
 10
15.440579
 20
-0.012700
 30
0.0
 10
15.505883
 20
-0.023892
 30
0.0
 10
15.601798
 20
-0.033470
 30
0.0
 10
15.729525
 20
-0.041540
 30
0.0
 10
15.890273
 20
-0.048181
 30
0.0
 10
16.085244
 20
-0.053499
 30
0.0
 10
16.315644
 20
-0.057547
 30
0.0
 10
16.582679
 20
-0.060431
 30
0.0
 10
16.887552
 20
-0.062283
 30
0.0
 10
17.231468
 20
-0.063077
 30
0.0
 10
17.615634
 20
-0.062923
 30
0.0
 10
18.041253
 20
-0.061865
 30
0.0
 10
18.509530
 20
-0.060013
 30
0.0
 10
19.021671
 20
-0.057632
 30
0.0
 10
19.578880
 20
-0.054615
 30
0.0
 10
20.182363
 20
-0.051096
 30
0.0
 10
20.833324
 20
-0.047154
 30
0.0
 10
21.532968
 20
-0.042868
 30
0.0
 10
22.282500
 20
-0.038343
 30
0.0
 10
23.083124
 20
-0.033660
 30
0.0
 10
23.936047
 20
-0.028871
 30
0.0
 10
24.842473
 20
-0.024082
 30
0.0
 10
25.803606
 20
-0.019373
 30
0.0
 10
26.820652
 20
-0.014848
 30
0.0
 10
27.894815
 20
-0.010562
 30
0.0
 10
29.027300
 20
-0.006620
 30
0.0
 10
30.219315
 20
-0.003101
 30
0.0
 10
31.472061
 20
-0.000085
 30
0.0
 10
32.786744
 20
0.002297
 30
0.0
 10
34.164570
 20
0.004149
 30
0.0
 10
35.606739
 20
0.005207
 30
0.0
 10
37.114465
 20
0.005387
 30
0.0
 10
38.048338
 20
0.005226
 30
0.0
 10
38.982211
 20
0.005064
 30
0.0
 10
39.916087
 20
0.004903
 30
0.0
 10
40.849961
 20
0.004741
 30
0.0
 10
41.783834
 20
0.004580
 30
0.0
 10
42.717707
 20
0.004419
 30
0.0
 10
43.651583
 20
0.004257
 30
0.0
 10
44.585457
 20
0.004096
 30
0.0
 10
45.519330
 20
0.003934
 30
0.0
 10
46.453203
 20
0.003773
 30
0.0
 10
47.387077
 20
0.003612
 30
0.0
 10
48.320953
 20
0.003450
 30
0.0
 10
49.254826
 20
0.003289
 30
0.0
 10
50.188699
 20
0.003127
 30
0.0
 10
51.122573
 20
0.002966
 30
0.0
 10
52.056446
 20
0.002805
 30
0.0
 10
52.990322
 20
0.002641
 30
0.0
 10
53.924195
 20
0.002479
 30
0.0
 10
54.858069
 20
0.002318
 30
0.0
 10
55.791942
 20
0.002156
 30
0.0
 10
56.725818
 20
0.001995
 30
0.0
 10
57.659691
 20
0.001834
 30
0.0
 10
58.593565
 20
0.001672
 30
0.0
 10
59.527438
 20
0.001511
 30
0.0
 10
60.461311
 20
0.001349
 30
0.0
 10
61.395187
 20
0.001188
 30
0.0
 10
62.329061
 20
0.001027
 30
0.0
 10
63.262934
 20
0.000865
 30
0.0
 10
64.196807
 20
0.000704
 30
0.0
 10
65.130683
 20
0.000542
 30
0.0
 10
66.064557
 20
0.000381
 30
0.0
 10
66.998430
 20
0.000220
 30
0.0
 10
67.022084
 20
0.025011
 30
0.0
 10
67.045737
 20
0.049803
 30
0.0
 10
67.069391
 20
0.074594
 30
0.0
 10
67.093045
 20
0.099385
 30
0.0
 10
67.116699
 20
0.124177
 30
0.0
 10
67.140352
 20
0.148968
 30
0.0
 10
67.164006
 20
0.173760
 30
0.0
 10
67.187660
 20
0.198551
 30
0.0
 10
67.211314
 20
0.223343
 30
0.0
 10
67.234967
 20
0.248134
 30
0.0
 10
67.258621
 20
0.272926
 30
0.0
 10
67.282275
 20
0.297717
 30
0.0
 10
67.305929
 20
0.322509
 30
0.0
 10
67.329582
 20
0.347300
 30
0.0
 10
67.353236
 20
0.372091
 30
0.0
 10
67.376890
 20
0.396883
 30
0.0
 10
67.400544
 20
0.421674
 30
0.0
 10
67.424197
 20
0.446466
 30
0.0
 10
67.447851
 20
0.471257
 30
0.0
 10
67.471505
 20
0.496049
 30
0.0
 10
67.495159
 20
0.520840
 30
0.0
 10
67.518812
 20
0.545632
 30
0.0
 10
67.542466
 20
0.570423
 30
0.0
 10
67.566120
 20
0.595215
 30
0.0
 10
67.589774
 20
0.620006
 30
0.0
 10
67.613427
 20
0.644798
 30
0.0
 10
67.637081
 20
0.669589
 30
0.0
 10
67.660735
 20
0.694380
 30
0.0
 10
67.684389
 20
0.719172
 30
0.0
 10
67.708042
 20
0.743963
 30
0.0
 10
67.731696
 20
0.768755
 30
0.0
 10
67.755350
 20
0.793546
 30
0.0
 10
67.841215
 20
0.905878
 30
0.0
 10
67.935489
 20
1.069991
 30
0.0
 10
68.037655
 20
1.282893
 30
0.0
 10
68.147208
 20
1.541595
 30
0.0
 10
68.263633
 20
1.843103
 30
0.0
 10
68.386421
 20
2.184421
 30
0.0
 10
68.515056
 20
2.562558
 30
0.0
 10
68.649028
 20
2.974523
 30
0.0
 10
68.787828
 20
3.417324
 30
0.0
 10
68.930941
 20
3.887965
 30
0.0
 10
69.077856
 20
4.383453
 30
0.0
 10
69.228066
 20
4.900800
 30
0.0
 10
69.381053
 20
5.437010
 30
0.0
 10
69.536308
 20
5.989090
 30
0.0
 10
69.693320
 20
6.554049
 30
0.0
 10
69.851575
 20
7.128894
 30
0.0
 10
70.010563
 20
7.710630
 30
0.0
 10
70.169773
 20
8.296270
 30
0.0
 10
70.328693
 20
8.882814
 30
0.0
 10
70.486810
 20
9.467273
 30
0.0
 10
70.643616
 20
10.046658
 30
0.0
 10
70.798595
 20
10.617970
 30
0.0
 10
70.951236
 20
11.178220
 30
0.0
 10
71.101033
 20
11.724412
 30
0.0
 10
71.247466
 20
12.253558
 30
0.0
 10
71.390029
 20
12.762664
 30
0.0
 10
71.528208
 20
13.248733
 30
0.0
 10
71.661491
 20
13.708777
 30
0.0
 10
71.789367
 20
14.139804
 30
0.0
 10
71.911327
 20
14.538817
 30
0.0
 10
72.026857
 20
14.902828
 30
0.0
 10
72.135445
 20
15.228840
 30
0.0
 10
72.174323
 20
15.342341
 30
0.0
 10
72.216815
 20
15.466565
 30
0.0
 10
72.262871
 20
15.601225
 30
0.0
 10
72.312443
 20
15.746037
 30
0.0
 10
72.365479
 20
15.900717
 30
0.0
 10
72.421928
 20
16.064981
 30
0.0
 10
72.481742
 20
16.238543
 30
0.0
 10
72.544869
 20
16.421119
 30
0.0
 10
72.611261
 20
16.612425
 30
0.0
 10
72.680865
 20
16.812178
 30
0.0
 10
72.753633
 20
17.020093
 30
0.0
 10
72.829516
 20
17.235884
 30
0.0
 10
72.908462
 20
17.459269
 30
0.0
 10
72.990422
 20
17.689960
 30
0.0
 10
73.075345
 20
17.927677
 30
0.0
 10
73.163182
 20
18.172131
 30
0.0
 10
73.253881
 20
18.423043
 30
0.0
 10
73.347393
 20
18.680123
 30
0.0
 10
73.443669
 20
18.943090
 30
0.0
 10
73.542658
 20
19.211660
 30
0.0
 10
73.644308
 20
19.485546
 30
0.0
 10
73.748572
 20
19.764465
 30
0.0
 10
73.855401
 20
20.048135
 30
0.0
 10
73.964740
 20
20.336267
 30
0.0
 10
74.076542
 20
20.628581
 30
0.0
 10
74.190757
 20
20.924787
 30
0.0
 10
74.307335
 20
21.224608
 30
0.0
 10
74.426223
 20
21.527751
 30
0.0
 10
74.547376
 20
21.833941
 30
0.0
 10
74.670741
 20
22.142887
 30
0.0
 10
74.796267
 20
22.454306
 30
0.0
 10
74.923905
 20
22.767914
 30
0.0
 10
75.516571
 20
22.769766
 30
0.0
 10
76.109698
 20
22.772518
 30
0.0
 10
76.703241
 20
22.776169
 30
0.0
 10
77.297161
 20
22.780720
 30
0.0
 10
77.891421
 20
22.786171
 30
0.0
 10
78.485979
 20
22.792494
 30
0.0
 10
79.080797
 20
22.799717
 30
0.0
 10
79.675832
 20
22.807814
 30
0.0
 10
80.271052
 20
22.816783
 30
0.0
 10
80.866409
 20
22.826599
 30
0.0
 10
81.461867
 20
22.837288
 30
0.0
 10
82.057386
 20
22.848824
 30
0.0
 10
82.652929
 20
22.861206
 30
0.0
 10
83.248453
 20
22.874436
 30
0.0
 10
83.843919
 20
22.888511
 30
0.0
 10
84.439287
 20
22.903408
 30
0.0
 10
85.034517
 20
22.919150
 30
0.0
 10
85.629573
 20
22.935713
 30
0.0
 10
86.224415
 20
22.953096
 30
0.0
 10
86.818997
 20
22.971300
 30
0.0
 10
87.413286
 20
22.990297
 30
0.0
 10
88.007241
 20
23.010088
 30
0.0
 10
88.600820
 20
23.030699
 30
0.0
 10
89.193984
 20
23.052077
 30
0.0
 10
89.786696
 20
23.074249
 30
0.0
 10
90.378916
 20
23.097215
 30
0.0
 10
90.970601
 20
23.120948
 30
0.0
 10
91.561712
 20
23.145448
 30
0.0
 10
92.152214
 20
23.170716
 30
0.0
 10
92.742063
 20
23.196751
 30
0.0
 10
93.331221
 20
23.223535
 30
0.0
 10
93.919646
 20
23.251070
 30
0.0
 10
93.999066
 20
23.001102
 30
0.0
 10
94.078039
 20
22.750870
 30
0.0
 10
94.156613
 20
22.500392
 30
0.0
 10
94.234839
 20
22.249691
 30
0.0
 10
94.312767
 20
21.998792
 30
0.0
 10
94.390449
 20
21.747715
 30
0.0
 10
94.467935
 20
21.496480
 30
0.0
 10
94.545272
 20
21.245110
 30
0.0
 10
94.622517
 20
20.993629
 30
0.0
 10
94.699717
 20
20.742058
 30
0.0
 10
94.776923
 20
20.490418
 30
0.0
 10
94.854184
 20
20.238728
 30
0.0
 10
94.931553
 20
19.987017
 30
0.0
 10
95.009079
 20
19.735300
 30
0.0
 10
95.086811
 20
19.483602
 30
0.0
 10
95.164805
 20
19.231946
 30
0.0
 10
95.243103
 20
18.980351
 30
0.0
 10
95.321763
 20
18.728841
 30
0.0
 10
95.400834
 20
18.477436
 30
0.0
 10
95.480363
 20
18.226162
 30
0.0
 10
95.560402
 20
17.975035
 30
0.0
 10
95.641004
 20
17.724083
 30
0.0
 10
95.722218
 20
17.473321
 30
0.0
 10
95.804094
 20
17.222780
 30
0.0
 10
95.886681
 20
16.972473
 30
0.0
 10
95.970032
 20
16.722426
 30
0.0
 10
96.054199
 20
16.472659
 30
0.0
 10
96.139228
 20
16.223197
 30
0.0
 10
96.225170
 20
15.974060
 30
0.0
 10
96.312080
 20
15.725270
 30
0.0
 10
96.400007
 20
15.476850
 30
0.0
 10
96.488997
 20
15.228819
 30
0.0
 10
96.685138
 20
14.677099
 30
0.0
 10
96.880461
 20
14.110867
 30
0.0
 10
97.074774
 20
13.532059
 30
0.0
 10
97.267880
 20
12.942623
 30
0.0
 10
97.459584
 20
12.344493
 30
0.0
 10
97.649695
 20
11.739610
 30
0.0
 10
97.838012
 20
11.129918
 30
0.0
 10
98.024345
 20
10.517357
 30
0.0
 10
98.208500
 20
9.903862
 30
0.0
 10
98.390277
 20
9.291381
 30
0.0
 10
98.569484
 20
8.681850
 30
0.0
 10
98.745927
 20
8.077208
 30
0.0
 10
98.919412
 20
7.479398
 30
0.0
 10
99.089740
 20
6.890361
 30
0.0
 10
99.256718
 20
6.312038
 30
0.0
 10
99.420154
 20
5.746364
 30
0.0
 10
99.579851
 20
5.195284
 30
0.0
 10
99.735614
 20
4.660741
 30
0.0
 10
99.887247
 20
4.144669
 30
0.0
 10
100.034556
 20
3.649012
 30
0.0
 10
100.177349
 20
3.175712
 30
0.0
 10
100.315427
 20
2.726703
 30
0.0
 10
100.448600
 20
2.303933
 30
0.0
 10
100.576666
 20
1.909339
 30
0.0
 10
100.699436
 20
1.544860
 30
0.0
 10
100.816715
 20
1.212440
 30
0.0
 10
100.928305
 20
0.914016
 30
0.0
 10
101.034012
 20
0.651531
 30
0.0
 10
101.133643
 20
0.426924
 30
0.0
 10
101.227002
 20
0.242136
 30
0.0
 10
101.313896
 20
0.099105
 30
0.0
 10
101.394126
 20
-0.000225
 30
0.0
 10
101.444132
 20
-0.063243
 30
0.0
 10
101.464955
 20
-0.118263
 30
0.0
 10
101.464161
 20
-0.165674
 30
0.0
 10
101.449397
 20
-0.205870
 30
0.0
 10
101.428230
 20
-0.239242
 30
0.0
 10
101.408254
 20
-0.266184
 30
0.0
 10
101.397089
 20
-0.287086
 30
0.0
 10
101.402328
 20
-0.302353
 30
0.0
 10
101.431561
 20
-0.312354
 30
0.0
 10
101.492394
 20
-0.317487
 30
0.0
 10
101.592420
 20
-0.318281
 30
0.0
 10
101.739243
 20
-0.314867
 30
0.0
 10
101.940458
 20
-0.307777
 30
0.0
 10
102.203666
 20
-0.297405
 30
0.0
 10
102.536464
 20
-0.284123
 30
0.0
 10
102.946452
 20
-0.268327
 30
0.0
 10
103.441228
 20
-0.250441
 30
0.0
 10
104.028389
 20
-0.230809
 30
0.0
 10
104.715538
 20
-0.209854
 30
0.0
 10
105.510270
 20
-0.187973
 30
0.0
 10
106.420182
 20
-0.165537
 30
0.0
 10
107.452878
 20
-0.142968
 30
0.0
 10
108.615954
 20
-0.120637
 30
0.0
 10
109.917008
 20
-0.098941
 30
0.0
 10
111.363639
 20
-0.078251
 30
0.0
 10
112.963445
 20
-0.058989
 30
0.0
 10
114.724027
 20
-0.041526
 30
0.0
 10
116.652980
 20
-0.026286
 30
0.0
 10
118.757907
 20
-0.013639
 30
0.0
 10
121.046402
 20
-0.003956
 30
0.0
 10
123.526069
 20
0.002342
 30
0.0
 10
126.204502
 20
0.004987
 30
0.0
 10
127.723652
 20
0.004818
 30
0.0
 10
129.197767
 20
0.003760
 30
0.0
 10
130.626684
 20
0.001908
 30
0.0
 10
132.010240
 20
-0.000474
 30
0.0
 10
133.348270
 20
-0.003490
 30
0.0
 10
134.640606
 20
-0.007009
 30
0.0
 10
135.887087
 20
-0.010951
 30
0.0
 10
137.087550
 20
-0.015237
 30
0.0
 10
138.241826
 20
-0.019762
 30
0.0
 10
139.349756
 20
-0.024471
 30
0.0
 10
140.411169
 20
-0.029260
 30
0.0
 10
141.425904
 20
-0.034049
 30
0.0
 10
142.393798
 20
-0.038759
 30
0.0
 10
143.314685
 20
-0.043283
 30
0.0
 10
144.188400
 20
-0.047569
 30
0.0
 10
145.014779
 20
-0.051512
 30
0.0
 10
145.793656
 20
-0.055031
 30
0.0
 10
146.524872
 20
-0.058047
 30
0.0
 10
147.208256
 20
-0.060428
 30
0.0
 10
147.843648
 20
-0.062280
 30
0.0
 10
148.430880
 20
-0.063339
 30
0.0
 10
148.969789
 20
-0.063497
 30
0.0
 10
149.460212
 20
-0.062704
 30
0.0
 10
149.901985
 20
-0.060852
 30
0.0
 10
150.294938
 20
-0.057994
 30
0.0
 10
150.638915
 20
-0.053946
 30
0.0
 10
150.933746
 20
-0.048628
 30
0.0
 10
151.179266
 20
-0.041987
 30
0.0
 10
151.375312
 20
-0.033917
 30
0.0
 10
151.521721
 20
-0.024339
 30
0.0
 10
151.618326
 20
-0.013147
 30
0.0
 10
151.664964
 20
-0.000288
 30
0.0
 10
151.758772
 20
0.062092
 30
0.0
 10
151.854067
 20
0.131014
 30
0.0
 10
151.950431
 20
0.206394
 30
0.0
 10
152.047441
 20
0.288155
 30
0.0
 10
152.144683
 20
0.376224
 30
0.0
 10
152.241732
 20
0.470522
 30
0.0
 10
152.338173
 20
0.570971
 30
0.0
 10
152.433587
 20
0.677492
 30
0.0
 10
152.527551
 20
0.790009
 30
0.0
 10
152.619650
 20
0.908444
 30
0.0
 10
152.709462
 20
1.032722
 30
0.0
 10
152.796571
 20
1.162762
 30
0.0
 10
152.880558
 20
1.298488
 30
0.0
 10
152.960999
 20
1.439825
 30
0.0
 10
153.037480
 20
1.586693
 30
0.0
 10
153.109579
 20
1.739014
 30
0.0
 10
153.176875
 20
1.896711
 30
0.0
 10
153.238957
 20
2.059707
 30
0.0
 10
153.295396
 20
2.227927
 30
0.0
 10
153.345780
 20
2.401290
 30
0.0
 10
153.389688
 20
2.579719
 30
0.0
 10
153.426698
 20
2.763139
 30
0.0
 10
153.456392
 20
2.951469
 30
0.0
 10
153.478352
 20
3.144634
 30
0.0
 10
153.492163
 20
3.342558
 30
0.0
 10
153.497402
 20
3.545160
 30
0.0
 10
153.493645
 20
3.752363
 30
0.0
 10
153.480469
 20
3.964093
 30
0.0
 10
153.457477
 20
4.180271
 30
0.0
 10
153.424234
 20
4.400817
 30
0.0
 10
153.380321
 20
4.625657
 30
0.0
 10
153.325323
 20
4.854713
 30
0.0
 10
153.234033
 20
5.187670
 30
0.0
 10
153.121051
 20
5.574631
 30
0.0
 10
152.987664
 20
6.012085
 30
0.0
 10
152.835153
 20
6.496516
 30
0.0
 10
152.664801
 20
7.024412
 30
0.0
 10
152.477894
 20
7.592264
 30
0.0
 10
152.275715
 20
8.196551
 30
0.0
 10
152.059548
 20
8.833765
 30
0.0
 10
151.830673
 20
9.500394
 30
0.0
 10
151.590378
 20
10.192919
 30
0.0
 10
151.339942
 20
10.907834
 30
0.0
 10
151.080653
 20
11.641622
 30
0.0
 10
150.813794
 20
12.390768
 30
0.0
 10
150.540646
 20
13.151763
 30
0.0
 10
150.262495
 20
13.921092
 30
0.0
 10
149.980621
 20
14.695241
 30
0.0
 10
149.696313
 20
15.470698
 30
0.0
 10
149.410849
 20
16.243948
 30
0.0
 10
149.125517
 20
17.011483
 30
0.0
 10
148.841598
 20
17.769784
 30
0.0
 10
148.560378
 20
18.515341
 30
0.0
 10
148.283137
 20
19.244638
 30
0.0
 10
148.011164
 20
19.954166
 30
0.0
 10
147.745734
 20
20.640410
 30
0.0
 10
147.488138
 20
21.299855
 30
0.0
 10
147.239657
 20
21.928989
 30
0.0
 10
147.001577
 20
22.524302
 30
0.0
 10
146.775176
 20
23.082276
 30
0.0
 10
146.561742
 20
23.599402
 30
0.0
 10
146.362558
 20
24.072162
 30
0.0
 10
146.178908
 20
24.497049
 30
0.0
 10
146.012073
 20
24.870545
 30
0.0
 10
145.981836
 20
24.937432
 30
0.0
 10
145.949136
 20
25.010806
 30
0.0
 10
145.914042
 20
25.090509
 30
0.0
 10
145.876614
 20
25.176369
 30
0.0
 10
145.836924
 20
25.268227
 30
0.0
 10
145.795032
 20
25.365911
 30
0.0
 10
145.751011
 20
25.469257
 30
0.0
 10
145.704920
 20
25.578104
 30
0.0
 10
145.656832
 20
25.692283
 30
0.0
 10
145.606808
 20
25.811626
 30
0.0
 10
145.554915
 20
25.935972
 30
0.0
 10
145.501220
 20
26.065152
 30
0.0
 10
145.445793
 20
26.199002
 30
0.0
 10
145.388690
 20
26.337358
 30
0.0
 10
145.329987
 20
26.480050
 30
0.0
 10
145.269747
 20
26.626918
 30
0.0
 10
145.208033
 20
26.777794
 30
0.0
 10
145.144914
 20
26.932512
 30
0.0
 10
145.080456
 20
27.090904
 30
0.0
 10
145.014726
 20
27.252811
 30
0.0
 10
144.947786
 20
27.418062
 30
0.0
 10
144.879709
 20
27.586493
 30
0.0
 10
144.810552
 20
27.757938
 30
0.0
 10
144.740390
 20
27.932232
 30
0.0
 10
144.669283
 20
28.109209
 30
0.0
 10
144.597300
 20
28.288705
 30
0.0
 10
144.524506
 20
28.470553
 30
0.0
 10
144.450967
 20
28.654589
 30
0.0
 10
144.376749
 20
28.840644
 30
0.0
 10
144.301920
 20
29.028557
 30
0.0
 10
144.226545
 20
29.218160
 30
0.0
 10
144.150689
 20
29.409287
 30
0.0
 10
144.363777
 20
29.470408
 30
0.0
 10
144.573581
 20
29.531625
 30
0.0
 10
144.780075
 20
29.592934
 30
0.0
 10
144.983235
 20
29.654336
 30
0.0
 10
145.183032
 20
29.715825
 30
0.0
 10
145.379448
 20
29.777399
 30
0.0
 10
145.572451
 20
29.839057
 30
0.0
 10
145.762020
 20
29.900795
 30
0.0
 10
145.948128
 20
29.962607
 30
0.0
 10
146.130751
 20
30.024496
 30
0.0
 10
146.309864
 20
30.086456
 30
0.0
 10
146.485441
 20
30.148485
 30
0.0
 10
146.657460
 20
30.210580
 30
0.0
 10
146.825891
 20
30.272739
 30
0.0
 10
146.990713
 20
30.334958
 30
0.0
 10
147.151898
 20
30.397236
 30
0.0
 10
147.309425
 20
30.459569
 30
0.0
 10
147.463264
 20
30.521955
 30
0.0
 10
147.613394
 20
30.584391
 30
0.0
 10
147.759786
 20
30.646873
 30
0.0
 10
147.902420
 20
30.709399
 30
0.0
 10
148.041268
 20
30.771968
 30
0.0
 10
148.176303
 20
30.834576
 30
0.0
 10
148.307505
 20
30.897219
 30
0.0
 10
148.434844
 20
30.959896
 30
0.0
 10
148.558298
 20
31.022605
 30
0.0
 10
148.677840
 20
31.085340
 30
0.0
 10
148.793447
 20
31.148102
 30
0.0
 10
148.905093
 20
31.210885
 30
0.0
 10
149.012752
 20
31.273689
 30
0.0
 10
149.116400
 20
31.336509
 30
0.0
 10
149.216013
 20
31.399345
 30
0.0
 10
149.742084
 20
32.254857
 30
0.0
 10
150.133013
 20
33.156583
 30
0.0
 10
150.393247
 20
34.102421
 30
0.0
 10
150.527227
 20
35.090264
 30
0.0
 10
150.539398
 20
36.118012
 30
0.0
 10
150.434194
 20
37.183555
 30
0.0
 10
150.216061
 20
38.284790
 30
0.0
 10
149.889441
 20
39.419615
 30
0.0
 10
149.458781
 20
40.585922
 30
0.0
 10
148.928516
 20
41.781611
 30
0.0
 10
148.303094
 20
43.004573
 30
0.0
 10
147.586957
 20
44.252703
 30
0.0
 10
146.784545
 20
45.523901
 30
0.0
 10
145.900302
 20
46.816058
 30
0.0
 10
144.938669
 20
48.127073
 30
0.0
 10
143.904089
 20
49.454837
 30
0.0
 10
142.801005
 20
50.797251
 30
0.0
 10
141.633856
 20
52.152206
 30
0.0
 10
140.407089
 20
53.517599
 30
0.0
 10
139.125143
 20
54.891324
 30
0.0
 10
137.792463
 20
56.271279
 30
0.0
 10
136.413489
 20
57.655357
 30
0.0
 10
134.992664
 20
59.041456
 30
0.0
 10
133.534431
 20
60.427468
 30
0.0
 10
132.043234
 20
61.811292
 30
0.0
 10
130.523510
 20
63.190821
 30
0.0
 10
128.979706
 20
64.563953
 30
0.0
 10
127.416262
 20
65.928579
 30
0.0
 10
125.837622
 20
67.282597
 30
0.0
 10
124.248228
 20
68.623905
 30
0.0
 10
122.652521
 20
69.950393
 30
0.0
 10
121.054945
 20
71.259962
 30
0.0
 10
120.761012
 20
71.768459
 30
0.0
 10
120.482294
 20
72.274504
 30
0.0
 10
120.219669
 20
72.777839
 30
0.0
 10
119.974017
 20
73.278206
 30
0.0
 10
119.746216
 20
73.775345
 30
0.0
 10
119.537147
 20
74.268997
 30
0.0
 10
119.347690
 20
74.758899
 30
0.0
 10
119.178721
 20
75.244799
 30
0.0
 10
119.031121
 20
75.726430
 30
0.0
 10
118.905769
 20
76.203540
 30
0.0
 10
118.803545
 20
76.675864
 30
0.0
 10
118.725326
 20
77.143147
 30
0.0
 10
118.671991
 20
77.605128
 30
0.0
 10
118.644422
 20
78.061547
 30
0.0
 10
118.643363
 20
78.512146
 30
0.0
 10
118.669959
 20
78.956667
 30
0.0
 10
118.724958
 20
79.394849
 30
0.0
 10
118.809236
 20
79.826432
 30
0.0
 10
118.923676
 20
80.251157
 30
0.0
 10
119.069155
 20
80.668768
 30
0.0
 10
119.246550
 20
81.079004
 30
0.0
 10
119.456746
 20
81.481605
 30
0.0
 10
119.700615
 20
81.876313
 30
0.0
 10
119.979041
 20
82.262866
 30
0.0
 10
120.292903
 20
82.641009
 30
0.0
 10
120.643079
 20
83.010478
 30
0.0
 10
121.030448
 20
83.371021
 30
0.0
 10
121.455887
 20
83.722371
 30
0.0
 10
121.920278
 20
84.064274
 30
0.0
 10
122.424500
 20
84.396469
 30
0.0
 10
122.969433
 20
84.718694
 30
0.0
 10
123.555954
 20
85.030696
 30
0.0
 10
123.738551
 20
85.148761
 30
0.0
 10
124.009875
 20
85.267570
 30
0.0
 10
124.365618
 20
85.387029
 30
0.0
 10
124.801459
 20
85.507049
 30
0.0
 10
125.313086
 20
85.627538
 30
0.0
 10
125.896180
 20
85.748405
 30
0.0
 10
126.546428
 20
85.869563
 30
0.0
 10
127.259517
 20
85.990914
 30
0.0
 10
128.031127
 20
86.112374
 30
0.0
 10
128.856944
 20
86.233847
 30
0.0
 10
129.732657
 20
86.355245
 30
0.0
 10
130.653944
 20
86.476478
 30
0.0
 10
131.616496
 20
86.597450
 30
0.0
 10
132.615993
 20
86.718076
 30
0.0
 10
133.648120
 20
86.838261
 30
0.0
 10
134.708565
 20
86.957916
 30
0.0
 10
135.793010
 20
87.076949
 30
0.0
 10
136.897142
 20
87.195271
 30
0.0
 10
138.016642
 20
87.312791
 30
0.0
 10
139.147199
 20
87.429414
 30
0.0
 10
140.284494
 20
87.545053
 30
0.0
 10
141.424213
 20
87.659617
 30
0.0
 10
142.562043
 20
87.773015
 30
0.0
 10
143.693666
 20
87.885154
 30
0.0
 10
144.814767
 20
87.995943
 30
0.0
 10
145.921029
 20
88.105295
 30
0.0
 10
147.008141
 20
88.213115
 30
0.0
 10
148.071785
 20
88.319314
 30
0.0
 10
149.107647
 20
88.423800
 30
0.0
 10
150.111410
 20
88.526485
 30
0.0
 10
151.078759
 20
88.627275
 30
0.0
 10
152.005380
 20
88.726079
 30
0.0
 10
152.623986
 20
88.798450
 30
0.0
 10
153.261479
 20
88.879791
 30
0.0
 10
153.915320
 20
88.971041
 30
0.0
 10
154.582966
 20
89.073133
 30
0.0
 10
155.261871
 20
89.187001
 30
0.0
 10
155.949497
 20
89.313586
 30
0.0
 10
156.643301
 20
89.453821
 30
0.0
 10
157.340737
 20
89.608641
 30
0.0
 10
158.039264
 20
89.778983
 30
0.0
 10
158.736340
 20
89.965781
 30
0.0
 10
159.429424
 20
90.169976
 30
0.0
 10
160.115970
 20
90.392496
 30
0.0
 10
160.793441
 20
90.634283
 30
0.0
 10
161.459289
 20
90.896271
 30
0.0
 10
162.110971
 20
91.179393
 30
0.0
 10
162.745950
 20
91.484588
 30
0.0
 10
163.361680
 20
91.812793
 30
0.0
 10
163.955619
 20
92.164940
 30
0.0
 10
164.525222
 20
92.541966
 30
0.0
 10
165.067952
 20
92.944807
 30
0.0
 10
165.581262
 20
93.374400
 30
0.0
 10
166.062613
 20
93.831680
 30
0.0
 10
166.509457
 20
94.317585
 30
0.0
 10
166.919257
 20
94.833046
 30
0.0
 10
167.289467
 20
95.379000
 30
0.0
 10
167.617548
 20
95.956385
 30
0.0
 10
167.900954
 20
96.566138
 30
0.0
 10
168.137142
 20
97.209189
 30
0.0
 10
168.323575
 20
97.886480
 30
0.0
 10
168.457703
 20
98.598945
 30
0.0
 10
168.536991
 20
99.347517
 30
0.0
 10
168.558898
 20
100.133134
 30
0.0
 10
168.545960
 20
100.439067
 30
0.0
 10
168.532890
 20
100.729881
 30
0.0
 10
168.519528
 20
101.006262
 30
0.0
 10
168.505744
 20
101.268895
 30
0.0
 10
168.491403
 20
101.518463
 30
0.0
 10
168.476348
 20
101.755652
 30
0.0
 10
168.460447
 20
101.981143
 30
0.0
 10
168.443567
 20
102.195625
 30
0.0
 10
168.425548
 20
102.399777
 30
0.0
 10
168.406234
 20
102.594288
 30
0.0
 10
168.385491
 20
102.779841
 30
0.0
 10
168.363186
 20
102.957119
 30
0.0
 10
168.339188
 20
103.126810
 30
0.0
 10
168.313339
 20
103.289595
 30
0.0
 10
168.285483
 20
103.446157
 30
0.0
 10
168.255490
 20
103.597183
 30
0.0
 10
168.223214
 20
103.743358
 30
0.0
 10
168.188511
 20
103.885365
 30
0.0
 10
168.151239
 20
104.023888
 30
0.0
 10
168.111255
 20
104.159614
 30
0.0
 10
168.068417
 20
104.293223
 30
0.0
 10
168.022577
 20
104.425403
 30
0.0
 10
167.973598
 20
104.556835
 30
0.0
 10
167.921332
 20
104.688209
 30
0.0
 10
167.865640
 20
104.820204
 30
0.0
 10
167.806373
 20
104.953504
 30
0.0
 10
167.743392
 20
105.088798
 30
0.0
 10
167.676553
 20
105.226768
 30
0.0
 10
167.605713
 20
105.368098
 30
0.0
 10
167.530728
 20
105.513473
 30
0.0
 10
167.451453
 20
105.663577
 30
0.0
 10
167.367750
 20
105.819093
 30
0.0
 10
167.295415
 20
105.950877
 30
0.0
 10
167.221591
 20
106.082335
 30
0.0
 10
167.146280
 20
106.213465
 30
0.0
 10
167.069485
 20
106.344260
 30
0.0
 10
166.991210
 20
106.474718
 30
0.0
 10
166.911457
 20
106.604840
 30
0.0
 10
166.830227
 20
106.734618
 30
0.0
 10
166.747527
 20
106.864052
 30
0.0
 10
166.663357
 20
106.993140
 30
0.0
 10
166.577722
 20
107.121878
 30
0.0
 10
166.490621
 20
107.250262
 30
0.0
 10
166.402063
 20
107.378291
 30
0.0
 10
166.312046
 20
107.505960
 30
0.0
 10
166.220572
 20
107.633267
 30
0.0
 10
166.127650
 20
107.760212
 30
0.0
 10
166.033276
 20
107.886788
 30
0.0
 10
165.937457
 20
108.012992
 30
0.0
 10
165.840196
 20
108.138825
 30
0.0
 10
165.741496
 20
108.264283
 30
0.0
 10
165.641357
 20
108.389359
 30
0.0
 10
165.539783
 20
108.514055
 30
0.0
 10
165.436781
 20
108.638364
 30
0.0
 10
165.332347
 20
108.762287
 30
0.0
 10
165.226490
 20
108.885821
 30
0.0
 10
165.119209
 20
109.008958
 30
0.0
 10
165.010508
 20
109.131701
 30
0.0
 10
164.900391
 20
109.254044
 30
0.0
 10
164.788861
 20
109.375985
 30
0.0
 10
164.675918
 20
109.497521
 30
0.0
 10
164.561571
 20
109.618650
 30
0.0
 10
164.445816
 20
109.739369
 30
0.0
 10
164.328658
 20
109.859673
 30
0.0
 10
164.209918
 20
109.979997
 30
0.0
 10
164.089440
 20
110.100724
 30
0.0
 10
163.967264
 20
110.221760
 30
0.0
 10
163.843423
 20
110.343019
 30
0.0
 10
163.717960
 20
110.464415
 30
0.0
 10
163.590912
 20
110.585859
 30
0.0
 10
163.462317
 20
110.707263
 30
0.0
 10
163.332213
 20
110.828540
 30
0.0
 10
163.200641
 20
110.949600
 30
0.0
 10
163.067638
 20
111.070358
 30
0.0
 10
162.933240
 20
111.190722
 30
0.0
 10
162.797488
 20
111.310610
 30
0.0
 10
162.660420
 20
111.429930
 30
0.0
 10
162.522073
 20
111.548593
 30
0.0
 10
162.382489
 20
111.666515
 30
0.0
 10
162.241701
 20
111.783606
 30
0.0
 10
162.099753
 20
111.899777
 30
0.0
 10
161.956679
 20
112.014945
 30
0.0
 10
161.812518
 20
112.129014
 30
0.0
 10
161.667312
 20
112.241904
 30
0.0
 10
161.521096
 20
112.353524
 30
0.0
 10
161.373908
 20
112.463784
 30
0.0
 10
161.225789
 20
112.572599
 30
0.0
 10
161.076775
 20
112.679880
 30
0.0
 10
160.926908
 20
112.785541
 30
0.0
 10
160.776222
 20
112.889490
 30
0.0
 10
160.624756
 20
112.991643
 30
0.0
 10
160.472552
 20
113.091912
 30
0.0
 10
160.319646
 20
113.190205
 30
0.0
 10
160.166074
 20
113.286439
 30
0.0
 10
160.011878
 20
113.380525
 30
0.0
 10
159.857097
 20
113.472373
 30
0.0
 10
159.001365
 20
113.964723
 30
0.0
 10
158.139186
 20
114.444828
 30
0.0
 10
157.270808
 20
114.913095
 30
0.0
 10
156.396476
 20
115.369927
 30
0.0
 10
155.516435
 20
115.815732
 30
0.0
 10
154.630935
 20
116.250910
 30
0.0
 10
153.740218
 20
116.675874
 30
0.0
 10
152.844535
 20
117.091021
 30
0.0
 10
151.944129
 20
117.496762
 30
0.0
 10
151.039248
 20
117.893499
 30
0.0
 10
150.130137
 20
118.281638
 30
0.0
 10
149.217045
 20
118.661585
 30
0.0
 10
148.300216
 20
119.033748
 30
0.0
 10
147.379894
 20
119.398526
 30
0.0
 10
146.456332
 20
119.756327
 30
0.0
 10
145.529769
 20
120.107557
 30
0.0
 10
144.600457
 20
120.452621
 30
0.0
 10
143.668639
 20
120.791922
 30
0.0
 10
142.734565
 20
121.125872
 30
0.0
 10
141.798477
 20
121.454868
 30
0.0
 10
140.860624
 20
121.779318
 30
0.0
 10
139.921250
 20
122.099628
 30
0.0
 10
138.980606
 20
122.416202
 30
0.0
 10
138.038933
 20
122.729448
 30
0.0
 10
137.096482
 20
123.039770
 30
0.0
 10
136.153496
 20
123.347573
 30
0.0
 10
135.210222
 20
123.653259
 30
0.0
 10
134.266909
 20
123.957236
 30
0.0
 10
133.323799
 20
124.259911
 30
0.0
 10
132.381141
 20
124.561687
 30
0.0
 10
131.439180
 20
124.862971
 30
0.0
 10
130.498165
 20
125.164165
 30
0.0
 10
130.337468
 20
125.214682
 30
0.0
 10
130.176297
 20
125.263500
 30
0.0
 10
130.014679
 20
125.310720
 30
0.0
 10
129.852645
 20
125.356448
 30
0.0
 10
129.690226
 20
125.400787
 30
0.0
 10
129.527446
 20
125.443840
 30
0.0
 10
129.364333
 20
125.485710
 30
0.0
 10
129.200921
 20
125.526504
 30
0.0
 10
129.037234
 20
125.566321
 30
0.0
 10
128.873303
 20
125.605267
 30
0.0
 10
128.709156
 20
125.643447
 30
0.0
 10
128.544821
 20
125.680962
 30
0.0
 10
128.380326
 20
125.717919
 30
0.0
 10
128.215703
 20
125.754416
 30
0.0
 10
128.050976
 20
125.790563
 30
0.0
 10
127.886177
 20
125.826459
 30
0.0
 10
127.721334
 20
125.862207
 30
0.0
 10
127.556475
 20
125.897915
 30
0.0
 10
127.391629
 20
125.933684
 30
0.0
 10
127.226825
 20
125.969620
 30
0.0
 10
127.062090
 20
126.005823
 30
0.0
 10
126.897453
 20
126.042399
 30
0.0
 10
126.732946
 20
126.079448
 30
0.0
 10
126.568592
 20
126.117080
 30
0.0
 10
126.404426
 20
126.155394
 30
0.0
 10
126.240472
 20
126.194495
 30
0.0
 10
126.076758
 20
126.234486
 30
0.0
 10
125.913317
 20
126.275470
 30
0.0
 10
125.750172
 20
126.317555
 30
0.0
 10
125.587358
 20
126.360838
 30
0.0
 10
125.424899
 20
126.405426
 30
0.0
 10
125.262826
 20
126.451423
 30
0.0
 10
125.097776
 20
126.499498
 30
0.0
 10
124.932959
 20
126.548324
 30
0.0
 10
124.768362
 20
126.597865
 30
0.0
 10
124.603974
 20
126.648088
 30
0.0
 10
124.439781
 20
126.698954
 30
0.0
 10
124.275779
 20
126.750432
 30
0.0
 10
124.111954
 20
126.802486
 30
0.0
 10
123.948296
 20
126.855077
 30
0.0
 10
123.784792
 20
126.908174
 30
0.0
 10
123.621435
 20
126.961741
 30
0.0
 10
123.458209
 20
127.015743
 30
0.0
 10
123.295109
 20
127.070141
 30
0.0
 10
123.132120
 20
127.124904
 30
0.0
 10
122.969235
 20
127.179996
 30
0.0
 10
122.806439
 20
127.235384
 30
0.0
 10
122.643726
 20
127.291026
 30
0.0
 10
122.481081
 20
127.346895
 30
0.0
 10
122.318495
 20
127.402950
 30
0.0
 10
122.155956
 20
127.459158
 30
0.0
 10
121.993457
 20
127.515482
 30
0.0
 10
121.830984
 20
127.571892
 30
0.0
 10
121.668525
 20
127.628346
 30
0.0
 10
121.506073
 20
127.684813
 30
0.0
 10
121.343616
 20
127.741257
 30
0.0
 10
121.181144
 20
127.797642
 30
0.0
 10
121.018642
 20
127.853935
 30
0.0
 10
120.856103
 20
127.910098
 30
0.0
 10
120.693517
 20
127.966097
 30
0.0
 10
120.530872
 20
128.021898
 30
0.0
 10
120.368156
 20
128.077463
 30
0.0
 10
120.205360
 20
128.132761
 30
0.0
 10
120.042472
 20
128.187752
 30
0.0
 10
119.917885
 20
128.229545
 30
0.0
 10
119.793219
 20
128.271124
 30
0.0
 10
119.668484
 20
128.312516
 30
0.0
 10
119.543690
 20
128.353741
 30
0.0
 10
119.418844
 20
128.394828
 30
0.0
 10
119.293958
 20
128.435801
 30
0.0
 10
119.169038
 20
128.476682
 30
0.0
 10
119.044093
 20
128.517499
 30
0.0
 10
118.919136
 20
128.558279
 30
0.0
 10
118.794171
 20
128.599044
 30
0.0
 10
118.669211
 20
128.639816
 30
0.0
 10
118.544264
 20
128.680628
 30
0.0
 10
118.419335
 20
128.721498
 30
0.0
 10
118.294439
 20
128.762453
 30
0.0
 10
118.169585
 20
128.803519
 30
0.0
 10
118.044775
 20
128.844720
 30
0.0
 10
117.920024
 20
128.886080
 30
0.0
 10
117.795342
 20
128.927627
 30
0.0
 10
117.670734
 20
128.969384
 30
0.0
 10
117.546210
 20
129.011376
 30
0.0
 10
117.421782
 20
129.053627
 30
0.0
 10
117.297455
 20
129.096164
 30
0.0
 10
117.173241
 20
129.139011
 30
0.0
 10
117.049148
 20
129.182193
 30
0.0
 10
116.925183
 20
129.225736
 30
0.0
 10
116.801358
 20
129.269662
 30
0.0
 10
116.677684
 20
129.314001
 30
0.0
 10
116.554163
 20
129.358771
 30
0.0
 10
116.430809
 20
129.404004
 30
0.0
 10
116.307632
 20
129.449722
 30
0.0
 10
116.184638
 20
129.495947
 30
0.0
 10
116.061837
 20
129.542709
 30
0.0
 10
116.008383
 20
129.563135
 30
0.0
 10
115.954366
 20
129.583667
 30
0.0
 10
115.899843
 20
129.604278
 30
0.0
 10
115.844884
 20
129.624995
 30
0.0
 10
115.789549
 20
129.645817
 30
0.0
 10
115.733905
 20
129.666746
 30
0.0
 10
115.678011
 20
129.687807
 30
0.0
 10
115.621936
 20
129.708973
 30
0.0
 10
115.565741
 20
129.730272
 30
0.0
 10
115.509488
 20
129.751677
 30
0.0
 10
115.453245
 20
129.773214
 30
0.0
 10
115.397074
 20
129.794884
 30
0.0
 10
115.341038
 20
129.816659
 30
0.0
 10
115.285203
 20
129.838566
 30
0.0
 10
115.229630
 20
129.860633
 30
0.0
 10
115.174385
 20
129.882831
 30
0.0
 10
115.119532
 20
129.905162
 30
0.0
 10
115.065131
 20
129.927625
 30
0.0
 10
115.011248
 20
129.950247
 30
0.0
 10
114.957950
 20
129.973028
 30
0.0
 10
114.905298
 20
129.995941
 30
0.0
 10
114.853355
 20
130.019012
 30
0.0
 10
114.802185
 20
130.042243
 30
0.0
 10
114.751853
 20
130.065632
 30
0.0
 10
114.702421
 20
130.089180
 30
0.0
 10
114.653957
 20
130.112913
 30
0.0
 10
114.606520
 20
130.136805
 30
0.0
 10
114.560176
 20
130.160855
 30
0.0
 10
114.514988
 20
130.185091
 30
0.0
 10
114.471022
 20
130.209512
 30
0.0
 10
114.428339
 20
130.234118
 30
0.0
 10
114.387003
 20
130.258910
 30
0.0
 10
114.346686
 20
130.283940
 30
0.0
 10
114.307001
 20
130.309287
 30
0.0
 10
114.267941
 20
130.334978
 30
0.0
 10
114.229497
 20
130.361039
 30
0.0
 10
114.191662
 20
130.387471
 30
0.0
 10
114.154424
 20
130.414276
 30
0.0
 10
114.117779
 20
130.441480
 30
0.0
 10
114.081717
 20
130.469100
 30
0.0
 10
114.046228
 20
130.497149
 30
0.0
 10
114.011306
 20
130.525639
 30
0.0
 10
113.976939
 20
130.554587
 30
0.0
 10
113.943123
 20
130.584006
 30
0.0
 10
113.909846
 20
130.613912
 30
0.0
 10
113.877098
 20
130.644321
 30
0.0
 10
113.844878
 20
130.675245
 30
0.0
 10
113.813170
 20
130.706699
 30
0.0
 10
113.781970
 20
130.738697
 30
0.0
 10
113.751268
 20
130.771257
 30
0.0
 10
113.721055
 20
130.804388
 30
0.0
 10
113.691321
 20
130.838112
 30
0.0
 10
113.662061
 20
130.872436
 30
0.0
 10
113.633266
 20
130.907380
 30
0.0
 10
113.604927
 20
130.942953
 30
0.0
 10
113.577035
 20
130.979177
 30
0.0
 10
113.549579
 20
131.016060
 30
0.0
 10
113.522557
 20
131.053620
 30
0.0
 10
113.495956
 20
131.091871
 30
0.0
 10
113.469762
 20
131.130826
 30
0.0
 10
113.443991
 20
131.170503
 30
0.0
 10
113.418591
 20
131.210913
 30
0.0
 10
113.393588
 20
131.252074
 30
0.0
 10
113.368956
 20
131.293997
 30
0.0
 10
113.344720
 20
131.350361
 30
0.0
 10
113.320828
 20
131.433676
 30
0.0
 10
113.297306
 20
131.542216
 30
0.0
 10
113.274129
 20
131.674248
 30
0.0
 10
113.251269
 20
131.828045
 30
0.0
 10
113.228753
 20
132.001879
 30
0.0
 10
113.206554
 20
132.194017
 30
0.0
 10
113.184673
 20
132.402731
 30
0.0
 10
113.163083
 20
132.626293
 30
0.0
 10
113.141784
 20
132.862974
 30
0.0
 10
113.120776
 20
133.111042
 30
0.0
 10
113.100060
 20
133.368767
 30
0.0
 10
113.079607
 20
133.634424
 30
0.0
 10
113.059420
 20
133.906281
 30
0.0
 10
113.039496
 20
134.182607
 30
0.0
 10
113.019811
 20
134.461676
 30
0.0
 10
113.000365
 20
134.741756
 30
0.0
 10
112.981129
 20
135.021119
 30
0.0
 10
112.962132
 20
135.298037
 30
0.0
 10
112.943347
 20
135.570775
 30
0.0
 10
112.924747
 20
135.837610
 30
0.0
 10
112.906358
 20
136.096812
 30
0.0
 10
112.888155
 20
136.346647
 30
0.0
 10
112.870110
 20
136.585388
 30
0.0
 10
112.852251
 20
136.811308
 30
0.0
 10
112.834550
 20
137.022673
 30
0.0
 10
112.817008
 20
137.217759
 30
0.0
 10
112.799599
 20
137.394831
 30
0.0
 10
112.782321
 20
137.552165
 30
0.0
 10
112.765176
 20
137.688029
 30
0.0
 10
112.748164
 20
137.800691
 30
0.0
 10
112.731257
 20
137.888427
 30
0.0
 10
112.717155
 20
137.951588
 30
0.0
 10
112.703105
 20
138.015882
 30
0.0
 10
112.689109
 20
138.081298
 30
0.0
 10
112.675139
 20
138.147832
 30
0.0
 10
112.661222
 20
138.215473
 30
0.0
 10
112.647331
 20
138.284217
 30
0.0
 10
112.633467
 20
138.354051
 30
0.0
 10
112.619629
 20
138.424970
 30
0.0
 10
112.605818
 20
138.496966
 30
0.0
 10
112.592033
 20
138.570028
 30
0.0
 10
112.578248
 20
138.644151
 30
0.0
 10
112.564490
 20
138.719327
 30
0.0
 10
112.550732
 20
138.795546
 30
0.0
 10
112.536973
 20
138.872801
 30
0.0
 10
112.523215
 20
138.951086
 30
0.0
 10
112.509457
 20
139.030390
 30
0.0
 10
112.495698
 20
139.110704
 30
0.0
 10
112.481914
 20
139.192024
 30
0.0
 10
112.468129
 20
139.274341
 30
0.0
 10
112.454317
 20
139.357645
 30
0.0
 10
112.440480
 20
139.441928
 30
0.0
 10
112.426616
 20
139.527182
 30
0.0
 10
112.412725
 20
139.613402
 30
0.0
 10
112.398808
 20
139.700577
 30
0.0
 10
112.384838
 20
139.788699
 30
0.0
 10
112.370841
 20
139.877763
 30
0.0
 10
112.356792
 20
139.967756
 30
0.0
 10
112.342690
 20
140.058674
 30
0.0
 10
112.328535
 20
140.150509
 30
0.0
 10
112.314326
 20
140.243248
 30
0.0
 10
112.300065
 20
140.336889
 30
0.0
 10
112.285725
 20
140.431422
 30
0.0
 10
112.476431
 20
141.030857
 30
0.0
 10
112.682880
 20
141.587371
 30
0.0
 10
112.904069
 20
142.101880
 30
0.0
 10
113.138988
 20
142.575302
 30
0.0
 10
113.386632
 20
143.008551
 30
0.0
 10
113.646001
 20
143.402545
 30
0.0
 10
113.916082
 20
143.758200
 30
0.0
 10
114.195874
 20
144.076433
 30
0.0
 10
114.484370
 20
144.358159
 30
0.0
 10
114.780563
 20
144.604297
 30
0.0
 10
115.083450
 20
144.815761
 30
0.0
 10
115.392026
 20
144.993468
 30
0.0
 10
115.705282
 20
145.138335
 30
0.0
 10
116.022213
 20
145.251278
 30
0.0
 10
116.341817
 20
145.333214
 30
0.0
 10
116.663084
 20
145.385059
 30
0.0
 10
116.985011
 20
145.407728
 30
0.0
 10
117.306591
 20
145.402140
 30
0.0
 10
117.626818
 20
145.369211
 30
0.0
 10
117.944692
 20
145.309857
 30
0.0
 10
118.259199
 20
145.224994
 30
0.0
 10
118.569336
 20
145.115539
 30
0.0
 10
118.874101
 20
144.982408
 30
0.0
 10
119.172485
 20
144.826518
 30
0.0
 10
119.463485
 20
144.648785
 30
0.0
 10
119.746094
 20
144.450125
 30
0.0
 10
120.019303
 20
144.231456
 30
0.0
 10
120.282113
 20
143.993692
 30
0.0
 10
120.533512
 20
143.737752
 30
0.0
 10
120.772500
 20
143.464551
 30
0.0
 10
120.998068
 20
143.175006
 30
0.0
 10
121.209211
 20
142.870033
 30
0.0
 10
121.521530
 20
142.437161
 30
0.0
 10
121.845999
 20
142.042786
 30
0.0
 10
122.181171
 20
141.685284
 30
0.0
 10
122.525597
 20
141.363032
 30
0.0
 10
122.877832
 20
141.074403
 30
0.0
 10
123.236430
 20
140.817781
 30
0.0
 10
123.599941
 20
140.591536
 30
0.0
 10
123.966920
 20
140.394048
 30
0.0
 10
124.335922
 20
140.223693
 30
0.0
 10
124.705494
 20
140.078850
 30
0.0
 10
125.074196
 20
139.957890
 30
0.0
 10
125.440575
 20
139.859193
 30
0.0
 10
125.803190
 20
139.781136
 30
0.0
 10
126.160586
 20
139.722094
 30
0.0
 10
126.511326
 20
139.680443
 30
0.0
 10
126.853956
 20
139.654567
 30
0.0
 10
127.187029
 20
139.642846
 30
0.0
 10
127.509101
 20
139.643640
 30
0.0
 10
127.818725
 20
139.655334
 30
0.0
 10
128.114452
 20
139.676289
 30
0.0
 10
128.394836
 20
139.704904
 30
0.0
 10
128.658433
 20
139.739546
 30
0.0
 10
128.903789
 20
139.778593
 30
0.0
 10
129.129462
 20
139.820424
 30
0.0
 10
129.334007
 20
139.863413
 30
0.0
 10
129.515971
 20
139.905937
 30
0.0
 10
129.673911
 20
139.946373
 30
0.0
 10
129.806380
 20
139.983097
 30
0.0
 10
129.911931
 20
140.014485
 30
0.0
 10
129.989115
 20
140.038906
 30
0.0
 10
130.036486
 20
140.054754
 30
0.0
 10
130.052599
 20
140.060390
 30
0.0
 10
130.236675
 20
139.667071
 30
0.0
 10
130.413067
 20
139.294032
 30
0.0
 10
130.582417
 20
138.940276
 30
0.0
 10
130.745371
 20
138.604801
 30
0.0
 10
130.902568
 20
138.286600
 30
0.0
 10
131.054653
 20
137.984678
 30
0.0
 10
131.202269
 20
137.698029
 30
0.0
 10
131.346060
 20
137.425653
 30
0.0
 10
131.486670
 20
137.166549
 30
0.0
 10
131.624737
 20
136.919717
 30
0.0
 10
131.760910
 20
136.684153
 30
0.0
 10
131.895832
 20
136.458858
 30
0.0
 10
132.030142
 20
136.242828
 30
0.0
 10
132.164485
 20
136.035062
 30
0.0
 10
132.299504
 20
135.834558
 30
0.0
 10
132.435844
 20
135.640316
 30
0.0
 10
132.574147
 20
135.451335
 30
0.0
 10
132.715053
 20
135.266611
 30
0.0
 10
132.859212
 20
135.085144
 30
0.0
 10
133.007259
 20
134.905934
 30
0.0
 10
133.159842
 20
134.727978
 30
0.0
 10
133.317605
 20
134.550273
 30
0.0
 10
133.481189
 20
134.371819
 30
0.0
 10
133.651237
 20
134.191617
 30
0.0
 10
133.828394
 20
134.008660
 30
0.0
 10
134.013300
 20
133.821952
 30
0.0
 10
134.206602
 20
133.630488
 30
0.0
 10
134.408940
 20
133.433268
 30
0.0
 10
134.620958
 20
133.229290
 30
0.0
 10
134.843301
 20
133.017552
 30
0.0
 10
135.076608
 20
132.797054
 30
0.0
 10
135.321527
 20
132.566792
 30
0.0
 10
135.792367
 20
132.203800
 30
0.0
 10
136.292741
 20
131.855417
 30
0.0
 10
136.820847
 20
131.523156
 30
0.0
 10
137.374879
 20
131.208527
 30
0.0
 10
137.953031
 20
130.913035
 30
0.0
 10
138.553492
 20
130.638191
 30
0.0
 10
139.174464
 20
130.385504
 30
0.0
 10
139.814134
 20
130.156486
 30
0.0
 10
140.470697
 20
129.952640
 30
0.0
 10
141.142350
 20
129.775480
 30
0.0
 10
141.827285
 20
129.626517
 30
0.0
 10
142.523697
 20
129.507254
 30
0.0
 10
143.229778
 20
129.419206
 30
0.0
 10
143.943724
 20
129.363879
 30
0.0
 10
144.663727
 20
129.342791
 30
0.0
 10
145.387979
 20
129.357423
 30
0.0
 10
146.114678
 20
129.409315
 30
0.0
 10
146.842018
 20
129.499967
 30
0.0
 10
147.568190
 20
129.630888
 30
0.0
 10
148.291389
 20
129.803584
 30
0.0
 10
149.009810
 20
130.019569
 30
0.0
 10
149.721645
 20
130.280348
 30
0.0
 10
150.425090
 20
130.587431
 30
0.0
 10
151.118335
 20
130.942327
 30
0.0
 10
151.799579
 20
131.346547
 30
0.0
 10
152.467012
 20
131.801601
 30
0.0
 10
153.118828
 20
132.308995
 30
0.0
 10
153.753225
 20
132.870240
 30
0.0
 10
154.368395
 20
133.486844
 30
0.0
 10
154.962527
 20
134.160317
 30
0.0
 10
155.533821
 20
134.892170
 30
0.0
 10
156.080468
 20
135.683909
 30
0.0
 10
156.393092
 20
136.088756
 30
0.0
 10
156.687298
 20
136.518969
 30
0.0
 10
156.962542
 20
136.973073
 30
0.0
 10
157.218285
 20
137.449606
 30
0.0
 10
157.453992
 20
137.947099
 30
0.0
 10
157.669117
 20
138.464090
 30
0.0
 10
157.863120
 20
138.999107
 30
0.0
 10
158.035464
 20
139.550683
 30
0.0
 10
158.185610
 20
140.117355
 30
0.0
 10
158.313015
 20
140.697652
 30
0.0
 10
158.417139
 20
141.290107
 30
0.0
 10
158.497445
 20
141.893259
 30
0.0
 10
158.553389
 20
142.505635
 30
0.0
 10
158.584435
 20
143.125770
 30
0.0
 10
158.590044
 20
143.752197
 30
0.0
 10
158.569671
 20
144.383450
 30
0.0
 10
158.522776
 20
145.018061
 30
0.0
 10
158.448820
 20
145.654564
 30
0.0
 10
158.347265
 20
146.291492
 30
0.0
 10
158.217569
 20
146.927377
 30
0.0
 10
158.059195
 20
147.560752
 30
0.0
 10
157.871600
 20
148.190152
 30
0.0
 10
157.654242
 20
148.814108
 30
0.0
 10
157.406587
 20
149.431155
 30
0.0
 10
157.128091
 20
150.039825
 30
0.0
 10
156.818214
 20
150.638651
 30
0.0
 10
156.476417
 20
151.226166
 30
0.0
 10
156.102162
 20
151.800904
 30
0.0
 10
155.694904
 20
152.361398
 30
0.0
 10
155.254109
 20
152.906179
 30
0.0
 10
154.779232
 20
153.433783
 30
0.0
 10
154.269734
 20
153.942742
 30
0.0
 10
153.955420
 20
154.229725
 30
0.0
 10
153.625148
 20
154.510340
 30
0.0
 10
153.279497
 20
154.783996
 30
0.0
 10
152.919039
 20
155.050103
 30
0.0
 10
152.544352
 20
155.308067
 30
0.0
 10
152.156015
 20
155.557300
 30
0.0
 10
151.754602
 20
155.797208
 30
0.0
 10
151.340688
 20
156.027202
 30
0.0
 10
150.914852
 20
156.246690
 30
0.0
 10
150.477670
 20
156.455081
 30
0.0
 10
150.029718
 20
156.651783
 30
0.0
 10
149.571570
 20
156.836206
 30
0.0
 10
149.103803
 20
157.007758
 30
0.0
 10
148.626997
 20
157.165849
 30
0.0
 10
148.141725
 20
157.309886
 30
0.0
 10
147.648565
 20
157.439279
 30
0.0
 10
147.148093
 20
157.553437
 30
0.0
 10
146.640884
 20
157.651769
 30
0.0
 10
146.127516
 20
157.733682
 30
0.0
 10
145.608562
 20
157.798587
 30
0.0
 10
145.084602
 20
157.845893
 30
0.0
 10
144.556213
 20
157.875007
 30
0.0
 10
144.023970
 20
157.885338
 30
0.0
 10
143.488445
 20
157.876298
 30
0.0
 10
142.950222
 20
157.847291
 30
0.0
 10
142.409871
 20
157.797729
 30
0.0
 10
141.867973
 20
157.727019
 30
0.0
 10
141.325100
 20
157.634572
 30
0.0
 10
140.781832
 20
157.519795
 30
0.0
 10
140.238742
 20
157.382098
 30
0.0
 10
139.696410
 20
157.220889
 30
0.0
 10
139.155411
 20
157.035578
 30
0.0
 10
138.758359
 20
156.819636
 30
0.0
 10
138.386760
 20
156.645518
 30
0.0
 10
138.039401
 20
156.512208
 30
0.0
 10
137.715065
 20
156.418689
 30
0.0
 10
137.412532
 20
156.363943
 30
0.0
 10
137.130589
 20
156.346954
 30
0.0
 10
136.868020
 20
156.366705
 30
0.0
 10
136.623603
 20
156.422178
 30
0.0
 10
136.396125
 20
156.512358
 30
0.0
 10
136.184368
 20
156.636225
 30
0.0
 10
135.987116
 20
156.792765
 30
0.0
 10
135.803154
 20
156.980960
 30
0.0
 10
135.631262
 20
157.199792
 30
0.0
 10
135.470223
 20
157.448246
 30
0.0
 10
135.318823
 20
157.725303
 30
0.0
 10
135.175842
 20
158.029948
 30
0.0
 10
135.040066
 20
158.361163
 30
0.0
 10
134.910280
 20
158.717930
 30
0.0
 10
134.785262
 20
159.099234
 30
0.0
 10
134.663800
 20
159.504057
 30
0.0
 10
134.544674
 20
159.931383
 30
0.0
 10
134.426667
 20
160.380193
 30
0.0
 10
134.308565
 20
160.849472
 30
0.0
 10
134.189148
 20
161.338202
 30
0.0
 10
134.067204
 20
161.845367
 30
0.0
 10
133.941511
 20
162.369949
 30
0.0
 10
133.810854
 20
162.910931
 30
0.0
 10
133.674020
 20
163.467297
 30
0.0
 10
133.529788
 20
164.038030
 30
0.0
 10
133.376940
 20
164.622112
 30
0.0
 10
133.214264
 20
165.218526
 30
0.0
 10
133.040539
 20
165.826257
 30
0.0
 10
132.807099
 20
166.413718
 30
0.0
 10
132.579484
 20
166.987860
 30
0.0
 10
132.356464
 20
167.549196
 30
0.0
 10
132.136812
 20
168.098238
 30
0.0
 10
131.919303
 20
168.635499
 30
0.0
 10
131.702707
 20
169.161491
 30
0.0
 10
131.485797
 20
169.676727
 30
0.0
 10
131.267349
 20
170.181719
 30
0.0
 10
131.046131
 20
170.676981
 30
0.0
 10
130.820917
 20
171.163024
 30
0.0
 10
130.590484
 20
171.640362
 30
0.0
 10
130.353597
 20
172.109506
 30
0.0
 10
130.109035
 20
172.570970
 30
0.0
 10
129.855569
 20
173.025266
 30
0.0
 10
129.591973
 20
173.472908
 30
0.0
 10
129.317015
 20
173.914406
 30
0.0
 10
129.029471
 20
174.350275
 30
0.0
 10
128.728116
 20
174.781026
 30
0.0
 10
128.411719
 20
175.207172
 30
0.0
 10
128.079053
 20
175.629226
 30
0.0
 10
127.728893
 20
176.047701
 30
0.0
 10
127.360008
 20
176.463108
 30
0.0
 10
126.971174
 20
176.875961
 30
0.0
 10
126.561165
 20
177.286773
 30
0.0
 10
126.128749
 20
177.696055
 30
0.0
 10
125.672702
 20
178.104321
 30
0.0
 10
125.191796
 20
178.512083
 30
0.0
 10
124.684804
 20
178.919853
 30
0.0
 10
124.150496
 20
179.328145
 30
0.0
 10
123.587648
 20
179.737471
 30
0.0
 10
122.995034
 20
180.148343
 30
0.0
 10
122.371422
 20
180.561274
 30
0.0
 10
121.695769
 20
180.914500
 30
0.0
 10
121.043637
 20
181.248672
 30
0.0
 10
120.413709
 20
181.564010
 30
0.0
 10
119.804665
 20
181.860735
 30
0.0
 10
119.215186
 20
182.139067
 30
0.0
 10
118.643954
 20
182.399227
 30
0.0
 10
118.089649
 20
182.641436
 30
0.0
 10
117.550954
 20
182.865912
 30
0.0
 10
117.026553
 20
183.072877
 30
0.0
 10
116.515119
 20
183.262552
 30
0.0
 10
116.015342
 20
183.435156
 30
0.0
 10
115.525897
 20
183.590909
 30
0.0
 10
115.045467
 20
183.730033
 30
0.0
 10
114.572733
 20
183.852748
 30
0.0
 10
114.106378
 20
183.959274
 30
0.0
 10
113.645085
 20
184.049830
 30
0.0
 10
113.187531
 20
184.124639
 30
0.0
 10
112.732397
 20
184.183920
 30
0.0
 10
112.278367
 20
184.227893
 30
0.0
 10
111.824120
 20
184.256779
 30
0.0
 10
111.368340
 20
184.270800
 30
0.0
 10
110.909706
 20
184.270165
 30
0.0
 10
110.446900
 20
184.255113
 30
0.0
 10
109.978603
 20
184.225854
 30
0.0
 10
109.503496
 20
184.182610
 30
0.0
 10
109.020261
 20
184.125601
 30
0.0
 10
108.527578
 20
184.055047
 30
0.0
 10
108.024131
 20
183.971170
 30
0.0
 10
107.508599
 20
183.874188
 30
0.0
 10
106.979662
 20
183.764323
 30
0.0
 10
106.436004
 20
183.641795
 30
0.0
 10
105.876305
 20
183.506825
 30
0.0
 10
105.176125
 20
183.317702
 30
0.0
 10
104.493185
 20
183.102930
 30
0.0
 10
103.827340
 20
182.863222
 30
0.0
 10
103.178446
 20
182.599289
 30
0.0
 10
102.546365
 20
182.311842
 30
0.0
 10
101.930952
 20
182.001594
 30
0.0
 10
101.332065
 20
181.669255
 30
0.0
 10
100.749564
 20
181.315537
 30
0.0
 10
100.183305
 20
180.941152
 30
0.0
 10
99.633144
 20
180.546812
 30
0.0
 10
99.098942
 20
180.133227
 30
0.0
 10
98.580554
 20
179.701110
 30
0.0
 10
98.077841
 20
179.251173
 30
0.0
 10
97.590658
 20
178.784125
 30
0.0
 10
97.118861
 20
178.300681
 30
0.0
 10
96.662312
 20
177.801550
 30
0.0
 10
96.220868
 20
177.287445
 30
0.0
 10
95.794383
 20
176.759076
 30
0.0
 10
95.382721
 20
176.217157
 30
0.0
 10
94.985732
 20
175.662397
 30
0.0
 10
94.603282
 20
175.095509
 30
0.0
 10
94.235223
 20
174.517205
 30
0.0
 10
93.881411
 20
173.928196
 30
0.0
 10
93.541710
 20
173.329193
 30
0.0
 10
93.215976
 20
172.720908
 30
0.0
 10
92.904064
 20
172.104053
 30
0.0
 10
92.605834
 20
171.479339
 30
0.0
 10
92.321142
 20
170.847478
 30
0.0
 10
92.049847
 20
170.209182
 30
0.0
 10
91.791806
 20
169.565161
 30
0.0
 10
91.546879
 20
168.916128
 30
0.0
 10
91.314921
 20
168.262794
 30
0.0
 10
91.295660
 20
168.267766
 30
0.0
 10
91.276398
 20
168.272711
 30
0.0
 10
91.257136
 20
168.277628
 30
0.0
 10
91.237875
 20
168.282518
 30
0.0
 10
91.218587
 20
168.287380
 30
0.0
 10
91.199298
 20
168.292215
 30
0.0
 10
91.180010
 20
168.297022
 30
0.0
 10
91.160696
 20
168.301802
 30
0.0
 10
91.141381
 20
168.306554
 30
0.0
 10
91.122067
 20
168.311278
 30
0.0
 10
91.102726
 20
168.315974
 30
0.0
 10
91.083385
 20
168.320642
 30
0.0
 10
91.064043
 20
168.325282
 30
0.0
 10
91.044676
 20
168.329893
 30
0.0
 10
91.025308
 20
168.334477
 30
0.0
 10
91.005915
 20
168.339032
 30
0.0
 10
90.986521
 20
168.343559
 30
0.0
 10
90.967100
 20
168.348058
 30
0.0
 10
90.947680
 20
168.352527
 30
0.0
 10
90.928233
 20
168.356969
 30
0.0
 10
90.908786
 20
168.361381
 30
0.0
 10
90.889313
 20
168.365765
 30
0.0
 10
90.869839
 20
168.370120
 30
0.0
 10
90.850340
 20
168.374447
 30
0.0
 10
90.830813
 20
168.378744
 30
0.0
 10
90.811287
 20
168.383012
 30
0.0
 10
90.791734
 20
168.387251
 30
0.0
 10
90.772182
 20
168.391460
 30
0.0
 10
90.752602
 20
168.395641
 30
0.0
 10
90.732997
 20
168.399792
 30
0.0
 10
90.713391
 20
168.403913
 30
0.0
 10
90.693759
 20
168.408006
 30
0.0
 10
90.618366
 20
168.423432
 30
0.0
 10
90.542677
 20
168.438468
 30
0.0
 10
90.466665
 20
168.453116
 30
0.0
 10
90.390308
 20
168.467383
 30
0.0
 10
90.313582
 20
168.481272
 30
0.0
 10
90.236469
 20
168.494789
 30
0.0
 10
90.158941
 20
168.507939
 30
0.0
 10
90.080976
 20
168.520725
 30
0.0
 10
90.002551
 20
168.533153
 30
0.0
 10
89.923647
 20
168.545227
 30
0.0
 10
89.844238
 20
168.556953
 30
0.0
 10
89.764299
 20
168.568334
 30
0.0
 10
89.683810
 20
168.579377
 30
0.0
 10
89.602750
 20
168.590084
 30
0.0
 10
89.521091
 20
168.600462
 30
0.0
 10
89.438814
 20
168.610514
 30
0.0
 10
89.355896
 20
168.620246
 30
0.0
 10
89.272312
 20
168.629662
 30
0.0
 10
89.188039
 20
168.638767
 30
0.0
 10
89.103058
 20
168.647566
 30
0.0
 10
89.017341
 20
168.656063
 30
0.0
 10
88.930869
 20
168.664264
 30
0.0
 10
88.843615
 20
168.672172
 30
0.0
 10
88.755562
 20
168.679793
 30
0.0
 10
88.666683
 20
168.687132
 30
0.0
 10
88.576955
 20
168.694192
 30
0.0
 10
88.486359
 20
168.700979
 30
0.0
 10
88.394866
 20
168.707498
 30
0.0
 10
88.302458
 20
168.713753
 30
0.0
 10
88.209110
 20
168.719749
 30
0.0
 10
88.114799
 20
168.725491
 30
0.0
 10
88.019504
 20
168.730983
 30
0.0
 10
87.923201
 20
168.736231
 30
0.0
 10
87.825864
 20
168.741239
 30
0.0
 10
87.727473
 20
168.746012
 30
0.0
 10
87.628006
 20
168.750556
 30
0.0
 10
87.527435
 20
168.754875
 30
0.0
 10
87.425742
 20
168.758973
 30
0.0
 10
87.322901
 20
168.762856
 30
0.0
 10
87.218888
 20
168.766528
 30
0.0
 10
87.113685
 20
168.769994
 30
0.0
 10
87.007264
 20
168.773259
 30
0.0
 10
86.899605
 20
168.776328
 30
0.0
 10
86.790684
 20
168.779204
 30
0.0
 10
86.680477
 20
168.781894
 30
0.0
 10
86.568961
 20
168.784402
 30
0.0
 10
86.456116
 20
168.786733
 30
0.0
 10
86.341914
 20
168.788891
 30
0.0
 10
86.226336
 20
168.790881
 30
0.0
 10
86.109358
 20
168.792708
 30
0.0
 10
85.990954
 20
168.794377
 30
0.0
 10
85.871106
 20
168.795892
 30
0.0
 10
85.749789
 20
168.797259
 30
0.0
 10
85.626978
 20
168.798482
 30
0.0
 10
85.502653
 20
168.799566
 30
0.0
 10
85.377234
 20
168.800851
 30
0.0
 10
85.249808
 20
168.801671
 30
0.0
 10
85.120798
 20
168.802366
 30
0.0
 10
84.990181
 20
168.802941
 30
0.0
 10
84.857931
 20
168.803401
 30
0.0
 10
84.724028
 20
168.803750
 30
0.0
 10
84.588448
 20
168.803993
 30
0.0
 10
84.451169
 20
168.804136
 30
0.0
 10
84.312167
 20
168.804183
 30
0.0
 10
84.193785
 20
168.804170
 30
0.0
 10
84.077032
 20
168.804130
 30
0.0
 10
83.961888
 20
168.804061
 30
0.0
 10
83.848337
 20
168.803961
 30
0.0
 10
83.736357
 20
168.803826
 30
0.0
 10
83.625931
 20
168.803655
 30
0.0
 10
83.517042
 20
168.803446
 30
0.0
 10
83.409666
 20
168.803195
 30
0.0
 10
83.303787
 20
168.802902
 30
0.0
 10
83.199385
 20
168.802562
 30
0.0
 10
83.096441
 20
168.802175
 30
0.0
 10
82.994939
 20
168.801738
 30
0.0
 10
82.894855
 20
168.801248
 30
0.0
 10
82.796174
 20
168.800703
 30
0.0
 10
82.698876
 20
168.800101
 30
0.0
 10
82.602940
 20
168.799440
 30
0.0
 10
82.508349
 20
168.798716
 30
0.0
 10
82.415084
 20
168.797929
 30
0.0
 10
82.323128
 20
168.797074
 30
0.0
 10
82.232455
 20
168.796151
 30
0.0
 10
82.143055
 20
168.795157
 30
0.0
 10
82.054901
 20
168.794090
 30
0.0
 10
81.967980
 20
168.792946
 30
0.0
 10
81.882271
 20
168.791725
 30
0.0
 10
81.797755
 20
168.790423
 30
0.0
 10
81.714411
 20
168.789038
 30
0.0
 10
81.632221
 20
168.787568
 30
0.0
 10
81.551169
 20
168.786011
 30
0.0
 10
81.471233
 20
168.784364
 30
0.0
 10
81.392395
 20
168.782625
 30
0.0
 10
81.314637
 20
168.780791
 30
0.0
 10
81.237937
 20
168.778861
 30
0.0
 10
81.162282
 20
168.776832
 30
0.0
 10
81.087645
 20
168.774702
 30
0.0
 10
81.014014
 20
168.772468
 30
0.0
 10
80.941365
 20
168.770128
 30
0.0
 10
80.869682
 20
168.767680
 30
0.0
 10
80.798943
 20
168.765123
 30
0.0
 10
80.729132
 20
168.762453
 30
0.0
 10
80.660227
 20
168.759668
 30
0.0
 10
80.592213
 20
168.756767
 30
0.0
 10
80.525070
 20
168.753747
 30
0.0
 10
80.458776
 20
168.750605
 30
0.0
 10
80.393315
 20
168.747341
 30
0.0
 10
80.328667
 20
168.743951
 30
0.0
 10
80.264815
 20
168.740433
 30
0.0
 10
80.201736
 20
168.736785
 30
0.0
 10
80.139416
 20
168.733005
 30
0.0
 10
80.077834
 20
168.729091
 30
0.0
 10
80.016969
 20
168.725041
 30
0.0
 10
79.956806
 20
168.720852
 30
0.0
 10
79.897325
 20
168.716521
 30
0.0
 10
79.838502
 20
168.712048
 30
0.0
 10
79.780326
 20
168.707430
 30
0.0
 10
79.722774
 20
168.702664
 30
0.0
 10
79.665827
 20
168.697748
 30
0.0
 10
79.609468
 20
168.692680
 30
0.0
 10
79.553676
 20
168.687459
 30
0.0
 10
79.498433
 20
168.682081
 30
0.0
 10
79.443720
 20
168.676545
 30
0.0
 10
79.389518
 20
168.670848
 30
0.0
 10
79.335807
 20
168.664988
 30
0.0
 10
79.282570
 20
168.658963
 30
0.0
 10
79.229789
 20
168.652771
 30
0.0
 10
79.147633
 20
168.642675
 30
0.0
 10
79.066424
 20
168.632123
 30
0.0
 10
78.986097
 20
168.621108
 30
0.0
 10
78.906576
 20
168.609623
 30
0.0
 10
78.827797
 20
168.597660
 30
0.0
 10
78.749681
 20
168.585213
 30
0.0
 10
78.672166
 20
168.572275
 30
0.0
 10
78.595178
 20
168.558837
 30
0.0
 10
78.518647
 20
168.544894
 30
0.0
 10
78.442503
 20
168.530438
 30
0.0
 10
78.366676
 20
168.515462
 30
0.0
 10
78.291095
 20
168.499959
 30
0.0
 10
78.215688
 20
168.483922
 30
0.0
 10
78.140391
 20
168.467344
 30
0.0
 10
78.065125
 20
168.450218
 30
0.0
 10
77.989827
 20
168.432536
 30
0.0
 10
77.914423
 20
168.414291
 30
0.0
 10
77.838845
 20
168.395478
 30
0.0
 10
77.763018
 20
168.376087
 30
0.0
 10
77.686879
 20
168.356113
 30
0.0
 10
77.610351
 20
168.335548
 30
0.0
 10
77.533368
 20
168.314385
 30
0.0
 10
77.455858
 20
168.292617
 30
0.0
 10
77.377750
 20
168.270237
 30
0.0
 10
77.298976
 20
168.247238
 30
0.0
 10
77.219463
 20
168.223612
 30
0.0
 10
77.139144
 20
168.199353
 30
0.0
 10
77.057946
 20
168.174454
 30
0.0
 10
76.975798
 20
168.148907
 30
0.0
 10
76.892634
 20
168.122706
 30
0.0
 10
76.808378
 20
168.095842
 30
0.0
 10
76.722965
 20
168.068310
 30
0.0
 10
76.481117
 20
168.670384
 30
0.0
 10
76.227678
 20
169.267449
 30
0.0
 10
75.962529
 20
169.858922
 30
0.0
 10
75.685552
 20
170.444222
 30
0.0
 10
75.396632
 20
171.022766
 30
0.0
 10
75.095656
 20
171.593971
 30
0.0
 10
74.782503
 20
172.157257
 30
0.0
 10
74.457060
 20
172.712040
 30
0.0
 10
74.119208
 20
173.257739
 30
0.0
 10
73.768834
 20
173.793771
 30
0.0
 10
73.405817
 20
174.319554
 30
0.0
 10
73.030046
 20
174.834507
 30
0.0
 10
72.641402
 20
175.338046
 30
0.0
 10
72.239770
 20
175.829591
 30
0.0
 10
71.825030
 20
176.308557
 30
0.0
 10
71.397069
 20
176.774365
 30
0.0
 10
70.955770
 20
177.226431
 30
0.0
 10
70.501018
 20
177.664172
 30
0.0
 10
70.032692
 20
178.087008
 30
0.0
 10
69.550682
 20
178.494356
 30
0.0
 10
69.054869
 20
178.885634
 30
0.0
 10
68.545136
 20
179.260259
 30
0.0
 10
68.021367
 20
179.617649
 30
0.0
 10
67.483445
 20
179.957223
 30
0.0
 10
66.931254
 20
180.278398
 30
0.0
 10
66.364681
 20
180.580592
 30
0.0
 10
65.783606
 20
180.863222
 30
0.0
 10
65.187912
 20
181.125708
 30
0.0
 10
64.577487
 20
181.367466
 30
0.0
 10
63.952210
 20
181.587914
 30
0.0
 10
63.311966
 20
181.786470
 30
0.0
 10
62.656641
 20
181.962553
 30
0.0
 10
62.096941
 20
182.097522
 30
0.0
 10
61.553283
 20
182.220045
 30
0.0
 10
61.024347
 20
182.329903
 30
0.0
 10
60.508814
 20
182.426875
 30
0.0
 10
60.005367
 20
182.510741
 30
0.0
 10
59.512684
 20
182.581281
 30
0.0
 10
59.029449
 20
182.638274
 30
0.0
 10
58.554342
 20
182.681501
 30
0.0
 10
58.086046
 20
182.710741
 30
0.0
 10
57.623239
 20
182.725774
 30
0.0
 10
57.164605
 20
182.726383
 30
0.0
 10
56.708826
 20
182.712341
 30
0.0
 10
56.254579
 20
182.683432
 30
0.0
 10
55.800548
 20
182.639435
 30
0.0
 10
55.345415
 20
182.580130
 30
0.0
 10
54.887860
 20
182.505297
 30
0.0
 10
54.426567
 20
182.414716
 30
0.0
 10
53.960212
 20
182.308167
 30
0.0
 10
53.487479
 20
182.185428
 30
0.0
 10
53.007048
 20
182.046281
 30
0.0
 10
52.517604
 20
181.890505
 30
0.0
 10
52.017827
 20
181.717880
 30
0.0
 10
51.506393
 20
181.528185
 30
0.0
 10
50.981991
 20
181.321201
 30
0.0
 10
50.443297
 20
181.096707
 30
0.0
 10
49.888992
 20
180.854484
 30
0.0
 10
49.317759
 20
180.594310
 30
0.0
 10
48.728281
 20
180.315966
 30
0.0
 10
48.119236
 20
180.019231
 30
0.0
 10
47.489308
 20
179.703886
 30
0.0
 10
46.837177
 20
179.369710
 30
0.0
 10
46.161523
 20
179.016483
 30
0.0
 10
45.537911
 20
178.603553
 30
0.0
 10
44.945297
 20
178.192685
 30
0.0
 10
44.382449
 20
177.783366
 30
0.0
 10
43.848142
 20
177.375084
 30
0.0
 10
43.341150
 20
176.967325
 30
0.0
 10
42.860243
 20
176.559577
 30
0.0
 10
42.404197
 20
176.151327
 30
0.0
 10
41.971780
 20
175.742062
 30
0.0
 10
41.561771
 20
175.331269
 30
0.0
 10
41.172937
 20
174.918437
 30
0.0
 10
40.804052
 20
174.503050
 30
0.0
 10
40.453892
 20
174.084598
 30
0.0
 10
40.121226
 20
173.662567
 30
0.0
 10
39.804829
 20
173.236444
 30
0.0
 10
39.503474
 20
172.805717
 30
0.0
 10
39.215930
 20
172.369873
 30
0.0
 10
38.940973
 20
171.928399
 30
0.0
 10
38.677376
 20
171.480782
 30
0.0
 10
38.423911
 20
171.026509
 30
0.0
 10
38.179349
 20
170.565068
 30
0.0
 10
37.942462
 20
170.095945
 30
0.0
 10
37.712028
 20
169.618629
 30
0.0
 10
37.486815
 20
169.132606
 30
0.0
 10
37.265597
 20
168.637364
 30
0.0
 10
37.047149
 20
168.132389
 30
0.0
 10
36.830238
 20
167.617168
 30
0.0
 10
36.613642
 20
167.091190
 30
0.0
 10
36.396134
 20
166.553941
 30
0.0
 10
36.176482
 20
166.004909
 30
0.0
 10
35.953462
 20
165.443580
 30
0.0
 10
35.725846
 20
164.869442
 30
0.0
 10
35.492407
 20
164.281982
 30
0.0
 10
35.318681
 20
163.674252
 30
0.0
 10
35.156005
 20
163.077837
 30
0.0
 10
35.003158
 20
162.493755
 30
0.0
 10
34.858926
 20
161.923022
 30
0.0
 10
34.722091
 20
161.366657
 30
0.0
 10
34.591435
 20
160.825674
 30
0.0
 10
34.465742
 20
160.301092
 30
0.0
 10
34.343798
 20
159.793927
 30
0.0
 10
34.224381
 20
159.305197
 30
0.0
 10
34.106279
 20
158.835918
 30
0.0
 10
33.988272
 20
158.387108
 30
0.0
 10
33.869146
 20
157.959783
 30
0.0
 10
33.747684
 20
157.554959
 30
0.0
 10
33.622665
 20
157.173656
 30
0.0
 10
33.492879
 20
156.816888
 30
0.0
 10
33.357103
 20
156.485673
 30
0.0
 10
33.214122
 20
156.181029
 30
0.0
 10
33.062722
 20
155.903971
 30
0.0
 10
32.901684
 20
155.655517
 30
0.0
 10
32.729792
 20
155.436685
 30
0.0
 10
32.545830
 20
155.248490
 30
0.0
 10
32.348577
 20
155.091951
 30
0.0
 10
32.136821
 20
154.968082
 30
0.0
 10
31.909343
 20
154.877903
 30
0.0
 10
31.664926
 20
154.822430
 30
0.0
 10
31.402356
 20
154.802679
 30
0.0
 10
31.120413
 20
154.819668
 30
0.0
 10
30.817881
 20
154.874414
 30
0.0
 10
30.493544
 20
154.967933
 30
0.0
 10
30.146186
 20
155.101243
 30
0.0
 10
29.774586
 20
155.275361
 30
0.0
 10
29.377534
 20
155.491303
 30
0.0
 10
29.212654
 20
155.550426
 30
0.0
 10
29.047615
 20
155.607258
 30
0.0
 10
28.882433
 20
155.661816
 30
0.0
 10
28.717124
 20
155.714118
 30
0.0
 10
28.551703
 20
155.764180
 30
0.0
 10
28.386191
 20
155.812021
 30
0.0
 10
28.220601
 20
155.857657
 30
0.0
 10
28.054948
 20
155.901106
 30
0.0
 10
27.889248
 20
155.942386
 30
0.0
 10
27.723521
 20
155.981514
 30
0.0
 10
27.557780
 20
156.018507
 30
0.0
 10
27.392043
 20
156.053383
 30
0.0
 10
27.226324
 20
156.086159
 30
0.0
 10
27.060641
 20
156.116853
 30
0.0
 10
26.895010
 20
156.145481
 30
0.0
 10
26.729447
 20
156.172063
 30
0.0
 10
26.563968
 20
156.196613
 30
0.0
 10
26.398590
 20
156.219150
 30
0.0
 10
26.233329
 20
156.239693
 30
0.0
 10
26.068200
 20
156.258259
 30
0.0
 10
25.903220
 20
156.274864
 30
0.0
 10
25.738406
 20
156.289524
 30
0.0
 10
25.573773
 20
156.302261
 30
0.0
 10
25.409338
 20
156.313091
 30
0.0
 10
25.245117
 20
156.322028
 30
0.0
 10
25.081126
 20
156.329093
 30
0.0
 10
24.917381
 20
156.334300
 30
0.0
 10
24.753899
 20
156.337668
 30
0.0
 10
24.590696
 20
156.339229
 30
0.0
 10
24.427788
 20
156.338974
 30
0.0
 10
24.265191
 20
156.336936
 30
0.0
 10
24.102921
 20
156.333126
 30
0.0
 10
24.125273
 20
157.271267
 30
0.0
 10
24.138862
 20
158.205481
 30
0.0
 10
24.143702
 20
159.135282
 30
0.0
 10
24.139804
 20
160.060188
 30
0.0
 10
24.127184
 20
160.979714
 30
0.0
 10
24.105850
 20
161.893377
 30
0.0
 10
24.075817
 20
162.800676
 30
0.0
 10
24.037099
 20
163.701161
 30
0.0
 10
23.989708
 20
164.594331
 30
0.0
 10
23.933657
 20
165.479702
 30
0.0
 10
23.868958
 20
166.356791
 30
0.0
 10
23.795623
 20
167.225113
 30
0.0
 10
23.713667
 20
168.084185
 30
0.0
 10
23.623101
 20
168.933522
 30
0.0
 10
23.523938
 20
169.772642
 30
0.0
 10
23.416191
 20
170.601059
 30
0.0
 10
23.299872
 20
171.418291
 30
0.0
 10
23.174995
 20
172.223853
 30
0.0
 10
23.041572
 20
173.017262
 30
0.0
 10
22.899616
 20
173.798033
 30
0.0
 10
22.749139
 20
174.565683
 30
0.0
 10
22.590154
 20
175.319728
 30
0.0
 10
22.422674
 20
176.059684
 30
0.0
 10
22.246712
 20
176.785067
 30
0.0
 10
22.062281
 20
177.495393
 30
0.0
 10
21.869392
 20
178.190178
 30
0.0
 10
21.668060
 20
178.868940
 30
0.0
 10
21.458296
 20
179.531193
 30
0.0
 10
21.240113
 20
180.176453
 30
0.0
 10
21.013525
 20
180.804238
 30
0.0
 10
20.778543
 20
181.414063
 30
0.0
 10
20.535181
 20
182.005444
 30
0.0
 10
20.094639
 20
182.987586
 30
0.0
 10
19.643293
 20
183.963112
 30
0.0
 10
19.181677
 20
184.930612
 30
0.0
 10
18.710322
 20
185.888676
 30
0.0
 10
18.229759
 20
186.835893
 30
0.0
 10
17.740521
 20
187.770855
 30
0.0
 10
17.243139
 20
188.692151
 30
0.0
 10
16.738147
 20
189.598370
 30
0.0
 10
16.226075
 20
190.488105
 30
0.0
 10
15.707455
 20
191.359943
 30
0.0
 10
15.182821
 20
192.212477
 30
0.0
 10
14.652703
 20
193.044295
 30
0.0
 10
14.117634
 20
193.853987
 30
0.0
 10
13.578145
 20
194.640145
 30
0.0
 10
13.034769
 20
195.401359
 30
0.0
 10
12.488038
 20
196.136215
 30
0.0
 10
11.938484
 20
196.843309
 30
0.0
 10
11.386638
 20
197.521227
 30
0.0
 10
10.833033
 20
198.168559
 30
0.0
 10
10.278200
 20
198.783898
 30
0.0
 10
9.722672
 20
199.365833
 30
0.0
 10
9.166981
 20
199.912954
 30
0.0
 10
8.611658
 20
200.423849
 30
0.0
 10
8.057236
 20
200.897112
 30
0.0
 10
7.504246
 20
201.331330
 30
0.0
 10
6.953221
 20
201.725093
 30
0.0
 10
6.404693
 20
202.076992
 30
0.0
 10
5.859193
 20
202.385620
 30
0.0
 10
5.317254
 20
202.649563
 30
0.0
 10
4.779407
 20
202.867411
 30
0.0
 10
4.246185
 20
203.037757
 30
0.0
  0
LWPOLYLINE
  5
101
100
AcDbEntity
  8
0
 62
7
100
AcDbPolyline
 90
480
 70
1
 10
15.011487
 20
153.048555
 30
0.0
 10
14.986883
 20
153.028756
 30
0.0
 10
14.962351
 20
153.008923
 30
0.0
 10
14.937893
 20
152.989058
 30
0.0
 10
14.913506
 20
152.969159
 30
0.0
 10
14.889194
 20
152.949228
 30
0.0
 10
14.864958
 20
152.929262
 30
0.0
 10
14.840796
 20
152.909265
 30
0.0
 10
14.816711
 20
152.889234
 30
0.0
 10
14.792703
 20
152.869168
 30
0.0
 10
14.768771
 20
152.849070
 30
0.0
 10
14.744919
 20
152.828938
 30
0.0
 10
14.721144
 20
152.808774
 30
0.0
 10
14.697448
 20
152.788576
 30
0.0
 10
14.673833
 20
152.768346
 30
0.0
 10
14.650299
 20
152.748081
 30
0.0
 10
14.626846
 20
152.727782
 30
0.0
 10
14.603475
 20
152.707452
 30
0.0
 10
14.580187
 20
152.687087
 30
0.0
 10
14.556983
 20
152.666690
 30
0.0
 10
14.533861
 20
152.646259
 30
0.0
 10
14.510826
 20
152.625793
 30
0.0
 10
14.487876
 20
152.605296
 30
0.0
 10
14.465011
 20
152.584764
 30
0.0
 10
14.442233
 20
152.564198
 30
0.0
 10
14.419542
 20
152.543600
 30
0.0
 10
14.396939
 20
152.522968
 30
0.0
 10
14.374426
 20
152.502302
 30
0.0
 10
14.352002
 20
152.481603
 30
0.0
 10
14.329669
 20
152.460871
 30
0.0
 10
14.307425
 20
152.440103
 30
0.0
 10
14.285274
 20
152.419305
 30
0.0
 10
14.263213
 20
152.398471
 30
0.0
 10
13.753716
 20
151.889513
 30
0.0
 10
13.278839
 20
151.361909
 30
0.0
 10
12.838042
 20
150.817127
 30
0.0
 10
12.430785
 20
150.256634
 30
0.0
 10
12.056529
 20
149.681896
 30
0.0
 10
11.714732
 20
149.094380
 30
0.0
 10
11.404856
 20
148.495554
 30
0.0
 10
11.126360
 20
147.886884
 30
0.0
 10
10.878704
 20
147.269838
 30
0.0
 10
10.661348
 20
146.645881
 30
0.0
 10
10.473752
 20
146.016482
 30
0.0
 10
10.315377
 20
145.383106
 30
0.0
 10
10.185682
 20
144.747221
 30
0.0
 10
10.084126
 20
144.110294
 30
0.0
 10
10.010171
 20
143.473791
 30
0.0
 10
9.963275
 20
142.839180
 30
0.0
 10
9.942900
 20
142.207927
 30
0.0
 10
9.948504
 20
141.581500
 30
0.0
 10
9.979549
 20
140.961364
 30
0.0
 10
10.035493
 20
140.348989
 30
0.0
 10
10.115798
 20
139.745837
 30
0.0
 10
10.219923
 20
139.153382
 30
0.0
 10
10.347328
 20
138.573084
 30
0.0
 10
10.497473
 20
138.006413
 30
0.0
 10
10.669818
 20
137.454836
 30
0.0
 10
10.863823
 20
136.919819
 30
0.0
 10
11.078947
 20
136.402829
 30
0.0
 10
11.314652
 20
135.905336
 30
0.0
 10
11.570397
 20
135.428802
 30
0.0
 10
11.845641
 20
134.974698
 30
0.0
 10
12.139846
 20
134.544486
 30
0.0
 10
12.452470
 20
134.139639
 30
0.0
 10
12.999117
 20
133.347899
 30
0.0
 10
13.570411
 20
132.616046
 30
0.0
 10
14.164545
 20
131.942573
 30
0.0
 10
14.779713
 20
131.325970
 30
0.0
 10
15.414109
 20
130.764725
 30
0.0
 10
16.065926
 20
130.257331
 30
0.0
 10
16.733360
 20
129.802276
 30
0.0
 10
17.414603
 20
129.398057
 30
0.0
 10
18.107849
 20
129.043160
 30
0.0
 10
18.811293
 20
128.736077
 30
0.0
 10
19.523128
 20
128.475298
 30
0.0
 10
20.241549
 20
128.259314
 30
0.0
 10
20.964748
 20
128.086618
 30
0.0
 10
21.690920
 20
127.955696
 30
0.0
 10
22.418259
 20
127.865045
 30
0.0
 10
23.144959
 20
127.813152
 30
0.0
 10
23.869213
 20
127.798494
 30
0.0
 10
24.589216
 20
127.819582
 30
0.0
 10
25.303161
 20
127.874909
 30
0.0
 10
26.009242
 20
127.962957
 30
0.0
 10
26.705653
 20
128.082218
 30
0.0
 10
27.390588
 20
128.231183
 30
0.0
 10
28.062240
 20
128.408343
 30
0.0
 10
28.718807
 20
128.612186
 30
0.0
 10
29.358476
 20
128.841207
 30
0.0
 10
29.979446
 20
129.093892
 30
0.0
 10
30.579910
 20
129.368735
 30
0.0
 10
31.158059
 20
129.664227
 30
0.0
 10
31.712091
 20
129.978859
 30
0.0
 10
32.240196
 20
130.311118
 30
0.0
 10
32.740571
 20
130.659500
 30
0.0
 10
33.211410
 20
131.022492
 30
0.0
 10
33.456330
 20
131.252754
 30
0.0
 10
33.689637
 20
131.473252
 30
0.0
 10
33.911979
 20
131.684991
 30
0.0
 10
34.123998
 20
131.888968
 30
0.0
 10
34.326335
 20
132.086189
 30
0.0
 10
34.519637
 20
132.277652
 30
0.0
 10
34.704544
 20
132.464360
 30
0.0
 10
34.881701
 20
132.647317
 30
0.0
 10
35.051749
 20
132.827520
 30
0.0
 10
35.215333
 20
133.005973
 30
0.0
 10
35.373096
 20
133.183678
 30
0.0
 10
35.525679
 20
133.361637
 30
0.0
 10
35.673726
 20
133.540847
 30
0.0
 10
35.817884
 20
133.722314
 30
0.0
 10
35.958791
 20
133.907035
 30
0.0
 10
36.097094
 20
134.096019
 30
0.0
 10
36.233434
 20
134.290261
 30
0.0
 10
36.368453
 20
134.490762
 30
0.0
 10
36.502795
 20
134.698529
 30
0.0
 10
36.637106
 20
134.914561
 30
0.0
 10
36.772027
 20
135.139856
 30
0.0
 10
36.908201
 20
135.375420
 30
0.0
 10
37.046268
 20
135.622253
 30
0.0
 10
37.186878
 20
135.881356
 30
0.0
 10
37.330669
 20
136.153732
 30
0.0
 10
37.478285
 20
136.440379
 30
0.0
 10
37.630370
 20
136.742303
 30
0.0
 10
37.787567
 20
137.060501
 30
0.0
 10
37.950521
 20
137.395979
 30
0.0
 10
38.119870
 20
137.749735
 30
0.0
 10
38.296263
 20
138.122774
 30
0.0
 10
38.480339
 20
138.516093
 30
0.0
 10
38.496452
 20
138.510457
 30
0.0
 10
38.543823
 20
138.494609
 30
0.0
 10
38.621007
 20
138.470188
 30
0.0
 10
38.726557
 20
138.438800
 30
0.0
 10
38.859026
 20
138.402076
 30
0.0
 10
39.016967
 20
138.361640
 30
0.0
 10
39.198931
 20
138.319116
 30
0.0
 10
39.403475
 20
138.276127
 30
0.0
 10
39.629149
 20
138.234296
 30
0.0
 10
39.874505
 20
138.195249
 30
0.0
 10
40.138102
 20
138.160607
 30
0.0
 10
40.418486
 20
138.131992
 30
0.0
 10
40.714213
 20
138.111037
 30
0.0
 10
41.023837
 20
138.099343
 30
0.0
 10
41.345909
 20
138.098549
 30
0.0
 10
41.678982
 20
138.110270
 30
0.0
 10
42.021612
 20
138.136146
 30
0.0
 10
42.372352
 20
138.177797
 30
0.0
 10
42.729748
 20
138.236839
 30
0.0
 10
43.092362
 20
138.314896
 30
0.0
 10
43.458741
 20
138.413593
 30
0.0
 10
43.827444
 20
138.534553
 30
0.0
 10
44.197016
 20
138.679397
 30
0.0
 10
44.566017
 20
138.849751
 30
0.0
 10
44.932997
 20
139.047239
 30
0.0
 10
45.296508
 20
139.273484
 30
0.0
 10
45.655106
 20
139.530106
 30
0.0
 10
46.007340
 20
139.818732
 30
0.0
 10
46.351767
 20
140.140987
 30
0.0
 10
46.686939
 20
140.498489
 30
0.0
 10
47.011408
 20
140.892864
 30
0.0
 10
47.323727
 20
141.325735
 30
0.0
 10
47.533947
 20
141.629453
 30
0.0
 10
47.758477
 20
141.917889
 30
0.0
 10
47.996330
 20
142.190140
 30
0.0
 10
48.246509
 20
142.445297
 30
0.0
 10
48.508021
 20
142.682457
 30
0.0
 10
48.779872
 20
142.900714
 30
0.0
 10
49.061071
 20
143.099162
 30
0.0
 10
49.350623
 20
143.276895
 30
0.0
 10
49.647536
 20
143.433009
 30
0.0
 10
49.950817
 20
143.566596
 30
0.0
 10
50.259470
 20
143.676752
 30
0.0
 10
50.572504
 20
143.762570
 30
0.0
 10
50.888927
 20
143.823146
 30
0.0
 10
51.207742
 20
143.857573
 30
0.0
 10
51.527956
 20
143.864947
 30
0.0
 10
51.848578
 20
143.844360
 30
0.0
 10
52.168616
 20
143.794908
 30
0.0
 10
52.487074
 20
143.715684
 30
0.0
 10
52.802960
 20
143.605784
 30
0.0
 10
53.115279
 20
143.464301
 30
0.0
 10
53.423042
 20
143.290331
 30
0.0
 10
53.725249
 20
143.082966
 30
0.0
 10
54.020913
 20
142.841303
 30
0.0
 10
54.309037
 20
142.564434
 30
0.0
 10
54.588630
 20
142.251455
 30
0.0
 10
54.858695
 20
141.901458
 30
0.0
 10
55.118244
 20
141.513542
 30
0.0
 10
55.366280
 20
141.086796
 30
0.0
 10
55.601812
 20
140.620317
 30
0.0
 10
55.823845
 20
140.113201
 30
0.0
 10
56.031387
 20
139.564537
 30
0.0
 10
56.223443
 20
138.973426
 30
0.0
 10
56.216352
 20
138.870744
 30
0.0
 10
56.209446
 20
138.767654
 30
0.0
 10
56.202699
 20
138.664154
 30
0.0
 10
56.196111
 20
138.560250
 30
0.0
 10
56.189682
 20
138.455938
 30
0.0
 10
56.183411
 20
138.351221
 30
0.0
 10
56.177273
 20
138.246102
 30
0.0
 10
56.171267
 20
138.140578
 30
0.0
 10
56.165393
 20
138.034655
 30
0.0
 10
56.159625
 20
137.928332
 30
0.0
 10
56.153990
 20
137.821607
 30
0.0
 10
56.148460
 20
137.714485
 30
0.0
 10
56.143009
 20
137.606964
 30
0.0
 10
56.137665
 20
137.499048
 30
0.0
 10
56.132400
 20
137.390736
 30
0.0
 10
56.127214
 20
137.282029
 30
0.0
 10
56.122107
 20
137.172928
 30
0.0
 10
56.117054
 20
137.063436
 30
0.0
 10
56.112053
 20
136.953552
 30
0.0
 10
56.107105
 20
136.843279
 30
0.0
 10
56.102184
 20
136.732614
 30
0.0
 10
56.097316
 20
136.621563
 30
0.0
 10
56.092474
 20
136.510123
 30
0.0
 10
56.087632
 20
136.398300
 30
0.0
 10
56.082817
 20
136.286087
 30
0.0
 10
56.078001
 20
136.173494
 30
0.0
 10
56.073186
 20
136.060517
 30
0.0
 10
56.068344
 20
135.947156
 30
0.0
 10
56.063502
 20
135.833414
 30
0.0
 10
56.058634
 20
135.719294
 30
0.0
 10
56.053739
 20
135.604793
 30
0.0
 10
56.048791
 20
135.489916
 30
0.0
 10
56.038869
 20
135.447030
 30
0.0
 10
56.029344
 20
135.392918
 30
0.0
 10
56.020110
 20
135.328155
 30
0.0
 10
56.011062
 20
135.253323
 30
0.0
 10
56.002092
 20
135.168998
 30
0.0
 10
55.993070
 20
135.075761
 30
0.0
 10
55.983889
 20
134.974193
 30
0.0
 10
55.974443
 20
134.864870
 30
0.0
 10
55.964627
 20
134.748371
 30
0.0
 10
55.954335
 20
134.625274
 30
0.0
 10
55.943434
 20
134.496160
 30
0.0
 10
55.931819
 20
134.361609
 30
0.0
 10
55.919383
 20
134.222194
 30
0.0
 10
55.906022
 20
134.078502
 30
0.0
 10
55.891629
 20
133.931105
 30
0.0
 10
55.876071
 20
133.780586
 30
0.0
 10
55.859244
 20
133.627522
 30
0.0
 10
55.841040
 20
133.472492
 30
0.0
 10
55.821355
 20
133.316076
 30
0.0
 10
55.800056
 20
133.158853
 30
0.0
 10
55.777064
 20
133.001399
 30
0.0
 10
55.752220
 20
132.844297
 30
0.0
 10
55.725454
 20
132.688124
 30
0.0
 10
55.696641
 20
132.533457
 30
0.0
 10
55.665669
 20
132.380880
 30
0.0
 10
55.632427
 20
132.230967
 30
0.0
 10
55.596803
 20
132.084298
 30
0.0
 10
55.558688
 20
131.941452
 30
0.0
 10
55.517966
 20
131.803009
 30
0.0
 10
55.474532
 20
131.669545
 30
0.0
 10
55.428267
 20
131.541645
 30
0.0
 10
55.379065
 20
131.419881
 30
0.0
 10
55.370095
 20
131.399403
 30
0.0
 10
55.360755
 20
131.379056
 30
0.0
 10
55.351072
 20
131.358868
 30
0.0
 10
55.341044
 20
131.338813
 30
0.0
 10
55.330672
 20
131.318916
 30
0.0
 10
55.319983
 20
131.299152
 30
0.0
 10
55.308977
 20
131.279546
 30
0.0
 10
55.297626
 20
131.260099
 30
0.0
 10
55.285984
 20
131.240811
 30
0.0
 10
55.274025
 20
131.221682
 30
0.0
 10
55.261775
 20
131.202738
 30
0.0
 10
55.249234
 20
131.183952
 30
0.0
 10
55.236401
 20
131.165352
 30
0.0
 10
55.223304
 20
131.146911
 30
0.0
 10
55.209943
 20
131.128654
 30
0.0
 10
55.196317
 20
131.110583
 30
0.0
 10
55.182426
 20
131.092698
 30
0.0
 10
55.168298
 20
131.074997
 30
0.0
 10
55.153931
 20
131.057481
 30
0.0
 10
55.139326
 20
131.040178
 30
0.0
 10
55.124509
 20
131.023059
 30
0.0
 10
55.109454
 20
131.006152
 30
0.0
 10
55.094214
 20
130.989457
 30
0.0
 10
55.078763
 20
130.972947
 30
0.0
 10
55.063099
 20
130.956649
 30
0.0
 10
55.047251
 20
130.940589
 30
0.0
 10
55.031217
 20
130.924740
 30
0.0
 10
55.014998
 20
130.909103
 30
0.0
 10
54.998620
 20
130.893704
 30
0.0
 10
54.982084
 20
130.878517
 30
0.0
 10
54.965389
 20
130.863568
 30
0.0
 10
54.948535
 20
130.848858
 30
0.0
 10
54.855153
 20
130.769739
 30
0.0
 10
54.760395
 20
130.692327
 30
0.0
 10
54.664303
 20
130.616585
 30
0.0
 10
54.566929
 20
130.542473
 30
0.0
 10
54.468316
 20
130.469956
 30
0.0
 10
54.368512
 20
130.398992
 30
0.0
 10
54.267563
 20
130.329547
 30
0.0
 10
54.165519
 20
130.261580
 30
0.0
 10
54.062421
 20
130.195051
 30
0.0
 10
53.958318
 20
130.129926
 30
0.0
 10
53.853258
 20
130.066164
 30
0.0
 10
53.747287
 20
130.003731
 30
0.0
 10
53.640453
 20
129.942580
 30
0.0
 10
53.532799
 20
129.882681
 30
0.0
 10
53.424376
 20
129.823994
 30
0.0
 10
53.315227
 20
129.766479
 30
0.0
 10
53.205401
 20
129.710099
 30
0.0
 10
53.094943
 20
129.654814
 30
0.0
 10
52.983903
 20
129.600588
 30
0.0
 10
52.872323
 20
129.547383
 30
0.0
 10
52.760253
 20
129.495157
 30
0.0
 10
52.647739
 20
129.443875
 30
0.0
 10
52.534826
 20
129.393501
 30
0.0
 10
52.421563
 20
129.343992
 30
0.0
 10
52.307998
 20
129.295311
 30
0.0
 10
52.194172
 20
129.247422
 30
0.0
 10
52.080136
 20
129.200286
 30
0.0
 10
51.965937
 20
129.153863
 30
0.0
 10
51.851621
 20
129.108116
 30
0.0
 10
51.737234
 20
129.063010
 30
0.0
 10
51.622823
 20
129.018499
 30
0.0
 10
51.508433
 20
128.974552
 30
0.0
 10
51.331765
 20
128.908882
 30
0.0
 10
51.154150
 20
128.846340
 30
0.0
 10
50.975644
 20
128.786761
 30
0.0
 10
50.796293
 20
128.729976
 30
0.0
 10
50.616149
 20
128.675816
 30
0.0
 10
50.435259
 20
128.624116
 30
0.0
 10
50.253673
 20
128.574706
 30
0.0
 10
50.071444
 20
128.527419
 30
0.0
 10
49.888619
 20
128.482088
 30
0.0
 10
49.705247
 20
128.438548
 30
0.0
 10
49.521383
 20
128.396625
 30
0.0
 10
49.337069
 20
128.356157
 30
0.0
 10
49.152360
 20
128.316972
 30
0.0
 10
48.967306
 20
128.278907
 30
0.0
 10
48.781954
 20
128.241791
 30
0.0
 10
48.596357
 20
128.205458
 30
0.0
 10
48.410561
 20
128.169740
 30
0.0
 10
48.224620
 20
128.134471
 30
0.0
 10
48.038581
 20
128.099477
 30
0.0
 10
47.852494
 20
128.064597
 30
0.0
 10
47.666408
 20
128.029664
 30
0.0
 10
47.480376
 20
127.994503
 30
0.0
 10
47.294443
 20
127.958954
 30
0.0
 10
47.108663
 20
127.922846
 30
0.0
 10
46.923087
 20
127.886011
 30
0.0
 10
46.737760
 20
127.848284
 30
0.0
 10
46.552731
 20
127.809494
 30
0.0
 10
46.368057
 20
127.769475
 30
0.0
 10
46.183780
 20
127.728060
 30
0.0
 10
45.999956
 20
127.685081
 30
0.0
 10
45.816631
 20
127.640369
 30
0.0
 10
45.633857
 20
127.593758
 30
0.0
 10
45.325951
 20
127.513470
 30
0.0
 10
45.017984
 20
127.433243
 30
0.0
 10
44.709980
 20
127.353021
 30
0.0
 10
44.401955
 20
127.272749
 30
0.0
 10
44.093927
 20
127.192374
 30
0.0
 10
43.785920
 20
127.111838
 30
0.0
 10
43.477950
 20
127.031089
 30
0.0
 10
43.170036
 20
126.950074
 30
0.0
 10
42.862199
 20
126.868738
 30
0.0
 10
42.554459
 20
126.787022
 30
0.0
 10
42.246833
 20
126.704877
 30
0.0
 10
41.939340
 20
126.622245
 30
0.0
 10
41.632003
 20
126.539073
 30
0.0
 10
41.324837
 20
126.455306
 30
0.0
 10
41.017862
 20
126.370890
 30
0.0
 10
40.711099
 20
126.285771
 30
0.0
 10
40.404569
 20
126.199890
 30
0.0
 10
40.098284
 20
126.113199
 30
0.0
 10
39.792273
 20
126.025641
 30
0.0
 10
39.486549
 20
125.937159
 30
0.0
 10
39.181130
 20
125.847701
 30
0.0
 10
38.876042
 20
125.757211
 30
0.0
 10
38.571297
 20
125.665633
 30
0.0
 10
38.266921
 20
125.572918
 30
0.0
 10
37.962928
 20
125.479006
 30
0.0
 10
37.659339
 20
125.383846
 30
0.0
 10
37.356174
 20
125.287382
 30
0.0
 10
37.053451
 20
125.189560
 30
0.0
 10
36.751191
 20
125.090326
 30
0.0
 10
36.449413
 20
124.989623
 30
0.0
 10
36.148135
 20
124.887395
 30
0.0
 10
35.847375
 20
124.783594
 30
0.0
 10
35.186946
 20
124.553817
 30
0.0
 10
34.526146
 20
124.324063
 30
0.0
 10
33.865058
 20
124.094188
 30
0.0
 10
33.203767
 20
123.864048
 30
0.0
 10
32.542359
 20
123.633495
 30
0.0
 10
31.880911
 20
123.402387
 30
0.0
 10
31.219513
 20
123.170578
 30
0.0
 10
30.558248
 20
122.937924
 30
0.0
 10
29.897200
 20
122.704279
 30
0.0
 10
29.236451
 20
122.469501
 30
0.0
 10
28.576085
 20
122.233439
 30
0.0
 10
27.916188
 20
121.995955
 30
0.0
 10
27.256843
 20
121.756904
 30
0.0
 10
26.598134
 20
121.516136
 30
0.0
 10
25.940144
 20
121.273507
 30
0.0
 10
25.282959
 20
121.028879
 30
0.0
 10
24.626662
 20
120.782099
 30
0.0
 10
23.971335
 20
120.533029
 30
0.0
 10
23.317065
 20
120.281518
 30
0.0
 10
22.663934
 20
120.027423
 30
0.0
 10
22.012027
 20
119.770603
 30
0.0
 10
21.361428
 20
119.510909
 30
0.0
 10
20.712219
 20
119.248199
 30
0.0
 10
20.064486
 20
118.982327
 30
0.0
 10
19.418312
 20
118.713148
 30
0.0
 10
18.773782
 20
118.440516
 30
0.0
 10
18.130979
 20
118.164288
 30
0.0
 10
17.489987
 20
117.884319
 30
0.0
 10
16.850889
 20
117.600466
 30
0.0
 10
16.213771
 20
117.312578
 30
0.0
 10
15.578716
 20
117.020518
 30
0.0
 10
14.945808
 20
116.724137
 30
0.0
 10
14.507672
 20
117.814408
 30
0.0
 10
14.071076
 20
118.900520
 30
0.0
 10
13.636154
 20
119.982309
 30
0.0
 10
13.203037
 20
121.059608
 30
0.0
 10
12.771858
 20
122.132250
 30
0.0
 10
12.342748
 20
123.200073
 30
0.0
 10
11.915841
 20
124.262907
 30
0.0
 10
11.491267
 20
125.320592
 30
0.0
 10
11.069160
 20
126.372957
 30
0.0
 10
10.649652
 20
127.419839
 30
0.0
 10
10.232874
 20
128.461070
 30
0.0
 10
9.818959
 20
129.496487
 30
0.0
 10
9.408040
 20
130.525920
 30
0.0
 10
9.000248
 20
131.549210
 30
0.0
 10
8.595716
 20
132.566186
 30
0.0
 10
8.194576
 20
133.576685
 30
0.0
 10
7.796960
 20
134.580538
 30
0.0
 10
7.403001
 20
135.577583
 30
0.0
 10
7.012830
 20
136.567652
 30
0.0
 10
6.626581
 20
137.550579
 30
0.0
 10
6.244384
 20
138.526201
 30
0.0
 10
5.866373
 20
139.494348
 30
0.0
 10
5.492679
 20
140.454860
 30
0.0
 10
5.123435
 20
141.407566
 30
0.0
 10
4.758773
 20
142.352302
 30
0.0
 10
4.398825
 20
143.288903
 30
0.0
 10
4.043724
 20
144.217203
 30
0.0
 10
3.693602
 20
145.137036
 30
0.0
 10
3.348590
 20
146.048236
 30
0.0
 10
3.008822
 20
146.950638
 30
0.0
 10
2.674429
 20
147.844077
 30
0.0
 10
2.345543
 20
148.728385
 30
0.0
 10
2.707446
 20
148.868245
 30
0.0
 10
3.070423
 20
149.006913
 30
0.0
 10
3.434585
 20
149.144477
 30
0.0
 10
3.800043
 20
149.281025
 30
0.0
 10
4.166909
 20
149.416645
 30
0.0
 10
4.535295
 20
149.551424
 30
0.0
 10
4.905310
 20
149.685450
 30
0.0
 10
5.277068
 20
149.818812
 30
0.0
 10
5.650679
 20
149.951596
 30
0.0
 10
6.026255
 20
150.083892
 30
0.0
 10
6.403907
 20
150.215787
 30
0.0
 10
6.783746
 20
150.347368
 30
0.0
 10
7.165885
 20
150.478724
 30
0.0
 10
7.550433
 20
150.609942
 30
0.0
 10
7.937503
 20
150.741111
 30
0.0
 10
8.327206
 20
150.872319
 30
0.0
 10
8.719654
 20
151.003652
 30
0.0
 10
9.114957
 20
151.135199
 30
0.0
 10
9.513228
 20
151.267048
 30
0.0
 10
9.914577
 20
151.399287
 30
0.0
 10
10.319116
 20
151.532003
 30
0.0
 10
10.726957
 20
151.665285
 30
0.0
 10
11.138210
 20
151.799220
 30
0.0
 10
11.552987
 20
151.933896
 30
0.0
 10
11.971399
 20
152.069402
 30
0.0
 10
12.393559
 20
152.205824
 30
0.0
 10
12.819576
 20
152.343251
 30
0.0
 10
13.249564
 20
152.481771
 30
0.0
 10
13.683632
 20
152.621471
 30
0.0
 10
14.121893
 20
152.762440
 30
0.0
 10
14.564457
 20
152.904765
 30
0.0
  0
LWPOLYLINE
  5
102
100
AcDbEntity
  8
0
 62
7
100
AcDbPolyline
 90
128
 70
1
 10
26.361699
 20
87.678384
 30
0.0
 10
27.208718
 20
87.581499
 30
0.0
 10
28.049987
 20
87.483368
 30
0.0
 10
28.884232
 20
87.383988
 30
0.0
 10
29.710168
 20
87.283353
 30
0.0
 10
30.526527
 20
87.181457
 30
0.0
 10
31.332027
 20
87.078299
 30
0.0
 10
32.125393
 20
86.973865
 30
0.0
 10
32.905351
 20
86.868156
 30
0.0
 10
33.670624
 20
86.761164
 30
0.0
 10
34.419932
 20
86.652886
 30
0.0
 10
35.151999
 20
86.543314
 30
0.0
 10
35.865554
 20
86.432443
 30
0.0
 10
36.559315
 20
86.320268
 30
0.0
 10
37.232008
 20
86.206782
 30
0.0
 10
37.882356
 20
86.091985
 30
0.0
 10
38.509080
 20
85.975865
 30
0.0
 10
39.110909
 20
85.858419
 30
0.0
 10
39.686563
 20
85.739642
 30
0.0
 10
40.234764
 20
85.619526
 30
0.0
 10
40.754239
 20
85.498072
 30
0.0
 10
41.243710
 20
85.375268
 30
0.0
 10
41.701903
 20
85.251110
 30
0.0
 10
42.127535
 20
85.125594
 30
0.0
 10
42.519338
 20
84.998713
 30
0.0
 10
42.876028
 20
84.870465
 30
0.0
 10
43.196333
 20
84.740840
 30
0.0
 10
43.478974
 20
84.609834
 30
0.0
 10
43.722679
 20
84.477445
 30
0.0
 10
43.926165
 20
84.343661
 30
0.0
 10
44.088161
 20
84.208482
 30
0.0
 10
44.207388
 20
84.071899
 30
0.0
 10
44.282569
 20
83.933911
 30
0.0
 10
44.725214
 20
83.691727
 30
0.0
 10
45.135009
 20
83.438987
 30
0.0
 10
45.512638
 20
83.175914
 30
0.0
 10
45.858785
 20
82.902737
 30
0.0
 10
46.174126
 20
82.619683
 30
0.0
 10
46.459349
 20
82.326980
 30
0.0
 10
46.715132
 20
82.024852
 30
0.0
 10
46.942158
 20
81.713528
 30
0.0
 10
47.141111
 20
81.393234
 30
0.0
 10
47.312673
 20
81.064195
 30
0.0
 10
47.457524
 20
80.726642
 30
0.0
 10
47.576346
 20
80.380800
 30
0.0
 10
47.669820
 20
80.026896
 30
0.0
 10
47.738633
 20
79.665155
 30
0.0
 10
47.783464
 20
79.295808
 30
0.0
 10
47.805001
 20
78.919075
 30
0.0
 10
47.803943
 20
78.535191
 30
0.0
 10
47.780924
 20
78.144378
 30
0.0
 10
47.736649
 20
77.746863
 30
0.0
 10
47.671802
 20
77.342876
 30
0.0
 10
47.587064
 20
76.932639
 30
0.0
 10
47.483117
 20
76.516383
 30
0.0
 10
47.360647
 20
76.094333
 30
0.0
 10
47.220336
 20
75.666719
 30
0.0
 10
47.062858
 20
75.233763
 30
0.0
 10
46.888905
 20
74.795695
 30
0.0
 10
46.699154
 20
74.352740
 30
0.0
 10
46.494287
 20
73.905126
 30
0.0
 10
46.274987
 20
73.453080
 30
0.0
 10
46.041937
 20
72.996830
 30
0.0
 10
45.795819
 20
72.536600
 30
0.0
 10
45.537313
 20
72.072619
 30
0.0
 10
45.188111
 20
71.846948
 30
0.0
 10
44.839575
 20
71.618967
 30
0.0
 10
44.491735
 20
71.388713
 30
0.0
 10
44.144618
 20
71.156224
 30
0.0
 10
43.798252
 20
70.921539
 30
0.0
 10
43.452666
 20
70.684694
 30
0.0
 10
43.107888
 20
70.445731
 30
0.0
 10
42.763951
 20
70.204682
 30
0.0
 10
42.420876
 20
69.961588
 30
0.0
 10
42.078698
 20
69.716486
 30
0.0
 10
41.737447
 20
69.469415
 30
0.0
 10
41.397142
 20
69.220411
 30
0.0
 10
41.057822
 20
68.969512
 30
0.0
 10
40.719510
 20
68.716758
 30
0.0
 10
40.382238
 20
68.462184
 30
0.0
 10
40.046029
 20
68.205829
 30
0.0
 10
39.710918
 20
67.947731
 30
0.0
 10
39.376929
 20
67.687926
 30
0.0
 10
39.044094
 20
67.426456
 30
0.0
 10
38.712439
 20
67.163355
 30
0.0
 10
38.381993
 20
66.898660
 30
0.0
 10
38.052788
 20
66.632413
 30
0.0
 10
37.724847
 20
66.364649
 30
0.0
 10
37.398203
 20
66.095406
 30
0.0
 10
37.072882
 20
65.824722
 30
0.0
 10
36.748916
 20
65.552635
 30
0.0
 10
36.426331
 20
65.279180
 30
0.0
 10
36.105155
 20
65.004400
 30
0.0
 10
35.785417
 20
64.728331
 30
0.0
 10
35.467147
 20
64.451008
 30
0.0
 10
35.150372
 20
64.172470
 30
0.0
 10
34.835124
 20
63.892758
 30
0.0
 10
34.595065
 20
64.621058
 30
0.0
 10
34.353040
 20
65.350776
 30
0.0
 10
34.109083
 20
66.081870
 30
0.0
 10
33.863235
 20
66.814293
 30
0.0
 10
33.615535
 20
67.548001
 30
0.0
 10
33.366014
 20
68.282947
 30
0.0
 10
33.114713
 20
69.019087
 30
0.0
 10
32.861668
 20
69.756375
 30
0.0
 10
32.606917
 20
70.494766
 30
0.0
 10
32.350493
 20
71.234215
 30
0.0
 10
32.092440
 20
71.974678
 30
0.0
 10
31.832788
 20
72.716110
 30
0.0
 10
31.571581
 20
73.458462
 30
0.0
 10
31.308850
 20
74.201692
 30
0.0
 10
31.044634
 20
74.945756
 30
0.0
 10
30.778971
 20
75.690606
 30
0.0
 10
30.511898
 20
76.436199
 30
0.0
 10
30.243452
 20
77.182488
 30
0.0
 10
29.973670
 20
77.929428
 30
0.0
 10
29.702588
 20
78.676974
 30
0.0
 10
29.430242
 20
79.425083
 30
0.0
 10
29.156673
 20
80.173706
 30
0.0
 10
28.881914
 20
80.922799
 30
0.0
 10
28.606007
 20
81.672322
 30
0.0
 10
28.328982
 20
82.422222
 30
0.0
 10
28.050882
 20
83.172459
 30
0.0
 10
27.771741
 20
83.922984
 30
0.0
 10
27.491600
 20
84.673755
 30
0.0
 10
27.210491
 20
85.424724
 30
0.0
 10
26.928453
 20
86.175850
 30
0.0
 10
26.645523
 20
86.927087
 30
0.0
  0
ENDSEC
  0
SECTION
  2
OBJECTS
  0
DICTIONARY
  5
C
330
0
100
AcDbDictionary
  3
ACAD_GROUP
350
D
  3
ACAD_MLINESTYLE
350
17
  0
DICTIONARY
  5
D
330
C
100
AcDbDictionary
  0
DICTIONARY
  5
1A
330
C
100
AcDbDictionary
  0
DICTIONARY
  5
17
330
C
100
AcDbDictionary
  3
STANDARD
350
18
  0
DICTIONARY
  5
19
330
C
100
AcDbDictionary
  0
ENDSEC
  0
EOF
