  0
SECTION
  2
HEADER
  9
$ACADVER
  1
AC1014
  9
$HANDSEED
  5
FFFF
  9
$MEASUREMENT
 70
     1
  0
ENDSEC
  0
SECTION
  2
TABLES
  0
TABLE
  2
VPORT
  5
8
330
0
100
AcDbSymbolTable
 70
     4
  0
VPORT
  5
2E
330
8
100
AcDbSymbolTableRecord
100
AcDbViewportTableRecord
  2
*ACTIVE
 70
     0
 10
0.0
 20
0.0
 11
1.0
 21
1.0
 12
210.0
 22
148.5
 13
0.0
 23
0.0
 14
10.0
 24
10.0
 15
10.0
 25
10.0
 16
0.0
 26
0.0
 36
1.0
 17
0.0
 27
0.0
 37
0.0
 40
341.0
 41
1.24
 42
50.0
 43
0.0
 44
0.0
 50
0.0
 51
0.0
 71
     0
 72
   100
 73
     1
 74
     3
 75
     0
 76
     0
 77
     0
 78
     0
  0
ENDTAB
  0
TABLE
  2
LTYPE
  5
5
330
0
100
AcDbSymbolTable
 70
     1
  0
LTYPE
  5
14
330
5
100
AcDbSymbolTableRecord
100
AcDbLinetypeTableRecord
  2
BYBLOCK
 70
     0
  3

 72
    65
 73
     0
 40
0.0
  0
LTYPE
  5
15
330
5
100
AcDbSymbolTableRecord
100
AcDbLinetypeTableRecord
  2
BYLAYER
 70
     0
  3

 72
    65
 73
     0
 40
0.0
  0
LTYPE
  5
16
330
5
100
AcDbSymbolTableRecord
100
AcDbLinetypeTableRecord
  2
CONTINUOUS
 70
     0
  3
Solid line
 72
    65
 73
     0
 40
0.0
  0
ENDTAB
  0
TABLE
  2
LAYER
  5
2
100
AcDbSymbolTable
 70
2
  0
LAYER
  5
50
100
AcDbSymbolTableRecord
100
AcDbLayerTableRecord
  2
0
 70
0
  6
CONTINUOUS
  0
LAYER
  5
51
100
AcDbSymbolTableRecord
100
AcDbLayerTableRecord
  2
Calque_1
 70
0
  6
CONTINUOUS
  0
ENDTAB
  0
TABLE
  2
STYLE
  5
3
330
0
100
AcDbSymbolTable
 70
     1
  0
STYLE
  5
11
330
3
100
AcDbSymbolTableRecord
100
AcDbTextStyleTableRecord
  2
STANDARD
 70
     0
 40
0.0
 41
1.0
 50
0.0
 71
     0
 42
2.5
  3
txt
  4

  0
ENDTAB
  0
TABLE
  2
VIEW
  5
6
330
0
100
AcDbSymbolTable
 70
     0
  0
ENDTAB
  0
TABLE
  2
UCS
  5
7
330
0
100
AcDbSymbolTable
 70
     0
  0
ENDTAB
  0
TABLE
  2
APPID
  5
9
330
0
100
AcDbSymbolTable
 70
     2
  0
APPID
  5
12
330
9
100
AcDbSymbolTableRecord
100
AcDbRegAppTableRecord
  2
ACAD
 70
     0
  0
ENDTAB
  0
TABLE
  2
DIMSTYLE
  5
A
330
0
100
AcDbSymbolTable
 70
     1
  0
DIMSTYLE
105
27
330
A
100
AcDbSymbolTableRecord
100
AcDbDimStyleTableRecord
  2
ISO-25
 70
     0
  3

  4

  5

  6

  7

 40
1.0
 41
2.5
 42
0.625
 43
3.75
 44
1.25
 45
0.0
 46
0.0
 47
0.0
 48
0.0
140
2.5
141
2.5
142
0.0
143
0.03937007874016
144
1.0
145
0.0
146
1.0
147
0.625
 71
     0
 72
     0
 73
     0
 74
     0
 75
     0
 76
     0
 77
     1
 78
     8
170
     0
171
     3
172
     1
173
     0
174
     0
175
     0
176
     0
177
     0
178
     0
270
     2
271
     2
272
     2
273
     2
274
     3
340
11
275
     0
280
     0
281
     0
282
     0
283
     0
284
     8
285
     0
286
     0
287
     3
288
     0
  0
ENDTAB
  0
TABLE
  2
BLOCK_RECORD
  5
1
330
0
100
AcDbSymbolTable
 70
     1
  0
BLOCK_RECORD
  5
1F
330
1
100
AcDbSymbolTableRecord
100
AcDbBlockTableRecord
  2
*MODEL_SPACE
  0
BLOCK_RECORD
  5
1B
330
1
100
AcDbSymbolTableRecord
100
AcDbBlockTableRecord
  2
*PAPER_SPACE
  0
ENDTAB
  0
ENDSEC
  0
SECTION
  2
BLOCKS
  0
BLOCK
  5
20
330
1F
100
AcDbEntity
  8
0
100
AcDbBlockBegin
  2
*MODEL_SPACE
 70
     0
 10
0.0
 20
0.0
 30
0.0
  3
*MODEL_SPACE
  1

  0
ENDBLK
  5
21
330
1F
100
AcDbEntity
  8
0
100
AcDbBlockEnd
  0
BLOCK
  5
1C
330
1B
100
AcDbEntity
 67
     1
  8
0
100
AcDbBlockBegin
  2
*PAPER_SPACE
  1

  0
ENDBLK
  5
1D
330
1B
100
AcDbEntity
 67
     1
  8
0
100
AcDbBlockEnd
  0
ENDSEC
  0
SECTION
  2
ENTITIES
  0
LWPOLYLINE
  5
100
100
AcDbEntity
  8
Calque_1
 62
7
100
AcDbPolyline
 90
425
 70
1
 10
98.093754
 20
178.175733
 30
0.0
 10
97.239753
 20
178.114601
 30
0.0
 10
96.333925
 20
177.876467
 30
0.0
 10
95.334168
 20
177.457108
 30
0.0
 10
94.198383
 20
176.852300
 30
0.0
 10
89.858344
 20
176.455010
 30
0.0
 10
84.206195
 20
176.287712
 30
0.0
 10
78.565948
 20
176.385525
 30
0.0
 10
74.261617
 20
176.783570
 30
0.0
 10
71.902597
 20
177.319664
 30
0.0
 10
70.381576
 20
177.682514
 30
0.0
 10
69.083496
 20
177.572120
 30
0.0
 10
67.393301
 20
176.688485
 30
0.0
 10
65.930501
 20
175.473865
 30
0.0
 10
64.281261
 20
173.562418
 30
0.0
 10
62.870164
 20
171.138809
 30
0.0
 10
62.121790
 20
168.387700
 30
0.0
 10
61.830992
 20
165.522850
 30
0.0
 10
61.441210
 20
162.591784
 30
0.0
 10
60.888646
 20
159.931059
 30
0.0
 10
60.109509
 20
157.877231
 30
0.0
 10
58.717933
 20
156.208065
 30
0.0
 10
57.044444
 20
155.775026
 30
0.0
 10
54.745995
 20
156.097887
 30
0.0
 10
51.479545
 20
156.696424
 30
0.0
 10
49.179162
 20
157.050277
 30
0.0
 10
46.861052
 20
157.261240
 30
0.0
 10
44.785904
 20
157.341724
 30
0.0
 10
43.214416
 20
157.304139
 30
0.0
 10
42.122627
 20
157.074398
 30
0.0
 10
41.286998
 20
156.604661
 30
0.0
 10
40.668873
 20
155.946711
 30
0.0
 10
40.229586
 20
155.152332
 30
0.0
 10
39.822231
 20
153.165052
 30
0.0
 10
39.972141
 20
150.963455
 30
0.0
 10
40.505409
 20
148.987030
 30
0.0
 10
41.248128
 20
147.675268
 30
0.0
 10
42.219387
 20
146.690026
 30
0.0
 10
43.565958
 20
145.523291
 30
0.0
 10
45.305458
 20
144.359738
 30
0.0
 10
47.455502
 20
143.384058
 30
0.0
 10
49.955926
 20
143.017226
 30
0.0
 10
52.404684
 20
142.857238
 30
0.0
 10
54.582591
 20
142.808216
 30
0.0
 10
56.270466
 20
142.774278
 30
0.0
 10
56.213623
 20
142.411534
 30
0.0
 10
56.158111
 20
142.066417
 30
0.0
 10
56.104128
 20
141.742048
 30
0.0
 10
56.051875
 20
141.441542
 30
0.0
 10
56.018847
 20
140.738066
 30
0.0
 10
56.048518
 20
139.779216
 30
0.0
 10
56.079090
 20
138.865144
 30
0.0
 10
56.048774
 20
138.295996
 30
0.0
 10
55.974419
 20
137.671029
 30
0.0
 10
55.876057
 20
136.586920
 30
0.0
 10
55.696622
 20
135.339973
 30
0.0
 10
55.379048
 20
134.226479
 30
0.0
 10
55.297604
 20
134.066629
 30
0.0
 10
55.196316
 20
133.916933
 30
0.0
 10
55.078780
 20
133.779124
 30
0.0
 10
54.948584
 20
133.654937
 30
0.0
 10
54.165568
 20
133.067737
 30
0.0
 10
53.315279
 20
132.572818
 30
0.0
 10
52.421617
 20
132.150508
 30
0.0
 10
51.508482
 20
131.781150
 30
0.0
 10
50.071496
 20
131.333935
 30
0.0
 10
48.596409
 20
131.011797
 30
0.0
 10
47.108715
 20
130.729005
 30
0.0
 10
45.633907
 20
130.399840
 30
0.0
 10
43.170086
 20
129.756235
 30
0.0
 10
40.711149
 20
129.092105
 30
0.0
 10
38.266970
 20
128.379431
 30
0.0
 10
35.847424
 20
127.590190
 30
0.0
 10
29.146415
 20
125.244870
 30
0.0
 10
22.485708
 20
122.766761
 30
0.0
 10
15.953288
 20
120.003892
 30
0.0
 10
9.637138
 20
116.804286
 30
0.0
 10
8.615241
 20
116.169863
 30
0.0
 10
7.622978
 20
115.457118
 30
0.0
 10
6.687336
 20
114.720970
 30
0.0
 10
5.835303
 20
114.016342
 30
0.0
 10
5.067622
 20
113.349280
 30
0.0
 10
4.364114
 20
112.686713
 30
0.0
 10
3.720402
 20
112.024919
 30
0.0
 10
3.132109
 20
111.360175
 30
0.0
 10
2.594798
 20
110.688802
 30
0.0
 10
2.103961
 20
110.007087
 30
0.0
 10
1.655134
 20
109.311262
 30
0.0
 10
1.243852
 20
108.597552
 30
0.0
 10
0.697768
 20
107.482343
 30
0.0
 10
0.367161
 20
106.397456
 30
0.0
 10
0.180214
 20
104.998234
 30
0.0
 10
0.065112
 20
102.940016
 30
0.0
 10
-0.000061
 20
100.769081
 30
0.0
 10
0.079904
 20
99.377629
 30
0.0
 10
0.381141
 20
98.265782
 30
0.0
 10
0.979785
 20
96.933665
 30
0.0
 10
2.079072
 20
95.074044
 30
0.0
 10
3.559208
 20
93.206639
 30
0.0
 10
5.306127
 20
91.459187
 30
0.0
 10
7.205762
 20
89.959413
 30
0.0
 10
9.307406
 20
88.671477
 30
0.0
 10
11.393956
 20
87.764120
 30
0.0
 10
13.702030
 20
87.155750
 30
0.0
 10
16.468245
 20
86.764775
 30
0.0
 10
24.968983
 20
85.796766
 30
0.0
 10
32.156738
 20
84.680526
 30
0.0
 10
37.263204
 20
83.409584
 30
0.0
 10
39.520069
 20
81.977471
 30
0.0
 10
39.555816
 20
80.708426
 30
0.0
 10
39.091010
 20
78.729597
 30
0.0
 10
38.225137
 20
76.264887
 30
0.0
 10
37.057687
 20
73.538194
 30
0.0
 10
34.856761
 20
73.676124
 30
0.0
 10
30.317760
 20
74.641136
 30
0.0
 10
25.759652
 20
75.578028
 30
0.0
 10
23.501408
 20
75.631606
 30
0.0
 10
23.187837
 20
74.976667
 30
0.0
 10
22.895251
 20
74.336037
 30
0.0
 10
22.589871
 20
73.676568
 30
0.0
 10
22.237919
 20
72.965101
 30
0.0
 10
19.962880
 20
73.379200
 30
0.0
 10
15.419000
 20
75.184617
 30
0.0
 10
10.868638
 20
76.980468
 30
0.0
 10
8.574154
 20
77.365868
 30
0.0
 10
8.269644
 20
75.162542
 30
0.0
 10
8.335526
 20
70.989944
 30
0.0
 10
9.003638
 20
66.143788
 30
0.0
 10
10.505818
 20
61.919782
 30
0.0
 10
11.692051
 20
61.905071
 30
0.0
 10
13.923719
 20
62.794637
 30
0.0
 10
16.538170
 20
63.673752
 30
0.0
 10
18.872750
 20
63.627688
 30
0.0
 10
19.683326
 20
63.031555
 30
0.0
 10
20.261201
 20
62.146331
 30
0.0
 10
20.724013
 20
61.132069
 30
0.0
 10
21.189404
 20
60.148830
 30
0.0
 10
21.688190
 20
59.166906
 30
0.0
 10
22.136792
 20
58.159833
 30
0.0
 10
22.564386
 20
57.142282
 30
0.0
 10
23.000146
 20
56.128920
 30
0.0
 10
23.922259
 20
54.203669
 30
0.0
 10
24.955085
 20
52.118583
 30
0.0
 10
25.758717
 20
50.349751
 30
0.0
 10
25.993245
 20
49.373261
 30
0.0
 10
25.503466
 20
48.380746
 30
0.0
 10
24.725587
 20
46.983021
 30
0.0
 10
23.766599
 20
45.148733
 30
0.0
 10
22.733496
 20
42.846528
 30
0.0
 10
21.759949
 20
40.596746
 30
0.0
 10
20.876681
 20
38.732262
 30
0.0
 10
20.036216
 20
36.940536
 30
0.0
 10
19.191076
 20
34.909028
 30
0.0
 10
18.327764
 20
32.674539
 30
0.0
 10
17.524210
 20
30.632700
 30
0.0
 10
16.870152
 20
29.009232
 30
0.0
 10
16.455326
 20
28.029861
 30
0.0
 10
16.183576
 20
27.418840
 30
0.0
 10
15.885887
 20
26.724484
 30
0.0
 10
15.567639
 20
25.963354
 30
0.0
 10
15.234212
 20
25.152001
 30
0.0
 10
14.750004
 20
26.384224
 30
0.0
 10
14.265796
 20
27.616450
 30
0.0
 10
13.781587
 20
28.848672
 30
0.0
 10
13.297379
 20
30.080898
 30
0.0
 10
12.382577
 20
28.563161
 30
0.0
 10
11.467775
 20
27.045426
 30
0.0
 10
10.552973
 20
25.527689
 30
0.0
 10
9.638171
 20
24.009951
 30
0.0
 10
7.869804
 20
23.903240
 30
0.0
 10
6.101436
 20
23.796528
 30
0.0
 10
4.333069
 20
23.689816
 30
0.0
 10
2.564701
 20
23.583104
 30
0.0
 10
3.725483
 20
22.244426
 30
0.0
 10
4.886265
 20
20.905749
 30
0.0
 10
6.047047
 20
19.567071
 30
0.0
 10
7.207829
 20
18.228393
 30
0.0
 10
6.762895
 20
16.512993
 30
0.0
 10
6.317961
 20
14.797594
 30
0.0
 10
5.873027
 20
13.082194
 30
0.0
 10
5.428092
 20
11.366795
 30
0.0
 10
6.796872
 20
11.946087
 30
0.0
 10
8.165651
 20
12.525381
 30
0.0
 10
9.534431
 20
13.104673
 30
0.0
 10
10.903210
 20
13.683968
 30
0.0
 10
10.268895
 20
11.856443
 30
0.0
 10
9.721804
 20
10.221950
 30
0.0
 10
9.287280
 20
8.847239
 30
0.0
 10
8.990666
 20
7.799055
 30
0.0
 10
8.640519
 20
6.036994
 30
0.0
 10
8.599182
 20
4.688137
 30
0.0
 10
8.870247
 20
3.715870
 30
0.0
 10
9.457304
 20
3.083580
 30
0.0
 10
9.621247
 20
3.014333
 30
0.0
 10
9.785191
 20
2.945086
 30
0.0
 10
9.949134
 20
2.875842
 30
0.0
 10
10.113078
 20
2.806595
 30
0.0
 10
12.117901
 20
2.745765
 30
0.0
 10
17.536595
 20
2.754946
 30
0.0
 10
25.993893
 20
2.791117
 30
0.0
 10
37.114530
 20
2.811252
 30
0.0
 10
44.585522
 20
2.810194
 30
0.0
 10
52.056511
 20
2.809135
 30
0.0
 10
59.527503
 20
2.808077
 30
0.0
 10
66.998495
 20
2.807019
 30
0.0
 10
67.187759
 20
3.005456
 30
0.0
 10
67.377023
 20
3.203894
 30
0.0
 10
67.566288
 20
3.402331
 30
0.0
 10
67.755552
 20
3.600769
 30
0.0
 10
68.649233
 20
5.781665
 30
0.0
 10
69.851780
 20
9.935857
 30
0.0
 10
71.101235
 20
14.531198
 30
0.0
 10
72.135647
 20
18.035546
 30
0.0
 10
73.137812
 20
20.909627
 30
0.0
 10
74.851135
 20
25.398860
 30
0.0
 10
77.083602
 20
30.400107
 30
0.0
 10
79.643199
 20
34.810232
 30
0.0
 10
80.800772
 20
36.556792
 30
0.0
 10
82.072471
 20
38.321552
 30
0.0
 10
83.549730
 20
39.672946
 30
0.0
 10
85.323991
 20
40.179414
 30
0.0
 10
86.849938
 20
39.640630
 30
0.0
 10
88.070371
 20
38.378017
 30
0.0
 10
89.088991
 20
36.764760
 30
0.0
 10
90.009492
 20
35.174034
 30
0.0
 10
92.089112
 20
31.124639
 30
0.0
 10
93.673982
 20
26.835849
 30
0.0
 10
95.046532
 20
22.431532
 30
0.0
 10
96.489199
 20
18.035546
 30
0.0
 10
98.024549
 20
13.324164
 30
0.0
 10
99.420356
 20
8.553345
 30
0.0
 10
100.576866
 20
4.716498
 30
0.0
 10
101.394328
 20
2.807019
 30
0.0
 10
102.229347
 20
2.504700
 30
0.0
 10
105.592482
 20
2.538720
 30
0.0
 10
114.382051
 20
2.708054
 30
0.0
 10
131.496365
 20
2.811670
 30
0.0
 10
142.379415
 20
2.791614
 30
0.0
 10
150.306641
 20
2.755539
 30
0.0
 10
155.193847
 20
2.746358
 30
0.0
 10
156.956827
 20
2.807013
 30
0.0
 10
157.725523
 20
3.484712
 30
0.0
 10
158.401693
 20
4.546059
 30
0.0
 10
158.770649
 20
5.951501
 30
0.0
 10
158.617706
 20
7.661496
 30
0.0
 10
158.307818
 20
8.726750
 30
0.0
 10
157.844628
 20
10.168380
 30
0.0
 10
157.258449
 20
11.904923
 30
0.0
 10
156.579589
 20
13.854918
 30
0.0
 10
158.145256
 20
13.192295
 30
0.0
 10
159.710922
 20
12.529675
 30
0.0
 10
161.276589
 20
11.867053
 30
0.0
 10
162.842255
 20
11.204433
 30
0.0
 10
162.397322
 20
12.919962
 30
0.0
 10
161.952388
 20
14.635489
 30
0.0
 10
161.507451
 20
16.351018
 30
0.0
 10
161.062517
 20
18.066547
 30
0.0
 10
162.223429
 20
19.405095
 30
0.0
 10
163.384342
 20
20.743644
 30
0.0
 10
164.545251
 20
22.082192
 30
0.0
 10
165.706164
 20
23.420740
 30
0.0
 10
163.937667
 20
23.527452
 30
0.0
 10
162.169171
 20
23.634164
 30
0.0
 10
160.400673
 20
23.740875
 30
0.0
 10
158.632176
 20
23.847587
 30
0.0
 10
157.717504
 20
25.365324
 30
0.0
 10
156.802829
 20
26.883062
 30
0.0
 10
155.888156
 20
28.400799
 30
0.0
 10
154.973484
 20
29.918536
 30
0.0
 10
154.413181
 20
28.492911
 30
0.0
 10
153.852881
 20
27.067288
 30
0.0
 10
153.292581
 20
25.641663
 30
0.0
 10
152.732278
 20
24.216041
 30
0.0
 10
152.321218
 20
25.251199
 30
0.0
 10
151.939861
 20
26.191552
 30
0.0
 10
151.597628
 20
27.009601
 30
0.0
 10
151.303940
 20
27.677846
 30
0.0
 10
150.825000
 20
28.794142
 30
0.0
 10
150.115276
 20
30.529660
 30
0.0
 10
149.270472
 20
32.647174
 30
0.0
 10
148.386290
 20
34.909446
 30
0.0
 10
147.368036
 20
37.519724
 30
0.0
 10
146.158165
 20
40.584756
 30
0.0
 10
144.908162
 20
43.722550
 30
0.0
 10
143.769517
 20
46.551112
 30
0.0
 10
143.379746
 20
47.514066
 30
0.0
 10
142.997349
 20
48.461441
 30
0.0
 10
142.621988
 20
49.393258
 30
0.0
 10
142.253331
 20
50.309540
 30
0.0
 10
142.825217
 20
51.585104
 30
0.0
 10
143.559756
 20
53.085873
 30
0.0
 10
144.321790
 20
54.622552
 30
0.0
 10
144.976163
 20
56.005831
 30
0.0
 10
145.411921
 20
57.019196
 30
0.0
 10
145.839514
 20
58.036743
 30
0.0
 10
146.288118
 20
59.043814
 30
0.0
 10
146.786905
 20
60.025741
 30
0.0
 10
147.252297
 20
61.008977
 30
0.0
 10
147.715108
 20
62.023242
 30
0.0
 10
148.292982
 20
62.908469
 30
0.0
 10
149.103560
 20
63.504599
 30
0.0
 10
151.438137
 20
63.550663
 30
0.0
 10
154.052586
 20
62.671553
 30
0.0
 10
156.284253
 20
61.781987
 30
0.0
 10
157.470489
 20
61.796697
 30
0.0
 10
158.972589
 20
66.020709
 30
0.0
 10
159.640527
 20
70.866865
 30
0.0
 10
159.706231
 20
75.039461
 30
0.0
 10
159.401638
 20
77.242784
 30
0.0
 10
157.107155
 20
76.857384
 30
0.0
 10
152.556793
 20
75.061532
 30
0.0
 10
148.012910
 20
73.256116
 30
0.0
 10
145.737872
 20
72.842020
 30
0.0
 10
145.386000
 20
73.553484
 30
0.0
 10
145.080798
 20
74.212953
 30
0.0
 10
144.788388
 20
74.853583
 30
0.0
 10
144.474902
 20
75.508522
 30
0.0
 10
142.447884
 20
75.492859
 30
0.0
 10
138.271158
 20
74.653537
 30
0.0
 10
133.857750
 20
73.696005
 30
0.0
 10
131.120677
 20
73.325704
 30
0.0
 10
130.622332
 20
74.301797
 30
0.0
 10
130.153681
 20
75.231681
 30
0.0
 10
129.724884
 20
76.099736
 30
0.0
 10
129.346109
 20
76.890346
 30
0.0
 10
128.369238
 20
79.220674
 30
0.0
 10
127.969823
 20
80.913089
 30
0.0
 10
128.134010
 20
82.140422
 30
0.0
 10
128.847949
 20
83.075497
 30
0.0
 10
131.724687
 20
84.035717
 30
0.0
 10
137.354726
 20
85.002717
 30
0.0
 10
144.520815
 20
85.929952
 30
0.0
 10
152.005708
 20
86.770879
 30
0.0
 10
153.573962
 20
86.979038
 30
0.0
 10
155.135218
 20
87.253101
 30
0.0
 10
156.508766
 20
87.557486
 30
0.0
 10
157.513896
 20
87.856600
 30
0.0
 10
160.523487
 20
89.387624
 30
0.0
 10
163.404241
 20
91.581195
 30
0.0
 10
165.871192
 20
94.181837
 30
0.0
 10
167.639379
 20
96.934083
 30
0.0
 10
168.241597
 20
98.266766
 30
0.0
 10
168.544360
 20
99.377248
 30
0.0
 10
168.624589
 20
100.767734
 30
0.0
 10
168.559219
 20
102.940434
 30
0.0
 10
168.443971
 20
105.002843
 30
0.0
 10
168.256078
 20
106.404225
 30
0.0
 10
167.922097
 20
107.495072
 30
0.0
 10
167.368594
 20
108.625875
 30
0.0
 10
166.748289
 20
109.670916
 30
0.0
 10
166.033861
 20
110.693827
 30
0.0
 10
165.226897
 20
111.693039
 30
0.0
 10
164.328986
 20
112.666973
 30
0.0
 10
163.332544
 20
113.635840
 30
0.0
 10
162.242030
 20
114.590906
 30
0.0
 10
161.077106
 20
115.487180
 30
0.0
 10
159.857425
 20
116.279670
 30
0.0
 10
152.844863
 20
119.898318
 30
0.0
 10
145.530100
 20
122.914851
 30
0.0
 10
138.039264
 20
125.536745
 30
0.0
 10
130.498494
 20
127.971465
 30
0.0
 10
129.201247
 20
128.333801
 30
0.0
 10
127.886503
 20
128.633759
 30
0.0
 10
126.568921
 20
128.924383
 30
0.0
 10
125.263154
 20
129.258724
 30
0.0
 10
123.948625
 20
129.662298
 30
0.0
 10
122.644057
 20
130.098069
 30
0.0
 10
121.343948
 20
130.548123
 30
0.0
 10
120.042801
 20
130.994536
 30
0.0
 10
119.044420
 20
131.324368
 30
0.0
 10
118.045102
 20
131.651763
 30
0.0
 10
117.049474
 20
131.989414
 30
0.0
 10
116.062166
 20
132.350009
 30
0.0
 10
115.622264
 20
132.516221
 30
0.0
 10
115.174716
 20
132.689885
 30
0.0
 10
114.752185
 20
132.872543
 30
0.0
 10
114.387332
 20
133.065726
 30
0.0
 10
114.082043
 20
133.275911
 30
0.0
 10
113.813496
 20
133.513507
 30
0.0
 10
113.577361
 20
133.785982
 30
0.0
 10
113.369306
 20
134.100805
 30
0.0
 10
113.185015
 20
135.209621
 30
0.0
 10
113.020169
 20
137.268740
 30
0.0
 10
112.870468
 20
139.392630
 30
0.0
 10
112.731620
 20
140.695751
 30
0.0
 10
112.599416
 20
141.333992
 30
0.0
 10
112.469431
 20
142.059299
 30
0.0
 10
112.337343
 20
142.879143
 30
0.0
 10
112.198834
 20
143.800988
 30
0.0
 10
114.441156
 20
144.335682
 30
0.0
 10
116.288186
 20
144.466939
 30
0.0
 10
118.333426
 20
144.449450
 30
0.0
 10
121.170381
 20
144.537900
 30
0.0
 10
123.515920
 20
145.160041
 30
0.0
 10
125.540716
 20
146.046449
 30
0.0
 10
127.151814
 20
147.037316
 30
0.0
 10
128.256253
 20
147.972832
 30
0.0
 10
129.084788
 20
149.351851
 30
0.0
 10
129.759465
 20
151.459421
 30
0.0
 10
130.024247
 20
153.815048
 30
0.0
 10
129.623093
 20
155.938237
 30
0.0
 10
129.193280
 20
156.707046
 30
0.0
 10
128.593925
 20
157.295443
 30
0.0
 10
127.713596
 20
157.710374
 30
0.0
 10
126.440860
 20
157.958786
 30
0.0
 10
124.521231
 20
158.039790
 30
0.0
 10
122.020138
 20
157.913143
 30
0.0
 10
119.306040
 20
157.526776
 30
0.0
 10
116.747394
 20
156.828622
 30
0.0
 10
113.712888
 20
156.241472
 30
0.0
 10
111.476857
 20
156.093349
 30
0.0
 10
109.777645
 20
156.723562
 30
0.0
 10
108.353591
 20
158.471416
 30
0.0
 10
107.289257
 20
161.627168
 30
0.0
 10
106.363822
 20
164.233916
 30
0.0
 10
105.529447
 20
166.873190
 30
0.0
 10
104.738309
 20
170.126518
 30
0.0
 10
104.233783
 20
172.402096
 30
0.0
 10
103.255362
 20
174.540005
 30
0.0
 10
102.053489
 20
176.259433
 30
0.0
 10
100.878596
 20
177.279570
 30
0.0
 10
100.121700
 20
177.653805
 30
0.0
 10
99.418488
 20
177.929260
 30
0.0
 10
98.749121
 20
178.104016
 30
0.0
 10
98.093754
 20
178.176156
 30
0.0
  0
ENDSEC
  0
SECTION
  2
OBJECTS
  0
DICTIONARY
  5
C
330
0
100
AcDbDictionary
  3
ACAD_GROUP
350
D
  3
ACAD_MLINESTYLE
350
17
  0
DICTIONARY
  5
D
330
C
100
AcDbDictionary
  0
DICTIONARY
  5
1A
330
C
100
AcDbDictionary
  0
DICTIONARY
  5
17
330
C
100
AcDbDictionary
  3
STANDARD
350
18
  0
DICTIONARY
  5
19
330
C
100
AcDbDictionary
  0
ENDSEC
  0
EOF
