<?xml version="1.0" encoding="UTF-8" standalone="no"?>
<!-- Created with Inkscape (http://www.inkscape.org/) -->

<svg
   xmlns:dc="http://purl.org/dc/elements/1.1/"
   xmlns:cc="http://creativecommons.org/ns#"
   xmlns:rdf="http://www.w3.org/1999/02/22-rdf-syntax-ns#"
   xmlns:svg="http://www.w3.org/2000/svg"
   xmlns="http://www.w3.org/2000/svg"
   xmlns:sodipodi="http://sodipodi.sourceforge.net/DTD/sodipodi-0.dtd"
   xmlns:inkscape="http://www.inkscape.org/namespaces/inkscape"
   version="1.1"
   id="svg80"
   width="673.32324"
   height="723.22546"
   viewBox="0 0 673.32325 723.22546"
   sodipodi:docname="meeple_vador.svg"
   inkscape:version="0.92.4 5da689c313, 2019-01-14">
  <metadata
     id="metadata86">
    <rdf:RDF>
      <cc:Work
         rdf:about="">
        <dc:format>image/svg+xml</dc:format>
        <dc:type
           rdf:resource="http://purl.org/dc/dcmitype/StillImage" />
        <dc:title></dc:title>
      </cc:Work>
    </rdf:RDF>
  </metadata>
  <defs
     id="defs84" />
  <sodipodi:namedview
     pagecolor="#ffffff"
     bordercolor="#666666"
     borderopacity="1"
     objecttolerance="10"
     gridtolerance="10"
     guidetolerance="10"
     inkscape:pageopacity="0"
     inkscape:pageshadow="2"
     inkscape:window-width="1920"
     inkscape:window-height="1012"
     id="namedview82"
     showgrid="false"
     inkscape:zoom="0.81621112"
     inkscape:cx="132.58041"
     inkscape:cy="424.09352"
     inkscape:window-x="1280"
     inkscape:window-y="0"
     inkscape:window-maximized="1"
     inkscape:current-layer="svg80"
     showguides="true">
    <inkscape:grid
       type="xygrid"
       id="grid60"
       originx="-218.62434"
       originy="-59.999996" />
  </sodipodi:namedview>
  <path
     style="fill:#000000;stroke-width:1.33333337"
     d="m 57.896227,722.17788 c -0.94018,-0.59781 -1.679,-1.38676 -2.21875,-2.3899 -0.53976,-1.00314 -0.88044,-2.22046 -1.02434,-3.675 -0.14389,-1.45454 -0.091,-3.14631 0.15641,-5.09833 0.24741,-1.95202 0.68933,-4.1643 1.32348,-6.65988 3.27395,-12.88402 20.4428,-59.41619 28.2123,-76.46268 1.3369,-2.93333 5.9903,-14.63333 10.3407,-26 4.3505,-11.36667 12.175403,-31.16667 17.388703,-44 5.2132,-12.83334 10.757,-26.63334 12.3195,-30.66667 6.5845,-16.99753 25.38224,-60.7297 35.81964,-83.33334 3.238,-7.01242 4.9664,-10.92887 5.68424,-13.62105 0.71783,-2.69218 0.9286,-4.63791 -0.37914,-6.27543 -5.85022,-7.3255 -17.84412,-5.86255 -27.00307,-7.86298 -7.9709,-1.74094 -16.13463,-2.43857 -24.21344,-3.57823 -7.4194,-1.04665 -14.846993,-2.03549 -22.278343,-2.99355 -9.86952,-1.2724 -19.99174,-1.1771 -29.62859,-3.65856 -13.66634,-3.51904 -27.84704,-7.50172 -39.29771,-15.75005 C 15.052787,384.3571 7.965317,376.49263 3.856327,367.4692 0.68422705,360.50321 -0.76453295,352.33347 0.39923705,344.76823 1.682487,336.42627 6.490947,328.33424 11.558277,322.03958 c 3.50115,-4.36184 7.42284,-8.39195 11.51489,-12.20493 4.39123,-4.09174 9.04465,-7.92392 13.93603,-11.40237 5.971,-4.2462 12.24822,-8.08822 18.73227,-11.5 6.68064,-3.51521 13.74289,-6.25619 20.69578,-9.19641 10.27789,-4.34629 20.5974,-8.61047 31.064413,-12.47917 34.81279,-12.86709 70.4334,-25.26467 105.4764,-35.66733 7.8455,-2.32894 17.7636,-5.64856 20.6273,-13.31498 2.5939,-6.94439 -1.6982,-16.93287 -6.2019,-21.35687 -4.5037,-4.424 -7.1962,-2.65547 -15.0944,-4.09257 -11.1566,-2.02997 -26.41495,-4.74275 -30.3442,-15.38003 -4.88169,-13.21571 8.88606,-27.7662 16.22523,-39.02709 7.33918,-11.26089 19.34737,-26.98847 32.07067,-54.273625 1.4103,-2.99252 0.18351,-23.287927 2.6268,-34.59007 3.8513,-17.395642 9.26168,-26.742316 24.2005,-35.21237 9.65937,-5.4068862 20.71228,-8.1115334 31.5503,-10.3643602 10.81277,-2.24757807 21.94639,-2.9900723 32.99007,-3.0600804 12.03157,-0.076271 24.10838,0.92430017 35.98053,2.8778904 8.01807,1.3193912 16.23747,2.5972949 23.6416,5.94528 19.83988,9.3701752 26.52565,18.7302162 30.6878,39.1032002 2.20833,10.991486 0.6785,33.62655 0.6785,33.62655 8.8575,20.340685 32.4482,50.918675 36.8969,57.561245 4.4487,6.64257 19.5948,24.36032 14.7556,36.58803 -3.6857,9.31305 -16.0153,10.52616 -27.2648,12.6289 -2.3143,0.6077 -8.9034,1.62505 -15.7199,4.95307 -5.072,4.99525 -8.7595,16.68802 -6.1949,24.82055 2.0573,6.52396 9.138,10.92618 15.4927,13.45839 33.2869,13.26406 66.3203,23.33907 98.8313,36.67132 12.3344,5.05813 24.575,10.39567 36.468,16.41861 14.097,7.13903 28.1541,14.51177 41.2674,23.32831 5.8435,3.92882 12.028,7.72326 16.5667,13.10679 6.0608,7.1889 11.8483,15.50796 13.5103,24.76278 1.5311,8.52631 -0.022,17.89076 -3.7315,25.71879 -3.3309,7.02807 -9.4014,12.72236 -15.7513,17.21317 -8.5905,6.07541 -19.09772,8.93661 -29.0563,12.33281 -16.95214,5.78123 -39.49595,10.829 -51.98235,13.60193 -41.34609,9.18198 7.32312,49.50775 49.99275,94.86737 44.91277,54.63291 56.91903,68.40132 10.38682,84.77029 -20.97913,7.50871 -49.26292,8.94771 -51.20182,13.52019 -0.6845,3.13792 3.7741,15.04706 6.1275,22.43264 8.1512,25.58026 24.4157,63.36364 27.6416,75.65097 0.6116,2.32957 1.0314,4.42681 1.2586,6.29952 0.2271,1.87271 0.2616,3.52088 0.1026,4.95229 -0.159,1.43142 -0.5115,2.64608 -1.0585,3.65176 -0.5469,1.00569 -1.2882,1.8024 -2.2248,2.39792 -0.8708,0.55369 -18.4332,1.01591 -80.5832,1.02713 -112.0897,0.0203 -113.022,-10e-4 -115.7285,-2.7081 -3.0976,-3.09754 -10.2782,-18.27835 -14.5824,-30.82917 -2.9359,-8.56084 -15.6777,-36.0907 -34.9176,-75.44232 -2.0325,-4.15593 -4.263,-6.98796 -6.5714,-8.70978 -2.3084,-1.72182 -4.6947,-2.33343 -7.0389,-2.04852 -2.3442,0.28492 -4.6463,1.46636 -6.7862,3.33063 -2.1399,1.86428 -4.1177,4.4114 -5.8132,7.42767 -19.2399,39.35162 -31.9818,66.88148 -34.9177,75.44232 -4.2309,12.3371 -11.2681,27.11311 -14.5534,30.55769 l -2.8613,3 -80.94809,-0.0204 C 110.30604,723.19434 58.767037,722.7316 57.896237,722.1779 h -8e-5 l -8e-5,-10e-6 h -7e-5 z"
     id="path195-3-6"
     inkscape:connector-curvature="0"
     sodipodi:nodetypes="csssscccccsaaaaaaaacaaaaasazsazcccaaaccczaccasaaaaaaaascccasssscscccssscccccccccc" />
</svg>
