<?xml version="1.0" encoding="UTF-8" standalone="no"?>
<!-- Created with Inkscape (http://www.inkscape.org/) -->

<svg
   xmlns:dc="http://purl.org/dc/elements/1.1/"
   xmlns:cc="http://creativecommons.org/ns#"
   xmlns:rdf="http://www.w3.org/1999/02/22-rdf-syntax-ns#"
   xmlns:svg="http://www.w3.org/2000/svg"
   xmlns="http://www.w3.org/2000/svg"
   xmlns:sodipodi="http://sodipodi.sourceforge.net/DTD/sodipodi-0.dtd"
   xmlns:inkscape="http://www.inkscape.org/namespaces/inkscape"
   version="1.1"
   id="svg80"
   width="637.32123"
   height="638.00006"
   viewBox="0 0 637.32122 638.00006"
   sodipodi:docname="meeple_egypt.svg"
   inkscape:version="0.92.4 5da689c313, 2019-01-14">
  <metadata
     id="metadata86">
    <rdf:RDF>
      <cc:Work
         rdf:about="">
        <dc:format>image/svg+xml</dc:format>
        <dc:type
           rdf:resource="http://purl.org/dc/dcmitype/StillImage" />
        <dc:title></dc:title>
      </cc:Work>
    </rdf:RDF>
  </metadata>
  <defs
     id="defs84" />
  <sodipodi:namedview
     pagecolor="#ffffff"
     bordercolor="#666666"
     borderopacity="1"
     objecttolerance="10"
     gridtolerance="10"
     guidetolerance="10"
     inkscape:pageopacity="0"
     inkscape:pageshadow="2"
     inkscape:window-width="1920"
     inkscape:window-height="1012"
     id="namedview82"
     showgrid="false"
     inkscape:zoom="0.81621112"
     inkscape:cx="408.4323"
     inkscape:cy="441.50356"
     inkscape:window-x="1280"
     inkscape:window-y="0"
     inkscape:window-maximized="1"
     inkscape:current-layer="svg80"
     showguides="true">
    <inkscape:grid
       type="xygrid"
       id="grid60"
       originx="663.22299"
       originy="-59.999997" />
  </sodipodi:namedview>
  <path
     style="fill:#000000;stroke-width:1.33333337"
     d="m 35.743642,636.95248 c -3.76063,-2.39123 -4.29973,-7.8408 -1.76314,-17.82311 3.27394,-12.88401 20.4428,-59.41619 28.2123,-76.46268 1.3369,-2.93333 5.9903,-14.63333 10.3407,-26 4.3505,-11.36667 12.1754,-31.16667 17.3887,-44 5.2132,-12.83334 10.756998,-26.63334 12.319498,-30.66667 6.5845,-16.99753 34.01302,-53.91427 45.8195,-83.33334 2.55643,-6.37004 4.33742,-13.10117 5.3051,-19.89648 2.15934,-15.16338 7.83002,-32.21542 1.02616,-45.9376 C 144.37057,272.62023 128.09739,267.88928 99.618254,253.07596 50.452318,227.50249 79.266149,191.5684 -2.211879,171.42443 c -19.682165,-4.86606 -48.987287,-11.35663 -60.816864,-32.37817 -11.480546,-20.4013 -8.417566,-49.137466 4.900694,-60.145509 14.544543,-12.021611 35.361967,-21.659115 91.948699,-6.195726 78.25195,21.383817 50.618215,56.750235 106.38176,75.660595 25.8779,8.77564 46.85887,12.00728 70.70276,5.66397 21.81794,-9.14373 13.09145,-16.64879 14.9328,-20.117 0.41,-1.49484 -0.41687,-17.49137 0.0111,-19.88883 0.4279,-2.39746 0.8855,-5.32171 1.4142,-8.92371 0.5971,-4.06838 1.2737,-7.955346 2.041,-11.684346 0.7672,-3.72901 1.625,-7.30006 2.5844,-10.73663 0.9595,-3.43658 2.0206,-6.73867 3.1944,-9.92974 1.1738,-3.19108 2.4603,-6.27114 3.8706,-9.26366 1.4103,-2.99252 -11.0557,-5.89749 -9.3868,-8.7384 1.6689,-2.84091 3.4726,-5.61774 5.4222,-8.35398 1.9496,-2.73623 4.0451,-5.43187 6.2975,-8.11037 2.2525,-2.67851 4.6619,-5.33988 7.2393,-8.0076 3.6298,-3.75695 6.9396,-6.97951 10.0896,-9.77798 3.1499,-2.79847 6.14,-5.17284 9.1303,-7.23339 2.9902,-2.06056 5.9806,-3.80729 9.1313,-5.3505 3.1506,-1.54321 6.4614,-2.88288 10.0925,-4.1293 5.1268,-1.75987 8.2438,-2.70589 12.482,-3.21198 2.119,-0.25304 4.5184,-0.39608 7.5893,-0.47587 C 310.1119,0.0165 313.8545,0 318.6602,0 c 5.6389,0 10.1523,0.059 14.0143,0.27545 3.862,0.21645 7.0726,0.59038 10.1063,1.22026 3.0337,0.62989 5.8904,1.51573 9.0444,2.756 3.1539,1.24028 6.6052,2.83499 10.8282,4.88262 3.2602,1.58083 6.3397,3.53642 9.9978,6.47721 3.6581,2.9408 7.8948,6.86681 13.4694,12.38847 2.9113,2.88367 5.6083,5.7108 8.1088,8.51802 2.5006,2.80722 4.8049,5.59452 6.9308,8.39851 2.1259,2.804 4.0734,5.62469 5.8607,8.49869 1.7872,2.874 3.4141,5.80131 4.8987,8.81854 1.4846,3.01723 2.8269,6.12438 4.045,9.35807 1.218,3.23369 2.3117,6.59391 3.2991,10.11729 0.9875,3.52338 1.8686,7.2099 2.6615,11.09618 0.793,3.88629 1.4976,7.97233 2.132,12.29475 0.722,4.91934 3.99715,16.42129 8.0153,23.74535 7.91731,11.37212 17.76046,20.56064 29.16392,27.54329 27.52432,16.85389 53.94993,18.56776 91.21464,32.47568 74.38154,27.76064 46.21295,60.61967 92.11245,78.83569 17.80746,7.06721 61.83162,16.92242 67.84425,43.01595 5.13981,22.30568 -0.34164,57.52166 -36.05566,58.44347 -24.45772,0.63128 -57.07587,-3.88552 -80.73547,-19.53119 -42.2908,-27.96615 -23.27351,-46.05224 -81.85452,-63.41034 -12.84182,-3.80515 -31.40651,4.64723 -38.78274,15.59043 -10.78403,15.99894 7.19932,38.09372 13.88723,56.1916 10.86223,29.39384 35.1311,65.72071 42.2122,84 1.5625,4.03333 7.0979,17.83333 12.3009,30.66667 5.203,12.83333 13.0553,32.63333 17.4494,44 4.3942,11.36667 9.3569,23.66667 11.0282,27.33333 6.3697,13.97439 24.4157,63.36364 27.6416,75.65097 2.4464,9.31826 -2.52961,15.96698 -6.27591,18.34906 -0.8708,0.55369 -34.07939,-0.0317 -96.22939,-0.0204 -112.0897,0.0203 -111.06411,2.72754 -113.77061,0.0204 -3.0976,-3.09754 -10.61905,-35.63377 -18.54029,-57.55771 -7.92124,-21.92394 -12.289,-45.17946 -24.49002,-64.7746 -4.5657,-7.33262 -9.07451,-18.6546 -17.70833,-18.91905 -9.84308,-0.3015 -15.77131,12.26209 -21.4708,20.29285 -13.4005,18.88176 -25.43997,54.83995 -28.37585,63.4008 C 268.40678,592.7794 259.3696,631.55542 256.0843,635 l -2.8613,3 -112.9481,-0.0204 c -62.121398,-0.0107 -101.18112,0.57416 -102.05191,0.0205 z"
     id="path195-3"
     inkscape:connector-curvature="0"
     sodipodi:nodetypes="csccccaaassssssccscssssssscsssssssssscsssssssssccassassssacsccscsczaaasccccc" />
</svg>
