<?xml version="1.0" encoding="UTF-8" standalone="no"?>
<!-- Created with Inkscape (http://www.inkscape.org/) -->

<svg
   xmlns:dc="http://purl.org/dc/elements/1.1/"
   xmlns:cc="http://creativecommons.org/ns#"
   xmlns:rdf="http://www.w3.org/1999/02/22-rdf-syntax-ns#"
   xmlns:svg="http://www.w3.org/2000/svg"
   xmlns="http://www.w3.org/2000/svg"
   xmlns:sodipodi="http://sodipodi.sourceforge.net/DTD/sodipodi-0.dtd"
   xmlns:inkscape="http://www.inkscape.org/namespaces/inkscape"
   version="1.1"
   id="svg80"
   width="637.32123"
   height="638.00006"
   viewBox="0 0 637.32122 638.00006"
   sodipodi:docname="meeple_daenerys_mold.svg"
   inkscape:version="0.92.4 5da689c313, 2019-01-14">
  <metadata
     id="metadata86">
    <rdf:RDF>
      <cc:Work
         rdf:about="">
        <dc:format>image/svg+xml</dc:format>
        <dc:type
           rdf:resource="http://purl.org/dc/dcmitype/StillImage" />
        <dc:title></dc:title>
      </cc:Work>
    </rdf:RDF>
  </metadata>
  <defs
     id="defs84" />
  <sodipodi:namedview
     pagecolor="#ffffff"
     bordercolor="#666666"
     borderopacity="1"
     objecttolerance="10"
     gridtolerance="10"
     guidetolerance="10"
     inkscape:pageopacity="0"
     inkscape:pageshadow="2"
     inkscape:window-width="1920"
     inkscape:window-height="1012"
     id="namedview82"
     showgrid="false"
     inkscape:zoom="0.81621109"
     inkscape:cx="527.56913"
     inkscape:cy="359.94623"
     inkscape:window-x="1280"
     inkscape:window-y="0"
     inkscape:window-maximized="1"
     inkscape:current-layer="svg80"
     showguides="true">
    <inkscape:grid
       type="xygrid"
       id="grid60"
       originx="663.22299"
       originy="-59.999997" />
  </sodipodi:namedview>
  <path
     style="fill:#000000;stroke-width:1.33333337"
     d="m 35.743642,636.95248 c -3.76063,-2.39123 -4.29973,-7.8408 -1.76314,-17.82311 3.27394,-12.88401 20.4428,-59.41619 28.2123,-76.46268 1.3369,-2.93333 5.9903,-14.63333 10.3407,-26 4.3505,-11.36667 12.1754,-31.16667 17.3887,-44 5.2132,-12.83334 10.756998,-26.63334 12.319498,-30.66667 6.5845,-16.99753 31.3821,-60.7297 41.8195,-83.33334 6.476,-14.02484 6.9136,-25.6658 5.3051,-29.89648 -2.9025,-7.6339 -42.2672,-13.57776 -87.123298,-18.09332 -19.313766,-4.06555 -50.761736,-13.42145 -58.5391895,-28.43308 -3.89406,-8.10776 -4.0234,-8.95707 -3.45713,-22.70097 0.51962,-12.61151 1.03963,-15.10738 4.45509,-21.3827 1.98551,-3.64803 4.30478,-7.07881 7.1370995,-10.44239 2.83232,-3.36357 6.17768,-6.65993 10.21535,-10.03911 4.03767,-3.37919 9.145409,-7.70979 14.36921,-10.53605 21.041571,-10.26415 29.789991,-13.24581 52.519649,-23.36428 9.016685,-4.78056 7.390691,-12.88011 5.170685,-17.51942 -2.200675,-4.39714 -3.158314,-5.99882 -6.360958,-11.652 -5.580886,-8.6838 -2.053483,-12.39236 56.998452,-10.97956 13.85428,0.24615 25.49741,0.0921 50.79301,1.71092 4.43578,-0.92589 11.57497,0.73584 13.76163,-4.04357 2.04432,-4.77734 2.12197,-13.88725 2.53207,-15.38208 0.41,-1.49484 -0.41687,-9.49137 0.0111,-11.88883 0.4279,-2.39746 0.8855,-5.32171 1.4142,-8.92371 0.5971,-4.06838 1.2737,-7.95535 2.041,-11.68435 0.7672,-3.72901 1.625,-7.30006 2.5844,-10.73663 0.9595,-3.43658 2.0206,-6.73867 3.1944,-9.92974 1.1738,-3.19108 2.4603,-6.27114 3.8706,-9.26366 1.4103,-2.99252 2.9443,-5.89749 4.6132,-8.7384 1.6689,-2.84091 3.4726,-5.61774 5.4222,-8.35398 1.9496,-2.73623 4.0451,-5.43187 6.2975,-8.11037 2.2525,-2.67851 4.6619,-5.33988 7.2393,-8.0076 3.6298,-3.75695 6.9396,-6.97951 10.0896,-9.77798 3.1499,-2.79847 6.14,-5.17284 9.1303,-7.23339 2.9902,-2.06056 5.9806,-3.80729 9.1313,-5.3505 3.1506,-1.54321 6.4614,-2.88288 10.0925,-4.1293 5.1268,-1.75987 8.2438,-2.70589 12.482,-3.21198 2.119,-0.25304 4.5184,-0.39608 7.5893,-0.47587 C 310.1119,0.0165 313.8545,0 318.6602,0 c 5.6389,0 10.1523,0.059 14.0143,0.27545 3.862,0.21645 7.0726,0.59038 10.1063,1.22026 3.0337,0.62989 5.8904,1.51573 9.0444,2.756 3.1539,1.24028 6.6052,2.83499 10.8282,4.88262 3.2602,1.58083 6.3397,3.53642 9.9978,6.47721 3.6581,2.9408 7.8948,6.86681 13.4694,12.38847 2.9113,2.88367 5.6083,5.7108 8.1088,8.51802 2.5006,2.80722 4.8049,5.59452 6.9308,8.39851 2.1259,2.804 4.0734,5.62469 5.8607,8.49869 1.7872,2.874 3.4141,5.80131 4.8987,8.81854 1.4846,3.01723 2.8269,6.12438 4.045,9.35807 1.218,3.23369 2.3117,6.59391 3.2991,10.11729 0.9875,3.52338 1.8686,7.2099 2.6615,11.09618 0.793,3.88629 1.4976,7.97233 2.132,12.29475 0.722,4.91934 1.3358,8.73405 2.0153,11.74535 0.6796,3.0113 1.4249,23.2192 2.4098,24.92494 0.985,1.70573 2.2097,2.9093 3.848,3.91195 1.6384,1.00265 4.18721,1.885 6.3299,2.7064 4.94669,1.89631 10.02424,3.43199 15.0453,5.12157 6.56879,2.21038 13.0708,4.63941 19.72953,6.56194 6.52585,1.88416 13.31938,2.79265 19.78796,4.86492 37.91466,12.14631 76.59737,24.08827 110.96291,44.18962 6.25136,3.65659 12.149,8.81216 16.9004,13.65384 4.7514,4.84168 8.6005,9.95315 11.4866,15.27261 3.4658,6.38798 3.9798,8.84206 4.5009,21.48964 0.5671,13.76357 0.4418,14.58161 -3.4768,22.70097 -6.6712,13.82248 -23.2561,18.69091 -38.2685,24.30777 -3.8334,1.43428 -13.202,3.28127 -20.8191,4.10442 -36.4777,3.94207 -82.0097,9.22307 -87.5245,13.96669 -4.9597,4.26611 -4.5194,19.7363 1.8817,33.37734 9.8287,20.94577 26.90098,46.66149 33.98208,64.94078 13.3656,31.02617 14.68372,33.89643 37.98042,93.72589 4.3942,11.36667 9.3569,23.66667 11.0282,27.33333 6.3697,13.97439 24.4157,63.36364 27.6416,75.65097 2.4464,9.31826 -2.52961,15.96698 -6.27591,18.34906 -0.8708,0.55369 -54.25156,5.11207 -80.63549,-0.0204 -15.11471,-2.94027 -27.4324,-17.16806 -42.82982,-17.30617 -16.13443,-0.14472 -29.30579,14.53741 -45.19797,17.32657 -21.16078,3.71382 -43.34036,2.84043 -64.44148,-1.19864 -14.3752,-2.75163 -26.46314,-15.39017 -41.09919,-15.45374 -17.15459,-0.0745 -31.40925,14.85206 -48.32698,17.69387 -18.89478,3.17392 -38.77825,3.17035 -57.46907,-1.04149 -13.65985,-3.07815 -24.27038,-16.93717 -38.26734,-17.32657 -15.96557,-0.44417 -28.98118,14.37007 -44.68075,17.30611 -30.16107,5.64055 -91.18112,0.57416 -92.05191,0.0205 z"
     id="path195-3"
     inkscape:connector-curvature="0"
     sodipodi:nodetypes="csccccccccsssscccccccsscssssssscsssssssssscssssssssscsssaaaaasccccccccccscaaaaaaaaacc" />
  <path
     style="fill:#000000;stroke-width:1.28050351"
     d="m 574.2488,376.95343 c 19.93482,-24.05925 29.38812,-33.10726 64.89799,-51.80585 19.57382,-8.41391 19.43407,-28.43136 6.25386,-36.42646 -6.79192,-3.0894 -15.53113,1.00288 -23.07323,5.72947 -6.15011,-6.34252 -23.63204,-68.5068 -28.60518,-73.3953 -19.29301,-6.84551 -20.16942,-9.27362 -38.0852,-12.01383 -6.51921,-4.23858 -23.39819,-13.53413 -37.691,-19.00791 -23.58459,-6.40769 -23.85771,-14.86417 -25.8999,-15.62812 35.23931,-19.392 59.5851,-14.69232 61.70371,-19.63794 -0.0483,-11.29253 -1.53062,-32.40023 6.49245,-39.09292 C 612.90203,76.480152 603.6769,23.665497 589.05306,8.8250514 580.33182,-2.8287254 575.04713,-1.8242363 562.897,-2.7270933 551.08835,-3.5494633 555.41669,-4.125988 538.84873,-6.4340015 489.2712,-18.453552 522.03001,-64.514404 522.3971,-64.9852 c 66.36446,-81.29004 146.49404,-104.58301 232.94066,-114.38479 60.44696,-1.97782 83.88287,22.34291 59.94224,42.42517 -7.16678,10.35148 -19.03246,20.33778 -15.63204,39.901699 27.21662,29.11201 76.81638,0.651207 103.29925,44.43681 4.01146,34.64261 -55.60966,57.9957905 -58.83184,84.925366 -3.22217,26.929576 72.68716,39.560151 54.92818,97.242855 -25.16358,20.61788 -74.15802,4.54253 -76.02862,21.13457 -1.8706,16.59204 38.14752,47.85184 16.80292,72.87322 -10.49737,14.70311 -32.62204,7.79272 -51.46258,1.15463 -17.37428,-3.53346 -31.55043,3.15328 -28.18866,22.48806 22.30159,44.51651 -6.68578,112.34717 -50.97296,136.12801 -24.83374,15.11196 -38.91513,12.50011 -75.77664,37.17558 -68.38277,45.77612 -82.53599,4.20225 -59.16821,-43.56255 z"
     id="path321-3"
     inkscape:connector-curvature="0"
     sodipodi:nodetypes="ccccccccccccccccccscsccccsc" />
  <path
     style="fill:#000000;stroke-width:2.28350711"
     d="m 519.53073,133.63218 c -0.0512,-3.67426 -1.62186,-6.09575 -6.16846,-9.1365 -6.36249,-3.75094 -34.33074,-9.74001 -41.84649,-7.35741 -14.45791,2.06144 -27.84122,-18.248383 -28.14296,-28.647032 -3.86448,-19.233319 28.85346,-53.151819 37.26229,-57.790609 20.79013,-7.13902 26.39726,-13.102333 46.24629,-14.16703 16.35186,0.976455 17.64167,-1.65894 43.94807,0.784361 11.41606,1.66449 18.43432,10.743131 10.77075,22.603471 -4.68842,2.360855 -0.96362,11.396239 1.76787,14.692373 4.70043,4.659839 10.34212,4.835789 17.506,2.807305 7.26851,-3.107673 12.05483,-5.934062 17.4728,-18.282318 12.6917,-28.926007 25.24325,56.890681 5.40687,98.257949 -19.83637,41.36727 -100.79163,43.5074 -111.99561,8.4692 6.21143,-1.63215 7.83985,-7.40287 7.77258,-12.23376 z"
     id="path321-6"
     inkscape:connector-curvature="0"
     sodipodi:nodetypes="acccccccccssca" />
  <path
     style="fill:#000000;stroke-width:1.33333337"
     d="m 501.17836,173.57844 c 14.74185,-6.38311 104.50697,-30.77235 -13.59688,-27.94676 -13.85428,0.24615 -25.49741,0.0921 -50.79301,1.71092 -4.61051,-1.76095 -12.13573,-1.88486 -12.13573,-1.88486 0,0 -1.2715,-1.33051 -1.6259,-2.15871 -2.04432,-4.77734 -2.12197,-13.88725 -2.53207,-15.38208 -0.41,-1.49484 0.41687,-9.49137 -0.0111,-11.88883 -0.4279,-2.39746 -0.8855,-5.32171 -1.4142,-8.92371 -86.85266,83.14101 -37.92552,115.95743 82.10889,66.47403 z"
     id="path195-3-2"
     inkscape:connector-curvature="0"
     sodipodi:nodetypes="ccccasscc" />
</svg>
