  0
SECTION
  2
HEADER
  9
$ACADVER
  1
AC1014
  9
$HANDSEED
  5
FFFF
  9
$MEASUREMENT
 70
     1
  0
ENDSEC
  0
SECTION
  2
TABLES
  0
TABLE
  2
VPORT
  5
8
330
0
100
AcDbSymbolTable
 70
     4
  0
VPORT
  5
2E
330
8
100
AcDbSymbolTableRecord
100
AcDbViewportTableRecord
  2
*ACTIVE
 70
     0
 10
0.0
 20
0.0
 11
1.0
 21
1.0
 12
210.0
 22
148.5
 13
0.0
 23
0.0
 14
10.0
 24
10.0
 15
10.0
 25
10.0
 16
0.0
 26
0.0
 36
1.0
 17
0.0
 27
0.0
 37
0.0
 40
341.0
 41
1.24
 42
50.0
 43
0.0
 44
0.0
 50
0.0
 51
0.0
 71
     0
 72
   100
 73
     1
 74
     3
 75
     0
 76
     0
 77
     0
 78
     0
  0
ENDTAB
  0
TABLE
  2
LTYPE
  5
5
330
0
100
AcDbSymbolTable
 70
     1
  0
LTYPE
  5
14
330
5
100
AcDbSymbolTableRecord
100
AcDbLinetypeTableRecord
  2
BYBLOCK
 70
     0
  3

 72
    65
 73
     0
 40
0.0
  0
LTYPE
  5
15
330
5
100
AcDbSymbolTableRecord
100
AcDbLinetypeTableRecord
  2
BYLAYER
 70
     0
  3

 72
    65
 73
     0
 40
0.0
  0
LTYPE
  5
16
330
5
100
AcDbSymbolTableRecord
100
AcDbLinetypeTableRecord
  2
CONTINUOUS
 70
     0
  3
Solid line
 72
    65
 73
     0
 40
0.0
  0
ENDTAB
  0
TABLE
  2
LAYER
  5
2
100
AcDbSymbolTable
 70
1
  0
LAYER
  5
50
100
AcDbSymbolTableRecord
100
AcDbLayerTableRecord
  2
0
 70
0
  6
CONTINUOUS
  0
ENDTAB
  0
TABLE
  2
STYLE
  5
3
330
0
100
AcDbSymbolTable
 70
     1
  0
STYLE
  5
11
330
3
100
AcDbSymbolTableRecord
100
AcDbTextStyleTableRecord
  2
STANDARD
 70
     0
 40
0.0
 41
1.0
 50
0.0
 71
     0
 42
2.5
  3
txt
  4

  0
ENDTAB
  0
TABLE
  2
VIEW
  5
6
330
0
100
AcDbSymbolTable
 70
     0
  0
ENDTAB
  0
TABLE
  2
UCS
  5
7
330
0
100
AcDbSymbolTable
 70
     0
  0
ENDTAB
  0
TABLE
  2
APPID
  5
9
330
0
100
AcDbSymbolTable
 70
     2
  0
APPID
  5
12
330
9
100
AcDbSymbolTableRecord
100
AcDbRegAppTableRecord
  2
ACAD
 70
     0
  0
ENDTAB
  0
TABLE
  2
DIMSTYLE
  5
A
330
0
100
AcDbSymbolTable
 70
     1
  0
DIMSTYLE
105
27
330
A
100
AcDbSymbolTableRecord
100
AcDbDimStyleTableRecord
  2
ISO-25
 70
     0
  3

  4

  5

  6

  7

 40
1.0
 41
2.5
 42
0.625
 43
3.75
 44
1.25
 45
0.0
 46
0.0
 47
0.0
 48
0.0
140
2.5
141
2.5
142
0.0
143
0.03937007874016
144
1.0
145
0.0
146
1.0
147
0.625
 71
     0
 72
     0
 73
     0
 74
     0
 75
     0
 76
     0
 77
     1
 78
     8
170
     0
171
     3
172
     1
173
     0
174
     0
175
     0
176
     0
177
     0
178
     0
270
     2
271
     2
272
     2
273
     2
274
     3
340
11
275
     0
280
     0
281
     0
282
     0
283
     0
284
     8
285
     0
286
     0
287
     3
288
     0
  0
ENDTAB
  0
TABLE
  2
BLOCK_RECORD
  5
1
330
0
100
AcDbSymbolTable
 70
     1
  0
BLOCK_RECORD
  5
1F
330
1
100
AcDbSymbolTableRecord
100
AcDbBlockTableRecord
  2
*MODEL_SPACE
  0
BLOCK_RECORD
  5
1B
330
1
100
AcDbSymbolTableRecord
100
AcDbBlockTableRecord
  2
*PAPER_SPACE
  0
ENDTAB
  0
ENDSEC
  0
SECTION
  2
BLOCKS
  0
BLOCK
  5
20
330
1F
100
AcDbEntity
  8
0
100
AcDbBlockBegin
  2
*MODEL_SPACE
 70
     0
 10
0.0
 20
0.0
 30
0.0
  3
*MODEL_SPACE
  1

  0
ENDBLK
  5
21
330
1F
100
AcDbEntity
  8
0
100
AcDbBlockEnd
  0
BLOCK
  5
1C
330
1B
100
AcDbEntity
 67
     1
  8
0
100
AcDbBlockBegin
  2
*PAPER_SPACE
  1

  0
ENDBLK
  5
1D
330
1B
100
AcDbEntity
 67
     1
  8
0
100
AcDbBlockEnd
  0
ENDSEC
  0
SECTION
  2
ENTITIES
  0
LWPOLYLINE
  5
100
100
AcDbEntity
  8
0
 62
7
100
AcDbPolyline
 90
1360
 70
1
 10
43.132250
 20
179.162689
 30
0.0
 10
43.190903
 20
178.794074
 30
0.0
 10
43.249556
 20
178.425460
 30
0.0
 10
43.308209
 20
178.056845
 30
0.0
 10
43.366861
 20
177.688231
 30
0.0
 10
43.425514
 20
177.319617
 30
0.0
 10
43.484167
 20
176.951002
 30
0.0
 10
43.542820
 20
176.582388
 30
0.0
 10
43.601473
 20
176.213773
 30
0.0
 10
43.660126
 20
175.845159
 30
0.0
 10
43.718778
 20
175.476544
 30
0.0
 10
43.777431
 20
175.107930
 30
0.0
 10
43.836084
 20
174.739315
 30
0.0
 10
43.894737
 20
174.370701
 30
0.0
 10
43.953390
 20
174.002087
 30
0.0
 10
44.012042
 20
173.633472
 30
0.0
 10
44.070695
 20
173.264858
 30
0.0
 10
44.323830
 20
171.781732
 30
0.0
 10
44.601725
 20
170.365127
 30
0.0
 10
44.906586
 20
169.010100
 30
0.0
 10
45.240614
 20
167.711705
 30
0.0
 10
45.606014
 20
166.465000
 30
0.0
 10
46.004993
 20
165.265039
 30
0.0
 10
46.439756
 20
164.106878
 30
0.0
 10
46.912503
 20
162.985574
 30
0.0
 10
47.425443
 20
161.896183
 30
0.0
 10
47.980774
 20
160.833759
 30
0.0
 10
48.580709
 20
159.793359
 30
0.0
 10
49.227446
 20
158.770039
 30
0.0
 10
49.923191
 20
157.758855
 30
0.0
 10
50.670150
 20
156.754863
 30
0.0
 10
51.470525
 20
155.753117
 30
0.0
 10
52.326521
 20
154.748675
 30
0.0
 10
52.739244
 20
154.265568
 30
0.0
 10
53.149383
 20
153.760186
 30
0.0
 10
53.554428
 20
153.236672
 30
0.0
 10
53.951875
 20
152.699170
 30
0.0
 10
54.339214
 20
152.151827
 30
0.0
 10
54.713943
 20
151.598784
 30
0.0
 10
55.073554
 20
151.044183
 30
0.0
 10
55.415539
 20
150.492169
 30
0.0
 10
55.737391
 20
149.946890
 30
0.0
 10
56.036609
 20
149.412484
 30
0.0
 10
56.310680
 20
148.893097
 30
0.0
 10
56.557100
 20
148.392873
 30
0.0
 10
56.773362
 20
147.915956
 30
0.0
 10
56.956962
 20
147.466490
 30
0.0
 10
57.105393
 20
147.048617
 30
0.0
 10
57.216145
 20
146.666482
 30
0.0
 10
57.540437
 20
145.653255
 30
0.0
 10
57.999537
 20
144.634175
 30
0.0
 10
58.581035
 20
143.619070
 30
0.0
 10
59.272513
 20
142.617762
 30
0.0
 10
60.061556
 20
141.640084
 30
0.0
 10
60.935753
 20
140.695863
 30
0.0
 10
61.882683
 20
139.794925
 30
0.0
 10
62.889936
 20
138.947100
 30
0.0
 10
63.945097
 20
138.162211
 30
0.0
 10
65.035747
 20
137.450090
 30
0.0
 10
66.149473
 20
136.820564
 30
0.0
 10
67.273862
 20
136.283457
 30
0.0
 10
68.396497
 20
135.848601
 30
0.0
 10
69.504964
 20
135.525823
 30
0.0
 10
70.586848
 20
135.324949
 30
0.0
 10
71.629735
 20
135.255808
 30
0.0
 10
71.966406
 20
135.255839
 30
0.0
 10
72.303078
 20
135.255874
 30
0.0
 10
72.639750
 20
135.255906
 30
0.0
 10
72.976424
 20
135.255937
 30
0.0
 10
73.313096
 20
135.255969
 30
0.0
 10
73.649767
 20
135.256003
 30
0.0
 10
73.986439
 20
135.256035
 30
0.0
 10
74.323111
 20
135.256067
 30
0.0
 10
74.659783
 20
135.256099
 30
0.0
 10
74.996454
 20
135.256133
 30
0.0
 10
75.333126
 20
135.256165
 30
0.0
 10
75.669798
 20
135.256197
 30
0.0
 10
76.006472
 20
135.256228
 30
0.0
 10
76.343144
 20
135.256260
 30
0.0
 10
76.679815
 20
135.256294
 30
0.0
 10
77.016487
 20
135.256326
 30
0.0
 10
77.001591
 20
135.081487
 30
0.0
 10
76.985610
 20
134.890773
 30
0.0
 10
76.968121
 20
134.686300
 30
0.0
 10
76.948701
 20
134.470180
 30
0.0
 10
76.926926
 20
134.244533
 30
0.0
 10
76.902399
 20
134.011470
 30
0.0
 10
76.874708
 20
133.773104
 30
0.0
 10
76.843431
 20
133.531552
 30
0.0
 10
76.808157
 20
133.288930
 30
0.0
 10
76.768472
 20
133.047349
 30
0.0
 10
76.723959
 20
132.808925
 30
0.0
 10
76.674204
 20
132.575777
 30
0.0
 10
76.618792
 20
132.350013
 30
0.0
 10
76.557308
 20
132.133751
 30
0.0
 10
76.489342
 20
131.929106
 30
0.0
 10
76.414473
 20
131.738193
 30
0.0
 10
76.396164
 20
131.697381
 30
0.0
 10
76.376452
 20
131.657130
 30
0.0
 10
76.355391
 20
131.617472
 30
0.0
 10
76.333034
 20
131.578425
 30
0.0
 10
76.309433
 20
131.540021
 30
0.0
 10
76.284642
 20
131.502283
 30
0.0
 10
76.258739
 20
131.465236
 30
0.0
 10
76.231754
 20
131.428906
 30
0.0
 10
76.203753
 20
131.393320
 30
0.0
 10
76.174792
 20
131.358503
 30
0.0
 10
76.144929
 20
131.324480
 30
0.0
 10
76.114216
 20
131.291275
 30
0.0
 10
76.082714
 20
131.258917
 30
0.0
 10
76.050475
 20
131.227429
 30
0.0
 10
76.017558
 20
131.196837
 30
0.0
 10
75.984020
 20
131.167170
 30
0.0
 10
75.795880
 20
131.010640
 30
0.0
 10
75.602414
 20
130.860787
 30
0.0
 10
75.403997
 20
130.717307
 30
0.0
 10
75.201004
 20
130.579893
 30
0.0
 10
74.993803
 20
130.448241
 30
0.0
 10
74.782774
 20
130.322043
 30
0.0
 10
74.568284
 20
130.200996
 30
0.0
 10
74.350712
 20
130.084794
 30
0.0
 10
74.130431
 20
129.973129
 30
0.0
 10
73.907810
 20
129.865695
 30
0.0
 10
73.683227
 20
129.762190
 30
0.0
 10
73.457050
 20
129.662304
 30
0.0
 10
73.229659
 20
129.565737
 30
0.0
 10
73.001425
 20
129.472177
 30
0.0
 10
72.772721
 20
129.381322
 30
0.0
 10
72.543920
 20
129.292864
 30
0.0
 10
72.189633
 20
129.164652
 30
0.0
 10
71.831760
 20
129.048288
 30
0.0
 10
71.470699
 20
128.942429
 30
0.0
 10
71.106852
 20
128.845731
 30
0.0
 10
70.740616
 20
128.756861
 30
0.0
 10
70.372392
 20
128.674469
 30
0.0
 10
70.002584
 20
128.597222
 30
0.0
 10
69.631585
 20
128.523773
 30
0.0
 10
69.259801
 20
128.452783
 30
0.0
 10
68.887627
 20
128.382912
 30
0.0
 10
68.515464
 20
128.312818
 30
0.0
 10
68.143714
 20
128.241159
 30
0.0
 10
67.772776
 20
128.166596
 30
0.0
 10
67.403048
 20
128.087790
 30
0.0
 10
67.034933
 20
128.003396
 30
0.0
 10
66.668826
 20
127.912072
 30
0.0
 10
66.053450
 20
127.750047
 30
0.0
 10
65.438776
 20
127.585418
 30
0.0
 10
64.824763
 20
127.418360
 30
0.0
 10
64.211363
 20
127.249037
 30
0.0
 10
63.598538
 20
127.077619
 30
0.0
 10
62.986244
 20
126.904275
 30
0.0
 10
62.374432
 20
126.729173
 30
0.0
 10
61.763068
 20
126.552479
 30
0.0
 10
61.152100
 20
126.374364
 30
0.0
 10
60.541486
 20
126.194998
 30
0.0
 10
59.931188
 20
126.014544
 30
0.0
 10
59.321157
 20
125.833178
 30
0.0
 10
58.711353
 20
125.651060
 30
0.0
 10
58.101732
 20
125.468365
 30
0.0
 10
57.492248
 20
125.285257
 30
0.0
 10
56.882860
 20
125.101906
 30
0.0
 10
55.392160
 20
124.679650
 30
0.0
 10
53.874018
 20
124.296340
 30
0.0
 10
52.333281
 20
123.944910
 30
0.0
 10
50.774798
 20
123.618300
 30
0.0
 10
49.203424
 20
123.309447
 30
0.0
 10
47.624004
 20
123.011285
 30
0.0
 10
46.041391
 20
122.716757
 30
0.0
 10
44.460432
 20
122.418796
 30
0.0
 10
42.885981
 20
122.110339
 30
0.0
 10
41.322884
 20
121.784328
 30
0.0
 10
39.775995
 20
121.433694
 30
0.0
 10
38.250161
 20
121.051379
 30
0.0
 10
36.750230
 20
120.630319
 30
0.0
 10
35.281057
 20
120.163448
 30
0.0
 10
33.847492
 20
119.643708
 30
0.0
 10
32.454379
 20
119.064033
 30
0.0
 10
33.173635
 20
120.003322
 30
0.0
 10
33.925928
 20
120.930517
 30
0.0
 10
34.708718
 20
121.842444
 30
0.0
 10
35.519473
 20
122.735931
 30
0.0
 10
36.355649
 20
123.607804
 30
0.0
 10
37.214712
 20
124.454892
 30
0.0
 10
38.094123
 20
125.274018
 30
0.0
 10
38.991344
 20
126.062011
 30
0.0
 10
39.903836
 20
126.815697
 30
0.0
 10
40.829060
 20
127.531903
 30
0.0
 10
41.764484
 20
128.207456
 30
0.0
 10
42.707565
 20
128.839180
 30
0.0
 10
43.655768
 20
129.423904
 30
0.0
 10
44.606551
 20
129.958458
 30
0.0
 10
45.557381
 20
130.439661
 30
0.0
 10
46.505717
 20
130.864346
 30
0.0
 10
47.628042
 20
131.349108
 30
0.0
 10
48.571919
 20
131.791017
 30
0.0
 10
49.337269
 20
132.190131
 30
0.0
 10
49.924009
 20
132.546514
 30
0.0
 10
50.332060
 20
132.860220
 30
0.0
 10
50.561348
 20
133.131315
 30
0.0
 10
50.611788
 20
133.359856
 30
0.0
 10
50.483304
 20
133.545903
 30
0.0
 10
50.175815
 20
133.689519
 30
0.0
 10
49.689244
 20
133.790759
 30
0.0
 10
49.023510
 20
133.849687
 30
0.0
 10
48.178537
 20
133.866356
 30
0.0
 10
47.154239
 20
133.840850
 30
0.0
 10
45.950547
 20
133.773199
 30
0.0
 10
44.567371
 20
133.663474
 30
0.0
 10
43.004639
 20
133.511735
 30
0.0
 10
39.258020
 20
133.004317
 30
0.0
 10
35.468739
 20
132.262685
 30
0.0
 10
31.676189
 20
131.293773
 30
0.0
 10
27.919770
 20
130.104516
 30
0.0
 10
24.238871
 20
128.701848
 30
0.0
 10
20.672891
 20
127.092708
 30
0.0
 10
17.261225
 20
125.284030
 30
0.0
 10
14.043267
 20
123.282748
 30
0.0
 10
11.058413
 20
121.095800
 30
0.0
 10
8.346058
 20
118.730121
 30
0.0
 10
5.945598
 20
116.192645
 30
0.0
 10
3.896428
 20
113.490310
 30
0.0
 10
2.237942
 20
110.630050
 30
0.0
 10
1.009536
 20
107.618798
 30
0.0
 10
0.250606
 20
104.463497
 30
0.0
 10
0.000546
 20
101.171075
 30
0.0
 10
0.036317
 20
99.383068
 30
0.0
 10
0.127139
 20
97.689301
 30
0.0
 10
0.277012
 20
96.080134
 30
0.0
 10
0.489938
 20
94.545924
 30
0.0
 10
0.769918
 20
93.077034
 30
0.0
 10
1.120954
 20
91.663823
 30
0.0
 10
1.547046
 20
90.296649
 30
0.0
 10
2.052196
 20
88.965875
 30
0.0
 10
2.640404
 20
87.661860
 30
0.0
 10
3.315673
 20
86.374961
 30
0.0
 10
4.082002
 20
85.095544
 30
0.0
 10
4.943394
 20
83.813964
 30
0.0
 10
5.903849
 20
82.520585
 30
0.0
 10
6.967370
 20
81.205762
 30
0.0
 10
8.137956
 20
79.859858
 30
0.0
 10
9.419609
 20
78.473235
 30
0.0
 10
10.779228
 20
77.215779
 30
0.0
 10
12.363465
 20
76.051528
 30
0.0
 10
14.146781
 20
74.977248
 30
0.0
 10
16.103633
 20
73.989701
 30
0.0
 10
18.208480
 20
73.085652
 30
0.0
 10
20.435782
 20
72.261867
 30
0.0
 10
22.759997
 20
71.515109
 30
0.0
 10
25.155584
 20
70.842141
 30
0.0
 10
27.597002
 20
70.239730
 30
0.0
 10
30.058711
 20
69.704637
 30
0.0
 10
32.515167
 20
69.233631
 30
0.0
 10
34.940832
 20
68.823471
 30
0.0
 10
37.310163
 20
68.470925
 30
0.0
 10
39.597620
 20
68.172755
 30
0.0
 10
41.777660
 20
67.925727
 30
0.0
 10
43.824744
 20
67.726604
 30
0.0
 10
44.272713
 20
67.730388
 30
0.0
 10
44.720684
 20
67.734171
 30
0.0
 10
45.168653
 20
67.737955
 30
0.0
 10
45.616624
 20
67.741738
 30
0.0
 10
46.064593
 20
67.745522
 30
0.0
 10
46.512564
 20
67.749305
 30
0.0
 10
46.960533
 20
67.753089
 30
0.0
 10
47.408504
 20
67.756872
 30
0.0
 10
47.856475
 20
67.760656
 30
0.0
 10
48.304444
 20
67.764439
 30
0.0
 10
48.752413
 20
67.768223
 30
0.0
 10
49.200384
 20
67.772006
 30
0.0
 10
49.648355
 20
67.775790
 30
0.0
 10
50.096324
 20
67.779574
 30
0.0
 10
50.544293
 20
67.783357
 30
0.0
 10
50.992264
 20
67.787141
 30
0.0
 10
50.952748
 20
67.810741
 30
0.0
 10
50.839314
 20
67.878514
 30
0.0
 10
50.659625
 20
67.985925
 30
0.0
 10
50.421351
 20
68.128437
 30
0.0
 10
50.132162
 20
68.301514
 30
0.0
 10
49.799718
 20
68.500621
 30
0.0
 10
49.431693
 20
68.721223
 30
0.0
 10
49.035750
 20
68.958784
 30
0.0
 10
48.619560
 20
69.208765
 30
0.0
 10
48.190784
 20
69.466634
 30
0.0
 10
47.757095
 20
69.727854
 30
0.0
 10
47.326160
 20
69.987889
 30
0.0
 10
46.905642
 20
70.242201
 30
0.0
 10
46.503211
 20
70.486256
 30
0.0
 10
46.126534
 20
70.715520
 30
0.0
 10
45.783280
 20
70.925453
 30
0.0
 10
45.213849
 20
71.263980
 30
0.0
 10
44.634118
 20
71.590206
 30
0.0
 10
44.046544
 20
71.907097
 30
0.0
 10
43.453584
 20
72.217628
 30
0.0
 10
42.857692
 20
72.524762
 30
0.0
 10
42.261329
 20
72.831472
 30
0.0
 10
41.666950
 20
73.140722
 30
0.0
 10
41.077012
 20
73.455487
 30
0.0
 10
40.493973
 20
73.778728
 30
0.0
 10
39.920290
 20
74.113418
 30
0.0
 10
39.358419
 20
74.462525
 30
0.0
 10
38.810818
 20
74.829015
 30
0.0
 10
38.279945
 20
75.215863
 30
0.0
 10
37.768254
 20
75.626033
 30
0.0
 10
37.278204
 20
76.062492
 30
0.0
 10
36.812251
 20
76.528212
 30
0.0
 10
36.438059
 20
76.935456
 30
0.0
 10
36.062747
 20
77.362845
 30
0.0
 10
35.686968
 20
77.808988
 30
0.0
 10
35.311373
 20
78.272483
 30
0.0
 10
34.936612
 20
78.751932
 30
0.0
 10
34.563335
 20
79.245938
 30
0.0
 10
34.192196
 20
79.753102
 30
0.0
 10
33.823843
 20
80.272029
 30
0.0
 10
33.458930
 20
80.801320
 30
0.0
 10
33.098107
 20
81.339578
 30
0.0
 10
32.742023
 20
81.885402
 30
0.0
 10
32.391331
 20
82.437397
 30
0.0
 10
32.046682
 20
82.994168
 30
0.0
 10
31.708725
 20
83.554312
 30
0.0
 10
31.378114
 20
84.116433
 30
0.0
 10
31.055497
 20
84.679135
 30
0.0
 10
31.422109
 20
84.634116
 30
0.0
 10
31.793251
 20
84.596506
 30
0.0
 10
32.168991
 20
84.565280
 30
0.0
 10
32.549398
 20
84.539430
 30
0.0
 10
32.934544
 20
84.517919
 30
0.0
 10
33.324495
 20
84.499742
 30
0.0
 10
33.719325
 20
84.483867
 30
0.0
 10
34.119100
 20
84.469289
 30
0.0
 10
34.523889
 20
84.454975
 30
0.0
 10
34.933762
 20
84.439894
 30
0.0
 10
35.348793
 20
84.423040
 30
0.0
 10
35.769044
 20
84.403408
 30
0.0
 10
36.194589
 20
84.379966
 30
0.0
 10
36.625498
 20
84.351697
 30
0.0
 10
37.061841
 20
84.317579
 30
0.0
 10
37.503682
 20
84.276596
 30
0.0
 10
39.709936
 20
84.048133
 30
0.0
 10
41.870135
 20
83.810712
 30
0.0
 10
43.972270
 20
83.564229
 30
0.0
 10
46.004342
 20
83.308580
 30
0.0
 10
47.954345
 20
83.043669
 30
0.0
 10
49.810278
 20
82.769394
 30
0.0
 10
51.560137
 20
82.485649
 30
0.0
 10
53.191917
 20
82.192340
 30
0.0
 10
54.693618
 20
81.889361
 30
0.0
 10
56.053235
 20
81.576613
 30
0.0
 10
57.258764
 20
81.253993
 30
0.0
 10
58.298203
 20
80.921401
 30
0.0
 10
59.159549
 20
80.578737
 30
0.0
 10
59.830797
 20
80.225896
 30
0.0
 10
60.299943
 20
79.862782
 30
0.0
 10
60.554988
 20
79.489291
 30
0.0
 10
60.628185
 20
79.286472
 30
0.0
 10
60.687148
 20
79.093908
 30
0.0
 10
60.730328
 20
78.905797
 30
0.0
 10
60.756177
 20
78.716337
 30
0.0
 10
60.763162
 20
78.519723
 30
0.0
 10
60.749721
 20
78.310149
 30
0.0
 10
60.714304
 20
78.081816
 30
0.0
 10
60.655366
 20
77.828917
 30
0.0
 10
60.571363
 20
77.545651
 30
0.0
 10
60.460744
 20
77.226214
 30
0.0
 10
60.321964
 20
76.864804
 30
0.0
 10
60.153475
 20
76.455615
 30
0.0
 10
59.953728
 20
75.992843
 30
0.0
 10
59.721175
 20
75.470691
 30
0.0
 10
59.454271
 20
74.883348
 30
0.0
 10
59.151466
 20
74.225014
 30
0.0
 10
58.591256
 20
73.041247
 30
0.0
 10
57.954626
 20
71.745014
 30
0.0
 10
57.254200
 20
70.354869
 30
0.0
 10
56.502603
 20
68.889358
 30
0.0
 10
55.712457
 20
67.367030
 30
0.0
 10
54.896387
 20
65.806435
 30
0.0
 10
54.067016
 20
64.226127
 30
0.0
 10
53.236965
 20
62.644649
 30
0.0
 10
52.418863
 20
61.080554
 30
0.0
 10
51.625330
 20
59.552389
 30
0.0
 10
50.868992
 20
58.078708
 30
0.0
 10
50.162470
 20
56.678057
 30
0.0
 10
49.518387
 20
55.368986
 30
0.0
 10
48.949371
 20
54.170042
 30
0.0
 10
48.468041
 20
53.099779
 30
0.0
 10
48.087025
 20
52.176745
 30
0.0
 10
47.997443
 20
51.947061
 30
0.0
 10
47.884839
 20
51.660967
 30
0.0
 10
47.750883
 20
51.322620
 30
0.0
 10
47.597250
 20
50.936183
 30
0.0
 10
47.425609
 20
50.505817
 30
0.0
 10
47.237636
 20
50.035684
 30
0.0
 10
47.034997
 20
49.529944
 30
0.0
 10
46.819370
 20
48.992755
 30
0.0
 10
46.592421
 20
48.428285
 30
0.0
 10
46.355825
 20
47.840688
 30
0.0
 10
46.111255
 20
47.234128
 30
0.0
 10
45.860379
 20
46.612767
 30
0.0
 10
45.604871
 20
45.980762
 30
0.0
 10
45.346405
 20
45.342280
 30
0.0
 10
45.086650
 20
44.701475
 30
0.0
 10
44.827277
 20
44.062514
 30
0.0
 10
44.560944
 20
43.405255
 30
0.0
 10
44.280774
 20
42.710763
 30
0.0
 10
43.989130
 20
41.985006
 30
0.0
 10
43.688364
 20
41.233955
 30
0.0
 10
43.380839
 20
40.463575
 30
0.0
 10
43.068914
 20
39.679837
 30
0.0
 10
42.754946
 20
38.888709
 30
0.0
 10
42.441293
 20
38.096160
 30
0.0
 10
42.130318
 20
37.308160
 30
0.0
 10
41.824375
 20
36.530676
 30
0.0
 10
41.525827
 20
35.769674
 30
0.0
 10
41.237029
 20
35.031129
 30
0.0
 10
40.960341
 20
34.321003
 30
0.0
 10
40.698120
 20
33.645271
 30
0.0
 10
40.452730
 20
33.009895
 30
0.0
 10
40.226524
 20
32.420848
 30
0.0
 10
40.010000
 20
31.856508
 30
0.0
 10
39.793005
 20
31.293630
 30
0.0
 10
39.576941
 20
30.735738
 30
0.0
 10
39.363210
 20
30.186360
 30
0.0
 10
39.153213
 20
29.649020
 30
0.0
 10
38.948354
 20
29.127251
 30
0.0
 10
38.750033
 20
28.624575
 30
0.0
 10
38.559655
 20
28.144520
 30
0.0
 10
38.378619
 20
27.690614
 30
0.0
 10
38.208330
 20
27.266381
 30
0.0
 10
38.050189
 20
26.875353
 30
0.0
 10
37.905597
 20
26.521052
 30
0.0
 10
37.775959
 20
26.207008
 30
0.0
 10
37.662675
 20
25.936747
 30
0.0
 10
37.567144
 20
25.713795
 30
0.0
 10
37.490775
 20
25.541681
 30
0.0
 10
37.077694
 20
24.608671
 30
0.0
 10
36.615351
 20
23.517280
 30
0.0
 10
36.112775
 20
22.291984
 30
0.0
 10
35.578994
 20
20.957246
 30
0.0
 10
35.023038
 20
19.537537
 30
0.0
 10
34.453935
 20
18.057328
 30
0.0
 10
33.880713
 20
16.541086
 30
0.0
 10
33.312401
 20
15.013281
 30
0.0
 10
32.758028
 20
13.498383
 30
0.0
 10
32.226620
 20
12.020859
 30
0.0
 10
31.727211
 20
10.605180
 30
0.0
 10
31.268828
 20
9.275815
 30
0.0
 10
30.860497
 20
8.057234
 30
0.0
 10
30.511249
 20
6.973903
 30
0.0
 10
30.230111
 20
6.050293
 30
0.0
 10
30.026115
 20
5.310875
 30
0.0
 10
29.909822
 20
4.829619
 30
0.0
 10
29.812665
 20
4.375907
 30
0.0
 10
29.734692
 20
3.949163
 30
0.0
 10
29.675968
 20
3.548817
 30
0.0
 10
29.636542
 20
3.174294
 30
0.0
 10
29.616487
 20
2.825025
 30
0.0
 10
29.615958
 20
2.500437
 30
0.0
 10
29.634770
 20
2.199960
 30
0.0
 10
29.673108
 20
1.923018
 30
0.0
 10
29.731028
 20
1.669039
 30
0.0
 10
29.808585
 20
1.437455
 30
0.0
 10
29.905835
 20
1.227693
 30
0.0
 10
30.022837
 20
1.039177
 30
0.0
 10
30.159639
 20
0.871336
 30
0.0
 10
30.316307
 20
0.723604
 30
0.0
 10
30.492893
 20
0.595400
 30
0.0
 10
30.533879
 20
0.578096
 30
0.0
 10
30.574863
 20
0.560792
 30
0.0
 10
30.615850
 20
0.543489
 30
0.0
 10
30.656836
 20
0.526185
 30
0.0
 10
30.697820
 20
0.508881
 30
0.0
 10
30.738807
 20
0.491577
 30
0.0
 10
30.779794
 20
0.474274
 30
0.0
 10
30.820780
 20
0.456970
 30
0.0
 10
30.861764
 20
0.439666
 30
0.0
 10
30.902751
 20
0.422362
 30
0.0
 10
30.943737
 20
0.405059
 30
0.0
 10
30.984721
 20
0.387755
 30
0.0
 10
31.025708
 20
0.370451
 30
0.0
 10
31.066695
 20
0.353147
 30
0.0
 10
31.107679
 20
0.335844
 30
0.0
 10
31.148665
 20
0.318540
 30
0.0
 10
31.309299
 20
0.294489
 30
0.0
 10
31.700888
 20
0.276815
 30
0.0
 10
32.317573
 20
0.264856
 30
0.0
 10
33.153487
 20
0.257924
 30
0.0
 10
34.202772
 20
0.255278
 30
0.0
 10
35.459556
 20
0.256336
 30
0.0
 10
36.917981
 20
0.260517
 30
0.0
 10
38.572183
 20
0.267052
 30
0.0
 10
40.416299
 20
0.275280
 30
0.0
 10
42.444463
 20
0.284514
 30
0.0
 10
44.650813
 20
0.294092
 30
0.0
 10
47.029483
 20
0.303326
 30
0.0
 10
49.574613
 20
0.311555
 30
0.0
 10
52.280338
 20
0.318116
 30
0.0
 10
55.140796
 20
0.322323
 30
0.0
 10
58.150119
 20
0.323646
 30
0.0
 10
60.017865
 20
0.323382
 30
0.0
 10
61.885615
 20
0.323117
 30
0.0
 10
63.753361
 20
0.322853
 30
0.0
 10
65.621111
 20
0.322588
 30
0.0
 10
67.488857
 20
0.322323
 30
0.0
 10
69.356604
 20
0.322059
 30
0.0
 10
71.224353
 20
0.321794
 30
0.0
 10
73.092100
 20
0.321530
 30
0.0
 10
74.959847
 20
0.321265
 30
0.0
 10
76.827596
 20
0.321000
 30
0.0
 10
78.695342
 20
0.320736
 30
0.0
 10
80.563089
 20
0.320471
 30
0.0
 10
82.430838
 20
0.320207
 30
0.0
 10
84.298585
 20
0.319942
 30
0.0
 10
86.166334
 20
0.319678
 30
0.0
 10
88.034081
 20
0.319413
 30
0.0
 10
88.081396
 20
0.369022
 30
0.0
 10
88.128714
 20
0.418632
 30
0.0
 10
88.176030
 20
0.468241
 30
0.0
 10
88.223345
 20
0.517850
 30
0.0
 10
88.270663
 20
0.567460
 30
0.0
 10
88.317979
 20
0.617069
 30
0.0
 10
88.365294
 20
0.666679
 30
0.0
 10
88.412612
 20
0.716288
 30
0.0
 10
88.459928
 20
0.765897
 30
0.0
 10
88.507243
 20
0.815507
 30
0.0
 10
88.554559
 20
0.865116
 30
0.0
 10
88.601877
 20
0.914725
 30
0.0
 10
88.649192
 20
0.964335
 30
0.0
 10
88.696508
 20
1.013944
 30
0.0
 10
88.743826
 20
1.063554
 30
0.0
 10
88.791141
 20
1.113163
 30
0.0
 10
88.971272
 20
1.389602
 30
0.0
 10
89.182978
 20
1.861190
 30
0.0
 10
89.422164
 20
2.503990
 30
0.0
 10
89.684740
 20
3.294060
 30
0.0
 10
89.966613
 20
4.207462
 30
0.0
 10
90.263693
 20
5.220253
 30
0.0
 10
90.571888
 20
6.308497
 30
0.0
 10
90.887107
 20
7.448254
 30
0.0
 10
91.205258
 20
8.615579
 30
0.0
 10
91.522247
 20
9.786540
 30
0.0
 10
91.833987
 20
10.937192
 30
0.0
 10
92.136385
 20
12.043595
 30
0.0
 10
92.425349
 20
13.081812
 30
0.0
 10
92.696785
 20
14.027904
 30
0.0
 10
92.946605
 20
14.857926
 30
0.0
 10
93.170718
 20
15.547943
 30
0.0
 10
93.344094
 20
16.054715
 30
0.0
 10
93.570929
 20
16.714144
 30
0.0
 10
93.848220
 20
17.508992
 30
0.0
 10
94.172967
 20
18.422024
 30
0.0
 10
94.542167
 20
19.436003
 30
0.0
 10
94.952816
 20
20.533693
 30
0.0
 10
95.401917
 20
21.697857
 30
0.0
 10
95.886467
 20
22.911257
 30
0.0
 10
96.403463
 20
24.156659
 30
0.0
 10
96.949902
 20
25.416824
 30
0.0
 10
97.522785
 20
26.674519
 30
0.0
 10
98.119108
 20
27.912504
 30
0.0
 10
98.735873
 20
29.113546
 30
0.0
 10
99.370077
 20
30.260403
 30
0.0
 10
100.018714
 20
31.335845
 30
0.0
 10
100.678788
 20
32.322629
 30
0.0
 10
100.962482
 20
32.733961
 30
0.0
 10
101.249023
 20
33.166661
 30
0.0
 10
101.539840
 20
33.613981
 30
0.0
 10
101.836361
 20
34.069184
 30
0.0
 10
102.140016
 20
34.525524
 30
0.0
 10
102.452232
 20
34.976257
 30
0.0
 10
102.774436
 20
35.414643
 30
0.0
 10
103.108060
 20
35.833936
 30
0.0
 10
103.454532
 20
36.227395
 30
0.0
 10
103.815281
 20
36.588273
 30
0.0
 10
104.191732
 20
36.909832
 30
0.0
 10
104.585319
 20
37.185330
 30
0.0
 10
104.997468
 20
37.408016
 30
0.0
 10
105.429609
 20
37.571156
 30
0.0
 10
105.883169
 20
37.667998
 30
0.0
 10
106.359577
 20
37.691811
 30
0.0
 10
106.775378
 20
37.645382
 30
0.0
 10
107.167223
 20
37.536220
 30
0.0
 10
107.536732
 20
37.370160
 30
0.0
 10
107.885527
 20
37.153027
 30
0.0
 10
108.215227
 20
36.890655
 30
0.0
 10
108.527454
 20
36.588877
 30
0.0
 10
108.823825
 20
36.253520
 30
0.0
 10
109.105963
 20
35.890416
 30
0.0
 10
109.375486
 20
35.505400
 30
0.0
 10
109.634018
 20
35.104297
 30
0.0
 10
109.883177
 20
34.692939
 30
0.0
 10
110.124582
 20
34.277159
 30
0.0
 10
110.359855
 20
33.862787
 30
0.0
 10
110.590614
 20
33.455657
 30
0.0
 10
110.818484
 20
33.061595
 30
0.0
 10
111.045081
 20
32.686434
 30
0.0
 10
111.626810
 20
31.703303
 30
0.0
 10
112.164366
 20
30.699403
 30
0.0
 10
112.662164
 20
29.676669
 30
0.0
 10
113.124621
 20
28.637039
 30
0.0
 10
113.556149
 20
27.582447
 30
0.0
 10
113.961165
 20
26.514827
 30
0.0
 10
114.344081
 20
25.436118
 30
0.0
 10
114.709311
 20
24.348252
 30
0.0
 10
115.061273
 20
23.253163
 30
0.0
 10
115.404380
 20
22.152792
 30
0.0
 10
115.743046
 20
21.049070
 30
0.0
 10
116.081684
 20
19.943932
 30
0.0
 10
116.424714
 20
18.839315
 30
0.0
 10
116.776543
 20
17.737156
 30
0.0
 10
117.141592
 20
16.639386
 30
0.0
 10
117.524272
 20
15.547946
 30
0.0
 10
117.915741
 20
14.429999
 30
0.0
 10
118.303178
 20
13.261771
 30
0.0
 10
118.685017
 20
12.058785
 30
0.0
 10
119.059704
 20
10.836563
 30
0.0
 10
119.425673
 20
9.610627
 30
0.0
 10
119.781369
 20
8.396499
 30
0.0
 10
120.125226
 20
7.209697
 30
0.0
 10
120.455688
 20
6.065750
 30
0.0
 10
120.771196
 20
4.980173
 30
0.0
 10
121.070186
 20
3.968491
 30
0.0
 10
121.351099
 20
3.046227
 30
0.0
 10
121.612375
 20
2.228900
 30
0.0
 10
121.852455
 20
1.532033
 30
0.0
 10
122.069779
 20
0.971150
 30
0.0
 10
122.262784
 20
0.561769
 30
0.0
 10
122.429914
 20
0.319416
 30
0.0
 10
122.560160
 20
0.201377
 30
0.0
 10
122.712555
 20
0.113771
 30
0.0
 10
122.932384
 20
0.053456
 30
0.0
 10
123.264936
 20
0.017293
 30
0.0
 10
123.755492
 20
0.002159
 30
0.0
 10
124.449343
 20
0.004884
 30
0.0
 10
125.391773
 20
0.022347
 30
0.0
 10
126.628071
 20
0.051403
 30
0.0
 10
128.203516
 20
0.088916
 30
0.0
 10
130.163404
 20
0.131747
 30
0.0
 10
132.553015
 20
0.176755
 30
0.0
 10
135.417635
 20
0.220803
 30
0.0
 10
138.802555
 20
0.260750
 30
0.0
 10
142.753057
 20
0.293460
 30
0.0
 10
147.314426
 20
0.315791
 30
0.0
 10
152.531953
 20
0.324601
 30
0.0
 10
155.525219
 20
0.323543
 30
0.0
 10
158.337692
 20
0.319336
 30
0.0
 10
160.968058
 20
0.312775
 30
0.0
 10
163.415001
 20
0.304546
 30
0.0
 10
165.677205
 20
0.295312
 30
0.0
 10
167.753356
 20
0.285734
 30
0.0
 10
169.642134
 20
0.276500
 30
0.0
 10
171.342230
 20
0.268272
 30
0.0
 10
172.852321
 20
0.261736
 30
0.0
 10
174.171097
 20
0.257556
 30
0.0
 10
175.297240
 20
0.256498
 30
0.0
 10
176.229433
 20
0.259143
 30
0.0
 10
176.966364
 20
0.266049
 30
0.0
 10
177.506715
 20
0.278008
 30
0.0
 10
177.849170
 20
0.295682
 30
0.0
 10
177.992413
 20
0.319733
 30
0.0
 10
178.181516
 20
0.451027
 30
0.0
 10
178.374889
 20
0.608155
 30
0.0
 10
178.569181
 20
0.790496
 30
0.0
 10
178.761035
 20
0.997432
 30
0.0
 10
178.947098
 20
1.228347
 30
0.0
 10
179.124020
 20
1.482619
 30
0.0
 10
179.288448
 20
1.759635
 30
0.0
 10
179.437027
 20
2.058776
 30
0.0
 10
179.566406
 20
2.379422
 30
0.0
 10
179.673229
 20
2.720956
 30
0.0
 10
179.754146
 20
3.082764
 30
0.0
 10
179.805804
 20
3.464221
 30
0.0
 10
179.824854
 20
3.864713
 30
0.0
 10
179.807947
 20
4.283623
 30
0.0
 10
179.751707
 20
4.720331
 30
0.0
 10
179.652795
 20
5.174218
 30
0.0
 10
179.448523
 20
5.894141
 30
0.0
 10
179.162625
 20
6.816045
 30
0.0
 10
178.805369
 20
7.911817
 30
0.0
 10
178.387020
 20
9.153353
 30
0.0
 10
177.917851
 20
10.512547
 30
0.0
 10
177.408128
 20
11.961291
 30
0.0
 10
176.868119
 20
13.471477
 30
0.0
 10
176.308097
 20
15.015003
 30
0.0
 10
175.738324
 20
16.563760
 30
0.0
 10
175.169073
 20
18.089642
 30
0.0
 10
174.610612
 20
19.564540
 30
0.0
 10
174.073209
 20
20.960350
 30
0.0
 10
173.567132
 20
22.248963
 30
0.0
 10
173.102651
 20
23.402276
 30
0.0
 10
172.690033
 20
24.392178
 30
0.0
 10
172.339548
 20
25.190566
 30
0.0
 10
172.246676
 20
25.398613
 30
0.0
 10
172.134885
 20
25.656481
 30
0.0
 10
172.005670
 20
25.960466
 30
0.0
 10
171.860528
 20
26.306862
 30
0.0
 10
171.700955
 20
26.691955
 30
0.0
 10
171.528449
 20
27.112044
 30
0.0
 10
171.344508
 20
27.563423
 30
0.0
 10
171.150627
 20
28.042383
 30
0.0
 10
170.948302
 20
28.545215
 30
0.0
 10
170.739033
 20
29.068217
 30
0.0
 10
170.524316
 20
29.607679
 30
0.0
 10
170.305643
 20
30.159896
 30
0.0
 10
170.084517
 20
30.721159
 30
0.0
 10
169.862434
 20
31.287765
 30
0.0
 10
169.640888
 20
31.856002
 30
0.0
 10
169.421379
 20
32.422168
 30
0.0
 10
169.193062
 20
33.011215
 30
0.0
 10
168.945671
 20
33.646591
 30
0.0
 10
168.681567
 20
34.322324
 30
0.0
 10
168.403122
 20
35.032449
 30
0.0
 10
168.112699
 20
35.770994
 30
0.0
 10
167.812670
 20
36.531997
 30
0.0
 10
167.505399
 20
37.309480
 30
0.0
 10
167.193251
 20
38.097481
 30
0.0
 10
166.878595
 20
38.890029
 30
0.0
 10
166.563800
 20
39.681157
 30
0.0
 10
166.251229
 20
40.464896
 30
0.0
 10
165.943251
 20
41.235275
 30
0.0
 10
165.642232
 20
41.986326
 30
0.0
 10
165.350539
 20
42.712084
 30
0.0
 10
165.070544
 20
43.406575
 30
0.0
 10
164.804606
 20
44.063835
 30
0.0
 10
164.545735
 20
44.702795
 30
0.0
 10
164.286475
 20
45.343600
 30
0.0
 10
164.028488
 20
45.982082
 30
0.0
 10
163.773448
 20
46.614087
 30
0.0
 10
163.523023
 20
47.235448
 30
0.0
 10
163.278878
 20
47.842008
 30
0.0
 10
163.042685
 20
48.429605
 30
0.0
 10
162.816109
 20
48.994075
 30
0.0
 10
162.600823
 20
49.531264
 30
0.0
 10
162.398491
 20
50.037004
 30
0.0
 10
162.210785
 20
50.507137
 30
0.0
 10
162.039372
 20
50.937503
 30
0.0
 10
161.885921
 20
51.323940
 30
0.0
 10
161.752100
 20
51.662287
 30
0.0
 10
161.639578
 20
51.948381
 30
0.0
 10
161.550025
 20
52.178066
 30
0.0
 10
161.144419
 20
53.163792
 30
0.0
 10
160.638887
 20
54.294317
 30
0.0
 10
160.046485
 20
55.550135
 30
0.0
 10
159.380272
 20
56.911747
 30
0.0
 10
158.653308
 20
58.359642
 30
0.0
 10
157.878648
 20
59.874321
 30
0.0
 10
157.069354
 20
61.436273
 30
0.0
 10
156.238483
 20
63.026001
 30
0.0
 10
155.399092
 20
64.623994
 30
0.0
 10
154.564239
 20
66.210753
 30
0.0
 10
153.746984
 20
67.766768
 30
0.0
 10
152.960385
 20
69.272538
 30
0.0
 10
152.217501
 20
70.708556
 30
0.0
 10
151.531389
 20
72.055320
 30
0.0
 10
150.915106
 20
73.293326
 30
0.0
 10
150.381714
 20
74.403065
 30
0.0
 10
150.082602
 20
75.054903
 30
0.0
 10
149.820231
 20
75.658770
 30
0.0
 10
149.594383
 20
76.217366
 30
0.0
 10
149.404843
 20
76.733394
 30
0.0
 10
149.251395
 20
77.209551
 30
0.0
 10
149.133820
 20
77.648540
 30
0.0
 10
149.051905
 20
78.053058
 30
0.0
 10
149.005431
 20
78.425811
 30
0.0
 10
148.994186
 20
78.769495
 30
0.0
 10
149.017945
 20
79.086812
 30
0.0
 10
149.076495
 20
79.380460
 30
0.0
 10
149.169623
 20
79.653145
 30
0.0
 10
149.297110
 20
79.907560
 30
0.0
 10
149.458739
 20
80.146413
 30
0.0
 10
149.654295
 20
80.372399
 30
0.0
 10
149.883559
 20
80.588219
 30
0.0
 10
150.278055
 20
80.825093
 30
0.0
 10
150.901689
 20
81.064572
 30
0.0
 10
151.735444
 20
81.305928
 30
0.0
 10
152.760299
 20
81.548437
 30
0.0
 10
153.957237
 20
81.791370
 30
0.0
 10
155.307234
 20
82.034000
 30
0.0
 10
156.791274
 20
82.275597
 30
0.0
 10
158.390339
 20
82.515439
 30
0.0
 10
160.085405
 20
82.752794
 30
0.0
 10
161.857455
 20
82.986934
 30
0.0
 10
163.687469
 20
83.217138
 30
0.0
 10
165.556428
 20
83.442674
 30
0.0
 10
167.445312
 20
83.662815
 30
0.0
 10
169.335101
 20
83.876834
 30
0.0
 10
171.206777
 20
84.084005
 30
0.0
 10
173.041318
 20
84.283599
 30
0.0
 10
173.350627
 20
84.314460
 30
0.0
 10
173.691238
 20
84.344043
 30
0.0
 10
174.059059
 20
84.372602
 30
0.0
 10
174.450005
 20
84.400397
 30
0.0
 10
174.859984
 20
84.427683
 30
0.0
 10
175.284908
 20
84.454716
 30
0.0
 10
175.720687
 20
84.481756
 30
0.0
 10
176.163232
 20
84.509061
 30
0.0
 10
176.608452
 20
84.536885
 30
0.0
 10
177.052261
 20
84.565483
 30
0.0
 10
177.490565
 20
84.595119
 30
0.0
 10
177.919279
 20
84.626047
 30
0.0
 10
178.334313
 20
84.658522
 30
0.0
 10
178.731574
 20
84.692801
 30
0.0
 10
179.106978
 20
84.729144
 30
0.0
 10
179.456432
 20
84.767808
 30
0.0
 10
179.131971
 20
84.199676
 30
0.0
 10
178.799286
 20
83.631930
 30
0.0
 10
178.459048
 20
83.066008
 30
0.0
 10
178.111923
 20
82.503347
 30
0.0
 10
177.758572
 20
81.945389
 30
0.0
 10
177.399667
 20
81.393571
 30
0.0
 10
177.035873
 20
80.849329
 30
0.0
 10
176.667853
 20
80.314106
 30
0.0
 10
176.296278
 20
79.789336
 30
0.0
 10
175.921813
 20
79.276460
 30
0.0
 10
175.545120
 20
78.776919
 30
0.0
 10
175.166872
 20
78.292149
 30
0.0
 10
174.787729
 20
77.823588
 30
0.0
 10
174.408362
 20
77.372675
 30
0.0
 10
174.029436
 20
76.940851
 30
0.0
 10
173.651617
 20
76.529551
 30
0.0
 10
173.185664
 20
76.063831
 30
0.0
 10
172.695613
 20
75.627372
 30
0.0
 10
172.183923
 20
75.217201
 30
0.0
 10
171.653049
 20
74.830354
 30
0.0
 10
171.105446
 20
74.463864
 30
0.0
 10
170.543577
 20
74.114757
 30
0.0
 10
169.969895
 20
73.780067
 30
0.0
 10
169.386856
 20
73.456825
 30
0.0
 10
168.796917
 20
73.142061
 30
0.0
 10
168.202539
 20
72.832811
 30
0.0
 10
167.606176
 20
72.526101
 30
0.0
 10
167.010284
 20
72.218967
 30
0.0
 10
166.417324
 20
71.908436
 30
0.0
 10
165.829750
 20
71.591545
 30
0.0
 10
165.250019
 20
71.265319
 30
0.0
 10
164.680588
 20
70.926792
 30
0.0
 10
164.337333
 20
70.716859
 30
0.0
 10
163.960657
 20
70.487595
 30
0.0
 10
163.558226
 20
70.243540
 30
0.0
 10
163.137707
 20
69.989228
 30
0.0
 10
162.706773
 20
69.729193
 30
0.0
 10
162.273083
 20
69.467972
 30
0.0
 10
161.844308
 20
69.210104
 30
0.0
 10
161.428118
 20
68.960123
 30
0.0
 10
161.032174
 20
68.722562
 30
0.0
 10
160.664150
 20
68.501960
 30
0.0
 10
160.331706
 20
68.302853
 30
0.0
 10
160.042516
 20
68.129776
 30
0.0
 10
159.804243
 20
67.987264
 30
0.0
 10
159.624554
 20
67.879853
 30
0.0
 10
159.511119
 20
67.812080
 30
0.0
 10
159.471604
 20
67.788479
 30
0.0
 10
159.919575
 20
67.784696
 30
0.0
 10
160.367544
 20
67.780912
 30
0.0
 10
160.815515
 20
67.777129
 30
0.0
 10
161.263484
 20
67.773345
 30
0.0
 10
161.711455
 20
67.769562
 30
0.0
 10
162.159424
 20
67.765778
 30
0.0
 10
162.607395
 20
67.761995
 30
0.0
 10
163.055364
 20
67.758211
 30
0.0
 10
163.503335
 20
67.754428
 30
0.0
 10
163.951306
 20
67.750644
 30
0.0
 10
164.399275
 20
67.746860
 30
0.0
 10
164.847246
 20
67.743077
 30
0.0
 10
165.295215
 20
67.739293
 30
0.0
 10
165.743186
 20
67.735510
 30
0.0
 10
166.191155
 20
67.731726
 30
0.0
 10
166.639126
 20
67.727943
 30
0.0
 10
168.686210
 20
67.927066
 30
0.0
 10
170.866250
 20
68.174094
 30
0.0
 10
173.153708
 20
68.472263
 30
0.0
 10
175.523038
 20
68.824810
 30
0.0
 10
177.948701
 20
69.234970
 30
0.0
 10
180.405159
 20
69.705976
 30
0.0
 10
182.866866
 20
70.241069
 30
0.0
 10
185.308285
 20
70.843480
 30
0.0
 10
187.703873
 20
71.516448
 30
0.0
 10
190.028086
 20
72.263205
 30
0.0
 10
192.255389
 20
73.086991
 30
0.0
 10
194.360236
 20
73.991040
 30
0.0
 10
196.317087
 20
74.978587
 30
0.0
 10
198.100402
 20
76.052867
 30
0.0
 10
199.684640
 20
77.217118
 30
0.0
 10
201.044259
 20
78.474574
 30
0.0
 10
202.325920
 20
79.861197
 30
0.0
 10
203.496521
 20
81.207101
 30
0.0
 10
204.560066
 20
82.521924
 30
0.0
 10
205.520554
 20
83.815302
 30
0.0
 10
206.381987
 20
85.096883
 30
0.0
 10
207.148361
 20
86.376300
 30
0.0
 10
207.823675
 20
87.663199
 30
0.0
 10
208.411931
 20
88.967213
 30
0.0
 10
208.917129
 20
90.297988
 30
0.0
 10
209.343267
 20
91.665162
 30
0.0
 10
209.694348
 20
93.078373
 30
0.0
 10
209.974367
 20
94.547263
 30
0.0
 10
210.187325
 20
96.081473
 30
0.0
 10
210.337225
 20
97.690640
 30
0.0
 10
210.428062
 20
99.384407
 30
0.0
 10
210.463839
 20
101.172413
 30
0.0
 10
210.213773
 20
104.464835
 30
0.0
 10
209.454826
 20
107.620137
 30
0.0
 10
208.226395
 20
110.631389
 30
0.0
 10
206.567876
 20
113.491649
 30
0.0
 10
204.518667
 20
116.193984
 30
0.0
 10
202.118163
 20
118.731460
 30
0.0
 10
199.405761
 20
121.097139
 30
0.0
 10
196.420859
 20
123.284087
 30
0.0
 10
193.202853
 20
125.285369
 30
0.0
 10
189.791141
 20
127.094047
 30
0.0
 10
186.225119
 20
128.703187
 30
0.0
 10
182.544180
 20
130.105852
 30
0.0
 10
178.787727
 20
131.295112
 30
0.0
 10
174.995152
 20
132.264024
 30
0.0
 10
171.205856
 20
133.005656
 30
0.0
 10
167.459232
 20
133.513074
 30
0.0
 10
165.896499
 20
133.664813
 30
0.0
 10
164.513324
 20
133.774538
 30
0.0
 10
163.309628
 20
133.842189
 30
0.0
 10
162.285334
 20
133.867695
 30
0.0
 10
161.440358
 20
133.851026
 30
0.0
 10
160.774624
 20
133.792098
 30
0.0
 10
160.288052
 20
133.690855
 30
0.0
 10
159.980564
 20
133.547242
 30
0.0
 10
159.852080
 20
133.361193
 30
0.0
 10
159.902520
 20
133.132651
 30
0.0
 10
160.131808
 20
132.861556
 30
0.0
 10
160.539859
 20
132.547850
 30
0.0
 10
161.126599
 20
132.191467
 30
0.0
 10
161.891949
 20
131.792354
 30
0.0
 10
162.835823
 20
131.350447
 30
0.0
 10
163.958151
 20
130.865685
 30
0.0
 10
165.004560
 20
130.393912
 30
0.0
 10
166.053707
 20
129.853765
 30
0.0
 10
167.102182
 20
129.249504
 30
0.0
 10
168.146574
 20
128.585387
 30
0.0
 10
169.183468
 20
127.865672
 30
0.0
 10
170.209454
 20
127.094613
 30
0.0
 10
171.221114
 20
126.276474
 30
0.0
 10
172.215040
 20
125.415509
 30
0.0
 10
173.187818
 20
124.515976
 30
0.0
 10
174.136037
 20
123.582132
 30
0.0
 10
175.056281
 20
122.618236
 30
0.0
 10
175.945141
 20
121.628544
 30
0.0
 10
176.799200
 20
120.617317
 30
0.0
 10
177.615051
 20
119.588810
 30
0.0
 10
178.389277
 20
118.547283
 30
0.0
 10
179.118466
 20
117.496990
 30
0.0
 10
177.575586
 20
118.332537
 30
0.0
 10
175.984435
 20
119.081942
 30
0.0
 10
174.350180
 20
119.754058
 30
0.0
 10
172.677992
 20
120.357732
 30
0.0
 10
170.973038
 20
120.901810
 30
0.0
 10
169.240486
 20
121.395144
 30
0.0
 10
167.485505
 20
121.846579
 30
0.0
 10
165.713262
 20
122.264965
 30
0.0
 10
163.928925
 20
122.659151
 30
0.0
 10
162.137664
 20
123.037984
 30
0.0
 10
160.344649
 20
123.410314
 30
0.0
 10
158.555042
 20
123.784988
 30
0.0
 10
156.774018
 20
124.170856
 30
0.0
 10
155.006742
 20
124.576764
 30
0.0
 10
153.258380
 20
125.011564
 30
0.0
 10
151.534104
 20
125.484100
 30
0.0
 10
151.209759
 20
125.575307
 30
0.0
 10
150.884274
 20
125.662225
 30
0.0
 10
150.557807
 20
125.745463
 30
0.0
 10
150.230523
 20
125.825634
 30
0.0
 10
149.902585
 20
125.903353
 30
0.0
 10
149.574158
 20
125.979228
 30
0.0
 10
149.245402
 20
126.053875
 30
0.0
 10
148.916483
 20
126.127902
 30
0.0
 10
148.587564
 20
126.201925
 30
0.0
 10
148.258803
 20
126.276553
 30
0.0
 10
147.930368
 20
126.352404
 30
0.0
 10
147.602419
 20
126.430083
 30
0.0
 10
147.275122
 20
126.510207
 30
0.0
 10
146.948639
 20
126.593386
 30
0.0
 10
146.623133
 20
126.680233
 30
0.0
 10
146.298764
 20
126.771361
 30
0.0
 10
145.968898
 20
126.868257
 30
0.0
 10
145.639912
 20
126.968002
 30
0.0
 10
145.311718
 20
127.070322
 30
0.0
 10
144.984235
 20
127.174935
 30
0.0
 10
144.657374
 20
127.281560
 30
0.0
 10
144.331048
 20
127.389915
 30
0.0
 10
144.005174
 20
127.499725
 30
0.0
 10
143.679665
 20
127.610707
 30
0.0
 10
143.354433
 20
127.722580
 30
0.0
 10
143.029395
 20
127.835068
 30
0.0
 10
142.704463
 20
127.947886
 30
0.0
 10
142.379555
 20
128.060760
 30
0.0
 10
142.054581
 20
128.173404
 30
0.0
 10
141.729455
 20
128.285540
 30
0.0
 10
141.404094
 20
128.396890
 30
0.0
 10
141.078411
 20
128.507173
 30
0.0
 10
140.829158
 20
128.590551
 30
0.0
 10
140.579629
 20
128.673186
 30
0.0
 10
140.329897
 20
128.755268
 30
0.0
 10
140.080032
 20
128.837003
 30
0.0
 10
139.830109
 20
128.918584
 30
0.0
 10
139.580203
 20
129.000211
 30
0.0
 10
139.330378
 20
129.082084
 30
0.0
 10
139.080714
 20
129.164398
 30
0.0
 10
138.831281
 20
129.247353
 30
0.0
 10
138.582149
 20
129.331147
 30
0.0
 10
138.333393
 20
129.415980
 30
0.0
 10
138.085087
 20
129.502049
 30
0.0
 10
137.837297
 20
129.589549
 30
0.0
 10
137.590102
 20
129.678685
 30
0.0
 10
137.343571
 20
129.769651
 30
0.0
 10
137.097776
 20
129.862644
 30
0.0
 10
136.990305
 20
129.903583
 30
0.0
 10
136.880823
 20
129.944914
 30
0.0
 10
136.769843
 20
129.986662
 30
0.0
 10
136.657874
 20
130.028855
 30
0.0
 10
136.545426
 20
130.071512
 30
0.0
 10
136.433013
 20
130.114660
 30
0.0
 10
136.321142
 20
130.158321
 30
0.0
 10
136.210324
 20
130.202520
 30
0.0
 10
136.101069
 20
130.247282
 30
0.0
 10
135.993889
 20
130.292629
 30
0.0
 10
135.889294
 20
130.338585
 30
0.0
 10
135.787792
 20
130.385178
 30
0.0
 10
135.689896
 20
130.432427
 30
0.0
 10
135.596115
 20
130.480359
 30
0.0
 10
135.506961
 20
130.528995
 30
0.0
 10
135.422942
 20
130.578363
 30
0.0
 10
135.342940
 20
130.628748
 30
0.0
 10
135.265436
 20
130.680495
 30
0.0
 10
135.190363
 20
130.733721
 30
0.0
 10
135.117655
 20
130.788546
 30
0.0
 10
135.047245
 20
130.845084
 30
0.0
 10
134.979061
 20
130.903452
 30
0.0
 10
134.913040
 20
130.963766
 30
0.0
 10
134.849111
 20
131.026144
 30
0.0
 10
134.787207
 20
131.090702
 30
0.0
 10
134.727263
 20
131.157557
 30
0.0
 10
134.669208
 20
131.226825
 30
0.0
 10
134.612976
 20
131.298623
 30
0.0
 10
134.558498
 20
131.373066
 30
0.0
 10
134.505709
 20
131.450271
 30
0.0
 10
134.454538
 20
131.530358
 30
0.0
 10
134.404918
 20
131.613442
 30
0.0
 10
134.377965
 20
131.677620
 30
0.0
 10
134.351486
 20
131.774420
 30
0.0
 10
134.325477
 20
131.901531
 30
0.0
 10
134.299892
 20
132.056649
 30
0.0
 10
134.274730
 20
132.237457
 30
0.0
 10
134.249991
 20
132.441654
 30
0.0
 10
134.225650
 20
132.666926
 30
0.0
 10
134.201679
 20
132.910964
 30
0.0
 10
134.178078
 20
133.171460
 30
0.0
 10
134.154847
 20
133.446108
 30
0.0
 10
134.131934
 20
133.732593
 30
0.0
 10
134.109365
 20
134.028609
 30
0.0
 10
134.087087
 20
134.331846
 30
0.0
 10
134.065101
 20
134.639995
 30
0.0
 10
134.043405
 20
134.950751
 30
0.0
 10
134.021947
 20
135.261798
 30
0.0
 10
134.240699
 20
135.261798
 30
0.0
 10
134.459454
 20
135.261798
 30
0.0
 10
134.678206
 20
135.261798
 30
0.0
 10
134.896959
 20
135.261798
 30
0.0
 10
135.115711
 20
135.261798
 30
0.0
 10
135.334463
 20
135.261798
 30
0.0
 10
135.553218
 20
135.261798
 30
0.0
 10
135.771970
 20
135.261798
 30
0.0
 10
135.990722
 20
135.261798
 30
0.0
 10
136.209474
 20
135.261798
 30
0.0
 10
136.428229
 20
135.261798
 30
0.0
 10
136.646981
 20
135.261798
 30
0.0
 10
136.865734
 20
135.261798
 30
0.0
 10
137.084486
 20
135.261798
 30
0.0
 10
137.303241
 20
135.261798
 30
0.0
 10
137.521993
 20
135.261798
 30
0.0
 10
138.522668
 20
135.312778
 30
0.0
 10
139.534152
 20
135.460124
 30
0.0
 10
140.550498
 20
135.699585
 30
0.0
 10
141.565755
 20
136.026907
 30
0.0
 10
142.573979
 20
136.437834
 30
0.0
 10
143.569225
 20
136.928114
 30
0.0
 10
144.545540
 20
137.493495
 30
0.0
 10
145.496984
 20
138.129725
 30
0.0
 10
146.417607
 20
138.832546
 30
0.0
 10
147.301461
 20
139.597707
 30
0.0
 10
148.142601
 20
140.420956
 30
0.0
 10
148.935078
 20
141.298039
 30
0.0
 10
149.672945
 20
142.224702
 30
0.0
 10
150.350260
 20
143.196692
 30
0.0
 10
150.961072
 20
144.209755
 30
0.0
 10
151.499433
 20
145.259637
 30
0.0
 10
151.761050
 20
145.800964
 30
0.0
 10
152.053611
 20
146.375943
 30
0.0
 10
152.373971
 20
146.979519
 30
0.0
 10
152.718979
 20
147.606632
 30
0.0
 10
153.085493
 20
148.252220
 30
0.0
 10
153.470364
 20
148.911226
 30
0.0
 10
153.870446
 20
149.578590
 30
0.0
 10
154.282593
 20
150.249253
 30
0.0
 10
154.703659
 20
150.918156
 30
0.0
 10
155.130495
 20
151.580239
 30
0.0
 10
155.559959
 20
152.230445
 30
0.0
 10
155.988899
 20
152.863712
 30
0.0
 10
156.414174
 20
153.474983
 30
0.0
 10
156.832634
 20
154.059197
 30
0.0
 10
157.241134
 20
154.611295
 30
0.0
 10
157.636528
 20
155.126219
 30
0.0
 10
158.447703
 20
156.211368
 30
0.0
 10
159.229203
 20
157.356749
 30
0.0
 10
159.977847
 20
158.554062
 30
0.0
 10
160.690460
 20
159.795009
 30
0.0
 10
161.363861
 20
161.071291
 30
0.0
 10
161.994874
 20
162.374611
 30
0.0
 10
162.580320
 20
163.696670
 30
0.0
 10
163.117017
 20
165.029168
 30
0.0
 10
163.601792
 20
166.363809
 30
0.0
 10
164.031459
 20
167.692292
 30
0.0
 10
164.402847
 20
169.006321
 30
0.0
 10
164.712775
 20
170.297595
 30
0.0
 10
164.958062
 20
171.557818
 30
0.0
 10
165.135531
 20
172.778690
 30
0.0
 10
165.242005
 20
173.951912
 30
0.0
 10
165.274302
 20
175.069187
 30
0.0
 10
165.272979
 20
175.325115
 30
0.0
 10
165.271657
 20
175.581042
 30
0.0
 10
165.270334
 20
175.836970
 30
0.0
 10
165.269011
 20
176.092898
 30
0.0
 10
165.267688
 20
176.348825
 30
0.0
 10
165.266365
 20
176.604752
 30
0.0
 10
165.265042
 20
176.860680
 30
0.0
 10
165.263719
 20
177.116607
 30
0.0
 10
165.262396
 20
177.372535
 30
0.0
 10
165.261073
 20
177.628463
 30
0.0
 10
165.259750
 20
177.884390
 30
0.0
 10
165.258427
 20
178.140318
 30
0.0
 10
165.257104
 20
178.396245
 30
0.0
 10
165.255782
 20
178.652173
 30
0.0
 10
165.254459
 20
178.908100
 30
0.0
 10
165.251927
 20
179.162689
 30
0.0
 10
165.084043
 20
178.900592
 30
0.0
 10
164.916160
 20
178.638496
 30
0.0
 10
164.748276
 20
178.376400
 30
0.0
 10
164.580390
 20
178.114303
 30
0.0
 10
164.412507
 20
177.852207
 30
0.0
 10
164.244623
 20
177.590110
 30
0.0
 10
164.076740
 20
177.328014
 30
0.0
 10
163.908857
 20
177.065918
 30
0.0
 10
163.740973
 20
176.803821
 30
0.0
 10
163.573090
 20
176.541725
 30
0.0
 10
163.405206
 20
176.279629
 30
0.0
 10
163.237320
 20
176.017532
 30
0.0
 10
163.069437
 20
175.755436
 30
0.0
 10
162.901554
 20
175.493339
 30
0.0
 10
162.733670
 20
175.231243
 30
0.0
 10
162.565787
 20
174.969147
 30
0.0
 10
162.260836
 20
174.521197
 30
0.0
 10
161.902992
 20
174.045109
 30
0.0
 10
161.496730
 20
173.545082
 30
0.0
 10
161.046520
 20
173.025317
 30
0.0
 10
160.556835
 20
172.490014
 30
0.0
 10
160.032145
 20
171.943373
 30
0.0
 10
159.476924
 20
171.389594
 30
0.0
 10
158.895640
 20
170.832876
 30
0.0
 10
158.292771
 20
170.277422
 30
0.0
 10
157.672784
 20
169.727430
 30
0.0
 10
157.040152
 20
169.187100
 30
0.0
 10
156.399347
 20
168.660634
 30
0.0
 10
155.754840
 20
168.152230
 30
0.0
 10
155.111106
 20
167.666090
 30
0.0
 10
154.472614
 20
167.206412
 30
0.0
 10
153.843837
 20
166.777398
 30
0.0
 10
152.828826
 20
166.112542
 30
0.0
 10
151.898649
 20
165.525514
 30
0.0
 10
151.030816
 20
165.011494
 30
0.0
 10
150.202834
 20
164.565662
 30
0.0
 10
149.392214
 20
164.183196
 30
0.0
 10
148.576462
 20
163.859278
 30
0.0
 10
147.733089
 20
163.589086
 30
0.0
 10
146.839602
 20
163.367800
 30
0.0
 10
145.873510
 20
163.190601
 30
0.0
 10
144.812322
 20
163.052667
 30
0.0
 10
143.633545
 20
162.949179
 30
0.0
 10
142.314690
 20
162.875316
 30
0.0
 10
140.833264
 20
162.826258
 30
0.0
 10
139.166775
 20
162.797184
 30
0.0
 10
137.292731
 20
162.783275
 30
0.0
 10
135.188646
 20
162.779711
 30
0.0
 10
132.848613
 20
162.791511
 30
0.0
 10
130.742831
 20
162.829666
 30
0.0
 10
128.859813
 20
162.898307
 30
0.0
 10
127.188064
 20
163.001565
 30
0.0
 10
125.716094
 20
163.143570
 30
0.0
 10
124.432413
 20
163.328455
 30
0.0
 10
123.325526
 20
163.560349
 30
0.0
 10
122.383940
 20
163.843385
 30
0.0
 10
121.596169
 20
164.181693
 30
0.0
 10
120.950716
 20
164.579404
 30
0.0
 10
120.436093
 20
165.040650
 30
0.0
 10
120.040808
 20
165.569561
 30
0.0
 10
119.753365
 20
166.170269
 30
0.0
 10
119.562280
 20
166.846904
 30
0.0
 10
119.456055
 20
167.603598
 30
0.0
 10
119.423199
 20
168.444481
 30
0.0
 10
119.418516
 20
168.793003
 30
0.0
 10
119.403832
 20
169.101360
 30
0.0
 10
119.378300
 20
169.370079
 30
0.0
 10
119.341001
 20
169.599683
 30
0.0
 10
119.291059
 20
169.790701
 30
0.0
 10
119.227590
 20
169.943659
 30
0.0
 10
119.149705
 20
170.059081
 30
0.0
 10
119.056521
 20
170.137493
 30
0.0
 10
118.947148
 20
170.179423
 30
0.0
 10
118.820701
 20
170.185394
 30
0.0
 10
118.676294
 20
170.155935
 30
0.0
 10
118.513041
 20
170.091571
 30
0.0
 10
118.330052
 20
169.992827
 30
0.0
 10
118.126442
 20
169.860230
 30
0.0
 10
117.901327
 20
169.694306
 30
0.0
 10
117.653817
 20
169.495579
 30
0.0
 10
117.173336
 20
169.202185
 30
0.0
 10
116.593523
 20
169.024565
 30
0.0
 10
115.928842
 20
168.955935
 30
0.0
 10
115.193756
 20
168.989510
 30
0.0
 10
114.402728
 20
169.118505
 30
0.0
 10
113.570217
 20
169.336135
 30
0.0
 10
112.710691
 20
169.635616
 30
0.0
 10
111.838609
 20
170.010163
 30
0.0
 10
110.968431
 20
170.452991
 30
0.0
 10
110.114629
 20
170.957315
 30
0.0
 10
109.291655
 20
171.516350
 30
0.0
 10
108.513979
 20
172.123313
 30
0.0
 10
107.796059
 20
172.771417
 30
0.0
 10
107.152362
 20
173.453878
 30
0.0
 10
106.597345
 20
174.163912
 30
0.0
 10
106.145477
 20
174.894733
 30
0.0
 10
106.053783
 20
175.066105
 30
0.0
 10
105.962091
 20
175.237477
 30
0.0
 10
105.870397
 20
175.408849
 30
0.0
 10
105.778703
 20
175.580221
 30
0.0
 10
105.687009
 20
175.751593
 30
0.0
 10
105.595315
 20
175.922965
 30
0.0
 10
105.503624
 20
176.094337
 30
0.0
 10
105.411930
 20
176.265709
 30
0.0
 10
105.320236
 20
176.437081
 30
0.0
 10
105.228542
 20
176.608453
 30
0.0
 10
105.136851
 20
176.779825
 30
0.0
 10
105.045157
 20
176.951197
 30
0.0
 10
104.953463
 20
177.122568
 30
0.0
 10
104.861771
 20
177.293940
 30
0.0
 10
104.770077
 20
177.465312
 30
0.0
 10
104.678383
 20
177.636684
 30
0.0
 10
104.581392
 20
177.455429
 30
0.0
 10
104.484401
 20
177.274174
 30
0.0
 10
104.387413
 20
177.092919
 30
0.0
 10
104.290422
 20
176.911664
 30
0.0
 10
104.193431
 20
176.730409
 30
0.0
 10
104.096440
 20
176.549154
 30
0.0
 10
103.999452
 20
176.367899
 30
0.0
 10
103.902461
 20
176.186644
 30
0.0
 10
103.805470
 20
176.005388
 30
0.0
 10
103.708479
 20
175.824134
 30
0.0
 10
103.611491
 20
175.642878
 30
0.0
 10
103.514500
 20
175.461623
 30
0.0
 10
103.417509
 20
175.280368
 30
0.0
 10
103.320518
 20
175.099113
 30
0.0
 10
103.223529
 20
174.917858
 30
0.0
 10
103.126538
 20
174.736603
 30
0.0
 10
102.668764
 20
173.979296
 30
0.0
 10
102.127975
 20
173.252239
 30
0.0
 10
101.515869
 20
172.561178
 30
0.0
 10
100.844153
 20
171.911856
 30
0.0
 10
100.124526
 20
171.310017
 30
0.0
 10
99.368691
 20
170.761407
 30
0.0
 10
98.588350
 20
170.271770
 30
0.0
 10
97.795206
 20
169.846850
 30
0.0
 10
97.000958
 20
169.492391
 30
0.0
 10
96.217313
 20
169.214139
 30
0.0
 10
95.455969
 20
169.017837
 30
0.0
 10
94.728627
 20
168.909230
 30
0.0
 10
94.046991
 20
168.894061
 30
0.0
 10
93.422765
 20
168.978078
 30
0.0
 10
92.867648
 20
169.167022
 30
0.0
 10
92.393343
 20
169.466640
 30
0.0
 10
92.148172
 20
169.662538
 30
0.0
 10
91.920212
 20
169.828245
 30
0.0
 10
91.708410
 20
169.963485
 30
0.0
 10
91.511725
 20
170.067987
 30
0.0
 10
91.329101
 20
170.141475
 30
0.0
 10
91.159501
 20
170.183678
 30
0.0
 10
91.001867
 20
170.194319
 30
0.0
 10
90.855158
 20
170.173129
 30
0.0
 10
90.718326
 20
170.119832
 30
0.0
 10
90.590324
 20
170.034156
 30
0.0
 10
90.470100
 20
169.915827
 30
0.0
 10
90.356612
 20
169.764571
 30
0.0
 10
90.248810
 20
169.580116
 30
0.0
 10
90.145646
 20
169.362187
 30
0.0
 10
90.046076
 20
169.110512
 30
0.0
 10
89.949048
 20
168.824816
 30
0.0
 10
89.877523
 20
168.599313
 30
0.0
 10
89.801746
 20
168.360125
 30
0.0
 10
89.722382
 20
168.109343
 30
0.0
 10
89.640083
 20
167.849058
 30
0.0
 10
89.555514
 20
167.581361
 30
0.0
 10
89.469332
 20
167.308343
 30
0.0
 10
89.382197
 20
167.032094
 30
0.0
 10
89.294768
 20
166.754705
 30
0.0
 10
89.207704
 20
166.478268
 30
0.0
 10
89.121664
 20
166.204873
 30
0.0
 10
89.037307
 20
165.936611
 30
0.0
 10
88.955294
 20
165.675573
 30
0.0
 10
88.876281
 20
165.423850
 30
0.0
 10
88.800933
 20
165.183533
 30
0.0
 10
88.729903
 20
164.956712
 30
0.0
 10
88.663855
 20
164.745479
 30
0.0
 10
88.545267
 20
164.465033
 30
0.0
 10
88.368131
 20
164.210876
 30
0.0
 10
88.124883
 20
163.981875
 30
0.0
 10
87.807960
 20
163.776902
 30
0.0
 10
87.409799
 20
163.594824
 30
0.0
 10
86.922834
 20
163.434512
 30
0.0
 10
86.339504
 20
163.294834
 30
0.0
 10
85.652241
 20
163.174660
 30
0.0
 10
84.853485
 20
163.072858
 30
0.0
 10
83.935669
 20
162.988299
 30
0.0
 10
82.891232
 20
162.919851
 30
0.0
 10
81.712608
 20
162.866384
 30
0.0
 10
80.392234
 20
162.826767
 30
0.0
 10
78.922545
 20
162.799869
 30
0.0
 10
77.295980
 20
162.784560
 30
0.0
 10
75.504970
 20
162.779708
 30
0.0
 10
72.844339
 20
162.804486
 30
0.0
 10
70.391628
 20
162.883430
 30
0.0
 10
68.129175
 20
163.023452
 30
0.0
 10
66.039327
 20
163.231464
 30
0.0
 10
64.104424
 20
163.514379
 30
0.0
 10
62.306813
 20
163.879110
 30
0.0
 10
60.628833
 20
164.332568
 30
0.0
 10
59.052830
 20
164.881667
 30
0.0
 10
57.561146
 20
165.533319
 30
0.0
 10
56.136121
 20
166.294436
 30
0.0
 10
54.760103
 20
167.171931
 30
0.0
 10
53.415432
 20
168.172716
 30
0.0
 10
52.084453
 20
169.303704
 30
0.0
 10
50.749506
 20
170.571807
 30
0.0
 10
49.392937
 20
171.983937
 30
0.0
 10
47.997088
 20
173.547009
 30
0.0
 10
47.693037
 20
173.897989
 30
0.0
 10
47.388986
 20
174.248968
 30
0.0
 10
47.084934
 20
174.599948
 30
0.0
 10
46.780883
 20
174.950928
 30
0.0
 10
46.476832
 20
175.301908
 30
0.0
 10
46.172781
 20
175.652888
 30
0.0
 10
45.868730
 20
176.003868
 30
0.0
 10
45.564678
 20
176.354848
 30
0.0
 10
45.260627
 20
176.705827
 30
0.0
 10
44.956576
 20
177.056807
 30
0.0
 10
44.652525
 20
177.407787
 30
0.0
 10
44.348473
 20
177.758767
 30
0.0
 10
44.044422
 20
178.109747
 30
0.0
 10
43.740371
 20
178.460727
 30
0.0
 10
43.436320
 20
178.811707
 30
0.0
  0
ENDSEC
  0
SECTION
  2
OBJECTS
  0
DICTIONARY
  5
C
330
0
100
AcDbDictionary
  3
ACAD_GROUP
350
D
  3
ACAD_MLINESTYLE
350
17
  0
DICTIONARY
  5
D
330
C
100
AcDbDictionary
  0
DICTIONARY
  5
1A
330
C
100
AcDbDictionary
  0
DICTIONARY
  5
17
330
C
100
AcDbDictionary
  3
STANDARD
350
18
  0
DICTIONARY
  5
19
330
C
100
AcDbDictionary
  0
ENDSEC
  0
EOF
