  0
SECTION
  2
HEADER
  9
$ACADVER
  1
AC1014
  9
$HANDSEED
  5
FFFF
  9
$MEASUREMENT
 70
     1
  0
ENDSEC
  0
SECTION
  2
TABLES
  0
TABLE
  2
VPORT
  5
8
330
0
100
AcDbSymbolTable
 70
     4
  0
VPORT
  5
2E
330
8
100
AcDbSymbolTableRecord
100
AcDbViewportTableRecord
  2
*ACTIVE
 70
     0
 10
0.0
 20
0.0
 11
1.0
 21
1.0
 12
210.0
 22
148.5
 13
0.0
 23
0.0
 14
10.0
 24
10.0
 15
10.0
 25
10.0
 16
0.0
 26
0.0
 36
1.0
 17
0.0
 27
0.0
 37
0.0
 40
341.0
 41
1.24
 42
50.0
 43
0.0
 44
0.0
 50
0.0
 51
0.0
 71
     0
 72
   100
 73
     1
 74
     3
 75
     0
 76
     0
 77
     0
 78
     0
  0
ENDTAB
  0
TABLE
  2
LTYPE
  5
5
330
0
100
AcDbSymbolTable
 70
     1
  0
LTYPE
  5
14
330
5
100
AcDbSymbolTableRecord
100
AcDbLinetypeTableRecord
  2
BYBLOCK
 70
     0
  3

 72
    65
 73
     0
 40
0.0
  0
LTYPE
  5
15
330
5
100
AcDbSymbolTableRecord
100
AcDbLinetypeTableRecord
  2
BYLAYER
 70
     0
  3

 72
    65
 73
     0
 40
0.0
  0
LTYPE
  5
16
330
5
100
AcDbSymbolTableRecord
100
AcDbLinetypeTableRecord
  2
CONTINUOUS
 70
     0
  3
Solid line
 72
    65
 73
     0
 40
0.0
  0
ENDTAB
  0
TABLE
  2
LAYER
  5
2
100
AcDbSymbolTable
 70
1
  0
LAYER
  5
50
100
AcDbSymbolTableRecord
100
AcDbLayerTableRecord
  2
0
 70
0
  6
CONTINUOUS
  0
ENDTAB
  0
TABLE
  2
STYLE
  5
3
330
0
100
AcDbSymbolTable
 70
     1
  0
STYLE
  5
11
330
3
100
AcDbSymbolTableRecord
100
AcDbTextStyleTableRecord
  2
STANDARD
 70
     0
 40
0.0
 41
1.0
 50
0.0
 71
     0
 42
2.5
  3
txt
  4

  0
ENDTAB
  0
TABLE
  2
VIEW
  5
6
330
0
100
AcDbSymbolTable
 70
     0
  0
ENDTAB
  0
TABLE
  2
UCS
  5
7
330
0
100
AcDbSymbolTable
 70
     0
  0
ENDTAB
  0
TABLE
  2
APPID
  5
9
330
0
100
AcDbSymbolTable
 70
     2
  0
APPID
  5
12
330
9
100
AcDbSymbolTableRecord
100
AcDbRegAppTableRecord
  2
ACAD
 70
     0
  0
ENDTAB
  0
TABLE
  2
DIMSTYLE
  5
A
330
0
100
AcDbSymbolTable
 70
     1
  0
DIMSTYLE
105
27
330
A
100
AcDbSymbolTableRecord
100
AcDbDimStyleTableRecord
  2
ISO-25
 70
     0
  3

  4

  5

  6

  7

 40
1.0
 41
2.5
 42
0.625
 43
3.75
 44
1.25
 45
0.0
 46
0.0
 47
0.0
 48
0.0
140
2.5
141
2.5
142
0.0
143
0.03937007874016
144
1.0
145
0.0
146
1.0
147
0.625
 71
     0
 72
     0
 73
     0
 74
     0
 75
     0
 76
     0
 77
     1
 78
     8
170
     0
171
     3
172
     1
173
     0
174
     0
175
     0
176
     0
177
     0
178
     0
270
     2
271
     2
272
     2
273
     2
274
     3
340
11
275
     0
280
     0
281
     0
282
     0
283
     0
284
     8
285
     0
286
     0
287
     3
288
     0
  0
ENDTAB
  0
TABLE
  2
BLOCK_RECORD
  5
1
330
0
100
AcDbSymbolTable
 70
     1
  0
BLOCK_RECORD
  5
1F
330
1
100
AcDbSymbolTableRecord
100
AcDbBlockTableRecord
  2
*MODEL_SPACE
  0
BLOCK_RECORD
  5
1B
330
1
100
AcDbSymbolTableRecord
100
AcDbBlockTableRecord
  2
*PAPER_SPACE
  0
ENDTAB
  0
ENDSEC
  0
SECTION
  2
BLOCKS
  0
BLOCK
  5
20
330
1F
100
AcDbEntity
  8
0
100
AcDbBlockBegin
  2
*MODEL_SPACE
 70
     0
 10
0.0
 20
0.0
 30
0.0
  3
*MODEL_SPACE
  1

  0
ENDBLK
  5
21
330
1F
100
AcDbEntity
  8
0
100
AcDbBlockEnd
  0
BLOCK
  5
1C
330
1B
100
AcDbEntity
 67
     1
  8
0
100
AcDbBlockBegin
  2
*PAPER_SPACE
  1

  0
ENDBLK
  5
1D
330
1B
100
AcDbEntity
 67
     1
  8
0
100
AcDbBlockEnd
  0
ENDSEC
  0
SECTION
  2
ENTITIES
  0
LWPOLYLINE
  5
100
100
AcDbEntity
  8
0
 62
7
100
AcDbPolyline
 90
2400
 70
1
 10
104.838559
 20
182.807944
 30
0.0
 10
104.779205
 20
182.807442
 30
0.0
 10
104.719867
 20
182.805934
 30
0.0
 10
104.660558
 20
182.803446
 30
0.0
 10
104.601292
 20
182.799954
 30
0.0
 10
104.542078
 20
182.795464
 30
0.0
 10
104.482933
 20
182.789974
 30
0.0
 10
104.423870
 20
182.783486
 30
0.0
 10
104.364897
 20
182.775999
 30
0.0
 10
104.306032
 20
182.767511
 30
0.0
 10
104.247287
 20
182.758023
 30
0.0
 10
104.188674
 20
182.747535
 30
0.0
 10
104.130206
 20
182.736044
 30
0.0
 10
104.071897
 20
182.723553
 30
0.0
 10
104.013758
 20
182.710059
 30
0.0
 10
103.955803
 20
182.695563
 30
0.0
 10
103.898045
 20
182.680063
 30
0.0
 10
103.840498
 20
182.663561
 30
0.0
 10
103.783173
 20
182.646054
 30
0.0
 10
103.726084
 20
182.627544
 30
0.0
 10
103.669244
 20
182.608028
 30
0.0
 10
103.612665
 20
182.587507
 30
0.0
 10
103.556362
 20
182.565980
 30
0.0
 10
103.500347
 20
182.543448
 30
0.0
 10
103.444631
 20
182.519908
 30
0.0
 10
103.389227
 20
182.495363
 30
0.0
 10
103.334154
 20
182.469810
 30
0.0
 10
103.279417
 20
182.443249
 30
0.0
 10
103.225032
 20
182.415680
 30
0.0
 10
103.171015
 20
182.387102
 30
0.0
 10
103.117373
 20
182.357515
 30
0.0
 10
103.064126
 20
182.326919
 30
0.0
 10
103.011281
 20
182.295313
 30
0.0
 10
102.938512
 20
182.267976
 30
0.0
 10
102.866231
 20
182.239032
 30
0.0
 10
102.794465
 20
182.208485
 30
0.0
 10
102.723239
 20
182.176334
 30
0.0
 10
102.652585
 20
182.142581
 30
0.0
 10
102.582534
 20
182.107229
 30
0.0
 10
102.513107
 20
182.070277
 30
0.0
 10
102.444339
 20
182.031728
 30
0.0
 10
102.376257
 20
181.991582
 30
0.0
 10
102.308889
 20
181.949842
 30
0.0
 10
102.242261
 20
181.906508
 30
0.0
 10
102.176407
 20
181.861582
 30
0.0
 10
102.111351
 20
181.815066
 30
0.0
 10
102.047123
 20
181.766960
 30
0.0
 10
101.983753
 20
181.717266
 30
0.0
 10
101.921266
 20
181.665985
 30
0.0
 10
101.859692
 20
181.613119
 30
0.0
 10
101.799063
 20
181.558669
 30
0.0
 10
101.739405
 20
181.502636
 30
0.0
 10
101.680744
 20
181.445022
 30
0.0
 10
101.623110
 20
181.385829
 30
0.0
 10
101.566534
 20
181.325056
 30
0.0
 10
101.511043
 20
181.262707
 30
0.0
 10
101.456666
 20
181.198782
 30
0.0
 10
101.403429
 20
181.133282
 30
0.0
 10
101.351364
 20
181.066210
 30
0.0
 10
101.300498
 20
180.997565
 30
0.0
 10
101.250860
 20
180.927351
 30
0.0
 10
101.202475
 20
180.855567
 30
0.0
 10
101.155377
 20
180.782216
 30
0.0
 10
101.109593
 20
180.707298
 30
0.0
 10
101.065149
 20
180.630815
 30
0.0
 10
101.004726
 20
180.476355
 30
0.0
 10
100.943546
 20
180.323645
 30
0.0
 10
100.881612
 20
180.172723
 30
0.0
 10
100.818930
 20
180.023627
 30
0.0
 10
100.755499
 20
179.876394
 30
0.0
 10
100.691321
 20
179.731062
 30
0.0
 10
100.626401
 20
179.587668
 30
0.0
 10
100.560739
 20
179.446249
 30
0.0
 10
100.494339
 20
179.306843
 30
0.0
 10
100.427204
 20
179.169487
 30
0.0
 10
100.359336
 20
179.034219
 30
0.0
 10
100.290737
 20
178.901076
 30
0.0
 10
100.221408
 20
178.770096
 30
0.0
 10
100.151355
 20
178.641315
 30
0.0
 10
100.080578
 20
178.514773
 30
0.0
 10
100.009083
 20
178.390505
 30
0.0
 10
99.936867
 20
178.268550
 30
0.0
 10
99.863935
 20
178.148944
 30
0.0
 10
99.790291
 20
178.031726
 30
0.0
 10
99.715938
 20
177.916932
 30
0.0
 10
99.640875
 20
177.804601
 30
0.0
 10
99.565107
 20
177.694769
 30
0.0
 10
99.488634
 20
177.587474
 30
0.0
 10
99.411463
 20
177.482754
 30
0.0
 10
99.333591
 20
177.380645
 30
0.0
 10
99.255026
 20
177.281186
 30
0.0
 10
99.175767
 20
177.184414
 30
0.0
 10
99.095818
 20
177.090365
 30
0.0
 10
99.015181
 20
176.999079
 30
0.0
 10
98.933856
 20
176.910592
 30
0.0
 10
98.851851
 20
176.824941
 30
0.0
 10
98.769163
 20
176.742164
 30
0.0
 10
98.666045
 20
176.664634
 30
0.0
 10
98.562227
 20
176.592010
 30
0.0
 10
98.457656
 20
176.524329
 30
0.0
 10
98.352270
 20
176.461627
 30
0.0
 10
98.246008
 20
176.403941
 30
0.0
 10
98.138807
 20
176.351307
 30
0.0
 10
98.030611
 20
176.303760
 30
0.0
 10
97.921354
 20
176.261339
 30
0.0
 10
97.810980
 20
176.224078
 30
0.0
 10
97.699426
 20
176.192014
 30
0.0
 10
97.586637
 20
176.165183
 30
0.0
 10
97.472544
 20
176.143622
 30
0.0
 10
97.357093
 20
176.127369
 30
0.0
 10
97.240221
 20
176.116457
 30
0.0
 10
97.121867
 20
176.110925
 30
0.0
 10
97.001974
 20
176.110806
 30
0.0
 10
96.880477
 20
176.116137
 30
0.0
 10
96.757319
 20
176.126959
 30
0.0
 10
96.632439
 20
176.143302
 30
0.0
 10
96.505775
 20
176.165207
 30
0.0
 10
96.377264
 20
176.192708
 30
0.0
 10
96.246853
 20
176.225842
 30
0.0
 10
96.114474
 20
176.264644
 30
0.0
 10
95.980074
 20
176.309153
 30
0.0
 10
95.843586
 20
176.359403
 30
0.0
 10
95.704952
 20
176.415431
 30
0.0
 10
95.564112
 20
176.477274
 30
0.0
 10
95.421007
 20
176.544968
 30
0.0
 10
95.275573
 20
176.618548
 30
0.0
 10
95.127751
 20
176.698053
 30
0.0
 10
94.977480
 20
176.783516
 30
0.0
 10
94.824702
 20
176.874976
 30
0.0
 10
94.758220
 20
176.995243
 30
0.0
 10
94.681211
 20
177.106648
 30
0.0
 10
94.594276
 20
177.209323
 30
0.0
 10
94.498021
 20
177.303399
 30
0.0
 10
94.393048
 20
177.389008
 30
0.0
 10
94.279957
 20
177.466281
 30
0.0
 10
94.159354
 20
177.535350
 30
0.0
 10
94.031841
 20
177.596347
 30
0.0
 10
93.898020
 20
177.649402
 30
0.0
 10
93.758492
 20
177.694647
 30
0.0
 10
93.613866
 20
177.732215
 30
0.0
 10
93.464738
 20
177.762235
 30
0.0
 10
93.311717
 20
177.784841
 30
0.0
 10
93.155401
 20
177.800163
 30
0.0
 10
92.996394
 20
177.808333
 30
0.0
 10
92.835300
 20
177.809481
 30
0.0
 10
92.672719
 20
177.803742
 30
0.0
 10
92.509259
 20
177.791245
 30
0.0
 10
92.345519
 20
177.772122
 30
0.0
 10
92.182102
 20
177.746504
 30
0.0
 10
92.019613
 20
177.714523
 30
0.0
 10
91.858654
 20
177.676311
 30
0.0
 10
91.699825
 20
177.631999
 30
0.0
 10
91.543731
 20
177.581719
 30
0.0
 10
91.390977
 20
177.525602
 30
0.0
 10
91.242164
 20
177.463779
 30
0.0
 10
91.097892
 20
177.396383
 30
0.0
 10
90.958769
 20
177.323544
 30
0.0
 10
90.825395
 20
177.245394
 30
0.0
 10
90.698372
 20
177.162065
 30
0.0
 10
90.578304
 20
177.073688
 30
0.0
 10
90.465795
 20
176.980395
 30
0.0
 10
90.401541
 20
176.950137
 30
0.0
 10
90.338401
 20
176.918901
 30
0.0
 10
90.276425
 20
176.886691
 30
0.0
 10
90.215663
 20
176.853515
 30
0.0
 10
90.156164
 20
176.819378
 30
0.0
 10
90.097974
 20
176.784288
 30
0.0
 10
90.041147
 20
176.748251
 30
0.0
 10
89.985727
 20
176.711274
 30
0.0
 10
89.931765
 20
176.673361
 30
0.0
 10
89.879312
 20
176.634521
 30
0.0
 10
89.828414
 20
176.594760
 30
0.0
 10
89.779124
 20
176.554083
 30
0.0
 10
89.731486
 20
176.512498
 30
0.0
 10
89.685552
 20
176.470010
 30
0.0
 10
89.641372
 20
176.426626
 30
0.0
 10
89.598991
 20
176.382353
 30
0.0
 10
89.558462
 20
176.337198
 30
0.0
 10
89.519833
 20
176.291165
 30
0.0
 10
89.483151
 20
176.244262
 30
0.0
 10
89.448467
 20
176.196496
 30
0.0
 10
89.415830
 20
176.147872
 30
0.0
 10
89.385289
 20
176.098397
 30
0.0
 10
89.356892
 20
176.048078
 30
0.0
 10
89.330698
 20
175.996920
 30
0.0
 10
89.306727
 20
175.944931
 30
0.0
 10
89.285057
 20
175.892117
 30
0.0
 10
89.265743
 20
175.838484
 30
0.0
 10
89.248809
 20
175.784038
 30
0.0
 10
89.234310
 20
175.728787
 30
0.0
 10
89.222298
 20
175.672735
 30
0.0
 10
89.212826
 20
175.615891
 30
0.0
 10
89.205947
 20
175.558260
 30
0.0
 10
89.202984
 20
175.528387
 30
0.0
 10
89.199835
 20
175.498621
 30
0.0
 10
89.196501
 20
175.468962
 30
0.0
 10
89.192982
 20
175.439409
 30
0.0
 10
89.189305
 20
175.409961
 30
0.0
 10
89.185442
 20
175.380618
 30
0.0
 10
89.181394
 20
175.351379
 30
0.0
 10
89.177187
 20
175.322243
 30
0.0
 10
89.172795
 20
175.293210
 30
0.0
 10
89.168244
 20
175.264280
 30
0.0
 10
89.163508
 20
175.235451
 30
0.0
 10
89.158613
 20
175.206723
 30
0.0
 10
89.153559
 20
175.178095
 30
0.0
 10
89.148321
 20
175.149567
 30
0.0
 10
89.142923
 20
175.121138
 30
0.0
 10
89.137367
 20
175.092807
 30
0.0
 10
89.131652
 20
175.064574
 30
0.0
 10
89.125778
 20
175.036438
 30
0.0
 10
89.119746
 20
175.008398
 30
0.0
 10
89.113554
 20
174.980454
 30
0.0
 10
89.107204
 20
174.952606
 30
0.0
 10
89.100696
 20
174.924852
 30
0.0
 10
89.094028
 20
174.897192
 30
0.0
 10
89.087202
 20
174.869625
 30
0.0
 10
89.080217
 20
174.842151
 30
0.0
 10
89.073073
 20
174.814768
 30
0.0
 10
89.065797
 20
174.787478
 30
0.0
 10
89.058362
 20
174.760277
 30
0.0
 10
89.050769
 20
174.733167
 30
0.0
 10
89.043043
 20
174.706147
 30
0.0
 10
89.035158
 20
174.679215
 30
0.0
 10
89.027142
 20
174.652372
 30
0.0
 10
88.930024
 20
174.505395
 30
0.0
 10
88.832686
 20
174.361774
 30
0.0
 10
88.735110
 20
174.221471
 30
0.0
 10
88.637275
 20
174.084447
 30
0.0
 10
88.539163
 20
173.950660
 30
0.0
 10
88.440759
 20
173.820073
 30
0.0
 10
88.342043
 20
173.692646
 30
0.0
 10
88.242996
 20
173.568339
 30
0.0
 10
88.143603
 20
173.447112
 30
0.0
 10
88.043841
 20
173.328927
 30
0.0
 10
87.943697
 20
173.213744
 30
0.0
 10
87.843150
 20
173.101523
 30
0.0
 10
87.742182
 20
172.992225
 30
0.0
 10
87.640778
 20
172.885811
 30
0.0
 10
87.538913
 20
172.782240
 30
0.0
 10
87.436578
 20
172.681475
 30
0.0
 10
87.333747
 20
172.583474
 30
0.0
 10
87.230406
 20
172.488199
 30
0.0
 10
87.126536
 20
172.395611
 30
0.0
 10
87.022119
 20
172.305669
 30
0.0
 10
86.917137
 20
172.218335
 30
0.0
 10
86.811571
 20
172.133569
 30
0.0
 10
86.705404
 20
172.051330
 30
0.0
 10
86.598616
 20
171.971582
 30
0.0
 10
86.491192
 20
171.894282
 30
0.0
 10
86.383113
 20
171.819393
 30
0.0
 10
86.274358
 20
171.746874
 30
0.0
 10
86.164913
 20
171.676687
 30
0.0
 10
86.054757
 20
171.608792
 30
0.0
 10
85.943875
 20
171.543148
 30
0.0
 10
85.832245
 20
171.479718
 30
0.0
 10
85.719850
 20
171.418461
 30
0.0
 10
85.620144
 20
171.376602
 30
0.0
 10
85.519232
 20
171.335449
 30
0.0
 10
85.417119
 20
171.294997
 30
0.0
 10
85.313812
 20
171.255239
 30
0.0
 10
85.209321
 20
171.216173
 30
0.0
 10
85.103651
 20
171.177793
 30
0.0
 10
84.996812
 20
171.140094
 30
0.0
 10
84.888810
 20
171.103071
 30
0.0
 10
84.779653
 20
171.066721
 30
0.0
 10
84.669351
 20
171.031037
 30
0.0
 10
84.557906
 20
170.996016
 30
0.0
 10
84.445331
 20
170.961652
 30
0.0
 10
84.331629
 20
170.927941
 30
0.0
 10
84.216810
 20
170.894878
 30
0.0
 10
84.100883
 20
170.862458
 30
0.0
 10
83.983853
 20
170.830676
 30
0.0
 10
83.865727
 20
170.799527
 30
0.0
 10
83.746516
 20
170.769008
 30
0.0
 10
83.626223
 20
170.739112
 30
0.0
 10
83.504859
 20
170.709836
 30
0.0
 10
83.382431
 20
170.681175
 30
0.0
 10
83.258947
 20
170.653122
 30
0.0
 10
83.134413
 20
170.625675
 30
0.0
 10
83.008837
 20
170.598829
 30
0.0
 10
82.882225
 20
170.572577
 30
0.0
 10
82.754588
 20
170.546915
 30
0.0
 10
82.625932
 20
170.521840
 30
0.0
 10
82.496262
 20
170.497345
 30
0.0
 10
82.365589
 20
170.473427
 30
0.0
 10
82.233922
 20
170.450080
 30
0.0
 10
82.101263
 20
170.427299
 30
0.0
 10
81.967624
 20
170.405082
 30
0.0
 10
81.798569
 20
170.388765
 30
0.0
 10
81.627709
 20
170.373673
 30
0.0
 10
81.455018
 20
170.359748
 30
0.0
 10
81.280459
 20
170.346927
 30
0.0
 10
81.104003
 20
170.335147
 30
0.0
 10
80.925619
 20
170.324350
 30
0.0
 10
80.745268
 20
170.314473
 30
0.0
 10
80.562928
 20
170.305453
 30
0.0
 10
80.378558
 20
170.297233
 30
0.0
 10
80.192130
 20
170.289750
 30
0.0
 10
80.003612
 20
170.282943
 30
0.0
 10
79.812972
 20
170.276751
 30
0.0
 10
79.620178
 20
170.271113
 30
0.0
 10
79.425196
 20
170.265967
 30
0.0
 10
79.227994
 20
170.261255
 30
0.0
 10
79.028543
 20
170.256913
 30
0.0
 10
78.826806
 20
170.252881
 30
0.0
 10
78.622757
 20
170.249097
 30
0.0
 10
78.416358
 20
170.245501
 30
0.0
 10
78.207580
 20
170.242033
 30
0.0
 10
77.996393
 20
170.238627
 30
0.0
 10
77.782760
 20
170.235228
 30
0.0
 10
77.566651
 20
170.231772
 30
0.0
 10
77.348037
 20
170.228198
 30
0.0
 10
77.126879
 20
170.224446
 30
0.0
 10
76.903150
 20
170.220453
 30
0.0
 10
76.676818
 20
170.216162
 30
0.0
 10
76.447850
 20
170.211508
 30
0.0
 10
76.216213
 20
170.206430
 30
0.0
 10
75.981876
 20
170.200869
 30
0.0
 10
75.744804
 20
170.194762
 30
0.0
 10
75.504970
 20
170.188050
 30
0.0
 10
74.165501
 20
170.198241
 30
0.0
 10
72.913787
 20
170.228855
 30
0.0
 10
71.744143
 20
170.279955
 30
0.0
 10
70.650893
 20
170.351604
 30
0.0
 10
69.628355
 20
170.443864
 30
0.0
 10
68.670854
 20
170.556798
 30
0.0
 10
67.772708
 20
170.690469
 30
0.0
 10
66.928234
 20
170.844940
 30
0.0
 10
66.131759
 20
171.020274
 30
0.0
 10
65.377601
 20
171.216533
 30
0.0
 10
64.660081
 20
171.433780
 30
0.0
 10
63.973516
 20
171.672077
 30
0.0
 10
63.312232
 20
171.931488
 30
0.0
 10
62.670546
 20
172.212076
 30
0.0
 10
62.042780
 20
172.513903
 30
0.0
 10
61.423253
 20
172.837031
 30
0.0
 10
60.806287
 20
173.181525
 30
0.0
 10
60.186204
 20
173.547445
 30
0.0
 10
59.557321
 20
173.934856
 30
0.0
 10
58.913960
 20
174.343819
 30
0.0
 10
58.250444
 20
174.774398
 30
0.0
 10
57.561093
 20
175.226656
 30
0.0
 10
56.840222
 20
175.700655
 30
0.0
 10
56.082159
 20
176.196457
 30
0.0
 10
55.281221
 20
176.714127
 30
0.0
 10
54.431728
 20
177.253726
 30
0.0
 10
53.528002
 20
177.815317
 30
0.0
 10
52.564363
 20
178.398963
 30
0.0
 10
51.535131
 20
179.004727
 30
0.0
 10
50.434628
 20
179.632671
 30
0.0
 10
49.257174
 20
180.282858
 30
0.0
 10
47.997088
 20
180.955352
 30
0.0
 10
46.746183
 20
181.476372
 30
0.0
 10
45.610631
 20
181.794128
 30
0.0
 10
44.586551
 20
181.920046
 30
0.0
 10
43.670050
 20
181.865552
 30
0.0
 10
42.857247
 20
181.642072
 30
0.0
 10
42.144256
 20
181.261030
 30
0.0
 10
41.527187
 20
180.733852
 30
0.0
 10
41.002158
 20
180.071965
 30
0.0
 10
40.565281
 20
179.286792
 30
0.0
 10
40.212668
 20
178.389761
 30
0.0
 10
39.940436
 20
177.392296
 30
0.0
 10
39.744694
 20
176.305824
 30
0.0
 10
39.621563
 20
175.141768
 30
0.0
 10
39.567151
 20
173.911556
 30
0.0
 10
39.577576
 20
172.626613
 30
0.0
 10
39.648950
 20
171.298363
 30
0.0
 10
39.777384
 20
169.938234
 30
0.0
 10
39.958996
 20
168.557650
 30
0.0
 10
40.189898
 20
167.168036
 30
0.0
 10
40.466205
 20
165.780819
 30
0.0
 10
40.784028
 20
164.407424
 30
0.0
 10
41.139485
 20
163.059276
 30
0.0
 10
41.528687
 20
161.747802
 30
0.0
 10
41.947747
 20
160.484425
 30
0.0
 10
42.392782
 20
159.280573
 30
0.0
 10
42.859904
 20
158.147671
 30
0.0
 10
43.345226
 20
157.097143
 30
0.0
 10
43.844866
 20
156.140416
 30
0.0
 10
44.354932
 20
155.288916
 30
0.0
 10
44.871541
 20
154.554067
 30
0.0
 10
45.390807
 20
153.947296
 30
0.0
 10
45.908843
 20
153.480027
 30
0.0
 10
46.232537
 20
153.252056
 30
0.0
 10
46.543711
 20
153.037877
 30
0.0
 10
46.842949
 20
152.836209
 30
0.0
 10
47.130845
 20
152.645766
 30
0.0
 10
47.407991
 20
152.465273
 30
0.0
 10
47.674974
 20
152.293439
 30
0.0
 10
47.932384
 20
152.128990
 30
0.0
 10
48.180812
 20
151.970640
 30
0.0
 10
48.420850
 20
151.817105
 30
0.0
 10
48.653085
 20
151.667107
 30
0.0
 10
48.878108
 20
151.519361
 30
0.0
 10
49.096511
 20
151.372586
 30
0.0
 10
49.308882
 20
151.225499
 30
0.0
 10
49.515812
 20
151.076819
 30
0.0
 10
49.717890
 20
150.925263
 30
0.0
 10
49.915709
 20
150.769551
 30
0.0
 10
50.109855
 20
150.608398
 30
0.0
 10
50.300921
 20
150.440523
 30
0.0
 10
50.489495
 20
150.264646
 30
0.0
 10
50.676172
 20
150.079480
 30
0.0
 10
50.861536
 20
149.883747
 30
0.0
 10
51.046178
 20
149.676163
 30
0.0
 10
51.230693
 20
149.455447
 30
0.0
 10
51.415666
 20
149.220317
 30
0.0
 10
51.601692
 20
148.969490
 30
0.0
 10
51.789356
 20
148.701684
 30
0.0
 10
51.979250
 20
148.415616
 30
0.0
 10
52.171964
 20
148.110006
 30
0.0
 10
52.368089
 20
147.783569
 30
0.0
 10
52.568215
 20
147.435028
 30
0.0
 10
52.772934
 20
147.063095
 30
0.0
 10
52.982830
 20
146.666490
 30
0.0
 10
53.084084
 20
146.319531
 30
0.0
 10
53.213436
 20
145.971118
 30
0.0
 10
53.369887
 20
145.621651
 30
0.0
 10
53.552420
 20
145.271527
 30
0.0
 10
53.760036
 20
144.921145
 30
0.0
 10
53.991724
 20
144.570908
 30
0.0
 10
54.246475
 20
144.221211
 30
0.0
 10
54.523282
 20
143.872456
 30
0.0
 10
54.821142
 20
143.525037
 30
0.0
 10
55.139041
 20
143.179359
 30
0.0
 10
55.475978
 20
142.835816
 30
0.0
 10
55.830940
 20
142.494807
 30
0.0
 10
56.202923
 20
142.156736
 30
0.0
 10
56.590919
 20
141.821998
 30
0.0
 10
56.993921
 20
141.490994
 30
0.0
 10
57.410918
 20
141.164120
 30
0.0
 10
57.840908
 20
140.841778
 30
0.0
 10
58.282879
 20
140.524365
 30
0.0
 10
58.735827
 20
140.212281
 30
0.0
 10
59.198742
 20
139.905923
 30
0.0
 10
59.670616
 20
139.605692
 30
0.0
 10
60.150446
 20
139.311989
 30
0.0
 10
60.637221
 20
139.025207
 30
0.0
 10
61.129933
 20
138.745752
 30
0.0
 10
61.627575
 20
138.474017
 30
0.0
 10
62.129143
 20
138.210404
 30
0.0
 10
62.633624
 20
137.955312
 30
0.0
 10
63.140015
 20
137.709135
 30
0.0
 10
63.647308
 20
137.472280
 30
0.0
 10
64.154494
 20
137.245141
 30
0.0
 10
64.660565
 20
137.028119
 30
0.0
 10
65.164517
 20
136.821612
 30
0.0
 10
65.359274
 20
136.713098
 30
0.0
 10
65.554806
 20
136.607506
 30
0.0
 10
65.751069
 20
136.504868
 30
0.0
 10
65.948019
 20
136.405216
 30
0.0
 10
66.145605
 20
136.308587
 30
0.0
 10
66.343783
 20
136.215012
 30
0.0
 10
66.542509
 20
136.124527
 30
0.0
 10
66.741732
 20
136.037164
 30
0.0
 10
66.941411
 20
135.952958
 30
0.0
 10
67.141494
 20
135.871943
 30
0.0
 10
67.341940
 20
135.794153
 30
0.0
 10
67.542700
 20
135.719619
 30
0.0
 10
67.743728
 20
135.648380
 30
0.0
 10
67.944980
 20
135.580467
 30
0.0
 10
68.146405
 20
135.515914
 30
0.0
 10
68.347962
 20
135.454753
 30
0.0
 10
68.549601
 20
135.397021
 30
0.0
 10
68.751277
 20
135.342750
 30
0.0
 10
68.952945
 20
135.291976
 30
0.0
 10
69.154558
 20
135.244729
 30
0.0
 10
69.356070
 20
135.201047
 30
0.0
 10
69.557431
 20
135.160962
 30
0.0
 10
69.758599
 20
135.124508
 30
0.0
 10
69.959529
 20
135.091718
 30
0.0
 10
70.160170
 20
135.062627
 30
0.0
 10
70.360481
 20
135.037280
 30
0.0
 10
70.560410
 20
135.015690
 30
0.0
 10
70.759914
 20
134.997884
 30
0.0
 10
70.958947
 20
134.983914
 30
0.0
 10
71.157464
 20
134.973833
 30
0.0
 10
71.355415
 20
134.967642
 30
0.0
 10
71.552757
 20
134.965261
 30
0.0
 10
71.722675
 20
134.965245
 30
0.0
 10
71.892593
 20
134.965229
 30
0.0
 10
72.062514
 20
134.965213
 30
0.0
 10
72.232432
 20
134.965197
 30
0.0
 10
72.402350
 20
134.965179
 30
0.0
 10
72.572268
 20
134.965163
 30
0.0
 10
72.742186
 20
134.965147
 30
0.0
 10
72.912104
 20
134.965131
 30
0.0
 10
73.082025
 20
134.965115
 30
0.0
 10
73.251943
 20
134.965099
 30
0.0
 10
73.421861
 20
134.965083
 30
0.0
 10
73.591779
 20
134.965067
 30
0.0
 10
73.761697
 20
134.965049
 30
0.0
 10
73.931618
 20
134.965033
 30
0.0
 10
74.101536
 20
134.965017
 30
0.0
 10
74.271454
 20
134.965001
 30
0.0
 10
74.441372
 20
134.964985
 30
0.0
 10
74.611290
 20
134.964970
 30
0.0
 10
74.781210
 20
134.964954
 30
0.0
 10
74.951129
 20
134.964938
 30
0.0
 10
75.121047
 20
134.964919
 30
0.0
 10
75.290965
 20
134.964903
 30
0.0
 10
75.460883
 20
134.964888
 30
0.0
 10
75.630801
 20
134.964872
 30
0.0
 10
75.800721
 20
134.964856
 30
0.0
 10
75.970640
 20
134.964840
 30
0.0
 10
76.140558
 20
134.964824
 30
0.0
 10
76.310476
 20
134.964808
 30
0.0
 10
76.480394
 20
134.964790
 30
0.0
 10
76.650314
 20
134.964774
 30
0.0
 10
76.820232
 20
134.964758
 30
0.0
 10
76.990151
 20
134.964742
 30
0.0
 10
76.982769
 20
134.876702
 30
0.0
 10
76.975096
 20
134.785955
 30
0.0
 10
76.967105
 20
134.692690
 30
0.0
 10
76.958744
 20
134.597090
 30
0.0
 10
76.949960
 20
134.499348
 30
0.0
 10
76.940726
 20
134.399653
 30
0.0
 10
76.931016
 20
134.298188
 30
0.0
 10
76.920777
 20
134.195149
 30
0.0
 10
76.909982
 20
134.090715
 30
0.0
 10
76.898578
 20
133.985083
 30
0.0
 10
76.886540
 20
133.878434
 30
0.0
 10
76.873813
 20
133.770963
 30
0.0
 10
76.860346
 20
133.662852
 30
0.0
 10
76.846138
 20
133.554293
 30
0.0
 10
76.831109
 20
133.445473
 30
0.0
 10
76.815234
 20
133.336581
 30
0.0
 10
76.798486
 20
133.227805
 30
0.0
 10
76.780812
 20
133.119334
 30
0.0
 10
76.762186
 20
133.011352
 30
0.0
 10
76.742553
 20
132.904053
 30
0.0
 10
76.721889
 20
132.797625
 30
0.0
 10
76.700141
 20
132.692249
 30
0.0
 10
76.677281
 20
132.588122
 30
0.0
 10
76.653257
 20
132.485427
 30
0.0
 10
76.628015
 20
132.384353
 30
0.0
 10
76.601544
 20
132.285092
 30
0.0
 10
76.573797
 20
132.187826
 30
0.0
 10
76.544732
 20
132.092748
 30
0.0
 10
76.514308
 20
132.000046
 30
0.0
 10
76.482489
 20
131.909905
 30
0.0
 10
76.449236
 20
131.822516
 30
0.0
 10
76.414505
 20
131.738066
 30
0.0
 10
76.405535
 20
131.717588
 30
0.0
 10
76.396195
 20
131.697241
 30
0.0
 10
76.386512
 20
131.677053
 30
0.0
 10
76.376484
 20
131.656998
 30
0.0
 10
76.366112
 20
131.637101
 30
0.0
 10
76.355423
 20
131.617337
 30
0.0
 10
76.344390
 20
131.597731
 30
0.0
 10
76.333066
 20
131.578284
 30
0.0
 10
76.321424
 20
131.558996
 30
0.0
 10
76.309465
 20
131.539867
 30
0.0
 10
76.297215
 20
131.520923
 30
0.0
 10
76.284673
 20
131.502137
 30
0.0
 10
76.271841
 20
131.483537
 30
0.0
 10
76.258744
 20
131.465096
 30
0.0
 10
76.245383
 20
131.446839
 30
0.0
 10
76.231757
 20
131.428768
 30
0.0
 10
76.217866
 20
131.410883
 30
0.0
 10
76.203737
 20
131.393182
 30
0.0
 10
76.189371
 20
131.375667
 30
0.0
 10
76.174766
 20
131.358363
 30
0.0
 10
76.159949
 20
131.341244
 30
0.0
 10
76.144921
 20
131.324337
 30
0.0
 10
76.129681
 20
131.307616
 30
0.0
 10
76.114229
 20
131.291106
 30
0.0
 10
76.098566
 20
131.274807
 30
0.0
 10
76.082717
 20
131.258747
 30
0.0
 10
76.066683
 20
131.242899
 30
0.0
 10
76.050464
 20
131.227262
 30
0.0
 10
76.034087
 20
131.211863
 30
0.0
 10
76.017550
 20
131.196676
 30
0.0
 10
76.000855
 20
131.181727
 30
0.0
 10
75.984001
 20
131.167016
 30
0.0
 10
75.890653
 20
131.087805
 30
0.0
 10
75.795991
 20
131.010129
 30
0.0
 10
75.700055
 20
130.933966
 30
0.0
 10
75.602885
 20
130.859298
 30
0.0
 10
75.504520
 20
130.786106
 30
0.0
 10
75.405003
 20
130.714364
 30
0.0
 10
75.304368
 20
130.644059
 30
0.0
 10
75.202663
 20
130.575164
 30
0.0
 10
75.099922
 20
130.507664
 30
0.0
 10
74.996187
 20
130.441537
 30
0.0
 10
74.891502
 20
130.376759
 30
0.0
 10
74.785902
 20
130.313314
 30
0.0
 10
74.679428
 20
130.251179
 30
0.0
 10
74.572121
 20
130.190339
 30
0.0
 10
74.464020
 20
130.130765
 30
0.0
 10
74.355168
 20
130.072443
 30
0.0
 10
74.245604
 20
130.015351
 30
0.0
 10
74.135365
 20
129.959468
 30
0.0
 10
74.024497
 20
129.904774
 30
0.0
 10
73.913033
 20
129.851249
 30
0.0
 10
73.801019
 20
129.798872
 30
0.0
 10
73.688495
 20
129.747624
 30
0.0
 10
73.575496
 20
129.697483
 30
0.0
 10
73.462067
 20
129.648430
 30
0.0
 10
73.348243
 20
129.600445
 30
0.0
 10
73.234073
 20
129.553505
 30
0.0
 10
73.119587
 20
129.507592
 30
0.0
 10
73.004832
 20
129.462684
 30
0.0
 10
72.889847
 20
129.418763
 30
0.0
 10
72.774669
 20
129.375808
 30
0.0
 10
72.659339
 20
129.333798
 30
0.0
 10
72.543902
 20
129.292710
 30
0.0
 10
71.674767
 20
128.994837
 30
0.0
 10
70.796075
 20
128.709058
 30
0.0
 10
69.908345
 20
128.434960
 30
0.0
 10
69.012095
 20
128.172139
 30
0.0
 10
68.107837
 20
127.920179
 30
0.0
 10
67.196088
 20
127.678675
 30
0.0
 10
66.277365
 20
127.447218
 30
0.0
 10
65.352186
 20
127.225394
 30
0.0
 10
64.421061
 20
127.012796
 30
0.0
 10
63.484510
 20
126.809014
 30
0.0
 10
62.543051
 20
126.613638
 30
0.0
 10
61.597198
 20
126.426260
 30
0.0
 10
60.647465
 20
126.246467
 30
0.0
 10
59.694370
 20
126.073853
 30
0.0
 10
58.738428
 20
125.908007
 30
0.0
 10
57.780155
 20
125.748519
 30
0.0
 10
56.820069
 20
125.594979
 30
0.0
 10
55.858684
 20
125.446979
 30
0.0
 10
54.896516
 20
125.304106
 30
0.0
 10
53.934084
 20
125.165954
 30
0.0
 10
52.971900
 20
125.032115
 30
0.0
 10
52.010484
 20
124.902172
 30
0.0
 10
51.050345
 20
124.775723
 30
0.0
 10
50.092009
 20
124.652353
 30
0.0
 10
49.135982
 20
124.531655
 30
0.0
 10
48.182786
 20
124.413217
 30
0.0
 10
47.232937
 20
124.296634
 30
0.0
 10
46.286948
 20
124.181492
 30
0.0
 10
45.345339
 20
124.067385
 30
0.0
 10
44.408621
 20
123.953900
 30
0.0
 10
43.477314
 20
123.840627
 30
0.0
 10
42.551934
 20
123.727160
 30
0.0
 10
42.696815
 20
123.949622
 30
0.0
 10
42.843719
 20
124.173745
 30
0.0
 10
42.992645
 20
124.399604
 30
0.0
 10
43.143593
 20
124.627273
 30
0.0
 10
43.296554
 20
124.856831
 30
0.0
 10
43.451528
 20
125.088346
 30
0.0
 10
43.608513
 20
125.321902
 30
0.0
 10
43.767507
 20
125.557566
 30
0.0
 10
43.928503
 20
125.795416
 30
0.0
 10
44.091500
 20
126.035531
 30
0.0
 10
44.256494
 20
126.277979
 30
0.0
 10
44.423485
 20
126.522838
 30
0.0
 10
44.592464
 20
126.770186
 30
0.0
 10
44.763435
 20
127.020093
 30
0.0
 10
44.936391
 20
127.272635
 30
0.0
 10
45.111328
 20
127.527892
 30
0.0
 10
45.288244
 20
127.785932
 30
0.0
 10
45.467137
 20
128.046835
 30
0.0
 10
45.648004
 20
128.310675
 30
0.0
 10
45.830839
 20
128.577523
 30
0.0
 10
46.015642
 20
128.847459
 30
0.0
 10
46.202411
 20
129.120557
 30
0.0
 10
46.391139
 20
129.396890
 30
0.0
 10
46.581827
 20
129.676536
 30
0.0
 10
46.774467
 20
129.959566
 30
0.0
 10
46.969060
 20
130.246060
 30
0.0
 10
47.165601
 20
130.536088
 30
0.0
 10
47.364088
 20
130.829728
 30
0.0
 10
47.564518
 20
131.127053
 30
0.0
 10
47.766887
 20
131.428141
 30
0.0
 10
47.971191
 20
131.733063
 30
0.0
 10
48.177431
 20
132.041898
 30
0.0
 10
48.409579
 20
132.520153
 30
0.0
 10
48.610323
 20
132.997946
 30
0.0
 10
48.779577
 20
133.474125
 30
0.0
 10
48.917253
 20
133.947549
 30
0.0
 10
49.023269
 20
134.417070
 30
0.0
 10
49.097538
 20
134.881546
 30
0.0
 10
49.139977
 20
135.339831
 30
0.0
 10
49.150507
 20
135.790782
 30
0.0
 10
49.129023
 20
136.233252
 30
0.0
 10
49.075456
 20
136.666095
 30
0.0
 10
48.989720
 20
137.088169
 30
0.0
 10
48.871724
 20
137.498326
 30
0.0
 10
48.721388
 20
137.895426
 30
0.0
 10
48.538624
 20
138.278318
 30
0.0
 10
48.323351
 20
138.645861
 30
0.0
 10
48.075479
 20
138.996910
 30
0.0
 10
47.794925
 20
139.330319
 30
0.0
 10
47.481603
 20
139.644943
 30
0.0
 10
47.135430
 20
139.939636
 30
0.0
 10
46.756317
 20
140.213258
 30
0.0
 10
46.344186
 20
140.464657
 30
0.0
 10
45.898942
 20
140.692696
 30
0.0
 10
45.420510
 20
140.896221
 30
0.0
 10
44.908797
 20
141.074095
 30
0.0
 10
44.363724
 20
141.225170
 30
0.0
 10
43.785202
 20
141.348302
 30
0.0
 10
43.173147
 20
141.442345
 30
0.0
 10
42.527473
 20
141.506155
 30
0.0
 10
41.848097
 20
141.538585
 30
0.0
 10
41.134934
 20
141.538492
 30
0.0
 10
40.387896
 20
141.504731
 30
0.0
 10
39.606899
 20
141.436157
 30
0.0
 10
37.131617
 20
141.078263
 30
0.0
 10
34.754523
 20
140.637509
 30
0.0
 10
32.474357
 20
140.116608
 30
0.0
 10
30.289854
 20
139.518277
 30
0.0
 10
28.199754
 20
138.845227
 30
0.0
 10
26.202792
 20
138.100176
 30
0.0
 10
24.297706
 20
137.285836
 30
0.0
 10
22.483234
 20
136.404922
 30
0.0
 10
20.758112
 20
135.460151
 30
0.0
 10
19.121078
 20
134.454234
 30
0.0
 10
17.570870
 20
133.389887
 30
0.0
 10
16.106225
 20
132.269826
 30
0.0
 10
14.725880
 20
131.096761
 30
0.0
 10
13.428573
 20
129.873413
 30
0.0
 10
12.213041
 20
128.602489
 30
0.0
 10
11.078020
 20
127.286708
 30
0.0
 10
10.022250
 20
125.928787
 30
0.0
 10
9.044467
 20
124.531436
 30
0.0
 10
8.143408
 20
123.097370
 30
0.0
 10
7.317810
 20
121.629306
 30
0.0
 10
6.566412
 20
120.129954
 30
0.0
 10
5.887950
 20
118.602033
 30
0.0
 10
5.281162
 20
117.048257
 30
0.0
 10
4.744785
 20
115.471338
 30
0.0
 10
4.277557
 20
113.873990
 30
0.0
 10
3.878214
 20
112.258931
 30
0.0
 10
3.545494
 20
110.628873
 30
0.0
 10
3.278135
 20
108.986533
 30
0.0
 10
3.074874
 20
107.334622
 30
0.0
 10
2.934448
 20
105.675857
 30
0.0
 10
2.855595
 20
104.012953
 30
0.0
 10
2.837053
 20
102.348621
 30
0.0
 10
2.911049
 20
100.465746
 30
0.0
 10
3.055300
 20
98.613898
 30
0.0
 10
3.268039
 20
96.794305
 30
0.0
 10
3.547497
 20
95.008204
 30
0.0
 10
3.891908
 20
93.256826
 30
0.0
 10
4.299503
 20
91.541405
 30
0.0
 10
4.768515
 20
89.863172
 30
0.0
 10
5.297176
 20
88.223361
 30
0.0
 10
5.883719
 20
86.623206
 30
0.0
 10
6.526376
 20
85.063937
 30
0.0
 10
7.223379
 20
83.546787
 30
0.0
 10
7.972960
 20
82.072992
 30
0.0
 10
8.773353
 20
80.643779
 30
0.0
 10
9.622789
 20
79.260387
 30
0.0
 10
10.519500
 20
77.924045
 30
0.0
 10
11.461719
 20
76.635987
 30
0.0
 10
12.447679
 20
75.397446
 30
0.0
 10
13.475611
 20
74.209652
 30
0.0
 10
14.543748
 20
73.073844
 30
0.0
 10
15.650322
 20
71.991245
 30
0.0
 10
16.793566
 20
70.963098
 30
0.0
 10
17.971712
 20
69.990630
 30
0.0
 10
19.182993
 20
69.075074
 30
0.0
 10
20.425639
 20
68.217665
 30
0.0
 10
21.697885
 20
67.419634
 30
0.0
 10
22.997963
 20
66.682214
 30
0.0
 10
24.324104
 20
66.006638
 30
0.0
 10
25.674541
 20
65.394140
 30
0.0
 10
27.047506
 20
64.845950
 30
0.0
 10
28.441233
 20
64.363303
 30
0.0
 10
29.853952
 20
63.947431
 30
0.0
 10
31.283895
 20
63.599564
 30
0.0
 10
32.294796
 20
63.372933
 30
0.0
 10
33.294943
 20
63.182126
 30
0.0
 10
34.281886
 20
63.027093
 30
0.0
 10
35.253185
 20
62.907790
 30
0.0
 10
36.206388
 20
62.824171
 30
0.0
 10
37.139047
 20
62.776189
 30
0.0
 10
38.048722
 20
62.763806
 30
0.0
 10
38.932957
 20
62.786957
 30
0.0
 10
39.789312
 20
62.845610
 30
0.0
 10
40.615336
 20
62.939715
 30
0.0
 10
41.408586
 20
63.069223
 30
0.0
 10
42.166612
 20
63.234093
 30
0.0
 10
42.886967
 20
63.434276
 30
0.0
 10
43.567208
 20
63.669727
 30
0.0
 10
44.204883
 20
63.940395
 30
0.0
 10
44.797547
 20
64.246243
 30
0.0
 10
45.342752
 20
64.587217
 30
0.0
 10
45.838055
 20
64.963272
 30
0.0
 10
46.281007
 20
65.374363
 30
0.0
 10
46.669159
 20
65.820445
 30
0.0
 10
47.000065
 20
66.301468
 30
0.0
 10
47.271282
 20
66.817390
 30
0.0
 10
47.480358
 20
67.368162
 30
0.0
 10
47.624850
 20
67.953741
 30
0.0
 10
47.702307
 20
68.574075
 30
0.0
 10
47.710297
 20
69.229122
 30
0.0
 10
47.646347
 20
69.918836
 30
0.0
 10
47.508026
 20
70.643169
 30
0.0
 10
47.292885
 20
71.402074
 30
0.0
 10
46.998475
 20
72.195506
 30
0.0
 10
46.622352
 20
73.023419
 30
0.0
 10
46.162066
 20
73.885768
 30
0.0
 10
46.055945
 20
74.180437
 30
0.0
 10
45.947270
 20
74.472354
 30
0.0
 10
45.836140
 20
74.761589
 30
0.0
 10
45.722652
 20
75.048209
 30
0.0
 10
45.606905
 20
75.332287
 30
0.0
 10
45.488993
 20
75.613888
 30
0.0
 10
45.369020
 20
75.893085
 30
0.0
 10
45.247079
 20
76.169945
 30
0.0
 10
45.123270
 20
76.444535
 30
0.0
 10
44.997691
 20
76.716928
 30
0.0
 10
44.870439
 20
76.987192
 30
0.0
 10
44.741614
 20
77.255398
 30
0.0
 10
44.611309
 20
77.521614
 30
0.0
 10
44.479626
 20
77.785906
 30
0.0
 10
44.346662
 20
78.048346
 30
0.0
 10
44.212513
 20
78.309003
 30
0.0
 10
44.077282
 20
78.567948
 30
0.0
 10
43.941061
 20
78.825247
 30
0.0
 10
43.803949
 20
79.080970
 30
0.0
 10
43.666048
 20
79.335190
 30
0.0
 10
43.527452
 20
79.587970
 30
0.0
 10
43.388257
 20
79.839385
 30
0.0
 10
43.248565
 20
80.089498
 30
0.0
 10
43.108473
 20
80.338384
 30
0.0
 10
42.968080
 20
80.586110
 30
0.0
 10
42.827480
 20
80.832744
 30
0.0
 10
42.686772
 20
81.078357
 30
0.0
 10
42.546056
 20
81.323020
 30
0.0
 10
42.405430
 20
81.566796
 30
0.0
 10
42.264990
 20
81.809761
 30
0.0
 10
42.124834
 20
82.051979
 30
0.0
 10
41.985060
 20
82.293522
 30
0.0
 10
42.861329
 20
82.227117
 30
0.0
 10
43.731736
 20
82.161622
 30
0.0
 10
44.594961
 20
82.096812
 30
0.0
 10
45.449679
 20
82.032458
 30
0.0
 10
46.294567
 20
81.968331
 30
0.0
 10
47.128301
 20
81.904204
 30
0.0
 10
47.949560
 20
81.839846
 30
0.0
 10
48.757015
 20
81.775034
 30
0.0
 10
49.549350
 20
81.709534
 30
0.0
 10
50.325235
 20
81.643121
 30
0.0
 10
51.083351
 20
81.575567
 30
0.0
 10
51.822372
 20
81.506643
 30
0.0
 10
52.540975
 20
81.436121
 30
0.0
 10
53.237837
 20
81.363774
 30
0.0
 10
53.911635
 20
81.289370
 30
0.0
 10
54.561047
 20
81.212686
 30
0.0
 10
55.184747
 20
81.133488
 30
0.0
 10
55.781411
 20
81.051552
 30
0.0
 10
56.349718
 20
80.966650
 30
0.0
 10
56.888346
 20
80.878552
 30
0.0
 10
57.395965
 20
80.787030
 30
0.0
 10
57.871260
 20
80.691854
 30
0.0
 10
58.312900
 20
80.592799
 30
0.0
 10
58.719567
 20
80.489635
 30
0.0
 10
59.089933
 20
80.382135
 30
0.0
 10
59.422681
 20
80.270071
 30
0.0
 10
59.716480
 20
80.153215
 30
0.0
 10
59.970014
 20
80.031335
 30
0.0
 10
60.181953
 20
79.904205
 30
0.0
 10
60.350977
 20
79.771601
 30
0.0
 10
60.475763
 20
79.633288
 30
0.0
 10
60.554987
 20
79.489042
 30
0.0
 10
60.593267
 20
79.385987
 30
0.0
 10
60.628184
 20
79.286223
 30
0.0
 10
60.659540
 20
79.189023
 30
0.0
 10
60.687146
 20
79.093659
 30
0.0
 10
60.710800
 20
78.999412
 30
0.0
 10
60.730326
 20
78.905549
 30
0.0
 10
60.745513
 20
78.811352
 30
0.0
 10
60.756176
 20
78.716088
 30
0.0
 10
60.762129
 20
78.619037
 30
0.0
 10
60.763187
 20
78.519474
 30
0.0
 10
60.759113
 20
78.416670
 30
0.0
 10
60.749747
 20
78.309900
 30
0.0
 10
60.734877
 20
78.198442
 30
0.0
 10
60.714319
 20
78.081567
 30
0.0
 10
60.687887
 20
77.958549
 30
0.0
 10
60.655380
 20
77.828668
 30
0.0
 10
60.616608
 20
77.691193
 30
0.0
 10
60.571378
 20
77.545402
 30
0.0
 10
60.519490
 20
77.390568
 30
0.0
 10
60.460758
 20
77.225966
 30
0.0
 10
60.394985
 20
77.050870
 30
0.0
 10
60.321979
 20
76.864555
 30
0.0
 10
60.241543
 20
76.666295
 30
0.0
 10
60.153490
 20
76.455367
 30
0.0
 10
60.057618
 20
76.231040
 30
0.0
 10
59.953742
 20
75.992595
 30
0.0
 10
59.841662
 20
75.739304
 30
0.0
 10
59.721190
 20
75.470442
 30
0.0
 10
59.592128
 20
75.185282
 30
0.0
 10
59.454286
 20
74.883099
 30
0.0
 10
59.307469
 20
74.563167
 30
0.0
 10
59.151481
 20
74.224765
 30
0.0
 10
58.881717
 20
73.648098
 30
0.0
 10
58.591271
 20
73.040998
 30
0.0
 10
58.281719
 20
72.405781
 30
0.0
 10
57.954641
 20
71.744765
 30
0.0
 10
57.611614
 20
71.060272
 30
0.0
 10
57.254215
 20
70.354620
 30
0.0
 10
56.884023
 20
69.630125
 30
0.0
 10
56.502618
 20
68.889109
 30
0.0
 10
56.111574
 20
68.133888
 30
0.0
 10
55.712472
 20
67.366781
 30
0.0
 10
55.306889
 20
66.590107
 30
0.0
 10
54.896401
 20
65.806187
 30
0.0
 10
54.482588
 20
65.017337
 30
0.0
 10
54.067031
 20
64.225878
 30
0.0
 10
53.651301
 20
63.434126
 30
0.0
 10
53.236980
 20
62.644400
 30
0.0
 10
52.825648
 20
61.859019
 30
0.0
 10
52.418877
 20
61.080305
 30
0.0
 10
52.018251
 20
60.310571
 30
0.0
 10
51.625344
 20
59.552141
 30
0.0
 10
51.241736
 20
58.807331
 30
0.0
 10
50.869007
 20
58.078459
 30
0.0
 10
50.508729
 20
57.367844
 30
0.0
 10
50.162484
 20
56.677808
 30
0.0
 10
49.831848
 20
56.010664
 30
0.0
 10
49.518401
 20
55.368737
 30
0.0
 10
49.223722
 20
54.754340
 30
0.0
 10
48.949386
 20
54.169793
 30
0.0
 10
48.696971
 20
53.617417
 30
0.0
 10
48.468056
 20
53.099530
 30
0.0
 10
48.264221
 20
52.618451
 30
0.0
 10
48.087040
 20
52.176497
 30
0.0
 10
48.045230
 20
52.068967
 30
0.0
 10
47.997457
 20
51.946812
 30
0.0
 10
47.943927
 20
51.810557
 30
0.0
 10
47.884853
 20
51.660718
 30
0.0
 10
47.820438
 20
51.497814
 30
0.0
 10
47.750897
 20
51.322371
 30
0.0
 10
47.676436
 20
51.134903
 30
0.0
 10
47.597264
 20
50.935934
 30
0.0
 10
47.513590
 20
50.725982
 30
0.0
 10
47.425624
 20
50.505568
 30
0.0
 10
47.333575
 20
50.275211
 30
0.0
 10
47.237651
 20
50.035435
 30
0.0
 10
47.138059
 20
49.786756
 30
0.0
 10
47.035012
 20
49.529695
 30
0.0
 10
46.928718
 20
49.264770
 30
0.0
 10
46.819384
 20
48.992506
 30
0.0
 10
46.707219
 20
48.713421
 30
0.0
 10
46.592435
 20
48.428036
 30
0.0
 10
46.475241
 20
48.136867
 30
0.0
 10
46.355839
 20
47.840439
 30
0.0
 10
46.234446
 20
47.539269
 30
0.0
 10
46.111269
 20
47.233879
 30
0.0
 10
45.986515
 20
46.924787
 30
0.0
 10
45.860394
 20
46.612518
 30
0.0
 10
45.733116
 20
46.297585
 30
0.0
 10
45.604886
 20
45.980513
 30
0.0
 10
45.475920
 20
45.661823
 30
0.0
 10
45.346420
 20
45.342031
 30
0.0
 10
45.216599
 20
45.021658
 30
0.0
 10
45.086665
 20
44.701226
 30
0.0
 10
44.956826
 20
44.381255
 30
0.0
 10
44.827291
 20
44.062266
 30
0.0
 10
44.696002
 20
43.738664
 30
0.0
 10
44.560959
 20
43.405006
 30
0.0
 10
44.422455
 20
43.062040
 30
0.0
 10
44.280789
 20
42.710515
 30
0.0
 10
44.136252
 20
42.351171
 30
0.0
 10
43.989144
 20
41.984757
 30
0.0
 10
43.839752
 20
41.612020
 30
0.0
 10
43.688379
 20
41.233706
 30
0.0
 10
43.535315
 20
40.850557
 30
0.0
 10
43.380854
 20
40.463326
 30
0.0
 10
43.225295
 20
40.072754
 30
0.0
 10
43.068929
 20
39.679588
 30
0.0
 10
42.912052
 20
39.284576
 30
0.0
 10
42.754961
 20
38.888460
 30
0.0
 10
42.597949
 20
38.491990
 30
0.0
 10
42.441308
 20
38.095912
 30
0.0
 10
42.285339
 20
37.700971
 30
0.0
 10
42.130332
 20
37.307911
 30
0.0
 10
41.976586
 20
36.917481
 30
0.0
 10
41.824389
 20
36.530428
 30
0.0
 10
41.674045
 20
36.147493
 30
0.0
 10
41.525842
 20
35.769425
 30
0.0
 10
41.380075
 20
35.396974
 30
0.0
 10
41.237044
 20
35.030880
 30
0.0
 10
41.097037
 20
34.671891
 30
0.0
 10
40.960356
 20
34.320755
 30
0.0
 10
40.827289
 20
33.978217
 30
0.0
 10
40.698135
 20
33.645022
 30
0.0
 10
40.573188
 20
33.321915
 30
0.0
 10
40.452745
 20
33.009646
 30
0.0
 10
40.337095
 20
32.708958
 30
0.0
 10
40.226539
 20
32.420599
 30
0.0
 10
40.118425
 20
32.138469
 30
0.0
 10
40.010015
 20
31.856259
 30
0.0
 10
39.901488
 20
31.574417
 30
0.0
 10
39.793019
 20
31.293382
 30
0.0
 10
39.684783
 20
31.013590
 30
0.0
 10
39.576955
 20
30.735489
 30
0.0
 10
39.469712
 20
30.459515
 30
0.0
 10
39.363225
 20
30.186111
 30
0.0
 10
39.257672
 20
29.915715
 30
0.0
 10
39.153228
 20
29.648771
 30
0.0
 10
39.050069
 20
29.385720
 30
0.0
 10
38.948369
 20
29.127002
 30
0.0
 10
38.848303
 20
28.873055
 30
0.0
 10
38.750048
 20
28.624326
 30
0.0
 10
38.653779
 20
28.381250
 30
0.0
 10
38.559669
 20
28.144271
 30
0.0
 10
38.467896
 20
27.913827
 30
0.0
 10
38.378633
 20
27.690365
 30
0.0
 10
38.292059
 20
27.474320
 30
0.0
 10
38.208345
 20
27.266132
 30
0.0
 10
38.127668
 20
27.066247
 30
0.0
 10
38.050204
 20
26.875104
 30
0.0
 10
37.976125
 20
26.693143
 30
0.0
 10
37.905611
 20
26.520804
 30
0.0
 10
37.838836
 20
26.358529
 30
0.0
 10
37.775973
 20
26.206759
 30
0.0
 10
37.717199
 20
26.065935
 30
0.0
 10
37.662689
 20
25.936498
 30
0.0
 10
37.612617
 20
25.818888
 30
0.0
 10
37.567159
 20
25.713547
 30
0.0
 10
37.526493
 20
25.620916
 30
0.0
 10
37.490790
 20
25.541433
 30
0.0
 10
37.290971
 20
25.096253
 30
0.0
 10
37.077709
 20
24.608422
 30
0.0
 10
36.852131
 20
24.080996
 30
0.0
 10
36.615365
 20
23.517031
 30
0.0
 10
36.368544
 20
22.919592
 30
0.0
 10
36.112789
 20
22.291735
 30
0.0
 10
35.849235
 20
21.636516
 30
0.0
 10
35.579008
 20
20.956997
 30
0.0
 10
35.303239
 20
20.256235
 30
0.0
 10
35.023053
 20
19.537288
 30
0.0
 10
34.739581
 20
18.803217
 30
0.0
 10
34.453950
 20
18.057079
 30
0.0
 10
34.167290
 20
17.301932
 30
0.0
 10
33.880727
 20
16.540837
 30
0.0
 10
33.595393
 20
15.776850
 30
0.0
 10
33.312416
 20
15.013032
 30
0.0
 10
33.032920
 20
14.252440
 30
0.0
 10
32.758042
 20
13.498134
 30
0.0
 10
32.488903
 20
12.753170
 30
0.0
 10
32.226634
 20
12.020611
 30
0.0
 10
31.972367
 20
11.303510
 30
0.0
 10
31.727226
 20
10.604931
 30
0.0
 10
31.492342
 20
9.927931
 30
0.0
 10
31.268843
 20
9.275566
 30
0.0
 10
31.057856
 20
8.650898
 30
0.0
 10
30.860511
 20
8.056986
 30
0.0
 10
30.677938
 20
7.496884
 30
0.0
 10
30.511264
 20
6.973654
 30
0.0
 10
30.361616
 20
6.490356
 30
0.0
 10
30.230126
 20
6.050044
 30
0.0
 10
30.117921
 20
5.655783
 30
0.0
 10
30.026129
 20
5.310627
 30
0.0
 10
29.965595
 20
5.066519
 30
0.0
 10
29.909837
 20
4.829371
 30
0.0
 10
29.858862
 20
4.599106
 30
0.0
 10
29.812679
 20
4.375658
 30
0.0
 10
29.771291
 20
4.158951
 30
0.0
 10
29.734707
 20
3.948914
 30
0.0
 10
29.702936
 20
3.745476
 30
0.0
 10
29.675982
 20
3.548568
 30
0.0
 10
29.653863
 20
3.358113
 30
0.0
 10
29.636559
 20
3.174045
 30
0.0
 10
29.624098
 20
2.996290
 30
0.0
 10
29.616478
 20
2.824776
 30
0.0
 10
29.613726
 20
2.659433
 30
0.0
 10
29.615843
 20
2.500188
 30
0.0
 10
29.622801
 20
2.346970
 30
0.0
 10
29.634654
 20
2.199711
 30
0.0
 10
29.651376
 20
2.058334
 30
0.0
 10
29.672993
 20
1.922769
 30
0.0
 10
29.699501
 20
1.792946
 30
0.0
 10
29.730913
 20
1.668790
 30
0.0
 10
29.767235
 20
1.550236
 30
0.0
 10
29.808470
 20
1.437206
 30
0.0
 10
29.854629
 20
1.329634
 30
0.0
 10
29.905720
 20
1.227444
 30
0.0
 10
29.961748
 20
1.130564
 30
0.0
 10
30.022722
 20
1.038929
 30
0.0
 10
30.088642
 20
0.952460
 30
0.0
 10
30.159524
 20
0.871088
 30
0.0
 10
30.235372
 20
0.794745
 30
0.0
 10
30.316192
 20
0.723355
 30
0.0
 10
30.401991
 20
0.656847
 30
0.0
 10
30.492778
 20
0.595151
 30
0.0
 10
30.513256
 20
0.586499
 30
0.0
 10
30.533762
 20
0.577847
 30
0.0
 10
30.554267
 20
0.569195
 30
0.0
 10
30.574746
 20
0.560543
 30
0.0
 10
30.595251
 20
0.551892
 30
0.0
 10
30.615756
 20
0.543240
 30
0.0
 10
30.636235
 20
0.534588
 30
0.0
 10
30.656740
 20
0.525936
 30
0.0
 10
30.677245
 20
0.517284
 30
0.0
 10
30.697724
 20
0.508632
 30
0.0
 10
30.718229
 20
0.499980
 30
0.0
 10
30.738708
 20
0.491328
 30
0.0
 10
30.759187
 20
0.482677
 30
0.0
 10
30.779692
 20
0.474025
 30
0.0
 10
30.800171
 20
0.465373
 30
0.0
 10
30.820676
 20
0.456721
 30
0.0
 10
30.841181
 20
0.448069
 30
0.0
 10
30.861660
 20
0.439417
 30
0.0
 10
30.882165
 20
0.430765
 30
0.0
 10
30.902670
 20
0.422113
 30
0.0
 10
30.923149
 20
0.413462
 30
0.0
 10
30.943654
 20
0.404810
 30
0.0
 10
30.964159
 20
0.396158
 30
0.0
 10
30.984638
 20
0.387506
 30
0.0
 10
31.005143
 20
0.378854
 30
0.0
 10
31.025648
 20
0.370202
 30
0.0
 10
31.046127
 20
0.361550
 30
0.0
 10
31.066632
 20
0.352898
 30
0.0
 10
31.087138
 20
0.344247
 30
0.0
 10
31.107616
 20
0.335595
 30
0.0
 10
31.128122
 20
0.326943
 30
0.0
 10
31.148627
 20
0.318291
 30
0.0
 10
31.199707
 20
0.305432
 30
0.0
 10
31.309261
 20
0.294240
 30
0.0
 10
31.476551
 20
0.284662
 30
0.0
 10
31.700849
 20
0.276593
 30
0.0
 10
31.981421
 20
0.269952
 30
0.0
 10
32.317535
 20
0.264660
 30
0.0
 10
32.708454
 20
0.260612
 30
0.0
 10
33.153449
 20
0.257728
 30
0.0
 10
33.651786
 20
0.255876
 30
0.0
 10
34.202733
 20
0.255082
 30
0.0
 10
34.805555
 20
0.255238
 30
0.0
 10
35.459517
 20
0.256296
 30
0.0
 10
36.163891
 20
0.258149
 30
0.0
 10
36.917943
 20
0.260530
 30
0.0
 10
37.720940
 20
0.263546
 30
0.0
 10
38.572144
 20
0.267065
 30
0.0
 10
39.470831
 20
0.271007
 30
0.0
 10
40.416261
 20
0.275294
 30
0.0
 10
41.407702
 20
0.279818
 30
0.0
 10
42.444425
 20
0.284528
 30
0.0
 10
43.525692
 20
0.289316
 30
0.0
 10
44.650774
 20
0.294105
 30
0.0
 10
45.818936
 20
0.298815
 30
0.0
 10
47.029445
 20
0.303339
 30
0.0
 10
48.281569
 20
0.307626
 30
0.0
 10
49.574575
 20
0.311568
 30
0.0
 10
50.907731
 20
0.315087
 30
0.0
 10
52.280299
 20
0.318103
 30
0.0
 10
53.691552
 20
0.320484
 30
0.0
 10
55.140757
 20
0.322336
 30
0.0
 10
56.627176
 20
0.323395
 30
0.0
 10
58.150080
 20
0.323575
 30
0.0
 10
59.083954
 20
0.323413
 30
0.0
 10
60.017827
 20
0.323252
 30
0.0
 10
60.951703
 20
0.323091
 30
0.0
 10
61.885576
 20
0.322929
 30
0.0
 10
62.819450
 20
0.322768
 30
0.0
 10
63.753323
 20
0.322606
 30
0.0
 10
64.687196
 20
0.322445
 30
0.0
 10
65.621072
 20
0.322284
 30
0.0
 10
66.554946
 20
0.322120
 30
0.0
 10
67.488819
 20
0.321958
 30
0.0
 10
68.422692
 20
0.321797
 30
0.0
 10
69.356566
 20
0.321635
 30
0.0
 10
70.290439
 20
0.321474
 30
0.0
 10
71.224315
 20
0.321313
 30
0.0
 10
72.158188
 20
0.321151
 30
0.0
 10
73.092062
 20
0.320990
 30
0.0
 10
74.025935
 20
0.320828
 30
0.0
 10
74.959808
 20
0.320667
 30
0.0
 10
75.893684
 20
0.320506
 30
0.0
 10
76.827557
 20
0.320344
 30
0.0
 10
77.761431
 20
0.320183
 30
0.0
 10
78.695304
 20
0.320021
 30
0.0
 10
79.629177
 20
0.319860
 30
0.0
 10
80.563051
 20
0.319696
 30
0.0
 10
81.496927
 20
0.319535
 30
0.0
 10
82.430800
 20
0.319373
 30
0.0
 10
83.364673
 20
0.319212
 30
0.0
 10
84.298547
 20
0.319050
 30
0.0
 10
85.232420
 20
0.318889
 30
0.0
 10
86.166296
 20
0.318728
 30
0.0
 10
87.100169
 20
0.318566
 30
0.0
 10
88.034043
 20
0.318405
 30
0.0
 10
88.057696
 20
0.343196
 30
0.0
 10
88.081350
 20
0.367988
 30
0.0
 10
88.105004
 20
0.392779
 30
0.0
 10
88.128658
 20
0.417571
 30
0.0
 10
88.152311
 20
0.442362
 30
0.0
 10
88.175965
 20
0.467154
 30
0.0
 10
88.199619
 20
0.491945
 30
0.0
 10
88.223273
 20
0.516736
 30
0.0
 10
88.246926
 20
0.541528
 30
0.0
 10
88.270580
 20
0.566319
 30
0.0
 10
88.294234
 20
0.591111
 30
0.0
 10
88.317888
 20
0.615902
 30
0.0
 10
88.341541
 20
0.640694
 30
0.0
 10
88.365195
 20
0.665485
 30
0.0
 10
88.388849
 20
0.690277
 30
0.0
 10
88.412503
 20
0.715068
 30
0.0
 10
88.436156
 20
0.739860
 30
0.0
 10
88.459810
 20
0.764651
 30
0.0
 10
88.483464
 20
0.789442
 30
0.0
 10
88.507118
 20
0.814234
 30
0.0
 10
88.530771
 20
0.839025
 30
0.0
 10
88.554425
 20
0.863817
 30
0.0
 10
88.578079
 20
0.888608
 30
0.0
 10
88.601733
 20
0.913400
 30
0.0
 10
88.625386
 20
0.938191
 30
0.0
 10
88.649040
 20
0.962983
 30
0.0
 10
88.672694
 20
0.987774
 30
0.0
 10
88.696348
 20
1.012566
 30
0.0
 10
88.720001
 20
1.037357
 30
0.0
 10
88.743655
 20
1.062149
 30
0.0
 10
88.767309
 20
1.086940
 30
0.0
 10
88.790963
 20
1.111731
 30
0.0
 10
88.876825
 20
1.224060
 30
0.0
 10
88.971094
 20
1.388171
 30
0.0
 10
89.073257
 20
1.601068
 30
0.0
 10
89.182800
 20
1.859759
 30
0.0
 10
89.299211
 20
2.161254
 30
0.0
 10
89.421986
 20
2.502559
 30
0.0
 10
89.550605
 20
2.880680
 30
0.0
 10
89.684561
 20
3.292628
 30
0.0
 10
89.823340
 20
3.735409
 30
0.0
 10
89.966435
 20
4.206031
 30
0.0
 10
90.113329
 20
4.701497
 30
0.0
 10
90.263514
 20
5.218821
 30
0.0
 10
90.416478
 20
5.755010
 30
0.0
 10
90.571709
 20
6.307066
 30
0.0
 10
90.728697
 20
6.872002
 30
0.0
 10
90.886928
 20
7.446822
 30
0.0
 10
91.045893
 20
8.028535
 30
0.0
 10
91.205079
 20
8.614148
 30
0.0
 10
91.363975
 20
9.200671
 30
0.0
 10
91.522068
 20
9.785109
 30
0.0
 10
91.678853
 20
10.364470
 30
0.0
 10
91.833808
 20
10.935761
 30
0.0
 10
91.986431
 20
11.495989
 30
0.0
 10
92.136206
 20
12.042164
 30
0.0
 10
92.282624
 20
12.571293
 30
0.0
 10
92.425171
 20
13.080381
 30
0.0
 10
92.563336
 20
13.566439
 30
0.0
 10
92.696607
 20
14.026472
 30
0.0
 10
92.824475
 20
14.457489
 30
0.0
 10
92.946426
 20
14.856494
 30
0.0
 10
93.061951
 20
15.220500
 30
0.0
 10
93.170539
 20
15.546512
 30
0.0
 10
93.250358
 20
15.779739
 30
0.0
 10
93.343915
 20
16.053284
 30
0.0
 10
93.450839
 20
16.364992
 30
0.0
 10
93.570750
 20
16.712713
 30
0.0
 10
93.703278
 20
17.094287
 30
0.0
 10
93.848042
 20
17.507561
 30
0.0
 10
94.004670
 20
17.950381
 30
0.0
 10
94.172789
 20
18.420593
 30
0.0
 10
94.352020
 20
18.916041
 30
0.0
 10
94.541988
 20
19.434571
 30
0.0
 10
94.742320
 20
19.974030
 30
0.0
 10
94.952637
 20
20.532262
 30
0.0
 10
95.172570
 20
21.107111
 30
0.0
 10
95.401738
 20
21.696426
 30
0.0
 10
95.639771
 20
22.298048
 30
0.0
 10
95.886288
 20
22.909826
 30
0.0
 10
96.140918
 20
23.529604
 30
0.0
 10
96.403284
 20
24.155228
 30
0.0
 10
96.673011
 20
24.784542
 30
0.0
 10
96.949723
 20
25.415393
 30
0.0
 10
97.233047
 20
26.045628
 30
0.0
 10
97.522607
 20
26.673087
 30
0.0
 10
97.818025
 20
27.295623
 30
0.0
 10
98.118930
 20
27.911073
 30
0.0
 10
98.424944
 20
28.517289
 30
0.0
 10
98.735695
 20
29.112114
 30
0.0
 10
99.050803
 20
29.693393
 30
0.0
 10
99.369898
 20
30.258972
 30
0.0
 10
99.692600
 20
30.806696
 30
0.0
 10
100.018535
 20
31.334413
 30
0.0
 10
100.347330
 20
31.839963
 30
0.0
 10
100.678610
 20
32.321198
 30
0.0
 10
100.820191
 20
32.523771
 30
0.0
 10
100.962304
 20
32.732530
 30
0.0
 10
101.105131
 20
32.946630
 30
0.0
 10
101.248845
 20
33.165229
 30
0.0
 10
101.393630
 20
33.387482
 30
0.0
 10
101.539662
 20
33.612550
 30
0.0
 10
101.687122
 20
33.839589
 30
0.0
 10
101.836183
 20
34.067752
 30
0.0
 10
101.987030
 20
34.296201
 30
0.0
 10
102.139837
 20
34.524092
 30
0.0
 10
102.294785
 20
34.750581
 30
0.0
 10
102.452053
 20
34.974826
 30
0.0
 10
102.611817
 20
35.195983
 30
0.0
 10
102.774258
 20
35.413211
 30
0.0
 10
102.939553
 20
35.625666
 30
0.0
 10
103.107881
 20
35.832504
 30
0.0
 10
103.279421
 20
36.032884
 30
0.0
 10
103.454353
 20
36.225964
 30
0.0
 10
103.632854
 20
36.410897
 30
0.0
 10
103.815102
 20
36.586842
 30
0.0
 10
104.001276
 20
36.752958
 30
0.0
 10
104.191554
 20
36.908401
 30
0.0
 10
104.386118
 20
37.052329
 30
0.0
 10
104.585140
 20
37.183898
 30
0.0
 10
104.788806
 20
37.302265
 30
0.0
 10
104.997289
 20
37.406585
 30
0.0
 10
105.210771
 20
37.496019
 30
0.0
 10
105.429431
 20
37.569724
 30
0.0
 10
105.653443
 20
37.626853
 30
0.0
 10
105.882990
 20
37.666567
 30
0.0
 10
106.118250
 20
37.688025
 30
0.0
 10
106.359399
 20
37.690406
 30
0.0
 10
106.570396
 20
37.675404
 30
0.0
 10
106.775199
 20
37.643982
 30
0.0
 10
106.974015
 20
37.596878
 30
0.0
 10
107.167045
 20
37.534820
 30
0.0
 10
107.354489
 20
37.458538
 30
0.0
 10
107.536554
 20
37.368760
 30
0.0
 10
107.713438
 20
37.266213
 30
0.0
 10
107.885349
 20
37.151627
 30
0.0
 10
108.052483
 20
37.025733
 30
0.0
 10
108.215049
 20
36.889255
 30
0.0
 10
108.373246
 20
36.742928
 30
0.0
 10
108.527276
 20
36.587477
 30
0.0
 10
108.677342
 20
36.423631
 30
0.0
 10
108.823646
 20
36.252120
 30
0.0
 10
108.966394
 20
36.073672
 30
0.0
 10
109.105784
 20
35.889017
 30
0.0
 10
109.242021
 20
35.698884
 30
0.0
 10
109.375307
 20
35.504000
 30
0.0
 10
109.505848
 20
35.305094
 30
0.0
 10
109.633840
 20
35.102897
 30
0.0
 10
109.759488
 20
34.898136
 30
0.0
 10
109.882998
 20
34.691539
 30
0.0
 10
110.004569
 20
34.483838
 30
0.0
 10
110.124404
 20
34.275760
 30
0.0
 10
110.242704
 20
34.068035
 30
0.0
 10
110.359677
 20
33.861388
 30
0.0
 10
110.475519
 20
33.656553
 30
0.0
 10
110.590436
 20
33.454257
 30
0.0
 10
110.704630
 20
33.255227
 30
0.0
 10
110.818305
 20
33.060195
 30
0.0
 10
110.931661
 20
32.869888
 30
0.0
 10
111.044902
 20
32.685034
 30
0.0
 10
111.341564
 20
32.196185
 30
0.0
 10
111.626631
 20
31.701903
 30
0.0
 10
111.900655
 20
31.202428
 30
0.0
 10
112.164188
 20
30.698003
 30
0.0
 10
112.417780
 20
30.188870
 30
0.0
 10
112.661985
 20
29.675269
 30
0.0
 10
112.897356
 20
29.157445
 30
0.0
 10
113.124443
 20
28.635639
 30
0.0
 10
113.343795
 20
28.110092
 30
0.0
 10
113.555970
 20
27.581047
 30
0.0
 10
113.761517
 20
27.048745
 30
0.0
 10
113.960986
 20
26.513427
 30
0.0
 10
114.154931
 20
25.975339
 30
0.0
 10
114.343902
 20
25.434718
 30
0.0
 10
114.528451
 20
24.891809
 30
0.0
 10
114.709133
 20
24.346852
 30
0.0
 10
114.886496
 20
23.800088
 30
0.0
 10
115.061095
 20
23.251763
 30
0.0
 10
115.233479
 20
22.702117
 30
0.0
 10
115.404201
 20
22.151392
 30
0.0
 10
115.573812
 20
21.599829
 30
0.0
 10
115.742868
 20
21.047670
 30
0.0
 10
115.911913
 20
20.495156
 30
0.0
 10
116.081505
 20
19.942532
 30
0.0
 10
116.252196
 20
19.390037
 30
0.0
 10
116.424535
 20
18.837915
 30
0.0
 10
116.599073
 20
18.286407
 30
0.0
 10
116.776365
 20
17.735756
 30
0.0
 10
116.956961
 20
17.186201
 30
0.0
 10
117.141413
 20
16.637987
 30
0.0
 10
117.330273
 20
16.091355
 30
0.0
 10
117.524093
 20
15.546546
 30
0.0
 10
117.720234
 20
14.994829
 30
0.0
 10
117.915563
 20
14.428599
 30
0.0
 10
118.109883
 20
13.849799
 30
0.0
 10
118.303000
 20
13.260371
 30
0.0
 10
118.494717
 20
12.662254
 30
0.0
 10
118.684839
 20
12.057385
 30
0.0
 10
118.873174
 20
11.447711
 30
0.0
 10
119.059526
 20
10.835163
 30
0.0
 10
119.243697
 20
10.221690
 30
0.0
 10
119.425495
 20
9.609227
 30
0.0
 10
119.604723
 20
8.999717
 30
0.0
 10
119.781190
 20
8.395099
 30
0.0
 10
119.954696
 20
7.797313
 30
0.0
 10
120.125048
 20
7.208298
 30
0.0
 10
120.292050
 20
6.629998
 30
0.0
 10
120.455510
 20
6.064350
 30
0.0
 10
120.615231
 20
5.513295
 30
0.0
 10
120.771017
 20
4.978773
 30
0.0
 10
120.922674
 20
4.462724
 30
0.0
 10
121.070007
 20
3.967091
 30
0.0
 10
121.212821
 20
3.493812
 30
0.0
 10
121.350920
 20
3.044827
 30
0.0
 10
121.484112
 20
2.622076
 30
0.0
 10
121.612197
 20
2.227500
 30
0.0
 10
121.734984
 20
1.863040
 30
0.0
 10
121.852277
 20
1.530633
 30
0.0
 10
121.963881
 20
1.232223
 30
0.0
 10
122.069600
 20
0.969751
 30
0.0
 10
122.169240
 20
0.745151
 30
0.0
 10
122.262606
 20
0.560369
 30
0.0
 10
122.349503
 20
0.417346
 30
0.0
 10
122.429735
 20
0.318016
 30
0.0
 10
122.494921
 20
0.254997
 30
0.0
 10
122.559982
 20
0.199977
 30
0.0
 10
122.630580
 20
0.152567
 30
0.0
 10
122.712376
 20
0.112371
 30
0.0
 10
122.811032
 20
0.078999
 30
0.0
 10
122.932205
 20
0.052057
 30
0.0
 10
123.081560
 20
0.031155
 30
0.0
 10
123.264758
 20
0.015888
 30
0.0
 10
123.487455
 20
0.005887
 30
0.0
 10
123.755314
 20
0.000754
 30
0.0
 10
124.073996
 20
-0.000040
 30
0.0
 10
124.449165
 20
0.003347
 30
0.0
 10
124.886476
 20
0.010438
 30
0.0
 10
125.391595
 20
0.020809
 30
0.0
 10
125.970180
 20
0.034091
 30
0.0
 10
126.627892
 20
0.049887
 30
0.0
 10
127.370390
 20
0.067773
 30
0.0
 10
128.203338
 20
0.087379
 30
0.0
 10
129.132396
 20
0.108334
 30
0.0
 10
130.163225
 20
0.130215
 30
0.0
 10
131.301484
 20
0.152651
 30
0.0
 10
132.552836
 20
0.175220
 30
0.0
 10
133.922939
 20
0.197551
 30
0.0
 10
135.417456
 20
0.219247
 30
0.0
 10
137.042048
 20
0.239937
 30
0.0
 10
138.802377
 20
0.259199
 30
0.0
 10
140.704098
 20
0.276661
 30
0.0
 10
142.752878
 20
0.291901
 30
0.0
 10
144.954373
 20
0.304549
 30
0.0
 10
147.314247
 20
0.314206
 30
0.0
 10
149.838160
 20
0.320503
 30
0.0
 10
152.531775
 20
0.323149
 30
0.0
 10
154.050925
 20
0.322979
 30
0.0
 10
155.525040
 20
0.321921
 30
0.0
 10
156.953957
 20
0.320069
 30
0.0
 10
158.337514
 20
0.317688
 30
0.0
 10
159.675543
 20
0.314671
 30
0.0
 10
160.967879
 20
0.311153
 30
0.0
 10
162.214360
 20
0.307210
 30
0.0
 10
163.414823
 20
0.302924
 30
0.0
 10
164.569099
 20
0.298400
 30
0.0
 10
165.677026
 20
0.293690
 30
0.0
 10
166.738442
 20
0.288901
 30
0.0
 10
167.753177
 20
0.284112
 30
0.0
 10
168.721070
 20
0.279403
 30
0.0
 10
169.641955
 20
0.274878
 30
0.0
 10
170.515670
 20
0.270592
 30
0.0
 10
171.342051
 20
0.266650
 30
0.0
 10
172.120929
 20
0.263131
 30
0.0
 10
172.852142
 20
0.260114
 30
0.0
 10
173.535527
 20
0.257733
 30
0.0
 10
174.170918
 20
0.255881
 30
0.0
 10
174.758150
 20
0.254823
 30
0.0
 10
175.297062
 20
0.254664
 30
0.0
 10
175.787483
 20
0.255458
 30
0.0
 10
176.229255
 20
0.257310
 30
0.0
 10
176.622211
 20
0.260167
 30
0.0
 10
176.966186
 20
0.264215
 30
0.0
 10
177.261016
 20
0.269534
 30
0.0
 10
177.506536
 20
0.276175
 30
0.0
 10
177.702582
 20
0.284244
 30
0.0
 10
177.848992
 20
0.293822
 30
0.0
 10
177.945596
 20
0.305014
 30
0.0
 10
177.992234
 20
0.317873
 30
0.0
 10
178.086042
 20
0.380254
 30
0.0
 10
178.181337
 20
0.449167
 30
0.0
 10
178.277701
 20
0.524542
 30
0.0
 10
178.374711
 20
0.606295
 30
0.0
 10
178.471953
 20
0.694351
 30
0.0
 10
178.569002
 20
0.788635
 30
0.0
 10
178.665443
 20
0.889069
 30
0.0
 10
178.760857
 20
0.995571
 30
0.0
 10
178.854821
 20
1.108070
 30
0.0
 10
178.946920
 20
1.226487
 30
0.0
 10
179.036733
 20
1.350743
 30
0.0
 10
179.123841
 20
1.480759
 30
0.0
 10
179.207828
 20
1.616464
 30
0.0
 10
179.288269
 20
1.757775
 30
0.0
 10
179.364750
 20
1.904619
 30
0.0
 10
179.436849
 20
2.056916
 30
0.0
 10
179.504146
 20
2.214589
 30
0.0
 10
179.566227
 20
2.377562
 30
0.0
 10
179.622666
 20
2.545757
 30
0.0
 10
179.673050
 20
2.719096
 30
0.0
 10
179.716958
 20
2.897505
 30
0.0
 10
179.753968
 20
3.080903
 30
0.0
 10
179.783662
 20
3.269213
 30
0.0
 10
179.805622
 20
3.462361
 30
0.0
 10
179.819434
 20
3.660267
 30
0.0
 10
179.824672
 20
3.862853
 30
0.0
 10
179.820915
 20
4.070043
 30
0.0
 10
179.807739
 20
4.281762
 30
0.0
 10
179.784747
 20
4.497930
 30
0.0
 10
179.751504
 20
4.718471
 30
0.0
 10
179.707592
 20
4.943305
 30
0.0
 10
179.652593
 20
5.172358
 30
0.0
 10
179.561303
 20
5.505318
 30
0.0
 10
179.448321
 20
5.892281
 30
0.0
 10
179.314934
 20
6.329743
 30
0.0
 10
179.162423
 20
6.814185
 30
0.0
 10
178.992071
 20
7.342092
 30
0.0
 10
178.805167
 20
7.909957
 30
0.0
 10
178.602985
 20
8.514260
 30
0.0
 10
178.386818
 20
9.151493
 30
0.0
 10
178.157943
 20
9.818140
 30
0.0
 10
177.917648
 20
10.510686
 30
0.0
 10
177.667215
 20
11.225620
 30
0.0
 10
177.407926
 20
11.959431
 30
0.0
 10
177.141064
 20
12.708601
 30
0.0
 10
176.867917
 20
13.469617
 30
0.0
 10
176.589765
 20
14.238970
 30
0.0
 10
176.307894
 20
15.013143
 30
0.0
 10
176.023584
 20
15.788626
 30
0.0
 10
175.738122
 20
16.561900
 30
0.0
 10
175.452790
 20
17.329457
 30
0.0
 10
175.168871
 20
18.087781
 30
0.0
 10
174.887651
 20
18.833361
 30
0.0
 10
174.610410
 20
19.562680
 30
0.0
 10
174.338434
 20
20.272229
 30
0.0
 10
174.073006
 20
20.958489
 30
0.0
 10
173.815411
 20
21.617953
 30
0.0
 10
173.566930
 20
22.247103
 30
0.0
 10
173.328847
 20
22.842429
 30
0.0
 10
173.102449
 20
23.400416
 30
0.0
 10
172.889015
 20
23.917550
 30
0.0
 10
172.689831
 20
24.390318
 30
0.0
 10
172.506181
 20
24.815210
 30
0.0
 10
172.339345
 20
25.188706
 30
0.0
 10
172.295369
 20
25.286271
 30
0.0
 10
172.246474
 20
25.396753
 30
0.0
 10
172.192851
 20
25.519692
 30
0.0
 10
172.134682
 20
25.654621
 30
0.0
 10
172.072159
 20
25.801081
 30
0.0
 10
172.005468
 20
25.958606
 30
0.0
 10
171.934792
 20
26.126733
 30
0.0
 10
171.860325
 20
26.305002
 30
0.0
 10
171.782249
 20
26.492940
 30
0.0
 10
171.700752
 20
26.690095
 30
0.0
 10
171.616022
 20
26.895996
 30
0.0
 10
171.528247
 20
27.110184
 30
0.0
 10
171.437611
 20
27.332193
 30
0.0
 10
171.344306
 20
27.561563
 30
0.0
 10
171.248513
 20
27.797826
 30
0.0
 10
171.150424
 20
28.040523
 30
0.0
 10
171.050224
 20
28.289186
 30
0.0
 10
170.948100
 20
28.543355
 30
0.0
 10
170.844241
 20
28.802568
 30
0.0
 10
170.738831
 20
29.066357
 30
0.0
 10
170.632058
 20
29.334261
 30
0.0
 10
170.524113
 20
29.605819
 30
0.0
 10
170.415176
 20
29.880565
 30
0.0
 10
170.305440
 20
30.158036
 30
0.0
 10
170.195093
 20
30.437769
 30
0.0
 10
170.084315
 20
30.719299
 30
0.0
 10
169.973301
 20
31.002165
 30
0.0
 10
169.862232
 20
31.285904
 30
0.0
 10
169.751300
 20
31.570051
 30
0.0
 10
169.640685
 20
31.854142
 30
0.0
 10
169.530584
 20
32.137717
 30
0.0
 10
169.421176
 20
32.420308
 30
0.0
 10
169.309551
 20
32.708667
 30
0.0
 10
169.192860
 20
33.009355
 30
0.0
 10
169.071400
 20
33.321624
 30
0.0
 10
168.945469
 20
33.644731
 30
0.0
 10
168.815357
 20
33.977926
 30
0.0
 10
168.681364
 20
34.320464
 30
0.0
 10
168.543786
 20
34.671600
 30
0.0
 10
168.402920
 20
35.030589
 30
0.0
 10
168.259058
 20
35.396683
 30
0.0
 10
168.112497
 20
35.769134
 30
0.0
 10
167.963537
 20
36.147202
 30
0.0
 10
167.812467
 20
36.530136
 30
0.0
 10
167.659589
 20
36.917190
 30
0.0
 10
167.505196
 20
37.307620
 30
0.0
 10
167.349584
 20
37.700680
 30
0.0
 10
167.193049
 20
38.095620
 30
0.0
 10
167.035886
 20
38.491699
 30
0.0
 10
166.878393
 20
38.888169
 30
0.0
 10
166.720863
 20
39.284285
 30
0.0
 10
166.563597
 20
39.679297
 30
0.0
 10
166.406884
 20
40.072463
 30
0.0
 10
166.251026
 20
40.463035
 30
0.0
 10
166.096314
 20
40.850266
 30
0.0
 10
165.943049
 20
41.233415
 30
0.0
 10
165.791522
 20
41.611729
 30
0.0
 10
165.642030
 20
41.984466
 30
0.0
 10
165.494871
 20
42.350880
 30
0.0
 10
165.350337
 20
42.710224
 30
0.0
 10
165.208729
 20
43.061749
 30
0.0
 10
165.070342
 20
43.404715
 30
0.0
 10
164.935468
 20
43.738373
 30
0.0
 10
164.804404
 20
44.061975
 30
0.0
 10
164.675123
 20
44.380964
 30
0.0
 10
164.545533
 20
44.700935
 30
0.0
 10
164.415847
 20
45.021367
 30
0.0
 10
164.286273
 20
45.341740
 30
0.0
 10
164.157016
 20
45.661532
 30
0.0
 10
164.028286
 20
45.980222
 30
0.0
 10
163.900293
 20
46.297294
 30
0.0
 10
163.773246
 20
46.612227
 30
0.0
 10
163.647352
 20
46.924496
 30
0.0
 10
163.522820
 20
47.233588
 30
0.0
 10
163.399858
 20
47.538978
 30
0.0
 10
163.278676
 20
47.840148
 30
0.0
 10
163.159481
 20
48.136576
 30
0.0
 10
163.042482
 20
48.427745
 30
0.0
 10
162.927889
 20
48.713130
 30
0.0
 10
162.815907
 20
48.992215
 30
0.0
 10
162.706747
 20
49.264479
 30
0.0
 10
162.600620
 20
49.529404
 30
0.0
 10
162.497732
 20
49.786465
 30
0.0
 10
162.398288
 20
50.035144
 30
0.0
 10
162.302504
 20
50.274920
 30
0.0
 10
162.210582
 20
50.505277
 30
0.0
 10
162.122735
 20
50.725691
 30
0.0
 10
162.039169
 20
50.935643
 30
0.0
 10
161.960096
 20
51.134612
 30
0.0
 10
161.885719
 20
51.322080
 30
0.0
 10
161.816250
 20
51.497523
 30
0.0
 10
161.751898
 20
51.660427
 30
0.0
 10
161.692872
 20
51.810266
 30
0.0
 10
161.639376
 20
51.946521
 30
0.0
 10
161.591624
 20
52.068676
 30
0.0
 10
161.549822
 20
52.176206
 30
0.0
 10
161.360328
 20
52.649749
 30
0.0
 10
161.144216
 20
53.161932
 30
0.0
 10
160.903125
 20
53.710313
 30
0.0
 10
160.638685
 20
54.292457
 30
0.0
 10
160.352527
 20
54.905922
 30
0.0
 10
160.046283
 20
55.548275
 30
0.0
 10
159.721586
 20
56.217076
 30
0.0
 10
159.380070
 20
56.909887
 30
0.0
 10
159.023366
 20
57.624267
 30
0.0
 10
158.653106
 20
58.357782
 30
0.0
 10
158.270923
 20
59.107992
 30
0.0
 10
157.878446
 20
59.872461
 30
0.0
 10
157.477313
 20
60.648746
 30
0.0
 10
157.069151
 20
61.434413
 30
0.0
 10
156.655597
 20
62.227025
 30
0.0
 10
156.238280
 20
63.024141
 30
0.0
 10
155.818834
 20
63.823322
 30
0.0
 10
155.398890
 20
64.622134
 30
0.0
 10
154.980081
 20
65.418138
 30
0.0
 10
154.564037
 20
66.208893
 30
0.0
 10
154.152393
 20
66.991962
 30
0.0
 10
153.746781
 20
67.764908
 30
0.0
 10
153.348835
 20
68.525291
 30
0.0
 10
152.960183
 20
69.270678
 30
0.0
 10
152.582461
 20
69.998626
 30
0.0
 10
152.217299
 20
70.706696
 30
0.0
 10
151.866329
 20
71.392454
 30
0.0
 10
151.531187
 20
72.053459
 30
0.0
 10
151.213499
 20
72.687277
 30
0.0
 10
150.914903
 20
73.291466
 30
0.0
 10
150.637030
 20
73.863588
 30
0.0
 10
150.381511
 20
74.401205
 30
0.0
 10
150.227349
 20
74.733289
 30
0.0
 10
150.082400
 20
75.053043
 30
0.0
 10
149.946634
 20
75.360804
 30
0.0
 10
149.820029
 20
75.656910
 30
0.0
 10
149.702551
 20
75.941699
 30
0.0
 10
149.594180
 20
76.215506
 30
0.0
 10
149.494885
 20
76.478674
 30
0.0
 10
149.404641
 20
76.731533
 30
0.0
 10
149.323419
 20
76.974429
 30
0.0
 10
149.251193
 20
77.207691
 30
0.0
 10
149.187934
 20
77.431663
 30
0.0
 10
149.133617
 20
77.646680
 30
0.0
 10
149.088215
 20
77.853078
 30
0.0
 10
149.051702
 20
78.051198
 30
0.0
 10
149.024048
 20
78.241378
 30
0.0
 10
149.005236
 20
78.423951
 30
0.0
 10
148.995208
 20
78.599256
 30
0.0
 10
148.993886
 20
78.767634
 30
0.0
 10
149.001400
 20
78.929419
 30
0.0
 10
149.017645
 20
79.084952
 30
0.0
 10
149.042595
 20
79.234566
 30
0.0
 10
149.076205
 20
79.378600
 30
0.0
 10
149.118462
 20
79.517395
 30
0.0
 10
149.169333
 20
79.651285
 30
0.0
 10
149.228796
 20
79.780608
 30
0.0
 10
149.296820
 20
79.905700
 30
0.0
 10
149.373380
 20
80.026903
 30
0.0
 10
149.458449
 20
80.144553
 30
0.0
 10
149.552000
 20
80.258985
 30
0.0
 10
149.654005
 20
80.370538
 30
0.0
 10
149.764437
 20
80.479549
 30
0.0
 10
149.883269
 20
80.586359
 30
0.0
 10
150.019551
 20
80.685303
 30
0.0
 10
150.198049
 20
80.784762
 30
0.0
 10
150.417365
 20
80.884690
 30
0.0
 10
150.676093
 20
80.985031
 30
0.0
 10
150.972837
 20
81.085731
 30
0.0
 10
151.306190
 20
81.186741
 30
0.0
 10
151.674752
 20
81.288008
 30
0.0
 10
152.077125
 20
81.389475
 30
0.0
 10
152.511905
 20
81.491091
 30
0.0
 10
152.977688
 20
81.592805
 30
0.0
 10
153.473075
 20
81.694566
 30
0.0
 10
153.996664
 20
81.796317
 30
0.0
 10
154.547053
 20
81.898007
 30
0.0
 10
155.122842
 20
81.999583
 30
0.0
 10
155.722629
 20
82.100993
 30
0.0
 10
156.345011
 20
82.202183
 30
0.0
 10
156.988588
 20
82.303103
 30
0.0
 10
157.651957
 20
82.403697
 30
0.0
 10
158.333719
 20
82.503914
 30
0.0
 10
159.032471
 20
82.603704
 30
0.0
 10
159.746809
 20
82.703007
 30
0.0
 10
160.475336
 20
82.801776
 30
0.0
 10
161.216649
 20
82.899960
 30
0.0
 10
161.969343
 20
82.997502
 30
0.0
 10
162.732020
 20
83.094347
 30
0.0
 10
163.503278
 20
83.190449
 30
0.0
 10
164.281717
 20
83.285752
 30
0.0
 10
165.065931
 20
83.380203
 30
0.0
 10
165.854522
 20
83.473752
 30
0.0
 10
166.646086
 20
83.566340
 30
0.0
 10
167.439225
 20
83.657920
 30
0.0
 10
168.232536
 20
83.748439
 30
0.0
 10
168.092447
 20
83.492222
 30
0.0
 10
167.950472
 20
83.235645
 30
0.0
 10
167.806670
 20
82.978640
 30
0.0
 10
167.661097
 20
82.721131
 30
0.0
 10
167.513808
 20
82.463054
 30
0.0
 10
167.364864
 20
82.204334
 30
0.0
 10
167.214319
 20
81.944902
 30
0.0
 10
167.062226
 20
81.684684
 30
0.0
 10
166.908648
 20
81.423615
 30
0.0
 10
166.753637
 20
81.161619
 30
0.0
 10
166.597252
 20
80.898628
 30
0.0
 10
166.439547
 20
80.634569
 30
0.0
 10
166.280583
 20
80.369372
 30
0.0
 10
166.120415
 20
80.102965
 30
0.0
 10
165.959096
 20
79.835281
 30
0.0
 10
165.796686
 20
79.566247
 30
0.0
 10
165.633243
 20
79.295793
 30
0.0
 10
165.468820
 20
79.023846
 30
0.0
 10
165.303477
 20
78.750336
 30
0.0
 10
165.137268
 20
78.475193
 30
0.0
 10
164.970250
 20
78.198344
 30
0.0
 10
164.802480
 20
77.919722
 30
0.0
 10
164.634017
 20
77.639253
 30
0.0
 10
164.464914
 20
77.356868
 30
0.0
 10
164.295229
 20
77.072497
 30
0.0
 10
164.125020
 20
76.786067
 30
0.0
 10
163.954340
 20
76.497504
 30
0.0
 10
163.783250
 20
76.206746
 30
0.0
 10
163.611802
 20
75.913714
 30
0.0
 10
163.440059
 20
75.618344
 30
0.0
 10
163.268072
 20
75.320558
 30
0.0
 10
163.095899
 20
75.020290
 30
0.0
 10
162.635617
 20
74.157942
 30
0.0
 10
162.259496
 20
73.330029
 30
0.0
 10
161.965094
 20
72.536597
 30
0.0
 10
161.749961
 20
71.777692
 30
0.0
 10
161.611653
 20
71.053358
 30
0.0
 10
161.547719
 20
70.363645
 30
0.0
 10
161.555709
 20
69.708598
 30
0.0
 10
161.633185
 20
69.088263
 30
0.0
 10
161.777695
 20
68.502685
 30
0.0
 10
161.986792
 20
67.951912
 30
0.0
 10
162.258027
 20
67.435991
 30
0.0
 10
162.588958
 20
66.954968
 30
0.0
 10
162.977133
 20
66.508886
 30
0.0
 10
163.420109
 20
66.097795
 30
0.0
 10
163.915436
 20
65.721740
 30
0.0
 10
164.460668
 20
65.380766
 30
0.0
 10
165.053355
 20
65.074918
 30
0.0
 10
165.691054
 20
64.804249
 30
0.0
 10
166.371316
 20
64.568799
 30
0.0
 10
167.091698
 20
64.368615
 30
0.0
 10
167.849745
 20
64.203746
 30
0.0
 10
168.643016
 20
64.074237
 30
0.0
 10
169.469061
 20
63.980133
 30
0.0
 10
170.325432
 20
63.921480
 30
0.0
 10
171.209688
 20
63.898329
 30
0.0
 10
172.119376
 20
63.910712
 30
0.0
 10
173.052051
 20
63.958694
 30
0.0
 10
174.005265
 20
64.042313
 30
0.0
 10
174.976572
 20
64.161616
 30
0.0
 10
175.963523
 20
64.316649
 30
0.0
 10
176.963675
 20
64.507456
 30
0.0
 10
177.974576
 20
64.734087
 30
0.0
 10
179.404519
 20
65.081953
 30
0.0
 10
180.817233
 20
65.497825
 30
0.0
 10
182.210955
 20
65.980473
 30
0.0
 10
183.583909
 20
66.528663
 30
0.0
 10
184.934335
 20
67.141160
 30
0.0
 10
186.260461
 20
67.816737
 30
0.0
 10
187.560523
 20
68.554157
 30
0.0
 10
188.832753
 20
69.352188
 30
0.0
 10
190.075379
 20
70.209597
 30
0.0
 10
191.286642
 20
71.125153
 30
0.0
 10
192.464765
 20
72.097621
 30
0.0
 10
193.607987
 20
73.125768
 30
0.0
 10
194.714538
 20
74.208366
 30
0.0
 10
195.782651
 20
75.344175
 30
0.0
 10
196.810560
 20
76.531969
 30
0.0
 10
197.796495
 20
77.770510
 30
0.0
 10
198.738689
 20
79.058568
 30
0.0
 10
199.635376
 20
80.394909
 30
0.0
 10
200.484789
 20
81.778302
 30
0.0
 10
201.285158
 20
83.207515
 30
0.0
 10
202.034718
 20
84.681310
 30
0.0
 10
202.731699
 20
86.198460
 30
0.0
 10
203.374335
 20
87.757729
 30
0.0
 10
203.960858
 20
89.357884
 30
0.0
 10
204.489503
 20
90.997695
 30
0.0
 10
204.958499
 20
92.675928
 30
0.0
 10
205.366081
 20
94.391349
 30
0.0
 10
205.710479
 20
96.142726
 30
0.0
 10
205.989929
 20
97.928828
 30
0.0
 10
206.202659
 20
99.748420
 30
0.0
 10
206.346907
 20
101.600268
 30
0.0
 10
206.420901
 20
103.483144
 30
0.0
 10
206.402354
 20
105.147476
 30
0.0
 10
206.323502
 20
106.810380
 30
0.0
 10
206.183075
 20
108.469145
 30
0.0
 10
205.979814
 20
110.121055
 30
0.0
 10
205.712455
 20
111.763395
 30
0.0
 10
205.379736
 20
113.393454
 30
0.0
 10
204.980393
 20
115.008513
 30
0.0
 10
204.513165
 20
116.605860
 30
0.0
 10
203.976789
 20
118.182780
 30
0.0
 10
203.369998
 20
119.736556
 30
0.0
 10
202.691538
 20
121.264477
 30
0.0
 10
201.940140
 20
122.763828
 30
0.0
 10
201.114542
 20
124.231893
 30
0.0
 10
200.213482
 20
125.665958
 30
0.0
 10
199.235699
 20
127.063310
 30
0.0
 10
198.179929
 20
128.421231
 30
0.0
 10
197.044909
 20
129.737012
 30
0.0
 10
195.829376
 20
131.007935
 30
0.0
 10
194.532069
 20
132.231284
 30
0.0
 10
193.151724
 20
133.404349
 30
0.0
 10
191.687078
 20
134.524409
 30
0.0
 10
190.136871
 20
135.588757
 30
0.0
 10
188.499838
 20
136.594673
 30
0.0
 10
186.774716
 20
137.539445
 30
0.0
 10
184.960243
 20
138.420359
 30
0.0
 10
183.055158
 20
139.234699
 30
0.0
 10
181.058194
 20
139.979750
 30
0.0
 10
178.968094
 20
140.652799
 30
0.0
 10
176.783591
 20
141.251131
 30
0.0
 10
174.503425
 20
141.772032
 30
0.0
 10
172.126332
 20
142.212785
 30
0.0
 10
169.651049
 20
142.570679
 30
0.0
 10
168.870052
 20
142.639254
 30
0.0
 10
168.123014
 20
142.673015
 30
0.0
 10
167.409851
 20
142.673107
 30
0.0
 10
166.730475
 20
142.640677
 30
0.0
 10
166.084802
 20
142.576868
 30
0.0
 10
165.472747
 20
142.482824
 30
0.0
 10
164.894224
 20
142.359693
 30
0.0
 10
164.349151
 20
142.208618
 30
0.0
 10
163.837439
 20
142.030744
 30
0.0
 10
163.359006
 20
141.827219
 30
0.0
 10
162.913763
 20
141.599180
 30
0.0
 10
162.501632
 20
141.347780
 30
0.0
 10
162.122518
 20
141.074159
 30
0.0
 10
161.776345
 20
140.779466
 30
0.0
 10
161.463023
 20
140.464842
 30
0.0
 10
161.182470
 20
140.131433
 30
0.0
 10
160.934597
 20
139.780384
 30
0.0
 10
160.719324
 20
139.412840
 30
0.0
 10
160.536561
 20
139.029948
 30
0.0
 10
160.386225
 20
138.632849
 30
0.0
 10
160.268228
 20
138.222692
 30
0.0
 10
160.182493
 20
137.800618
 30
0.0
 10
160.128925
 20
137.367775
 30
0.0
 10
160.107441
 20
136.925305
 30
0.0
 10
160.117972
 20
136.474354
 30
0.0
 10
160.160411
 20
136.016069
 30
0.0
 10
160.234679
 20
135.551593
 30
0.0
 10
160.340695
 20
135.082072
 30
0.0
 10
160.478371
 20
134.608647
 30
0.0
 10
160.647625
 20
134.132469
 30
0.0
 10
160.848370
 20
133.654676
 30
0.0
 10
161.080518
 20
133.176421
 30
0.0
 10
161.271359
 20
132.890597
 30
0.0
 10
161.460507
 20
132.608159
 30
0.0
 10
161.647967
 20
132.329048
 30
0.0
 10
161.833734
 20
132.053201
 30
0.0
 10
162.017807
 20
131.780556
 30
0.0
 10
162.200192
 20
131.511049
 30
0.0
 10
162.380884
 20
131.244621
 30
0.0
 10
162.559888
 20
130.981210
 30
0.0
 10
162.737198
 20
130.720754
 30
0.0
 10
162.912818
 20
130.463190
 30
0.0
 10
163.086747
 20
130.208457
 30
0.0
 10
163.258988
 20
129.956497
 30
0.0
 10
163.429536
 20
129.707241
 30
0.0
 10
163.598396
 20
129.460634
 30
0.0
 10
163.765562
 20
129.216608
 30
0.0
 10
163.931041
 20
128.975107
 30
0.0
 10
164.094831
 20
128.736067
 30
0.0
 10
164.256928
 20
128.499426
 30
0.0
 10
164.417337
 20
128.265122
 30
0.0
 10
164.576055
 20
128.033093
 30
0.0
 10
164.733085
 20
127.803278
 30
0.0
 10
164.888425
 20
127.575615
 30
0.0
 10
165.042076
 20
127.350042
 30
0.0
 10
165.194037
 20
127.126498
 30
0.0
 10
165.344310
 20
126.904923
 30
0.0
 10
165.492892
 20
126.685250
 30
0.0
 10
165.639789
 20
126.467421
 30
0.0
 10
165.784992
 20
126.251375
 30
0.0
 10
165.928510
 20
126.037047
 30
0.0
 10
166.070340
 20
125.824380
 30
0.0
 10
166.210479
 20
125.613306
 30
0.0
 10
166.348930
 20
125.403769
 30
0.0
 10
165.435414
 20
125.510825
 30
0.0
 10
164.519519
 20
125.614915
 30
0.0
 10
163.601478
 20
125.716541
 30
0.0
 10
162.681525
 20
125.816213
 30
0.0
 10
161.759891
 20
125.914431
 30
0.0
 10
160.836815
 20
126.011700
 30
0.0
 10
159.912531
 20
126.108527
 30
0.0
 10
158.987272
 20
126.205415
 30
0.0
 10
158.061270
 20
126.302866
 30
0.0
 10
157.134763
 20
126.401391
 30
0.0
 10
156.207983
 20
126.501489
 30
0.0
 10
155.281163
 20
126.603665
 30
0.0
 10
154.354542
 20
126.708427
 30
0.0
 10
153.428350
 20
126.816277
 30
0.0
 10
152.502821
 20
126.927719
 30
0.0
 10
151.578193
 20
127.043257
 30
0.0
 10
150.654696
 20
127.163399
 30
0.0
 10
149.732568
 20
127.288648
 30
0.0
 10
148.812040
 20
127.419508
 30
0.0
 10
147.893349
 20
127.556483
 30
0.0
 10
146.976726
 20
127.700078
 30
0.0
 10
146.062408
 20
127.850797
 30
0.0
 10
145.150628
 20
128.009148
 30
0.0
 10
144.241622
 20
128.175632
 30
0.0
 10
143.335620
 20
128.350751
 30
0.0
 10
142.432862
 20
128.535018
 30
0.0
 10
141.533578
 20
128.728928
 30
0.0
 10
140.638003
 20
128.932994
 30
0.0
 10
139.746373
 20
129.147714
 30
0.0
 10
138.858921
 20
129.373596
 30
0.0
 10
137.975879
 20
129.611144
 30
0.0
 10
137.097486
 20
129.860861
 30
0.0
 10
137.042638
 20
129.877133
 30
0.0
 10
136.987401
 20
129.894040
 30
0.0
 10
136.931831
 20
129.911529
 30
0.0
 10
136.875980
 20
129.929600
 30
0.0
 10
136.819907
 20
129.948226
 30
0.0
 10
136.763664
 20
129.967382
 30
0.0
 10
136.707308
 20
129.987041
 30
0.0
 10
136.650893
 20
130.007202
 30
0.0
 10
136.594476
 20
130.027813
 30
0.0
 10
136.538112
 20
130.048874
 30
0.0
 10
136.481854
 20
130.070331
 30
0.0
 10
136.425754
 20
130.092186
 30
0.0
 10
136.369874
 20
130.114411
 30
0.0
 10
136.314267
 20
130.136980
 30
0.0
 10
136.258987
 20
130.159866
 30
0.0
 10
136.204089
 20
130.183070
 30
0.0
 10
136.149627
 20
130.206539
 30
0.0
 10
136.095657
 20
130.230272
 30
0.0
 10
136.042238
 20
130.254243
 30
0.0
 10
135.989419
 20
130.278426
 30
0.0
 10
135.937257
 20
130.302794
 30
0.0
 10
135.885811
 20
130.327321
 30
0.0
 10
135.835130
 20
130.351980
 30
0.0
 10
135.785272
 20
130.376772
 30
0.0
 10
135.736292
 20
130.401643
 30
0.0
 10
135.688247
 20
130.426593
 30
0.0
 10
135.641190
 20
130.451596
 30
0.0
 10
135.595174
 20
130.476626
 30
0.0
 10
135.550258
 20
130.501655
 30
0.0
 10
135.506496
 20
130.526658
 30
0.0
 10
135.463943
 20
130.551635
 30
0.0
 10
135.422653
 20
130.576532
 30
0.0
 10
135.382335
 20
130.601562
 30
0.0
 10
135.342650
 20
130.626909
 30
0.0
 10
135.303590
 20
130.652600
 30
0.0
 10
135.265146
 20
130.678661
 30
0.0
 10
135.227311
 20
130.705093
 30
0.0
 10
135.190073
 20
130.731898
 30
0.0
 10
135.153428
 20
130.759103
 30
0.0
 10
135.117366
 20
130.786723
 30
0.0
 10
135.081877
 20
130.814771
 30
0.0
 10
135.046955
 20
130.843261
 30
0.0
 10
135.012588
 20
130.872209
 30
0.0
 10
134.978772
 20
130.901628
 30
0.0
 10
134.945495
 20
130.931534
 30
0.0
 10
134.912750
 20
130.961943
 30
0.0
 10
134.880527
 20
130.992867
 30
0.0
 10
134.848822
 20
131.024321
 30
0.0
 10
134.817619
 20
131.056320
 30
0.0
 10
134.786917
 20
131.088879
 30
0.0
 10
134.756704
 20
131.122010
 30
0.0
 10
134.726973
 20
131.155734
 30
0.0
 10
134.697713
 20
131.190059
 30
0.0
 10
134.668918
 20
131.225002
 30
0.0
 10
134.640579
 20
131.260575
 30
0.0
 10
134.612686
 20
131.296800
 30
0.0
 10
134.585230
 20
131.333682
 30
0.0
 10
134.558209
 20
131.371243
 30
0.0
 10
134.531607
 20
131.409494
 30
0.0
 10
134.505414
 20
131.448448
 30
0.0
 10
134.479617
 20
131.488125
 30
0.0
 10
134.454243
 20
131.528535
 30
0.0
 10
134.429240
 20
131.569696
 30
0.0
 10
134.404607
 20
131.611619
 30
0.0
 10
134.391934
 20
131.637496
 30
0.0
 10
134.379366
 20
131.670873
 30
0.0
 10
134.366878
 20
131.711505
 30
0.0
 10
134.354495
 20
131.759148
 30
0.0
 10
134.342219
 20
131.813563
 30
0.0
 10
134.330048
 20
131.874507
 30
0.0
 10
134.317956
 20
131.941740
 30
0.0
 10
134.305971
 20
132.015016
 30
0.0
 10
134.294064
 20
132.094100
 30
0.0
 10
134.282264
 20
132.178748
 30
0.0
 10
134.270543
 20
132.268720
 30
0.0
 10
134.258928
 20
132.363772
 30
0.0
 10
134.247392
 20
132.463665
 30
0.0
 10
134.235935
 20
132.568154
 30
0.0
 10
134.224558
 20
132.677004
 30
0.0
 10
134.213287
 20
132.789968
 30
0.0
 10
134.202095
 20
132.906805
 30
0.0
 10
134.190983
 20
133.027278
 30
0.0
 10
134.179950
 20
133.151142
 30
0.0
 10
134.168996
 20
133.278158
 30
0.0
 10
134.158095
 20
133.408082
 30
0.0
 10
134.147274
 20
133.540673
 30
0.0
 10
134.136532
 20
133.675692
 30
0.0
 10
134.125869
 20
133.812897
 30
0.0
 10
134.115259
 20
133.952044
 30
0.0
 10
134.104729
 20
134.092895
 30
0.0
 10
134.094278
 20
134.235209
 30
0.0
 10
134.083879
 20
134.378740
 30
0.0
 10
134.073561
 20
134.523253
 30
0.0
 10
134.063295
 20
134.668501
 30
0.0
 10
134.053082
 20
134.814244
 30
0.0
 10
134.042948
 20
134.960244
 30
0.0
 10
134.149255
 20
134.960244
 30
0.0
 10
134.255565
 20
134.960244
 30
0.0
 10
134.361872
 20
134.960244
 30
0.0
 10
134.468181
 20
134.960244
 30
0.0
 10
134.574488
 20
134.960244
 30
0.0
 10
134.680798
 20
134.960244
 30
0.0
 10
134.787105
 20
134.960244
 30
0.0
 10
134.893412
 20
134.960244
 30
0.0
 10
134.999721
 20
134.960244
 30
0.0
 10
135.106028
 20
134.960244
 30
0.0
 10
135.212338
 20
134.960244
 30
0.0
 10
135.318645
 20
134.960244
 30
0.0
 10
135.424954
 20
134.960244
 30
0.0
 10
135.531261
 20
134.960244
 30
0.0
 10
135.637571
 20
134.960244
 30
0.0
 10
135.743878
 20
134.960244
 30
0.0
 10
135.850185
 20
134.960244
 30
0.0
 10
135.956494
 20
134.960244
 30
0.0
 10
136.062801
 20
134.960244
 30
0.0
 10
136.169111
 20
134.960244
 30
0.0
 10
136.275418
 20
134.960244
 30
0.0
 10
136.381727
 20
134.960244
 30
0.0
 10
136.488034
 20
134.960244
 30
0.0
 10
136.594341
 20
134.960244
 30
0.0
 10
136.700651
 20
134.960244
 30
0.0
 10
136.806958
 20
134.960244
 30
0.0
 10
136.913267
 20
134.960244
 30
0.0
 10
137.019574
 20
134.960244
 30
0.0
 10
137.125884
 20
134.960244
 30
0.0
 10
137.232191
 20
134.960244
 30
0.0
 10
137.338500
 20
134.960244
 30
0.0
 10
137.444807
 20
134.960244
 30
0.0
 10
137.972744
 20
134.977733
 30
0.0
 10
138.535235
 20
135.029390
 30
0.0
 10
139.129182
 20
135.113980
 30
0.0
 10
139.751479
 20
135.230281
 30
0.0
 10
140.399026
 20
135.377058
 30
0.0
 10
141.068718
 20
135.553083
 30
0.0
 10
141.757457
 20
135.757132
 30
0.0
 10
142.462138
 20
135.987973
 30
0.0
 10
143.179662
 20
136.244378
 30
0.0
 10
143.906922
 20
136.525117
 30
0.0
 10
144.640818
 20
136.828962
 30
0.0
 10
145.378249
 20
137.154688
 30
0.0
 10
146.116113
 20
137.501062
 30
0.0
 10
146.851306
 20
137.866856
 30
0.0
 10
147.580727
 20
138.250841
 30
0.0
 10
148.301273
 20
138.651790
 30
0.0
 10
149.009843
 20
139.068474
 30
0.0
 10
149.703334
 20
139.499666
 30
0.0
 10
150.378643
 20
139.944134
 30
0.0
 10
151.032669
 20
140.400649
 30
0.0
 10
151.662312
 20
140.867985
 30
0.0
 10
152.264466
 20
141.344915
 30
0.0
 10
152.836032
 20
141.830206
 30
0.0
 10
153.373904
 20
142.322632
 30
0.0
 10
153.874985
 20
142.820962
 30
0.0
 10
154.336167
 20
143.323972
 30
0.0
 10
154.754351
 20
143.830427
 30
0.0
 10
155.126438
 20
144.339104
 30
0.0
 10
155.449319
 20
144.848771
 30
0.0
 10
155.719898
 20
145.358200
 30
0.0
 10
155.935068
 20
145.866163
 30
0.0
 10
156.091730
 20
146.371432
 30
0.0
 10
156.301627
 20
146.768035
 30
0.0
 10
156.506346
 20
147.139962
 30
0.0
 10
156.706471
 20
147.488500
 30
0.0
 10
156.902596
 20
147.814925
 30
0.0
 10
157.095311
 20
148.120524
 30
0.0
 10
157.285207
 20
148.406578
 30
0.0
 10
157.472871
 20
148.674368
 30
0.0
 10
157.658894
 20
148.925177
 30
0.0
 10
157.843870
 20
149.160291
 30
0.0
 10
158.028382
 20
149.380985
 30
0.0
 10
158.213027
 20
149.588548
 30
0.0
 10
158.398392
 20
149.784258
 30
0.0
 10
158.585066
 20
149.969400
 30
0.0
 10
158.773642
 20
150.145256
 30
0.0
 10
158.964706
 20
150.313107
 30
0.0
 10
159.158854
 20
150.474236
 30
0.0
 10
159.356670
 20
150.629925
 30
0.0
 10
159.558751
 20
150.781454
 30
0.0
 10
159.765679
 20
150.930110
 30
0.0
 10
159.978049
 20
151.077174
 30
0.0
 10
160.196452
 20
151.223927
 30
0.0
 10
160.421475
 20
151.371652
 30
0.0
 10
160.653710
 20
151.521629
 30
0.0
 10
160.893748
 20
151.675145
 30
0.0
 10
161.142176
 20
151.833477
 30
0.0
 10
161.399587
 20
151.997913
 30
0.0
 10
161.666570
 20
152.169731
 30
0.0
 10
161.943716
 20
152.350214
 30
0.0
 10
162.231611
 20
152.540647
 30
0.0
 10
162.530850
 20
152.742308
 30
0.0
 10
162.842024
 20
152.956483
 30
0.0
 10
163.165717
 20
153.184452
 30
0.0
 10
163.683756
 20
153.651722
 30
0.0
 10
164.203024
 20
154.258498
 30
0.0
 10
164.719642
 20
154.993353
 30
0.0
 10
165.229716
 20
155.844863
 30
0.0
 10
165.729366
 20
156.801602
 30
0.0
 10
166.214704
 20
157.852143
 30
0.0
 10
166.681842
 20
158.985061
 30
0.0
 10
167.126895
 20
160.188931
 30
0.0
 10
167.545974
 20
161.452326
 30
0.0
 10
167.935197
 20
162.763821
 30
0.0
 10
168.290673
 20
164.111990
 30
0.0
 10
168.608519
 20
165.485408
 30
0.0
 10
168.884850
 20
166.872648
 30
0.0
 10
169.115776
 20
168.262285
 30
0.0
 10
169.297412
 20
169.642893
 30
0.0
 10
169.425870
 20
171.003047
 30
0.0
 10
169.497268
 20
172.331320
 30
0.0
 10
169.507719
 20
173.616287
 30
0.0
 10
169.453331
 20
174.846523
 30
0.0
 10
169.330223
 20
176.010601
 30
0.0
 10
169.134506
 20
177.097097
 30
0.0
 10
168.862294
 20
178.094583
 30
0.0
 10
168.509703
 20
178.991634
 30
0.0
 10
168.072844
 20
179.776825
 30
0.0
 10
167.547831
 20
180.438730
 30
0.0
 10
166.930778
 20
180.965924
 30
0.0
 10
166.217800
 20
181.346979
 30
0.0
 10
165.405008
 20
181.570472
 30
0.0
 10
164.488518
 20
181.624975
 30
0.0
 10
163.464445
 20
181.499064
 30
0.0
 10
162.328899
 20
181.181312
 30
0.0
 10
161.077994
 20
180.660294
 30
0.0
 10
160.033694
 20
180.104644
 30
0.0
 10
159.046113
 20
179.564153
 30
0.0
 10
158.112083
 20
179.038783
 30
0.0
 10
157.228428
 20
178.528499
 30
0.0
 10
156.391977
 20
178.033265
 30
0.0
 10
155.599552
 20
177.553046
 30
0.0
 10
154.847988
 20
177.087805
 30
0.0
 10
154.134102
 20
176.637507
 30
0.0
 10
153.454731
 20
176.202116
 30
0.0
 10
152.806695
 20
175.781596
 30
0.0
 10
152.186824
 20
175.375912
 30
0.0
 10
151.591943
 20
174.985027
 30
0.0
 10
151.018882
 20
174.608906
 30
0.0
 10
150.464466
 20
174.247513
 30
0.0
 10
149.925521
 20
173.900812
 30
0.0
 10
149.398875
 20
173.568767
 30
0.0
 10
148.881356
 20
173.251343
 30
0.0
 10
148.369789
 20
172.948504
 30
0.0
 10
147.861003
 20
172.660213
 30
0.0
 10
147.351823
 20
172.386436
 30
0.0
 10
146.839079
 20
172.127136
 30
0.0
 10
146.319594
 20
171.882278
 30
0.0
 10
145.790197
 20
171.651825
 30
0.0
 10
145.247714
 20
171.435743
 30
0.0
 10
144.688972
 20
171.233994
 30
0.0
 10
144.110802
 20
171.046544
 30
0.0
 10
143.510026
 20
170.873357
 30
0.0
 10
142.883471
 20
170.714396
 30
0.0
 10
142.227966
 20
170.569626
 30
0.0
 10
141.540338
 20
170.439011
 30
0.0
 10
140.817414
 20
170.322516
 30
0.0
 10
140.056020
 20
170.220104
 30
0.0
 10
139.924125
 20
170.217829
 30
0.0
 10
139.791124
 20
170.215633
 30
0.0
 10
139.657004
 20
170.213543
 30
0.0
 10
139.521739
 20
170.211558
 30
0.0
 10
139.385312
 20
170.209653
 30
0.0
 10
139.247702
 20
170.207854
 30
0.0
 10
139.108886
 20
170.206134
 30
0.0
 10
138.968850
 20
170.204520
 30
0.0
 10
138.827567
 20
170.202986
 30
0.0
 10
138.685023
 20
170.201530
 30
0.0
 10
138.541196
 20
170.200155
 30
0.0
 10
138.396061
 20
170.198858
 30
0.0
 10
138.249606
 20
170.197641
 30
0.0
 10
138.101805
 20
170.196503
 30
0.0
 10
137.952641
 20
170.195445
 30
0.0
 10
137.802090
 20
170.194466
 30
0.0
 10
137.650137
 20
170.193567
 30
0.0
 10
137.496758
 20
170.192720
 30
0.0
 10
137.341937
 20
170.191953
 30
0.0
 10
137.185648
 20
170.191265
 30
0.0
 10
137.027877
 20
170.190630
 30
0.0
 10
136.868598
 20
170.190074
 30
0.0
 10
136.707795
 20
170.189571
 30
0.0
 10
136.545446
 20
170.189122
 30
0.0
 10
136.381534
 20
170.188725
 30
0.0
 10
136.216035
 20
170.188407
 30
0.0
 10
136.048929
 20
170.188143
 30
0.0
 10
135.880199
 20
170.187923
 30
0.0
 10
135.709823
 20
170.187755
 30
0.0
 10
135.537781
 20
170.187637
 30
0.0
 10
135.364053
 20
170.187568
 30
0.0
 10
135.188618
 20
170.187545
 30
0.0
 10
134.404565
 20
170.190638
 30
0.0
 10
133.632844
 20
170.200234
 30
0.0
 10
132.874186
 20
170.216805
 30
0.0
 10
132.129334
 20
170.240821
 30
0.0
 10
131.399017
 20
170.272757
 30
0.0
 10
130.683978
 20
170.313083
 30
0.0
 10
129.984954
 20
170.362271
 30
0.0
 10
129.302679
 20
170.420792
 30
0.0
 10
128.637889
 20
170.489119
 30
0.0
 10
127.991324
 20
170.567724
 30
0.0
 10
127.363720
 20
170.657078
 30
0.0
 10
126.755810
 20
170.757654
 30
0.0
 10
126.168337
 20
170.869923
 30
0.0
 10
125.602031
 20
170.994356
 30
0.0
 10
125.057635
 20
171.131427
 30
0.0
 10
124.535882
 20
171.281606
 30
0.0
 10
124.037510
 20
171.445366
 30
0.0
 10
123.563255
 20
171.623179
 30
0.0
 10
123.113855
 20
171.815516
 30
0.0
 10
122.690045
 20
172.022849
 30
0.0
 10
122.292565
 20
172.245650
 30
0.0
 10
121.922148
 20
172.484391
 30
0.0
 10
121.579531
 20
172.739544
 30
0.0
 10
121.265455
 20
173.011581
 30
0.0
 10
120.980652
 20
173.300973
 30
0.0
 10
120.725861
 20
173.608193
 30
0.0
 10
120.501820
 20
173.933712
 30
0.0
 10
120.309264
 20
174.278002
 30
0.0
 10
120.148929
 20
174.641536
 30
0.0
 10
120.021553
 20
175.024784
 30
0.0
 10
119.927872
 20
175.428219
 30
0.0
 10
119.868624
 20
175.852313
 30
0.0
 10
119.838075
 20
176.031951
 30
0.0
 10
119.782756
 20
176.203634
 30
0.0
 10
119.704207
 20
176.367145
 30
0.0
 10
119.603969
 20
176.522268
 30
0.0
 10
119.483581
 20
176.668784
 30
0.0
 10
119.344590
 20
176.806479
 30
0.0
 10
119.188534
 20
176.935134
 30
0.0
 10
119.016954
 20
177.054533
 30
0.0
 10
118.831394
 20
177.164458
 30
0.0
 10
118.633393
 20
177.264694
 30
0.0
 10
118.424491
 20
177.355023
 30
0.0
 10
118.206234
 20
177.435229
 30
0.0
 10
117.980161
 20
177.505094
 30
0.0
 10
117.747814
 20
177.564401
 30
0.0
 10
117.510734
 20
177.612934
 30
0.0
 10
117.270461
 20
177.650477
 30
0.0
 10
117.028539
 20
177.676811
 30
0.0
 10
116.786506
 20
177.691720
 30
0.0
 10
116.545907
 20
177.694988
 30
0.0
 10
116.308282
 20
177.686397
 30
0.0
 10
116.075174
 20
177.665730
 30
0.0
 10
115.848122
 20
177.632772
 30
0.0
 10
115.628668
 20
177.587304
 30
0.0
 10
115.418354
 20
177.529110
 30
0.0
 10
115.218720
 20
177.457973
 30
0.0
 10
115.031311
 20
177.373677
 30
0.0
 10
114.857665
 20
177.276004
 30
0.0
 10
114.699325
 20
177.164738
 30
0.0
 10
114.557831
 20
177.039661
 30
0.0
 10
114.434725
 20
176.900557
 30
0.0
 10
114.331549
 20
176.747209
 30
0.0
 10
114.249845
 20
176.579400
 30
0.0
 10
114.240929
 20
176.573935
 30
0.0
 10
114.232012
 20
176.568491
 30
0.0
 10
114.223122
 20
176.563067
 30
0.0
 10
114.214232
 20
176.557663
 30
0.0
 10
114.205342
 20
176.552280
 30
0.0
 10
114.196479
 20
176.546917
 30
0.0
 10
114.187615
 20
176.541574
 30
0.0
 10
114.178752
 20
176.536251
 30
0.0
 10
114.169915
 20
176.530949
 30
0.0
 10
114.161078
 20
176.525667
 30
0.0
 10
114.152240
 20
176.520405
 30
0.0
 10
114.143430
 20
176.515164
 30
0.0
 10
114.134619
 20
176.509943
 30
0.0
 10
114.125809
 20
176.504742
 30
0.0
 10
114.117024
 20
176.499561
 30
0.0
 10
114.108240
 20
176.494399
 30
0.0
 10
114.099456
 20
176.489258
 30
0.0
 10
114.090698
 20
176.484139
 30
0.0
 10
114.081941
 20
176.479037
 30
0.0
 10
114.073183
 20
176.473957
 30
0.0
 10
114.064452
 20
176.468896
 30
0.0
 10
114.055720
 20
176.463856
 30
0.0
 10
114.046989
 20
176.458834
 30
0.0
 10
114.038258
 20
176.453833
 30
0.0
 10
114.029553
 20
176.448854
 30
0.0
 10
114.020848
 20
176.443893
 30
0.0
 10
114.012144
 20
176.438953
 30
0.0
 10
114.003465
 20
176.434032
 30
0.0
 10
113.994787
 20
176.429132
 30
0.0
 10
113.986109
 20
176.424250
 30
0.0
 10
113.977430
 20
176.419390
 30
0.0
 10
113.968778
 20
176.414548
 30
0.0
 10
113.734344
 20
176.297278
 30
0.0
 10
113.502755
 20
176.200652
 30
0.0
 10
113.274035
 20
176.124269
 30
0.0
 10
113.048214
 20
176.067732
 30
0.0
 10
112.825313
 20
176.030642
 30
0.0
 10
112.605365
 20
176.012603
 30
0.0
 10
112.388393
 20
176.013211
 30
0.0
 10
112.174427
 20
176.032074
 30
0.0
 10
111.963488
 20
176.068791
 30
0.0
 10
111.755608
 20
176.122963
 30
0.0
 10
111.550810
 20
176.194194
 30
0.0
 10
111.349123
 20
176.282083
 30
0.0
 10
111.150572
 20
176.386233
 30
0.0
 10
110.955185
 20
176.506246
 30
0.0
 10
110.762986
 20
176.641723
 30
0.0
 10
110.574005
 20
176.792265
 30
0.0
 10
110.388267
 20
176.957476
 30
0.0
 10
110.205798
 20
177.136955
 30
0.0
 10
110.026624
 20
177.330305
 30
0.0
 10
109.850774
 20
177.537128
 30
0.0
 10
109.678274
 20
177.757025
 30
0.0
 10
109.509152
 20
177.989598
 30
0.0
 10
109.343430
 20
178.234448
 30
0.0
 10
109.181138
 20
178.491177
 30
0.0
 10
109.022303
 20
178.759388
 30
0.0
 10
108.866948
 20
179.038681
 30
0.0
 10
108.715103
 20
179.328658
 30
0.0
 10
108.566796
 20
179.628921
 30
0.0
 10
108.422051
 20
179.939072
 30
0.0
 10
108.280893
 20
180.258711
 30
0.0
 10
108.143352
 20
180.587442
 30
0.0
 10
108.009452
 20
180.924866
 30
0.0
 10
107.941954
 20
181.039558
 30
0.0
 10
107.871445
 20
181.150717
 30
0.0
 10
107.798026
 20
181.258336
 30
0.0
 10
107.721794
 20
181.362408
 30
0.0
 10
107.642845
 20
181.462925
 30
0.0
 10
107.561274
 20
181.559880
 30
0.0
 10
107.477179
 20
181.653267
 30
0.0
 10
107.390660
 20
181.743078
 30
0.0
 10
107.301810
 20
181.829307
 30
0.0
 10
107.210730
 20
181.911945
 30
0.0
 10
107.117515
 20
181.990987
 30
0.0
 10
107.022259
 20
182.066424
 30
0.0
 10
106.925065
 20
182.138251
 30
0.0
 10
106.826023
 20
182.206459
 30
0.0
 10
106.725238
 20
182.271042
 30
0.0
 10
106.622799
 20
182.331993
 30
0.0
 10
106.518810
 20
182.389304
 30
0.0
 10
106.413366
 20
182.442969
 30
0.0
 10
106.306562
 20
182.492980
 30
0.0
 10
106.198495
 20
182.539331
 30
0.0
 10
106.089265
 20
182.582014
 30
0.0
 10
105.978965
 20
182.621023
 30
0.0
 10
105.867695
 20
182.656349
 30
0.0
 10
105.755551
 20
182.687987
 30
0.0
 10
105.642629
 20
182.715928
 30
0.0
 10
105.529028
 20
182.740167
 30
0.0
 10
105.414847
 20
182.760696
 30
0.0
 10
105.300177
 20
182.777508
 30
0.0
 10
105.185120
 20
182.790594
 30
0.0
 10
105.069769
 20
182.799950
 30
0.0
 10
104.954226
 20
182.805567
 30
0.0
  0
ENDSEC
  0
SECTION
  2
OBJECTS
  0
DICTIONARY
  5
C
330
0
100
AcDbDictionary
  3
ACAD_GROUP
350
D
  3
ACAD_MLINESTYLE
350
17
  0
DICTIONARY
  5
D
330
C
100
AcDbDictionary
  0
DICTIONARY
  5
1A
330
C
100
AcDbDictionary
  0
DICTIONARY
  5
17
330
C
100
AcDbDictionary
  3
STANDARD
350
18
  0
DICTIONARY
  5
19
330
C
100
AcDbDictionary
  0
ENDSEC
  0
EOF
