<?xml version="1.0" encoding="UTF-8" standalone="no"?>
<!-- Created with Inkscape (http://www.inkscape.org/) -->

<svg
   xmlns:dc="http://purl.org/dc/elements/1.1/"
   xmlns:cc="http://creativecommons.org/ns#"
   xmlns:rdf="http://www.w3.org/1999/02/22-rdf-syntax-ns#"
   xmlns:svg="http://www.w3.org/2000/svg"
   xmlns="http://www.w3.org/2000/svg"
   xmlns:sodipodi="http://sodipodi.sourceforge.net/DTD/sodipodi-0.dtd"
   xmlns:inkscape="http://www.inkscape.org/namespaces/inkscape"
   version="1.1"
   id="svg80"
   width="637.32123"
   height="638.00006"
   viewBox="0 0 637.32122 638.00006"
   sodipodi:docname="meeple_harleyquinn_mold.svg"
   inkscape:version="0.92.4 5da689c313, 2019-01-14">
  <metadata
     id="metadata86">
    <rdf:RDF>
      <cc:Work
         rdf:about="">
        <dc:format>image/svg+xml</dc:format>
        <dc:type
           rdf:resource="http://purl.org/dc/dcmitype/StillImage" />
        <dc:title></dc:title>
      </cc:Work>
    </rdf:RDF>
  </metadata>
  <defs
     id="defs84" />
  <sodipodi:namedview
     pagecolor="#ffffff"
     bordercolor="#666666"
     borderopacity="1"
     objecttolerance="10"
     gridtolerance="10"
     guidetolerance="10"
     inkscape:pageopacity="0"
     inkscape:pageshadow="2"
     inkscape:window-width="1920"
     inkscape:window-height="1012"
     id="namedview82"
     showgrid="false"
     inkscape:zoom="0.81621112"
     inkscape:cx="46.03738"
     inkscape:cy="404.53328"
     inkscape:window-x="1280"
     inkscape:window-y="0"
     inkscape:window-maximized="1"
     inkscape:current-layer="svg80"
     showguides="true">
    <inkscape:grid
       type="xygrid"
       id="grid60"
       originx="663.22299"
       originy="-59.999997" />
  </sodipodi:namedview>
  <path
     style="fill:#000000;stroke-width:1.33333337"
     d="m 55.743642,636.95248 c -3.76063,-2.39123 -4.29973,-7.8408 -1.76314,-17.82311 3.27394,-12.88401 20.4428,-59.41619 28.2123,-76.46268 1.3369,-2.93333 5.9903,-14.63333 10.3407,-26 4.3505,-11.36667 12.175398,-31.16667 17.388698,-44 5.2132,-12.83334 10.757,-26.63334 12.3195,-30.66667 13.6874,-38.64483 88.40074,-98.91521 45.1246,-121.22982 -2.9025,-7.6339 -60.2672,-13.57776 -105.123298,-18.09332 -28.744568,-4.42142 -62.67344731,-20.34643 -61.9963195,-43.13405 0.51962,-12.61151 1.03963,-15.10738 4.45509,-21.3827 1.98551,-3.64803 4.30478,-7.07881 7.1370995,-10.44239 2.83232,-3.36357 6.17768,-6.65993 10.21535,-10.03911 4.03767,-3.37919 9.190159,-7.6286 14.36921,-10.53605 31.136683,-17.47972 65.339988,-29.02682 99.062588,-40.76647 12.11433,-4.21729 24.57593,-7.38149 36.98775,-10.62019 7.35681,-1.91967 15.10147,-2.50688 22.20417,-5.21971 4.61051,-1.76095 9.26581,-3.8582 13.00206,-7.08283 0.68197,-0.58858 1.2715,-1.33051 1.6259,-2.15871 2.04432,-4.77734 2.12197,-13.88725 2.53207,-15.38208 0.32913,-7.63845 0.52924,-14.72058 1.4253,-20.81254 0.5971,-4.06838 1.2737,-7.95535 2.041,-11.68435 0.7672,-3.72901 1.625,-7.30006 2.5844,-10.73663 0.9595,-3.43658 2.0206,-6.73867 3.1944,-9.92974 1.1738,-3.19108 2.4603,-6.27114 3.8706,-9.26366 1.4103,-2.99252 2.9443,-5.89749 4.6132,-8.7384 1.6689,-2.84091 3.4726,-5.61774 5.4222,-8.35398 1.9496,-2.73623 4.0451,-5.43187 6.2975,-8.11037 2.2525,-2.67851 4.6619,-5.33988 7.2393,-8.0076 3.6298,-3.75695 6.9396,-6.97951 10.0896,-9.77798 3.1499,-2.79847 6.14,-5.17284 9.1303,-7.23339 2.9902,-2.06056 5.9806,-3.80729 9.1313,-5.3505 3.1506,-1.54321 6.4614,-2.88288 10.0925,-4.1293 5.1268,-1.75987 8.2438,-2.70589 12.482,-3.21198 2.119,-0.25304 4.5184,-0.39608 7.5893,-0.47587 C 310.1119,0.0165 313.8545,0 318.6602,0 c 5.6389,0 10.1523,0.059 14.0143,0.27545 3.862,0.21645 7.0726,0.59038 10.1063,1.22026 3.0337,0.62989 5.8904,1.51573 9.0444,2.756 3.1539,1.24028 6.6052,2.83499 10.8282,4.88262 3.2602,1.58083 6.3397,3.53642 9.9978,6.47721 3.6581,2.9408 7.8948,6.86681 13.4694,12.38847 2.9113,2.88367 5.6083,5.7108 8.1088,8.51802 2.5006,2.80722 4.8049,5.59452 6.9308,8.39851 2.1259,2.804 4.0734,5.62469 5.8607,8.49869 1.7872,2.874 3.4141,5.80131 4.8987,8.81854 1.4846,3.01723 2.8269,6.12438 4.045,9.35807 1.218,3.23369 2.3117,6.59391 3.2991,10.11729 0.9875,3.52338 1.8686,7.2099 2.6615,11.09618 0.793,3.88629 1.4976,7.97233 2.132,12.29475 0.722,4.91934 1.3358,8.73405 2.0153,11.74535 0.6796,3.0113 1.4249,23.2192 2.4098,24.92494 0.985,1.70573 2.2097,2.9093 3.848,3.91195 1.6384,1.00265 4.18721,1.885 6.3299,2.7064 4.94669,1.89631 10.02424,3.43199 15.0453,5.12157 6.56879,2.21038 13.0708,4.63941 19.72953,6.56194 6.52585,1.88416 13.31938,2.79265 19.78796,4.86492 37.91466,12.14631 76.59737,24.08827 110.96291,44.18962 6.25136,3.65659 12.149,8.81216 16.9004,13.65384 4.7514,4.84168 8.6005,9.95315 11.4866,15.27261 3.4658,6.38798 3.9798,8.84206 4.5009,21.48964 0.30803,32.43144 -38.04028,40.36379 -62.5644,43.11316 -36.4777,3.94207 -102.0097,9.22307 -107.5245,13.96669 -55.16238,27.85333 28.5509,89.99582 44.0939,125.37734 1.5625,4.03333 7.0979,17.83333 12.3009,30.66667 5.203,12.83333 13.0553,32.63333 17.4494,44 4.3942,11.36667 9.3569,23.66667 11.0282,27.33333 6.3697,13.97439 24.4157,63.36364 27.6416,75.65097 2.4464,9.31826 -2.52961,15.96698 -6.27591,18.34906 -0.8708,0.55369 -34.07939,-0.0317 -96.22939,-0.0204 -112.0897,0.0203 -91.06411,2.72754 -93.77061,0.0204 -3.0976,-3.09754 -10.61905,-35.63377 -18.54029,-57.55771 -7.92124,-21.92394 -12.289,-45.17946 -24.49002,-64.7746 -4.5657,-7.33262 -9.07451,-18.6546 -17.70833,-18.91905 -9.84308,-0.3015 -15.77131,12.26209 -21.4708,20.29285 -13.4005,18.88176 -25.43997,54.83995 -28.37585,63.4008 C 268.40678,592.7794 259.3696,631.55542 256.0843,635 l -2.8613,3 -112.9481,-0.0204 c -62.121398,-0.0107 -81.18112,0.57416 -82.05191,0.0205 z"
     id="path195-3"
     inkscape:connector-curvature="0"
     sodipodi:nodetypes="cscccccccsssaaaaaaccssssssscsssssssssscssssssssscsssaaaaascccccsccscsczaaasccccc" />
  <path
     style="fill:#000000;stroke-width:1.47633231"
     d="M 47.064952,131.01478 C 34.097471,115.22429 32.662574,82.129719 53.908055,62.006632 66.250209,50.316511 89.256983,42.351323 111.03276,50.315946 c 16.53666,9.562442 15.86935,-8.508164 23.11208,-33.223213 9.54496,-23.9588552 14.54114,-38.995645 40.3233,-55.691351 27.73081,-14.627313 39.43831,-16.822894 62.34363,-11.133707 30.80866,7.652208 48.595,35.065398 57.02172,63.837971 0.53706,1.896676 -2.31619,2.947711 -13.97219,5.146815 -15.61604,2.94622 -9.85542,7.775266 -23.17852,18.477102 -27.84508,24.782452 -30.96948,87.958587 -42.89857,80.082017 -6.35903,-30.150118 -26.22884,-27.295165 -34.92318,-13.95523 -12.3268,18.24902 -33.42294,10.61783 -33.42294,10.61783 -7.58457,16.27896 -9.7989,18.82994 -19.91544,28.32314 -18.36215,14.90828 -56.940714,21.36387 -78.457698,-11.78254 z"
     id="path215-3"
     inkscape:connector-curvature="0"
     sodipodi:nodetypes="cscccscccccscc" />
  <path
     style="fill:#000000;stroke-width:2.49621224"
     d="M 8.8645647,75.877076 C 31.732645,66.987755 55.217588,60.439783 91.072209,48.254486 92.273816,9.9431791 87.691022,-26.200152 77.612586,-49.895038 60.077072,-89.604493 35.231347,-125.95587 14.053494,-129.84651 c -79.087827,34.008127 -164.504824,70.23845 -250.307434,108.488299 -12.63934,22.9495041 -14.17896,58.012256 0.53259,95.111264 13.65024,38.458597 42.64092,74.174017 64.81356,84.665027 34.5241,-19.25135 51.79795,-29.95034 79.794261,-42.01861 8.49844,0.45576 105.708988,276.24119 136.284695,350.78032 C 51.497545,500.99403 160.38302,460.81616 142.447,430.8237 107.21032,312.92099 44.646896,172.40728 8.8645647,75.877076 Z"
     id="path221-5"
     inkscape:connector-curvature="0"
     sodipodi:nodetypes="ccccccccccc" />
  <path
     style="fill:#000000;stroke-width:1.33333337"
     d="M 69.903392,519.83102 C 34.97072,501.70356 100.92215,409.28559 176.71444,362.69734 c 70.20846,16.50893 167.83364,0.16095 273.36489,-0.0541 66.59699,53.39878 138.80684,121.85446 113.88733,156.68028 -44.2398,28.48889 -414.47148,56.13118 -494.063268,0.50746 z"
     id="path195-3-3"
     inkscape:connector-curvature="0"
     sodipodi:nodetypes="cccccc" />
  <path
     style="fill:#000000;stroke-width:1.47633231"
     d="m 589.9117,125.17682 c 12.96748,-15.79049 14.40237,-48.885058 -6.8431,-69.008148 -12.34216,-11.69012 -35.34893,-19.655307 -57.12471,-11.69068 -16.53666,9.56244 -15.86935,-8.508168 -23.11208,-33.223217 -9.54496,-23.958855 -14.54114,-38.995645 -40.3233,-55.691351 -27.73081,-14.627313 -39.43831,-16.822894 -62.34363,-11.133707 -30.80866,7.652208 -48.595,35.065398 -57.02172,63.837971 -0.53706,1.896676 2.31619,2.947711 13.97219,5.146815 15.61604,2.94622 9.85542,7.775266 23.17852,18.477102 27.84508,24.782457 30.96948,87.958585 42.89857,80.082015 6.35903,-30.150121 26.22884,-27.295161 34.92318,-13.955231 12.3268,18.249021 33.42294,10.617831 33.42294,10.617831 7.58457,16.27896 9.7989,18.82994 19.91544,28.32314 18.36215,14.90828 56.94071,21.36387 78.4577,-11.78254 z"
     id="path215-3-3"
     inkscape:connector-curvature="0"
     sodipodi:nodetypes="cscccscccccscc" />
</svg>
