  0
SECTION
  2
HEADER
  9
$ACADVER
  1
AC1014
  9
$HANDSEED
  5
FFFF
  9
$MEASUREMENT
 70
     1
  0
ENDSEC
  0
SECTION
  2
TABLES
  0
TABLE
  2
VPORT
  5
8
330
0
100
AcDbSymbolTable
 70
     4
  0
VPORT
  5
2E
330
8
100
AcDbSymbolTableRecord
100
AcDbViewportTableRecord
  2
*ACTIVE
 70
     0
 10
0.0
 20
0.0
 11
1.0
 21
1.0
 12
210.0
 22
148.5
 13
0.0
 23
0.0
 14
10.0
 24
10.0
 15
10.0
 25
10.0
 16
0.0
 26
0.0
 36
1.0
 17
0.0
 27
0.0
 37
0.0
 40
341.0
 41
1.24
 42
50.0
 43
0.0
 44
0.0
 50
0.0
 51
0.0
 71
     0
 72
   100
 73
     1
 74
     3
 75
     0
 76
     0
 77
     0
 78
     0
  0
ENDTAB
  0
TABLE
  2
LTYPE
  5
5
330
0
100
AcDbSymbolTable
 70
     1
  0
LTYPE
  5
14
330
5
100
AcDbSymbolTableRecord
100
AcDbLinetypeTableRecord
  2
BYBLOCK
 70
     0
  3

 72
    65
 73
     0
 40
0.0
  0
LTYPE
  5
15
330
5
100
AcDbSymbolTableRecord
100
AcDbLinetypeTableRecord
  2
BYLAYER
 70
     0
  3

 72
    65
 73
     0
 40
0.0
  0
LTYPE
  5
16
330
5
100
AcDbSymbolTableRecord
100
AcDbLinetypeTableRecord
  2
CONTINUOUS
 70
     0
  3
Solid line
 72
    65
 73
     0
 40
0.0
  0
ENDTAB
  0
TABLE
  2
LAYER
  5
2
100
AcDbSymbolTable
 70
1
  0
LAYER
  5
50
100
AcDbSymbolTableRecord
100
AcDbLayerTableRecord
  2
0
 70
0
  6
CONTINUOUS
  0
ENDTAB
  0
TABLE
  2
STYLE
  5
3
330
0
100
AcDbSymbolTable
 70
     1
  0
STYLE
  5
11
330
3
100
AcDbSymbolTableRecord
100
AcDbTextStyleTableRecord
  2
STANDARD
 70
     0
 40
0.0
 41
1.0
 50
0.0
 71
     0
 42
2.5
  3
txt
  4

  0
ENDTAB
  0
TABLE
  2
VIEW
  5
6
330
0
100
AcDbSymbolTable
 70
     0
  0
ENDTAB
  0
TABLE
  2
UCS
  5
7
330
0
100
AcDbSymbolTable
 70
     0
  0
ENDTAB
  0
TABLE
  2
APPID
  5
9
330
0
100
AcDbSymbolTable
 70
     2
  0
APPID
  5
12
330
9
100
AcDbSymbolTableRecord
100
AcDbRegAppTableRecord
  2
ACAD
 70
     0
  0
ENDTAB
  0
TABLE
  2
DIMSTYLE
  5
A
330
0
100
AcDbSymbolTable
 70
     1
  0
DIMSTYLE
105
27
330
A
100
AcDbSymbolTableRecord
100
AcDbDimStyleTableRecord
  2
ISO-25
 70
     0
  3

  4

  5

  6

  7

 40
1.0
 41
2.5
 42
0.625
 43
3.75
 44
1.25
 45
0.0
 46
0.0
 47
0.0
 48
0.0
140
2.5
141
2.5
142
0.0
143
0.03937007874016
144
1.0
145
0.0
146
1.0
147
0.625
 71
     0
 72
     0
 73
     0
 74
     0
 75
     0
 76
     0
 77
     1
 78
     8
170
     0
171
     3
172
     1
173
     0
174
     0
175
     0
176
     0
177
     0
178
     0
270
     2
271
     2
272
     2
273
     2
274
     3
340
11
275
     0
280
     0
281
     0
282
     0
283
     0
284
     8
285
     0
286
     0
287
     3
288
     0
  0
ENDTAB
  0
TABLE
  2
BLOCK_RECORD
  5
1
330
0
100
AcDbSymbolTable
 70
     1
  0
BLOCK_RECORD
  5
1F
330
1
100
AcDbSymbolTableRecord
100
AcDbBlockTableRecord
  2
*MODEL_SPACE
  0
BLOCK_RECORD
  5
1B
330
1
100
AcDbSymbolTableRecord
100
AcDbBlockTableRecord
  2
*PAPER_SPACE
  0
ENDTAB
  0
ENDSEC
  0
SECTION
  2
BLOCKS
  0
BLOCK
  5
20
330
1F
100
AcDbEntity
  8
0
100
AcDbBlockBegin
  2
*MODEL_SPACE
 70
     0
 10
0.0
 20
0.0
 30
0.0
  3
*MODEL_SPACE
  1

  0
ENDBLK
  5
21
330
1F
100
AcDbEntity
  8
0
100
AcDbBlockEnd
  0
BLOCK
  5
1C
330
1B
100
AcDbEntity
 67
     1
  8
0
100
AcDbBlockBegin
  2
*PAPER_SPACE
  1

  0
ENDBLK
  5
1D
330
1B
100
AcDbEntity
 67
     1
  8
0
100
AcDbBlockEnd
  0
ENDSEC
  0
SECTION
  2
ENTITIES
  0
LWPOLYLINE
  5
100
100
AcDbEntity
  8
0
 62
7
100
AcDbPolyline
 90
1280
 70
1
 10
15.317751
 20
0.277246
 30
0.0
 10
15.271733
 20
0.307496
 30
0.0
 10
15.226964
 20
0.338942
 30
0.0
 10
15.183441
 20
0.371591
 30
0.0
 10
15.141164
 20
0.405453
 30
0.0
 10
15.100132
 20
0.440534
 30
0.0
 10
15.060344
 20
0.476845
 30
0.0
 10
15.021800
 20
0.514395
 30
0.0
 10
14.984499
 20
0.553193
 30
0.0
 10
14.948438
 20
0.593249
 30
0.0
 10
14.913619
 20
0.634569
 30
0.0
 10
14.880039
 20
0.677164
 30
0.0
 10
14.847699
 20
0.721045
 30
0.0
 10
14.816596
 20
0.766215
 30
0.0
 10
14.786730
 20
0.812689
 30
0.0
 10
14.758101
 20
0.860473
 30
0.0
 10
14.730707
 20
0.909574
 30
0.0
 10
14.704547
 20
0.960004
 30
0.0
 10
14.679621
 20
1.011772
 30
0.0
 10
14.655927
 20
1.064887
 30
0.0
 10
14.633467
 20
1.119357
 30
0.0
 10
14.612237
 20
1.175189
 30
0.0
 10
14.592237
 20
1.232395
 30
0.0
 10
14.573465
 20
1.290981
 30
0.0
 10
14.555920
 20
1.350960
 30
0.0
 10
14.539603
 20
1.412335
 30
0.0
 10
14.524514
 20
1.475124
 30
0.0
 10
14.510650
 20
1.539325
 30
0.0
 10
14.498011
 20
1.604955
 30
0.0
 10
14.486597
 20
1.672021
 30
0.0
 10
14.476405
 20
1.740530
 30
0.0
 10
14.467436
 20
1.810494
 30
0.0
 10
14.459686
 20
1.881918
 30
0.0
 10
14.453156
 20
1.954813
 30
0.0
 10
14.447846
 20
2.029190
 30
0.0
 10
14.443755
 20
2.105054
 30
0.0
 10
14.440882
 20
2.182416
 30
0.0
 10
14.439215
 20
2.261285
 30
0.0
 10
14.438765
 20
2.341671
 30
0.0
 10
14.439533
 20
2.423581
 30
0.0
 10
14.441517
 20
2.507025
 30
0.0
 10
14.444719
 20
2.592012
 30
0.0
 10
14.449134
 20
2.678549
 30
0.0
 10
14.454759
 20
2.766645
 30
0.0
 10
14.461596
 20
2.856312
 30
0.0
 10
14.469642
 20
2.947559
 30
0.0
 10
14.478897
 20
3.040391
 30
0.0
 10
14.489362
 20
3.134818
 30
0.0
 10
14.501032
 20
3.230851
 30
0.0
 10
14.513910
 20
3.328498
 30
0.0
 10
14.527991
 20
3.427767
 30
0.0
 10
14.543278
 20
3.528669
 30
0.0
 10
14.559767
 20
3.631211
 30
0.0
 10
14.577460
 20
3.735403
 30
0.0
 10
14.596354
 20
3.841253
 30
0.0
 10
14.616449
 20
3.948771
 30
0.0
 10
14.637745
 20
4.057965
 30
0.0
 10
14.660240
 20
4.168846
 30
0.0
 10
14.683934
 20
4.281419
 30
0.0
 10
14.708823
 20
4.395698
 30
0.0
 10
14.734908
 20
4.511686
 30
0.0
 10
14.762190
 20
4.629396
 30
0.0
 10
14.790667
 20
4.748837
 30
0.0
 10
14.820338
 20
4.870016
 30
0.0
 10
14.851202
 20
4.992944
 30
0.0
 10
15.055198
 20
5.732362
 30
0.0
 10
15.336331
 20
6.655972
 30
0.0
 10
15.685571
 20
7.739298
 30
0.0
 10
16.093892
 20
8.957879
 30
0.0
 10
16.552265
 20
10.287238
 30
0.0
 10
17.051661
 20
11.702913
 30
0.0
 10
17.583052
 20
13.180431
 30
0.0
 10
18.137411
 20
14.695324
 30
0.0
 10
18.705708
 20
16.223123
 30
0.0
 10
19.278916
 20
17.739360
 30
0.0
 10
19.848007
 20
19.219564
 30
0.0
 10
20.403951
 20
20.639268
 30
0.0
 10
20.937721
 20
21.974003
 30
0.0
 10
21.440290
 20
23.199297
 30
0.0
 10
21.902627
 20
24.290684
 30
0.0
 10
22.315706
 20
25.223695
 30
0.0
 10
22.392078
 20
25.395809
 30
0.0
 10
22.487614
 20
25.618760
 30
0.0
 10
22.600909
 20
25.889022
 30
0.0
 10
22.730563
 20
26.203066
 30
0.0
 10
22.875172
 20
26.557367
 30
0.0
 10
23.033333
 20
26.948395
 30
0.0
 10
23.203642
 20
27.372628
 30
0.0
 10
23.384699
 20
27.826534
 30
0.0
 10
23.575099
 20
28.306589
 30
0.0
 10
23.773440
 20
28.809265
 30
0.0
 10
23.978318
 20
29.331034
 30
0.0
 10
24.188332
 20
29.868374
 30
0.0
 10
24.402079
 20
30.417752
 30
0.0
 10
24.618154
 20
30.975644
 30
0.0
 10
24.835157
 20
31.538522
 30
0.0
 10
25.051683
 20
32.102862
 30
0.0
 10
25.277888
 20
32.691909
 30
0.0
 10
25.523280
 20
33.327285
 30
0.0
 10
25.785499
 20
34.003018
 30
0.0
 10
26.062188
 20
34.713143
 30
0.0
 10
26.350987
 20
35.451688
 30
0.0
 10
26.649535
 20
36.212691
 30
0.0
 10
26.955478
 20
36.990174
 30
0.0
 10
27.266456
 20
37.778175
 30
0.0
 10
27.580109
 20
38.570723
 30
0.0
 10
27.894077
 20
39.361851
 30
0.0
 10
28.206002
 20
40.145590
 30
0.0
 10
28.513527
 20
40.915969
 30
0.0
 10
28.814292
 20
41.667020
 30
0.0
 10
29.105940
 20
42.392778
 30
0.0
 10
29.386110
 20
43.087269
 30
0.0
 10
29.652442
 20
43.744529
 30
0.0
 10
29.911813
 20
44.383487
 30
0.0
 10
30.171562
 20
45.024279
 30
0.0
 10
30.430018
 20
45.662745
 30
0.0
 10
30.685510
 20
46.294729
 30
0.0
 10
30.936370
 20
46.916063
 30
0.0
 10
31.180924
 20
47.522594
 30
0.0
 10
31.417499
 20
48.110159
 30
0.0
 10
31.644426
 20
48.674600
 30
0.0
 10
31.860035
 20
49.211755
 30
0.0
 10
32.062653
 20
49.717466
 30
0.0
 10
32.250611
 20
50.187570
 30
0.0
 10
32.422233
 20
50.617909
 30
0.0
 10
32.575852
 20
51.004325
 30
0.0
 10
32.709798
 20
51.342653
 30
0.0
 10
32.822396
 20
51.628739
 30
0.0
 10
32.911976
 20
51.858419
 30
0.0
 10
33.275167
 20
52.781457
 30
0.0
 10
33.706123
 20
53.851731
 30
0.0
 10
34.196867
 20
55.050691
 30
0.0
 10
34.739427
 20
56.359783
 30
0.0
 10
35.325826
 20
57.760461
 30
0.0
 10
35.948094
 20
59.234171
 30
0.0
 10
36.598255
 20
60.762368
 30
0.0
 10
37.268336
 20
62.326494
 30
0.0
 10
37.950363
 20
63.908004
 30
0.0
 10
38.636364
 20
65.488345
 30
0.0
 10
39.318362
 20
67.048968
 30
0.0
 10
39.988387
 20
68.571320
 30
0.0
 10
40.638461
 20
70.036855
 30
0.0
 10
41.260615
 20
71.427018
 30
0.0
 10
41.846871
 20
72.723260
 30
0.0
 10
42.389256
 20
73.907032
 30
0.0
 10
42.545244
 20
74.245434
 30
0.0
 10
42.692061
 20
74.565366
 30
0.0
 10
42.829907
 20
74.867549
 30
0.0
 10
42.958970
 20
75.152709
 30
0.0
 10
43.079446
 20
75.421570
 30
0.0
 10
43.191526
 20
75.674861
 30
0.0
 10
43.295407
 20
75.913306
 30
0.0
 10
43.391281
 20
76.137633
 30
0.0
 10
43.479340
 20
76.348562
 30
0.0
 10
43.559778
 20
76.546822
 30
0.0
 10
43.632790
 20
76.733136
 30
0.0
 10
43.698568
 20
76.908232
 30
0.0
 10
43.757306
 20
77.072835
 30
0.0
 10
43.809198
 20
77.227669
 30
0.0
 10
43.854434
 20
77.373460
 30
0.0
 10
43.893211
 20
77.510935
 30
0.0
 10
43.927187
 20
77.642205
 30
0.0
 10
43.957624
 20
77.769017
 30
0.0
 10
43.984133
 20
77.891541
 30
0.0
 10
44.006331
 20
78.009944
 30
0.0
 10
44.023794
 20
78.124400
 30
0.0
 10
44.036176
 20
78.235073
 30
0.0
 10
44.043056
 20
78.342139
 30
0.0
 10
44.044114
 20
78.445763
 30
0.0
 10
44.038822
 20
78.546120
 30
0.0
 10
44.026863
 20
78.643373
 30
0.0
 10
44.007840
 20
78.737697
 30
0.0
 10
43.981352
 20
78.829261
 30
0.0
 10
43.947017
 20
78.918235
 30
0.0
 10
43.904440
 20
79.004788
 30
0.0
 10
43.853230
 20
79.089090
 30
0.0
 10
43.792998
 20
79.171309
 30
0.0
 10
43.484303
 20
79.508264
 30
0.0
 10
43.140990
 20
79.795469
 30
0.0
 10
42.766539
 20
80.037674
 30
0.0
 10
42.364430
 20
80.239625
 30
0.0
 10
41.938142
 20
80.406069
 30
0.0
 10
41.491155
 20
80.541758
 30
0.0
 10
41.026948
 20
80.651441
 30
0.0
 10
40.549005
 20
80.739862
 30
0.0
 10
40.060801
 20
80.811773
 30
0.0
 10
39.565819
 20
80.871924
 30
0.0
 10
39.067537
 20
80.925057
 30
0.0
 10
38.569435
 20
80.975929
 30
0.0
 10
38.074995
 20
81.029279
 30
0.0
 10
37.587696
 20
81.089866
 30
0.0
 10
37.111014
 20
81.162428
 30
0.0
 10
36.648435
 20
81.251722
 30
0.0
 10
36.252423
 20
81.334950
 30
0.0
 10
35.855326
 20
81.412285
 30
0.0
 10
35.457244
 20
81.484299
 30
0.0
 10
35.058292
 20
81.551572
 30
0.0
 10
34.658573
 20
81.614681
 30
0.0
 10
34.258198
 20
81.674193
 30
0.0
 10
33.857274
 20
81.730692
 30
0.0
 10
33.455907
 20
81.784752
 30
0.0
 10
33.054203
 20
81.836946
 30
0.0
 10
32.652275
 20
81.887852
 30
0.0
 10
32.250227
 20
81.938044
 30
0.0
 10
31.848166
 20
81.988100
 30
0.0
 10
31.446203
 20
82.038593
 30
0.0
 10
31.044441
 20
82.090102
 30
0.0
 10
30.642992
 20
82.143199
 30
0.0
 10
30.241963
 20
82.198462
 30
0.0
 10
29.873866
 20
82.250207
 30
0.0
 10
29.505720
 20
82.301605
 30
0.0
 10
29.137526
 20
82.352667
 30
0.0
 10
28.769287
 20
82.403401
 30
0.0
 10
28.401005
 20
82.453817
 30
0.0
 10
28.032679
 20
82.503927
 30
0.0
 10
27.664312
 20
82.553742
 30
0.0
 10
27.295909
 20
82.603272
 30
0.0
 10
26.927466
 20
82.652527
 30
0.0
 10
26.558992
 20
82.701520
 30
0.0
 10
26.190482
 20
82.750256
 30
0.0
 10
25.821940
 20
82.798752
 30
0.0
 10
25.453368
 20
82.847014
 30
0.0
 10
25.084767
 20
82.895052
 30
0.0
 10
24.716139
 20
82.942881
 30
0.0
 10
24.347487
 20
82.990506
 30
0.0
 10
23.857130
 20
83.049643
 30
0.0
 10
23.365492
 20
83.101827
 30
0.0
 10
22.872860
 20
83.148587
 30
0.0
 10
22.379519
 20
83.191454
 30
0.0
 10
21.885754
 20
83.231951
 30
0.0
 10
21.391853
 20
83.271615
 30
0.0
 10
20.898102
 20
83.311967
 30
0.0
 10
20.404785
 20
83.354541
 30
0.0
 10
19.912191
 20
83.400864
 30
0.0
 10
19.420603
 20
83.452463
 30
0.0
 10
18.930310
 20
83.510867
 30
0.0
 10
18.441595
 20
83.577608
 30
0.0
 10
17.954747
 20
83.654213
 30
0.0
 10
17.470050
 20
83.742211
 30
0.0
 10
16.987791
 20
83.843131
 30
0.0
 10
16.508255
 20
83.958500
 30
0.0
 10
15.828892
 20
84.134760
 30
0.0
 10
15.147596
 20
84.315370
 30
0.0
 10
14.465625
 20
84.501801
 30
0.0
 10
13.784236
 20
84.695529
 30
0.0
 10
13.104689
 20
84.898025
 30
0.0
 10
12.428238
 20
85.110766
 30
0.0
 10
11.756143
 20
85.335220
 30
0.0
 10
11.089660
 20
85.572866
 30
0.0
 10
10.430047
 20
85.825175
 30
0.0
 10
9.778561
 20
86.093621
 30
0.0
 10
9.136460
 20
86.379678
 30
0.0
 10
8.505001
 20
86.684822
 30
0.0
 10
7.885441
 20
87.010522
 30
0.0
 10
7.279039
 20
87.358250
 30
0.0
 10
6.687052
 20
87.729487
 30
0.0
 10
6.110736
 20
88.125701
 30
0.0
 10
5.714726
 20
88.419550
 30
0.0
 10
5.325438
 20
88.725882
 30
0.0
 10
4.943655
 20
89.044337
 30
0.0
 10
4.570159
 20
89.374566
 30
0.0
 10
4.205734
 20
89.716217
 30
0.0
 10
3.851163
 20
90.068936
 30
0.0
 10
3.507230
 20
90.432373
 30
0.0
 10
3.174718
 20
90.806168
 30
0.0
 10
2.854410
 20
91.189975
 30
0.0
 10
2.547089
 20
91.583437
 30
0.0
 10
2.253539
 20
91.986207
 30
0.0
 10
1.974542
 20
92.397925
 30
0.0
 10
1.710882
 20
92.818242
 30
0.0
 10
1.463343
 20
93.246804
 30
0.0
 10
1.232707
 20
93.683258
 30
0.0
 10
1.019694
 20
94.127253
 30
0.0
 10
0.867729
 20
94.476447
 30
0.0
 10
0.726795
 20
94.832404
 30
0.0
 10
0.597238
 20
95.194426
 30
0.0
 10
0.479401
 20
95.561807
 30
0.0
 10
0.373629
 20
95.933851
 30
0.0
 10
0.280267
 20
96.309856
 30
0.0
 10
0.199659
 20
96.689123
 30
0.0
 10
0.132150
 20
97.070946
 30
0.0
 10
0.078086
 20
97.454626
 30
0.0
 10
0.037809
 20
97.839465
 30
0.0
 10
0.011666
 20
98.224759
 30
0.0
 10
0.000000
 20
98.609810
 30
0.0
 10
0.003156
 20
98.993916
 30
0.0
 10
0.021480
 20
99.376374
 30
0.0
 10
0.055315
 20
99.756488
 30
0.0
 10
0.105006
 20
100.133551
 30
0.0
 10
0.179386
 20
100.546515
 30
0.0
 10
0.274361
 20
100.957331
 30
0.0
 10
0.388665
 20
101.365395
 30
0.0
 10
0.521031
 20
101.770113
 30
0.0
 10
0.670194
 20
102.170880
 30
0.0
 10
0.834887
 20
102.567098
 30
0.0
 10
1.013845
 20
102.958169
 30
0.0
 10
1.205802
 20
103.343492
 30
0.0
 10
1.409492
 20
103.722468
 30
0.0
 10
1.623649
 20
104.094496
 30
0.0
 10
1.847006
 20
104.458975
 30
0.0
 10
2.078299
 20
104.815308
 30
0.0
 10
2.316261
 20
105.162894
 30
0.0
 10
2.559626
 20
105.501132
 30
0.0
 10
2.807128
 20
105.829427
 30
0.0
 10
3.057501
 20
106.147173
 30
0.0
 10
3.232479
 20
106.362541
 30
0.0
 10
3.409968
 20
106.575893
 30
0.0
 10
3.589870
 20
106.787279
 30
0.0
 10
3.772089
 20
106.996742
 30
0.0
 10
3.956529
 20
107.204326
 30
0.0
 10
4.143091
 20
107.410072
 30
0.0
 10
4.331680
 20
107.614031
 30
0.0
 10
4.522197
 20
107.816241
 30
0.0
 10
4.714547
 20
108.016751
 30
0.0
 10
4.908632
 20
108.215601
 30
0.0
 10
5.104355
 20
108.412840
 30
0.0
 10
5.301619
 20
108.608510
 30
0.0
 10
5.500328
 20
108.802656
 30
0.0
 10
5.700384
 20
108.995323
 30
0.0
 10
5.901690
 20
109.186553
 30
0.0
 10
6.104150
 20
109.376394
 30
0.0
 10
6.322807
 20
109.578573
 30
0.0
 10
6.543081
 20
109.779103
 30
0.0
 10
6.764961
 20
109.977953
 30
0.0
 10
6.988440
 20
110.175084
 30
0.0
 10
7.213507
 20
110.370457
 30
0.0
 10
7.440154
 20
110.564040
 30
0.0
 10
7.668369
 20
110.755794
 30
0.0
 10
7.898145
 20
110.945683
 30
0.0
 10
8.129472
 20
111.133669
 30
0.0
 10
8.362340
 20
111.319719
 30
0.0
 10
8.596740
 20
111.503795
 30
0.0
 10
8.832663
 20
111.685857
 30
0.0
 10
9.070098
 20
111.865875
 30
0.0
 10
9.309038
 20
112.043804
 30
0.0
 10
9.549472
 20
112.219617
 30
0.0
 10
9.791391
 20
112.393271
 30
0.0
 10
10.088551
 20
112.602668
 30
0.0
 10
10.387572
 20
112.809548
 30
0.0
 10
10.688415
 20
113.013902
 30
0.0
 10
10.991041
 20
113.215718
 30
0.0
 10
11.295412
 20
113.414989
 30
0.0
 10
11.601490
 20
113.611701
 30
0.0
 10
11.909235
 20
113.805847
 30
0.0
 10
12.218610
 20
113.997416
 30
0.0
 10
12.529575
 20
114.186397
 30
0.0
 10
12.842092
 20
114.372783
 30
0.0
 10
13.156124
 20
114.556560
 30
0.0
 10
13.471630
 20
114.737718
 30
0.0
 10
13.788573
 20
114.916251
 30
0.0
 10
14.106914
 20
115.092146
 30
0.0
 10
14.426615
 20
115.265392
 30
0.0
 10
14.747637
 20
115.435980
 30
0.0
 10
15.080211
 20
115.608030
 30
0.0
 10
15.414961
 20
115.775657
 30
0.0
 10
15.751697
 20
115.939236
 30
0.0
 10
16.090228
 20
116.099144
 30
0.0
 10
16.430365
 20
116.255765
 30
0.0
 10
16.771917
 20
116.409466
 30
0.0
 10
17.114693
 20
116.560633
 30
0.0
 10
17.458504
 20
116.709639
 30
0.0
 10
17.803159
 20
116.856861
 30
0.0
 10
18.148468
 20
117.002678
 30
0.0
 10
18.494240
 20
117.147469
 30
0.0
 10
18.840286
 20
117.291606
 30
0.0
 10
19.186415
 20
117.435470
 30
0.0
 10
19.532436
 20
117.579441
 30
0.0
 10
19.878160
 20
117.723890
 30
0.0
 10
20.223396
 20
117.869196
 30
0.0
 10
20.733411
 20
118.084538
 30
0.0
 10
21.243726
 20
118.299250
 30
0.0
 10
21.754381
 20
118.513208
 30
0.0
 10
22.265417
 20
118.726293
 30
0.0
 10
22.776876
 20
118.938386
 30
0.0
 10
23.288797
 20
119.149359
 30
0.0
 10
23.801223
 20
119.359094
 30
0.0
 10
24.314195
 20
119.567472
 30
0.0
 10
24.827752
 20
119.774368
 30
0.0
 10
25.341937
 20
119.979661
 30
0.0
 10
25.856791
 20
120.183232
 30
0.0
 10
26.372354
 20
120.384958
 30
0.0
 10
26.888665
 20
120.584716
 30
0.0
 10
27.405772
 20
120.782386
 30
0.0
 10
27.923710
 20
120.977847
 30
0.0
 10
28.442521
 20
121.170977
 30
0.0
 10
30.171978
 20
121.807752
 30
0.0
 10
31.905904
 20
122.441024
 30
0.0
 10
33.643769
 20
123.070201
 30
0.0
 10
35.385032
 20
123.694694
 30
0.0
 10
37.129154
 20
124.313909
 30
0.0
 10
38.875603
 20
124.927259
 30
0.0
 10
40.623840
 20
125.534147
 30
0.0
 10
42.373328
 20
126.133986
 30
0.0
 10
44.123529
 20
126.726184
 30
0.0
 10
45.873906
 20
127.310152
 30
0.0
 10
47.623924
 20
127.885292
 30
0.0
 10
49.373045
 20
128.451019
 30
0.0
 10
51.120731
 20
129.006742
 30
0.0
 10
52.866449
 20
129.551866
 30
0.0
 10
54.609657
 20
130.085803
 30
0.0
 10
56.349819
 20
130.607958
 30
0.0
 10
56.744865
 20
130.726785
 30
0.0
 10
57.149228
 20
130.853055
 30
0.0
 10
57.559367
 20
130.988072
 30
0.0
 10
57.971746
 20
131.133132
 30
0.0
 10
58.382832
 20
131.289538
 30
0.0
 10
58.789081
 20
131.458593
 30
0.0
 10
59.186956
 20
131.641593
 30
0.0
 10
59.572925
 20
131.839845
 30
0.0
 10
59.943448
 20
132.054642
 30
0.0
 10
60.294986
 20
132.287292
 30
0.0
 10
60.624001
 20
132.539091
 30
0.0
 10
60.926960
 20
132.811342
 30
0.0
 10
61.200322
 20
133.105347
 30
0.0
 10
61.440550
 20
133.422402
 30
0.0
 10
61.644110
 20
133.763815
 30
0.0
 10
61.807459
 20
134.130880
 30
0.0
 10
61.915223
 20
134.484268
 30
0.0
 10
61.982875
 20
134.853198
 30
0.0
 10
62.012998
 20
135.234330
 30
0.0
 10
62.008182
 20
135.624331
 30
0.0
 10
61.971008
 20
136.019862
 30
0.0
 10
61.904066
 20
136.417589
 30
0.0
 10
61.809943
 20
136.814176
 30
0.0
 10
61.691227
 20
137.206283
 30
0.0
 10
61.550503
 20
137.590574
 30
0.0
 10
61.390362
 20
137.963716
 30
0.0
 10
61.213384
 20
138.322372
 30
0.0
 10
61.022159
 20
138.663200
 30
0.0
 10
60.819277
 20
138.982870
 30
0.0
 10
60.607324
 20
139.278044
 30
0.0
 10
60.388884
 20
139.545382
 30
0.0
 10
60.166545
 20
139.781552
 30
0.0
 10
59.948282
 20
139.982431
 30
0.0
 10
59.738531
 20
140.148550
 30
0.0
 10
59.534571
 20
140.283554
 30
0.0
 10
59.333686
 20
140.391086
 30
0.0
 10
59.133153
 20
140.474784
 30
0.0
 10
58.930255
 20
140.538295
 30
0.0
 10
58.722269
 20
140.585261
 30
0.0
 10
58.506480
 20
140.619321
 30
0.0
 10
58.280163
 20
140.644112
 30
0.0
 10
58.040604
 20
140.663294
 30
0.0
 10
57.785080
 20
140.680492
 30
0.0
 10
57.510874
 20
140.699357
 30
0.0
 10
57.215263
 20
140.723540
 30
0.0
 10
56.895530
 20
140.756674
 30
0.0
 10
56.548955
 20
140.802399
 30
0.0
 10
56.172818
 20
140.864359
 30
0.0
 10
55.607625
 20
140.967650
 30
0.0
 10
55.022976
 20
141.077981
 30
0.0
 10
54.424853
 20
141.198160
 30
0.0
 10
53.819238
 20
141.330994
 30
0.0
 10
53.212109
 20
141.479288
 30
0.0
 10
52.609446
 20
141.645848
 30
0.0
 10
52.017230
 20
141.833486
 30
0.0
 10
51.441443
 20
142.045004
 30
0.0
 10
50.888067
 20
142.283208
 30
0.0
 10
50.363078
 20
142.550906
 30
0.0
 10
49.872461
 20
142.850906
 30
0.0
 10
49.422196
 20
143.186014
 30
0.0
 10
49.018259
 20
143.559037
 30
0.0
 10
48.666636
 20
143.972782
 30
0.0
 10
48.373306
 20
144.430053
 30
0.0
 10
48.144248
 20
144.933659
 30
0.0
 10
47.958275
 20
145.593122
 30
0.0
 10
47.878231
 20
146.259070
 30
0.0
 10
47.894397
 20
146.929710
 30
0.0
 10
47.997050
 20
147.603252
 30
0.0
 10
48.176474
 20
148.277900
 30
0.0
 10
48.422950
 20
148.951865
 30
0.0
 10
48.726755
 20
149.623353
 30
0.0
 10
49.078172
 20
150.290572
 30
0.0
 10
49.467482
 20
150.951731
 30
0.0
 10
49.884963
 20
151.605035
 30
0.0
 10
50.320898
 20
152.248695
 30
0.0
 10
50.765565
 20
152.880917
 30
0.0
 10
51.209245
 20
153.499907
 30
0.0
 10
51.642220
 20
154.103876
 30
0.0
 10
52.054769
 20
154.691029
 30
0.0
 10
52.437174
 20
155.259576
 30
0.0
 10
52.815485
 20
155.832529
 30
0.0
 10
53.221221
 20
156.435930
 30
0.0
 10
53.652844
 20
157.072525
 30
0.0
 10
54.108822
 20
157.745064
 30
0.0
 10
54.587625
 20
158.456294
 30
0.0
 10
55.087719
 20
159.208964
 30
0.0
 10
55.607570
 20
160.005823
 30
0.0
 10
56.145650
 20
160.849616
 30
0.0
 10
56.700423
 20
161.743096
 30
0.0
 10
57.270357
 20
162.689010
 30
0.0
 10
57.853919
 20
163.690101
 30
0.0
 10
58.449581
 20
164.749125
 30
0.0
 10
59.055805
 20
165.868826
 30
0.0
 10
59.671062
 20
167.051952
 30
0.0
 10
60.293817
 20
168.301252
 30
0.0
 10
60.922538
 20
169.619474
 30
0.0
 10
60.984734
 20
169.819882
 30
0.0
 10
61.033021
 20
170.117396
 30
0.0
 10
61.069843
 20
170.501825
 30
0.0
 10
61.097645
 20
170.962977
 30
0.0
 10
61.118865
 20
171.490660
 30
0.0
 10
61.135957
 20
172.074683
 30
0.0
 10
61.151355
 20
172.704854
 30
0.0
 10
61.167521
 20
173.370982
 30
0.0
 10
61.186889
 20
174.062874
 30
0.0
 10
61.211919
 20
174.770340
 30
0.0
 10
61.245029
 20
175.483186
 30
0.0
 10
61.288677
 20
176.191223
 30
0.0
 10
61.345306
 20
176.884257
 30
0.0
 10
61.417360
 20
177.552097
 30
0.0
 10
61.507284
 20
178.184552
 30
0.0
 10
61.617522
 20
178.771430
 30
0.0
 10
61.813930
 20
179.609924
 30
0.0
 10
62.023097
 20
180.401285
 30
0.0
 10
62.248109
 20
181.148292
 30
0.0
 10
62.492055
 20
181.853725
 30
0.0
 10
62.758025
 20
182.520365
 30
0.0
 10
63.049106
 20
183.150991
 30
0.0
 10
63.368387
 20
183.748382
 30
0.0
 10
63.718957
 20
184.315319
 30
0.0
 10
64.103904
 20
184.854582
 30
0.0
 10
64.526320
 20
185.368950
 30
0.0
 10
64.989290
 20
185.861203
 30
0.0
 10
65.495904
 20
186.334121
 30
0.0
 10
66.049248
 20
186.790483
 30
0.0
 10
66.652416
 20
187.233070
 30
0.0
 10
67.308495
 20
187.664661
 30
0.0
 10
68.020571
 20
188.088037
 30
0.0
 10
68.503984
 20
188.348036
 30
0.0
 10
68.995413
 20
188.592150
 30
0.0
 10
69.494240
 20
188.821252
 30
0.0
 10
69.999835
 20
189.036213
 30
0.0
 10
70.511581
 20
189.237906
 30
0.0
 10
71.028849
 20
189.427203
 30
0.0
 10
71.551020
 20
189.604976
 30
0.0
 10
72.077470
 20
189.772097
 30
0.0
 10
72.607573
 20
189.929439
 30
0.0
 10
73.140706
 20
190.077874
 30
0.0
 10
73.676249
 20
190.218274
 30
0.0
 10
74.213573
 20
190.351511
 30
0.0
 10
74.752061
 20
190.478457
 30
0.0
 10
75.291086
 20
190.599985
 30
0.0
 10
75.830026
 20
190.716966
 30
0.0
 10
76.368255
 20
190.830274
 30
0.0
 10
76.905637
 20
190.937162
 30
0.0
 10
77.444852
 20
191.035040
 30
0.0
 10
77.985735
 20
191.124229
 30
0.0
 10
78.528133
 20
191.205054
 30
0.0
 10
79.071881
 20
191.277835
 30
0.0
 10
79.616825
 20
191.342897
 30
0.0
 10
80.162803
 20
191.400562
 30
0.0
 10
80.709655
 20
191.451153
 30
0.0
 10
81.257223
 20
191.494992
 30
0.0
 10
81.805350
 20
191.532401
 30
0.0
 10
82.353873
 20
191.563705
 30
0.0
 10
82.902633
 20
191.589224
 30
0.0
 10
83.451474
 20
191.609283
 30
0.0
 10
84.000235
 20
191.624203
 30
0.0
 10
84.548756
 20
191.634308
 30
0.0
 10
85.096878
 20
191.639920
 30
0.0
 10
85.693881
 20
191.640373
 30
0.0
 10
86.291067
 20
191.634196
 30
0.0
 10
86.888340
 20
191.621438
 30
0.0
 10
87.485605
 20
191.602145
 30
0.0
 10
88.082759
 20
191.576367
 30
0.0
 10
88.679712
 20
191.544152
 30
0.0
 10
89.276366
 20
191.505546
 30
0.0
 10
89.872620
 20
191.460599
 30
0.0
 10
90.468380
 20
191.409358
 30
0.0
 10
91.063549
 20
191.351872
 30
0.0
 10
91.658031
 20
191.288187
 30
0.0
 10
92.251727
 20
191.218353
 30
0.0
 10
92.844542
 20
191.142417
 30
0.0
 10
93.436378
 20
191.060427
 30
0.0
 10
94.027137
 20
190.972432
 30
0.0
 10
94.616726
 20
190.878478
 30
0.0
 10
95.015057
 20
190.813016
 30
0.0
 10
95.414241
 20
190.746993
 30
0.0
 10
95.813887
 20
190.679590
 30
0.0
 10
96.213598
 20
190.609990
 30
0.0
 10
96.612981
 20
190.537373
 30
0.0
 10
97.011645
 20
190.460922
 30
0.0
 10
97.409189
 20
190.379817
 30
0.0
 10
97.805228
 20
190.293242
 30
0.0
 10
98.199362
 20
190.200376
 30
0.0
 10
98.591197
 20
190.100402
 30
0.0
 10
98.980341
 20
189.992501
 30
0.0
 10
99.366399
 20
189.875856
 30
0.0
 10
99.748979
 20
189.749647
 30
0.0
 10
100.127685
 20
189.613056
 30
0.0
 10
100.502123
 20
189.465265
 30
0.0
 10
100.871900
 20
189.305456
 30
0.0
 10
101.816044
 20
188.839927
 30
0.0
 10
102.682740
 20
188.370188
 30
0.0
 10
103.476104
 20
187.891968
 30
0.0
 10
104.200258
 20
187.400994
 30
0.0
 10
104.859319
 20
186.892994
 30
0.0
 10
105.457412
 20
186.363695
 30
0.0
 10
105.998654
 20
185.808826
 30
0.0
 10
106.487165
 20
185.224113
 30
0.0
 10
106.927067
 20
184.605286
 30
0.0
 10
107.322479
 20
183.948071
 30
0.0
 10
107.677520
 20
183.248197
 30
0.0
 10
107.996312
 20
182.501390
 30
0.0
 10
108.282972
 20
181.703380
 30
0.0
 10
108.541626
 20
180.849893
 30
0.0
 10
108.776388
 20
179.936657
 30
0.0
 10
108.991380
 20
178.959401
 30
0.0
 10
109.089684
 20
178.380232
 30
0.0
 10
109.166849
 20
177.742146
 30
0.0
 10
109.224915
 20
177.058426
 30
0.0
 10
109.265925
 20
176.342359
 30
0.0
 10
109.291934
 20
175.607230
 30
0.0
 10
109.304951
 20
174.866325
 30
0.0
 10
109.307068
 20
174.132928
 30
0.0
 10
109.300268
 20
173.420327
 30
0.0
 10
109.286616
 20
172.741805
 30
0.0
 10
109.268174
 20
172.110649
 30
0.0
 10
109.246955
 20
171.540144
 30
0.0
 10
109.225021
 20
171.043576
 30
0.0
 10
109.204410
 20
170.634229
 30
0.0
 10
109.187159
 20
170.325390
 30
0.0
 10
109.175305
 20
170.130344
 30
0.0
 10
109.170913
 20
170.062376
 30
0.0
 10
109.653823
 20
169.023753
 30
0.0
 10
110.214965
 20
167.934891
 30
0.0
 10
110.841212
 20
166.809035
 30
0.0
 10
111.519434
 20
165.659429
 30
0.0
 10
112.236503
 20
164.499316
 30
0.0
 10
112.979292
 20
163.341944
 30
0.0
 10
113.734666
 20
162.200555
 30
0.0
 10
114.489501
 20
161.088392
 30
0.0
 10
115.230666
 20
160.018703
 30
0.0
 10
115.945033
 20
159.004730
 30
0.0
 10
116.619469
 20
158.059717
 30
0.0
 10
117.240851
 20
157.196911
 30
0.0
 10
117.796044
 20
156.429553
 30
0.0
 10
118.271924
 20
155.770892
 30
0.0
 10
118.655358
 20
155.234169
 30
0.0
 10
118.933218
 20
154.832629
 30
0.0
 10
119.185102
 20
154.469827
 30
0.0
 10
119.491431
 20
154.044763
 30
0.0
 10
119.840311
 20
153.563862
 30
0.0
 10
120.219853
 20
153.033544
 30
0.0
 10
120.618164
 20
152.460227
 30
0.0
 10
121.023353
 20
151.850330
 30
0.0
 10
121.423527
 20
151.210279
 30
0.0
 10
121.806794
 20
150.546487
 30
0.0
 10
122.161265
 20
149.865381
 30
0.0
 10
122.475045
 20
149.173377
 30
0.0
 10
122.736244
 20
148.476895
 30
0.0
 10
122.932970
 20
147.782356
 30
0.0
 10
123.053331
 20
147.096183
 30
0.0
 10
123.085436
 20
146.424792
 30
0.0
 10
123.017390
 20
145.774608
 30
0.0
 10
122.837304
 20
145.152046
 30
0.0
 10
122.628286
 20
144.714565
 30
0.0
 10
122.369434
 20
144.323829
 30
0.0
 10
122.064517
 20
143.976354
 30
0.0
 10
121.717304
 20
143.668657
 30
0.0
 10
121.331566
 20
143.397252
 30
0.0
 10
120.911066
 20
143.158654
 30
0.0
 10
120.459578
 20
142.949382
 30
0.0
 10
119.980868
 20
142.765949
 30
0.0
 10
119.478707
 20
142.604873
 30
0.0
 10
118.956861
 20
142.462670
 30
0.0
 10
118.419104
 20
142.335855
 30
0.0
 10
117.869199
 20
142.220941
 30
0.0
 10
117.310915
 20
142.114449
 30
0.0
 10
116.748025
 20
142.012892
 30
0.0
 10
116.184293
 20
141.912786
 30
0.0
 10
115.623492
 20
141.810649
 30
0.0
 10
115.495688
 20
141.779108
 30
0.0
 10
115.342944
 20
141.744292
 30
0.0
 10
115.166830
 20
141.705459
 30
0.0
 10
114.968911
 20
141.661877
 30
0.0
 10
114.750759
 20
141.612807
 30
0.0
 10
114.513941
 20
141.557515
 30
0.0
 10
114.260026
 20
141.495258
 30
0.0
 10
113.990582
 20
141.425308
 30
0.0
 10
113.707181
 20
141.346919
 30
0.0
 10
113.411388
 20
141.259361
 30
0.0
 10
113.104773
 20
141.161894
 30
0.0
 10
112.788905
 20
141.053782
 30
0.0
 10
112.465352
 20
140.934288
 30
0.0
 10
112.135681
 20
140.802677
 30
0.0
 10
111.801464
 20
140.658209
 30
0.0
 10
111.464269
 20
140.500150
 30
0.0
 10
111.217256
 20
140.232235
 30
0.0
 10
110.980719
 20
139.926763
 30
0.0
 10
110.756537
 20
139.587710
 30
0.0
 10
110.546601
 20
139.219053
 30
0.0
 10
110.352797
 20
138.824763
 30
0.0
 10
110.177013
 20
138.408819
 30
0.0
 10
110.021131
 20
137.975199
 30
0.0
 10
109.887040
 20
137.527873
 30
0.0
 10
109.776629
 20
137.070821
 30
0.0
 10
109.691783
 20
136.608020
 30
0.0
 10
109.634387
 20
136.143438
 30
0.0
 10
109.606328
 20
135.681060
 30
0.0
 10
109.609503
 20
135.224855
 30
0.0
 10
109.645780
 20
134.778799
 30
0.0
 10
109.717053
 20
134.346872
 30
0.0
 10
109.825209
 20
133.933046
 30
0.0
 10
109.942475
 20
133.615958
 30
0.0
 10
110.088666
 20
133.311931
 30
0.0
 10
110.261550
 20
133.020865
 30
0.0
 10
110.458897
 20
132.742667
 30
0.0
 10
110.678483
 20
132.477231
 30
0.0
 10
110.918079
 20
132.224467
 30
0.0
 10
111.175455
 20
131.984276
 30
0.0
 10
111.448386
 20
131.756557
 30
0.0
 10
111.734639
 20
131.541215
 30
0.0
 10
112.031988
 20
131.338152
 30
0.0
 10
112.338206
 20
131.147274
 30
0.0
 10
112.651063
 20
130.968477
 30
0.0
 10
112.968330
 20
130.801667
 30
0.0
 10
113.287782
 20
130.646746
 30
0.0
 10
113.607187
 20
130.503617
 30
0.0
 10
113.924320
 20
130.372180
 30
0.0
 10
115.574857
 20
129.723628
 30
0.0
 10
117.223719
 20
129.092353
 30
0.0
 10
118.870803
 20
128.475858
 30
0.0
 10
120.516001
 20
127.871645
 30
0.0
 10
122.159209
 20
127.277214
 30
0.0
 10
123.800324
 20
126.690066
 30
0.0
 10
125.439243
 20
126.107705
 30
0.0
 10
127.075860
 20
125.527633
 30
0.0
 10
128.710070
 20
124.947346
 30
0.0
 10
130.341771
 20
124.364350
 30
0.0
 10
131.970859
 20
123.776146
 30
0.0
 10
133.597229
 20
123.180236
 30
0.0
 10
135.220775
 20
122.574120
 30
0.0
 10
136.841393
 20
121.955302
 30
0.0
 10
138.458982
 20
121.321281
 30
0.0
 10
140.073435
 20
120.669560
 30
0.0
 10
140.685030
 20
120.417737
 30
0.0
 10
141.295945
 20
120.164023
 30
0.0
 10
141.906079
 20
119.908261
 30
0.0
 10
142.515338
 20
119.650295
 30
0.0
 10
143.123623
 20
119.389969
 30
0.0
 10
143.730834
 20
119.127121
 30
0.0
 10
144.336873
 20
118.861598
 30
0.0
 10
144.941641
 20
118.593239
 30
0.0
 10
145.545042
 20
118.321891
 30
0.0
 10
146.146974
 20
118.047393
 30
0.0
 10
146.747343
 20
117.769589
 30
0.0
 10
147.346048
 20
117.488321
 30
0.0
 10
147.942990
 20
117.203433
 30
0.0
 10
148.538072
 20
116.914768
 30
0.0
 10
149.131194
 20
116.622165
 30
0.0
 10
149.722260
 20
116.325469
 30
0.0
 10
150.421419
 20
115.970501
 30
0.0
 10
151.119982
 20
115.613616
 30
0.0
 10
151.817596
 20
115.254343
 30
0.0
 10
152.513913
 20
114.892213
 30
0.0
 10
153.208582
 20
114.526760
 30
0.0
 10
153.901251
 20
114.157513
 30
0.0
 10
154.591572
 20
113.784003
 30
0.0
 10
155.279193
 20
113.405763
 30
0.0
 10
155.963762
 20
113.022321
 30
0.0
 10
156.644932
 20
112.633206
 30
0.0
 10
157.322353
 20
112.237953
 30
0.0
 10
157.995670
 20
111.836093
 30
0.0
 10
158.664536
 20
111.427156
 30
0.0
 10
159.328604
 20
111.010672
 30
0.0
 10
159.987517
 20
110.586172
 30
0.0
 10
160.640926
 20
110.153187
 30
0.0
 10
160.931748
 20
109.958586
 30
0.0
 10
161.223915
 20
109.764152
 30
0.0
 10
161.516655
 20
109.569214
 30
0.0
 10
161.809199
 20
109.373105
 30
0.0
 10
162.100781
 20
109.175157
 30
0.0
 10
162.390624
 20
108.974704
 30
0.0
 10
162.677961
 20
108.771075
 30
0.0
 10
162.962023
 20
108.563605
 30
0.0
 10
163.242043
 20
108.351623
 30
0.0
 10
163.517244
 20
108.134461
 30
0.0
 10
163.786859
 20
107.911457
 30
0.0
 10
164.050117
 20
107.681934
 30
0.0
 10
164.306252
 20
107.445232
 30
0.0
 10
164.554490
 20
107.200678
 30
0.0
 10
164.794062
 20
106.947606
 30
0.0
 10
165.024199
 20
106.685349
 30
0.0
 10
165.323774
 20
106.325219
 30
0.0
 10
165.620163
 20
105.958157
 30
0.0
 10
165.911868
 20
105.584238
 30
0.0
 10
166.197401
 20
105.203536
 30
0.0
 10
166.475269
 20
104.816128
 30
0.0
 10
166.743978
 20
104.422087
 30
0.0
 10
167.002031
 20
104.021492
 30
0.0
 10
167.247940
 20
103.614415
 30
0.0
 10
167.480210
 20
103.200932
 30
0.0
 10
167.697348
 20
102.781120
 30
0.0
 10
167.897863
 20
102.355053
 30
0.0
 10
168.080258
 20
101.922806
 30
0.0
 10
168.243041
 20
101.484455
 30
0.0
 10
168.384722
 20
101.040074
 30
0.0
 10
168.503806
 20
100.589743
 30
0.0
 10
168.598799
 20
100.133530
 30
0.0
 10
168.665257
 20
99.708101
 30
0.0
 10
168.712946
 20
99.278394
 30
0.0
 10
168.742230
 20
98.845329
 30
0.0
 10
168.753475
 20
98.409828
 30
0.0
 10
168.747019
 20
97.972813
 30
0.0
 10
168.723233
 20
97.535200
 30
0.0
 10
168.682484
 20
97.097910
 30
0.0
 10
168.625125
 20
96.661866
 30
0.0
 10
168.551518
 20
96.227989
 30
0.0
 10
168.462023
 20
95.797194
 30
0.0
 10
168.356997
 20
95.370408
 30
0.0
 10
168.236799
 20
94.948546
 30
0.0
 10
168.101793
 20
94.532531
 30
0.0
 10
167.952335
 20
94.123281
 30
0.0
 10
167.788788
 20
93.721720
 30
0.0
 10
167.611507
 20
93.328766
 30
0.0
 10
167.437945
 20
92.984226
 30
0.0
 10
167.248342
 20
92.647912
 30
0.0
 10
167.043655
 20
92.319765
 30
0.0
 10
166.824837
 20
91.999743
 30
0.0
 10
166.592840
 20
91.687789
 30
0.0
 10
166.348619
 20
91.383857
 30
0.0
 10
166.093126
 20
91.087891
 30
0.0
 10
165.827321
 20
90.799845
 30
0.0
 10
165.552154
 20
90.519667
 30
0.0
 10
165.268576
 20
90.247305
 30
0.0
 10
164.977548
 20
89.982711
 30
0.0
 10
164.680016
 20
89.725829
 30
0.0
 10
164.376941
 20
89.476613
 30
0.0
 10
164.069273
 20
89.235011
 30
0.0
 10
163.757967
 20
89.000974
 30
0.0
 10
163.443975
 20
88.774448
 30
0.0
 10
163.012022
 20
88.482774
 30
0.0
 10
162.569138
 20
88.209579
 30
0.0
 10
162.116280
 20
87.953409
 30
0.0
 10
161.654402
 20
87.712813
 30
0.0
 10
161.184463
 20
87.486338
 30
0.0
 10
160.707411
 20
87.272525
 30
0.0
 10
160.224208
 20
87.069929
 30
0.0
 10
159.735808
 20
86.877092
 30
0.0
 10
159.243167
 20
86.692561
 30
0.0
 10
158.747237
 20
86.514886
 30
0.0
 10
158.248979
 20
86.342610
 30
0.0
 10
157.749343
 20
86.174285
 30
0.0
 10
157.249288
 20
86.008452
 30
0.0
 10
156.749771
 20
85.843662
 30
0.0
 10
156.251743
 20
85.678458
 30
0.0
 10
155.756162
 20
85.511392
 30
0.0
 10
154.898851
 20
85.226963
 30
0.0
 10
154.012929
 20
84.947679
 30
0.0
 10
153.104463
 20
84.674140
 30
0.0
 10
152.179517
 20
84.406937
 30
0.0
 10
151.244159
 20
84.146677
 30
0.0
 10
150.304449
 20
83.893950
 30
0.0
 10
149.366456
 20
83.649355
 30
0.0
 10
148.436245
 20
83.413490
 30
0.0
 10
147.519882
 20
83.186954
 30
0.0
 10
146.623428
 20
82.970342
 30
0.0
 10
145.752949
 20
82.764253
 30
0.0
 10
144.914516
 20
82.569284
 30
0.0
 10
144.114189
 20
82.386031
 30
0.0
 10
143.358033
 20
82.215092
 30
0.0
 10
142.652114
 20
82.057067
 30
0.0
 10
142.002499
 20
81.912548
 30
0.0
 10
140.224242
 20
81.362160
 30
0.0
 10
138.966974
 20
80.628761
 30
0.0
 10
138.193480
 20
79.722473
 30
0.0
 10
137.866551
 20
78.653416
 30
0.0
 10
137.948968
 20
77.431711
 30
0.0
 10
138.403522
 20
76.067474
 30
0.0
 10
139.192999
 20
74.570827
 30
0.0
 10
140.280188
 20
72.951886
 30
0.0
 10
141.627875
 20
71.220775
 30
0.0
 10
143.198847
 20
69.387612
 30
0.0
 10
144.955889
 20
67.462515
 30
0.0
 10
146.861794
 20
65.455605
 30
0.0
 10
148.879345
 20
63.377001
 30
0.0
 10
150.971329
 20
61.236824
 30
0.0
 10
153.100534
 20
59.045190
 30
0.0
 10
155.229747
 20
56.812223
 30
0.0
 10
157.354156
 20
54.225815
 30
0.0
 10
159.264572
 20
51.875969
 30
0.0
 10
160.951060
 20
49.745837
 30
0.0
 10
162.403689
 20
47.818578
 30
0.0
 10
163.612520
 20
46.077342
 30
0.0
 10
164.567621
 20
44.505283
 30
0.0
 10
165.259057
 20
43.085558
 30
0.0
 10
165.676894
 20
41.801320
 30
0.0
 10
165.811197
 20
40.635722
 30
0.0
 10
165.652034
 20
39.571917
 30
0.0
 10
165.189471
 20
38.593062
 30
0.0
 10
164.413570
 20
37.682311
 30
0.0
 10
163.314401
 20
36.822817
 30
0.0
 10
161.882026
 20
35.997735
 30
0.0
 10
160.106513
 20
35.190216
 30
0.0
 10
157.977927
 20
34.383417
 30
0.0
 10
156.916691
 20
34.029140
 30
0.0
 10
155.823197
 20
33.708936
 30
0.0
 10
154.710492
 20
33.419236
 30
0.0
 10
153.591611
 20
33.156475
 30
0.0
 10
152.479602
 20
32.917085
 30
0.0
 10
151.387503
 20
32.697502
 30
0.0
 10
150.328357
 20
32.494154
 30
0.0
 10
149.315204
 20
32.303480
 30
0.0
 10
148.361087
 20
32.121907
 30
0.0
 10
147.479048
 20
31.945874
 30
0.0
 10
146.682131
 20
31.771810
 30
0.0
 10
145.983372
 20
31.596148
 30
0.0
 10
145.395814
 20
31.415324
 30
0.0
 10
144.932503
 20
31.225768
 30
0.0
 10
144.606478
 20
31.023918
 30
0.0
 10
144.430778
 20
30.806200
 30
0.0
 10
144.412311
 20
30.624193
 30
0.0
 10
144.422920
 20
30.392947
 30
0.0
 10
144.459801
 20
30.117614
 30
0.0
 10
144.520144
 20
29.803347
 30
0.0
 10
144.601146
 20
29.455298
 30
0.0
 10
144.699995
 20
29.078622
 30
0.0
 10
144.813879
 20
28.678471
 30
0.0
 10
144.939996
 20
28.259995
 30
0.0
 10
145.075528
 20
27.828352
 30
0.0
 10
145.217673
 20
27.388688
 30
0.0
 10
145.363617
 20
26.946162
 30
0.0
 10
145.510554
 20
26.505922
 30
0.0
 10
145.655672
 20
26.073124
 30
0.0
 10
145.796163
 20
25.652918
 30
0.0
 10
145.929220
 20
25.250458
 30
0.0
 10
146.052029
 20
24.870897
 30
0.0
 10
146.480191
 20
23.566472
 30
0.0
 10
146.950466
 20
22.200987
 30
0.0
 10
147.454662
 20
20.789051
 30
0.0
 10
147.984575
 20
19.345275
 30
0.0
 10
148.532008
 20
17.884270
 30
0.0
 10
149.088765
 20
16.420648
 30
0.0
 10
149.646647
 20
14.969017
 30
0.0
 10
150.197454
 20
13.543995
 30
0.0
 10
150.732992
 20
12.160184
 30
0.0
 10
151.245061
 20
10.832203
 30
0.0
 10
151.725463
 20
9.574660
 30
0.0
 10
152.165999
 20
8.402167
 30
0.0
 10
152.558474
 20
7.329334
 30
0.0
 10
152.894686
 20
6.370773
 30
0.0
 10
153.166439
 20
5.541095
 30
0.0
 10
153.365535
 20
4.854911
 30
0.0
 10
153.395283
 20
4.740063
 30
0.0
 10
153.423839
 20
4.626652
 30
0.0
 10
153.451205
 20
4.514675
 30
0.0
 10
153.477372
 20
4.404130
 30
0.0
 10
153.502349
 20
4.295016
 30
0.0
 10
153.526135
 20
4.187325
 30
0.0
 10
153.548730
 20
4.081055
 30
0.0
 10
153.570135
 20
3.976209
 30
0.0
 10
153.590349
 20
3.872775
 30
0.0
 10
153.609373
 20
3.770757
 30
0.0
 10
153.627206
 20
3.670149
 30
0.0
 10
153.643848
 20
3.570949
 30
0.0
 10
153.659300
 20
3.473154
 30
0.0
 10
153.673561
 20
3.376761
 30
0.0
 10
153.686631
 20
3.281765
 30
0.0
 10
153.698511
 20
3.188163
 30
0.0
 10
153.709174
 20
3.095956
 30
0.0
 10
153.718646
 20
3.005138
 30
0.0
 10
153.726927
 20
2.915706
 30
0.0
 10
153.734018
 20
2.827655
 30
0.0
 10
153.739918
 20
2.740988
 30
0.0
 10
153.744601
 20
2.655694
 30
0.0
 10
153.748094
 20
2.571779
 30
0.0
 10
153.750475
 20
2.489232
 30
0.0
 10
153.751533
 20
2.408055
 30
0.0
 10
153.751438
 20
2.328243
 30
0.0
 10
153.750115
 20
2.249792
 30
0.0
 10
153.747734
 20
2.172700
 30
0.0
 10
153.744030
 20
2.096966
 30
0.0
 10
153.739135
 20
2.022586
 30
0.0
 10
153.733050
 20
1.949553
 30
0.0
 10
153.725747
 20
1.877870
 30
0.0
 10
153.717254
 20
1.807530
 30
0.0
 10
153.707570
 20
1.738529
 30
0.0
 10
153.696669
 20
1.670870
 30
0.0
 10
153.684578
 20
1.604544
 30
0.0
 10
153.671296
 20
1.539550
 30
0.0
 10
153.656797
 20
1.475886
 30
0.0
 10
153.641107
 20
1.413547
 30
0.0
 10
153.624200
 20
1.352531
 30
0.0
 10
153.606103
 20
1.292836
 30
0.0
 10
153.586788
 20
1.234456
 30
0.0
 10
153.566283
 20
1.177393
 30
0.0
 10
153.544561
 20
1.121640
 30
0.0
 10
153.521648
 20
1.067194
 30
0.0
 10
153.497518
 20
1.014053
 30
0.0
 10
153.472197
 20
0.962216
 30
0.0
 10
153.445665
 20
0.911675
 30
0.0
 10
153.417926
 20
0.862433
 30
0.0
 10
153.388983
 20
0.814483
 30
0.0
 10
153.358836
 20
0.767823
 30
0.0
 10
153.327483
 20
0.722447
 30
0.0
 10
153.294921
 20
0.678357
 30
0.0
 10
153.261155
 20
0.635548
 30
0.0
 10
153.226182
 20
0.594016
 30
0.0
 10
153.190000
 20
0.553757
 30
0.0
 10
153.152609
 20
0.514771
 30
0.0
 10
153.114012
 20
0.477054
 30
0.0
 10
153.074205
 20
0.440603
 30
0.0
 10
153.033187
 20
0.405413
 30
0.0
 10
152.990962
 20
0.371483
 30
0.0
 10
152.947526
 20
0.338812
 30
0.0
 10
152.902877
 20
0.307393
 30
0.0
 10
152.857020
 20
0.277225
 30
0.0
 10
152.760264
 20
0.250063
 30
0.0
 10
152.549190
 20
0.223605
 30
0.0
 10
152.212984
 20
0.197993
 30
0.0
 10
151.740835
 20
0.173360
 30
0.0
 10
151.121932
 20
0.149865
 30
0.0
 10
150.345462
 20
0.127640
 30
0.0
 10
149.400617
 20
0.106818
 30
0.0
 10
148.276579
 20
0.087529
 30
0.0
 10
146.962542
 20
0.069908
 30
0.0
 10
145.447689
 20
0.054113
 30
0.0
 10
143.721214
 20
0.040275
 30
0.0
 10
141.772301
 20
0.028554
 30
0.0
 10
139.590139
 20
0.019082
 30
0.0
 10
137.163918
 20
0.011964
 30
0.0
 10
134.482823
 20
0.007387
 30
0.0
 10
131.536048
 20
0.005535
 30
0.0
 10
126.312707
 20
0.004741
 30
0.0
 10
121.734902
 20
0.005271
 30
0.0
 10
117.758863
 20
0.008154
 30
0.0
 10
114.340824
 20
0.014372
 30
0.0
 10
111.437014
 20
0.024956
 30
0.0
 10
109.003665
 20
0.040910
 30
0.0
 10
106.997004
 20
0.063267
 30
0.0
 10
105.373267
 20
0.093059
 30
0.0
 10
104.088680
 20
0.131307
 30
0.0
 10
103.099477
 20
0.179038
 30
0.0
 10
102.361888
 20
0.237276
 30
0.0
 10
101.832142
 20
0.307044
 30
0.0
 10
101.466471
 20
0.389366
 30
0.0
 10
101.221105
 20
0.485270
 30
0.0
 10
101.052277
 20
0.595781
 30
0.0
 10
100.916215
 20
0.721921
 30
0.0
 10
100.750334
 20
0.912103
 30
0.0
 10
100.561832
 20
1.171512
 30
0.0
 10
100.353406
 20
1.494449
 30
0.0
 10
100.127751
 20
1.875205
 30
0.0
 10
99.887565
 20
2.308085
 30
0.0
 10
99.635547
 20
2.787383
 30
0.0
 10
99.374395
 20
3.307395
 30
0.0
 10
99.106801
 20
3.862422
 30
0.0
 10
98.835468
 20
4.446757
 30
0.0
 10
98.563093
 20
5.054703
 30
0.0
 10
98.292368
 20
5.680551
 30
0.0
 10
98.025994
 20
6.318607
 30
0.0
 10
97.766670
 20
6.963161
 30
0.0
 10
97.517089
 20
7.608515
 30
0.0
 10
97.279953
 20
8.248962
 30
0.0
 10
97.057955
 20
8.878806
 30
0.0
 10
96.882115
 20
9.361858
 30
0.0
 10
96.646753
 20
9.959769
 30
0.0
 10
96.353142
 20
10.669770
 30
0.0
 10
96.002572
 20
11.489092
 30
0.0
 10
95.596322
 20
12.414962
 30
0.0
 10
95.135672
 20
13.444612
 30
0.0
 10
94.621910
 20
14.575274
 30
0.0
 10
94.056310
 20
15.804174
 30
0.0
 10
93.440159
 20
17.128543
 30
0.0
 10
92.774740
 20
18.545612
 30
0.0
 10
92.061330
 20
20.052610
 30
0.0
 10
91.301217
 20
21.646767
 30
0.0
 10
90.495677
 20
23.325312
 30
0.0
 10
89.645997
 20
25.085480
 30
0.0
 10
88.753456
 20
26.924492
 30
0.0
 10
87.819340
 20
28.839586
 30
0.0
 10
87.717904
 20
29.041667
 30
0.0
 10
87.615285
 20
29.235623
 30
0.0
 10
87.511531
 20
29.421535
 30
0.0
 10
87.406690
 20
29.599486
 30
0.0
 10
87.300807
 20
29.769554
 30
0.0
 10
87.193928
 20
29.931831
 30
0.0
 10
87.086103
 20
30.086393
 30
0.0
 10
86.977372
 20
30.233327
 30
0.0
 10
86.867790
 20
30.372712
 30
0.0
 10
86.757395
 20
30.504633
 30
0.0
 10
86.646241
 20
30.629175
 30
0.0
 10
86.534370
 20
30.746415
 30
0.0
 10
86.421829
 20
30.856442
 30
0.0
 10
86.308664
 20
30.959333
 30
0.0
 10
86.194925
 20
31.055175
 30
0.0
 10
86.080657
 20
31.144049
 30
0.0
 10
85.965904
 20
31.226038
 30
0.0
 10
85.850715
 20
31.301227
 30
0.0
 10
85.735137
 20
31.369696
 30
0.0
 10
85.619215
 20
31.431529
 30
0.0
 10
85.502995
 20
31.486809
 30
0.0
 10
85.386525
 20
31.535619
 30
0.0
 10
85.269852
 20
31.578040
 30
0.0
 10
85.153020
 20
31.614155
 30
0.0
 10
85.036079
 20
31.644051
 30
0.0
 10
84.919072
 20
31.667810
 30
0.0
 10
84.802047
 20
31.685511
 30
0.0
 10
84.685051
 20
31.697232
 30
0.0
 10
84.568129
 20
31.703079
 30
0.0
 10
84.451329
 20
31.703106
 30
0.0
 10
84.334698
 20
31.697417
 30
0.0
 10
84.218281
 20
31.686067
 30
0.0
 10
84.102124
 20
31.669160
 30
0.0
 10
83.986276
 20
31.646776
 30
0.0
 10
83.870783
 20
31.619005
 30
0.0
 10
83.755689
 20
31.585924
 30
0.0
 10
83.641042
 20
31.547613
 30
0.0
 10
83.526890
 20
31.504158
 30
0.0
 10
83.413278
 20
31.455638
 30
0.0
 10
83.300254
 20
31.402139
 30
0.0
 10
83.187861
 20
31.343746
 30
0.0
 10
83.076149
 20
31.280537
 30
0.0
 10
82.965164
 20
31.212597
 30
0.0
 10
82.854952
 20
31.140006
 30
0.0
 10
82.745560
 20
31.062854
 30
0.0
 10
82.637033
 20
30.981217
 30
0.0
 10
82.529419
 20
30.895179
 30
0.0
 10
82.422766
 20
30.804824
 30
0.0
 10
82.317118
 20
30.710236
 30
0.0
 10
82.212520
 20
30.611496
 30
0.0
 10
82.109020
 20
30.508684
 30
0.0
 10
82.006666
 20
30.401890
 30
0.0
 10
81.905505
 20
30.291191
 30
0.0
 10
81.805580
 20
30.176671
 30
0.0
 10
81.706943
 20
30.058416
 30
0.0
 10
81.609635
 20
29.936504
 30
0.0
 10
81.513705
 20
29.811023
 30
0.0
 10
81.419198
 20
29.682049
 30
0.0
 10
81.326166
 20
29.549672
 30
0.0
 10
81.234649
 20
29.413970
 30
0.0
 10
81.144696
 20
29.275027
 30
0.0
 10
81.056354
 20
29.132927
 30
0.0
 10
80.969671
 20
28.987753
 30
0.0
 10
80.884690
 20
28.839586
 30
0.0
 10
79.950570
 20
26.924492
 30
0.0
 10
79.058030
 20
25.085480
 30
0.0
 10
78.208350
 20
23.325312
 30
0.0
 10
77.402810
 20
21.646767
 30
0.0
 10
76.642694
 20
20.052610
 30
0.0
 10
75.929282
 20
18.545612
 30
0.0
 10
75.263860
 20
17.128543
 30
0.0
 10
74.647706
 20
15.804174
 30
0.0
 10
74.082107
 20
14.575274
 30
0.0
 10
73.568339
 20
13.444612
 30
0.0
 10
73.107689
 20
12.414962
 30
0.0
 10
72.701434
 20
11.489092
 30
0.0
 10
72.350861
 20
10.669770
 30
0.0
 10
72.057253
 20
9.959769
 30
0.0
 10
71.821888
 20
9.361858
 30
0.0
 10
71.646048
 20
8.878806
 30
0.0
 10
71.427878
 20
8.260096
 30
0.0
 10
71.194849
 20
7.631602
 30
0.0
 10
70.949498
 20
6.998655
 30
0.0
 10
70.694374
 20
6.366597
 30
0.0
 10
70.432010
 20
5.740763
 30
0.0
 10
70.164956
 20
5.126490
 30
0.0
 10
69.895750
 20
4.529114
 30
0.0
 10
69.626933
 20
3.953973
 30
0.0
 10
69.361048
 20
3.406405
 30
0.0
 10
69.100637
 20
2.891745
 30
0.0
 10
68.848243
 20
2.415331
 30
0.0
 10
68.606404
 20
1.982502
 30
0.0
 10
68.377666
 20
1.598591
 30
0.0
 10
68.164568
 20
1.268936
 30
0.0
 10
67.969652
 20
0.998879
 30
0.0
 10
67.795461
 20
0.793750
 30
0.0
 10
67.748146
 20
0.744141
 30
0.0
 10
67.700830
 20
0.694531
 30
0.0
 10
67.653515
 20
0.644922
 30
0.0
 10
67.606197
 20
0.595313
 30
0.0
 10
67.558881
 20
0.545703
 30
0.0
 10
67.511566
 20
0.496094
 30
0.0
 10
67.464250
 20
0.446484
 30
0.0
 10
67.416935
 20
0.396875
 30
0.0
 10
67.369619
 20
0.347266
 30
0.0
 10
67.322304
 20
0.297656
 30
0.0
 10
67.274989
 20
0.248047
 30
0.0
 10
67.227671
 20
0.198438
 30
0.0
 10
67.180355
 20
0.148828
 30
0.0
 10
67.133040
 20
0.099219
 30
0.0
 10
67.085724
 20
0.049609
 30
0.0
 10
67.038409
 20
0.000000
 30
0.0
 10
65.699813
 20
0.000265
 30
0.0
 10
64.361220
 20
0.000529
 30
0.0
 10
63.022624
 20
0.000794
 30
0.0
 10
61.684030
 20
0.001058
 30
0.0
 10
60.345435
 20
0.001323
 30
0.0
 10
59.006841
 20
0.001588
 30
0.0
 10
57.668245
 20
0.001852
 30
0.0
 10
56.329650
 20
0.002117
 30
0.0
 10
54.991056
 20
0.002381
 30
0.0
 10
53.652460
 20
0.002646
 30
0.0
 10
52.313867
 20
0.002910
 30
0.0
 10
50.975271
 20
0.003175
 30
0.0
 10
49.636678
 20
0.003440
 30
0.0
 10
48.298082
 20
0.003704
 30
0.0
 10
46.959489
 20
0.003969
 30
0.0
 10
45.620893
 20
0.004233
 30
0.0
 10
42.574483
 20
0.006085
 30
0.0
 10
39.609234
 20
0.010663
 30
0.0
 10
36.740682
 20
0.017754
 30
0.0
 10
33.984362
 20
0.027226
 30
0.0
 10
31.355811
 20
0.038947
 30
0.0
 10
28.870566
 20
0.052758
 30
0.0
 10
26.544159
 20
0.068554
 30
0.0
 10
24.392132
 20
0.086175
 30
0.0
 10
22.430016
 20
0.105463
 30
0.0
 10
20.673350
 20
0.126312
 30
0.0
 10
19.137669
 20
0.148564
 30
0.0
 10
17.838510
 20
0.172059
 30
0.0
 10
16.791409
 20
0.196691
 30
0.0
 10
16.011901
 20
0.222303
 30
0.0
 10
15.515523
 20
0.248764
 30
0.0
 10
15.317812
 20
0.275926
 30
0.0
 10
15.317810
 20
0.275926
 30
0.0
 10
15.317809
 20
0.275926
 30
0.0
 10
15.317808
 20
0.275926
 30
0.0
 10
15.317806
 20
0.275926
 30
0.0
 10
15.317805
 20
0.275926
 30
0.0
 10
15.317804
 20
0.275926
 30
0.0
 10
15.317803
 20
0.275926
 30
0.0
 10
15.317801
 20
0.275926
 30
0.0
 10
15.317800
 20
0.275926
 30
0.0
 10
15.317799
 20
0.275926
 30
0.0
 10
15.317797
 20
0.275926
 30
0.0
 10
15.317796
 20
0.275926
 30
0.0
 10
15.317795
 20
0.275926
 30
0.0
 10
15.317793
 20
0.275926
 30
0.0
 10
15.317792
 20
0.275926
 30
0.0
 10
15.317791
 20
0.275926
 30
0.0
 10
15.317789
 20
0.275926
 30
0.0
 10
15.317788
 20
0.275926
 30
0.0
 10
15.317787
 20
0.275926
 30
0.0
 10
15.317785
 20
0.275926
 30
0.0
 10
15.317784
 20
0.275926
 30
0.0
 10
15.317783
 20
0.275926
 30
0.0
 10
15.317781
 20
0.275926
 30
0.0
 10
15.317780
 20
0.275926
 30
0.0
 10
15.317779
 20
0.275929
 30
0.0
 10
15.317777
 20
0.275929
 30
0.0
 10
15.317776
 20
0.275929
 30
0.0
 10
15.317775
 20
0.275929
 30
0.0
 10
15.317773
 20
0.275929
 30
0.0
 10
15.317772
 20
0.275929
 30
0.0
 10
15.317771
 20
0.275929
 30
0.0
 10
15.317769
 20
0.275929
 30
0.0
 10
15.317768
 20
0.275929
 30
0.0
 10
15.317767
 20
0.275929
 30
0.0
 10
15.317766
 20
0.275929
 30
0.0
 10
15.317765
 20
0.275929
 30
0.0
 10
15.317764
 20
0.275929
 30
0.0
 10
15.317763
 20
0.275929
 30
0.0
 10
15.317761
 20
0.275929
 30
0.0
 10
15.317760
 20
0.275929
 30
0.0
 10
15.317759
 20
0.275929
 30
0.0
 10
15.317758
 20
0.275929
 30
0.0
 10
15.317757
 20
0.275929
 30
0.0
 10
15.317756
 20
0.275929
 30
0.0
 10
15.317754
 20
0.275929
 30
0.0
 10
15.317753
 20
0.275929
 30
0.0
 10
15.317752
 20
0.275929
 30
0.0
 10
15.317751
 20
0.275929
 30
0.0
 10
15.317755
 20
0.275929
 30
0.0
 10
15.317758
 20
0.275929
 30
0.0
 10
15.317762
 20
0.275929
 30
0.0
 10
15.317765
 20
0.275929
 30
0.0
 10
15.317769
 20
0.275929
 30
0.0
 10
15.317773
 20
0.275929
 30
0.0
 10
15.317776
 20
0.275929
 30
0.0
 10
15.317780
 20
0.275929
 30
0.0
 10
15.317784
 20
0.275931
 30
0.0
 10
15.317787
 20
0.275931
 30
0.0
 10
15.317791
 20
0.275931
 30
0.0
 10
15.317795
 20
0.275931
 30
0.0
 10
15.317798
 20
0.275931
 30
0.0
 10
15.317802
 20
0.275931
 30
0.0
 10
15.317805
 20
0.275931
 30
0.0
  0
ENDSEC
  0
SECTION
  2
OBJECTS
  0
DICTIONARY
  5
C
330
0
100
AcDbDictionary
  3
ACAD_GROUP
350
D
  3
ACAD_MLINESTYLE
350
17
  0
DICTIONARY
  5
D
330
C
100
AcDbDictionary
  0
DICTIONARY
  5
1A
330
C
100
AcDbDictionary
  0
DICTIONARY
  5
17
330
C
100
AcDbDictionary
  3
STANDARD
350
18
  0
DICTIONARY
  5
19
330
C
100
AcDbDictionary
  0
ENDSEC
  0
EOF
