  0
SECTION
  2
HEADER
  9
$ACADVER
  1
AC1014
  9
$HANDSEED
  5
FFFF
  9
$MEASUREMENT
 70
     1
  0
ENDSEC
  0
SECTION
  2
TABLES
  0
TABLE
  2
VPORT
  5
8
330
0
100
AcDbSymbolTable
 70
     4
  0
VPORT
  5
2E
330
8
100
AcDbSymbolTableRecord
100
AcDbViewportTableRecord
  2
*ACTIVE
 70
     0
 10
0.0
 20
0.0
 11
1.0
 21
1.0
 12
210.0
 22
148.5
 13
0.0
 23
0.0
 14
10.0
 24
10.0
 15
10.0
 25
10.0
 16
0.0
 26
0.0
 36
1.0
 17
0.0
 27
0.0
 37
0.0
 40
341.0
 41
1.24
 42
50.0
 43
0.0
 44
0.0
 50
0.0
 51
0.0
 71
     0
 72
   100
 73
     1
 74
     3
 75
     0
 76
     0
 77
     0
 78
     0
  0
ENDTAB
  0
TABLE
  2
LTYPE
  5
5
330
0
100
AcDbSymbolTable
 70
     1
  0
LTYPE
  5
14
330
5
100
AcDbSymbolTableRecord
100
AcDbLinetypeTableRecord
  2
BYBLOCK
 70
     0
  3

 72
    65
 73
     0
 40
0.0
  0
LTYPE
  5
15
330
5
100
AcDbSymbolTableRecord
100
AcDbLinetypeTableRecord
  2
BYLAYER
 70
     0
  3

 72
    65
 73
     0
 40
0.0
  0
LTYPE
  5
16
330
5
100
AcDbSymbolTableRecord
100
AcDbLinetypeTableRecord
  2
CONTINUOUS
 70
     0
  3
Solid line
 72
    65
 73
     0
 40
0.0
  0
ENDTAB
  0
TABLE
  2
LAYER
  5
2
100
AcDbSymbolTable
 70
1
  0
LAYER
  5
50
100
AcDbSymbolTableRecord
100
AcDbLayerTableRecord
  2
0
 70
0
  6
CONTINUOUS
  0
ENDTAB
  0
TABLE
  2
STYLE
  5
3
330
0
100
AcDbSymbolTable
 70
     1
  0
STYLE
  5
11
330
3
100
AcDbSymbolTableRecord
100
AcDbTextStyleTableRecord
  2
STANDARD
 70
     0
 40
0.0
 41
1.0
 50
0.0
 71
     0
 42
2.5
  3
txt
  4

  0
ENDTAB
  0
TABLE
  2
VIEW
  5
6
330
0
100
AcDbSymbolTable
 70
     0
  0
ENDTAB
  0
TABLE
  2
UCS
  5
7
330
0
100
AcDbSymbolTable
 70
     0
  0
ENDTAB
  0
TABLE
  2
APPID
  5
9
330
0
100
AcDbSymbolTable
 70
     2
  0
APPID
  5
12
330
9
100
AcDbSymbolTableRecord
100
AcDbRegAppTableRecord
  2
ACAD
 70
     0
  0
ENDTAB
  0
TABLE
  2
DIMSTYLE
  5
A
330
0
100
AcDbSymbolTable
 70
     1
  0
DIMSTYLE
105
27
330
A
100
AcDbSymbolTableRecord
100
AcDbDimStyleTableRecord
  2
ISO-25
 70
     0
  3

  4

  5

  6

  7

 40
1.0
 41
2.5
 42
0.625
 43
3.75
 44
1.25
 45
0.0
 46
0.0
 47
0.0
 48
0.0
140
2.5
141
2.5
142
0.0
143
0.03937007874016
144
1.0
145
0.0
146
1.0
147
0.625
 71
     0
 72
     0
 73
     0
 74
     0
 75
     0
 76
     0
 77
     1
 78
     8
170
     0
171
     3
172
     1
173
     0
174
     0
175
     0
176
     0
177
     0
178
     0
270
     2
271
     2
272
     2
273
     2
274
     3
340
11
275
     0
280
     0
281
     0
282
     0
283
     0
284
     8
285
     0
286
     0
287
     3
288
     0
  0
ENDTAB
  0
TABLE
  2
BLOCK_RECORD
  5
1
330
0
100
AcDbSymbolTable
 70
     1
  0
BLOCK_RECORD
  5
1F
330
1
100
AcDbSymbolTableRecord
100
AcDbBlockTableRecord
  2
*MODEL_SPACE
  0
BLOCK_RECORD
  5
1B
330
1
100
AcDbSymbolTableRecord
100
AcDbBlockTableRecord
  2
*PAPER_SPACE
  0
ENDTAB
  0
ENDSEC
  0
SECTION
  2
BLOCKS
  0
BLOCK
  5
20
330
1F
100
AcDbEntity
  8
0
100
AcDbBlockBegin
  2
*MODEL_SPACE
 70
     0
 10
0.0
 20
0.0
 30
0.0
  3
*MODEL_SPACE
  1

  0
ENDBLK
  5
21
330
1F
100
AcDbEntity
  8
0
100
AcDbBlockEnd
  0
BLOCK
  5
1C
330
1B
100
AcDbEntity
 67
     1
  8
0
100
AcDbBlockBegin
  2
*PAPER_SPACE
  1

  0
ENDBLK
  5
1D
330
1B
100
AcDbEntity
 67
     1
  8
0
100
AcDbBlockEnd
  0
ENDSEC
  0
SECTION
  2
ENTITIES
  0
LWPOLYLINE
  5
100
100
AcDbEntity
  8
0
 62
7
100
AcDbPolyline
 90
1264
 70
1
 10
43.132250
 20
179.162689
 30
0.0
 10
43.190903
 20
178.794074
 30
0.0
 10
43.249556
 20
178.425460
 30
0.0
 10
43.308209
 20
178.056845
 30
0.0
 10
43.366861
 20
177.688231
 30
0.0
 10
43.425514
 20
177.319617
 30
0.0
 10
43.484167
 20
176.951002
 30
0.0
 10
43.542820
 20
176.582388
 30
0.0
 10
43.601473
 20
176.213773
 30
0.0
 10
43.660126
 20
175.845159
 30
0.0
 10
43.718778
 20
175.476544
 30
0.0
 10
43.777431
 20
175.107930
 30
0.0
 10
43.836084
 20
174.739315
 30
0.0
 10
43.894737
 20
174.370701
 30
0.0
 10
43.953390
 20
174.002087
 30
0.0
 10
44.012042
 20
173.633472
 30
0.0
 10
44.070695
 20
173.264858
 30
0.0
 10
44.323830
 20
171.781732
 30
0.0
 10
44.601725
 20
170.365127
 30
0.0
 10
44.906586
 20
169.010100
 30
0.0
 10
45.240614
 20
167.711705
 30
0.0
 10
45.606014
 20
166.465000
 30
0.0
 10
46.004993
 20
165.265039
 30
0.0
 10
46.439756
 20
164.106878
 30
0.0
 10
46.912503
 20
162.985574
 30
0.0
 10
47.425443
 20
161.896183
 30
0.0
 10
47.980774
 20
160.833759
 30
0.0
 10
48.580709
 20
159.793359
 30
0.0
 10
49.227446
 20
158.770039
 30
0.0
 10
49.923191
 20
157.758855
 30
0.0
 10
50.670150
 20
156.754863
 30
0.0
 10
51.470525
 20
155.753117
 30
0.0
 10
52.326521
 20
154.748675
 30
0.0
 10
52.739244
 20
154.265568
 30
0.0
 10
53.149383
 20
153.760186
 30
0.0
 10
53.554428
 20
153.236672
 30
0.0
 10
53.951875
 20
152.699170
 30
0.0
 10
54.339214
 20
152.151827
 30
0.0
 10
54.713943
 20
151.598784
 30
0.0
 10
55.073554
 20
151.044183
 30
0.0
 10
55.415539
 20
150.492169
 30
0.0
 10
55.737391
 20
149.946890
 30
0.0
 10
56.036609
 20
149.412484
 30
0.0
 10
56.310680
 20
148.893097
 30
0.0
 10
56.557100
 20
148.392873
 30
0.0
 10
56.773362
 20
147.915956
 30
0.0
 10
56.956962
 20
147.466490
 30
0.0
 10
57.105393
 20
147.048617
 30
0.0
 10
57.216145
 20
146.666482
 30
0.0
 10
57.540437
 20
145.653255
 30
0.0
 10
57.999537
 20
144.634175
 30
0.0
 10
58.581035
 20
143.619070
 30
0.0
 10
59.272513
 20
142.617762
 30
0.0
 10
60.061556
 20
141.640084
 30
0.0
 10
60.935753
 20
140.695863
 30
0.0
 10
61.882683
 20
139.794925
 30
0.0
 10
62.889936
 20
138.947100
 30
0.0
 10
63.945097
 20
138.162211
 30
0.0
 10
65.035747
 20
137.450090
 30
0.0
 10
66.149473
 20
136.820564
 30
0.0
 10
67.273862
 20
136.283457
 30
0.0
 10
68.396497
 20
135.848601
 30
0.0
 10
69.504964
 20
135.525823
 30
0.0
 10
70.586848
 20
135.324949
 30
0.0
 10
71.629735
 20
135.255808
 30
0.0
 10
71.966406
 20
135.255839
 30
0.0
 10
72.303078
 20
135.255874
 30
0.0
 10
72.639750
 20
135.255906
 30
0.0
 10
72.976424
 20
135.255937
 30
0.0
 10
73.313096
 20
135.255969
 30
0.0
 10
73.649767
 20
135.256003
 30
0.0
 10
73.986439
 20
135.256035
 30
0.0
 10
74.323111
 20
135.256067
 30
0.0
 10
74.659783
 20
135.256099
 30
0.0
 10
74.996454
 20
135.256133
 30
0.0
 10
75.333126
 20
135.256165
 30
0.0
 10
75.669798
 20
135.256197
 30
0.0
 10
76.006472
 20
135.256228
 30
0.0
 10
76.343144
 20
135.256260
 30
0.0
 10
76.679815
 20
135.256294
 30
0.0
 10
77.016487
 20
135.256326
 30
0.0
 10
77.001591
 20
135.081487
 30
0.0
 10
76.985610
 20
134.890773
 30
0.0
 10
76.968121
 20
134.686300
 30
0.0
 10
76.948701
 20
134.470180
 30
0.0
 10
76.926926
 20
134.244533
 30
0.0
 10
76.902399
 20
134.011470
 30
0.0
 10
76.874708
 20
133.773104
 30
0.0
 10
76.843431
 20
133.531552
 30
0.0
 10
76.808157
 20
133.288930
 30
0.0
 10
76.768472
 20
133.047349
 30
0.0
 10
76.723959
 20
132.808925
 30
0.0
 10
76.674204
 20
132.575777
 30
0.0
 10
76.618792
 20
132.350013
 30
0.0
 10
76.557308
 20
132.133751
 30
0.0
 10
76.489342
 20
131.929106
 30
0.0
 10
76.414473
 20
131.738193
 30
0.0
 10
76.396164
 20
131.697381
 30
0.0
 10
76.376452
 20
131.657130
 30
0.0
 10
76.355391
 20
131.617472
 30
0.0
 10
76.333034
 20
131.578425
 30
0.0
 10
76.309433
 20
131.540021
 30
0.0
 10
76.284642
 20
131.502283
 30
0.0
 10
76.258739
 20
131.465236
 30
0.0
 10
76.231754
 20
131.428906
 30
0.0
 10
76.203753
 20
131.393320
 30
0.0
 10
76.174792
 20
131.358503
 30
0.0
 10
76.144929
 20
131.324480
 30
0.0
 10
76.114216
 20
131.291275
 30
0.0
 10
76.082714
 20
131.258917
 30
0.0
 10
76.050475
 20
131.227429
 30
0.0
 10
76.017558
 20
131.196837
 30
0.0
 10
75.984020
 20
131.167170
 30
0.0
 10
75.795880
 20
131.010640
 30
0.0
 10
75.602414
 20
130.860787
 30
0.0
 10
75.403997
 20
130.717307
 30
0.0
 10
75.201004
 20
130.579893
 30
0.0
 10
74.993803
 20
130.448241
 30
0.0
 10
74.782774
 20
130.322043
 30
0.0
 10
74.568284
 20
130.200996
 30
0.0
 10
74.350712
 20
130.084794
 30
0.0
 10
74.130431
 20
129.973129
 30
0.0
 10
73.907810
 20
129.865695
 30
0.0
 10
73.683227
 20
129.762190
 30
0.0
 10
73.457050
 20
129.662304
 30
0.0
 10
73.229659
 20
129.565737
 30
0.0
 10
73.001425
 20
129.472177
 30
0.0
 10
72.772721
 20
129.381322
 30
0.0
 10
72.543920
 20
129.292864
 30
0.0
 10
72.189633
 20
129.164652
 30
0.0
 10
71.831760
 20
129.048288
 30
0.0
 10
71.470699
 20
128.942429
 30
0.0
 10
71.106852
 20
128.845731
 30
0.0
 10
70.740616
 20
128.756861
 30
0.0
 10
70.372392
 20
128.674469
 30
0.0
 10
70.002584
 20
128.597222
 30
0.0
 10
69.631585
 20
128.523773
 30
0.0
 10
69.259801
 20
128.452783
 30
0.0
 10
68.887627
 20
128.382912
 30
0.0
 10
68.515464
 20
128.312818
 30
0.0
 10
68.143714
 20
128.241159
 30
0.0
 10
67.772776
 20
128.166596
 30
0.0
 10
67.403048
 20
128.087790
 30
0.0
 10
67.034933
 20
128.003396
 30
0.0
 10
66.668826
 20
127.912072
 30
0.0
 10
66.053450
 20
127.750047
 30
0.0
 10
65.438776
 20
127.585418
 30
0.0
 10
64.824763
 20
127.418360
 30
0.0
 10
64.211363
 20
127.249037
 30
0.0
 10
63.598538
 20
127.077619
 30
0.0
 10
62.986244
 20
126.904275
 30
0.0
 10
62.374432
 20
126.729173
 30
0.0
 10
61.763068
 20
126.552479
 30
0.0
 10
61.152100
 20
126.374364
 30
0.0
 10
60.541486
 20
126.194998
 30
0.0
 10
59.931188
 20
126.014544
 30
0.0
 10
59.321157
 20
125.833178
 30
0.0
 10
58.711353
 20
125.651060
 30
0.0
 10
58.101732
 20
125.468365
 30
0.0
 10
57.492248
 20
125.285257
 30
0.0
 10
56.882860
 20
125.101906
 30
0.0
 10
55.392160
 20
124.679650
 30
0.0
 10
53.874018
 20
124.296340
 30
0.0
 10
52.333281
 20
123.944910
 30
0.0
 10
50.774798
 20
123.618300
 30
0.0
 10
49.203424
 20
123.309447
 30
0.0
 10
47.624004
 20
123.011285
 30
0.0
 10
46.041391
 20
122.716757
 30
0.0
 10
44.460432
 20
122.418796
 30
0.0
 10
42.885981
 20
122.110339
 30
0.0
 10
41.322884
 20
121.784328
 30
0.0
 10
39.775995
 20
121.433694
 30
0.0
 10
38.250161
 20
121.051379
 30
0.0
 10
36.750230
 20
120.630319
 30
0.0
 10
35.281057
 20
120.163448
 30
0.0
 10
33.847492
 20
119.643708
 30
0.0
 10
32.454379
 20
119.064033
 30
0.0
 10
33.173635
 20
120.003322
 30
0.0
 10
33.925928
 20
120.930517
 30
0.0
 10
34.708718
 20
121.842444
 30
0.0
 10
35.519473
 20
122.735931
 30
0.0
 10
36.355649
 20
123.607804
 30
0.0
 10
37.214712
 20
124.454892
 30
0.0
 10
38.094123
 20
125.274018
 30
0.0
 10
38.991344
 20
126.062011
 30
0.0
 10
39.903836
 20
126.815697
 30
0.0
 10
40.829060
 20
127.531903
 30
0.0
 10
41.764484
 20
128.207456
 30
0.0
 10
42.707565
 20
128.839180
 30
0.0
 10
43.655768
 20
129.423904
 30
0.0
 10
44.606551
 20
129.958458
 30
0.0
 10
45.557381
 20
130.439661
 30
0.0
 10
46.505717
 20
130.864346
 30
0.0
 10
47.494184
 20
131.390295
 30
0.0
 10
48.059768
 20
131.948603
 30
0.0
 10
48.237306
 20
132.528586
 30
0.0
 10
48.061639
 20
133.119557
 30
0.0
 10
47.567606
 20
133.710831
 30
0.0
 10
46.790046
 20
134.291727
 30
0.0
 10
45.763804
 20
134.851559
 30
0.0
 10
44.523718
 20
135.379643
 30
0.0
 10
43.104628
 20
135.865291
 30
0.0
 10
41.541374
 20
136.297824
 30
0.0
 10
39.868797
 20
136.666553
 30
0.0
 10
38.121738
 20
136.960796
 30
0.0
 10
36.335033
 20
137.169867
 30
0.0
 10
34.543529
 20
137.283082
 30
0.0
 10
32.782060
 20
137.289750
 30
0.0
 10
31.085469
 20
137.179199
 30
0.0
 10
27.472708
 20
136.630593
 30
0.0
 10
24.061721
 20
135.772563
 30
0.0
 10
20.856983
 20
134.622781
 30
0.0
 10
17.862970
 20
133.198934
 30
0.0
 10
15.084157
 20
131.518700
 30
0.0
 10
12.525021
 20
129.599760
 30
0.0
 10
10.190038
 20
127.459788
 30
0.0
 10
8.083682
 20
125.116474
 30
0.0
 10
6.210431
 20
122.587489
 30
0.0
 10
4.574759
 20
119.890520
 30
0.0
 10
3.181143
 20
117.043243
 30
0.0
 10
2.034057
 20
114.063339
 30
0.0
 10
1.137979
 20
110.968489
 30
0.0
 10
0.497384
 20
107.776374
 30
0.0
 10
0.116748
 20
104.504671
 30
0.0
 10
0.000546
 20
101.171061
 30
0.0
 10
0.174469
 20
97.481645
 30
0.0
 10
0.569699
 20
94.003173
 30
0.0
 10
1.176081
 20
90.732447
 30
0.0
 10
1.983462
 20
87.666276
 30
0.0
 10
2.981688
 20
84.801455
 30
0.0
 10
4.160605
 20
82.134793
 30
0.0
 10
5.510058
 20
79.663093
 30
0.0
 10
7.019894
 20
77.383160
 30
0.0
 10
8.679959
 20
75.291793
 30
0.0
 10
10.480099
 20
73.385801
 30
0.0
 10
12.410159
 20
71.661985
 30
0.0
 10
14.459986
 20
70.117146
 30
0.0
 10
16.619426
 20
68.748091
 30
0.0
 10
18.878325
 20
67.551624
 30
0.0
 10
21.226528
 20
66.524549
 30
0.0
 10
23.653882
 20
65.663666
 30
0.0
 10
26.227854
 20
65.310884
 30
0.0
 10
28.800734
 20
65.101681
 30
0.0
 10
31.338734
 20
65.024766
 30
0.0
 10
33.808058
 20
65.068843
 30
0.0
 10
36.174918
 20
65.222627
 30
0.0
 10
38.405519
 20
65.474825
 30
0.0
 10
40.466073
 20
65.814140
 30
0.0
 10
42.322789
 20
66.229287
 30
0.0
 10
43.941870
 20
66.708974
 30
0.0
 10
45.289530
 20
67.241906
 30
0.0
 10
46.331975
 20
67.816792
 30
0.0
 10
47.035415
 20
68.422344
 30
0.0
 10
47.366057
 20
69.047269
 30
0.0
 10
47.290108
 20
69.680274
 30
0.0
 10
46.773779
 20
70.310067
 30
0.0
 10
45.783280
 20
70.925361
 30
0.0
 10
44.815844
 20
71.635791
 30
0.0
 10
43.859246
 20
72.351663
 30
0.0
 10
42.914937
 20
73.075839
 30
0.0
 10
41.984371
 20
73.811174
 30
0.0
 10
41.069005
 20
74.560529
 30
0.0
 10
40.170287
 20
75.326760
 30
0.0
 10
39.289677
 20
76.112729
 30
0.0
 10
38.428623
 20
76.921290
 30
0.0
 10
37.588581
 20
77.755307
 30
0.0
 10
36.771005
 20
78.617634
 30
0.0
 10
35.977348
 20
79.511132
 30
0.0
 10
35.209064
 20
80.438661
 30
0.0
 10
34.467604
 20
81.403075
 30
0.0
 10
33.754425
 20
82.407238
 30
0.0
 10
33.070979
 20
83.454003
 30
0.0
 10
32.418721
 20
84.546235
 30
0.0
 10
32.714194
 20
84.528349
 30
0.0
 10
33.012491
 20
84.512792
 30
0.0
 10
33.313645
 20
84.499086
 30
0.0
 10
33.617691
 20
84.486783
 30
0.0
 10
33.924658
 20
84.475380
 30
0.0
 10
34.234583
 20
84.464426
 30
0.0
 10
34.547495
 20
84.453472
 30
0.0
 10
34.863431
 20
84.442016
 30
0.0
 10
35.182423
 20
84.429607
 30
0.0
 10
35.504503
 20
84.415769
 30
0.0
 10
35.829702
 20
84.400026
 30
0.0
 10
36.158058
 20
84.381929
 30
0.0
 10
36.489602
 20
84.361000
 30
0.0
 10
36.824364
 20
84.336764
 30
0.0
 10
37.162380
 20
84.308756
 30
0.0
 10
37.503682
 20
84.276508
 30
0.0
 10
39.709936
 20
84.048046
 30
0.0
 10
41.870135
 20
83.810625
 30
0.0
 10
43.972270
 20
83.564141
 30
0.0
 10
46.004342
 20
83.308493
 30
0.0
 10
47.954345
 20
83.043582
 30
0.0
 10
49.810278
 20
82.769307
 30
0.0
 10
51.560137
 20
82.485562
 30
0.0
 10
53.191917
 20
82.192253
 30
0.0
 10
54.693618
 20
81.889273
 30
0.0
 10
56.053235
 20
81.576525
 30
0.0
 10
57.258764
 20
81.253906
 30
0.0
 10
58.298203
 20
80.921314
 30
0.0
 10
59.159549
 20
80.578649
 30
0.0
 10
59.830797
 20
80.225809
 30
0.0
 10
60.299943
 20
79.862695
 30
0.0
 10
60.554988
 20
79.489204
 30
0.0
 10
60.628185
 20
79.286385
 30
0.0
 10
60.687148
 20
79.093821
 30
0.0
 10
60.730328
 20
78.905710
 30
0.0
 10
60.756177
 20
78.716250
 30
0.0
 10
60.763162
 20
78.519635
 30
0.0
 10
60.749721
 20
78.310062
 30
0.0
 10
60.714304
 20
78.081729
 30
0.0
 10
60.655366
 20
77.828829
 30
0.0
 10
60.571363
 20
77.545564
 30
0.0
 10
60.460744
 20
77.226127
 30
0.0
 10
60.321964
 20
76.864717
 30
0.0
 10
60.153475
 20
76.455528
 30
0.0
 10
59.953728
 20
75.992756
 30
0.0
 10
59.721175
 20
75.470603
 30
0.0
 10
59.454271
 20
74.883260
 30
0.0
 10
59.151466
 20
74.224927
 30
0.0
 10
58.591256
 20
73.041160
 30
0.0
 10
57.954626
 20
71.744926
 30
0.0
 10
57.254200
 20
70.354782
 30
0.0
 10
56.502603
 20
68.889270
 30
0.0
 10
55.712457
 20
67.366943
 30
0.0
 10
54.896387
 20
65.806348
 30
0.0
 10
54.067016
 20
64.226040
 30
0.0
 10
53.236965
 20
62.644561
 30
0.0
 10
52.418863
 20
61.080467
 30
0.0
 10
51.625330
 20
59.552302
 30
0.0
 10
50.868992
 20
58.078620
 30
0.0
 10
50.162470
 20
56.677969
 30
0.0
 10
49.518387
 20
55.368898
 30
0.0
 10
48.949371
 20
54.169955
 30
0.0
 10
48.468041
 20
53.099691
 30
0.0
 10
48.087025
 20
52.176658
 30
0.0
 10
47.997443
 20
51.946973
 30
0.0
 10
47.884839
 20
51.660879
 30
0.0
 10
47.750883
 20
51.322533
 30
0.0
 10
47.597250
 20
50.936096
 30
0.0
 10
47.425609
 20
50.505730
 30
0.0
 10
47.237636
 20
50.035597
 30
0.0
 10
47.034997
 20
49.529856
 30
0.0
 10
46.819370
 20
48.992668
 30
0.0
 10
46.592421
 20
48.428198
 30
0.0
 10
46.355825
 20
47.840600
 30
0.0
 10
46.111255
 20
47.234040
 30
0.0
 10
45.860379
 20
46.612680
 30
0.0
 10
45.604871
 20
45.980675
 30
0.0
 10
45.346405
 20
45.342193
 30
0.0
 10
45.086650
 20
44.701388
 30
0.0
 10
44.827277
 20
44.062427
 30
0.0
 10
44.560944
 20
43.405168
 30
0.0
 10
44.280774
 20
42.710676
 30
0.0
 10
43.989130
 20
41.984919
 30
0.0
 10
43.688364
 20
41.233867
 30
0.0
 10
43.380839
 20
40.463488
 30
0.0
 10
43.068914
 20
39.679750
 30
0.0
 10
42.754946
 20
38.888622
 30
0.0
 10
42.441293
 20
38.096073
 30
0.0
 10
42.130318
 20
37.308072
 30
0.0
 10
41.824375
 20
36.530589
 30
0.0
 10
41.525827
 20
35.769587
 30
0.0
 10
41.237029
 20
35.031042
 30
0.0
 10
40.960341
 20
34.320916
 30
0.0
 10
40.698120
 20
33.645183
 30
0.0
 10
40.452730
 20
33.009808
 30
0.0
 10
40.226524
 20
32.420761
 30
0.0
 10
40.010000
 20
31.856420
 30
0.0
 10
39.793005
 20
31.293543
 30
0.0
 10
39.576941
 20
30.735651
 30
0.0
 10
39.363210
 20
30.186272
 30
0.0
 10
39.153213
 20
29.648933
 30
0.0
 10
38.948354
 20
29.127164
 30
0.0
 10
38.750033
 20
28.624487
 30
0.0
 10
38.559655
 20
28.144433
 30
0.0
 10
38.378619
 20
27.690527
 30
0.0
 10
38.208330
 20
27.266294
 30
0.0
 10
38.050189
 20
26.875266
 30
0.0
 10
37.905597
 20
26.520965
 30
0.0
 10
37.775959
 20
26.206921
 30
0.0
 10
37.662675
 20
25.936659
 30
0.0
 10
37.567144
 20
25.713708
 30
0.0
 10
37.490775
 20
25.541594
 30
0.0
 10
37.077694
 20
24.608583
 30
0.0
 10
36.615351
 20
23.517193
 30
0.0
 10
36.112775
 20
22.291897
 30
0.0
 10
35.578994
 20
20.957159
 30
0.0
 10
35.023038
 20
19.537450
 30
0.0
 10
34.453935
 20
18.057241
 30
0.0
 10
33.880713
 20
16.540998
 30
0.0
 10
33.312401
 20
15.013194
 30
0.0
 10
32.758028
 20
13.498295
 30
0.0
 10
32.226620
 20
12.020772
 30
0.0
 10
31.727211
 20
10.605093
 30
0.0
 10
31.268828
 20
9.275728
 30
0.0
 10
30.860497
 20
8.057147
 30
0.0
 10
30.511249
 20
6.973816
 30
0.0
 10
30.230111
 20
6.050206
 30
0.0
 10
30.026115
 20
5.310788
 30
0.0
 10
29.909822
 20
4.829532
 30
0.0
 10
29.812665
 20
4.375819
 30
0.0
 10
29.734692
 20
3.949076
 30
0.0
 10
29.675968
 20
3.548729
 30
0.0
 10
29.636542
 20
3.174206
 30
0.0
 10
29.616487
 20
2.824938
 30
0.0
 10
29.615958
 20
2.500350
 30
0.0
 10
29.634770
 20
2.199873
 30
0.0
 10
29.673108
 20
1.922931
 30
0.0
 10
29.731028
 20
1.668952
 30
0.0
 10
29.808585
 20
1.437367
 30
0.0
 10
29.905835
 20
1.227606
 30
0.0
 10
30.022837
 20
1.039090
 30
0.0
 10
30.159639
 20
0.871249
 30
0.0
 10
30.316307
 20
0.723516
 30
0.0
 10
30.492893
 20
0.595312
 30
0.0
 10
30.533879
 20
0.578009
 30
0.0
 10
30.574863
 20
0.560705
 30
0.0
 10
30.615850
 20
0.543401
 30
0.0
 10
30.656836
 20
0.526097
 30
0.0
 10
30.697820
 20
0.508794
 30
0.0
 10
30.738807
 20
0.491490
 30
0.0
 10
30.779794
 20
0.474186
 30
0.0
 10
30.820780
 20
0.456882
 30
0.0
 10
30.861764
 20
0.439579
 30
0.0
 10
30.902751
 20
0.422275
 30
0.0
 10
30.943737
 20
0.404971
 30
0.0
 10
30.984721
 20
0.387667
 30
0.0
 10
31.025708
 20
0.370364
 30
0.0
 10
31.066695
 20
0.353060
 30
0.0
 10
31.107679
 20
0.335756
 30
0.0
 10
31.148665
 20
0.318452
 30
0.0
 10
31.309299
 20
0.294402
 30
0.0
 10
31.700888
 20
0.276728
 30
0.0
 10
32.317573
 20
0.264769
 30
0.0
 10
33.153487
 20
0.257836
 30
0.0
 10
34.202772
 20
0.255191
 30
0.0
 10
35.459556
 20
0.256249
 30
0.0
 10
36.917981
 20
0.260429
 30
0.0
 10
38.572183
 20
0.266965
 30
0.0
 10
40.416299
 20
0.275193
 30
0.0
 10
42.444463
 20
0.284427
 30
0.0
 10
44.650813
 20
0.294005
 30
0.0
 10
47.029483
 20
0.303239
 30
0.0
 10
49.574613
 20
0.311467
 30
0.0
 10
52.280338
 20
0.318029
 30
0.0
 10
55.140796
 20
0.322236
 30
0.0
 10
58.150119
 20
0.323559
 30
0.0
 10
60.017865
 20
0.323294
 30
0.0
 10
61.885615
 20
0.323030
 30
0.0
 10
63.753361
 20
0.322765
 30
0.0
 10
65.621111
 20
0.322501
 30
0.0
 10
67.488857
 20
0.322236
 30
0.0
 10
69.356604
 20
0.321971
 30
0.0
 10
71.224353
 20
0.321707
 30
0.0
 10
73.092100
 20
0.321442
 30
0.0
 10
74.959847
 20
0.321178
 30
0.0
 10
76.827596
 20
0.320913
 30
0.0
 10
78.695342
 20
0.320649
 30
0.0
 10
80.563089
 20
0.320384
 30
0.0
 10
82.430838
 20
0.320119
 30
0.0
 10
84.298585
 20
0.319855
 30
0.0
 10
86.166334
 20
0.319590
 30
0.0
 10
88.034081
 20
0.319326
 30
0.0
 10
88.081396
 20
0.368935
 30
0.0
 10
88.128714
 20
0.418544
 30
0.0
 10
88.176030
 20
0.468154
 30
0.0
 10
88.223345
 20
0.517763
 30
0.0
 10
88.270663
 20
0.567372
 30
0.0
 10
88.317979
 20
0.616982
 30
0.0
 10
88.365294
 20
0.666591
 30
0.0
 10
88.412612
 20
0.716201
 30
0.0
 10
88.459928
 20
0.765810
 30
0.0
 10
88.507243
 20
0.815419
 30
0.0
 10
88.554559
 20
0.865029
 30
0.0
 10
88.601877
 20
0.914638
 30
0.0
 10
88.649192
 20
0.964247
 30
0.0
 10
88.696508
 20
1.013857
 30
0.0
 10
88.743826
 20
1.063466
 30
0.0
 10
88.791141
 20
1.113076
 30
0.0
 10
88.971272
 20
1.389515
 30
0.0
 10
89.182978
 20
1.861103
 30
0.0
 10
89.422164
 20
2.503903
 30
0.0
 10
89.684740
 20
3.293972
 30
0.0
 10
89.966613
 20
4.207375
 30
0.0
 10
90.263693
 20
5.220166
 30
0.0
 10
90.571888
 20
6.308410
 30
0.0
 10
90.887107
 20
7.448166
 30
0.0
 10
91.205258
 20
8.615492
 30
0.0
 10
91.522247
 20
9.786453
 30
0.0
 10
91.833987
 20
10.937105
 30
0.0
 10
92.136385
 20
12.043508
 30
0.0
 10
92.425349
 20
13.081725
 30
0.0
 10
92.696785
 20
14.027817
 30
0.0
 10
92.946605
 20
14.857838
 30
0.0
 10
93.170718
 20
15.547856
 30
0.0
 10
93.344094
 20
16.054628
 30
0.0
 10
93.570929
 20
16.714057
 30
0.0
 10
93.848220
 20
17.508905
 30
0.0
 10
94.172967
 20
18.421937
 30
0.0
 10
94.542167
 20
19.435916
 30
0.0
 10
94.952816
 20
20.533606
 30
0.0
 10
95.401917
 20
21.697770
 30
0.0
 10
95.886467
 20
22.911170
 30
0.0
 10
96.403463
 20
24.156572
 30
0.0
 10
96.949902
 20
25.416737
 30
0.0
 10
97.522785
 20
26.674431
 30
0.0
 10
98.119108
 20
27.912417
 30
0.0
 10
98.735873
 20
29.113458
 30
0.0
 10
99.370077
 20
30.260316
 30
0.0
 10
100.018714
 20
31.335757
 30
0.0
 10
100.678788
 20
32.322542
 30
0.0
 10
100.962482
 20
32.733874
 30
0.0
 10
101.249023
 20
33.166573
 30
0.0
 10
101.539840
 20
33.613894
 30
0.0
 10
101.836361
 20
34.069096
 30
0.0
 10
102.140016
 20
34.525436
 30
0.0
 10
102.452232
 20
34.976170
 30
0.0
 10
102.774436
 20
35.414555
 30
0.0
 10
103.108060
 20
35.833849
 30
0.0
 10
103.454532
 20
36.227308
 30
0.0
 10
103.815281
 20
36.588186
 30
0.0
 10
104.191732
 20
36.909745
 30
0.0
 10
104.585319
 20
37.185242
 30
0.0
 10
104.997468
 20
37.407929
 30
0.0
 10
105.429609
 20
37.571068
 30
0.0
 10
105.883169
 20
37.667911
 30
0.0
 10
106.359577
 20
37.691724
 30
0.0
 10
106.775378
 20
37.645294
 30
0.0
 10
107.167223
 20
37.536133
 30
0.0
 10
107.536732
 20
37.370072
 30
0.0
 10
107.885527
 20
37.152939
 30
0.0
 10
108.215227
 20
36.890568
 30
0.0
 10
108.527454
 20
36.588789
 30
0.0
 10
108.823825
 20
36.253433
 30
0.0
 10
109.105963
 20
35.890329
 30
0.0
 10
109.375486
 20
35.505313
 30
0.0
 10
109.634018
 20
35.104210
 30
0.0
 10
109.883177
 20
34.692851
 30
0.0
 10
110.124582
 20
34.277072
 30
0.0
 10
110.359855
 20
33.862700
 30
0.0
 10
110.590614
 20
33.455570
 30
0.0
 10
110.818484
 20
33.061507
 30
0.0
 10
111.045081
 20
32.686347
 30
0.0
 10
111.626810
 20
31.703216
 30
0.0
 10
112.164366
 20
30.699315
 30
0.0
 10
112.662164
 20
29.676582
 30
0.0
 10
113.124621
 20
28.636952
 30
0.0
 10
113.556149
 20
27.582360
 30
0.0
 10
113.961165
 20
26.514739
 30
0.0
 10
114.344081
 20
25.436031
 30
0.0
 10
114.709311
 20
24.348164
 30
0.0
 10
115.061273
 20
23.253075
 30
0.0
 10
115.404380
 20
22.152705
 30
0.0
 10
115.743046
 20
21.048982
 30
0.0
 10
116.081684
 20
19.943844
 30
0.0
 10
116.424714
 20
18.839227
 30
0.0
 10
116.776543
 20
17.737068
 30
0.0
 10
117.141592
 20
16.639299
 30
0.0
 10
117.524272
 20
15.547858
 30
0.0
 10
117.915741
 20
14.429912
 30
0.0
 10
118.303178
 20
13.261684
 30
0.0
 10
118.685017
 20
12.058697
 30
0.0
 10
119.059704
 20
10.836476
 30
0.0
 10
119.425673
 20
9.610540
 30
0.0
 10
119.781369
 20
8.396412
 30
0.0
 10
120.125226
 20
7.209610
 30
0.0
 10
120.455688
 20
6.065663
 30
0.0
 10
120.771196
 20
4.980085
 30
0.0
 10
121.070186
 20
3.968403
 30
0.0
 10
121.351099
 20
3.046140
 30
0.0
 10
121.612375
 20
2.228813
 30
0.0
 10
121.852455
 20
1.531945
 30
0.0
 10
122.069779
 20
0.971063
 30
0.0
 10
122.262784
 20
0.561681
 30
0.0
 10
122.429914
 20
0.319328
 30
0.0
 10
122.560160
 20
0.201290
 30
0.0
 10
122.712555
 20
0.113684
 30
0.0
 10
122.932384
 20
0.053369
 30
0.0
 10
123.264936
 20
0.017206
 30
0.0
 10
123.755492
 20
0.002072
 30
0.0
 10
124.449343
 20
0.004797
 30
0.0
 10
125.391773
 20
0.022259
 30
0.0
 10
126.628071
 20
0.051316
 30
0.0
 10
128.203516
 20
0.088829
 30
0.0
 10
130.163404
 20
0.131659
 30
0.0
 10
132.553015
 20
0.176668
 30
0.0
 10
135.417635
 20
0.220715
 30
0.0
 10
138.802555
 20
0.260662
 30
0.0
 10
142.753057
 20
0.293373
 30
0.0
 10
147.314426
 20
0.315703
 30
0.0
 10
152.531953
 20
0.324514
 30
0.0
 10
155.525219
 20
0.323456
 30
0.0
 10
158.337692
 20
0.319249
 30
0.0
 10
160.968058
 20
0.312687
 30
0.0
 10
163.415001
 20
0.304459
 30
0.0
 10
165.677205
 20
0.295225
 30
0.0
 10
167.753356
 20
0.285647
 30
0.0
 10
169.642134
 20
0.276413
 30
0.0
 10
171.342230
 20
0.268184
 30
0.0
 10
172.852321
 20
0.261649
 30
0.0
 10
174.171097
 20
0.257469
 30
0.0
 10
175.297240
 20
0.256410
 30
0.0
 10
176.229433
 20
0.259056
 30
0.0
 10
176.966364
 20
0.265962
 30
0.0
 10
177.506715
 20
0.277921
 30
0.0
 10
177.849170
 20
0.295595
 30
0.0
 10
177.992413
 20
0.319646
 30
0.0
 10
178.181516
 20
0.450940
 30
0.0
 10
178.374889
 20
0.608068
 30
0.0
 10
178.569181
 20
0.790408
 30
0.0
 10
178.761035
 20
0.997344
 30
0.0
 10
178.947098
 20
1.228259
 30
0.0
 10
179.124020
 20
1.482532
 30
0.0
 10
179.288448
 20
1.759548
 30
0.0
 10
179.437027
 20
2.058688
 30
0.0
 10
179.566406
 20
2.379334
 30
0.0
 10
179.673229
 20
2.720869
 30
0.0
 10
179.754146
 20
3.082676
 30
0.0
 10
179.805804
 20
3.464134
 30
0.0
 10
179.824854
 20
3.864626
 30
0.0
 10
179.807947
 20
4.283535
 30
0.0
 10
179.751707
 20
4.720243
 30
0.0
 10
179.652795
 20
5.174131
 30
0.0
 10
179.448523
 20
5.894054
 30
0.0
 10
179.162625
 20
6.815958
 30
0.0
 10
178.805369
 20
7.911729
 30
0.0
 10
178.387020
 20
9.153266
 30
0.0
 10
177.917851
 20
10.512459
 30
0.0
 10
177.408128
 20
11.961204
 30
0.0
 10
176.868119
 20
13.471390
 30
0.0
 10
176.308097
 20
15.014916
 30
0.0
 10
175.738324
 20
16.563673
 30
0.0
 10
175.169073
 20
18.089554
 30
0.0
 10
174.610612
 20
19.564453
 30
0.0
 10
174.073209
 20
20.960262
 30
0.0
 10
173.567132
 20
22.248876
 30
0.0
 10
173.102651
 20
23.402189
 30
0.0
 10
172.690033
 20
24.392091
 30
0.0
 10
172.339548
 20
25.190479
 30
0.0
 10
172.246676
 20
25.398526
 30
0.0
 10
172.134885
 20
25.656394
 30
0.0
 10
172.005670
 20
25.960379
 30
0.0
 10
171.860528
 20
26.306774
 30
0.0
 10
171.700955
 20
26.691867
 30
0.0
 10
171.528449
 20
27.111957
 30
0.0
 10
171.344508
 20
27.563336
 30
0.0
 10
171.150627
 20
28.042295
 30
0.0
 10
170.948302
 20
28.545128
 30
0.0
 10
170.739033
 20
29.068130
 30
0.0
 10
170.524316
 20
29.607592
 30
0.0
 10
170.305643
 20
30.159809
 30
0.0
 10
170.084517
 20
30.721072
 30
0.0
 10
169.862434
 20
31.287677
 30
0.0
 10
169.640888
 20
31.855915
 30
0.0
 10
169.421379
 20
32.422081
 30
0.0
 10
169.193062
 20
33.011128
 30
0.0
 10
168.945671
 20
33.646504
 30
0.0
 10
168.681567
 20
34.322236
 30
0.0
 10
168.403122
 20
35.032362
 30
0.0
 10
168.112699
 20
35.770907
 30
0.0
 10
167.812670
 20
36.531909
 30
0.0
 10
167.505399
 20
37.309393
 30
0.0
 10
167.193251
 20
38.097393
 30
0.0
 10
166.878595
 20
38.889942
 30
0.0
 10
166.563800
 20
39.681070
 30
0.0
 10
166.251229
 20
40.464808
 30
0.0
 10
165.943251
 20
41.235188
 30
0.0
 10
165.642232
 20
41.986239
 30
0.0
 10
165.350539
 20
42.711996
 30
0.0
 10
165.070544
 20
43.406488
 30
0.0
 10
164.804606
 20
44.063747
 30
0.0
 10
164.545735
 20
44.702708
 30
0.0
 10
164.286475
 20
45.343513
 30
0.0
 10
164.028488
 20
45.981995
 30
0.0
 10
163.773448
 20
46.614000
 30
0.0
 10
163.523023
 20
47.235361
 30
0.0
 10
163.278878
 20
47.841921
 30
0.0
 10
163.042685
 20
48.429518
 30
0.0
 10
162.816109
 20
48.993988
 30
0.0
 10
162.600823
 20
49.531177
 30
0.0
 10
162.398491
 20
50.036917
 30
0.0
 10
162.210785
 20
50.507050
 30
0.0
 10
162.039372
 20
50.937416
 30
0.0
 10
161.885921
 20
51.323853
 30
0.0
 10
161.752100
 20
51.662200
 30
0.0
 10
161.639578
 20
51.948294
 30
0.0
 10
161.550025
 20
52.177978
 30
0.0
 10
161.144419
 20
53.163705
 30
0.0
 10
160.638887
 20
54.294230
 30
0.0
 10
160.046485
 20
55.550048
 30
0.0
 10
159.380272
 20
56.911660
 30
0.0
 10
158.653308
 20
58.359555
 30
0.0
 10
157.878648
 20
59.874234
 30
0.0
 10
157.069354
 20
61.436186
 30
0.0
 10
156.238483
 20
63.025913
 30
0.0
 10
155.399092
 20
64.623907
 30
0.0
 10
154.564239
 20
66.210666
 30
0.0
 10
153.746984
 20
67.766680
 30
0.0
 10
152.960385
 20
69.272451
 30
0.0
 10
152.217501
 20
70.708469
 30
0.0
 10
151.531389
 20
72.055232
 30
0.0
 10
150.915106
 20
73.293239
 30
0.0
 10
150.381714
 20
74.402978
 30
0.0
 10
150.082602
 20
75.054816
 30
0.0
 10
149.820231
 20
75.658683
 30
0.0
 10
149.594383
 20
76.217279
 30
0.0
 10
149.404843
 20
76.733306
 30
0.0
 10
149.251395
 20
77.209464
 30
0.0
 10
149.133820
 20
77.648452
 30
0.0
 10
149.051905
 20
78.052971
 30
0.0
 10
149.005431
 20
78.425724
 30
0.0
 10
148.994186
 20
78.769407
 30
0.0
 10
149.017945
 20
79.086725
 30
0.0
 10
149.076495
 20
79.380373
 30
0.0
 10
149.169623
 20
79.653057
 30
0.0
 10
149.297110
 20
79.907473
 30
0.0
 10
149.458739
 20
80.146325
 30
0.0
 10
149.654295
 20
80.372311
 30
0.0
 10
149.883559
 20
80.588132
 30
0.0
 10
150.278055
 20
80.825005
 30
0.0
 10
150.901689
 20
81.064485
 30
0.0
 10
151.735444
 20
81.305841
 30
0.0
 10
152.760299
 20
81.548350
 30
0.0
 10
153.957237
 20
81.791282
 30
0.0
 10
155.307234
 20
82.033913
 30
0.0
 10
156.791274
 20
82.275509
 30
0.0
 10
158.390339
 20
82.515352
 30
0.0
 10
160.085405
 20
82.752707
 30
0.0
 10
161.857455
 20
82.986847
 30
0.0
 10
163.687469
 20
83.217050
 30
0.0
 10
165.556428
 20
83.442587
 30
0.0
 10
167.445312
 20
83.662728
 30
0.0
 10
169.335101
 20
83.876747
 30
0.0
 10
171.206777
 20
84.083918
 30
0.0
 10
173.041318
 20
84.283512
 30
0.0
 10
173.233220
 20
84.303197
 30
0.0
 10
173.438399
 20
84.322300
 30
0.0
 10
173.655810
 20
84.340926
 30
0.0
 10
173.884405
 20
84.359103
 30
0.0
 10
174.123130
 20
84.376910
 30
0.0
 10
174.370942
 20
84.394425
 30
0.0
 10
174.626789
 20
84.411702
 30
0.0
 10
174.889626
 20
84.428821
 30
0.0
 10
175.158400
 20
84.445834
 30
0.0
 10
175.432069
 20
84.462820
 30
0.0
 10
175.709577
 20
84.479833
 30
0.0
 10
175.989882
 20
84.496951
 30
0.0
 10
176.271931
 20
84.514228
 30
0.0
 10
176.554680
 20
84.531744
 30
0.0
 10
176.837075
 20
84.549550
 30
0.0
 10
177.118074
 20
84.567727
 30
0.0
 10
176.470710
 20
83.525494
 30
0.0
 10
175.794443
 20
82.525101
 30
0.0
 10
175.090606
 20
81.563923
 30
0.0
 10
174.360538
 20
80.639329
 30
0.0
 10
173.605579
 20
79.748694
 30
0.0
 10
172.827061
 20
78.889388
 30
0.0
 10
172.026323
 20
78.058784
 30
0.0
 10
171.204702
 20
77.254255
 30
0.0
 10
170.363534
 20
76.473173
 30
0.0
 10
169.504154
 20
75.712909
 30
0.0
 10
168.627901
 20
74.970840
 30
0.0
 10
167.736113
 20
74.244334
 30
0.0
 10
166.830121
 20
73.530763
 30
0.0
 10
165.911268
 20
72.827503
 30
0.0
 10
164.980887
 20
72.131924
 30
0.0
 10
164.040318
 20
71.441399
 30
0.0
 10
163.049823
 20
70.826105
 30
0.0
 10
162.533510
 20
70.196312
 30
0.0
 10
162.457591
 20
69.563307
 30
0.0
 10
162.788264
 20
68.938382
 30
0.0
 10
163.491744
 20
68.332831
 30
0.0
 10
164.534231
 20
67.757944
 30
0.0
 10
165.881939
 20
67.225012
 30
0.0
 10
167.501070
 20
66.745325
 30
0.0
 10
169.357831
 20
66.330178
 30
0.0
 10
171.418433
 20
65.990863
 30
0.0
 10
173.649079
 20
65.738665
 30
0.0
 10
176.015978
 20
65.584881
 30
0.0
 10
178.485334
 20
65.540804
 30
0.0
 10
181.023361
 20
65.617719
 30
0.0
 10
183.596256
 20
65.826922
 30
0.0
 10
186.170234
 20
66.179704
 30
0.0
 10
188.597587
 20
67.040587
 30
0.0
 10
190.945791
 20
68.067662
 30
0.0
 10
193.204690
 20
69.264129
 30
0.0
 10
195.364129
 20
70.633184
 30
0.0
 10
197.413956
 20
72.178020
 30
0.0
 10
199.344018
 20
73.901839
 30
0.0
 10
201.144155
 20
75.807831
 30
0.0
 10
202.804220
 20
77.899195
 30
0.0
 10
204.314057
 20
80.179131
 30
0.0
 10
205.663511
 20
82.650829
 30
0.0
 10
206.842426
 20
85.317490
 30
0.0
 10
207.840651
 20
88.182311
 30
0.0
 10
208.648032
 20
91.248485
 30
0.0
 10
209.254415
 20
94.519209
 30
0.0
 10
209.649644
 20
97.997681
 30
0.0
 10
209.823568
 20
101.687097
 30
0.0
 10
209.707360
 20
105.020706
 30
0.0
 10
209.326707
 20
108.292409
 30
0.0
 10
208.686087
 20
111.484525
 30
0.0
 10
207.789975
 20
114.579374
 30
0.0
 10
206.642851
 20
117.559279
 30
0.0
 10
205.249192
 20
120.406555
 30
0.0
 10
203.613472
 20
123.103524
 30
0.0
 10
201.740172
 20
125.632507
 30
0.0
 10
199.633768
 20
127.975824
 30
0.0
 10
197.298738
 20
130.115792
 30
0.0
 10
194.739559
 20
132.034736
 30
0.0
 10
191.960709
 20
133.714970
 30
0.0
 10
188.966663
 20
135.138817
 30
0.0
 10
185.761897
 20
136.288598
 30
0.0
 10
182.350894
 20
137.146629
 30
0.0
 10
178.738128
 20
137.695234
 30
0.0
 10
177.041543
 20
137.805785
 30
0.0
 10
175.280093
 20
137.799118
 30
0.0
 10
173.488612
 20
137.685902
 30
0.0
 10
171.701942
 20
137.476831
 30
0.0
 10
169.954919
 20
137.182588
 30
0.0
 10
168.282385
 20
136.813859
 30
0.0
 10
166.719179
 20
136.381327
 30
0.0
 10
165.300136
 20
135.895676
 30
0.0
 10
164.060098
 20
135.367594
 30
0.0
 10
163.033903
 20
134.807760
 30
0.0
 10
162.256388
 20
134.226864
 30
0.0
 10
161.762395
 20
133.635589
 30
0.0
 10
161.586760
 20
133.044619
 30
0.0
 10
161.764324
 20
132.464636
 30
0.0
 10
162.329921
 20
131.906331
 30
0.0
 10
163.318397
 20
131.380382
 30
0.0
 10
164.380127
 20
130.901184
 30
0.0
 10
165.444596
 20
130.351655
 30
0.0
 10
166.508245
 20
129.736245
 30
0.0
 10
167.567512
 20
129.059401
 30
0.0
 10
168.618837
 20
128.325574
 30
0.0
 10
169.658660
 20
127.539208
 30
0.0
 10
170.683420
 20
126.704755
 30
0.0
 10
171.689559
 20
125.826661
 30
0.0
 10
172.673513
 20
124.909377
 30
0.0
 10
173.631722
 20
123.957348
 30
0.0
 10
174.560630
 20
122.975027
 30
0.0
 10
175.456670
 20
121.966856
 30
0.0
 10
176.316286
 20
120.937288
 30
0.0
 10
177.135914
 20
119.890768
 30
0.0
 10
177.911998
 20
118.831747
 30
0.0
 10
178.640975
 20
117.764675
 30
0.0
 10
177.113351
 20
118.557488
 30
0.0
 10
175.540805
 20
119.270037
 30
0.0
 10
173.928207
 20
119.910655
 30
0.0
 10
172.280421
 20
120.487674
 30
0.0
 10
170.602315
 20
121.009427
 30
0.0
 10
168.898758
 20
121.484243
 30
0.0
 10
167.174617
 20
121.920459
 30
0.0
 10
165.434756
 20
122.326403
 30
0.0
 10
163.684045
 20
122.710412
 30
0.0
 10
161.927352
 20
123.080813
 30
0.0
 10
160.169543
 20
123.445940
 30
0.0
 10
158.415482
 20
123.814126
 30
0.0
 10
156.670042
 20
124.193703
 30
0.0
 10
154.938087
 20
124.593004
 30
0.0
 10
153.224487
 20
125.020357
 30
0.0
 10
151.534104
 20
125.484100
 30
0.0
 10
151.209759
 20
125.575307
 30
0.0
 10
150.884274
 20
125.662225
 30
0.0
 10
150.557807
 20
125.745463
 30
0.0
 10
150.230523
 20
125.825634
 30
0.0
 10
149.902585
 20
125.903353
 30
0.0
 10
149.574158
 20
125.979228
 30
0.0
 10
149.245402
 20
126.053875
 30
0.0
 10
148.916483
 20
126.127902
 30
0.0
 10
148.587564
 20
126.201925
 30
0.0
 10
148.258803
 20
126.276553
 30
0.0
 10
147.930368
 20
126.352404
 30
0.0
 10
147.602419
 20
126.430083
 30
0.0
 10
147.275122
 20
126.510207
 30
0.0
 10
146.948639
 20
126.593386
 30
0.0
 10
146.623133
 20
126.680233
 30
0.0
 10
146.298764
 20
126.771361
 30
0.0
 10
145.968898
 20
126.868257
 30
0.0
 10
145.639912
 20
126.968002
 30
0.0
 10
145.311718
 20
127.070322
 30
0.0
 10
144.984235
 20
127.174935
 30
0.0
 10
144.657374
 20
127.281560
 30
0.0
 10
144.331048
 20
127.389915
 30
0.0
 10
144.005174
 20
127.499725
 30
0.0
 10
143.679665
 20
127.610707
 30
0.0
 10
143.354433
 20
127.722580
 30
0.0
 10
143.029395
 20
127.835068
 30
0.0
 10
142.704463
 20
127.947886
 30
0.0
 10
142.379555
 20
128.060760
 30
0.0
 10
142.054581
 20
128.173404
 30
0.0
 10
141.729455
 20
128.285540
 30
0.0
 10
141.404094
 20
128.396890
 30
0.0
 10
141.078411
 20
128.507173
 30
0.0
 10
140.829158
 20
128.590551
 30
0.0
 10
140.579629
 20
128.673186
 30
0.0
 10
140.329897
 20
128.755268
 30
0.0
 10
140.080032
 20
128.837003
 30
0.0
 10
139.830109
 20
128.918584
 30
0.0
 10
139.580203
 20
129.000211
 30
0.0
 10
139.330378
 20
129.082084
 30
0.0
 10
139.080714
 20
129.164398
 30
0.0
 10
138.831281
 20
129.247353
 30
0.0
 10
138.582149
 20
129.331147
 30
0.0
 10
138.333393
 20
129.415980
 30
0.0
 10
138.085087
 20
129.502049
 30
0.0
 10
137.837297
 20
129.589549
 30
0.0
 10
137.590102
 20
129.678685
 30
0.0
 10
137.343571
 20
129.769651
 30
0.0
 10
137.097776
 20
129.862644
 30
0.0
 10
136.990305
 20
129.903583
 30
0.0
 10
136.880823
 20
129.944914
 30
0.0
 10
136.769843
 20
129.986662
 30
0.0
 10
136.657874
 20
130.028855
 30
0.0
 10
136.545426
 20
130.071512
 30
0.0
 10
136.433013
 20
130.114660
 30
0.0
 10
136.321142
 20
130.158321
 30
0.0
 10
136.210324
 20
130.202520
 30
0.0
 10
136.101069
 20
130.247282
 30
0.0
 10
135.993889
 20
130.292629
 30
0.0
 10
135.889294
 20
130.338585
 30
0.0
 10
135.787792
 20
130.385178
 30
0.0
 10
135.689896
 20
130.432427
 30
0.0
 10
135.596115
 20
130.480359
 30
0.0
 10
135.506961
 20
130.528995
 30
0.0
 10
135.422942
 20
130.578363
 30
0.0
 10
135.342940
 20
130.628748
 30
0.0
 10
135.265436
 20
130.680495
 30
0.0
 10
135.190363
 20
130.733721
 30
0.0
 10
135.117655
 20
130.788546
 30
0.0
 10
135.047245
 20
130.845084
 30
0.0
 10
134.979061
 20
130.903452
 30
0.0
 10
134.913040
 20
130.963766
 30
0.0
 10
134.849111
 20
131.026144
 30
0.0
 10
134.787207
 20
131.090702
 30
0.0
 10
134.727263
 20
131.157557
 30
0.0
 10
134.669208
 20
131.226825
 30
0.0
 10
134.612976
 20
131.298623
 30
0.0
 10
134.558498
 20
131.373066
 30
0.0
 10
134.505709
 20
131.450271
 30
0.0
 10
134.454538
 20
131.530358
 30
0.0
 10
134.404918
 20
131.613442
 30
0.0
 10
134.377965
 20
131.677620
 30
0.0
 10
134.351486
 20
131.774420
 30
0.0
 10
134.325477
 20
131.901531
 30
0.0
 10
134.299892
 20
132.056649
 30
0.0
 10
134.274730
 20
132.237457
 30
0.0
 10
134.249991
 20
132.441654
 30
0.0
 10
134.225650
 20
132.666926
 30
0.0
 10
134.201679
 20
132.910964
 30
0.0
 10
134.178078
 20
133.171460
 30
0.0
 10
134.154847
 20
133.446108
 30
0.0
 10
134.131934
 20
133.732593
 30
0.0
 10
134.109365
 20
134.028609
 30
0.0
 10
134.087087
 20
134.331846
 30
0.0
 10
134.065101
 20
134.639995
 30
0.0
 10
134.043405
 20
134.950751
 30
0.0
 10
134.021947
 20
135.261798
 30
0.0
 10
134.240699
 20
135.261798
 30
0.0
 10
134.459454
 20
135.261798
 30
0.0
 10
134.678206
 20
135.261798
 30
0.0
 10
134.896959
 20
135.261798
 30
0.0
 10
135.115711
 20
135.261798
 30
0.0
 10
135.334463
 20
135.261798
 30
0.0
 10
135.553218
 20
135.261798
 30
0.0
 10
135.771970
 20
135.261798
 30
0.0
 10
135.990722
 20
135.261798
 30
0.0
 10
136.209474
 20
135.261798
 30
0.0
 10
136.428229
 20
135.261798
 30
0.0
 10
136.646981
 20
135.261798
 30
0.0
 10
136.865734
 20
135.261798
 30
0.0
 10
137.084486
 20
135.261798
 30
0.0
 10
137.303241
 20
135.261798
 30
0.0
 10
137.521993
 20
135.261798
 30
0.0
 10
138.522668
 20
135.312778
 30
0.0
 10
139.534152
 20
135.460124
 30
0.0
 10
140.550498
 20
135.699585
 30
0.0
 10
141.565755
 20
136.026907
 30
0.0
 10
142.573979
 20
136.437834
 30
0.0
 10
143.569225
 20
136.928114
 30
0.0
 10
144.545540
 20
137.493495
 30
0.0
 10
145.496984
 20
138.129725
 30
0.0
 10
146.417607
 20
138.832546
 30
0.0
 10
147.301461
 20
139.597707
 30
0.0
 10
148.142601
 20
140.420956
 30
0.0
 10
148.935078
 20
141.298039
 30
0.0
 10
149.672945
 20
142.224702
 30
0.0
 10
150.350260
 20
143.196692
 30
0.0
 10
150.961072
 20
144.209755
 30
0.0
 10
151.499433
 20
145.259637
 30
0.0
 10
151.761050
 20
145.800964
 30
0.0
 10
152.053611
 20
146.375943
 30
0.0
 10
152.373971
 20
146.979519
 30
0.0
 10
152.718979
 20
147.606632
 30
0.0
 10
153.085493
 20
148.252220
 30
0.0
 10
153.470364
 20
148.911226
 30
0.0
 10
153.870446
 20
149.578590
 30
0.0
 10
154.282593
 20
150.249253
 30
0.0
 10
154.703659
 20
150.918156
 30
0.0
 10
155.130495
 20
151.580239
 30
0.0
 10
155.559959
 20
152.230445
 30
0.0
 10
155.988899
 20
152.863712
 30
0.0
 10
156.414174
 20
153.474983
 30
0.0
 10
156.832634
 20
154.059197
 30
0.0
 10
157.241134
 20
154.611295
 30
0.0
 10
157.636528
 20
155.126219
 30
0.0
 10
158.447703
 20
156.211368
 30
0.0
 10
159.229203
 20
157.356749
 30
0.0
 10
159.977847
 20
158.554062
 30
0.0
 10
160.690460
 20
159.795009
 30
0.0
 10
161.363861
 20
161.071291
 30
0.0
 10
161.994874
 20
162.374611
 30
0.0
 10
162.580320
 20
163.696670
 30
0.0
 10
163.117017
 20
165.029168
 30
0.0
 10
163.601792
 20
166.363809
 30
0.0
 10
164.031459
 20
167.692292
 30
0.0
 10
164.402847
 20
169.006321
 30
0.0
 10
164.712775
 20
170.297595
 30
0.0
 10
164.958062
 20
171.557818
 30
0.0
 10
165.135531
 20
172.778690
 30
0.0
 10
165.242005
 20
173.951912
 30
0.0
 10
165.274302
 20
175.069187
 30
0.0
 10
165.272979
 20
175.325115
 30
0.0
 10
165.271657
 20
175.581042
 30
0.0
 10
165.270334
 20
175.836970
 30
0.0
 10
165.269011
 20
176.092898
 30
0.0
 10
165.267688
 20
176.348825
 30
0.0
 10
165.266365
 20
176.604752
 30
0.0
 10
165.265042
 20
176.860680
 30
0.0
 10
165.263719
 20
177.116607
 30
0.0
 10
165.262396
 20
177.372535
 30
0.0
 10
165.261073
 20
177.628463
 30
0.0
 10
165.259750
 20
177.884390
 30
0.0
 10
165.258427
 20
178.140318
 30
0.0
 10
165.257104
 20
178.396245
 30
0.0
 10
165.255782
 20
178.652173
 30
0.0
 10
165.254459
 20
178.908100
 30
0.0
 10
165.251927
 20
179.162689
 30
0.0
 10
165.084043
 20
178.900592
 30
0.0
 10
164.916160
 20
178.638496
 30
0.0
 10
164.748276
 20
178.376400
 30
0.0
 10
164.580390
 20
178.114303
 30
0.0
 10
164.412507
 20
177.852207
 30
0.0
 10
164.244623
 20
177.590110
 30
0.0
 10
164.076740
 20
177.328014
 30
0.0
 10
163.908857
 20
177.065918
 30
0.0
 10
163.740973
 20
176.803821
 30
0.0
 10
163.573090
 20
176.541725
 30
0.0
 10
163.405206
 20
176.279629
 30
0.0
 10
163.237320
 20
176.017532
 30
0.0
 10
163.069437
 20
175.755436
 30
0.0
 10
162.901554
 20
175.493339
 30
0.0
 10
162.733670
 20
175.231243
 30
0.0
 10
162.565787
 20
174.969147
 30
0.0
 10
162.260836
 20
174.521197
 30
0.0
 10
161.902992
 20
174.045109
 30
0.0
 10
161.496730
 20
173.545082
 30
0.0
 10
161.046520
 20
173.025317
 30
0.0
 10
160.556835
 20
172.490014
 30
0.0
 10
160.032145
 20
171.943373
 30
0.0
 10
159.476924
 20
171.389594
 30
0.0
 10
158.895640
 20
170.832876
 30
0.0
 10
158.292771
 20
170.277422
 30
0.0
 10
157.672784
 20
169.727430
 30
0.0
 10
157.040152
 20
169.187100
 30
0.0
 10
156.399347
 20
168.660634
 30
0.0
 10
155.754840
 20
168.152230
 30
0.0
 10
155.111106
 20
167.666090
 30
0.0
 10
154.472614
 20
167.206412
 30
0.0
 10
153.843837
 20
166.777398
 30
0.0
 10
152.828826
 20
166.112542
 30
0.0
 10
151.898649
 20
165.525514
 30
0.0
 10
151.030816
 20
165.011494
 30
0.0
 10
150.202834
 20
164.565662
 30
0.0
 10
149.392214
 20
164.183196
 30
0.0
 10
148.576462
 20
163.859278
 30
0.0
 10
147.733089
 20
163.589086
 30
0.0
 10
146.839602
 20
163.367800
 30
0.0
 10
145.873510
 20
163.190601
 30
0.0
 10
144.812322
 20
163.052667
 30
0.0
 10
143.633545
 20
162.949179
 30
0.0
 10
142.314690
 20
162.875316
 30
0.0
 10
140.833264
 20
162.826258
 30
0.0
 10
139.166775
 20
162.797184
 30
0.0
 10
137.292731
 20
162.783275
 30
0.0
 10
135.188646
 20
162.779711
 30
0.0
 10
132.848613
 20
162.791511
 30
0.0
 10
130.742831
 20
162.829666
 30
0.0
 10
128.859813
 20
162.898307
 30
0.0
 10
127.188064
 20
163.001565
 30
0.0
 10
125.716094
 20
163.143570
 30
0.0
 10
124.432413
 20
163.328455
 30
0.0
 10
123.325526
 20
163.560349
 30
0.0
 10
122.383940
 20
163.843385
 30
0.0
 10
121.596169
 20
164.181693
 30
0.0
 10
120.950716
 20
164.579404
 30
0.0
 10
120.436093
 20
165.040650
 30
0.0
 10
120.040808
 20
165.569561
 30
0.0
 10
119.753365
 20
166.170269
 30
0.0
 10
119.562280
 20
166.846904
 30
0.0
 10
119.456055
 20
167.603598
 30
0.0
 10
119.423199
 20
168.444481
 30
0.0
 10
119.418516
 20
168.793003
 30
0.0
 10
119.403832
 20
169.101360
 30
0.0
 10
119.378300
 20
169.370079
 30
0.0
 10
119.341001
 20
169.599683
 30
0.0
 10
119.291059
 20
169.790701
 30
0.0
 10
119.227590
 20
169.943659
 30
0.0
 10
119.149705
 20
170.059081
 30
0.0
 10
119.056521
 20
170.137493
 30
0.0
 10
118.947148
 20
170.179423
 30
0.0
 10
118.820701
 20
170.185394
 30
0.0
 10
118.676294
 20
170.155935
 30
0.0
 10
118.513041
 20
170.091571
 30
0.0
 10
118.330052
 20
169.992827
 30
0.0
 10
118.126442
 20
169.860230
 30
0.0
 10
117.901327
 20
169.694306
 30
0.0
 10
117.653817
 20
169.495579
 30
0.0
 10
117.173336
 20
169.202185
 30
0.0
 10
116.593523
 20
169.024565
 30
0.0
 10
115.928842
 20
168.955935
 30
0.0
 10
115.193756
 20
168.989510
 30
0.0
 10
114.402728
 20
169.118505
 30
0.0
 10
113.570217
 20
169.336135
 30
0.0
 10
112.710691
 20
169.635616
 30
0.0
 10
111.838609
 20
170.010163
 30
0.0
 10
110.968431
 20
170.452991
 30
0.0
 10
110.114629
 20
170.957315
 30
0.0
 10
109.291655
 20
171.516350
 30
0.0
 10
108.513979
 20
172.123313
 30
0.0
 10
107.796059
 20
172.771417
 30
0.0
 10
107.152362
 20
173.453878
 30
0.0
 10
106.597345
 20
174.163912
 30
0.0
 10
106.145477
 20
174.894733
 30
0.0
 10
106.053783
 20
175.066105
 30
0.0
 10
105.962091
 20
175.237477
 30
0.0
 10
105.870397
 20
175.408849
 30
0.0
 10
105.778703
 20
175.580221
 30
0.0
 10
105.687009
 20
175.751593
 30
0.0
 10
105.595315
 20
175.922965
 30
0.0
 10
105.503624
 20
176.094337
 30
0.0
 10
105.411930
 20
176.265709
 30
0.0
 10
105.320236
 20
176.437081
 30
0.0
 10
105.228542
 20
176.608453
 30
0.0
 10
105.136851
 20
176.779825
 30
0.0
 10
105.045157
 20
176.951197
 30
0.0
 10
104.953463
 20
177.122568
 30
0.0
 10
104.861771
 20
177.293940
 30
0.0
 10
104.770077
 20
177.465312
 30
0.0
 10
104.678383
 20
177.636684
 30
0.0
 10
104.581392
 20
177.455429
 30
0.0
 10
104.484401
 20
177.274174
 30
0.0
 10
104.387413
 20
177.092919
 30
0.0
 10
104.290422
 20
176.911664
 30
0.0
 10
104.193431
 20
176.730409
 30
0.0
 10
104.096440
 20
176.549154
 30
0.0
 10
103.999452
 20
176.367899
 30
0.0
 10
103.902461
 20
176.186644
 30
0.0
 10
103.805470
 20
176.005388
 30
0.0
 10
103.708479
 20
175.824134
 30
0.0
 10
103.611491
 20
175.642878
 30
0.0
 10
103.514500
 20
175.461623
 30
0.0
 10
103.417509
 20
175.280368
 30
0.0
 10
103.320518
 20
175.099113
 30
0.0
 10
103.223529
 20
174.917858
 30
0.0
 10
103.126538
 20
174.736603
 30
0.0
 10
102.668764
 20
173.979296
 30
0.0
 10
102.127975
 20
173.252239
 30
0.0
 10
101.515869
 20
172.561178
 30
0.0
 10
100.844153
 20
171.911856
 30
0.0
 10
100.124526
 20
171.310017
 30
0.0
 10
99.368691
 20
170.761407
 30
0.0
 10
98.588350
 20
170.271770
 30
0.0
 10
97.795206
 20
169.846850
 30
0.0
 10
97.000958
 20
169.492391
 30
0.0
 10
96.217313
 20
169.214139
 30
0.0
 10
95.455969
 20
169.017837
 30
0.0
 10
94.728627
 20
168.909230
 30
0.0
 10
94.046991
 20
168.894061
 30
0.0
 10
93.422765
 20
168.978078
 30
0.0
 10
92.867648
 20
169.167022
 30
0.0
 10
92.393343
 20
169.466640
 30
0.0
 10
92.148172
 20
169.662538
 30
0.0
 10
91.920212
 20
169.828245
 30
0.0
 10
91.708410
 20
169.963485
 30
0.0
 10
91.511725
 20
170.067987
 30
0.0
 10
91.329101
 20
170.141475
 30
0.0
 10
91.159501
 20
170.183678
 30
0.0
 10
91.001867
 20
170.194319
 30
0.0
 10
90.855158
 20
170.173129
 30
0.0
 10
90.718326
 20
170.119832
 30
0.0
 10
90.590324
 20
170.034156
 30
0.0
 10
90.470100
 20
169.915827
 30
0.0
 10
90.356612
 20
169.764571
 30
0.0
 10
90.248810
 20
169.580116
 30
0.0
 10
90.145646
 20
169.362187
 30
0.0
 10
90.046076
 20
169.110512
 30
0.0
 10
89.949048
 20
168.824816
 30
0.0
 10
89.877523
 20
168.599313
 30
0.0
 10
89.801746
 20
168.360125
 30
0.0
 10
89.722382
 20
168.109343
 30
0.0
 10
89.640083
 20
167.849058
 30
0.0
 10
89.555514
 20
167.581361
 30
0.0
 10
89.469332
 20
167.308343
 30
0.0
 10
89.382197
 20
167.032094
 30
0.0
 10
89.294768
 20
166.754705
 30
0.0
 10
89.207704
 20
166.478268
 30
0.0
 10
89.121664
 20
166.204873
 30
0.0
 10
89.037307
 20
165.936611
 30
0.0
 10
88.955294
 20
165.675573
 30
0.0
 10
88.876281
 20
165.423850
 30
0.0
 10
88.800933
 20
165.183533
 30
0.0
 10
88.729903
 20
164.956712
 30
0.0
 10
88.663855
 20
164.745479
 30
0.0
 10
88.545267
 20
164.465033
 30
0.0
 10
88.368131
 20
164.210876
 30
0.0
 10
88.124883
 20
163.981875
 30
0.0
 10
87.807960
 20
163.776902
 30
0.0
 10
87.409799
 20
163.594824
 30
0.0
 10
86.922834
 20
163.434512
 30
0.0
 10
86.339504
 20
163.294834
 30
0.0
 10
85.652241
 20
163.174660
 30
0.0
 10
84.853485
 20
163.072858
 30
0.0
 10
83.935669
 20
162.988299
 30
0.0
 10
82.891232
 20
162.919851
 30
0.0
 10
81.712608
 20
162.866384
 30
0.0
 10
80.392234
 20
162.826767
 30
0.0
 10
78.922545
 20
162.799869
 30
0.0
 10
77.295980
 20
162.784560
 30
0.0
 10
75.504970
 20
162.779708
 30
0.0
 10
72.844339
 20
162.804486
 30
0.0
 10
70.391628
 20
162.883430
 30
0.0
 10
68.129175
 20
163.023452
 30
0.0
 10
66.039327
 20
163.231464
 30
0.0
 10
64.104424
 20
163.514379
 30
0.0
 10
62.306813
 20
163.879110
 30
0.0
 10
60.628833
 20
164.332568
 30
0.0
 10
59.052830
 20
164.881667
 30
0.0
 10
57.561146
 20
165.533319
 30
0.0
 10
56.136121
 20
166.294436
 30
0.0
 10
54.760103
 20
167.171931
 30
0.0
 10
53.415432
 20
168.172716
 30
0.0
 10
52.084453
 20
169.303704
 30
0.0
 10
50.749506
 20
170.571807
 30
0.0
 10
49.392937
 20
171.983937
 30
0.0
 10
47.997088
 20
173.547009
 30
0.0
 10
47.693037
 20
173.897989
 30
0.0
 10
47.388986
 20
174.248968
 30
0.0
 10
47.084934
 20
174.599948
 30
0.0
 10
46.780883
 20
174.950928
 30
0.0
 10
46.476832
 20
175.301908
 30
0.0
 10
46.172781
 20
175.652888
 30
0.0
 10
45.868730
 20
176.003868
 30
0.0
 10
45.564678
 20
176.354848
 30
0.0
 10
45.260627
 20
176.705827
 30
0.0
 10
44.956576
 20
177.056807
 30
0.0
 10
44.652525
 20
177.407787
 30
0.0
 10
44.348473
 20
177.758767
 30
0.0
 10
44.044422
 20
178.109747
 30
0.0
 10
43.740371
 20
178.460727
 30
0.0
 10
43.436320
 20
178.811707
 30
0.0
  0
ENDSEC
  0
SECTION
  2
OBJECTS
  0
DICTIONARY
  5
C
330
0
100
AcDbDictionary
  3
ACAD_GROUP
350
D
  3
ACAD_MLINESTYLE
350
17
  0
DICTIONARY
  5
D
330
C
100
AcDbDictionary
  0
DICTIONARY
  5
1A
330
C
100
AcDbDictionary
  0
DICTIONARY
  5
17
330
C
100
AcDbDictionary
  3
STANDARD
350
18
  0
DICTIONARY
  5
19
330
C
100
AcDbDictionary
  0
ENDSEC
  0
EOF
