  0
SECTION
  2
HEADER
  9
$ACADVER
  1
AC1014
  9
$HANDSEED
  5
FFFF
  9
$MEASUREMENT
 70
     1
  0
ENDSEC
  0
SECTION
  2
TABLES
  0
TABLE
  2
VPORT
  5
8
330
0
100
AcDbSymbolTable
 70
     4
  0
VPORT
  5
2E
330
8
100
AcDbSymbolTableRecord
100
AcDbViewportTableRecord
  2
*ACTIVE
 70
     0
 10
0.0
 20
0.0
 11
1.0
 21
1.0
 12
210.0
 22
148.5
 13
0.0
 23
0.0
 14
10.0
 24
10.0
 15
10.0
 25
10.0
 16
0.0
 26
0.0
 36
1.0
 17
0.0
 27
0.0
 37
0.0
 40
341.0
 41
1.24
 42
50.0
 43
0.0
 44
0.0
 50
0.0
 51
0.0
 71
     0
 72
   100
 73
     1
 74
     3
 75
     0
 76
     0
 77
     0
 78
     0
  0
ENDTAB
  0
TABLE
  2
LTYPE
  5
5
330
0
100
AcDbSymbolTable
 70
     1
  0
LTYPE
  5
14
330
5
100
AcDbSymbolTableRecord
100
AcDbLinetypeTableRecord
  2
BYBLOCK
 70
     0
  3

 72
    65
 73
     0
 40
0.0
  0
LTYPE
  5
15
330
5
100
AcDbSymbolTableRecord
100
AcDbLinetypeTableRecord
  2
BYLAYER
 70
     0
  3

 72
    65
 73
     0
 40
0.0
  0
LTYPE
  5
16
330
5
100
AcDbSymbolTableRecord
100
AcDbLinetypeTableRecord
  2
CONTINUOUS
 70
     0
  3
Solid line
 72
    65
 73
     0
 40
0.0
  0
ENDTAB
  0
TABLE
  2
LAYER
  5
2
100
AcDbSymbolTable
 70
1
  0
LAYER
  5
50
100
AcDbSymbolTableRecord
100
AcDbLayerTableRecord
  2
0
 70
0
  6
CONTINUOUS
  0
ENDTAB
  0
TABLE
  2
STYLE
  5
3
330
0
100
AcDbSymbolTable
 70
     1
  0
STYLE
  5
11
330
3
100
AcDbSymbolTableRecord
100
AcDbTextStyleTableRecord
  2
STANDARD
 70
     0
 40
0.0
 41
1.0
 50
0.0
 71
     0
 42
2.5
  3
txt
  4

  0
ENDTAB
  0
TABLE
  2
VIEW
  5
6
330
0
100
AcDbSymbolTable
 70
     0
  0
ENDTAB
  0
TABLE
  2
UCS
  5
7
330
0
100
AcDbSymbolTable
 70
     0
  0
ENDTAB
  0
TABLE
  2
APPID
  5
9
330
0
100
AcDbSymbolTable
 70
     2
  0
APPID
  5
12
330
9
100
AcDbSymbolTableRecord
100
AcDbRegAppTableRecord
  2
ACAD
 70
     0
  0
ENDTAB
  0
TABLE
  2
DIMSTYLE
  5
A
330
0
100
AcDbSymbolTable
 70
     1
  0
DIMSTYLE
105
27
330
A
100
AcDbSymbolTableRecord
100
AcDbDimStyleTableRecord
  2
ISO-25
 70
     0
  3

  4

  5

  6

  7

 40
1.0
 41
2.5
 42
0.625
 43
3.75
 44
1.25
 45
0.0
 46
0.0
 47
0.0
 48
0.0
140
2.5
141
2.5
142
0.0
143
0.03937007874016
144
1.0
145
0.0
146
1.0
147
0.625
 71
     0
 72
     0
 73
     0
 74
     0
 75
     0
 76
     0
 77
     1
 78
     8
170
     0
171
     3
172
     1
173
     0
174
     0
175
     0
176
     0
177
     0
178
     0
270
     2
271
     2
272
     2
273
     2
274
     3
340
11
275
     0
280
     0
281
     0
282
     0
283
     0
284
     8
285
     0
286
     0
287
     3
288
     0
  0
ENDTAB
  0
TABLE
  2
BLOCK_RECORD
  5
1
330
0
100
AcDbSymbolTable
 70
     1
  0
BLOCK_RECORD
  5
1F
330
1
100
AcDbSymbolTableRecord
100
AcDbBlockTableRecord
  2
*MODEL_SPACE
  0
BLOCK_RECORD
  5
1B
330
1
100
AcDbSymbolTableRecord
100
AcDbBlockTableRecord
  2
*PAPER_SPACE
  0
ENDTAB
  0
ENDSEC
  0
SECTION
  2
BLOCKS
  0
BLOCK
  5
20
330
1F
100
AcDbEntity
  8
0
100
AcDbBlockBegin
  2
*MODEL_SPACE
 70
     0
 10
0.0
 20
0.0
 30
0.0
  3
*MODEL_SPACE
  1

  0
ENDBLK
  5
21
330
1F
100
AcDbEntity
  8
0
100
AcDbBlockEnd
  0
BLOCK
  5
1C
330
1B
100
AcDbEntity
 67
     1
  8
0
100
AcDbBlockBegin
  2
*PAPER_SPACE
  1

  0
ENDBLK
  5
1D
330
1B
100
AcDbEntity
 67
     1
  8
0
100
AcDbBlockEnd
  0
ENDSEC
  0
SECTION
  2
ENTITIES
  0
LWPOLYLINE
  5
100
100
AcDbEntity
  8
0
 62
7
100
AcDbPolyline
 90
608
 70
1
 10
90.810995
 20
201.083349
 30
0.0
 10
88.826620
 20
198.106787
 30
0.0
 10
86.842245
 20
195.130224
 30
0.0
 10
84.857870
 20
192.153662
 30
0.0
 10
82.873495
 20
189.177099
 30
0.0
 10
80.889120
 20
186.200537
 30
0.0
 10
78.904745
 20
183.223974
 30
0.0
 10
76.920370
 20
180.247412
 30
0.0
 10
74.935995
 20
177.270849
 30
0.0
 10
72.081001
 20
179.322597
 30
0.0
 10
69.226009
 20
181.374345
 30
0.0
 10
66.371015
 20
183.426094
 30
0.0
 10
63.516021
 20
185.477842
 30
0.0
 10
60.661026
 20
187.529590
 30
0.0
 10
57.806032
 20
189.581338
 30
0.0
 10
54.951040
 20
191.633086
 30
0.0
 10
52.096046
 20
193.684834
 30
0.0
 10
52.683024
 20
190.492523
 30
0.0
 10
53.270004
 20
187.300211
 30
0.0
 10
53.856983
 20
184.107899
 30
0.0
 10
54.443963
 20
180.915588
 30
0.0
 10
55.030944
 20
177.723276
 30
0.0
 10
55.617922
 20
174.530965
 30
0.0
 10
56.204900
 20
171.338653
 30
0.0
 10
56.791881
 20
168.146342
 30
0.0
 10
53.437499
 20
168.294718
 30
0.0
 10
50.083117
 20
168.443093
 30
0.0
 10
46.728737
 20
168.591469
 30
0.0
 10
43.374355
 20
168.739845
 30
0.0
 10
40.019973
 20
168.888221
 30
0.0
 10
36.665593
 20
169.036597
 30
0.0
 10
33.311211
 20
169.184973
 30
0.0
 10
29.956829
 20
169.333349
 30
0.0
 10
33.214770
 20
165.423834
 30
0.0
 10
36.472709
 20
161.514318
 30
0.0
 10
39.730651
 20
157.604802
 30
0.0
 10
42.988590
 20
153.695286
 30
0.0
 10
46.246531
 20
149.785771
 30
0.0
 10
49.504473
 20
145.876255
 30
0.0
 10
52.762412
 20
141.966738
 30
0.0
 10
56.020354
 20
138.057223
 30
0.0
 10
56.024534
 20
137.706682
 30
0.0
 10
56.036017
 20
137.328167
 30
0.0
 10
56.051072
 20
136.939901
 30
0.0
 10
56.065941
 20
136.560100
 30
0.0
 10
56.076895
 20
136.206984
 30
0.0
 10
56.080176
 20
135.898774
 30
0.0
 10
56.072053
 20
135.653685
 30
0.0
 10
56.048770
 20
135.489937
 30
0.0
 10
56.011024
 20
135.253344
 30
0.0
 10
55.974411
 20
134.864890
 30
0.0
 10
55.931800
 20
134.361629
 30
0.0
 10
55.876052
 20
133.780607
 30
0.0
 10
55.800035
 20
133.158873
 30
0.0
 10
55.696620
 20
132.533477
 30
0.0
 10
55.558666
 20
131.941472
 30
0.0
 10
55.379043
 20
131.419902
 30
0.0
 10
55.341025
 20
131.338839
 30
0.0
 10
55.297599
 20
131.260133
 30
0.0
 10
55.249212
 20
131.183991
 30
0.0
 10
55.196311
 20
131.110614
 30
0.0
 10
55.139352
 20
131.040211
 30
0.0
 10
55.078776
 20
130.972983
 30
0.0
 10
55.015035
 20
130.909137
 30
0.0
 10
54.948579
 20
130.848878
 30
0.0
 10
54.566973
 20
130.542493
 30
0.0
 10
54.165563
 20
130.261601
 30
0.0
 10
53.747331
 20
130.003751
 30
0.0
 10
53.315272
 20
129.766502
 30
0.0
 10
52.872367
 20
129.547403
 30
0.0
 10
52.421607
 20
129.344013
 30
0.0
 10
51.965982
 20
129.153886
 30
0.0
 10
51.508477
 20
128.974572
 30
0.0
 10
50.796338
 20
128.729997
 30
0.0
 10
50.071488
 20
128.527440
 30
0.0
 10
49.337113
 20
128.356177
 30
0.0
 10
48.596402
 20
128.205479
 30
0.0
 10
47.852539
 20
128.064617
 30
0.0
 10
47.108708
 20
127.922867
 30
0.0
 10
46.368102
 20
127.769496
 30
0.0
 10
45.633902
 20
127.593778
 30
0.0
 10
44.401999
 20
127.272770
 30
0.0
 10
43.170081
 20
126.950094
 30
0.0
 10
41.939385
 20
126.622265
 30
0.0
 10
40.711144
 20
126.285792
 30
0.0
 10
39.486594
 20
125.937179
 30
0.0
 10
38.266965
 20
125.572938
 30
0.0
 10
37.053496
 20
125.189581
 30
0.0
 10
35.847420
 20
124.783615
 30
0.0
 10
32.497376
 20
123.618053
 30
0.0
 10
29.146413
 20
122.438292
 30
0.0
 10
25.805522
 20
121.225334
 30
0.0
 10
22.485705
 20
119.960184
 30
0.0
 10
19.197959
 20
118.623842
 30
0.0
 10
15.953283
 20
117.197314
 30
0.0
 10
12.762674
 20
115.661601
 30
0.0
 10
9.637133
 20
113.997708
 30
0.0
 10
9.124166
 20
113.693744
 30
0.0
 10
8.615234
 20
113.363370
 30
0.0
 10
8.113710
 20
113.013437
 30
0.0
 10
7.622969
 20
112.650802
 30
0.0
 10
7.146383
 20
112.282314
 30
0.0
 10
6.687326
 20
111.914829
 30
0.0
 10
6.249173
 20
111.555202
 30
0.0
 10
5.835298
 20
111.210283
 30
0.0
 10
5.443184
 20
110.875956
 30
0.0
 10
5.067697
 20
110.543218
 30
0.0
 10
4.708277
 20
110.211603
 30
0.0
 10
4.364365
 20
109.880649
 30
0.0
 10
4.035403
 20
109.549888
 30
0.0
 10
3.720830
 20
109.218854
 30
0.0
 10
3.420089
 20
108.887085
 30
0.0
 10
3.132620
 20
108.554113
 30
0.0
 10
2.857853
 20
108.219460
 30
0.0
 10
2.595228
 20
107.882658
 30
0.0
 10
2.344196
 20
107.543245
 30
0.0
 10
2.104214
 20
107.200766
 30
0.0
 10
1.874734
 20
106.854757
 30
0.0
 10
1.655210
 20
106.504761
 30
0.0
 10
1.445096
 20
106.150320
 30
0.0
 10
1.243846
 20
105.790974
 30
0.0
 10
0.939383
 20
105.208036
 30
0.0
 10
0.697764
 20
104.675763
 30
0.0
 10
0.510014
 20
104.151070
 30
0.0
 10
0.367155
 20
103.590876
 30
0.0
 10
0.260211
 20
102.952098
 30
0.0
 10
0.180206
 20
102.191653
 30
0.0
 10
0.118164
 20
101.266461
 30
0.0
 10
0.065107
 20
100.133438
 30
0.0
 10
0.036906
 20
99.424260
 30
0.0
 10
0.015723
 20
98.802947
 30
0.0
 10
0.003158
 20
98.258802
 30
0.0
 10
0.000809
 20
97.781131
 30
0.0
 10
0.010276
 20
97.359237
 30
0.0
 10
0.033159
 20
96.982426
 30
0.0
 10
0.071057
 20
96.640002
 30
0.0
 10
0.125568
 20
96.321269
 30
0.0
 10
-5.540908
 20
96.020543
 30
0.0
 10
-10.487309
 20
95.736757
 30
0.0
 10
-14.725242
 20
95.469099
 30
0.0
 10
-18.266311
 20
95.216771
 30
0.0
 10
-21.122120
 20
94.978963
 30
0.0
 10
-23.304276
 20
94.754877
 30
0.0
 10
-24.824382
 20
94.543705
 30
0.0
 10
-25.694044
 20
94.344643
 30
0.0
 10
-26.857584
 20
93.856008
 30
0.0
 10
-27.933851
 20
93.247570
 30
0.0
 10
-28.909190
 20
92.533785
 30
0.0
 10
-29.769940
 20
91.729113
 30
0.0
 10
-30.502447
 20
90.848019
 30
0.0
 10
-31.093053
 20
89.904956
 30
0.0
 10
-31.528102
 20
88.914388
 30
0.0
 10
-31.793931
 20
87.890776
 30
0.0
 10
-31.768399
 20
86.859996
 30
0.0
 10
-31.254719
 20
85.796017
 30
0.0
 10
-30.130298
 20
84.617735
 30
0.0
 10
-28.272536
 20
83.244050
 30
0.0
 10
-25.558839
 20
81.593862
 30
0.0
 10
-21.866612
 20
79.586069
 30
0.0
 10
-17.073257
 20
77.139570
 30
0.0
 10
-11.056178
 20
74.173265
 30
0.0
 10
-7.213819
 20
72.276877
 30
0.0
 10
-3.671103
 20
70.484934
 30
0.0
 10
-0.497532
 20
68.835524
 30
0.0
 10
2.237391
 20
67.366740
 30
0.0
 10
4.464165
 20
66.116671
 30
0.0
 10
6.113289
 20
65.123409
 30
0.0
 10
7.115260
 20
64.425047
 30
0.0
 10
7.400577
 20
64.059670
 30
0.0
 10
7.124539
 20
63.502400
 30
0.0
 10
6.511402
 20
62.249809
 30
0.0
 10
5.600009
 20
60.381700
 30
0.0
 10
4.429206
 20
57.977873
 30
0.0
 10
3.037839
 20
55.118130
 30
0.0
 10
1.464753
 20
51.882275
 30
0.0
 10
-0.251208
 20
48.350107
 30
0.0
 10
-2.071197
 20
44.601429
 30
0.0
 10
-4.683391
 20
39.188530
 30
0.0
 10
-6.729615
 20
34.861519
 30
0.0
 10
-8.266262
 20
31.476376
 30
0.0
 10
-9.349720
 20
28.889076
 30
0.0
 10
-10.036381
 20
26.955597
 30
0.0
 10
-10.382634
 20
25.531913
 30
0.0
 10
-10.444871
 20
24.474006
 30
0.0
 10
-10.279481
 20
23.637849
 30
0.0
 10
-9.734897
 20
22.496105
 30
0.0
 10
-8.954106
 20
21.554731
 30
0.0
 10
-7.964894
 20
20.822645
 30
0.0
 10
-6.795048
 20
20.308763
 30
0.0
 10
-5.472356
 20
20.022013
 30
0.0
 10
-4.024604
 20
19.971314
 30
0.0
 10
-2.479579
 20
20.165584
 30
0.0
 10
-0.865069
 20
20.613746
 30
0.0
 10
-0.316652
 20
20.865912
 30
0.0
 10
0.515572
 20
21.336828
 30
0.0
 10
1.635897
 20
22.029494
 30
0.0
 10
3.048619
 20
22.946921
 30
0.0
 10
4.758031
 20
24.092114
 30
0.0
 10
6.768429
 20
25.468077
 30
0.0
 10
9.084106
 20
27.077821
 30
0.0
 10
11.709357
 20
28.924348
 30
0.0
 10
12.090033
 20
29.027157
 30
0.0
 10
12.484342
 20
29.114999
 30
0.0
 10
12.892333
 20
29.185328
 30
0.0
 10
13.314051
 20
29.235601
 30
0.0
 10
13.749542
 20
29.263279
 30
0.0
 10
14.198853
 20
29.265925
 30
0.0
 10
14.662031
 20
29.240790
 30
0.0
 10
15.139122
 20
29.185426
 30
0.0
 10
15.765950
 20
28.554254
 30
0.0
 10
16.204948
 20
27.924583
 30
0.0
 10
16.475304
 20
27.277460
 30
0.0
 10
16.596208
 20
26.593927
 30
0.0
 10
16.586847
 20
25.855022
 30
0.0
 10
16.466407
 20
25.041797
 30
0.0
 10
16.254078
 20
24.135289
 30
0.0
 10
15.969047
 20
23.116545
 30
0.0
 10
15.114519
 20
21.182695
 30
0.0
 10
14.133248
 20
18.861386
 30
0.0
 10
13.086068
 20
16.298976
 30
0.0
 10
12.033811
 20
13.641827
 30
0.0
 10
11.037309
 20
11.036305
 30
0.0
 10
10.157395
 20
8.628769
 30
0.0
 10
9.454902
 20
6.565580
 30
0.0
 10
8.990662
 20
4.993103
 30
0.0
 10
8.777212
 20
4.058113
 30
0.0
 10
8.640515
 20
3.230965
 30
0.0
 10
8.581021
 20
2.507091
 30
0.0
 10
8.599179
 20
1.881931
 30
0.0
 10
8.695437
 20
1.350918
 30
0.0
 10
8.870244
 20
0.909487
 30
0.0
 10
9.124049
 20
0.553074
 30
0.0
 10
9.457301
 20
0.277114
 30
0.0
 10
9.539272
 20
0.242491
 30
0.0
 10
9.621244
 20
0.207867
 30
0.0
 10
9.703216
 20
0.173244
 30
0.0
 10
9.785188
 20
0.138621
 30
0.0
 10
9.867159
 20
0.103997
 30
0.0
 10
9.949131
 20
0.069374
 30
0.0
 10
10.031103
 20
0.034750
 30
0.0
 10
10.113075
 20
0.000127
 30
0.0
 10
10.665298
 20
-0.041592
 30
0.0
 10
12.117897
 20
-0.060457
 30
0.0
 10
14.423965
 20
-0.061780
 30
0.0
 10
17.536592
 20
-0.051065
 30
0.0
 10
21.408870
 20
-0.033629
 30
0.0
 10
25.993891
 20
-0.014817
 30
0.0
 10
31.244746
 20
-0.000026
 30
0.0
 10
37.114527
 20
0.005398
 30
0.0
 10
40.850023
 20
0.004868
 30
0.0
 10
44.585519
 20
0.004339
 30
0.0
 10
48.321015
 20
0.003810
 30
0.0
 10
52.056508
 20
0.003281
 30
0.0
 10
55.792004
 20
0.002752
 30
0.0
 10
59.527500
 20
0.002223
 30
0.0
 10
63.262996
 20
0.001693
 30
0.0
 10
66.998492
 20
0.001164
 30
0.0
 10
67.093126
 20
0.100383
 30
0.0
 10
67.187757
 20
0.199602
 30
0.0
 10
67.282388
 20
0.298820
 30
0.0
 10
67.377021
 20
0.398039
 30
0.0
 10
67.471652
 20
0.497258
 30
0.0
 10
67.566285
 20
0.596477
 30
0.0
 10
67.660916
 20
0.695695
 30
0.0
 10
67.755550
 20
0.794914
 30
0.0
 10
68.147408
 20
1.542963
 30
0.0
 10
68.649228
 20
2.975890
 30
0.0
 10
69.228266
 20
4.902168
 30
0.0
 10
69.851775
 20
7.130262
 30
0.0
 10
70.487010
 20
9.468641
 30
0.0
 10
71.101233
 20
11.725780
 30
0.0
 10
71.661692
 20
13.710145
 30
0.0
 10
72.135645
 20
15.230208
 30
0.0
 10
72.535835
 20
16.396409
 30
0.0
 10
73.137813
 20
18.104289
 30
0.0
 10
73.917579
 20
20.215958
 30
0.0
 10
74.851135
 20
22.593522
 30
0.0
 10
75.914474
 20
25.099092
 30
0.0
 10
77.083599
 20
27.594772
 30
0.0
 10
78.334507
 20
29.942668
 30
0.0
 10
79.643197
 20
32.004894
 30
0.0
 10
80.213432
 20
32.848926
 30
0.0
 10
80.800770
 20
33.751449
 30
0.0
 10
81.416641
 20
34.658522
 30
0.0
 10
82.072472
 20
35.516201
 30
0.0
 10
82.779690
 20
36.270541
 30
0.0
 10
83.549730
 20
36.867597
 30
0.0
 10
84.394021
 20
37.253423
 30
0.0
 10
85.323989
 20
37.374076
 30
0.0
 10
86.131635
 20
37.218464
 30
0.0
 10
86.849939
 20
36.835212
 30
0.0
 10
87.491863
 20
36.270978
 30
0.0
 10
88.070372
 20
35.572422
 30
0.0
 10
88.598427
 20
34.786208
 30
0.0
 10
89.088991
 20
33.958988
 30
0.0
 10
89.555023
 20
33.137425
 30
0.0
 10
90.009490
 20
32.368180
 30
0.0
 10
91.128797
 20
30.381170
 30
0.0
 10
92.089110
 20
28.318867
 30
0.0
 10
92.925735
 20
26.196737
 30
0.0
 10
93.673980
 20
24.030255
 30
0.0
 10
94.369141
 20
21.834890
 30
0.0
 10
95.046530
 20
19.626114
 30
0.0
 10
95.741447
 20
17.419397
 30
0.0
 10
96.489197
 20
15.230208
 30
0.0
 10
97.268080
 20
12.944012
 30
0.0
 10
98.024547
 20
10.518746
 30
0.0
 10
98.746130
 20
8.078597
 30
0.0
 10
99.420357
 20
5.747753
 30
0.0
 10
100.034759
 20
3.650401
 30
0.0
 10
100.576866
 20
1.910728
 30
0.0
 10
101.034212
 20
0.652920
 30
0.0
 10
101.394326
 20
0.001164
 30
0.0
 10
101.676967
 20
-0.204481
 30
0.0
 10
102.229345
 20
-0.300958
 30
0.0
 10
103.413755
 20
-0.313394
 30
0.0
 10
105.592480
 20
-0.266877
 30
0.0
 10
109.127813
 20
-0.186537
 30
0.0
 10
114.382047
 20
-0.097480
 30
0.0
 10
121.717466
 20
-0.024823
 30
0.0
 10
131.496363
 20
0.006318
 30
0.0
 10
137.302102
 20
0.000947
 30
0.0
 10
142.379411
 20
-0.013817
 30
0.0
 10
146.717765
 20
-0.032628
 30
0.0
 10
150.306640
 20
-0.050091
 30
0.0
 10
153.135509
 20
-0.060807
 30
0.0
 10
155.193846
 20
-0.059484
 30
0.0
 10
156.471127
 20
-0.040619
 30
0.0
 10
156.956826
 20
0.001098
 30
0.0
 10
157.339302
 20
0.289541
 30
0.0
 10
157.725448
 20
0.678879
 30
0.0
 10
158.088433
 20
1.164148
 30
0.0
 10
158.401440
 20
1.740400
 30
0.0
 10
158.637642
 20
2.402676
 30
0.0
 10
158.770216
 20
3.146020
 30
0.0
 10
158.772333
 20
3.965480
 30
0.0
 10
158.617181
 20
4.856099
 30
0.0
 10
158.127012
 20
6.497902
 30
0.0
 10
157.351407
 20
8.835152
 30
0.0
 10
156.372512
 20
11.643008
 30
0.0
 10
155.272480
 20
14.696628
 30
0.0
 10
154.133457
 20
17.771171
 30
0.0
 10
153.037592
 20
20.641797
 30
0.0
 10
152.067035
 20
23.083663
 30
0.0
 10
151.303931
 20
24.871931
 30
0.0
 10
151.099268
 20
25.337871
 30
0.0
 10
150.824911
 20
25.988306
 30
0.0
 10
150.492833
 20
26.793574
 30
0.0
 10
150.115010
 20
27.724005
 30
0.0
 10
149.703416
 20
28.749932
 30
0.0
 10
149.270026
 20
29.841695
 30
0.0
 10
148.826817
 20
30.969622
 30
0.0
 10
148.385762
 20
32.104047
 30
0.0
 10
147.910055
 20
33.328470
 30
0.0
 10
147.367508
 20
34.714328
 30
0.0
 10
146.777056
 20
36.213875
 30
0.0
 10
146.157637
 20
37.779359
 30
0.0
 10
145.528186
 20
39.363036
 30
0.0
 10
144.907637
 20
40.917154
 30
0.0
 10
144.314925
 20
42.393963
 30
0.0
 10
143.768992
 20
43.745714
 30
0.0
 10
143.250861
 20
45.025456
 30
0.0
 10
142.737834
 20
46.295884
 30
0.0
 10
142.243262
 20
47.523725
 30
0.0
 10
141.780495
 20
48.675697
 30
0.0
 10
141.362877
 20
49.718532
 30
0.0
 10
141.003758
 20
50.618948
 30
0.0
 10
140.716484
 20
51.343674
 30
0.0
 10
140.514408
 20
51.859431
 30
0.0
 10
139.603270
 20
53.975683
 30
0.0
 10
138.344658
 20
56.593113
 30
0.0
 10
136.843034
 20
59.555687
 30
0.0
 10
135.202869
 20
62.707367
 30
0.0
 10
133.528625
 20
65.892119
 30
0.0
 10
131.924771
 20
68.953904
 30
0.0
 10
130.495775
 20
71.736686
 30
0.0
 10
129.346100
 20
74.084431
 30
0.0
 10
128.784617
 20
75.340136
 30
0.0
 10
128.369229
 20
76.414760
 30
0.0
 10
128.098206
 20
77.329906
 30
0.0
 10
127.969814
 20
78.107175
 30
0.0
 10
127.982329
 20
78.768175
 30
0.0
 10
128.134006
 20
79.334508
 30
0.0
 10
128.423122
 20
79.827776
 30
0.0
 10
128.847942
 20
80.269583
 30
0.0
 10
129.866072
 20
80.745936
 30
0.0
 10
131.724683
 20
81.229801
 30
0.0
 10
134.271617
 20
81.715364
 30
0.0
 10
137.354720
 20
82.196802
 30
0.0
 10
140.821838
 20
82.668301
 30
0.0
 10
144.520811
 20
83.124040
 30
0.0
 10
148.299484
 20
83.558200
 30
0.0
 10
152.005702
 20
83.964965
 30
0.0
 10
152.779409
 20
84.058604
 30
0.0
 10
153.573956
 20
84.173206
 30
0.0
 10
154.366753
 20
84.304307
 30
0.0
 10
155.135212
 20
84.447449
 30
0.0
 10
155.856741
 20
84.598171
 30
0.0
 10
156.508759
 20
84.752011
 30
0.0
 10
157.068670
 20
84.904509
 30
0.0
 10
157.513890
 20
85.051204
 30
0.0
 10
159.016980
 20
85.717909
 30
0.0
 10
160.523483
 20
86.582147
 30
0.0
 10
161.997773
 20
87.611995
 30
0.0
 10
163.404235
 20
88.775535
 30
0.0
 10
164.707247
 20
90.040844
 30
0.0
 10
165.871186
 20
91.376000
 30
0.0
 10
166.860436
 20
92.749082
 30
0.0
 10
167.639372
 20
94.128169
 30
0.0
 10
167.982725
 20
94.853673
 30
0.0
 10
168.241596
 20
95.460852
 30
0.0
 10
168.425600
 20
96.012479
 30
0.0
 10
168.544359
 20
96.571334
 30
0.0
 10
168.607480
 20
97.200188
 30
0.0
 10
168.624599
 20
97.961820
 30
0.0
 10
168.605311
 20
98.919006
 30
0.0
 10
168.559231
 20
100.134521
 30
0.0
 10
168.506076
 20
101.270282
 30
0.0
 10
168.443902
 20
102.197011
 30
0.0
 10
168.363542
 20
102.958506
 30
0.0
 10
168.255830
 20
103.598570
 30
0.0
 10
168.111595
 20
104.161000
 30
0.0
 10
167.921672
 20
104.689595
 30
0.0
 10
167.676893
 20
105.228155
 30
0.0
 10
167.368090
 20
105.820480
 30
0.0
 10
167.069825
 20
106.345646
 30
0.0
 10
166.747867
 20
106.865439
 30
0.0
 10
166.402403
 20
107.379677
 30
0.0
 10
166.033616
 20
107.888175
 30
0.0
 10
165.641697
 20
108.390746
 30
0.0
 10
165.226830
 20
108.887207
 30
0.0
 10
164.789201
 20
109.377372
 30
0.0
 10
164.328998
 20
109.861059
 30
0.0
 10
164.261680
 20
109.929385
 30
0.0
 10
164.193690
 20
109.997872
 30
0.0
 10
164.125068
 20
110.066497
 30
0.0
 10
164.055858
 20
110.135236
 30
0.0
 10
163.986104
 20
110.204070
 30
0.0
 10
163.915846
 20
110.272973
 30
0.0
 10
163.845128
 20
110.341921
 30
0.0
 10
163.773992
 20
110.410898
 30
0.0
 10
165.038883
 20
111.255657
 30
0.0
 10
166.280927
 20
112.116545
 30
0.0
 10
167.551528
 20
113.028659
 30
0.0
 10
168.902086
 20
114.027098
 30
0.0
 10
170.383999
 20
115.146958
 30
0.0
 10
172.048672
 20
116.423339
 30
0.0
 10
173.947502
 20
117.891335
 30
0.0
 10
176.131894
 20
119.586047
 30
0.0
 10
177.259522
 20
120.817860
 30
0.0
 10
177.935979
 20
122.144806
 30
0.0
 10
178.184743
 20
123.485503
 30
0.0
 10
178.029290
 20
124.758566
 30
0.0
 10
177.493099
 20
125.882612
 30
0.0
 10
176.599646
 20
126.776258
 30
0.0
 10
175.372413
 20
127.358114
 30
0.0
 10
173.834877
 20
127.546801
 30
0.0
 10
169.131371
 20
127.156035
 30
0.0
 10
165.123309
 20
126.945493
 30
0.0
 10
161.632937
 20
126.849227
 30
0.0
 10
158.482500
 20
126.801285
 30
0.0
 10
155.494238
 20
126.735718
 30
0.0
 10
152.490400
 20
126.586578
 30
0.0
 10
149.293228
 20
126.287916
 30
0.0
 10
145.724964
 20
125.773783
 30
0.0
 10
144.806114
 20
125.568292
 30
0.0
 10
144.081780
 20
125.356157
 30
0.0
 10
143.517940
 20
125.104639
 30
0.0
 10
143.080573
 20
124.781000
 30
0.0
 10
142.735657
 20
124.352500
 30
0.0
 10
142.449166
 20
123.786397
 30
0.0
 10
142.187083
 20
123.049959
 30
0.0
 10
141.915380
 20
122.110439
 30
0.0
 10
141.893684
 20
122.031117
 30
0.0
 10
141.871988
 20
121.951792
 30
0.0
 10
141.850292
 20
121.872470
 30
0.0
 10
141.828596
 20
121.793148
 30
0.0
 10
141.806900
 20
121.713823
 30
0.0
 10
141.785205
 20
121.634501
 30
0.0
 10
141.763509
 20
121.555177
 30
0.0
 10
141.741813
 20
121.475855
 30
0.0
 10
140.341469
 20
121.958137
 30
0.0
 10
138.938034
 20
122.431723
 30
0.0
 10
137.532332
 20
122.897948
 30
0.0
 10
136.125180
 20
123.358153
 30
0.0
 10
134.717406
 20
123.813678
 30
0.0
 10
133.309830
 20
124.265859
 30
0.0
 10
131.903279
 20
124.716037
 30
0.0
 10
130.498572
 20
125.165551
 30
0.0
 10
129.853052
 20
125.357834
 30
0.0
 10
129.201328
 20
125.527890
 30
0.0
 10
128.545227
 20
125.682349
 30
0.0
 10
127.886584
 20
125.827846
 30
0.0
 10
127.227232
 20
125.971006
 30
0.0
 10
126.568999
 20
126.118467
 30
0.0
 10
125.913723
 20
126.276857
 30
0.0
 10
125.263232
 20
126.452810
 30
0.0
 10
124.604380
 20
126.649475
 30
0.0
 10
123.948703
 20
126.856464
 30
0.0
 10
123.295515
 20
127.071527
 30
0.0
 10
122.644132
 20
127.292412
 30
0.0
 10
121.993863
 20
127.516869
 30
0.0
 10
121.344023
 20
127.742643
 30
0.0
 10
120.693923
 20
127.967483
 30
0.0
 10
120.042879
 20
128.189138
 30
0.0
 10
119.544097
 20
128.355127
 30
0.0
 10
119.044500
 20
128.518886
 30
0.0
 10
118.544670
 20
128.682014
 30
0.0
 10
118.045182
 20
128.846106
 30
0.0
 10
117.546617
 20
129.012762
 30
0.0
 10
117.049555
 20
129.183580
 30
0.0
 10
116.554570
 20
129.360157
 30
0.0
 10
116.062244
 20
129.544096
 30
0.0
 10
115.845290
 20
129.626386
 30
0.0
 10
115.622342
 20
129.710386
 30
0.0
 10
115.397481
 20
129.796275
 30
0.0
 10
115.174791
 20
129.884231
 30
0.0
 10
114.958357
 20
129.974433
 30
0.0
 10
114.752260
 20
130.067063
 30
0.0
 10
114.560582
 20
130.162303
 30
0.0
 10
114.387410
 20
130.260331
 30
0.0
 10
114.229903
 20
130.362463
 30
0.0
 10
114.082123
 20
130.470513
 30
0.0
 10
113.943529
 20
130.585419
 30
0.0
 10
113.813576
 20
130.708112
 30
0.0
 10
113.691728
 20
130.839525
 30
0.0
 10
113.577441
 20
130.980590
 30
0.0
 10
113.470174
 20
131.132239
 30
0.0
 10
113.369383
 20
131.295410
 30
0.0
 10
113.274541
 20
131.675661
 30
0.0
 10
113.185096
 20
132.404144
 30
0.0
 10
113.100511
 20
133.370180
 30
0.0
 10
113.020250
 20
134.463089
 30
0.0
 10
112.943774
 20
135.572188
 30
0.0
 10
112.870548
 20
136.586801
 30
0.0
 10
112.800034
 20
137.396244
 30
0.0
 10
112.731698
 20
137.889840
 30
0.0
 10
112.664999
 20
138.198746
 30
0.0
 10
112.599387
 20
138.528528
 30
0.0
 10
112.534318
 20
138.880114
 30
0.0
 10
112.469263
 20
139.254436
 30
0.0
 10
112.403680
 20
139.652423
 30
0.0
 10
112.337032
 20
140.075002
 30
0.0
 10
112.268783
 20
140.523106
 30
0.0
 10
112.198396
 20
140.997660
 30
0.0
 10
112.134583
 20
141.423615
 30
0.0
 10
112.068996
 20
141.843821
 30
0.0
 10
112.001569
 20
142.258396
 30
0.0
 10
111.932235
 20
142.667448
 30
0.0
 10
111.860938
 20
143.071091
 30
0.0
 10
111.787609
 20
143.469437
 30
0.0
 10
111.712187
 20
143.862600
 30
0.0
 10
111.634605
 20
144.250691
 30
0.0
 10
111.554826
 20
144.633819
 30
0.0
 10
111.472789
 20
145.012096
 30
0.0
 10
111.388445
 20
145.385640
 30
0.0
 10
111.301738
 20
145.754567
 30
0.0
 10
111.212619
 20
146.118992
 30
0.0
 10
111.121033
 20
146.479034
 30
0.0
 10
111.026932
 20
146.834807
 30
0.0
 10
110.930256
 20
147.186429
 30
0.0
 10
110.830963
 20
147.534009
 30
0.0
 10
110.728982
 20
147.877653
 30
0.0
 10
110.624257
 20
148.217476
 30
0.0
 10
110.516728
 20
148.553591
 30
0.0
 10
110.406338
 20
148.886115
 30
0.0
 10
110.293033
 20
149.215159
 30
0.0
 10
110.176754
 20
149.540839
 30
0.0
 10
110.057440
 20
149.863268
 30
0.0
 10
109.935033
 20
150.182553
 30
0.0
 10
109.809491
 20
150.498801
 30
0.0
 10
109.680755
 20
150.812129
 30
0.0
 10
109.548773
 20
151.122654
 30
0.0
 10
109.413484
 20
151.430495
 30
0.0
 10
109.274834
 20
151.735769
 30
0.0
 10
109.132766
 20
152.038594
 30
0.0
 10
108.987222
 20
152.339086
 30
0.0
 10
108.942293
 20
152.429845
 30
0.0
 10
108.896949
 20
152.520379
 30
0.0
 10
108.851221
 20
152.610698
 30
0.0
 10
108.805130
 20
152.700814
 30
0.0
 10
108.758712
 20
152.790736
 30
0.0
 10
108.711986
 20
152.880477
 30
0.0
 10
108.664986
 20
152.970047
 30
0.0
 10
108.617736
 20
153.059456
 30
0.0
 10
110.691382
 20
157.408932
 30
0.0
 10
112.765030
 20
161.758408
 30
0.0
 10
114.838675
 20
166.107884
 30
0.0
 10
116.912321
 20
170.457360
 30
0.0
 10
118.985966
 20
174.806836
 30
0.0
 10
121.059614
 20
179.156312
 30
0.0
 10
123.133260
 20
183.505789
 30
0.0
 10
125.206905
 20
187.855265
 30
0.0
 10
121.568884
 20
186.201619
 30
0.0
 10
117.930863
 20
184.547973
 30
0.0
 10
114.292842
 20
182.894327
 30
0.0
 10
110.654822
 20
181.240681
 30
0.0
 10
107.016801
 20
179.587036
 30
0.0
 10
103.378780
 20
177.933390
 30
0.0
 10
99.740759
 20
176.279744
 30
0.0
 10
96.102738
 20
174.626098
 30
0.0
 10
95.441280
 20
177.933390
 30
0.0
 10
94.779822
 20
181.240681
 30
0.0
 10
94.118363
 20
184.547973
 30
0.0
 10
93.456905
 20
187.855265
 30
0.0
 10
92.795447
 20
191.162556
 30
0.0
 10
92.133988
 20
194.469848
 30
0.0
 10
91.472530
 20
197.777140
 30
0.0
  0
ENDSEC
  0
SECTION
  2
OBJECTS
  0
DICTIONARY
  5
C
330
0
100
AcDbDictionary
  3
ACAD_GROUP
350
D
  3
ACAD_MLINESTYLE
350
17
  0
DICTIONARY
  5
D
330
C
100
AcDbDictionary
  0
DICTIONARY
  5
1A
330
C
100
AcDbDictionary
  0
DICTIONARY
  5
17
330
C
100
AcDbDictionary
  3
STANDARD
350
18
  0
DICTIONARY
  5
19
330
C
100
AcDbDictionary
  0
ENDSEC
  0
EOF
