<?xml version="1.0" encoding="UTF-8" standalone="no"?>
<!-- Created with Inkscape (http://www.inkscape.org/) -->

<svg
   xmlns:dc="http://purl.org/dc/elements/1.1/"
   xmlns:cc="http://creativecommons.org/ns#"
   xmlns:rdf="http://www.w3.org/1999/02/22-rdf-syntax-ns#"
   xmlns:svg="http://www.w3.org/2000/svg"
   xmlns="http://www.w3.org/2000/svg"
   xmlns:sodipodi="http://sodipodi.sourceforge.net/DTD/sodipodi-0.dtd"
   xmlns:inkscape="http://www.inkscape.org/namespaces/inkscape"
   version="1.1"
   id="svg80"
   width="637.32123"
   height="638.00006"
   viewBox="0 0 637.32122 638.00006"
   sodipodi:docname="meeple_leia.svg"
   inkscape:version="0.92.4 5da689c313, 2019-01-14">
  <metadata
     id="metadata86">
    <rdf:RDF>
      <cc:Work
         rdf:about="">
        <dc:format>image/svg+xml</dc:format>
        <dc:type
           rdf:resource="http://purl.org/dc/dcmitype/StillImage" />
        <dc:title />
      </cc:Work>
    </rdf:RDF>
  </metadata>
  <defs
     id="defs84" />
  <sodipodi:namedview
     pagecolor="#ffffff"
     bordercolor="#666666"
     borderopacity="1"
     objecttolerance="10"
     gridtolerance="10"
     guidetolerance="10"
     inkscape:pageopacity="0"
     inkscape:pageshadow="2"
     inkscape:window-width="1920"
     inkscape:window-height="1012"
     id="namedview82"
     showgrid="false"
     inkscape:zoom="0.5771484"
     inkscape:cx="521.29844"
     inkscape:cy="368.83882"
     inkscape:window-x="1280"
     inkscape:window-y="0"
     inkscape:window-maximized="1"
     inkscape:current-layer="svg80"
     showguides="true"
     inkscape:guide-bbox="true">
    <inkscape:grid
       type="xygrid"
       id="grid60"
       originx="663.22299"
       originy="-59.999997" />
  </sodipodi:namedview>
  <path
     style="fill:#000000;stroke-width:1.33333337"
     d="m 35.743642,636.95248 c -3.76063,-2.39123 -4.29973,-7.8408 -1.76314,-17.82311 3.27394,-12.88401 20.4428,-59.41619 28.2123,-76.46268 1.3369,-2.93333 5.9903,-14.63333 10.3407,-26 4.3505,-11.36667 12.1754,-31.16667 17.3887,-44 5.2132,-12.83334 10.756998,-26.63334 12.319498,-30.66667 6.5845,-16.99753 31.3821,-60.7297 41.8195,-83.33334 6.476,-14.02484 6.9136,-15.6658 5.3051,-19.89648 -2.9025,-7.6339 -42.2672,-13.57776 -87.123298,-18.09332 -15.4918,-1.55952 -23.98313,-4.48812 -35.00961,-12.07453 -9.76614,-6.71928 -19.1411095,-17.2214 -23.5295795,-26.35855 -3.89406,-8.10776 -4.0234,-8.95707 -3.45713,-22.70097 0.51962,-12.61151 1.03963,-15.10738 4.45509,-21.3827 1.98551,-3.64803 4.30478,-7.07881 7.1370995,-10.44239 2.83232,-3.36357 6.17768,-6.65993 10.21535,-10.03911 4.03767,-3.37919 9.190159,-7.6286 14.36921,-10.53605 31.136683,-17.47972 65.339988,-29.02682 99.062588,-40.76647 12.11433,-4.21729 24.57593,-7.38149 36.98775,-10.62019 7.35681,-1.91967 15.10147,-2.50688 22.20417,-5.21971 4.61051,-1.76095 9.26581,-3.8582 13.00206,-7.08283 0.68197,-0.58858 1.2715,-1.33051 1.6259,-2.15871 2.04432,-4.77734 2.12197,-13.88725 2.53207,-15.38208 0.41,-1.49484 -0.41687,-9.49137 0.0111,-11.88883 0.4279,-2.39746 0.8855,-5.32171 1.4142,-8.92371 0.5971,-4.06838 1.2737,-7.95535 2.041,-11.68435 0.7672,-3.72901 1.625,-7.30006 2.5844,-10.73663 0.9595,-3.43658 2.0206,-6.73867 3.1944,-9.92974 1.1738,-3.19108 2.4603,-6.27114 3.8706,-9.26366 1.4103,-2.99252 2.9443,-5.89749 4.6132,-8.7384 1.6689,-2.84091 3.4726,-5.61774 5.4222,-8.35398 1.9496,-2.73623 4.0451,-5.43187 6.2975,-8.11037 2.2525,-2.67851 4.6619,-5.33988 7.2393,-8.0076 3.6298,-3.75695 6.9396,-6.97951 10.0896,-9.77798 3.1499,-2.79847 6.14,-5.17284 9.1303,-7.23339 2.9902,-2.06056 5.9806,-3.80729 9.1313,-5.3505 3.1506,-1.54321 6.4614,-2.88288 10.0925,-4.1293 5.1268,-1.75987 8.2438,-2.70589 12.482,-3.21198 2.119,-0.25304 4.5184,-0.39608 7.5893,-0.47587 C 310.1119,0.0165 313.8545,0 318.6602,0 c 5.6389,0 10.1523,0.059 14.0143,0.27545 3.862,0.21645 7.0726,0.59038 10.1063,1.22026 3.0337,0.62989 5.8904,1.51573 9.0444,2.756 3.1539,1.24028 6.6052,2.83499 10.8282,4.88262 3.2602,1.58083 6.3397,3.53642 9.9978,6.47721 3.6581,2.9408 7.8948,6.86681 13.4694,12.38847 2.9113,2.88367 5.6083,5.7108 8.1088,8.51802 2.5006,2.80722 4.8049,5.59452 6.9308,8.39851 2.1259,2.804 4.0734,5.62469 5.8607,8.49869 1.7872,2.874 3.4141,5.80131 4.8987,8.81854 1.4846,3.01723 2.8269,6.12438 4.045,9.35807 1.218,3.23369 2.3117,6.59391 3.2991,10.11729 0.9875,3.52338 1.8686,7.2099 2.6615,11.09618 0.793,3.88629 1.4976,7.97233 2.132,12.29475 0.722,4.91934 1.3358,8.73405 2.0153,11.74535 0.6796,3.0113 1.4249,23.2192 2.4098,24.92494 0.985,1.70573 2.2097,2.9093 3.848,3.91195 1.6384,1.00265 4.18721,1.885 6.3299,2.7064 4.94669,1.89631 10.02424,3.43199 15.0453,5.12157 6.56879,2.21038 13.0708,4.63941 19.72953,6.56194 6.52585,1.88416 13.31938,2.79265 19.78796,4.86492 37.91466,12.14631 76.59737,24.08827 110.96291,44.18962 6.25136,3.65659 12.149,8.81216 16.9004,13.65384 4.7514,4.84168 8.6005,9.95315 11.4866,15.27261 3.4658,6.38798 3.9798,8.84206 4.5009,21.48964 0.5671,13.76357 0.4418,14.58161 -3.4768,22.70097 -6.6712,13.82248 -23.2561,28.69091 -38.2685,34.30777 -3.8334,1.43428 -13.202,3.28127 -20.8191,4.10442 -36.4777,3.94207 -82.0097,9.22307 -87.5245,13.96669 -4.9597,4.26611 -4.5194,9.7363 1.8817,23.37734 9.8287,20.94577 35.1311,65.72071 42.2122,84 1.5625,4.03333 7.0979,17.83333 12.3009,30.66667 5.203,12.83333 13.0553,32.63333 17.4494,44 4.3942,11.36667 9.3569,23.66667 11.0282,27.33333 6.3697,13.97439 24.4157,63.36364 27.6416,75.65097 2.4464,9.31826 -2.52961,15.96698 -6.27591,18.34906 -0.8708,0.55369 -54.25156,5.11207 -80.63549,-0.0204 -15.11471,-2.94027 -27.4324,-17.16806 -42.82982,-17.30617 -16.13443,-0.14472 -29.30579,14.53741 -45.19797,17.32657 -21.16078,3.71382 -43.34036,2.84043 -64.44148,-1.19864 -14.3752,-2.75163 -26.46314,-15.39017 -41.09919,-15.45374 -17.15459,-0.0745 -31.40925,14.85206 -48.32698,17.69387 -18.89478,3.17392 -38.77825,3.17035 -57.46907,-1.04149 -13.65985,-3.07815 -24.27038,-16.93717 -38.26734,-17.32657 -15.96557,-0.44417 -28.98118,14.37007 -44.68075,17.30611 -30.16107,5.64055 -91.18112,0.57416 -92.05191,0.0205 z"
     id="path195-3"
     inkscape:connector-curvature="0"
     sodipodi:nodetypes="csccccccsssssssaaaaaasscssssssscsssssssssscssssssssscsssaaaaasccccccccsccscaaaaaaaaacc" />
  <path
     style="fill:#000000;stroke-width:1.44623578"
     d="m 380.63059,99.60168 c 1.5976,17.814 1.4971,19.78847 -1.6114,31.64776 4.3389,8.87237 4.9313,4.74036 38.2006,-4.09108 0,-1.64638 9.0644,-3.03195 10.6134,-4.84236 6.1905,-7.23487 9.7974,-9.50094 9.7974,-19.9576 0,-12.270496 -0.2695,-21.158873 -1.6759,-31.554157 -1.3447,-9.940155 -1.8638,-16.402517 -2.2227,-28.353797 0.9527,-7.508405 -3.445,-15.501207 -11.1213,-20.212934 -4.9955,-3.066188 -8.7559,-7.980361 -26.9678,-5.933864 -4.8681,0.547034 -9.28667,3.758638 -13.41727,-4.626597 -31.24807,7.472 -4.30633,58.602814 -1.59503,87.924629 z"
     id="path191-3"
     inkscape:connector-curvature="0"
     sodipodi:nodetypes="ccccssccscc" />
  <path
     style="fill:#000000;stroke-width:1.44623578"
     d="m 252.06504,103.90302 c -1.59765,17.81399 -1.49712,19.78846 1.61142,31.64776 -4.33898,8.87236 -4.93134,4.74035 -38.20062,-4.09108 0,-1.64639 -9.06438,-3.03195 -10.61347,-4.84237 -6.19049,-7.23487 -9.79735,-9.50093 -9.79735,-19.95759 0,-12.270503 0.2695,-21.158878 1.67585,-31.554159 1.34477,-9.940155 1.8638,-16.402516 2.22271,-28.353802 -0.9527,-7.508405 3.44502,-15.501198 11.12138,-20.212933 4.99546,-3.066188 8.75583,-7.980361 26.9678,-5.933856 4.86809,0.547035 7.75516,3.452337 11.88576,-4.93289 31.24806,7.472 5.83782,58.909099 3.12652,88.23092 z"
     id="path191-3-6"
     inkscape:connector-curvature="0"
     sodipodi:nodetypes="ccccssccscc" />
  <path
     style="fill:#000000;stroke-width:1.51539028"
     d="m 210.10447,27.626068 c 4.99546,-3.36643 8.75583,-8.7618 26.9678,-6.5149 4.86809,0.60059 7.75516,3.79039 11.88576,-5.41593 3.60871,-8.04312 7.35737,-8.67236 14.87055,-13.65932 14.13475,-9.38211 25.97081,-13.0654 46.8055,-14.5655 10.00159,-0.72012 25.86822,3.69282 30.27511,3.19647 24.1129,-0.52677 54.8956,35.85066 60.8045,33.9857 0.997,-0.78476 -1.2502,0.12669 0,0 1.2502,-0.1267 -3.4198,0.4795 0,0 8.5259,-1.19548 4.0893,13.73254 11.9165,22.22403 5.5673,6.03973 -1.2547,6.10712 -1.2547,13.667642 C 305.88361,126.58642 256.03366,94.840383 210.10447,27.626068 Z"
     id="path191-7"
     inkscape:connector-curvature="0"
     sodipodi:nodetypes="cscsscccsscc" />
</svg>
