  0
SECTION
  2
HEADER
  9
$ACADVER
  1
AC1014
  9
$HANDSEED
  5
FFFF
  9
$MEASUREMENT
 70
     1
  0
ENDSEC
  0
SECTION
  2
TABLES
  0
TABLE
  2
VPORT
  5
8
330
0
100
AcDbSymbolTable
 70
     4
  0
VPORT
  5
2E
330
8
100
AcDbSymbolTableRecord
100
AcDbViewportTableRecord
  2
*ACTIVE
 70
     0
 10
0.0
 20
0.0
 11
1.0
 21
1.0
 12
210.0
 22
148.5
 13
0.0
 23
0.0
 14
10.0
 24
10.0
 15
10.0
 25
10.0
 16
0.0
 26
0.0
 36
1.0
 17
0.0
 27
0.0
 37
0.0
 40
341.0
 41
1.24
 42
50.0
 43
0.0
 44
0.0
 50
0.0
 51
0.0
 71
     0
 72
   100
 73
     1
 74
     3
 75
     0
 76
     0
 77
     0
 78
     0
  0
ENDTAB
  0
TABLE
  2
LTYPE
  5
5
330
0
100
AcDbSymbolTable
 70
     1
  0
LTYPE
  5
14
330
5
100
AcDbSymbolTableRecord
100
AcDbLinetypeTableRecord
  2
BYBLOCK
 70
     0
  3

 72
    65
 73
     0
 40
0.0
  0
LTYPE
  5
15
330
5
100
AcDbSymbolTableRecord
100
AcDbLinetypeTableRecord
  2
BYLAYER
 70
     0
  3

 72
    65
 73
     0
 40
0.0
  0
LTYPE
  5
16
330
5
100
AcDbSymbolTableRecord
100
AcDbLinetypeTableRecord
  2
CONTINUOUS
 70
     0
  3
Solid line
 72
    65
 73
     0
 40
0.0
  0
ENDTAB
  0
TABLE
  2
LAYER
  5
2
100
AcDbSymbolTable
 70
1
  0
LAYER
  5
50
100
AcDbSymbolTableRecord
100
AcDbLayerTableRecord
  2
0
 70
0
  6
CONTINUOUS
  0
ENDTAB
  0
TABLE
  2
STYLE
  5
3
330
0
100
AcDbSymbolTable
 70
     1
  0
STYLE
  5
11
330
3
100
AcDbSymbolTableRecord
100
AcDbTextStyleTableRecord
  2
STANDARD
 70
     0
 40
0.0
 41
1.0
 50
0.0
 71
     0
 42
2.5
  3
txt
  4

  0
ENDTAB
  0
TABLE
  2
VIEW
  5
6
330
0
100
AcDbSymbolTable
 70
     0
  0
ENDTAB
  0
TABLE
  2
UCS
  5
7
330
0
100
AcDbSymbolTable
 70
     0
  0
ENDTAB
  0
TABLE
  2
APPID
  5
9
330
0
100
AcDbSymbolTable
 70
     2
  0
APPID
  5
12
330
9
100
AcDbSymbolTableRecord
100
AcDbRegAppTableRecord
  2
ACAD
 70
     0
  0
ENDTAB
  0
TABLE
  2
DIMSTYLE
  5
A
330
0
100
AcDbSymbolTable
 70
     1
  0
DIMSTYLE
105
27
330
A
100
AcDbSymbolTableRecord
100
AcDbDimStyleTableRecord
  2
ISO-25
 70
     0
  3

  4

  5

  6

  7

 40
1.0
 41
2.5
 42
0.625
 43
3.75
 44
1.25
 45
0.0
 46
0.0
 47
0.0
 48
0.0
140
2.5
141
2.5
142
0.0
143
0.03937007874016
144
1.0
145
0.0
146
1.0
147
0.625
 71
     0
 72
     0
 73
     0
 74
     0
 75
     0
 76
     0
 77
     1
 78
     8
170
     0
171
     3
172
     1
173
     0
174
     0
175
     0
176
     0
177
     0
178
     0
270
     2
271
     2
272
     2
273
     2
274
     3
340
11
275
     0
280
     0
281
     0
282
     0
283
     0
284
     8
285
     0
286
     0
287
     3
288
     0
  0
ENDTAB
  0
TABLE
  2
BLOCK_RECORD
  5
1
330
0
100
AcDbSymbolTable
 70
     1
  0
BLOCK_RECORD
  5
1F
330
1
100
AcDbSymbolTableRecord
100
AcDbBlockTableRecord
  2
*MODEL_SPACE
  0
BLOCK_RECORD
  5
1B
330
1
100
AcDbSymbolTableRecord
100
AcDbBlockTableRecord
  2
*PAPER_SPACE
  0
ENDTAB
  0
ENDSEC
  0
SECTION
  2
BLOCKS
  0
BLOCK
  5
20
330
1F
100
AcDbEntity
  8
0
100
AcDbBlockBegin
  2
*MODEL_SPACE
 70
     0
 10
0.0
 20
0.0
 30
0.0
  3
*MODEL_SPACE
  1

  0
ENDBLK
  5
21
330
1F
100
AcDbEntity
  8
0
100
AcDbBlockEnd
  0
BLOCK
  5
1C
330
1B
100
AcDbEntity
 67
     1
  8
0
100
AcDbBlockBegin
  2
*PAPER_SPACE
  1

  0
ENDBLK
  5
1D
330
1B
100
AcDbEntity
 67
     1
  8
0
100
AcDbBlockEnd
  0
ENDSEC
  0
SECTION
  2
ENTITIES
  0
LWPOLYLINE
  5
100
100
AcDbEntity
  8
0
 62
7
100
AcDbPolyline
 90
962
 70
1
 10
83.676030
 20
170.022713
 30
0.0
 10
83.132022
 20
170.022494
 30
0.0
 10
82.588378
 20
170.013894
 30
0.0
 10
82.045286
 20
169.996353
 30
0.0
 10
81.502925
 20
169.969314
 30
0.0
 10
80.961484
 20
169.932220
 30
0.0
 10
80.421147
 20
169.884513
 30
0.0
 10
79.882095
 20
169.825635
 30
0.0
 10
79.344512
 20
169.755029
 30
0.0
 10
78.965851
 20
169.689605
 30
0.0
 10
78.591220
 20
169.604726
 30
0.0
 10
78.219872
 20
169.504287
 30
0.0
 10
77.851050
 20
169.392180
 30
0.0
 10
77.484007
 20
169.272299
 30
0.0
 10
77.117990
 20
169.148539
 30
0.0
 10
76.752252
 20
169.024792
 30
0.0
 10
76.386034
 20
168.904951
 30
0.0
 10
75.990977
 20
168.779764
 30
0.0
 10
75.595779
 20
168.654256
 30
0.0
 10
75.201076
 20
168.526964
 30
0.0
 10
74.807498
 20
168.396423
 30
0.0
 10
74.415671
 20
168.261171
 30
0.0
 10
74.026231
 20
168.119745
 30
0.0
 10
73.639807
 20
167.970679
 30
0.0
 10
73.257026
 20
167.812512
 30
0.0
 10
72.902900
 20
167.654910
 30
0.0
 10
72.552769
 20
167.488651
 30
0.0
 10
72.205940
 20
167.315304
 30
0.0
 10
71.861717
 20
167.136436
 30
0.0
 10
71.519404
 20
166.953613
 30
0.0
 10
71.178309
 20
166.768404
 30
0.0
 10
70.837735
 20
166.582375
 30
0.0
 10
70.496988
 20
166.397094
 30
0.0
 10
70.153760
 20
166.193288
 30
0.0
 10
69.819237
 20
165.967419
 30
0.0
 10
69.488820
 20
165.731597
 30
0.0
 10
69.157916
 20
165.497937
 30
0.0
 10
68.821924
 20
165.278551
 30
0.0
 10
68.476249
 20
165.085551
 30
0.0
 10
68.116294
 20
164.931051
 30
0.0
 10
67.737466
 20
164.827164
 30
0.0
 10
67.195372
 20
164.795893
 30
0.0
 10
66.646695
 20
164.879623
 30
0.0
 10
66.094718
 20
165.036182
 30
0.0
 10
65.542724
 20
165.223399
 30
0.0
 10
64.993999
 20
165.399100
 30
0.0
 10
64.451825
 20
165.521115
 30
0.0
 10
63.919486
 20
165.547272
 30
0.0
 10
63.400265
 20
165.435397
 30
0.0
 10
62.385980
 20
164.947547
 30
0.0
 10
61.451712
 20
164.303836
 30
0.0
 10
60.598140
 20
163.528971
 30
0.0
 10
59.825940
 20
162.647659
 30
0.0
 10
59.135793
 20
161.684609
 30
0.0
 10
58.528376
 20
160.664526
 30
0.0
 10
58.004369
 20
159.612120
 30
0.0
 10
57.564446
 20
158.552096
 30
0.0
 10
57.317957
 20
157.671023
 30
0.0
 10
57.207994
 20
156.765302
 30
0.0
 10
57.199236
 20
155.840823
 30
0.0
 10
57.256331
 20
154.903477
 30
0.0
 10
57.343963
 20
153.959155
 30
0.0
 10
57.426810
 20
153.013750
 30
0.0
 10
57.469535
 20
152.073150
 30
0.0
 10
57.436811
 20
151.143246
 30
0.0
 10
57.356809
 20
150.455835
 30
0.0
 10
57.246814
 20
149.772080
 30
0.0
 10
57.117440
 20
149.090714
 30
0.0
 10
56.979312
 20
148.410470
 30
0.0
 10
56.843044
 20
147.730080
 30
0.0
 10
56.719253
 20
147.048277
 30
0.0
 10
56.618563
 20
146.363794
 30
0.0
 10
56.551595
 20
145.675363
 30
0.0
 10
56.480631
 20
144.440279
 30
0.0
 10
56.435284
 20
143.202512
 30
0.0
 10
56.417451
 20
141.963312
 30
0.0
 10
56.429040
 20
140.723935
 30
0.0
 10
56.471926
 20
139.485627
 30
0.0
 10
56.548020
 20
138.249644
 30
0.0
 10
56.659211
 20
137.017239
 30
0.0
 10
56.807399
 20
135.789660
 30
0.0
 10
56.930121
 20
135.271526
 30
0.0
 10
57.131363
 20
134.751924
 30
0.0
 10
57.372446
 20
134.233359
 30
0.0
 10
57.614696
 20
133.718343
 30
0.0
 10
57.819433
 20
133.209382
 30
0.0
 10
57.947983
 20
132.708984
 30
0.0
 10
57.961662
 20
132.219658
 30
0.0
 10
57.821801
 20
131.743913
 30
0.0
 10
57.349477
 20
131.062381
 30
0.0
 10
56.715083
 20
130.543078
 30
0.0
 10
55.954390
 20
130.152799
 30
0.0
 10
55.103173
 20
129.858339
 30
0.0
 10
54.197202
 20
129.626493
 30
0.0
 10
53.272248
 20
129.424055
 30
0.0
 10
52.364090
 20
129.217817
 30
0.0
 10
51.508491
 20
128.974572
 30
0.0
 10
50.788046
 20
128.753219
 30
0.0
 10
50.059296
 20
128.561563
 30
0.0
 10
49.324413
 20
128.391722
 30
0.0
 10
48.585565
 20
128.235811
 30
0.0
 10
47.844922
 20
128.085946
 30
0.0
 10
47.104655
 20
127.934241
 30
0.0
 10
46.366927
 20
127.772814
 30
0.0
 10
45.633915
 20
127.593778
 30
0.0
 10
44.402013
 20
127.272770
 30
0.0
 10
43.170094
 20
126.950095
 30
0.0
 10
41.939398
 20
126.622265
 30
0.0
 10
40.711157
 20
126.285792
 30
0.0
 10
39.486607
 20
125.937180
 30
0.0
 10
38.266979
 20
125.572938
 30
0.0
 10
37.053509
 20
125.189581
 30
0.0
 10
35.847433
 20
124.783615
 30
0.0
 10
35.718239
 20
124.738654
 30
0.0
 10
35.588967
 20
124.693688
 30
0.0
 10
35.459638
 20
124.648722
 30
0.0
 10
35.330273
 20
124.603759
 30
0.0
 10
35.200892
 20
124.558798
 30
0.0
 10
35.071518
 20
124.513840
 30
0.0
 10
34.942169
 20
124.468888
 30
0.0
 10
34.812870
 20
124.423945
 30
0.0
 10
35.509533
 20
128.543077
 30
0.0
 10
36.197125
 20
132.646770
 30
0.0
 10
36.871008
 20
136.698149
 30
0.0
 10
37.526545
 20
140.660327
 30
0.0
 10
38.159100
 20
144.496428
 30
0.0
 10
38.764038
 20
148.169570
 30
0.0
 10
39.336721
 20
151.642871
 30
0.0
 10
39.872510
 20
154.879452
 30
0.0
 10
39.524210
 20
155.198606
 30
0.0
 10
38.606958
 20
155.804327
 30
0.0
 10
37.279609
 20
156.622009
 30
0.0
 10
35.701023
 20
157.577042
 30
0.0
 10
34.030055
 20
158.594821
 30
0.0
 10
32.425558
 20
159.600736
 30
0.0
 10
31.046388
 20
160.520180
 30
0.0
 10
30.051404
 20
161.278545
 30
0.0
 10
28.864250
 20
161.889410
 30
0.0
 10
27.570753
 20
161.893331
 30
0.0
 10
26.243079
 20
161.446469
 30
0.0
 10
24.953392
 20
160.704981
 30
0.0
 10
23.773856
 20
159.825027
 30
0.0
 10
22.776637
 20
158.962767
 30
0.0
 10
22.033900
 20
158.274358
 30
0.0
 10
21.617810
 20
157.915960
 30
0.0
 10
20.718898
 20
153.131302
 30
0.0
 10
19.780425
 20
148.228616
 30
0.0
 10
18.803873
 20
143.201518
 30
0.0
 10
17.790723
 20
138.043624
 30
0.0
 10
16.742456
 20
132.748549
 30
0.0
 10
15.660555
 20
127.309909
 30
0.0
 10
14.546500
 20
121.721322
 30
0.0
 10
13.401774
 20
115.976400
 30
0.0
 10
12.925999
 20
115.739228
 30
0.0
 10
12.451546
 20
115.499462
 30
0.0
 10
11.978496
 20
115.256953
 30
0.0
 10
11.506931
 20
115.011539
 30
0.0
 10
11.036933
 20
114.763063
 30
0.0
 10
10.568581
 20
114.511373
 30
0.0
 10
10.101958
 20
114.256307
 30
0.0
 10
9.637146
 20
113.997709
 30
0.0
 10
9.124180
 20
113.693745
 30
0.0
 10
8.615247
 20
113.363370
 30
0.0
 10
8.113724
 20
113.013437
 30
0.0
 10
7.622982
 20
112.650802
 30
0.0
 10
7.146396
 20
112.282314
 30
0.0
 10
6.687340
 20
111.914829
 30
0.0
 10
6.249187
 20
111.555202
 30
0.0
 10
5.835311
 20
111.210283
 30
0.0
 10
5.443198
 20
110.875956
 30
0.0
 10
5.067710
 20
110.543219
 30
0.0
 10
4.708290
 20
110.211603
 30
0.0
 10
4.364379
 20
109.880649
 30
0.0
 10
4.035416
 20
109.549888
 30
0.0
 10
3.720844
 20
109.218855
 30
0.0
 10
3.420103
 20
108.887086
 30
0.0
 10
3.132633
 20
108.554113
 30
0.0
 10
2.857866
 20
108.219460
 30
0.0
 10
2.595241
 20
107.882659
 30
0.0
 10
2.344210
 20
107.543246
 30
0.0
 10
2.104227
 20
107.200766
 30
0.0
 10
1.874747
 20
106.854758
 30
0.0
 10
1.655223
 20
106.504761
 30
0.0
 10
1.445110
 20
106.150320
 30
0.0
 10
1.243860
 20
105.790974
 30
0.0
 10
0.939396
 20
105.208036
 30
0.0
 10
0.697778
 20
104.675763
 30
0.0
 10
0.510027
 20
104.151070
 30
0.0
 10
0.367168
 20
103.590876
 30
0.0
 10
0.260224
 20
102.952098
 30
0.0
 10
0.180220
 20
102.191654
 30
0.0
 10
0.118177
 20
101.266461
 30
0.0
 10
0.065120
 20
100.133439
 30
0.0
 10
0.019147
 20
98.919292
 30
0.0
 10
-0.000057
 20
97.962503
 30
0.0
 10
0.017024
 20
97.200585
 30
0.0
 10
0.079908
 20
96.571052
 30
0.0
 10
0.198109
 20
96.011421
 30
0.0
 10
0.381147
 20
95.459206
 30
0.0
 10
0.638535
 20
94.851924
 30
0.0
 10
0.979793
 20
94.127087
 30
0.0
 10
1.474678
 20
93.206255
 30
0.0
 10
2.078997
 20
92.267548
 30
0.0
 10
2.778506
 20
91.326920
 30
0.0
 10
3.558957
 20
90.400323
 30
0.0
 10
4.406103
 20
89.503713
 30
0.0
 10
5.305699
 20
88.653046
 30
0.0
 10
6.243498
 20
87.864276
 30
0.0
 10
7.205253
 20
87.153353
 30
0.0
 10
7.238914
 20
87.130335
 30
0.0
 10
7.272405
 20
87.107660
 30
0.0
 10
7.305764
 20
87.085276
 30
0.0
 10
7.339029
 20
87.063078
 30
0.0
 10
7.372239
 20
87.040985
 30
0.0
 10
7.405427
 20
87.018919
 30
0.0
 10
7.438636
 20
86.996799
 30
0.0
 10
7.471903
 20
86.974548
 30
0.0
 10
6.260682
 20
81.186946
 30
0.0
 10
5.138686
 20
75.630889
 30
0.0
 10
4.066367
 20
70.196276
 30
0.0
 10
3.004177
 20
64.773009
 30
0.0
 10
1.912569
 20
59.250977
 30
0.0
 10
0.751996
 20
53.520086
 30
0.0
 10
-0.517092
 20
47.470230
 30
0.0
 10
-1.934241
 20
40.991306
 30
0.0
 10
-2.778469
 20
37.394806
 30
0.0
 10
-3.624125
 20
34.378659
 30
0.0
 10
-4.563184
 20
31.870346
 30
0.0
 10
-5.687624
 20
29.797357
 30
0.0
 10
-7.089422
 20
28.087175
 30
0.0
 10
-8.860555
 20
26.667286
 30
0.0
 10
-11.092999
 20
25.465178
 30
0.0
 10
-13.878731
 20
24.408339
 30
0.0
 10
-17.585003
 20
23.499448
 30
0.0
 10
-22.235703
 20
22.932245
 30
0.0
 10
-27.554595
 20
22.552213
 30
0.0
 10
-33.265441
 20
22.204836
 30
0.0
 10
-39.092005
 20
21.735603
 30
0.0
 10
-44.758052
 20
20.990002
 30
0.0
 10
-49.987343
 20
19.813511
 30
0.0
 10
-54.503643
 20
18.051622
 30
0.0
 10
-55.898029
 20
14.530459
 30
0.0
 10
-56.637507
 20
10.714665
 30
0.0
 10
-56.830809
 20
6.760681
 30
0.0
 10
-56.586662
 20
2.824946
 30
0.0
 10
-56.013797
 20
-0.936096
 30
0.0
 10
-55.220939
 20
-4.366003
 30
0.0
 10
-54.316820
 20
-7.308331
 30
0.0
 10
-53.410167
 20
-9.606637
 30
0.0
 10
-50.277292
 20
-9.973939
 30
0.0
 10
-46.827757
 20
-9.968092
 30
0.0
 10
-43.207342
 20
-9.683792
 30
0.0
 10
-39.561826
 20
-9.215760
 30
0.0
 10
-36.036986
 20
-8.658712
 30
0.0
 10
-32.778599
 20
-8.107357
 30
0.0
 10
-29.932445
 20
-7.656409
 30
0.0
 10
-27.644299
 20
-7.400578
 30
0.0
 10
-23.724060
 20
-6.611286
 30
0.0
 10
-19.803822
 20
-5.821992
 30
0.0
 10
-15.883583
 20
-5.032700
 30
0.0
 10
-11.963344
 20
-4.243406
 30
0.0
 10
-8.043106
 20
-3.454114
 30
0.0
 10
-4.122867
 20
-2.664822
 30
0.0
 10
-0.202628
 20
-1.875530
 30
0.0
 10
3.717610
 20
-1.086236
 30
0.0
 10
4.321141
 20
-0.383077
 30
0.0
 10
5.044665
 20
0.542412
 30
0.0
 10
5.860554
 20
1.720639
 30
0.0
 10
6.741183
 20
3.182004
 30
0.0
 10
7.658924
 20
4.956911
 30
0.0
 10
8.586150
 20
7.075768
 30
0.0
 10
9.495234
 20
9.568977
 30
0.0
 10
10.358549
 20
12.466942
 30
0.0
 10
12.721939
 20
20.877784
 30
0.0
 10
14.953870
 20
29.384011
 30
0.0
 10
17.076457
 20
37.991235
 30
0.0
 10
19.111811
 20
46.705068
 30
0.0
 10
21.082047
 20
55.531113
 30
0.0
 10
23.009278
 20
64.474982
 30
0.0
 10
24.915617
 20
73.542282
 30
0.0
 10
26.823178
 20
82.738622
 30
0.0
 10
29.366297
 20
82.357987
 30
0.0
 10
31.699629
 20
81.959252
 30
0.0
 10
33.791491
 20
81.542147
 30
0.0
 10
35.610207
 20
81.106394
 30
0.0
 10
37.124103
 20
80.651718
 30
0.0
 10
38.301499
 20
80.177844
 30
0.0
 10
39.110716
 20
79.684497
 30
0.0
 10
39.520077
 20
79.171398
 30
0.0
 10
39.652213
 20
78.776015
 30
0.0
 10
39.721189
 20
78.398444
 30
0.0
 10
39.714654
 20
77.992256
 30
0.0
 10
39.620201
 20
77.511024
 30
0.0
 10
39.425480
 20
76.908319
 30
0.0
 10
39.118130
 20
76.137720
 30
0.0
 10
38.685772
 20
75.152795
 30
0.0
 10
38.116042
 20
73.907118
 30
0.0
 10
36.919202
 20
71.427097
 30
0.0
 10
35.467179
 20
68.571380
 30
0.0
 10
33.860962
 20
65.488378
 30
0.0
 10
32.201541
 20
62.326496
 30
0.0
 10
30.589905
 20
59.234144
 30
0.0
 10
29.127045
 20
56.359727
 30
0.0
 10
27.913946
 20
53.851654
 30
0.0
 10
27.051601
 20
51.858336
 30
0.0
 10
26.849411
 20
51.342579
 30
0.0
 10
26.561825
 20
50.617853
 30
0.0
 10
26.202210
 20
49.717436
 30
0.0
 10
25.783943
 20
48.674602
 30
0.0
 10
25.320400
 20
47.522628
 30
0.0
 10
24.824954
 20
46.294789
 30
0.0
 10
24.310979
 20
45.024363
 30
0.0
 10
23.791851
 20
43.744618
 30
0.0
 10
23.245349
 20
42.392867
 30
0.0
 10
22.652938
 20
40.916059
 30
0.0
 10
22.033488
 20
39.361941
 30
0.0
 10
21.405868
 20
37.778264
 30
0.0
 10
20.788950
 20
36.212780
 30
0.0
 10
20.201602
 20
34.713233
 30
0.0
 10
19.662694
 20
33.327375
 30
0.0
 10
19.191098
 20
32.102952
 30
0.0
 10
18.896869
 20
30.864286
 30
0.0
 10
18.834292
 20
29.463207
 30
0.0
 10
18.938609
 20
27.988710
 30
0.0
 10
19.145058
 20
26.529803
 30
0.0
 10
19.388883
 20
25.175491
 30
0.0
 10
19.605322
 20
24.014774
 30
0.0
 10
19.729618
 20
23.136657
 30
0.0
 10
19.697010
 20
22.630146
 30
0.0
 10
18.841460
 20
20.717193
 30
0.0
 10
17.857496
 20
18.450968
 30
0.0
 10
16.806509
 20
15.966435
 30
0.0
 10
15.749888
 20
13.398566
 30
0.0
 10
14.749022
 20
10.882321
 30
0.0
 10
13.865301
 20
8.552664
 30
0.0
 10
13.160115
 20
6.544562
 30
0.0
 10
12.694854
 20
4.992979
 30
0.0
 10
12.581499
 20
4.524391
 30
0.0
 10
12.486356
 20
4.082037
 30
0.0
 10
12.409443
 20
3.665342
 30
0.0
 10
12.350780
 20
3.273732
 30
0.0
 10
12.310387
 20
2.906633
 30
0.0
 10
12.288281
 20
2.563471
 30
0.0
 10
12.284482
 20
2.243670
 30
0.0
 10
12.299013
 20
1.946654
 30
0.0
 10
12.248917
 20
1.903886
 30
0.0
 10
12.199129
 20
1.860770
 30
0.0
 10
12.149685
 20
1.817278
 30
0.0
 10
12.100618
 20
1.773381
 30
0.0
 10
12.051967
 20
1.729050
 30
0.0
 10
12.003765
 20
1.684258
 30
0.0
 10
11.956050
 20
1.638980
 30
0.0
 10
11.908856
 20
1.593186
 30
0.0
 10
11.441927
 20
1.088877
 30
0.0
 10
11.025428
 20
0.542190
 30
0.0
 10
10.663004
 20
-0.043312
 30
0.0
 10
10.358302
 20
-0.664059
 30
0.0
 10
10.114965
 20
-1.316487
 30
0.0
 10
9.936640
 20
-1.997032
 30
0.0
 10
9.826969
 20
-2.702128
 30
0.0
 10
9.789583
 20
-3.428198
 30
0.0
 10
9.826950
 20
-4.154297
 30
0.0
 10
9.936618
 20
-4.859438
 30
0.0
 10
10.114943
 20
-5.540047
 30
0.0
 10
10.358280
 20
-6.192554
 30
0.0
 10
10.662983
 20
-6.813388
 30
0.0
 10
11.025407
 20
-7.398972
 30
0.0
 10
11.441906
 20
-7.945739
 30
0.0
 10
11.908834
 20
-8.450114
 30
0.0
 10
12.422555
 20
-8.908531
 30
0.0
 10
12.979421
 20
-9.317424
 30
0.0
 10
13.575771
 20
-9.673222
 30
0.0
 10
14.207947
 20
-9.972347
 30
0.0
 10
14.872288
 20
-10.211223
 30
0.0
 10
15.565133
 20
-10.386274
 30
0.0
 10
16.282824
 20
-10.493928
 30
0.0
 10
17.021700
 20
-10.530607
 30
0.0
 10
17.760554
 20
-10.493928
 30
0.0
 10
18.478186
 20
-10.386274
 30
0.0
 10
19.170949
 20
-10.211220
 30
0.0
 10
19.835195
 20
-9.972347
 30
0.0
 10
20.467276
 20
-9.673222
 30
0.0
 10
21.063543
 20
-9.317424
 30
0.0
 10
21.620351
 20
-8.908529
 30
0.0
 10
22.134049
 20
-8.450114
 30
0.0
 10
22.313321
 20
-8.267737
 30
0.0
 10
22.485916
 20
-8.079181
 30
0.0
 10
22.651653
 20
-7.884631
 30
0.0
 10
22.810352
 20
-7.684275
 30
0.0
 10
22.961835
 20
-7.478299
 30
0.0
 10
23.105921
 20
-7.266887
 30
0.0
 10
23.242431
 20
-7.050227
 30
0.0
 10
23.371183
 20
-6.828507
 30
0.0
 10
23.499957
 20
-7.050280
 30
0.0
 10
23.636515
 20
-7.266956
 30
0.0
 10
23.780669
 20
-7.478358
 30
0.0
 10
23.932233
 20
-7.684307
 30
0.0
 10
24.091019
 20
-7.884633
 30
0.0
 10
24.256839
 20
-8.079160
 30
0.0
 10
24.429507
 20
-8.267713
 30
0.0
 10
24.608834
 20
-8.450114
 30
0.0
 10
25.122493
 20
-8.908491
 30
0.0
 10
25.679281
 20
-9.317368
 30
0.0
 10
26.275546
 20
-9.673164
 30
0.0
 10
26.907636
 20
-9.972296
 30
0.0
 10
27.571896
 20
-10.211186
 30
0.0
 10
28.264676
 20
-10.386256
 30
0.0
 10
28.982323
 20
-10.493922
 30
0.0
 10
29.721183
 20
-10.530607
 30
0.0
 10
30.460040
 20
-10.493922
 30
0.0
 10
31.177672
 20
-10.386256
 30
0.0
 10
31.870436
 20
-10.211186
 30
0.0
 10
32.534680
 20
-9.972296
 30
0.0
 10
33.166759
 20
-9.673164
 30
0.0
 10
33.763027
 20
-9.317368
 30
0.0
 10
34.319834
 20
-8.908491
 30
0.0
 10
34.833534
 20
-8.450114
 30
0.0
 10
35.027785
 20
-8.251835
 30
0.0
 10
35.214052
 20
-8.046257
 30
0.0
 10
35.392135
 20
-7.833630
 30
0.0
 10
35.561834
 20
-7.614200
 30
0.0
 10
35.722952
 20
-7.388222
 30
0.0
 10
35.875288
 20
-7.155942
 30
0.0
 10
36.018647
 20
-6.917610
 30
0.0
 10
36.152831
 20
-6.673479
 30
0.0
 10
36.284104
 20
-6.910427
 30
0.0
 10
36.423722
 20
-7.141921
 30
0.0
 10
36.571507
 20
-7.367725
 30
0.0
 10
36.727278
 20
-7.587602
 30
0.0
 10
36.890859
 20
-7.801313
 30
0.0
 10
37.062069
 20
-8.008622
 30
0.0
 10
37.240729
 20
-8.209293
 30
0.0
 10
37.426657
 20
-8.403090
 30
0.0
 10
37.940356
 20
-8.871910
 30
0.0
 10
38.497163
 20
-9.290066
 30
0.0
 10
39.093428
 20
-9.653907
 30
0.0
 10
39.725510
 20
-9.959784
 30
0.0
 10
40.389754
 20
-10.204042
 30
0.0
 10
41.082516
 20
-10.383033
 30
0.0
 10
41.800148
 20
-10.493105
 30
0.0
 10
42.539005
 20
-10.530607
 30
0.0
 10
43.277867
 20
-10.493105
 30
0.0
 10
43.995515
 20
-10.383033
 30
0.0
 10
44.688294
 20
-10.204042
 30
0.0
 10
45.352555
 20
-9.959782
 30
0.0
 10
45.984644
 20
-9.653907
 30
0.0
 10
46.580909
 20
-9.290066
 30
0.0
 10
47.137696
 20
-8.871910
 30
0.0
 10
47.651355
 20
-8.403090
 30
0.0
 10
47.852981
 20
-8.192235
 30
0.0
 10
48.046000
 20
-7.973293
 30
0.0
 10
48.230184
 20
-7.746563
 30
0.0
 10
48.405301
 20
-7.512346
 30
0.0
 10
48.571118
 20
-7.270938
 30
0.0
 10
48.727402
 20
-7.022639
 30
0.0
 10
48.873923
 20
-6.767748
 30
0.0
 10
49.010446
 20
-6.506564
 30
0.0
 10
49.150029
 20
-6.767742
 30
0.0
 10
49.299839
 20
-7.022631
 30
0.0
 10
49.459631
 20
-7.270932
 30
0.0
 10
49.629171
 20
-7.512343
 30
0.0
 10
49.808220
 20
-7.746563
 30
0.0
 10
49.996535
 20
-7.973295
 30
0.0
 10
50.193882
 20
-8.192238
 30
0.0
 10
50.400024
 20
-8.403090
 30
0.0
 10
50.925180
 20
-8.871910
 30
0.0
 10
51.494404
 20
-9.290066
 30
0.0
 10
52.103973
 20
-9.653907
 30
0.0
 10
52.750159
 20
-9.959782
 30
0.0
 10
53.429239
 20
-10.204040
 30
0.0
 10
54.137486
 20
-10.383033
 30
0.0
 10
54.871176
 20
-10.493105
 30
0.0
 10
55.626579
 20
-10.530607
 30
0.0
 10
56.381999
 20
-10.493105
 30
0.0
 10
57.115734
 20
-10.383033
 30
0.0
 10
57.824045
 20
-10.204042
 30
0.0
 10
58.503204
 20
-9.959782
 30
0.0
 10
59.149475
 20
-9.653907
 30
0.0
 10
59.759128
 20
-9.290066
 30
0.0
 10
60.328432
 20
-8.871908
 30
0.0
 10
60.853651
 20
-8.403090
 30
0.0
 10
61.331046
 20
-7.887242
 30
0.0
 10
61.756885
 20
-7.328006
 30
0.0
 10
62.127440
 20
-6.729039
 30
0.0
 10
62.438979
 20
-6.094010
 30
0.0
 10
62.687777
 20
-5.426575
 30
0.0
 10
62.870106
 20
-4.730395
 30
0.0
 10
62.982237
 20
-4.009133
 30
0.0
 10
63.020443
 20
-3.266450
 30
0.0
 10
63.014463
 20
-2.973046
 30
0.0
 10
62.996710
 20
-2.682666
 30
0.0
 10
62.967412
 20
-2.395505
 30
0.0
 10
62.926830
 20
-2.111761
 30
0.0
 10
62.875213
 20
-1.831633
 30
0.0
 10
62.812811
 20
-1.555316
 30
0.0
 10
62.739871
 20
-1.283009
 30
0.0
 10
62.656646
 20
-1.014910
 30
0.0
 10
63.245974
 20
-0.041611
 30
0.0
 10
63.786700
 20
1.244232
 30
0.0
 10
64.287950
 20
2.739126
 30
0.0
 10
64.758853
 20
4.339572
 30
0.0
 10
65.208536
 20
5.942084
 30
0.0
 10
65.646123
 20
7.443166
 30
0.0
 10
66.080743
 20
8.739325
 30
0.0
 10
66.521526
 20
9.727070
 30
0.0
 10
67.131636
 20
10.673654
 30
0.0
 10
67.839460
 20
11.421367
 30
0.0
 10
68.609234
 20
12.032666
 30
0.0
 10
69.405196
 20
12.570013
 30
0.0
 10
70.191582
 20
13.095865
 30
0.0
 10
70.932630
 20
13.672683
 30
0.0
 10
71.592575
 20
14.362930
 30
0.0
 10
72.135653
 20
15.229060
 30
0.0
 10
73.036681
 20
17.237747
 30
0.0
 10
73.873746
 20
19.341082
 30
0.0
 10
74.684176
 20
21.504331
 30
0.0
 10
75.505297
 20
23.692766
 30
0.0
 10
76.374435
 20
25.871657
 30
0.0
 10
77.328916
 20
28.006268
 30
0.0
 10
78.406064
 20
30.061877
 30
0.0
 10
79.643205
 20
32.003746
 30
0.0
 10
80.213441
 20
32.847778
 30
0.0
 10
80.800779
 20
33.750301
 30
0.0
 10
81.416649
 20
34.657374
 30
0.0
 10
82.072480
 20
35.515053
 30
0.0
 10
82.779701
 20
36.269393
 30
0.0
 10
83.549739
 20
36.866449
 30
0.0
 10
84.394027
 20
37.252275
 30
0.0
 10
85.323997
 20
37.372928
 30
0.0
 10
86.131643
 20
37.217319
 30
0.0
 10
86.849947
 20
36.834064
 30
0.0
 10
87.491872
 20
36.269830
 30
0.0
 10
88.070380
 20
35.571274
 30
0.0
 10
88.598436
 20
34.785057
 30
0.0
 10
89.089000
 20
33.957840
 30
0.0
 10
89.555032
 20
33.136279
 30
0.0
 10
90.009498
 20
32.367032
 30
0.0
 10
91.128805
 20
30.380022
 30
0.0
 10
92.089118
 20
28.317719
 30
0.0
 10
92.925744
 20
26.195589
 30
0.0
 10
93.673988
 20
24.029107
 30
0.0
 10
94.369152
 20
21.833742
 30
0.0
 10
95.046538
 20
19.624966
 30
0.0
 10
95.741456
 20
17.418249
 30
0.0
 10
96.489205
 20
15.229060
 30
0.0
 10
96.980065
 20
14.309749
 30
0.0
 10
97.637820
 20
13.665883
 30
0.0
 10
98.419124
 20
13.205680
 30
0.0
 10
99.280641
 20
12.837345
 30
0.0
 10
100.179023
 20
12.469093
 30
0.0
 10
101.070931
 20
12.009131
 30
0.0
 10
101.913021
 20
11.365672
 30
0.0
 10
102.661955
 20
10.446925
 30
0.0
 10
103.319334
 20
9.126906
 30
0.0
 10
103.914612
 20
7.446772
 30
0.0
 10
104.446229
 20
5.565452
 30
0.0
 10
104.912626
 20
3.641871
 30
0.0
 10
105.312244
 20
1.834954
 30
0.0
 10
105.643521
 20
0.303628
 30
0.0
 10
105.904900
 20
-0.793181
 30
0.0
 10
106.094821
 20
-1.296545
 30
0.0
 10
106.103129
 20
-1.304986
 30
0.0
 10
106.110855
 20
-1.313188
 30
0.0
 10
106.118051
 20
-1.321125
 30
0.0
 10
106.124772
 20
-1.328798
 30
0.0
 10
106.130990
 20
-1.336233
 30
0.0
 10
106.136758
 20
-1.343430
 30
0.0
 10
106.142076
 20
-1.350362
 30
0.0
 10
106.146997
 20
-1.357029
 30
0.0
 10
106.075136
 20
-1.604618
 30
0.0
 10
106.012197
 20
-1.855787
 30
0.0
 10
105.958386
 20
-2.110359
 30
0.0
 10
105.913904
 20
-2.368161
 30
0.0
 10
105.878953
 20
-2.629021
 30
0.0
 10
105.853738
 20
-2.892769
 30
0.0
 10
105.838445
 20
-3.159225
 30
0.0
 10
105.833312
 20
-3.428219
 30
0.0
 10
105.870679
 20
-4.154318
 30
0.0
 10
105.980346
 20
-4.859459
 30
0.0
 10
106.158673
 20
-5.540068
 30
0.0
 10
106.402010
 20
-6.192575
 30
0.0
 10
106.706712
 20
-6.813407
 30
0.0
 10
107.069136
 20
-7.398993
 30
0.0
 10
107.485635
 20
-7.945760
 30
0.0
 10
107.952564
 20
-8.450135
 30
0.0
 10
108.466284
 20
-8.908550
 30
0.0
 10
109.023150
 20
-9.317445
 30
0.0
 10
109.619502
 20
-9.673243
 30
0.0
 10
110.251677
 20
-9.972368
 30
0.0
 10
110.916016
 20
-10.211244
 30
0.0
 10
111.608862
 20
-10.386295
 30
0.0
 10
112.326552
 20
-10.493949
 30
0.0
 10
113.065428
 20
-10.530628
 30
0.0
 10
113.804282
 20
-10.493949
 30
0.0
 10
114.521914
 20
-10.386295
 30
0.0
 10
115.214678
 20
-10.211242
 30
0.0
 10
115.878922
 20
-9.972368
 30
0.0
 10
116.511004
 20
-9.673243
 30
0.0
 10
117.107272
 20
-9.317445
 30
0.0
 10
117.664079
 20
-8.908550
 30
0.0
 10
118.177778
 20
-8.450135
 30
0.0
 10
118.357049
 20
-8.267758
 30
0.0
 10
118.529645
 20
-8.079203
 30
0.0
 10
118.695383
 20
-7.884652
 30
0.0
 10
118.854082
 20
-7.684296
 30
0.0
 10
119.005564
 20
-7.478321
 30
0.0
 10
119.149651
 20
-7.266908
 30
0.0
 10
119.286160
 20
-7.050249
 30
0.0
 10
119.414912
 20
-6.828528
 30
0.0
 10
119.543684
 20
-7.050302
 30
0.0
 10
119.680244
 20
-7.266977
 30
0.0
 10
119.824397
 20
-7.478379
 30
0.0
 10
119.975961
 20
-7.684328
 30
0.0
 10
120.134748
 20
-7.884655
 30
0.0
 10
120.300567
 20
-8.079181
 30
0.0
 10
120.473237
 20
-8.267734
 30
0.0
 10
120.652564
 20
-8.450135
 30
0.0
 10
121.166221
 20
-8.908513
 30
0.0
 10
121.723010
 20
-9.317389
 30
0.0
 10
122.319275
 20
-9.673185
 30
0.0
 10
122.951364
 20
-9.972318
 30
0.0
 10
123.615625
 20
-10.211207
 30
0.0
 10
124.308404
 20
-10.386277
 30
0.0
 10
125.026052
 20
-10.493944
 30
0.0
 10
125.764912
 20
-10.530628
 30
0.0
 10
126.503769
 20
-10.493944
 30
0.0
 10
127.221401
 20
-10.386277
 30
0.0
 10
127.914165
 20
-10.211207
 30
0.0
 10
128.578409
 20
-9.972318
 30
0.0
 10
129.210488
 20
-9.673185
 30
0.0
 10
129.806756
 20
-9.317389
 30
0.0
 10
130.363563
 20
-8.908513
 30
0.0
 10
130.877262
 20
-8.450135
 30
0.0
 10
131.070498
 20
-8.252917
 30
0.0
 10
131.255820
 20
-8.048471
 30
0.0
 10
131.433036
 20
-7.837043
 30
0.0
 10
131.601956
 20
-7.618878
 30
0.0
 10
131.762392
 20
-7.394225
 30
0.0
 10
131.914149
 20
-7.163337
 30
0.0
 10
132.057042
 20
-6.926458
 30
0.0
 10
132.190876
 20
-6.683835
 30
0.0
 10
132.321824
 20
-6.919320
 30
0.0
 10
132.461069
 20
-7.149377
 30
0.0
 10
132.608421
 20
-7.373784
 30
0.0
 10
132.763686
 20
-7.592311
 30
0.0
 10
132.926672
 20
-7.804734
 30
0.0
 10
133.097191
 20
-8.010826
 30
0.0
 10
133.275046
 20
-8.210359
 30
0.0
 10
133.460051
 20
-8.403111
 30
0.0
 10
133.973750
 20
-8.871931
 30
0.0
 10
134.530558
 20
-9.290087
 30
0.0
 10
135.126825
 20
-9.653929
 30
0.0
 10
135.758904
 20
-9.959805
 30
0.0
 10
136.423146
 20
-10.204063
 30
0.0
 10
137.115910
 20
-10.383054
 30
0.0
 10
137.833542
 20
-10.493126
 30
0.0
 10
138.572399
 20
-10.530628
 30
0.0
 10
139.311261
 20
-10.493126
 30
0.0
 10
140.028909
 20
-10.383054
 30
0.0
 10
140.721689
 20
-10.204063
 30
0.0
 10
141.385949
 20
-9.959803
 30
0.0
 10
142.018038
 20
-9.653929
 30
0.0
 10
142.614303
 20
-9.290087
 30
0.0
 10
143.171093
 20
-8.871931
 30
0.0
 10
143.684749
 20
-8.403111
 30
0.0
 10
143.890024
 20
-8.188309
 30
0.0
 10
144.086403
 20
-7.965146
 30
0.0
 10
144.273627
 20
-7.733927
 30
0.0
 10
144.451443
 20
-7.494960
 30
0.0
 10
144.619591
 20
-7.248559
 30
0.0
 10
144.777817
 20
-6.995030
 30
0.0
 10
144.925862
 20
-6.734683
 30
0.0
 10
145.063475
 20
-6.467827
 30
0.0
 10
145.204199
 20
-6.734707
 30
0.0
 10
145.355630
 20
-6.995059
 30
0.0
 10
145.517497
 20
-7.248583
 30
0.0
 10
145.689521
 20
-7.494974
 30
0.0
 10
145.871430
 20
-7.733924
 30
0.0
 10
146.062949
 20
-7.965133
 30
0.0
 10
146.263807
 20
-8.188298
 30
0.0
 10
146.473725
 20
-8.403111
 30
0.0
 10
146.998881
 20
-8.871931
 30
0.0
 10
147.568105
 20
-9.290087
 30
0.0
 10
148.177673
 20
-9.653929
 30
0.0
 10
148.823860
 20
-9.959803
 30
0.0
 10
149.502940
 20
-10.204061
 30
0.0
 10
150.211187
 20
-10.383054
 30
0.0
 10
150.944876
 20
-10.493126
 30
0.0
 10
151.700280
 20
-10.530628
 30
0.0
 10
152.455700
 20
-10.493126
 30
0.0
 10
153.189435
 20
-10.383054
 30
0.0
 10
153.897745
 20
-10.204063
 30
0.0
 10
154.576904
 20
-9.959803
 30
0.0
 10
155.223176
 20
-9.653929
 30
0.0
 10
155.832829
 20
-9.290087
 30
0.0
 10
156.402132
 20
-8.871929
 30
0.0
 10
156.927352
 20
-8.403111
 30
0.0
 10
157.404771
 20
-7.887263
 30
0.0
 10
157.830668
 20
-7.328027
 30
0.0
 10
158.201304
 20
-6.729063
 30
0.0
 10
158.512939
 20
-6.094031
 30
0.0
 10
158.761832
 20
-5.426596
 30
0.0
 10
158.944241
 20
-4.730416
 30
0.0
 10
159.056432
 20
-4.009154
 30
0.0
 10
159.094659
 20
-3.266471
 30
0.0
 10
159.056432
 20
-2.523810
 30
0.0
 10
158.944241
 20
-1.802609
 30
0.0
 10
158.761830
 20
-1.106511
 30
0.0
 10
158.512939
 20
-0.439171
 30
0.0
 10
158.201304
 20
0.195763
 30
0.0
 10
157.830668
 20
0.794645
 30
0.0
 10
157.404768
 20
1.353823
 30
0.0
 10
156.927352
 20
1.869649
 30
0.0
 10
156.873429
 20
1.921955
 30
0.0
 10
156.818886
 20
1.973612
 30
0.0
 10
156.763754
 20
2.024650
 30
0.0
 10
156.708068
 20
2.075101
 30
0.0
 10
156.651852
 20
2.124999
 30
0.0
 10
156.595141
 20
2.174375
 30
0.0
 10
156.537964
 20
2.223262
 30
0.0
 10
156.480351
 20
2.271692
 30
0.0
 10
156.555329
 20
2.552446
 30
0.0
 10
156.613138
 20
2.845769
 30
0.0
 10
156.652013
 20
3.151397
 30
0.0
 10
156.670190
 20
3.469071
 30
0.0
 10
156.665877
 20
3.798528
 30
0.0
 10
156.637347
 20
4.139510
 30
0.0
 10
156.582811
 20
4.491752
 30
0.0
 10
156.500497
 20
4.854996
 30
0.0
 10
155.975910
 20
6.385375
 30
0.0
 10
155.109566
 20
8.428874
 30
0.0
 10
154.002391
 20
10.821424
 30
0.0
 10
152.755304
 20
13.398963
 30
0.0
 10
151.469225
 20
15.997426
 30
0.0
 10
150.245080
 20
18.452746
 30
0.0
 10
149.183786
 20
20.600861
 30
0.0
 10
148.386263
 20
22.277705
 30
0.0
 10
148.334833
 20
22.813277
 30
0.0
 10
148.464461
 20
23.647294
 30
0.0
 10
148.703530
 20
24.712105
 30
0.0
 10
148.980438
 20
25.940065
 30
0.0
 10
149.223574
 20
27.263522
 30
0.0
 10
149.361334
 20
28.614825
 30
0.0
 10
149.322107
 20
29.926333
 30
0.0
 10
149.034286
 20
31.130394
 30
0.0
 10
148.530712
 20
32.396605
 30
0.0
 10
147.914696
 20
33.892636
 30
0.0
 10
147.220376
 20
35.547943
 30
0.0
 10
146.481887
 20
37.291981
 30
0.0
 10
145.733368
 20
39.054212
 30
0.0
 10
145.008952
 20
40.764090
 30
0.0
 10
144.342776
 20
42.351069
 30
0.0
 10
143.768974
 20
43.744611
 30
0.0
 10
143.250843
 20
45.024352
 30
0.0
 10
142.737816
 20
46.294781
 30
0.0
 10
142.243244
 20
47.522620
 30
0.0
 10
141.780477
 20
48.674594
 30
0.0
 10
141.362859
 20
49.717428
 30
0.0
 10
141.003740
 20
50.617845
 30
0.0
 10
140.716468
 20
51.342571
 30
0.0
 10
140.514390
 20
51.858328
 30
0.0
 10
139.603252
 20
53.974577
 30
0.0
 10
138.344640
 20
56.592010
 30
0.0
 10
136.843016
 20
59.554584
 30
0.0
 10
135.202851
 20
62.706263
 30
0.0
 10
133.528607
 20
65.891016
 30
0.0
 10
131.924753
 20
68.952801
 30
0.0
 10
130.495754
 20
71.735582
 30
0.0
 10
129.346082
 20
74.083328
 30
0.0
 10
128.784599
 20
75.339033
 30
0.0
 10
128.369211
 20
76.413657
 30
0.0
 10
128.098188
 20
77.328800
 30
0.0
 10
127.969796
 20
78.106072
 30
0.0
 10
127.982311
 20
78.767072
 30
0.0
 10
128.133991
 20
79.333405
 30
0.0
 10
128.423106
 20
79.826673
 30
0.0
 10
128.847927
 20
80.268480
 30
0.0
 10
129.866057
 20
80.744833
 30
0.0
 10
131.724667
 20
81.228698
 30
0.0
 10
134.271602
 20
81.714261
 30
0.0
 10
137.354704
 20
82.195699
 30
0.0
 10
140.821823
 20
82.667197
 30
0.0
 10
144.520796
 20
83.122937
 30
0.0
 10
148.299469
 20
83.557097
 30
0.0
 10
152.005686
 20
83.963862
 30
0.0
 10
152.779394
 20
84.057501
 30
0.0
 10
153.573940
 20
84.172102
 30
0.0
 10
154.366738
 20
84.303204
 30
0.0
 10
155.135196
 20
84.446346
 30
0.0
 10
155.856726
 20
84.597066
 30
0.0
 10
156.508744
 20
84.750908
 30
0.0
 10
157.068655
 20
84.903406
 30
0.0
 10
157.513875
 20
85.050101
 30
0.0
 10
159.016965
 20
85.716806
 30
0.0
 10
160.523468
 20
86.581044
 30
0.0
 10
161.997760
 20
87.610892
 30
0.0
 10
163.404219
 20
88.774432
 30
0.0
 10
164.707229
 20
90.039741
 30
0.0
 10
165.871170
 20
91.374897
 30
0.0
 10
166.860418
 20
92.747979
 30
0.0
 10
167.639357
 20
94.127066
 30
0.0
 10
167.982709
 20
94.852570
 30
0.0
 10
168.241580
 20
95.459749
 30
0.0
 10
168.425588
 20
96.011376
 30
0.0
 10
168.544343
 20
96.570231
 30
0.0
 10
168.607465
 20
97.199085
 30
0.0
 10
168.624583
 20
97.960717
 30
0.0
 10
168.605295
 20
98.917903
 30
0.0
 10
168.559213
 20
100.133417
 30
0.0
 10
168.506055
 20
101.269178
 30
0.0
 10
168.443884
 20
102.195908
 30
0.0
 10
168.363524
 20
102.957403
 30
0.0
 10
168.255812
 20
103.597467
 30
0.0
 10
168.111577
 20
104.159897
 30
0.0
 10
167.921654
 20
104.688492
 30
0.0
 10
167.676875
 20
105.227051
 30
0.0
 10
167.368072
 20
105.819377
 30
0.0
 10
167.069807
 20
106.344543
 30
0.0
 10
166.747849
 20
106.864335
 30
0.0
 10
166.402382
 20
107.378574
 30
0.0
 10
166.033598
 20
107.887072
 30
0.0
 10
165.641679
 20
108.389643
 30
0.0
 10
165.226812
 20
108.886104
 30
0.0
 10
164.789183
 20
109.376271
 30
0.0
 10
164.328980
 20
109.859956
 30
0.0
 10
163.843745
 20
110.343302
 30
0.0
 10
163.332536
 20
110.828823
 30
0.0
 10
162.797810
 20
111.310891
 30
0.0
 10
162.242024
 20
111.783889
 30
0.0
 10
161.667634
 20
112.242188
 30
0.0
 10
161.077098
 20
112.680163
 30
0.0
 10
160.472874
 20
113.092193
 30
0.0
 10
159.857419
 20
113.472656
 30
0.0
 10
156.396798
 20
115.370211
 30
0.0
 10
152.844857
 20
117.091304
 30
0.0
 10
149.217367
 20
118.661868
 30
0.0
 10
145.530091
 20
120.107840
 30
0.0
 10
141.798799
 20
121.455149
 30
0.0
 10
138.039255
 20
122.729731
 30
0.0
 10
134.267231
 20
123.957519
 30
0.0
 10
130.498488
 20
125.164448
 30
0.0
 10
129.852968
 20
125.356731
 30
0.0
 10
129.201243
 20
125.526787
 30
0.0
 10
128.545143
 20
125.681245
 30
0.0
 10
127.886500
 20
125.826743
 30
0.0
 10
127.227147
 20
125.969903
 30
0.0
 10
126.568914
 20
126.117363
 30
0.0
 10
125.913637
 20
126.275754
 30
0.0
 10
125.263148
 20
126.451707
 30
0.0
 10
124.605206
 20
126.651274
 30
0.0
 10
123.951746
 20
126.865317
 30
0.0
 10
123.301294
 20
127.089091
 30
0.0
 10
122.652388
 20
127.317857
 30
0.0
 10
122.003553
 20
127.546878
 30
0.0
 10
121.353321
 20
127.771406
 30
0.0
 10
120.700223
 20
127.986706
 30
0.0
 10
120.042794
 20
128.188035
 30
0.0
 10
119.215964
 20
128.416611
 30
0.0
 10
118.383862
 20
128.625965
 30
0.0
 10
117.548406
 20
128.823035
 30
0.0
 10
116.711516
 20
129.014763
 30
0.0
 10
115.875102
 20
129.208083
 30
0.0
 10
115.041085
 20
129.409936
 30
0.0
 10
114.211380
 20
129.627265
 30
0.0
 10
113.387902
 20
129.867004
 30
0.0
 10
112.911961
 20
129.985514
 30
0.0
 10
112.405845
 20
130.074451
 30
0.0
 10
111.888860
 20
130.155106
 30
0.0
 10
111.380312
 20
130.248782
 30
0.0
 10
110.899501
 20
130.376772
 30
0.0
 10
110.465732
 20
130.560371
 30
0.0
 10
110.098313
 20
130.820877
 30
0.0
 10
109.816545
 20
131.179586
 30
0.0
 10
109.633980
 20
131.692312
 30
0.0
 10
109.618105
 20
132.229003
 30
0.0
 10
109.727640
 20
132.784565
 30
0.0
 10
109.921342
 20
133.353903
 30
0.0
 10
110.157948
 20
133.931925
 30
0.0
 10
110.396203
 20
134.513540
 30
0.0
 10
110.594849
 20
135.093649
 30
0.0
 10
110.712626
 20
135.667166
 30
0.0
 10
110.826087
 20
136.801090
 30
0.0
 10
110.913759
 20
137.937936
 30
0.0
 10
110.976508
 20
139.076959
 30
0.0
 10
111.015201
 20
140.217422
 30
0.0
 10
111.030705
 20
141.358575
 30
0.0
 10
111.023879
 20
142.499677
 30
0.0
 10
110.995595
 20
143.639985
 30
0.0
 10
110.946721
 20
144.778755
 30
0.0
 10
110.881546
 20
145.650823
 30
0.0
 10
110.783066
 20
146.519775
 30
0.0
 10
110.661146
 20
147.386567
 30
0.0
 10
110.525661
 20
148.252151
 30
0.0
 10
110.386479
 20
149.117481
 30
0.0
 10
110.253476
 20
149.983510
 30
0.0
 10
110.136519
 20
150.851193
 30
0.0
 10
110.045484
 20
151.721483
 30
0.0
 10
110.010146
 20
152.562495
 30
0.0
 10
110.029249
 20
153.412332
 30
0.0
 10
110.075570
 20
154.266040
 30
0.0
 10
110.121925
 20
155.118665
 30
0.0
 10
110.141134
 20
155.965254
 30
0.0
 10
110.105978
 20
156.800853
 30
0.0
 10
109.989287
 20
157.620508
 30
0.0
 10
109.763867
 20
158.419266
 30
0.0
 10
109.355729
 20
159.440512
 30
0.0
 10
108.877251
 20
160.455889
 30
0.0
 10
108.326769
 20
161.444569
 30
0.0
 10
107.702620
 20
162.385727
 30
0.0
 10
107.003133
 20
163.258539
 30
0.0
 10
106.226650
 20
164.042179
 30
0.0
 10
105.371503
 20
164.715821
 30
0.0
 10
104.436026
 20
165.258642
 30
0.0
 10
103.838314
 20
165.451070
 30
0.0
 10
103.210876
 20
165.498545
 30
0.0
 10
102.561980
 20
165.445056
 30
0.0
 10
101.899889
 20
165.334594
 30
0.0
 10
101.232872
 20
165.211149
 30
0.0
 10
100.569194
 20
165.118714
 30
0.0
 10
99.917120
 20
165.101278
 30
0.0
 10
99.284920
 20
165.202831
 30
0.0
 10
98.935783
 20
165.328863
 30
0.0
 10
98.605282
 20
165.496057
 30
0.0
 10
98.288782
 20
165.694380
 30
0.0
 10
97.981656
 20
165.913795
 30
0.0
 10
97.679277
 20
166.144268
 30
0.0
 10
97.377015
 20
166.375767
 30
0.0
 10
97.070241
 20
166.598256
 30
0.0
 10
96.754326
 20
166.801700
 30
0.0
 10
96.416736
 20
167.003203
 30
0.0
 10
96.079461
 20
167.206020
 30
0.0
 10
95.741464
 20
167.407876
 30
0.0
 10
95.401699
 20
167.606493
 30
0.0
 10
95.059122
 20
167.799596
 30
0.0
 10
94.712695
 20
167.984908
 30
0.0
 10
94.361370
 20
168.160153
 30
0.0
 10
94.004106
 20
168.323054
 30
0.0
 10
93.685971
 20
168.454759
 30
0.0
 10
93.363989
 20
168.577096
 30
0.0
 10
93.038700
 20
168.691003
 30
0.0
 10
92.710643
 20
168.797419
 30
0.0
 10
92.380358
 20
168.897282
 30
0.0
 10
92.048383
 20
168.991529
 30
0.0
 10
91.715259
 20
169.081100
 30
0.0
 10
91.381527
 20
169.166930
 30
0.0
 10
90.966401
 20
169.269584
 30
0.0
 10
90.549751
 20
169.367555
 30
0.0
 10
90.131614
 20
169.459640
 30
0.0
 10
89.712033
 20
169.544634
 30
0.0
 10
89.291041
 20
169.621334
 30
0.0
 10
88.868676
 20
169.688537
 30
0.0
 10
88.444975
 20
169.745037
 30
0.0
 10
88.019975
 20
169.789631
 30
0.0
 10
87.479357
 20
169.836379
 30
0.0
 10
86.937723
 20
169.879212
 30
0.0
 10
86.395245
 20
169.917569
 30
0.0
 10
85.852087
 20
169.950894
 30
0.0
 10
85.308421
 20
169.978627
 30
0.0
 10
84.764417
 20
170.000210
 30
0.0
 10
84.220238
 20
170.015085
 30
0.0
 10
83.676053
 20
170.022692
 30
0.0
 10
83.676064
 20
170.022689
 30
0.0
  0
ENDSEC
  0
SECTION
  2
OBJECTS
  0
DICTIONARY
  5
C
330
0
100
AcDbDictionary
  3
ACAD_GROUP
350
D
  3
ACAD_MLINESTYLE
350
17
  0
DICTIONARY
  5
D
330
C
100
AcDbDictionary
  0
DICTIONARY
  5
1A
330
C
100
AcDbDictionary
  0
DICTIONARY
  5
17
330
C
100
AcDbDictionary
  3
STANDARD
350
18
  0
DICTIONARY
  5
19
330
C
100
AcDbDictionary
  0
ENDSEC
  0
EOF
