  0
SECTION
  2
HEADER
  9
$ACADVER
  1
AC1014
  9
$HANDSEED
  5
FFFF
  9
$MEASUREMENT
 70
     1
  0
ENDSEC
  0
SECTION
  2
TABLES
  0
TABLE
  2
VPORT
  5
8
330
0
100
AcDbSymbolTable
 70
     4
  0
VPORT
  5
2E
330
8
100
AcDbSymbolTableRecord
100
AcDbViewportTableRecord
  2
*ACTIVE
 70
     0
 10
0.0
 20
0.0
 11
1.0
 21
1.0
 12
210.0
 22
148.5
 13
0.0
 23
0.0
 14
10.0
 24
10.0
 15
10.0
 25
10.0
 16
0.0
 26
0.0
 36
1.0
 17
0.0
 27
0.0
 37
0.0
 40
341.0
 41
1.24
 42
50.0
 43
0.0
 44
0.0
 50
0.0
 51
0.0
 71
     0
 72
   100
 73
     1
 74
     3
 75
     0
 76
     0
 77
     0
 78
     0
  0
ENDTAB
  0
TABLE
  2
LTYPE
  5
5
330
0
100
AcDbSymbolTable
 70
     1
  0
LTYPE
  5
14
330
5
100
AcDbSymbolTableRecord
100
AcDbLinetypeTableRecord
  2
BYBLOCK
 70
     0
  3

 72
    65
 73
     0
 40
0.0
  0
LTYPE
  5
15
330
5
100
AcDbSymbolTableRecord
100
AcDbLinetypeTableRecord
  2
BYLAYER
 70
     0
  3

 72
    65
 73
     0
 40
0.0
  0
LTYPE
  5
16
330
5
100
AcDbSymbolTableRecord
100
AcDbLinetypeTableRecord
  2
CONTINUOUS
 70
     0
  3
Solid line
 72
    65
 73
     0
 40
0.0
  0
ENDTAB
  0
TABLE
  2
LAYER
  5
2
100
AcDbSymbolTable
 70
2
  0
LAYER
  5
50
100
AcDbSymbolTableRecord
100
AcDbLayerTableRecord
  2
0
 70
0
  6
CONTINUOUS
  0
LAYER
  5
51
100
AcDbSymbolTableRecord
100
AcDbLayerTableRecord
  2
Calque_1
 70
0
  6
CONTINUOUS
  0
ENDTAB
  0
TABLE
  2
STYLE
  5
3
330
0
100
AcDbSymbolTable
 70
     1
  0
STYLE
  5
11
330
3
100
AcDbSymbolTableRecord
100
AcDbTextStyleTableRecord
  2
STANDARD
 70
     0
 40
0.0
 41
1.0
 50
0.0
 71
     0
 42
2.5
  3
txt
  4

  0
ENDTAB
  0
TABLE
  2
VIEW
  5
6
330
0
100
AcDbSymbolTable
 70
     0
  0
ENDTAB
  0
TABLE
  2
UCS
  5
7
330
0
100
AcDbSymbolTable
 70
     0
  0
ENDTAB
  0
TABLE
  2
APPID
  5
9
330
0
100
AcDbSymbolTable
 70
     2
  0
APPID
  5
12
330
9
100
AcDbSymbolTableRecord
100
AcDbRegAppTableRecord
  2
ACAD
 70
     0
  0
ENDTAB
  0
TABLE
  2
DIMSTYLE
  5
A
330
0
100
AcDbSymbolTable
 70
     1
  0
DIMSTYLE
105
27
330
A
100
AcDbSymbolTableRecord
100
AcDbDimStyleTableRecord
  2
ISO-25
 70
     0
  3

  4

  5

  6

  7

 40
1.0
 41
2.5
 42
0.625
 43
3.75
 44
1.25
 45
0.0
 46
0.0
 47
0.0
 48
0.0
140
2.5
141
2.5
142
0.0
143
0.03937007874016
144
1.0
145
0.0
146
1.0
147
0.625
 71
     0
 72
     0
 73
     0
 74
     0
 75
     0
 76
     0
 77
     1
 78
     8
170
     0
171
     3
172
     1
173
     0
174
     0
175
     0
176
     0
177
     0
178
     0
270
     2
271
     2
272
     2
273
     2
274
     3
340
11
275
     0
280
     0
281
     0
282
     0
283
     0
284
     8
285
     0
286
     0
287
     3
288
     0
  0
ENDTAB
  0
TABLE
  2
BLOCK_RECORD
  5
1
330
0
100
AcDbSymbolTable
 70
     1
  0
BLOCK_RECORD
  5
1F
330
1
100
AcDbSymbolTableRecord
100
AcDbBlockTableRecord
  2
*MODEL_SPACE
  0
BLOCK_RECORD
  5
1B
330
1
100
AcDbSymbolTableRecord
100
AcDbBlockTableRecord
  2
*PAPER_SPACE
  0
ENDTAB
  0
ENDSEC
  0
SECTION
  2
BLOCKS
  0
BLOCK
  5
20
330
1F
100
AcDbEntity
  8
0
100
AcDbBlockBegin
  2
*MODEL_SPACE
 70
     0
 10
0.0
 20
0.0
 30
0.0
  3
*MODEL_SPACE
  1

  0
ENDBLK
  5
21
330
1F
100
AcDbEntity
  8
0
100
AcDbBlockEnd
  0
BLOCK
  5
1C
330
1B
100
AcDbEntity
 67
     1
  8
0
100
AcDbBlockBegin
  2
*PAPER_SPACE
  1

  0
ENDBLK
  5
1D
330
1B
100
AcDbEntity
 67
     1
  8
0
100
AcDbBlockEnd
  0
ENDSEC
  0
SECTION
  2
ENTITIES
  0
LWPOLYLINE
  5
100
100
AcDbEntity
  8
Calque_1
 62
7
100
AcDbPolyline
 90
800
 70
1
 10
102.372511
 20
16.598957
 30
0.0
 10
98.158644
 20
18.207537
 30
0.0
 10
93.975939
 20
19.914077
 30
0.0
 10
89.826967
 20
21.716657
 30
0.0
 10
85.714295
 20
23.613317
 30
0.0
 10
81.640492
 20
25.602127
 30
0.0
 10
77.608129
 20
27.681137
 30
0.0
 10
73.619774
 20
29.848418
 30
0.0
 10
69.677997
 20
32.102008
 30
0.0
 10
65.785366
 20
34.439978
 30
0.0
 10
61.944450
 20
36.860388
 30
0.0
 10
58.157820
 20
39.361288
 30
0.0
 10
54.428044
 20
41.940738
 30
0.0
 10
50.757690
 20
44.596808
 30
0.0
 10
47.149329
 20
47.327538
 30
0.0
 10
43.605529
 20
50.130998
 30
0.0
 10
40.128860
 20
53.005238
 30
0.0
 10
37.748982
 20
55.044358
 30
0.0
 10
35.389071
 20
57.126708
 30
0.0
 10
33.055525
 20
59.253268
 30
0.0
 10
30.754741
 20
61.425008
 30
0.0
 10
28.493118
 20
63.642898
 30
0.0
 10
26.277053
 20
65.907938
 30
0.0
 10
24.112944
 20
68.221078
 30
0.0
 10
22.007190
 20
70.583308
 30
0.0
 10
19.966189
 20
72.995598
 30
0.0
 10
17.996337
 20
75.458928
 30
0.0
 10
16.104034
 20
77.974268
 30
0.0
 10
14.295676
 20
80.542608
 30
0.0
 10
12.577663
 20
83.164908
 30
0.0
 10
10.956391
 20
85.842149
 30
0.0
 10
9.438259
 20
88.575309
 30
0.0
 10
8.029665
 20
91.365369
 30
0.0
 10
6.957831
 20
93.678609
 30
0.0
 10
5.942302
 20
96.033859
 30
0.0
 10
4.987394
 20
98.427219
 30
0.0
 10
4.097421
 20
100.854769
 30
0.0
 10
3.276699
 20
103.312579
 30
0.0
 10
2.529543
 20
105.796749
 30
0.0
 10
1.860269
 20
108.303359
 30
0.0
 10
1.273193
 20
110.828489
 30
0.0
 10
0.772628
 20
113.368219
 30
0.0
 10
0.362891
 20
115.918639
 30
0.0
 10
0.048298
 20
118.475829
 30
0.0
 10
-0.166838
 20
121.035879
 30
0.0
 10
-0.278199
 20
123.594859
 30
0.0
 10
-0.281499
 20
126.148869
 30
0.0
 10
-0.172367
 20
128.693969
 30
0.0
 10
0.053485
 20
131.226269
 30
0.0
 10
0.604422
 20
134.990019
 30
0.0
 10
1.385272
 20
138.696939
 30
0.0
 10
2.375788
 20
142.351130
 30
0.0
 10
3.555721
 20
145.956730
 30
0.0
 10
4.904820
 20
149.517830
 30
0.0
 10
6.402838
 20
153.038560
 30
0.0
 10
8.029525
 20
156.523030
 30
0.0
 10
9.764632
 20
159.975360
 30
0.0
 10
11.587910
 20
163.399660
 30
0.0
 10
13.479111
 20
166.800050
 30
0.0
 10
15.417985
 20
170.180640
 30
0.0
 10
17.384283
 20
173.545550
 30
0.0
 10
19.357756
 20
176.898890
 30
0.0
 10
21.318156
 20
180.244790
 30
0.0
 10
23.245233
 20
183.587350
 30
0.0
 10
25.118738
 20
186.930690
 30
0.0
 10
26.775410
 20
189.875900
 30
0.0
 10
28.483678
 20
192.790030
 30
0.0
 10
30.238315
 20
195.676220
 30
0.0
 10
32.034097
 20
198.537611
 30
0.0
 10
33.865799
 20
201.377341
 30
0.0
 10
35.728197
 20
204.198561
 30
0.0
 10
37.616065
 20
207.004401
 30
0.0
 10
39.524179
 20
209.798001
 30
0.0
 10
41.447314
 20
212.582511
 30
0.0
 10
43.380245
 20
215.361071
 30
0.0
 10
45.317746
 20
218.136811
 30
0.0
 10
47.254593
 20
220.912881
 30
0.0
 10
49.185562
 20
223.692411
 30
0.0
 10
51.105426
 20
226.478561
 30
0.0
 10
53.008962
 20
229.274451
 30
0.0
 10
54.890944
 20
232.083241
 30
0.0
 10
55.907010
 20
233.591711
 30
0.0
 10
56.941454
 20
235.089221
 30
0.0
 10
57.990169
 20
236.578211
 30
0.0
 10
59.049048
 20
238.061121
 30
0.0
 10
60.113987
 20
239.540391
 30
0.0
 10
61.180878
 20
241.018461
 30
0.0
 10
62.245615
 20
242.497761
 30
0.0
 10
63.304093
 20
243.980741
 30
0.0
 10
64.352204
 20
245.469841
 30
0.0
 10
65.385844
 20
246.967491
 30
0.0
 10
66.400905
 20
248.476141
 30
0.0
 10
67.393282
 20
249.998221
 30
0.0
 10
68.358867
 20
251.536181
 30
0.0
 10
69.293556
 20
253.092441
 30
0.0
 10
70.193242
 20
254.669462
 30
0.0
 10
71.053819
 20
256.269672
 30
0.0
 10
71.529129
 20
257.125172
 30
0.0
 10
72.061117
 20
257.993832
 30
0.0
 10
72.633965
 20
258.873862
 30
0.0
 10
73.231854
 20
259.763462
 30
0.0
 10
73.838965
 20
260.660842
 30
0.0
 10
74.439480
 20
261.564192
 30
0.0
 10
75.017580
 20
262.471732
 30
0.0
 10
75.557446
 20
263.381652
 30
0.0
 10
76.043261
 20
264.292162
 30
0.0
 10
76.459205
 20
265.201462
 30
0.0
 10
76.789460
 20
266.107752
 30
0.0
 10
77.018207
 20
267.009252
 30
0.0
 10
77.129627
 20
267.904142
 30
0.0
 10
77.107903
 20
268.790642
 30
0.0
 10
76.937215
 20
269.666952
 30
0.0
 10
76.601745
 20
270.531272
 30
0.0
 10
76.236005
 20
271.126632
 30
0.0
 10
75.785368
 20
271.620872
 30
0.0
 10
75.258611
 20
272.024412
 30
0.0
 10
74.664511
 20
272.347712
 30
0.0
 10
74.011844
 20
272.601212
 30
0.0
 10
73.309386
 20
272.795342
 30
0.0
 10
72.565916
 20
272.940552
 30
0.0
 10
71.790209
 20
273.047292
 30
0.0
 10
70.991042
 20
273.125992
 30
0.0
 10
70.177191
 20
273.187092
 30
0.0
 10
69.357434
 20
273.240992
 30
0.0
 10
68.540548
 20
273.298292
 30
0.0
 10
67.735308
 20
273.369292
 30
0.0
 10
66.950492
 20
273.464392
 30
0.0
 10
66.194875
 20
273.594152
 30
0.0
 10
65.477236
 20
273.768972
 30
0.0
 10
63.852904
 20
274.210152
 30
0.0
 10
62.209960
 20
274.608622
 30
0.0
 10
60.552670
 20
274.974142
 30
0.0
 10
58.885299
 20
275.316462
 30
0.0
 10
57.212114
 20
275.645332
 30
0.0
 10
55.537380
 20
275.970502
 30
0.0
 10
53.865361
 20
276.301732
 30
0.0
 10
52.200324
 20
276.648772
 30
0.0
 10
50.546533
 20
277.021382
 30
0.0
 10
48.908255
 20
277.429302
 30
0.0
 10
47.289755
 20
277.882302
 30
0.0
 10
45.695297
 20
278.390122
 30
0.0
 10
44.129149
 20
278.962522
 30
0.0
 10
42.595574
 20
279.609252
 30
0.0
 10
41.098839
 20
280.340062
 30
0.0
 10
39.643209
 20
281.164712
 30
0.0
 10
38.222689
 20
282.048592
 30
0.0
 10
36.799424
 20
282.972342
 30
0.0
 10
35.382145
 20
283.936742
 30
0.0
 10
33.979580
 20
284.942532
 30
0.0
 10
32.600461
 20
285.990482
 30
0.0
 10
31.253518
 20
287.081352
 30
0.0
 10
29.947480
 20
288.215902
 30
0.0
 10
28.691078
 20
289.394902
 30
0.0
 10
27.493042
 20
290.619092
 30
0.0
 10
26.362103
 20
291.889242
 30
0.0
 10
25.306990
 20
293.206122
 30
0.0
 10
24.336434
 20
294.570482
 30
0.0
 10
23.459165
 20
295.983082
 30
0.0
 10
22.683913
 20
297.444692
 30
0.0
 10
22.019408
 20
298.956062
 30
0.0
 10
21.474381
 20
300.517952
 30
0.0
 10
20.928574
 20
302.601192
 30
0.0
 10
20.539664
 20
304.720502
 30
0.0
 10
20.299672
 20
306.869402
 30
0.0
 10
20.200622
 20
309.041442
 30
0.0
 10
20.234532
 20
311.230133
 30
0.0
 10
20.393419
 20
313.429023
 30
0.0
 10
20.669308
 20
315.631633
 30
0.0
 10
21.054220
 20
317.831493
 30
0.0
 10
21.540176
 20
320.022143
 30
0.0
 10
22.119195
 20
322.197103
 30
0.0
 10
22.783301
 20
324.349913
 30
0.0
 10
23.524512
 20
326.474103
 30
0.0
 10
24.334851
 20
328.563193
 30
0.0
 10
25.206337
 20
330.610733
 30
0.0
 10
26.130993
 20
332.610233
 30
0.0
 10
27.100839
 20
334.555243
 30
0.0
 10
28.185868
 20
336.478443
 30
0.0
 10
29.395162
 20
338.310993
 30
0.0
 10
30.716133
 20
340.061983
 30
0.0
 10
32.136193
 20
341.740523
 30
0.0
 10
33.642753
 20
343.355723
 30
0.0
 10
35.223225
 20
344.916683
 30
0.0
 10
36.865020
 20
346.432513
 30
0.0
 10
38.555550
 20
347.912323
 30
0.0
 10
40.282226
 20
349.365213
 30
0.0
 10
42.032461
 20
350.800283
 30
0.0
 10
43.793665
 20
352.226653
 30
0.0
 10
45.553249
 20
353.653423
 30
0.0
 10
47.298627
 20
355.089703
 30
0.0
 10
49.017208
 20
356.544583
 30
0.0
 10
50.696406
 20
358.027183
 30
0.0
 10
52.323630
 20
359.546613
 30
0.0
 10
52.630231
 20
359.821743
 30
0.0
 10
52.960383
 20
360.083623
 30
0.0
 10
53.308759
 20
360.335203
 30
0.0
 10
53.670031
 20
360.579413
 30
0.0
 10
54.038873
 20
360.819203
 30
0.0
 10
54.409958
 20
361.057523
 30
0.0
 10
54.777957
 20
361.297323
 30
0.0
 10
55.137544
 20
361.541533
 30
0.0
 10
55.483391
 20
361.793113
 30
0.0
 10
55.810172
 20
362.055003
 30
0.0
 10
56.112559
 20
362.330143
 30
0.0
 10
56.385224
 20
362.621493
 30
0.0
 10
56.622841
 20
362.931983
 30
0.0
 10
56.820082
 20
363.264573
 30
0.0
 10
56.971619
 20
363.622193
 30
0.0
 10
57.072127
 20
364.007793
 30
0.0
 10
57.108417
 20
364.337973
 30
0.0
 10
57.098517
 20
364.662283
 30
0.0
 10
57.047037
 20
364.981253
 30
0.0
 10
56.958577
 20
365.295393
 30
0.0
 10
56.837752
 20
365.605223
 30
0.0
 10
56.689166
 20
365.911273
 30
0.0
 10
56.517424
 20
366.214033
 30
0.0
 10
56.327133
 20
366.514043
 30
0.0
 10
56.122898
 20
366.811823
 30
0.0
 10
55.909327
 20
367.107873
 30
0.0
 10
55.691026
 20
367.402723
 30
0.0
 10
55.472601
 20
367.696894
 30
0.0
 10
55.258658
 20
367.990884
 30
0.0
 10
55.053803
 20
368.285234
 30
0.0
 10
54.862644
 20
368.580454
 30
0.0
 10
54.689786
 20
368.877054
 30
0.0
 10
54.170335
 20
369.799544
 30
0.0
 10
53.628025
 20
370.709794
 30
0.0
 10
53.066964
 20
371.609944
 30
0.0
 10
52.491258
 20
372.502164
 30
0.0
 10
51.905014
 20
373.388594
 30
0.0
 10
51.312340
 20
374.271414
 30
0.0
 10
50.717343
 20
375.152754
 30
0.0
 10
50.124130
 20
376.034784
 30
0.0
 10
49.536808
 20
376.919654
 30
0.0
 10
48.959484
 20
377.809534
 30
0.0
 10
48.396266
 20
378.706554
 30
0.0
 10
47.851260
 20
379.612894
 30
0.0
 10
47.328574
 20
380.530704
 30
0.0
 10
46.832315
 20
381.462134
 30
0.0
 10
46.366590
 20
382.409344
 30
0.0
 10
45.935506
 20
383.374484
 30
0.0
 10
45.288764
 20
384.926944
 30
0.0
 10
44.658569
 20
386.491544
 30
0.0
 10
44.047653
 20
388.067734
 30
0.0
 10
43.458747
 20
389.654924
 30
0.0
 10
42.894585
 20
391.252564
 30
0.0
 10
42.357897
 20
392.860074
 30
0.0
 10
41.851416
 20
394.476884
 30
0.0
 10
41.377875
 20
396.102434
 30
0.0
 10
40.940005
 20
397.736134
 30
0.0
 10
40.540539
 20
399.377434
 30
0.0
 10
40.182208
 20
401.025754
 30
0.0
 10
39.867745
 20
402.680524
 30
0.0
 10
39.599882
 20
404.341184
 30
0.0
 10
39.381351
 20
406.007154
 30
0.0
 10
39.214884
 20
407.677864
 30
0.0
 10
39.103213
 20
409.352754
 30
0.0
 10
39.015123
 20
411.057754
 30
0.0
 10
38.925503
 20
412.794294
 30
0.0
 10
38.844773
 20
414.554574
 30
0.0
 10
38.783373
 20
416.330744
 30
0.0
 10
38.751723
 20
418.114984
 30
0.0
 10
38.760223
 20
419.899474
 30
0.0
 10
38.819373
 20
421.676384
 30
0.0
 10
38.939558
 20
423.437884
 30
0.0
 10
39.131211
 20
425.176145
 30
0.0
 10
39.404760
 20
426.883355
 30
0.0
 10
39.770632
 20
428.551675
 30
0.0
 10
40.239257
 20
430.173275
 30
0.0
 10
40.821062
 20
431.740345
 30
0.0
 10
41.526476
 20
433.245045
 30
0.0
 10
42.365927
 20
434.679545
 30
0.0
 10
43.349843
 20
436.036035
 30
0.0
 10
44.321098
 20
437.128575
 30
0.0
 10
45.384355
 20
438.120575
 30
0.0
 10
46.531280
 20
439.017625
 30
0.0
 10
47.753538
 20
439.825315
 30
0.0
 10
49.042797
 20
440.549255
 30
0.0
 10
50.390720
 20
441.195045
 30
0.0
 10
51.788975
 20
441.768265
 30
0.0
 10
53.229226
 20
442.274525
 30
0.0
 10
54.703140
 20
442.719425
 30
0.0
 10
56.202382
 20
443.108555
 30
0.0
 10
57.718618
 20
443.447505
 30
0.0
 10
59.243515
 20
443.741885
 30
0.0
 10
60.768736
 20
443.997295
 30
0.0
 10
62.285950
 20
444.219325
 30
0.0
 10
63.786821
 20
444.413565
 30
0.0
 10
65.263014
 20
444.585625
 30
0.0
 10
67.127179
 20
444.750595
 30
0.0
 10
68.995820
 20
444.833795
 30
0.0
 10
70.867630
 20
444.839795
 30
0.0
 10
72.741300
 20
444.773895
 30
0.0
 10
74.615525
 20
444.640655
 30
0.0
 10
76.488996
 20
444.444885
 30
0.0
 10
78.360408
 20
444.191405
 30
0.0
 10
80.228451
 20
443.885015
 30
0.0
 10
82.091820
 20
443.530535
 30
0.0
 10
83.949206
 20
443.132765
 30
0.0
 10
85.799304
 20
442.696525
 30
0.0
 10
87.640805
 20
442.226615
 30
0.0
 10
89.472402
 20
441.727865
 30
0.0
 10
91.292788
 20
441.205065
 30
0.0
 10
93.100656
 20
440.663025
 30
0.0
 10
94.894699
 20
440.106575
 30
0.0
 10
97.733209
 20
439.014815
 30
0.0
 10
100.518638
 20
437.587055
 30
0.0
 10
103.258236
 20
435.888395
 30
0.0
 10
105.959253
 20
433.983925
 30
0.0
 10
108.628937
 20
431.938745
 30
0.0
 10
111.274540
 20
429.817975
 30
0.0
 10
113.903311
 20
427.686685
 30
0.0
 10
116.522499
 20
425.610005
 30
0.0
 10
119.139355
 20
423.653014
 30
0.0
 10
121.761128
 20
421.880814
 30
0.0
 10
124.395068
 20
420.358514
 30
0.0
 10
127.048424
 20
419.151214
 30
0.0
 10
129.728447
 20
418.324014
 30
0.0
 10
132.442386
 20
417.942004
 30
0.0
 10
135.197490
 20
418.070294
 30
0.0
 10
138.001011
 20
418.773984
 30
0.0
 10
138.837205
 20
419.158524
 30
0.0
 10
139.565307
 20
419.664184
 30
0.0
 10
140.195740
 20
420.278724
 30
0.0
 10
140.738927
 20
420.989944
 30
0.0
 10
141.205292
 20
421.785634
 30
0.0
 10
141.605257
 20
422.653554
 30
0.0
 10
141.949245
 20
423.581514
 30
0.0
 10
142.247680
 20
424.557275
 30
0.0
 10
142.510984
 20
425.568635
 30
0.0
 10
142.749581
 20
426.603375
 30
0.0
 10
142.973893
 20
427.649275
 30
0.0
 10
143.194345
 20
428.694125
 30
0.0
 10
143.421358
 20
429.725695
 30
0.0
 10
143.665356
 20
430.731785
 30
0.0
 10
143.936762
 20
431.700175
 30
0.0
 10
144.245999
 20
432.618645
 30
0.0
 10
145.705107
 20
436.650735
 30
0.0
 10
147.091407
 20
440.706985
 30
0.0
 10
148.413860
 20
444.784455
 30
0.0
 10
149.681423
 20
448.880185
 30
0.0
 10
150.903057
 20
452.991235
 30
0.0
 10
152.087721
 20
457.114665
 30
0.0
 10
153.244374
 20
461.247515
 30
0.0
 10
154.381975
 20
465.386855
 30
0.0
 10
155.509484
 20
469.529725
 30
0.0
 10
156.635860
 20
473.673185
 30
0.0
 10
157.770061
 20
477.814285
 30
0.0
 10
158.921048
 20
481.950086
 30
0.0
 10
160.097780
 20
486.077636
 30
0.0
 10
161.309215
 20
490.193986
 30
0.0
 10
162.564314
 20
494.296196
 30
0.0
 10
163.872035
 20
498.381316
 30
0.0
 10
165.042791
 20
502.083749
 30
0.0
 10
166.150868
 20
505.821201
 30
0.0
 10
167.213583
 20
509.584612
 30
0.0
 10
168.248250
 20
513.364923
 30
0.0
 10
169.272187
 20
517.153074
 30
0.0
 10
170.302707
 20
520.940006
 30
0.0
 10
171.357128
 20
524.716659
 30
0.0
 10
172.452760
 20
528.473974
 30
0.0
 10
173.606930
 20
532.202893
 30
0.0
 10
174.836940
 20
535.894354
 30
0.0
 10
176.160121
 20
539.539300
 30
0.0
 10
177.593781
 20
543.128669
 30
0.0
 10
179.155221
 20
546.653404
 30
0.0
 10
180.861781
 20
550.104444
 30
0.0
 10
182.730771
 20
553.472729
 30
0.0
 10
184.779491
 20
556.749202
 30
0.0
 10
185.252501
 20
557.470967
 30
0.0
 10
185.738151
 20
558.222695
 30
0.0
 10
186.238011
 20
558.993642
 30
0.0
 10
186.753631
 20
559.773066
 30
0.0
 10
187.286571
 20
560.550222
 30
0.0
 10
187.838391
 20
561.314366
 30
0.0
 10
188.410641
 20
562.054755
 30
0.0
 10
189.004881
 20
562.760644
 30
0.0
 10
189.622681
 20
563.421291
 30
0.0
 10
190.265581
 20
564.025950
 30
0.0
 10
190.935151
 20
564.563879
 30
0.0
 10
191.632941
 20
565.024334
 30
0.0
 10
192.360511
 20
565.396570
 30
0.0
 10
193.119421
 20
565.669844
 30
0.0
 10
193.911221
 20
565.833413
 30
0.0
 10
194.737481
 20
565.876533
 30
0.0
 10
195.567911
 20
565.791923
 30
0.0
 10
196.356851
 20
565.587110
 30
0.0
 10
197.106601
 20
565.272954
 30
0.0
 10
197.819431
 20
564.860320
 30
0.0
 10
198.497641
 20
564.360073
 30
0.0
 10
199.143501
 20
563.783077
 30
0.0
 10
199.759291
 20
563.140197
 30
0.0
 10
200.347311
 20
562.442297
 30
0.0
 10
200.909841
 20
561.700242
 30
0.0
 10
201.449151
 20
560.924896
 30
0.0
 10
201.967541
 20
560.127123
 30
0.0
 10
202.467291
 20
559.317789
 30
0.0
 10
202.950681
 20
558.507758
 30
0.0
 10
203.419991
 20
557.707894
 30
0.0
 10
203.877511
 20
556.929062
 30
0.0
 10
204.325531
 20
556.182126
 30
0.0
 10
206.208641
 20
552.890918
 30
0.0
 10
207.907811
 20
549.515253
 30
0.0
 10
209.442451
 20
546.063993
 30
0.0
 10
210.831951
 20
542.546001
 30
0.0
 10
212.095741
 20
538.970141
 30
0.0
 10
213.253221
 20
535.345273
 30
0.0
 10
214.323791
 20
531.680262
 30
0.0
 10
215.326861
 20
527.983971
 30
0.0
 10
216.281841
 20
524.265262
 30
0.0
 10
217.208151
 20
520.532996
 30
0.0
 10
218.125181
 20
516.796039
 30
0.0
 10
219.052341
 20
513.063251
 30
0.0
 10
220.009041
 20
509.343496
 30
0.0
 10
221.014701
 20
505.645636
 30
0.0
 10
222.088711
 20
501.978534
 30
0.0
 10
223.250481
 20
498.351053
 30
0.0
 10
224.594391
 20
494.261053
 30
0.0
 10
225.891381
 20
490.150583
 30
0.0
 10
227.153231
 20
486.024703
 30
0.0
 10
228.391711
 20
481.888453
 30
0.0
 10
229.618631
 20
477.746882
 30
0.0
 10
230.845751
 20
473.605032
 30
0.0
 10
232.084852
 20
469.467962
 30
0.0
 10
233.347732
 20
465.340712
 30
0.0
 10
234.646172
 20
461.228332
 30
0.0
 10
235.991942
 20
457.135872
 30
0.0
 10
237.396832
 20
453.068372
 30
0.0
 10
238.872622
 20
449.030882
 30
0.0
 10
240.431102
 20
445.028452
 30
0.0
 10
242.084042
 20
441.066132
 30
0.0
 10
243.843242
 20
437.148962
 30
0.0
 10
245.720472
 20
433.282002
 30
0.0
 10
246.180542
 20
432.329902
 30
0.0
 10
246.626962
 20
431.338102
 30
0.0
 10
247.066372
 20
430.317822
 30
0.0
 10
247.505412
 20
429.280322
 30
0.0
 10
247.950712
 20
428.236802
 30
0.0
 10
248.408932
 20
427.198512
 30
0.0
 10
248.886692
 20
426.176692
 30
0.0
 10
249.390642
 20
425.182552
 30
0.0
 10
249.927422
 20
424.227352
 30
0.0
 10
250.503662
 20
423.322291
 30
0.0
 10
251.126012
 20
422.478631
 30
0.0
 10
251.801112
 20
421.707591
 30
0.0
 10
252.535592
 20
421.020411
 30
0.0
 10
253.336102
 20
420.428311
 30
0.0
 10
254.209282
 20
419.942531
 30
0.0
 10
255.161762
 20
419.574301
 30
0.0
 10
258.042622
 20
418.938651
 30
0.0
 10
260.899052
 20
418.776701
 30
0.0
 10
263.734612
 20
419.036481
 30
0.0
 10
266.552842
 20
419.666021
 30
0.0
 10
269.357282
 20
420.613341
 30
0.0
 10
272.151492
 20
421.826471
 30
0.0
 10
274.939022
 20
423.253441
 30
0.0
 10
277.723402
 20
424.842282
 30
0.0
 10
280.508182
 20
426.541012
 30
0.0
 10
283.296922
 20
428.297672
 30
0.0
 10
286.093152
 20
430.060282
 30
0.0
 10
288.900433
 20
431.776862
 30
0.0
 10
291.722303
 20
433.395452
 30
0.0
 10
294.562313
 20
434.864082
 30
0.0
 10
297.424003
 20
436.130762
 30
0.0
 10
300.310923
 20
437.143542
 30
0.0
 10
301.645773
 20
437.546012
 30
0.0
 10
302.983783
 20
437.952332
 30
0.0
 10
304.325013
 20
438.358502
 30
0.0
 10
305.669543
 20
438.760522
 30
0.0
 10
307.017443
 20
439.154362
 30
0.0
 10
308.368773
 20
439.536042
 30
0.0
 10
309.723613
 20
439.901522
 30
0.0
 10
311.082043
 20
440.246822
 30
0.0
 10
312.444113
 20
440.567922
 30
0.0
 10
313.809913
 20
440.860802
 30
0.0
 10
315.179503
 20
441.121472
 30
0.0
 10
316.552963
 20
441.345922
 30
0.0
 10
317.930363
 20
441.530132
 30
0.0
 10
319.311763
 20
441.670092
 30
0.0
 10
320.697243
 20
441.761792
 30
0.0
 10
322.086873
 20
441.801292
 30
0.0
 10
323.722593
 20
441.821392
 30
0.0
 10
325.391063
 20
441.846692
 30
0.0
 10
327.083873
 20
441.866592
 30
0.0
 10
328.792573
 20
441.870592
 30
0.0
 10
330.508743
 20
441.848092
 30
0.0
 10
332.223963
 20
441.788592
 30
0.0
 10
333.929803
 20
441.681392
 30
0.0
 10
335.617833
 20
441.515982
 30
0.0
 10
337.279623
 20
441.281782
 30
0.0
 10
338.906753
 20
440.968202
 30
0.0
 10
340.490803
 20
440.564692
 30
0.0
 10
342.023323
 20
440.060652
 30
0.0
 10
343.495913
 20
439.445522
 30
0.0
 10
344.900134
 20
438.708722
 30
0.0
 10
346.227544
 20
437.839682
 30
0.0
 10
347.469744
 20
436.827832
 30
0.0
 10
348.717554
 20
435.576602
 30
0.0
 10
349.835664
 20
434.217782
 30
0.0
 10
350.830714
 20
432.761532
 30
0.0
 10
351.709334
 20
431.218032
 30
0.0
 10
352.478164
 20
429.597472
 30
0.0
 10
353.143864
 20
427.910002
 30
0.0
 10
353.713054
 20
426.165812
 30
0.0
 10
354.192384
 20
424.375072
 30
0.0
 10
354.588494
 20
422.547951
 30
0.0
 10
354.908024
 20
420.694631
 30
0.0
 10
355.157614
 20
418.825281
 30
0.0
 10
355.343904
 20
416.950091
 30
0.0
 10
355.473544
 20
415.079211
 30
0.0
 10
355.553144
 20
413.222831
 30
0.0
 10
355.589344
 20
411.391121
 30
0.0
 10
355.588854
 20
409.594251
 30
0.0
 10
355.528654
 20
407.911231
 30
0.0
 10
355.383274
 20
406.234891
 30
0.0
 10
355.158054
 20
404.565981
 30
0.0
 10
354.858344
 20
402.905261
 30
0.0
 10
354.489474
 20
401.253471
 30
0.0
 10
354.056814
 20
399.611371
 30
0.0
 10
353.565694
 20
397.979721
 30
0.0
 10
353.021464
 20
396.359261
 30
0.0
 10
352.429484
 20
394.750751
 30
0.0
 10
351.795084
 20
393.154931
 30
0.0
 10
351.123624
 20
391.572571
 30
0.0
 10
350.420454
 20
390.004411
 30
0.0
 10
349.690914
 20
388.451211
 30
0.0
 10
348.940354
 20
386.913721
 30
0.0
 10
348.174124
 20
385.392681
 30
0.0
 10
347.397564
 20
383.888861
 30
0.0
 10
346.918324
 20
383.025571
 30
0.0
 10
346.399324
 20
382.188041
 30
0.0
 10
345.845584
 20
381.372981
 30
0.0
 10
345.262154
 20
380.577061
 30
0.0
 10
344.654043
 20
379.796991
 30
0.0
 10
344.026303
 20
379.029461
 30
0.0
 10
343.383953
 20
378.271161
 30
0.0
 10
342.732023
 20
377.518801
 30
0.0
 10
342.075553
 20
376.769051
 30
0.0
 10
341.419573
 20
376.018621
 30
0.0
 10
340.769103
 20
375.264211
 30
0.0
 10
340.129173
 20
374.502491
 30
0.0
 10
339.504833
 20
373.730181
 30
0.0
 10
338.901103
 20
372.943961
 30
0.0
 10
338.323013
 20
372.140521
 30
0.0
 10
337.775593
 20
371.316571
 30
0.0
 10
337.465853
 20
370.851981
 30
0.0
 10
337.131683
 20
370.387621
 30
0.0
 10
336.779913
 20
369.922751
 30
0.0
 10
336.417393
 20
369.456621
 30
0.0
 10
336.050973
 20
368.988491
 30
0.0
 10
335.687493
 20
368.517601
 30
0.0
 10
335.333793
 20
368.043211
 30
0.0
 10
334.996713
 20
367.564571
 30
0.0
 10
334.683113
 20
367.080940
 30
0.0
 10
334.399823
 20
366.591560
 30
0.0
 10
334.153703
 20
366.095690
 30
0.0
 10
333.951573
 20
365.592590
 30
0.0
 10
333.800293
 20
365.081500
 30
0.0
 10
333.706693
 20
364.561680
 30
0.0
 10
333.677593
 20
364.032380
 30
0.0
 10
333.719893
 20
363.492850
 30
0.0
 10
333.819693
 20
363.040940
 30
0.0
 10
333.977413
 20
362.617160
 30
0.0
 10
334.187223
 20
362.218740
 30
0.0
 10
334.443243
 20
361.842880
 30
0.0
 10
334.739613
 20
361.486780
 30
0.0
 10
335.070433
 20
361.147670
 30
0.0
 10
335.429853
 20
360.822730
 30
0.0
 10
335.811973
 20
360.509200
 30
0.0
 10
336.210923
 20
360.204260
 30
0.0
 10
336.620843
 20
359.905150
 30
0.0
 10
337.035833
 20
359.609050
 30
0.0
 10
337.450033
 20
359.313180
 30
0.0
 10
337.857553
 20
359.014760
 30
0.0
 10
338.252533
 20
358.710980
 30
0.0
 10
338.629083
 20
358.399060
 30
0.0
 10
338.981333
 20
358.076210
 30
0.0
 10
340.479233
 20
356.681210
 30
0.0
 10
342.039233
 20
355.337130
 30
0.0
 10
343.648143
 20
354.033430
 30
0.0
 10
345.292754
 20
352.759530
 30
0.0
 10
346.959854
 20
351.504880
 30
0.0
 10
348.636244
 20
350.258910
 30
0.0
 10
350.308714
 20
349.011050
 30
0.0
 10
351.964074
 20
347.750760
 30
0.0
 10
353.589094
 20
346.467460
 30
0.0
 10
355.170594
 20
345.150600
 30
0.0
 10
356.695364
 20
343.789600
 30
0.0
 10
358.150184
 20
342.373920
 30
0.0
 10
359.521874
 20
340.892980
 30
0.0
 10
360.797204
 20
339.336230
 30
0.0
 10
361.962984
 20
337.693100
 30
0.0
 10
363.006014
 20
335.953030
 30
0.0
 10
364.061594
 20
333.934690
 30
0.0
 10
365.057584
 20
331.857070
 30
0.0
 10
365.987664
 20
329.726840
 30
0.0
 10
366.845494
 20
327.550680
 30
0.0
 10
367.624734
 20
325.335260
 30
0.0
 10
368.319064
 20
323.087260
 30
0.0
 10
368.922154
 20
320.813360
 30
0.0
 10
369.427644
 20
318.520240
 30
0.0
 10
369.829234
 20
316.214580
 30
0.0
 10
370.120574
 20
313.903040
 30
0.0
 10
370.295334
 20
311.592320
 30
0.0
 10
370.347234
 20
309.289079
 30
0.0
 10
370.269834
 20
306.999999
 30
0.0
 10
370.056864
 20
304.731759
 30
0.0
 10
369.701974
 20
302.491039
 30
0.0
 10
369.198844
 20
300.284519
 30
0.0
 10
368.751154
 20
298.803389
 30
0.0
 10
368.204154
 20
297.351599
 30
0.0
 10
367.563794
 20
295.931119
 30
0.0
 10
366.836014
 20
294.543859
 30
0.0
 10
366.026774
 20
293.191769
 30
0.0
 10
365.142014
 20
291.876789
 30
0.0
 10
364.187704
 20
290.600859
 30
0.0
 10
363.169764
 20
289.365919
 30
0.0
 10
362.094164
 20
288.173899
 30
0.0
 10
360.966854
 20
287.026749
 30
0.0
 10
359.793774
 20
285.926409
 30
0.0
 10
358.580874
 20
284.874809
 30
0.0
 10
357.334104
 20
283.873889
 30
0.0
 10
356.059424
 20
282.925599
 30
0.0
 10
354.762764
 20
282.031869
 30
0.0
 10
353.450094
 20
281.194639
 30
0.0
 10
351.768914
 20
280.260019
 30
0.0
 10
350.031074
 20
279.469209
 30
0.0
 10
348.242764
 20
278.806099
 30
0.0
 10
346.410134
 20
278.254559
 30
0.0
 10
344.539363
 20
277.798459
 30
0.0
 10
342.636623
 20
277.421689
 30
0.0
 10
340.708093
 20
277.108119
 30
0.0
 10
338.759933
 20
276.841629
 30
0.0
 10
336.798323
 20
276.606099
 30
0.0
 10
334.829423
 20
276.385409
 30
0.0
 10
332.859413
 20
276.163429
 30
0.0
 10
330.894463
 20
275.924029
 30
0.0
 10
328.940743
 20
275.651109
 30
0.0
 10
327.004423
 20
275.328539
 30
0.0
 10
325.091673
 20
274.940179
 30
0.0
 10
323.208673
 20
274.469929
 30
0.0
 10
322.535323
 20
274.309249
 30
0.0
 10
321.825973
 20
274.182589
 30
0.0
 10
321.089233
 20
274.081149
 30
0.0
 10
320.333703
 20
273.996049
 30
0.0
 10
319.567963
 20
273.918649
 30
0.0
 10
318.800623
 20
273.839949
 30
0.0
 10
318.040283
 20
273.751249
 30
0.0
 10
317.295533
 20
273.643739
 30
0.0
 10
316.574973
 20
273.508589
 30
0.0
 10
315.887203
 20
273.336999
 30
0.0
 10
315.240813
 20
273.120149
 30
0.0
 10
314.644413
 20
272.849229
 30
0.0
 10
314.106593
 20
272.515449
 30
0.0
 10
313.635953
 20
272.109989
 30
0.0
 10
313.241083
 20
271.624039
 30
0.0
 10
312.930593
 20
271.048789
 30
0.0
 10
312.590753
 20
269.996369
 30
0.0
 10
312.454603
 20
268.943469
 30
0.0
 10
312.502203
 20
267.890739
 30
0.0
 10
312.713703
 20
266.838859
 30
0.0
 10
313.069153
 20
265.788489
 30
0.0
 10
313.548643
 20
264.740299
 30
0.0
 10
314.132263
 20
263.694949
 30
0.0
 10
314.800103
 20
262.653099
 30
0.0
 10
315.532253
 20
261.615429
 30
0.0
 10
316.308793
 20
260.582609
 30
0.0
 10
317.109813
 20
259.555279
 30
0.0
 10
317.915403
 20
258.534139
 30
0.0
 10
318.705653
 20
257.519819
 30
0.0
 10
319.460643
 20
256.513019
 30
0.0
 10
320.160473
 20
255.514379
 30
0.0
 10
320.785213
 20
254.524579
 30
0.0
 10
321.932393
 20
252.625748
 30
0.0
 10
323.117613
 20
250.751718
 30
0.0
 10
324.336863
 20
248.899868
 30
0.0
 10
325.586113
 20
247.067558
 30
0.0
 10
326.861363
 20
245.252178
 30
0.0
 10
328.158593
 20
243.451108
 30
0.0
 10
329.473793
 20
241.661718
 30
0.0
 10
330.802933
 20
239.881398
 30
0.0
 10
332.142003
 20
238.107508
 30
0.0
 10
333.487003
 20
236.337438
 30
0.0
 10
334.833893
 20
234.568568
 30
0.0
 10
336.178683
 20
232.798278
 30
0.0
 10
337.517343
 20
231.023928
 30
0.0
 10
338.845853
 20
229.242918
 30
0.0
 10
340.160213
 20
227.452608
 30
0.0
 10
341.456393
 20
225.650388
 30
0.0
 10
343.180093
 20
223.263198
 30
0.0
 10
344.936444
 20
220.895698
 30
0.0
 10
346.717694
 20
218.543188
 30
0.0
 10
348.516044
 20
216.200948
 30
0.0
 10
350.323734
 20
213.864258
 30
0.0
 10
352.132984
 20
211.528408
 30
0.0
 10
353.936024
 20
209.188688
 30
0.0
 10
355.725084
 20
206.840388
 30
0.0
 10
357.492374
 20
204.478788
 30
0.0
 10
359.230144
 20
202.099178
 30
0.0
 10
360.930594
 20
199.696858
 30
0.0
 10
362.585974
 20
197.267087
 30
0.0
 10
364.188494
 20
194.805177
 30
0.0
 10
365.730384
 20
192.306397
 30
0.0
 10
367.203864
 20
189.766057
 30
0.0
 10
368.601174
 20
187.179417
 30
0.0
 10
370.354034
 20
183.829267
 30
0.0
 10
372.131204
 20
180.455367
 30
0.0
 10
373.913634
 20
177.057347
 30
0.0
 10
375.682254
 20
173.634797
 30
0.0
 10
377.418014
 20
170.187327
 30
0.0
 10
379.101834
 20
166.714567
 30
0.0
 10
380.714664
 20
163.216107
 30
0.0
 10
382.237444
 20
159.691557
 30
0.0
 10
383.651104
 20
156.140537
 30
0.0
 10
384.936584
 20
152.562647
 30
0.0
 10
386.074824
 20
148.957497
 30
0.0
 10
387.046764
 20
145.324707
 30
0.0
 10
387.833344
 20
141.663877
 30
0.0
 10
388.415504
 20
137.974616
 30
0.0
 10
388.774164
 20
134.256536
 30
0.0
 10
388.890284
 20
130.509246
 30
0.0
 10
388.778404
 20
127.445646
 30
0.0
 10
388.471504
 20
124.405476
 30
0.0
 10
387.984444
 20
121.388706
 30
0.0
 10
387.332084
 20
118.395306
 30
0.0
 10
386.529294
 20
115.425246
 30
0.0
 10
385.590934
 20
112.478486
 30
0.0
 10
384.531874
 20
109.555006
 30
0.0
 10
383.366984
 20
106.654756
 30
0.0
 10
382.111114
 20
103.777726
 30
0.0
 10
380.779144
 20
100.923866
 30
0.0
 10
379.385924
 20
98.093146
 30
0.0
 10
377.946324
 20
95.285546
 30
0.0
 10
376.475214
 20
92.501016
 30
0.0
 10
374.987454
 20
89.739536
 30
0.0
 10
373.497904
 20
87.001076
 30
0.0
 10
372.021444
 20
84.285595
 30
0.0
 10
370.751664
 20
81.980765
 30
0.0
 10
369.445424
 20
79.689465
 30
0.0
 10
368.101774
 20
77.414555
 30
0.0
 10
366.719794
 20
75.158905
 30
0.0
 10
365.298544
 20
72.925385
 30
0.0
 10
363.837094
 20
70.716865
 30
0.0
 10
362.334524
 20
68.536205
 30
0.0
 10
360.789884
 20
66.386275
 30
0.0
 10
359.202244
 20
64.269955
 30
0.0
 10
357.570684
 20
62.190105
 30
0.0
 10
355.894264
 20
60.149605
 30
0.0
 10
354.172054
 20
58.151295
 30
0.0
 10
352.403124
 20
56.198075
 30
0.0
 10
350.586534
 20
54.292795
 30
0.0
 10
348.721354
 20
52.438335
 30
0.0
 10
346.806664
 20
50.637555
 30
0.0
 10
343.941333
 20
48.081545
 30
0.0
 10
341.010143
 20
45.590585
 30
0.0
 10
338.015823
 20
43.166155
 30
0.0
 10
334.961103
 20
40.809765
 30
0.0
 10
331.848713
 20
38.522895
 30
0.0
 10
328.681403
 20
36.307055
 30
0.0
 10
325.461883
 20
34.163725
 30
0.0
 10
322.192903
 20
32.094405
 30
0.0
 10
318.877183
 20
30.100585
 30
0.0
 10
315.517463
 20
28.183764
 30
0.0
 10
312.116473
 20
26.345444
 30
0.0
 10
308.676953
 20
24.587094
 30
0.0
 10
305.201633
 20
22.910234
 30
0.0
 10
301.693233
 20
21.316344
 30
0.0
 10
298.154503
 20
19.806924
 30
0.0
 10
294.588163
 20
18.383464
 30
0.0
 10
288.654333
 20
16.178234
 30
0.0
 10
282.659102
 20
14.113294
 30
0.0
 10
276.607442
 20
12.188734
 30
0.0
 10
270.504372
 20
10.404704
 30
0.0
 10
264.354852
 20
8.761304
 30
0.0
 10
258.163902
 20
7.258674
 30
0.0
 10
251.936502
 20
5.896914
 30
0.0
 10
245.677652
 20
4.676154
 30
0.0
 10
239.392332
 20
3.596524
 30
0.0
 10
233.085542
 20
2.658134
 30
0.0
 10
226.762281
 20
1.861104
 30
0.0
 10
220.427521
 20
1.205554
 30
0.0
 10
214.086271
 20
0.691614
 30
0.0
 10
207.743521
 20
0.319404
 30
0.0
 10
201.404271
 20
0.089034
 30
0.0
 10
195.073491
 20
0.000634
 30
0.0
 10
189.182821
 20
0.053534
 30
0.0
 10
183.285471
 20
0.243704
 30
0.0
 10
177.385641
 20
0.569844
 30
0.0
 10
171.487536
 20
1.030694
 30
0.0
 10
165.595348
 20
1.624944
 30
0.0
 10
159.713275
 20
2.351324
 30
0.0
 10
153.845514
 20
3.208534
 30
0.0
 10
147.996264
 20
4.195294
 30
0.0
 10
142.169722
 20
5.310304
 30
0.0
 10
136.370086
 20
6.552304
 30
0.0
 10
130.601553
 20
7.919984
 30
0.0
 10
124.868321
 20
9.412064
 30
0.0
 10
119.174587
 20
11.027254
 30
0.0
 10
113.524549
 20
12.764274
 30
0.0
 10
107.922405
 20
14.621824
 30
0.0
  0
LWPOLYLINE
  5
101
100
AcDbEntity
  8
Calque_1
 62
1
100
AcDbPolyline
 90
2
 70
0
 10
195.668718
 20
636.520999
 30
0.0
 10
195.212418
 20
-102.905395
 30
0.0
  0
LWPOLYLINE
  5
102
100
AcDbEntity
  8
Calque_1
 62
1
100
AcDbPolyline
 90
2
 70
0
 10
196.489988
 20
179.846930
 30
0.0
 10
368.920512
 20
179.846920
 30
0.0
  0
ENDSEC
  0
SECTION
  2
OBJECTS
  0
DICTIONARY
  5
C
330
0
100
AcDbDictionary
  3
ACAD_GROUP
350
D
  3
ACAD_MLINESTYLE
350
17
  0
DICTIONARY
  5
D
330
C
100
AcDbDictionary
  0
DICTIONARY
  5
1A
330
C
100
AcDbDictionary
  0
DICTIONARY
  5
17
330
C
100
AcDbDictionary
  3
STANDARD
350
18
  0
DICTIONARY
  5
19
330
C
100
AcDbDictionary
  0
ENDSEC
  0
EOF
