  0
SECTION
  2
HEADER
  9
$ACADVER
  1
AC1014
  9
$HANDSEED
  5
FFFF
  9
$MEASUREMENT
 70
     1
  0
ENDSEC
  0
SECTION
  2
TABLES
  0
TABLE
  2
VPORT
  5
8
330
0
100
AcDbSymbolTable
 70
     4
  0
VPORT
  5
2E
330
8
100
AcDbSymbolTableRecord
100
AcDbViewportTableRecord
  2
*ACTIVE
 70
     0
 10
0.0
 20
0.0
 11
1.0
 21
1.0
 12
210.0
 22
148.5
 13
0.0
 23
0.0
 14
10.0
 24
10.0
 15
10.0
 25
10.0
 16
0.0
 26
0.0
 36
1.0
 17
0.0
 27
0.0
 37
0.0
 40
341.0
 41
1.24
 42
50.0
 43
0.0
 44
0.0
 50
0.0
 51
0.0
 71
     0
 72
   100
 73
     1
 74
     3
 75
     0
 76
     0
 77
     0
 78
     0
  0
ENDTAB
  0
TABLE
  2
LTYPE
  5
5
330
0
100
AcDbSymbolTable
 70
     1
  0
LTYPE
  5
14
330
5
100
AcDbSymbolTableRecord
100
AcDbLinetypeTableRecord
  2
BYBLOCK
 70
     0
  3

 72
    65
 73
     0
 40
0.0
  0
LTYPE
  5
15
330
5
100
AcDbSymbolTableRecord
100
AcDbLinetypeTableRecord
  2
BYLAYER
 70
     0
  3

 72
    65
 73
     0
 40
0.0
  0
LTYPE
  5
16
330
5
100
AcDbSymbolTableRecord
100
AcDbLinetypeTableRecord
  2
CONTINUOUS
 70
     0
  3
Solid line
 72
    65
 73
     0
 40
0.0
  0
ENDTAB
  0
TABLE
  2
LAYER
  5
2
100
AcDbSymbolTable
 70
1
  0
LAYER
  5
50
100
AcDbSymbolTableRecord
100
AcDbLayerTableRecord
  2
0
 70
0
  6
CONTINUOUS
  0
ENDTAB
  0
TABLE
  2
STYLE
  5
3
330
0
100
AcDbSymbolTable
 70
     1
  0
STYLE
  5
11
330
3
100
AcDbSymbolTableRecord
100
AcDbTextStyleTableRecord
  2
STANDARD
 70
     0
 40
0.0
 41
1.0
 50
0.0
 71
     0
 42
2.5
  3
txt
  4

  0
ENDTAB
  0
TABLE
  2
VIEW
  5
6
330
0
100
AcDbSymbolTable
 70
     0
  0
ENDTAB
  0
TABLE
  2
UCS
  5
7
330
0
100
AcDbSymbolTable
 70
     0
  0
ENDTAB
  0
TABLE
  2
APPID
  5
9
330
0
100
AcDbSymbolTable
 70
     2
  0
APPID
  5
12
330
9
100
AcDbSymbolTableRecord
100
AcDbRegAppTableRecord
  2
ACAD
 70
     0
  0
ENDTAB
  0
TABLE
  2
DIMSTYLE
  5
A
330
0
100
AcDbSymbolTable
 70
     1
  0
DIMSTYLE
105
27
330
A
100
AcDbSymbolTableRecord
100
AcDbDimStyleTableRecord
  2
ISO-25
 70
     0
  3

  4

  5

  6

  7

 40
1.0
 41
2.5
 42
0.625
 43
3.75
 44
1.25
 45
0.0
 46
0.0
 47
0.0
 48
0.0
140
2.5
141
2.5
142
0.0
143
0.03937007874016
144
1.0
145
0.0
146
1.0
147
0.625
 71
     0
 72
     0
 73
     0
 74
     0
 75
     0
 76
     0
 77
     1
 78
     8
170
     0
171
     3
172
     1
173
     0
174
     0
175
     0
176
     0
177
     0
178
     0
270
     2
271
     2
272
     2
273
     2
274
     3
340
11
275
     0
280
     0
281
     0
282
     0
283
     0
284
     8
285
     0
286
     0
287
     3
288
     0
  0
ENDTAB
  0
TABLE
  2
BLOCK_RECORD
  5
1
330
0
100
AcDbSymbolTable
 70
     1
  0
BLOCK_RECORD
  5
1F
330
1
100
AcDbSymbolTableRecord
100
AcDbBlockTableRecord
  2
*MODEL_SPACE
  0
BLOCK_RECORD
  5
1B
330
1
100
AcDbSymbolTableRecord
100
AcDbBlockTableRecord
  2
*PAPER_SPACE
  0
ENDTAB
  0
ENDSEC
  0
SECTION
  2
BLOCKS
  0
BLOCK
  5
20
330
1F
100
AcDbEntity
  8
0
100
AcDbBlockBegin
  2
*MODEL_SPACE
 70
     0
 10
0.0
 20
0.0
 30
0.0
  3
*MODEL_SPACE
  1

  0
ENDBLK
  5
21
330
1F
100
AcDbEntity
  8
0
100
AcDbBlockEnd
  0
BLOCK
  5
1C
330
1B
100
AcDbEntity
 67
     1
  8
0
100
AcDbBlockBegin
  2
*PAPER_SPACE
  1

  0
ENDBLK
  5
1D
330
1B
100
AcDbEntity
 67
     1
  8
0
100
AcDbBlockEnd
  0
ENDSEC
  0
SECTION
  2
ENTITIES
  0
LWPOLYLINE
  5
100
100
AcDbEntity
  8
0
 62
7
100
AcDbPolyline
 90
816
 70
1
 10
8.547282
 20
231.664944
 30
0.0
 10
0.384863
 20
228.888020
 30
0.0
 10
-7.919933
 20
226.067501
 30
0.0
 10
-16.348682
 20
223.202590
 30
0.0
 10
-24.882963
 20
220.292485
 30
0.0
 10
-33.504352
 20
217.336394
 30
0.0
 10
-42.194430
 20
214.333516
 30
0.0
 10
-50.934768
 20
211.283053
 30
0.0
 10
-59.706949
 20
208.184208
 30
0.0
 10
-61.005193
 20
205.855858
 30
0.0
 10
-62.033883
 20
203.236520
 30
0.0
 10
-62.774674
 20
200.356097
 30
0.0
 10
-63.209226
 20
197.244496
 30
0.0
 10
-63.319197
 20
193.931623
 30
0.0
 10
-63.086245
 20
190.447387
 30
0.0
 10
-62.492030
 20
186.821693
 30
0.0
 10
-61.518210
 20
183.084448
 30
0.0
 10
-60.282114
 20
179.206706
 30
0.0
 10
-58.724464
 20
175.442110
 30
0.0
 10
-56.908348
 20
171.865484
 30
0.0
 10
-54.896856
 20
168.551654
 30
0.0
 10
-52.753080
 20
165.575444
 30
0.0
 10
-50.540108
 20
163.011678
 30
0.0
 10
-48.321031
 20
160.935180
 30
0.0
 10
-46.158938
 20
159.420776
 30
0.0
 10
-42.081773
 20
160.972758
 30
0.0
 10
-38.252445
 20
162.429649
 30
0.0
 10
-34.650344
 20
163.779824
 30
0.0
 10
-31.254864
 20
165.011656
 30
0.0
 10
-28.045397
 20
166.113521
 30
0.0
 10
-25.001333
 20
167.073794
 30
0.0
 10
-22.102066
 20
167.880850
 30
0.0
 10
-19.326986
 20
168.523063
 30
0.0
 10
-18.911061
 20
168.480985
 30
0.0
 10
-18.545097
 20
168.279674
 30
0.0
 10
-18.166047
 20
167.762376
 30
0.0
 10
-17.710865
 20
166.772339
 30
0.0
 10
-17.116504
 20
165.152809
 30
0.0
 10
-16.319918
 20
162.747033
 30
0.0
 10
-15.258062
 20
159.398259
 30
0.0
 10
-13.867887
 20
154.949731
 30
0.0
 10
-11.901965
 20
148.295977
 30
0.0
 10
-10.021319
 20
141.730180
 30
0.0
 10
-8.209975
 20
135.241644
 30
0.0
 10
-6.451956
 20
128.819664
 30
0.0
 10
-4.731286
 20
122.453546
 30
0.0
 10
-3.031990
 20
116.132589
 30
0.0
 10
-1.338091
 20
109.846091
 30
0.0
 10
0.366386
 20
103.583356
 30
0.0
 10
0.309318
 20
103.276921
 30
0.0
 10
0.259986
 20
102.945520
 30
0.0
 10
0.217294
 20
102.583805
 30
0.0
 10
0.180148
 20
102.186430
 30
0.0
 10
0.147452
 20
101.748050
 30
0.0
 10
0.118111
 20
101.263323
 30
0.0
 10
0.091030
 20
100.726901
 30
0.0
 10
0.065112
 20
100.133438
 30
0.0
 10
0.095474
 20
99.333481
 30
0.0
 10
0.230898
 20
98.556212
 30
0.0
 10
0.465594
 20
97.802258
 30
0.0
 10
0.793769
 20
97.072244
 30
0.0
 10
1.209629
 20
96.366790
 30
0.0
 10
1.707384
 20
95.686528
 30
0.0
 10
2.281239
 20
95.032081
 30
0.0
 10
2.925403
 20
94.404072
 30
0.0
 10
3.736365
 20
91.562764
 30
0.0
 10
4.558938
 20
88.719919
 30
0.0
 10
5.394722
 20
85.874535
 30
0.0
 10
6.245317
 20
83.025610
 30
0.0
 10
7.112324
 20
80.172139
 30
0.0
 10
7.997344
 20
77.313129
 30
0.0
 10
8.901977
 20
74.447567
 30
0.0
 10
9.827824
 20
71.574459
 30
0.0
 10
10.977694
 20
68.865443
 30
0.0
 10
13.367598
 20
67.424329
 30
0.0
 10
16.504651
 20
67.099254
 30
0.0
 10
19.895969
 20
67.738350
 30
0.0
 10
23.048668
 20
69.189759
 30
0.0
 10
25.469864
 20
71.301610
 30
0.0
 10
26.666672
 20
73.922046
 30
0.0
 10
26.146208
 20
76.899198
 30
0.0
 10
25.853216
 20
78.313201
 30
0.0
 10
25.554537
 20
79.718088
 30
0.0
 10
25.250335
 20
81.114188
 30
0.0
 10
24.940776
 20
82.501833
 30
0.0
 10
24.626028
 20
83.881357
 30
0.0
 10
24.306255
 20
85.253087
 30
0.0
 10
23.981625
 20
86.617355
 30
0.0
 10
23.652303
 20
87.974490
 30
0.0
 10
27.399440
 20
87.556742
 30
0.0
 10
31.029545
 20
87.115105
 30
0.0
 10
34.434227
 20
86.649047
 30
0.0
 10
37.505098
 20
86.158038
 30
0.0
 10
40.133757
 20
85.641550
 30
0.0
 10
42.211818
 20
85.099054
 30
0.0
 10
43.630884
 20
84.530017
 30
0.0
 10
44.282569
 20
83.933911
 30
0.0
 10
45.858785
 20
82.902737
 30
0.0
 10
46.942158
 20
81.713528
 30
0.0
 10
47.576346
 20
80.380800
 30
0.0
 10
47.804996
 20
78.919075
 30
0.0
 10
47.671762
 20
77.342876
 30
0.0
 10
47.220296
 20
75.666719
 30
0.0
 10
46.494248
 20
73.905126
 30
0.0
 10
45.537273
 20
72.072619
 30
0.0
 10
38.395979
 20
66.909871
 30
0.0
 10
31.798406
 20
61.064505
 30
0.0
 10
26.009991
 20
54.886675
 30
0.0
 10
21.296168
 20
48.726527
 30
0.0
 10
17.922374
 20
42.934218
 30
0.0
 10
16.154043
 20
37.859893
 30
0.0
 10
16.256611
 20
33.853705
 30
0.0
 10
18.495512
 20
31.265807
 30
0.0
 10
18.993205
 20
30.931318
 30
0.0
 10
19.517642
 20
30.604542
 30
0.0
 10
20.068355
 20
30.285415
 30
0.0
 10
20.644874
 20
29.973876
 30
0.0
 10
21.246730
 20
29.669864
 30
0.0
 10
21.873452
 20
29.373322
 30
0.0
 10
22.524571
 20
29.084185
 30
0.0
 10
23.199618
 20
28.802393
 30
0.0
 10
22.955272
 20
28.183504
 30
0.0
 10
22.722930
 20
27.598431
 30
0.0
 10
22.505557
 20
27.054770
 30
0.0
 10
22.306118
 20
26.560132
 30
0.0
 10
22.127578
 20
26.122111
 30
0.0
 10
21.972900
 20
25.748316
 30
0.0
 10
21.845050
 20
25.446342
 30
0.0
 10
21.746993
 20
25.223798
 30
0.0
 10
20.871570
 20
23.199397
 30
0.0
 10
19.835213
 20
20.639363
 30
0.0
 10
18.710153
 20
17.739445
 30
0.0
 10
17.568619
 20
14.695400
 30
0.0
 10
16.482840
 20
11.702976
 30
0.0
 10
15.525046
 20
8.957934
 30
0.0
 10
14.767467
 20
6.656020
 30
0.0
 10
14.282332
 20
4.992992
 30
0.0
 10
14.068882
 20
4.058002
 30
0.0
 10
13.932185
 20
3.230854
 30
0.0
 10
13.872692
 20
2.506980
 30
0.0
 10
13.890850
 20
1.881820
 30
0.0
 10
13.987107
 20
1.350806
 30
0.0
 10
14.161914
 20
0.909376
 30
0.0
 10
14.415719
 20
0.552963
 30
0.0
 10
14.748971
 20
0.277003
 30
0.0
 10
14.830943
 20
0.242379
 30
0.0
 10
14.912915
 20
0.207756
 30
0.0
 10
14.994887
 20
0.173133
 30
0.0
 10
15.076858
 20
0.138509
 30
0.0
 10
15.158830
 20
0.103886
 30
0.0
 10
15.240802
 20
0.069263
 30
0.0
 10
15.322774
 20
0.034639
 30
0.0
 10
15.404745
 20
0.000016
 30
0.0
 10
15.729592
 20
-0.041704
 30
0.0
 10
16.582745
 20
-0.060568
 30
0.0
 10
18.041319
 20
-0.061891
 30
0.0
 10
20.182429
 20
-0.051176
 30
0.0
 10
23.083191
 20
-0.033740
 30
0.0
 10
26.820718
 20
-0.014928
 30
0.0
 10
31.472127
 20
-0.000138
 30
0.0
 10
37.114531
 20
0.005286
 30
0.0
 10
40.850027
 20
0.004757
 30
0.0
 10
44.585523
 20
0.004228
 30
0.0
 10
48.321019
 20
0.003699
 30
0.0
 10
52.056512
 20
0.003170
 30
0.0
 10
55.792008
 20
0.002641
 30
0.0
 10
59.527504
 20
0.002111
 30
0.0
 10
63.263000
 20
0.001582
 30
0.0
 10
66.998496
 20
0.001053
 30
0.0
 10
67.093130
 20
0.100272
 30
0.0
 10
67.187761
 20
0.199491
 30
0.0
 10
67.282392
 20
0.298709
 30
0.0
 10
67.377025
 20
0.397928
 30
0.0
 10
67.471656
 20
0.497147
 30
0.0
 10
67.566289
 20
0.596366
 30
0.0
 10
67.660920
 20
0.695584
 30
0.0
 10
67.755554
 20
0.794803
 30
0.0
 10
68.147412
 20
1.542852
 30
0.0
 10
68.649232
 20
2.975779
 30
0.0
 10
69.228270
 20
4.902057
 30
0.0
 10
69.851779
 20
7.130150
 30
0.0
 10
70.487014
 20
9.468530
 30
0.0
 10
71.101237
 20
11.725669
 30
0.0
 10
71.661695
 20
13.710034
 30
0.0
 10
72.135649
 20
15.230097
 30
0.0
 10
72.312647
 20
15.747294
 30
0.0
 10
72.545073
 20
16.422375
 30
0.0
 10
72.829720
 20
17.237141
 30
0.0
 10
73.163386
 20
18.173388
 30
0.0
 10
73.542862
 20
19.212917
 30
0.0
 10
73.964944
 20
20.337523
 30
0.0
 10
74.426427
 20
21.529008
 30
0.0
 10
74.924109
 20
22.769171
 30
0.0
 10
77.297365
 20
22.782003
 30
0.0
 10
79.676036
 20
22.809099
 30
0.0
 10
82.057590
 20
22.850118
 30
0.0
 10
84.439491
 20
22.904723
 30
0.0
 10
86.819201
 20
22.972580
 30
0.0
 10
89.194188
 20
23.053358
 30
0.0
 10
91.561916
 20
23.146721
 30
0.0
 10
93.919850
 20
23.252340
 30
0.0
 10
94.235043
 20
22.250961
 30
0.0
 10
94.545476
 20
21.246380
 30
0.0
 10
94.854388
 20
20.239998
 30
0.0
 10
95.165009
 20
19.233216
 30
0.0
 10
95.480567
 20
18.227432
 30
0.0
 10
95.804298
 20
17.224050
 30
0.0
 10
96.139432
 20
16.224467
 30
0.0
 10
96.489201
 20
15.230089
 30
0.0
 10
97.268084
 20
12.943893
 30
0.0
 10
98.024549
 20
10.518627
 30
0.0
 10
98.746131
 20
8.078478
 30
0.0
 10
99.420358
 20
5.747634
 30
0.0
 10
100.034760
 20
3.650282
 30
0.0
 10
100.576870
 20
1.910609
 30
0.0
 10
101.034216
 20
0.652801
 30
0.0
 10
101.394330
 20
0.001045
 30
0.0
 10
101.449596
 20
-0.204600
 30
0.0
 10
101.402526
 20
-0.301077
 30
0.0
 10
101.739442
 20
-0.313513
 30
0.0
 10
102.946651
 20
-0.266996
 30
0.0
 10
105.510468
 20
-0.186656
 30
0.0
 10
109.917207
 20
-0.097599
 30
0.0
 10
116.653179
 20
-0.024942
 30
0.0
 10
126.204700
 20
0.006199
 30
0.0
 10
132.010439
 20
0.000828
 30
0.0
 10
137.087748
 20
-0.013936
 30
0.0
 10
141.426103
 20
-0.032747
 30
0.0
 10
145.014977
 20
-0.050210
 30
0.0
 10
147.843847
 20
-0.060926
 30
0.0
 10
149.902183
 20
-0.059603
 30
0.0
 10
151.179465
 20
-0.040738
 30
0.0
 10
151.665163
 20
0.000979
 30
0.0
 10
152.047639
 20
0.289422
 30
0.0
 10
152.433785
 20
0.678759
 30
0.0
 10
152.796770
 20
1.164029
 30
0.0
 10
153.109777
 20
1.740281
 30
0.0
 10
153.345979
 20
2.402557
 30
0.0
 10
153.478554
 20
3.145901
 30
0.0
 10
153.480670
 20
3.965361
 30
0.0
 10
153.325519
 20
4.855980
 30
0.0
 10
152.835349
 20
6.497783
 30
0.0
 10
152.059744
 20
8.835033
 30
0.0
 10
151.080849
 20
11.642889
 30
0.0
 10
149.980817
 20
14.696509
 30
0.0
 10
148.841794
 20
17.771052
 30
0.0
 10
147.745930
 20
20.641678
 30
0.0
 10
146.775372
 20
23.083544
 30
0.0
 10
146.012269
 20
24.871812
 30
0.0
 10
145.876810
 20
25.177636
 30
0.0
 10
145.705116
 20
25.579372
 30
0.0
 10
145.501416
 20
26.066419
 30
0.0
 10
145.269943
 20
26.628185
 30
0.0
 10
145.014922
 20
27.254078
 30
0.0
 10
144.740586
 20
27.933499
 30
0.0
 10
144.451163
 20
28.655857
 30
0.0
 10
144.150885
 20
29.410554
 30
0.0
 10
144.983431
 20
29.655603
 30
0.0
 10
145.762216
 20
29.902063
 30
0.0
 10
146.485637
 20
30.149752
 30
0.0
 10
147.152094
 20
30.398503
 30
0.0
 10
147.759982
 20
30.648140
 30
0.0
 10
148.307701
 20
30.898486
 30
0.0
 10
148.793643
 20
31.149369
 30
0.0
 10
149.216209
 20
31.400612
 30
0.0
 10
150.527423
 20
35.091531
 30
0.0
 10
149.889631
 20
39.420882
 30
0.0
 10
147.587148
 20
44.253970
 30
0.0
 10
143.904280
 20
49.456105
 30
0.0
 10
139.125334
 20
54.892591
 30
0.0
 10
133.534622
 20
60.428735
 30
0.0
 10
127.416452
 20
65.929846
 30
0.0
 10
121.055136
 20
71.261229
 30
0.0
 10
119.974207
 20
73.279474
 30
0.0
 10
119.178912
 20
75.246066
 30
0.0
 10
118.725517
 20
77.144414
 30
0.0
 10
118.670282
 20
78.957935
 30
0.0
 10
119.069478
 20
80.670035
 30
0.0
 10
119.979364
 20
82.264134
 30
0.0
 10
121.456210
 20
83.723639
 30
0.0
 10
123.556277
 20
85.031964
 30
0.0
 10
124.801782
 20
85.508317
 30
0.0
 10
127.259840
 20
85.992182
 30
0.0
 10
130.654267
 20
86.477745
 30
0.0
 10
134.708888
 20
86.959183
 30
0.0
 10
139.147522
 20
87.430681
 30
0.0
 10
143.693989
 20
87.886421
 30
0.0
 10
148.072108
 20
88.320581
 30
0.0
 10
152.005703
 20
88.727346
 30
0.0
 10
154.583290
 20
89.074400
 30
0.0
 10
157.341060
 20
89.609909
 30
0.0
 10
160.116293
 20
90.393763
 30
0.0
 10
162.746273
 20
91.485855
 30
0.0
 10
165.068275
 20
92.946074
 30
0.0
 10
166.919580
 20
94.834313
 30
0.0
 10
168.137465
 20
97.210457
 30
0.0
 10
168.559214
 20
100.134401
 30
0.0
 10
168.506059
 20
101.270162
 30
0.0
 10
168.443884
 20
102.196892
 30
0.0
 10
168.363525
 20
102.958387
 30
0.0
 10
168.255813
 20
103.598451
 30
0.0
 10
168.111578
 20
104.160881
 30
0.0
 10
167.921655
 20
104.689476
 30
0.0
 10
167.676876
 20
105.228035
 30
0.0
 10
167.368073
 20
105.820361
 30
0.0
 10
167.069808
 20
106.345527
 30
0.0
 10
166.747850
 20
106.865319
 30
0.0
 10
166.402386
 20
107.379558
 30
0.0
 10
166.033599
 20
107.888056
 30
0.0
 10
165.641680
 20
108.390627
 30
0.0
 10
165.226813
 20
108.887088
 30
0.0
 10
164.789184
 20
109.377252
 30
0.0
 10
164.328981
 20
109.860940
 30
0.0
 10
163.843746
 20
110.344286
 30
0.0
 10
163.332537
 20
110.829807
 30
0.0
 10
162.797811
 20
111.311878
 30
0.0
 10
162.242025
 20
111.784873
 30
0.0
 10
161.667635
 20
112.243172
 30
0.0
 10
161.077099
 20
112.681147
 30
0.0
 10
160.472875
 20
113.093180
 30
0.0
 10
159.857420
 20
113.473640
 30
0.0
 10
156.396799
 20
115.371195
 30
0.0
 10
152.844858
 20
117.092288
 30
0.0
 10
149.217368
 20
118.662852
 30
0.0
 10
145.530092
 20
120.108824
 30
0.0
 10
141.798800
 20
121.456135
 30
0.0
 10
138.039256
 20
122.730715
 30
0.0
 10
134.267232
 20
123.958503
 30
0.0
 10
130.498488
 20
125.165432
 30
0.0
 10
129.852968
 20
125.357715
 30
0.0
 10
129.201244
 20
125.527771
 30
0.0
 10
128.545144
 20
125.682229
 30
0.0
 10
127.886500
 20
125.827727
 30
0.0
 10
127.227148
 20
125.970887
 30
0.0
 10
126.568915
 20
126.118347
 30
0.0
 10
125.913640
 20
126.276738
 30
0.0
 10
125.263149
 20
126.452691
 30
0.0
 10
124.604297
 20
126.649356
 30
0.0
 10
123.948619
 20
126.856344
 30
0.0
 10
123.295432
 20
127.071408
 30
0.0
 10
122.644049
 20
127.292293
 30
0.0
 10
121.993780
 20
127.516750
 30
0.0
 10
121.343939
 20
127.742524
 30
0.0
 10
120.693840
 20
127.967364
 30
0.0
 10
120.042795
 20
128.189019
 30
0.0
 10
119.544013
 20
128.355008
 30
0.0
 10
119.044417
 20
128.518767
 30
0.0
 10
118.544587
 20
128.681895
 30
0.0
 10
118.045099
 20
128.845987
 30
0.0
 10
117.546534
 20
129.012643
 30
0.0
 10
117.049471
 20
129.183461
 30
0.0
 10
116.554486
 20
129.360038
 30
0.0
 10
116.062160
 20
129.543977
 30
0.0
 10
115.845207
 20
129.626267
 30
0.0
 10
115.622259
 20
129.710267
 30
0.0
 10
115.397397
 20
129.796156
 30
0.0
 10
115.174708
 20
129.884112
 30
0.0
 10
114.958274
 20
129.974314
 30
0.0
 10
114.752176
 20
130.066944
 30
0.0
 10
114.560499
 20
130.162184
 30
0.0
 10
114.387327
 20
130.260212
 30
0.0
 10
114.229820
 20
130.362344
 30
0.0
 10
114.082040
 20
130.470394
 30
0.0
 10
113.943446
 20
130.585300
 30
0.0
 10
113.813493
 20
130.707993
 30
0.0
 10
113.691644
 20
130.839406
 30
0.0
 10
113.577358
 20
130.980471
 30
0.0
 10
113.470090
 20
131.132120
 30
0.0
 10
113.369300
 20
131.295291
 30
0.0
 10
113.274457
 20
131.675542
 30
0.0
 10
113.185012
 20
132.404025
 30
0.0
 10
113.100428
 20
133.370061
 30
0.0
 10
113.020166
 20
134.462970
 30
0.0
 10
112.943691
 20
135.572069
 30
0.0
 10
112.870465
 20
136.586682
 30
0.0
 10
112.799951
 20
137.396125
 30
0.0
 10
112.731614
 20
137.889721
 30
0.0
 10
112.664915
 20
138.198627
 30
0.0
 10
112.599304
 20
138.528409
 30
0.0
 10
112.534235
 20
138.879995
 30
0.0
 10
112.469179
 20
139.254317
 30
0.0
 10
112.403597
 20
139.652304
 30
0.0
 10
112.336949
 20
140.074883
 30
0.0
 10
112.268699
 20
140.522986
 30
0.0
 10
112.198312
 20
140.997540
 30
0.0
 10
112.134500
 20
141.423496
 30
0.0
 10
112.068912
 20
141.843702
 30
0.0
 10
112.001486
 20
142.258277
 30
0.0
 10
111.932152
 20
142.667329
 30
0.0
 10
111.860855
 20
143.070972
 30
0.0
 10
111.787525
 20
143.469318
 30
0.0
 10
111.712103
 20
143.862481
 30
0.0
 10
111.634522
 20
144.250572
 30
0.0
 10
111.554742
 20
144.633700
 30
0.0
 10
111.472706
 20
145.011977
 30
0.0
 10
111.388362
 20
145.385521
 30
0.0
 10
111.301655
 20
145.754448
 30
0.0
 10
111.212536
 20
146.118873
 30
0.0
 10
111.120950
 20
146.478915
 30
0.0
 10
111.026848
 20
146.834688
 30
0.0
 10
110.930172
 20
147.186310
 30
0.0
 10
110.839267
 20
147.504747
 30
0.0
 10
110.746001
 20
147.819769
 30
0.0
 10
110.650370
 20
148.131499
 30
0.0
 10
110.552363
 20
148.440060
 30
0.0
 10
110.451975
 20
148.745576
 30
0.0
 10
110.349192
 20
149.048168
 30
0.0
 10
110.244012
 20
149.347960
 30
0.0
 10
110.136422
 20
149.645075
 30
0.0
 10
110.170691
 20
149.665016
 30
0.0
 10
110.205182
 20
149.685463
 30
0.0
 10
110.239914
 20
149.706424
 30
0.0
 10
110.274892
 20
149.727908
 30
0.0
 10
110.310134
 20
149.749921
 30
0.0
 10
110.345647
 20
149.772472
 30
0.0
 10
110.381445
 20
149.795570
 30
0.0
 10
110.417542
 20
149.819223
 30
0.0
 10
111.780469
 20
151.111845
 30
0.0
 10
113.291248
 20
151.098470
 30
0.0
 10
114.909696
 20
150.080060
 30
0.0
 10
116.595629
 20
148.357576
 30
0.0
 10
118.308867
 20
146.231981
 30
0.0
 10
120.009222
 20
144.004238
 30
0.0
 10
121.656515
 20
141.975308
 30
0.0
 10
123.210559
 20
140.446154
 30
0.0
 10
124.973269
 20
139.110260
 30
0.0
 10
126.577541
 20
138.017269
 30
0.0
 10
128.053386
 20
137.155105
 30
0.0
 10
129.430818
 20
136.511702
 30
0.0
 10
130.739847
 20
136.074978
 30
0.0
 10
132.010484
 20
135.832861
 30
0.0
 10
133.272745
 20
135.773279
 30
0.0
 10
134.556638
 20
135.884158
 30
0.0
 10
134.987343
 20
135.964388
 30
0.0
 10
135.443868
 20
136.080132
 30
0.0
 10
135.914469
 20
136.226780
 30
0.0
 10
136.387402
 20
136.399728
 30
0.0
 10
136.850917
 20
136.594366
 30
0.0
 10
137.293277
 20
136.806091
 30
0.0
 10
137.702730
 20
137.030293
 30
0.0
 10
138.067535
 20
137.262367
 30
0.0
 10
138.590148
 20
137.620685
 30
0.0
 10
138.995407
 20
137.876558
 30
0.0
 10
139.313389
 20
138.029908
 30
0.0
 10
139.574165
 20
138.080663
 30
0.0
 10
139.807813
 20
138.028741
 30
0.0
 10
140.044401
 20
137.874071
 30
0.0
 10
140.314009
 20
137.616570
 30
0.0
 10
140.646704
 20
137.256168
 30
0.0
 10
142.031501
 20
136.078860
 30
0.0
 10
143.613733
 20
135.315793
 30
0.0
 10
145.318150
 20
134.957098
 30
0.0
 10
147.069499
 20
134.992891
 30
0.0
 10
148.792534
 20
135.413300
 30
0.0
 10
150.412001
 20
136.208447
 30
0.0
 10
151.852649
 20
137.368460
 30
0.0
 10
153.039231
 20
138.883459
 30
0.0
 10
153.754974
 20
140.517226
 30
0.0
 10
153.958230
 20
142.156841
 30
0.0
 10
153.690358
 20
143.738842
 30
0.0
 10
152.992715
 20
145.199767
 30
0.0
 10
151.906659
 20
146.476155
 30
0.0
 10
150.473551
 20
147.504546
 30
0.0
 10
148.734746
 20
148.221477
 30
0.0
 10
146.731605
 20
148.563487
 30
0.0
 10
146.101034
 20
148.621493
 30
0.0
 10
145.508290
 20
148.598178
 30
0.0
 10
144.949072
 20
148.503382
 30
0.0
 10
144.419088
 20
148.346943
 30
0.0
 10
143.914038
 20
148.138702
 30
0.0
 10
143.429623
 20
147.888496
 30
0.0
 10
142.961543
 20
147.606165
 30
0.0
 10
142.505508
 20
147.301548
 30
0.0
 10
142.122764
 20
146.986937
 30
0.0
 10
141.751397
 20
146.633554
 30
0.0
 10
141.393795
 20
146.239299
 30
0.0
 10
141.052344
 20
145.802068
 30
0.0
 10
140.729439
 20
145.319760
 30
0.0
 10
140.427459
 20
144.790275
 30
0.0
 10
140.148800
 20
144.211509
 30
0.0
 10
139.895845
 20
143.581362
 30
0.0
 10
139.175687
 20
142.980468
 30
0.0
 10
138.073051
 20
142.673950
 30
0.0
 10
136.717607
 20
142.692574
 30
0.0
 10
135.239020
 20
143.067109
 30
0.0
 10
133.766958
 20
143.828322
 30
0.0
 10
132.431087
 20
145.006980
 30
0.0
 10
131.361075
 20
146.633852
 30
0.0
 10
130.686589
 20
148.739703
 30
0.0
 10
130.339201
 20
150.518096
 30
0.0
 10
129.916836
 20
152.426621
 30
0.0
 10
129.439279
 20
154.392772
 30
0.0
 10
128.926321
 20
156.344044
 30
0.0
 10
128.397752
 20
158.207932
 30
0.0
 10
127.873364
 20
159.911929
 30
0.0
 10
127.372942
 20
161.383530
 30
0.0
 10
126.916276
 20
162.550229
 30
0.0
 10
126.380156
 20
163.594907
 30
0.0
 10
125.626308
 20
164.792572
 30
0.0
 10
124.708818
 20
166.077393
 30
0.0
 10
123.681769
 20
167.383538
 30
0.0
 10
122.599239
 20
168.645176
 30
0.0
 10
121.515318
 20
169.796473
 30
0.0
 10
120.484083
 20
170.771599
 30
0.0
 10
119.559621
 20
171.504721
 30
0.0
 10
118.277937
 20
172.333758
 30
0.0
 10
116.998907
 20
173.040189
 30
0.0
 10
115.701075
 20
173.630769
 30
0.0
 10
114.362985
 20
174.112250
 30
0.0
 10
112.963183
 20
174.491389
 30
0.0
 10
111.480207
 20
174.774937
 30
0.0
 10
109.892606
 20
174.969650
 30
0.0
 10
108.178918
 20
175.082281
 30
0.0
 10
105.828199
 20
175.098341
 30
0.0
 10
103.591927
 20
174.941069
 30
0.0
 10
101.443513
 20
174.602400
 30
0.0
 10
99.356358
 20
174.074269
 30
0.0
 10
97.303871
 20
173.348613
 30
0.0
 10
95.259460
 20
172.417367
 30
0.0
 10
93.196530
 20
171.272468
 30
0.0
 10
91.088489
 20
169.905851
 30
0.0
 10
90.861489
 20
169.747028
 30
0.0
 10
90.638181
 20
169.587326
 30
0.0
 10
90.418508
 20
169.426886
 30
0.0
 10
90.202420
 20
169.265851
 30
0.0
 10
89.989862
 20
169.104362
 30
0.0
 10
89.780780
 20
168.942561
 30
0.0
 10
89.575122
 20
168.780590
 30
0.0
 10
89.372832
 20
168.618591
 30
0.0
 10
89.213611
 20
168.636396
 30
0.0
 10
89.051956
 20
168.653151
 30
0.0
 10
88.887671
 20
168.668866
 30
0.0
 10
88.720563
 20
168.683555
 30
0.0
 10
88.550431
 20
168.697229
 30
0.0
 10
88.377081
 20
168.709900
 30
0.0
 10
88.200318
 20
168.721580
 30
0.0
 10
88.019944
 20
168.732279
 30
0.0
 10
87.628445
 20
168.751853
 30
0.0
 10
87.219328
 20
168.767825
 30
0.0
 10
86.791123
 20
168.780501
 30
0.0
 10
86.342353
 20
168.790187
 30
0.0
 10
85.871553
 20
168.796228
 30
0.0
 10
85.377234
 20
168.800851
 30
0.0
 10
84.857931
 20
168.803401
 30
0.0
 10
84.312167
 20
168.804183
 30
0.0
 10
83.848337
 20
168.803961
 30
0.0
 10
83.409666
 20
168.803195
 30
0.0
 10
82.994939
 20
168.801738
 30
0.0
 10
82.602940
 20
168.799439
 30
0.0
 10
82.232455
 20
168.796151
 30
0.0
 10
81.882271
 20
168.791725
 30
0.0
 10
81.551169
 20
168.786011
 30
0.0
 10
81.237937
 20
168.778861
 30
0.0
 10
80.941365
 20
168.770128
 30
0.0
 10
80.660227
 20
168.759668
 30
0.0
 10
80.393315
 20
168.747341
 30
0.0
 10
80.139416
 20
168.733005
 30
0.0
 10
79.897325
 20
168.716521
 30
0.0
 10
79.665827
 20
168.697748
 30
0.0
 10
79.443720
 20
168.676545
 30
0.0
 10
79.229789
 20
168.652771
 30
0.0
 10
79.193334
 20
168.648308
 30
0.0
 10
79.157248
 20
168.643690
 30
0.0
 10
79.121468
 20
168.638939
 30
0.0
 10
79.085935
 20
168.634080
 30
0.0
 10
79.050586
 20
168.629135
 30
0.0
 10
79.015365
 20
168.624126
 30
0.0
 10
78.980207
 20
168.619078
 30
0.0
 10
78.945052
 20
168.614013
 30
0.0
 10
78.742249
 20
168.776467
 30
0.0
 10
78.536004
 20
168.938892
 30
0.0
 10
78.326284
 20
169.101147
 30
0.0
 10
78.113051
 20
169.263090
 30
0.0
 10
77.896265
 20
169.424577
 30
0.0
 10
77.675891
 20
169.585468
 30
0.0
 10
77.451892
 20
169.745620
 30
0.0
 10
77.224226
 20
169.904891
 30
0.0
 10
75.116185
 20
171.271507
 30
0.0
 10
73.053255
 20
172.416406
 30
0.0
 10
71.008843
 20
173.347652
 30
0.0
 10
68.956357
 20
174.073308
 30
0.0
 10
66.869202
 20
174.601439
 30
0.0
 10
64.720787
 20
174.940108
 30
0.0
 10
62.484516
 20
175.097380
 30
0.0
 10
60.133796
 20
175.081320
 30
0.0
 10
58.420132
 20
174.968689
 30
0.0
 10
56.832590
 20
174.773976
 30
0.0
 10
55.349698
 20
174.490427
 30
0.0
 10
53.949989
 20
174.111289
 30
0.0
 10
52.611996
 20
173.629807
 30
0.0
 10
51.314247
 20
173.039227
 30
0.0
 10
50.035275
 20
172.332797
 30
0.0
 10
48.753612
 20
171.503761
 30
0.0
 10
47.829126
 20
170.770639
 30
0.0
 10
46.797833
 20
169.795513
 30
0.0
 10
45.713827
 20
168.644215
 30
0.0
 10
44.631205
 20
167.382578
 30
0.0
 10
43.604061
 20
166.076432
 30
0.0
 10
42.686489
 20
164.791611
 30
0.0
 10
41.932582
 20
163.593946
 30
0.0
 10
41.396438
 20
162.549268
 30
0.0
 10
40.939776
 20
161.382569
 30
0.0
 10
40.439353
 20
159.910968
 30
0.0
 10
39.914962
 20
158.206970
 30
0.0
 10
39.386394
 20
156.343083
 30
0.0
 10
38.873435
 20
154.391811
 30
0.0
 10
38.395878
 20
152.425660
 30
0.0
 10
37.973513
 20
150.517135
 30
0.0
 10
37.626126
 20
148.738742
 30
0.0
 10
36.951640
 20
146.632890
 30
0.0
 10
35.881627
 20
145.006019
 30
0.0
 10
34.545757
 20
143.827360
 30
0.0
 10
33.073695
 20
143.066147
 30
0.0
 10
31.595108
 20
142.691612
 30
0.0
 10
30.239663
 20
142.672988
 30
0.0
 10
29.137028
 20
142.979506
 30
0.0
 10
28.416869
 20
143.580401
 30
0.0
 10
28.163938
 20
144.210548
 30
0.0
 10
27.885334
 20
144.789314
 30
0.0
 10
27.583442
 20
145.318799
 30
0.0
 10
27.260629
 20
145.801106
 30
0.0
 10
26.919277
 20
146.238337
 30
0.0
 10
26.561759
 20
146.632593
 30
0.0
 10
26.190449
 20
146.985976
 30
0.0
 10
25.807727
 20
147.300587
 30
0.0
 10
25.351668
 20
147.605204
 30
0.0
 10
24.883532
 20
147.887534
 30
0.0
 10
24.399033
 20
148.137740
 30
0.0
 10
23.893887
 20
148.345981
 30
0.0
 10
23.363807
 20
148.502420
 30
0.0
 10
22.804508
 20
148.597216
 30
0.0
 10
22.211705
 20
148.620531
 30
0.0
 10
21.581112
 20
148.562526
 30
0.0
 10
19.577992
 20
148.220515
 30
0.0
 10
17.839246
 20
147.503584
 30
0.0
 10
16.406221
 20
146.475194
 30
0.0
 10
15.320262
 20
145.198806
 30
0.0
 10
14.622714
 20
143.737881
 30
0.0
 10
14.354925
 20
142.155880
 30
0.0
 10
14.558239
 20
140.516265
 30
0.0
 10
15.274003
 20
138.882498
 30
0.0
 10
16.460562
 20
137.367499
 30
0.0
 10
17.901152
 20
136.207486
 30
0.0
 10
19.520536
 20
135.412336
 30
0.0
 10
21.243474
 20
134.991929
 30
0.0
 10
22.994729
 20
134.956136
 30
0.0
 10
24.699063
 20
135.314832
 30
0.0
 10
26.281236
 20
136.077898
 30
0.0
 10
27.666011
 20
137.255207
 30
0.0
 10
27.998730
 20
137.615609
 30
0.0
 10
28.268396
 20
137.873109
 30
0.0
 10
28.505068
 20
138.027780
 30
0.0
 10
28.738809
 20
138.079701
 30
0.0
 10
28.999680
 20
138.028946
 30
0.0
 10
29.317746
 20
137.875597
 30
0.0
 10
29.723064
 20
137.619723
 30
0.0
 10
30.245698
 20
137.261406
 30
0.0
 10
30.610482
 20
137.029332
 30
0.0
 10
31.019877
 20
136.805129
 30
0.0
 10
31.462152
 20
136.593405
 30
0.0
 10
31.925575
 20
136.398766
 30
0.0
 10
32.398412
 20
136.225819
 30
0.0
 10
32.868928
 20
136.079171
 30
0.0
 10
33.325395
 20
135.963426
 30
0.0
 10
33.756079
 20
135.883197
 30
0.0
 10
35.039972
 20
135.772318
 30
0.0
 10
36.302230
 20
135.831902
 30
0.0
 10
37.572871
 20
136.074017
 30
0.0
 10
38.881897
 20
136.510741
 30
0.0
 10
40.259328
 20
137.154147
 30
0.0
 10
41.735174
 20
138.016307
 30
0.0
 10
43.339446
 20
139.109298
 30
0.0
 10
45.102156
 20
140.445193
 30
0.0
 10
46.656202
 20
141.974347
 30
0.0
 10
48.303492
 20
144.003276
 30
0.0
 10
50.003850
 20
146.231019
 30
0.0
 10
51.717086
 20
148.356614
 30
0.0
 10
53.403021
 20
150.079098
 30
0.0
 10
55.021469
 20
151.097509
 30
0.0
 10
56.532248
 20
151.110884
 30
0.0
 10
57.895175
 20
149.818262
 30
0.0
 10
57.971264
 20
149.768862
 30
0.0
 10
58.046123
 20
149.721943
 30
0.0
 10
58.119796
 20
149.677462
 30
0.0
 10
58.192326
 20
149.635376
 30
0.0
 10
58.263758
 20
149.595642
 30
0.0
 10
58.334132
 20
149.558216
 30
0.0
 10
58.403493
 20
149.523055
 30
0.0
 10
58.471882
 20
149.490117
 30
0.0
 10
58.360249
 20
149.179777
 30
0.0
 10
58.251175
 20
148.866781
 30
0.0
 10
58.144640
 20
148.551048
 30
0.0
 10
58.040638
 20
148.232498
 30
0.0
 10
57.939157
 20
147.911049
 30
0.0
 10
57.840184
 20
147.586623
 30
0.0
 10
57.743704
 20
147.259139
 30
0.0
 10
57.649711
 20
146.928516
 30
0.0
 10
57.555778
 20
146.585867
 30
0.0
 10
57.464341
 20
146.239816
 30
0.0
 10
57.375361
 20
145.890286
 30
0.0
 10
57.288800
 20
145.537205
 30
0.0
 10
57.204626
 20
145.180496
 30
0.0
 10
57.122796
 20
144.820086
 30
0.0
 10
57.043278
 20
144.455900
 30
0.0
 10
56.966033
 20
144.087862
 30
0.0
 10
56.891021
 20
143.715913
 30
0.0
 10
56.818223
 20
143.339986
 30
0.0
 10
56.747606
 20
142.960006
 30
0.0
 10
56.679134
 20
142.575893
 30
0.0
 10
56.612774
 20
142.187571
 30
0.0
 10
56.548491
 20
141.794964
 30
0.0
 10
56.486248
 20
141.397991
 30
0.0
 10
56.426013
 20
140.996578
 30
0.0
 10
56.374419
 20
140.647519
 30
0.0
 10
56.324460
 20
140.314800
 30
0.0
 10
56.276012
 20
139.997956
 30
0.0
 10
56.228943
 20
139.696516
 30
0.0
 10
56.183125
 20
139.410017
 30
0.0
 10
56.138426
 20
139.137991
 30
0.0
 10
56.094720
 20
138.879967
 30
0.0
 10
56.051876
 20
138.635481
 30
0.0
 10
56.023682
 20
138.334423
 30
0.0
 10
56.018867
 20
137.932002
 30
0.0
 10
56.029714
 20
137.465740
 30
0.0
 10
56.048526
 20
136.973152
 30
0.0
 10
56.067550
 20
136.491761
 30
0.0
 10
56.079086
 20
136.059083
 30
0.0
 10
56.075382
 20
135.712635
 30
0.0
 10
56.048749
 20
135.489938
 30
0.0
 10
56.011003
 20
135.253344
 30
0.0
 10
55.974390
 20
134.864891
 30
0.0
 10
55.931779
 20
134.361630
 30
0.0
 10
55.876031
 20
133.780608
 30
0.0
 10
55.800014
 20
133.158874
 30
0.0
 10
55.696599
 20
132.533478
 30
0.0
 10
55.558645
 20
131.941473
 30
0.0
 10
55.379022
 20
131.419902
 30
0.0
 10
55.341004
 20
131.338839
 30
0.0
 10
55.297578
 20
131.260134
 30
0.0
 10
55.249191
 20
131.183992
 30
0.0
 10
55.196290
 20
131.110615
 30
0.0
 10
55.139331
 20
131.040212
 30
0.0
 10
55.078754
 20
130.972984
 30
0.0
 10
55.015014
 20
130.909138
 30
0.0
 10
54.948558
 20
130.848879
 30
0.0
 10
54.566952
 20
130.542494
 30
0.0
 10
54.165542
 20
130.261602
 30
0.0
 10
53.747310
 20
130.003752
 30
0.0
 10
53.315251
 20
129.766500
 30
0.0
 10
52.872346
 20
129.547404
 30
0.0
 10
52.421586
 20
129.344013
 30
0.0
 10
51.965961
 20
129.153884
 30
0.0
 10
51.508456
 20
128.974573
 30
0.0
 10
50.796317
 20
128.729997
 30
0.0
 10
50.071467
 20
128.527440
 30
0.0
 10
49.337092
 20
128.356178
 30
0.0
 10
48.596381
 20
128.205479
 30
0.0
 10
47.852518
 20
128.064618
 30
0.0
 10
47.108687
 20
127.922867
 30
0.0
 10
46.368081
 20
127.769496
 30
0.0
 10
45.633881
 20
127.593779
 30
0.0
 10
44.401978
 20
127.272770
 30
0.0
 10
43.170060
 20
126.950095
 30
0.0
 10
41.939363
 20
126.622266
 30
0.0
 10
40.711123
 20
126.285792
 30
0.0
 10
39.486573
 20
125.937180
 30
0.0
 10
38.266944
 20
125.572939
 30
0.0
 10
37.053475
 20
125.189581
 30
0.0
 10
35.847398
 20
124.783615
 30
0.0
 10
33.252090
 20
123.880881
 30
0.0
 10
30.654847
 20
122.971960
 30
0.0
 10
28.060751
 20
122.048091
 30
0.0
 10
25.474882
 20
121.100507
 30
0.0
 10
22.902323
 20
120.120450
 30
0.0
 10
20.348156
 20
119.099154
 30
0.0
 10
17.817460
 20
118.027856
 30
0.0
 10
15.315318
 20
116.897791
 30
0.0
 10
13.919899
 20
121.199813
 30
0.0
 10
12.507159
 20
125.497795
 30
0.0
 10
11.081990
 20
129.802123
 30
0.0
 10
9.649279
 20
134.123185
 30
0.0
 10
8.213917
 20
138.471368
 30
0.0
 10
6.780819
 20
142.857053
 30
0.0
 10
5.354824
 20
147.290630
 30
0.0
 10
3.940845
 20
151.782483
 30
0.0
 10
3.256802
 20
154.044478
 30
0.0
 10
2.452555
 20
156.760143
 30
0.0
 10
1.573853
 20
159.782116
 30
0.0
 10
0.666445
 20
162.963033
 30
0.0
 10
-0.223919
 20
166.155534
 30
0.0
 10
-1.051490
 20
169.212255
 30
0.0
 10
-1.770520
 20
171.985834
 30
0.0
 10
-2.335258
 20
174.328910
 30
0.0
 10
1.989424
 20
176.020290
 30
0.0
 10
5.595567
 20
177.327876
 30
0.0
 10
8.716487
 20
178.358629
 30
0.0
 10
11.585499
 20
179.219512
 30
0.0
 10
14.435920
 20
180.017485
 30
0.0
 10
17.501066
 20
180.859511
 30
0.0
 10
21.014253
 20
181.852551
 30
0.0
 10
25.208797
 20
183.103568
 30
0.0
 10
25.548633
 20
186.857501
 30
0.0
 10
25.739651
 20
190.537076
 30
0.0
 10
25.780278
 20
194.110452
 30
0.0
 10
25.668940
 20
197.545788
 30
0.0
 10
25.404062
 20
200.811244
 30
0.0
 10
24.984072
 20
203.874981
 30
0.0
 10
24.407395
 20
206.705155
 30
0.0
 10
23.672457
 20
209.269931
 30
0.0
 10
22.154331
 20
213.283038
 30
0.0
 10
20.475894
 20
217.134593
 30
0.0
 10
18.664086
 20
220.731985
 30
0.0
 10
16.745842
 20
223.982595
 30
0.0
 10
14.748103
 20
226.793811
 30
0.0
 10
12.697804
 20
229.073017
 30
0.0
 10
10.621885
 20
230.727599
 30
0.0
  0
ENDSEC
  0
SECTION
  2
OBJECTS
  0
DICTIONARY
  5
C
330
0
100
AcDbDictionary
  3
ACAD_GROUP
350
D
  3
ACAD_MLINESTYLE
350
17
  0
DICTIONARY
  5
D
330
C
100
AcDbDictionary
  0
DICTIONARY
  5
1A
330
C
100
AcDbDictionary
  0
DICTIONARY
  5
17
330
C
100
AcDbDictionary
  3
STANDARD
350
18
  0
DICTIONARY
  5
19
330
C
100
AcDbDictionary
  0
ENDSEC
  0
EOF
