<?xml version="1.0" encoding="UTF-8" standalone="no"?>
<!-- Created with Inkscape (http://www.inkscape.org/) -->

<svg
   xmlns:dc="http://purl.org/dc/elements/1.1/"
   xmlns:cc="http://creativecommons.org/ns#"
   xmlns:rdf="http://www.w3.org/1999/02/22-rdf-syntax-ns#"
   xmlns:svg="http://www.w3.org/2000/svg"
   xmlns="http://www.w3.org/2000/svg"
   xmlns:sodipodi="http://sodipodi.sourceforge.net/DTD/sodipodi-0.dtd"
   xmlns:inkscape="http://www.inkscape.org/namespaces/inkscape"
   version="1.1"
   id="svg80"
   width="852.12323"
   height="690.56781"
   viewBox="0 0 852.12322 690.56781"
   sodipodi:docname="meeple_hockey.svg"
   inkscape:version="0.92.4 5da689c313, 2019-01-14">
  <metadata
     id="metadata86">
    <rdf:RDF>
      <cc:Work
         rdf:about="">
        <dc:format>image/svg+xml</dc:format>
        <dc:type
           rdf:resource="http://purl.org/dc/dcmitype/StillImage" />
        <dc:title />
      </cc:Work>
    </rdf:RDF>
  </metadata>
  <defs
     id="defs84" />
  <sodipodi:namedview
     pagecolor="#ffffff"
     bordercolor="#666666"
     borderopacity="1"
     objecttolerance="10"
     gridtolerance="10"
     guidetolerance="10"
     inkscape:pageopacity="0"
     inkscape:pageshadow="2"
     inkscape:window-width="1920"
     inkscape:window-height="1012"
     id="namedview82"
     showgrid="false"
     inkscape:zoom="0.81621109"
     inkscape:cx="983.85306"
     inkscape:cy="473.2649"
     inkscape:window-x="1280"
     inkscape:window-y="0"
     inkscape:window-maximized="1"
     inkscape:current-layer="svg80"
     showguides="true">
    <inkscape:grid
       type="xygrid"
       id="grid60"
       originx="878.02501"
       originy="-20.199998" />
  </sodipodi:namedview>
  <path
     style="fill:#000000;stroke-width:1.33333337"
     d="m 264.54568,649.72023 c -3.76063,-2.39123 -4.29973,-7.8408 -1.76314,-17.82311 3.27394,-12.88401 18.69453,-49.6148 26.46403,-66.66129 1.3369,-2.93333 -6.26143,-24.43472 -1.91103,-35.80139 4.3505,-11.36667 12.1754,-31.16667 17.3887,-44 5.2132,-12.83334 10.75699,-26.63334 12.31949,-30.66667 6.5845,-16.99753 31.3821,-60.7297 41.8195,-83.33334 6.476,-14.02484 6.9136,-15.6658 5.3051,-19.89648 -2.9025,-7.6339 -42.2672,-13.57776 -87.12329,-18.09332 -15.4918,-1.55952 -23.98313,-4.48812 -35.00961,-12.07453 -9.76614,-6.71928 -19.14111,-17.2214 -23.52958,-26.35855 -3.89406,-8.10776 -4.0234,-8.95707 -3.45713,-22.70097 0.51962,-12.61151 1.03963,-15.10738 4.45509,-21.3827 1.98551,-3.64803 4.30478,-7.07881 7.1371,-10.44239 2.83232,-3.36357 6.17768,-6.65993 10.21535,-10.03911 4.03767,-3.37919 9.19016,-7.6286 14.36921,-10.53605 31.13668,-17.47972 65.33998,-29.02682 99.06258,-40.76647 12.11433,-4.21729 24.57593,-7.38149 36.98775,-10.62019 7.35681,-1.91967 14.90519,-3.09068 22.20417,-5.21971 9.54343,-2.78372 23.60548,-1.01172 28.1484,-9.85412 2.5242,-4.91315 -3.86531,-10.43652 -4.65673,-15.90317 -1.78445,-12.32595 -1.587,-24.9978 -0.10054,-37.36322 2.09505,-17.428085 5.18048,-34.785237 12.61806,-51.126611 2.94921,-6.479822 7.87641,-16.72352 14.97708,-22.076869 15.18986,-11.451961 35.44234,-14.762997 54.22052,-17.8058742 10.78928,-1.7483288 21.94613,-1.5022871 32.78977,-0.1308993 17.15189,2.1691885 36.01071,3.2077865 50.18058,13.1127065 9.85645,6.889786 15.66917,18.659979 20.55691,29.647644 6.602,14.841321 9.08751,31.325769 11.14942,47.437868 1.51249,11.818805 2.43581,23.926635 0.84781,35.735535 -0.81361,6.05031 -7.9024,12.04278 -5.2557,17.54397 2.8665,5.95805 12.11263,5.36178 18.399,7.41036 8.22158,2.67922 16.85255,3.92279 25.15298,6.34674 6.65284,1.94281 13.0708,4.63941 19.72953,6.56194 6.52585,1.88416 13.31938,2.79265 19.78796,4.86492 37.91466,12.14631 76.59737,24.08827 110.96291,44.18962 6.25136,3.65659 12.149,8.81216 16.9004,13.65384 4.7514,4.84168 8.6005,9.95315 11.4866,15.27261 3.4658,6.38798 3.9798,8.84206 4.5009,21.48964 0.5671,13.76357 0.4418,14.58161 -3.4768,22.70097 -6.6712,13.82248 -23.2561,28.69091 -38.2685,34.30777 -3.8334,1.43428 -13.202,3.28127 -20.8191,4.10442 -36.4777,3.94207 -82.0097,9.22307 -87.5245,13.96669 -4.9597,4.26611 -4.5194,9.7363 1.8817,23.37734 9.8287,20.94577 35.1311,65.72071 42.2122,84 1.5625,4.03333 7.0979,17.83333 12.3009,30.66667 5.203,12.83333 15.50563,36.30885 19.89973,47.67552 4.3942,11.36667 -4.11999,29.79253 -2.44869,33.45919 6.3697,13.97439 27.44226,53.56226 30.66816,65.84959 2.4464,9.31826 -2.52961,15.96698 -6.27591,18.34906 -0.8708,0.55369 -26.07939,-0.0317 -88.22939,-0.0204 -112.0897,0.0203 -93.29909,7.62824 -96.00559,4.9211 -1.5488,-1.54877 -6.04133,-33.42922 -12.97457,-44.38467 -6.93324,-10.95545 -19.37012,-7.11177 -23.33074,-18.07374 -7.92124,-21.92394 -12.289,-45.17946 -24.49002,-64.7746 -4.5657,-7.33262 -9.07451,-18.6546 -17.70833,-18.91905 -9.84308,-0.3015 -15.77131,12.26209 -21.4708,20.29285 -13.4005,18.88176 -18.84691,43.7494 -28.37585,63.4008 -4.76447,9.8257 -15.68048,10.04221 -21.21705,20.79462 -4.65976,8.33139 -8.66086,34.43779 -15.26058,41.35743 l -95.88517,-4.6148 c -62.12139,-0.0107 -87.18112,0.57416 -88.05191,0.0205 z"
     id="path195-3"
     inkscape:connector-curvature="0"
     sodipodi:nodetypes="csccccccsssssssaaaaaaasaaaaaaaaaaaaasccccccccsccscscssaaasccccc" />
  <path
     style="fill:#000000;stroke-width:1.95093942"
     d="M 110.32007,678.73891 C 90.560224,680.01587 42.426474,692.97723 12.936544,687.07662 4.1511442,667.68362 -8.9155358,616.01884 8.8037142,582.54032 49.801264,561.31354 130.67939,569.91699 162.34657,558.51554 c 31.1739,-10.16318 36.3349,-23.25884 45.14547,-62.67522 17.85349,-79.87227 25.19144,-129.53213 42.90553,-207.12957 17.89619,-91.77098 33.58864,-167.42186 46.10872,-234.789876 2.30513,-1.42453 20.69,-22.449757 31.87667,-12.709777 7.55846,6.58098 37.00937,22.66415 37.11897,24.18604 -9.31396,56.084793 -23.98013,147.689623 -35.47691,206.000003 -24.88857,118.63948 -45.74531,228.13088 -76.07274,332.25174 -8.37767,31.34969 -19.71399,45.15649 -25.09931,51.22517"
     id="path928"
     inkscape:connector-curvature="0"
     sodipodi:nodetypes="cccccccscccc" />
  <path
     style="color:#000000;font-style:normal;font-variant:normal;font-weight:normal;font-stretch:normal;font-size:medium;line-height:normal;font-family:sans-serif;font-variant-ligatures:normal;font-variant-position:normal;font-variant-caps:normal;font-variant-numeric:normal;font-variant-alternates:normal;font-feature-settings:normal;text-indent:0;text-align:start;text-decoration:none;text-decoration-line:none;text-decoration-style:solid;text-decoration-color:#000000;letter-spacing:normal;word-spacing:normal;text-transform:none;writing-mode:lr-tb;direction:ltr;text-orientation:mixed;dominant-baseline:auto;baseline-shift:baseline;text-anchor:start;white-space:normal;shape-padding:0;clip-rule:nonzero;display:inline;overflow:visible;visibility:visible;opacity:1;isolation:auto;mix-blend-mode:normal;color-interpolation:sRGB;color-interpolation-filters:linearRGB;solid-color:#000000;solid-opacity:1;vector-effect:none;fill:#000000;fill-opacity:1;fill-rule:nonzero;stroke:none;stroke-width:1.09946656;stroke-linecap:butt;stroke-linejoin:miter;stroke-miterlimit:4;stroke-dasharray:none;stroke-dashoffset:0;stroke-opacity:1;color-rendering:auto;image-rendering:auto;shape-rendering:auto;text-rendering:auto;enable-background:accumulate"
     d="m 279.13519,636.88392 c -7.5414,0 -14.37469,3.00433 -19.32263,7.86161 -4.94794,4.85727 -8.01053,11.56749 -8.01053,18.97926 0,7.41177 3.06259,14.12252 8.01053,18.98035 4.94794,4.8578 11.78123,7.86267 19.32263,7.86267 7.5414,0 14.37469,-3.00487 19.32263,-7.86267 4.94794,-4.85783 8.01053,-11.56858 8.01053,-18.98035 0,-7.41177 -3.06259,-14.12199 -8.01053,-18.97926 -4.94794,-4.85728 -11.78123,-7.86161 -19.32263,-7.86161 z"
     id="path3972"
     inkscape:connector-curvature="0"
     sodipodi:nodetypes="sssssssss" />
  <path
     style="color:#000000;font-style:normal;font-variant:normal;font-weight:normal;font-stretch:normal;font-size:medium;line-height:normal;font-family:sans-serif;font-variant-ligatures:normal;font-variant-position:normal;font-variant-caps:normal;font-variant-numeric:normal;font-variant-alternates:normal;font-feature-settings:normal;text-indent:0;text-align:start;text-decoration:none;text-decoration-line:none;text-decoration-style:solid;text-decoration-color:#000000;letter-spacing:normal;word-spacing:normal;text-transform:none;writing-mode:lr-tb;direction:ltr;text-orientation:mixed;dominant-baseline:auto;baseline-shift:baseline;text-anchor:start;white-space:normal;shape-padding:0;clip-rule:nonzero;display:inline;overflow:visible;visibility:visible;opacity:1;isolation:auto;mix-blend-mode:normal;color-interpolation:sRGB;color-interpolation-filters:linearRGB;solid-color:#000000;solid-opacity:1;vector-effect:none;fill:#000000;fill-opacity:1;fill-rule:nonzero;stroke:none;stroke-width:1.0994705;stroke-linecap:butt;stroke-linejoin:miter;stroke-miterlimit:4;stroke-dasharray:none;stroke-dashoffset:0;stroke-opacity:1;color-rendering:auto;image-rendering:auto;shape-rendering:auto;text-rendering:auto;enable-background:accumulate"
     d="m 327.13313,636.88587 c -7.54142,0 -14.3742,3.00434 -19.32161,7.86164 -4.94742,4.85729 -8.00949,11.56753 -8.00949,18.97934 0,7.41179 3.06207,14.12204 8.00949,18.97932 4.94741,4.8573 11.78019,7.86164 19.32161,7.86164 7.54143,0 14.37474,-3.00434 19.3227,-7.86164 4.94796,-4.85728 8.01056,-11.56753 8.01056,-18.97932 0,-7.41181 -3.0626,-14.12205 -8.01056,-18.97934 -4.94796,-4.8573 -11.78127,-7.86164 -19.3227,-7.86164 z"
     id="path3972-3"
     inkscape:connector-curvature="0"
     sodipodi:nodetypes="sssssssss" />
  <path
     style="color:#000000;font-style:normal;font-variant:normal;font-weight:normal;font-stretch:normal;font-size:medium;line-height:normal;font-family:sans-serif;font-variant-ligatures:normal;font-variant-position:normal;font-variant-caps:normal;font-variant-numeric:normal;font-variant-alternates:normal;font-feature-settings:normal;text-indent:0;text-align:start;text-decoration:none;text-decoration-line:none;text-decoration-style:solid;text-decoration-color:#000000;letter-spacing:normal;word-spacing:normal;text-transform:none;writing-mode:lr-tb;direction:ltr;text-orientation:mixed;dominant-baseline:auto;baseline-shift:baseline;text-anchor:start;white-space:normal;shape-padding:0;clip-rule:nonzero;display:inline;overflow:visible;visibility:visible;opacity:1;isolation:auto;mix-blend-mode:normal;color-interpolation:sRGB;color-interpolation-filters:linearRGB;solid-color:#000000;solid-opacity:1;vector-effect:none;fill:#000000;fill-opacity:1;fill-rule:nonzero;stroke:none;stroke-width:1.11194623;stroke-linecap:butt;stroke-linejoin:miter;stroke-miterlimit:4;stroke-dasharray:none;stroke-dashoffset:0;stroke-opacity:1;color-rendering:auto;image-rendering:auto;shape-rendering:auto;text-rendering:auto;enable-background:accumulate"
     d="m 375.57945,635.66069 c -7.54143,0 -14.37474,3.07291 -19.3227,8.04106 -4.94796,4.96815 -8.01055,11.83154 -8.01055,19.4125 0,7.58095 3.06259,14.44435 8.01055,19.41249 4.94796,4.96816 11.78127,8.04107 19.3227,8.04107 7.54144,0 14.37421,-3.07291 19.32163,-8.04107 4.94742,-4.96814 8.00948,-11.83154 8.00948,-19.41249 0,-7.58096 -3.06206,-14.44435 -8.00948,-19.4125 -4.94742,-4.96815 -11.7802,-8.04106 -19.32163,-8.04106 z"
     id="path3972-6"
     inkscape:connector-curvature="0"
     sodipodi:nodetypes="sssssssss" />
  <path
     style="color:#000000;font-style:normal;font-variant:normal;font-weight:normal;font-stretch:normal;font-size:medium;line-height:normal;font-family:sans-serif;font-variant-ligatures:normal;font-variant-position:normal;font-variant-caps:normal;font-variant-numeric:normal;font-variant-alternates:normal;font-feature-settings:normal;text-indent:0;text-align:start;text-decoration:none;text-decoration-line:none;text-decoration-style:solid;text-decoration-color:#000000;letter-spacing:normal;word-spacing:normal;text-transform:none;writing-mode:lr-tb;direction:ltr;text-orientation:mixed;dominant-baseline:auto;baseline-shift:baseline;text-anchor:start;white-space:normal;shape-padding:0;clip-rule:nonzero;display:inline;overflow:visible;visibility:visible;opacity:1;isolation:auto;mix-blend-mode:normal;color-interpolation:sRGB;color-interpolation-filters:linearRGB;solid-color:#000000;solid-opacity:1;vector-effect:none;fill:#000000;fill-opacity:1;fill-rule:nonzero;stroke:none;stroke-width:1.12433803;stroke-linecap:butt;stroke-linejoin:miter;stroke-miterlimit:4;stroke-dasharray:none;stroke-dashoffset:0;stroke-opacity:1;color-rendering:auto;image-rendering:auto;shape-rendering:auto;text-rendering:auto;enable-background:accumulate"
     d="m 425.04453,635.66069 c -7.71045,0 -14.69637,3.07291 -19.75467,8.04106 -5.0583,4.96815 -8.189,11.83154 -8.189,19.4125 0,7.58095 3.1307,14.44435 8.189,19.41249 5.0583,4.96816 12.04422,8.04107 19.75467,8.04107 7.71045,0 14.69691,-3.07291 19.75577,-8.04107 5.05885,-4.96814 8.1901,-11.83154 8.1901,-19.41249 0,-7.58096 -3.13125,-14.44435 -8.1901,-19.4125 -5.05886,-4.96815 -12.04532,-8.04106 -19.75577,-8.04106 z"
     id="path3972-7"
     inkscape:connector-curvature="0"
     sodipodi:nodetypes="sssssssss" />
  <path
     style="color:#000000;font-style:normal;font-variant:normal;font-weight:normal;font-stretch:normal;font-size:medium;line-height:normal;font-family:sans-serif;font-variant-ligatures:normal;font-variant-position:normal;font-variant-caps:normal;font-variant-numeric:normal;font-variant-alternates:normal;font-feature-settings:normal;text-indent:0;text-align:start;text-decoration:none;text-decoration-line:none;text-decoration-style:solid;text-decoration-color:#000000;letter-spacing:normal;word-spacing:normal;text-transform:none;writing-mode:lr-tb;direction:ltr;text-orientation:mixed;dominant-baseline:auto;baseline-shift:baseline;text-anchor:start;white-space:normal;shape-padding:0;clip-rule:nonzero;display:inline;overflow:visible;visibility:visible;opacity:1;isolation:auto;mix-blend-mode:normal;color-interpolation:sRGB;color-interpolation-filters:linearRGB;solid-color:#000000;solid-opacity:1;vector-effect:none;fill:#000000;fill-opacity:1;fill-rule:nonzero;stroke:none;stroke-width:1.09946656;stroke-linecap:butt;stroke-linejoin:miter;stroke-miterlimit:4;stroke-dasharray:none;stroke-dashoffset:0;stroke-opacity:1;color-rendering:auto;image-rendering:auto;shape-rendering:auto;text-rendering:auto;enable-background:accumulate"
     d="m 642.13519,636.88392 c -7.5414,0 -14.37469,3.00433 -19.32263,7.86161 -4.94794,4.85727 -8.01053,11.56749 -8.01053,18.97926 0,7.41177 3.06259,14.12252 8.01053,18.98035 4.94794,4.8578 11.78123,7.86267 19.32263,7.86267 7.5414,0 14.37469,-3.00487 19.32263,-7.86267 4.94794,-4.85783 8.01053,-11.56858 8.01053,-18.98035 0,-7.41177 -3.06259,-14.12199 -8.01053,-18.97926 -4.94794,-4.85728 -11.78123,-7.86161 -19.32263,-7.86161 z"
     id="path3972-2"
     inkscape:connector-curvature="0"
     sodipodi:nodetypes="sssssssss" />
  <path
     style="color:#000000;font-style:normal;font-variant:normal;font-weight:normal;font-stretch:normal;font-size:medium;line-height:normal;font-family:sans-serif;font-variant-ligatures:normal;font-variant-position:normal;font-variant-caps:normal;font-variant-numeric:normal;font-variant-alternates:normal;font-feature-settings:normal;text-indent:0;text-align:start;text-decoration:none;text-decoration-line:none;text-decoration-style:solid;text-decoration-color:#000000;letter-spacing:normal;word-spacing:normal;text-transform:none;writing-mode:lr-tb;direction:ltr;text-orientation:mixed;dominant-baseline:auto;baseline-shift:baseline;text-anchor:start;white-space:normal;shape-padding:0;clip-rule:nonzero;display:inline;overflow:visible;visibility:visible;opacity:1;isolation:auto;mix-blend-mode:normal;color-interpolation:sRGB;color-interpolation-filters:linearRGB;solid-color:#000000;solid-opacity:1;vector-effect:none;fill:#000000;fill-opacity:1;fill-rule:nonzero;stroke:none;stroke-width:1.0994705;stroke-linecap:butt;stroke-linejoin:miter;stroke-miterlimit:4;stroke-dasharray:none;stroke-dashoffset:0;stroke-opacity:1;color-rendering:auto;image-rendering:auto;shape-rendering:auto;text-rendering:auto;enable-background:accumulate"
     d="m 690.13314,636.88587 c -7.54142,0 -14.3742,3.00434 -19.32162,7.86164 -4.94742,4.85729 -8.00949,11.56753 -8.00949,18.97934 0,7.41179 3.06207,14.12204 8.00949,18.97932 4.94742,4.8573 11.7802,7.86164 19.32162,7.86164 7.54143,0 14.37474,-3.00434 19.3227,-7.86164 4.94795,-4.85728 8.01055,-11.56753 8.01055,-18.97932 0,-7.41181 -3.0626,-14.12205 -8.01055,-18.97934 -4.94796,-4.8573 -11.78127,-7.86164 -19.3227,-7.86164 z"
     id="path3972-3-9"
     inkscape:connector-curvature="0"
     sodipodi:nodetypes="sssssssss" />
  <path
     style="color:#000000;font-style:normal;font-variant:normal;font-weight:normal;font-stretch:normal;font-size:medium;line-height:normal;font-family:sans-serif;font-variant-ligatures:normal;font-variant-position:normal;font-variant-caps:normal;font-variant-numeric:normal;font-variant-alternates:normal;font-feature-settings:normal;text-indent:0;text-align:start;text-decoration:none;text-decoration-line:none;text-decoration-style:solid;text-decoration-color:#000000;letter-spacing:normal;word-spacing:normal;text-transform:none;writing-mode:lr-tb;direction:ltr;text-orientation:mixed;dominant-baseline:auto;baseline-shift:baseline;text-anchor:start;white-space:normal;shape-padding:0;clip-rule:nonzero;display:inline;overflow:visible;visibility:visible;opacity:1;isolation:auto;mix-blend-mode:normal;color-interpolation:sRGB;color-interpolation-filters:linearRGB;solid-color:#000000;solid-opacity:1;vector-effect:none;fill:#000000;fill-opacity:1;fill-rule:nonzero;stroke:none;stroke-width:1.11194623;stroke-linecap:butt;stroke-linejoin:miter;stroke-miterlimit:4;stroke-dasharray:none;stroke-dashoffset:0;stroke-opacity:1;color-rendering:auto;image-rendering:auto;shape-rendering:auto;text-rendering:auto;enable-background:accumulate"
     d="m 738.54022,635.66069 c -7.54143,0 -14.37474,3.07291 -19.3227,8.04106 -4.94795,4.96815 -8.01054,11.83154 -8.01054,19.4125 0,7.58095 3.06259,14.44435 8.01054,19.41249 4.94796,4.96816 11.78127,8.04107 19.3227,8.04107 7.54144,0 14.37421,-3.07291 19.32163,-8.04107 4.94742,-4.96814 8.00948,-11.83154 8.00948,-19.41249 0,-7.58096 -3.06206,-14.44435 -8.00948,-19.4125 -4.94742,-4.96815 -11.7802,-8.04106 -19.32163,-8.04106 z"
     id="path3972-6-1"
     inkscape:connector-curvature="0"
     sodipodi:nodetypes="sssssssss" />
  <path
     style="color:#000000;font-style:normal;font-variant:normal;font-weight:normal;font-stretch:normal;font-size:medium;line-height:normal;font-family:sans-serif;font-variant-ligatures:normal;font-variant-position:normal;font-variant-caps:normal;font-variant-numeric:normal;font-variant-alternates:normal;font-feature-settings:normal;text-indent:0;text-align:start;text-decoration:none;text-decoration-line:none;text-decoration-style:solid;text-decoration-color:#000000;letter-spacing:normal;word-spacing:normal;text-transform:none;writing-mode:lr-tb;direction:ltr;text-orientation:mixed;dominant-baseline:auto;baseline-shift:baseline;text-anchor:start;white-space:normal;shape-padding:0;clip-rule:nonzero;display:inline;overflow:visible;visibility:visible;opacity:1;isolation:auto;mix-blend-mode:normal;color-interpolation:sRGB;color-interpolation-filters:linearRGB;solid-color:#000000;solid-opacity:1;vector-effect:none;fill:#000000;fill-opacity:1;fill-rule:nonzero;stroke:none;stroke-width:1.12433803;stroke-linecap:butt;stroke-linejoin:miter;stroke-miterlimit:4;stroke-dasharray:none;stroke-dashoffset:0;stroke-opacity:1;color-rendering:auto;image-rendering:auto;shape-rendering:auto;text-rendering:auto;enable-background:accumulate"
     d="m 788.15845,635.66069 c -7.71045,0 -14.69637,3.07291 -19.75467,8.04106 -5.0583,4.96815 -8.189,11.83154 -8.189,19.4125 0,7.58095 3.1307,14.44435 8.189,19.41249 5.0583,4.96816 12.04422,8.04107 19.75467,8.04107 7.71045,0 14.69691,-3.07291 19.75577,-8.04107 5.05885,-4.96814 8.1901,-11.83154 8.1901,-19.41249 0,-7.58096 -3.13125,-14.44435 -8.1901,-19.4125 -5.05886,-4.96815 -12.04532,-8.04106 -19.75577,-8.04106 z"
     id="path3972-7-2"
     inkscape:connector-curvature="0"
     sodipodi:nodetypes="sssssssss" />
  <path
     style="fill:#000000;stroke-width:1.33333337"
     d="m 458.99328,29.521709 c 3.30849,-6.461009 3.80508,-15.113318 9.36797,-19.556328 5.91627,-4.7252505 12.82481,-7.1342375 19.89131,-8.6879805 4.63262,-1.01859395 9.84937,-2.12666395 14.22667,-0.29967995 5.96028,2.48768095 13.33355,14.05837445 13.33355,14.05837445 z"
     id="path195-3-3"
     inkscape:connector-curvature="0"
     sodipodi:nodetypes="csaacc" />
  <path
     style="fill:#000000;stroke-width:1.33333337"
     d="M 604.40639,29.824431 C 601.0979,23.363421 600.60131,14.711113 595.03842,10.268103 589.12215,5.5428525 582.21361,3.1338655 575.14711,1.5801225 570.51449,0.56152855 565.30713,-0.52387845 560.92044,1.2804425 555.0115,3.7108895 547.58689,15.050711 547.58689,15.050711 Z"
     id="path195-3-3-6"
     inkscape:connector-curvature="0"
     sodipodi:nodetypes="csaacc" />
</svg>
