  0
SECTION
  2
HEADER
  9
$ACADVER
  1
AC1014
  9
$HANDSEED
  5
FFFF
  9
$MEASUREMENT
 70
     1
  0
ENDSEC
  0
SECTION
  2
TABLES
  0
TABLE
  2
VPORT
  5
8
330
0
100
AcDbSymbolTable
 70
     4
  0
VPORT
  5
2E
330
8
100
AcDbSymbolTableRecord
100
AcDbViewportTableRecord
  2
*ACTIVE
 70
     0
 10
0.0
 20
0.0
 11
1.0
 21
1.0
 12
210.0
 22
148.5
 13
0.0
 23
0.0
 14
10.0
 24
10.0
 15
10.0
 25
10.0
 16
0.0
 26
0.0
 36
1.0
 17
0.0
 27
0.0
 37
0.0
 40
341.0
 41
1.24
 42
50.0
 43
0.0
 44
0.0
 50
0.0
 51
0.0
 71
     0
 72
   100
 73
     1
 74
     3
 75
     0
 76
     0
 77
     0
 78
     0
  0
ENDTAB
  0
TABLE
  2
LTYPE
  5
5
330
0
100
AcDbSymbolTable
 70
     1
  0
LTYPE
  5
14
330
5
100
AcDbSymbolTableRecord
100
AcDbLinetypeTableRecord
  2
BYBLOCK
 70
     0
  3

 72
    65
 73
     0
 40
0.0
  0
LTYPE
  5
15
330
5
100
AcDbSymbolTableRecord
100
AcDbLinetypeTableRecord
  2
BYLAYER
 70
     0
  3

 72
    65
 73
     0
 40
0.0
  0
LTYPE
  5
16
330
5
100
AcDbSymbolTableRecord
100
AcDbLinetypeTableRecord
  2
CONTINUOUS
 70
     0
  3
Solid line
 72
    65
 73
     0
 40
0.0
  0
ENDTAB
  0
TABLE
  2
LAYER
  5
2
100
AcDbSymbolTable
 70
1
  0
LAYER
  5
50
100
AcDbSymbolTableRecord
100
AcDbLayerTableRecord
  2
0
 70
0
  6
CONTINUOUS
  0
ENDTAB
  0
TABLE
  2
STYLE
  5
3
330
0
100
AcDbSymbolTable
 70
     1
  0
STYLE
  5
11
330
3
100
AcDbSymbolTableRecord
100
AcDbTextStyleTableRecord
  2
STANDARD
 70
     0
 40
0.0
 41
1.0
 50
0.0
 71
     0
 42
2.5
  3
txt
  4

  0
ENDTAB
  0
TABLE
  2
VIEW
  5
6
330
0
100
AcDbSymbolTable
 70
     0
  0
ENDTAB
  0
TABLE
  2
UCS
  5
7
330
0
100
AcDbSymbolTable
 70
     0
  0
ENDTAB
  0
TABLE
  2
APPID
  5
9
330
0
100
AcDbSymbolTable
 70
     2
  0
APPID
  5
12
330
9
100
AcDbSymbolTableRecord
100
AcDbRegAppTableRecord
  2
ACAD
 70
     0
  0
ENDTAB
  0
TABLE
  2
DIMSTYLE
  5
A
330
0
100
AcDbSymbolTable
 70
     1
  0
DIMSTYLE
105
27
330
A
100
AcDbSymbolTableRecord
100
AcDbDimStyleTableRecord
  2
ISO-25
 70
     0
  3

  4

  5

  6

  7

 40
1.0
 41
2.5
 42
0.625
 43
3.75
 44
1.25
 45
0.0
 46
0.0
 47
0.0
 48
0.0
140
2.5
141
2.5
142
0.0
143
0.03937007874016
144
1.0
145
0.0
146
1.0
147
0.625
 71
     0
 72
     0
 73
     0
 74
     0
 75
     0
 76
     0
 77
     1
 78
     8
170
     0
171
     3
172
     1
173
     0
174
     0
175
     0
176
     0
177
     0
178
     0
270
     2
271
     2
272
     2
273
     2
274
     3
340
11
275
     0
280
     0
281
     0
282
     0
283
     0
284
     8
285
     0
286
     0
287
     3
288
     0
  0
ENDTAB
  0
TABLE
  2
BLOCK_RECORD
  5
1
330
0
100
AcDbSymbolTable
 70
     1
  0
BLOCK_RECORD
  5
1F
330
1
100
AcDbSymbolTableRecord
100
AcDbBlockTableRecord
  2
*MODEL_SPACE
  0
BLOCK_RECORD
  5
1B
330
1
100
AcDbSymbolTableRecord
100
AcDbBlockTableRecord
  2
*PAPER_SPACE
  0
ENDTAB
  0
ENDSEC
  0
SECTION
  2
BLOCKS
  0
BLOCK
  5
20
330
1F
100
AcDbEntity
  8
0
100
AcDbBlockBegin
  2
*MODEL_SPACE
 70
     0
 10
0.0
 20
0.0
 30
0.0
  3
*MODEL_SPACE
  1

  0
ENDBLK
  5
21
330
1F
100
AcDbEntity
  8
0
100
AcDbBlockEnd
  0
BLOCK
  5
1C
330
1B
100
AcDbEntity
 67
     1
  8
0
100
AcDbBlockBegin
  2
*PAPER_SPACE
  1

  0
ENDBLK
  5
1D
330
1B
100
AcDbEntity
 67
     1
  8
0
100
AcDbBlockEnd
  0
ENDSEC
  0
SECTION
  2
ENTITIES
  0
LWPOLYLINE
  5
100
100
AcDbEntity
  8
0
 62
7
100
AcDbPolyline
 90
4928
 70
1
 10
44.663423
 20
177.742104
 30
0.0
 10
44.641251
 20
177.738144
 30
0.0
 10
44.619502
 20
177.732418
 30
0.0
 10
44.598177
 20
177.724910
 30
0.0
 10
44.577275
 20
177.715604
 30
0.0
 10
44.556796
 20
177.704484
 30
0.0
 10
44.536740
 20
177.691534
 30
0.0
 10
44.517108
 20
177.676738
 30
0.0
 10
44.497873
 20
177.660080
 30
0.0
 10
44.479061
 20
177.641545
 30
0.0
 10
44.460673
 20
177.621116
 30
0.0
 10
44.442707
 20
177.598778
 30
0.0
 10
44.425166
 20
177.574515
 30
0.0
 10
44.408021
 20
177.548310
 30
0.0
 10
44.391299
 20
177.520148
 30
0.0
 10
44.374974
 20
177.490012
 30
0.0
 10
44.359073
 20
177.457888
 30
0.0
 10
44.343595
 20
177.423759
 30
0.0
 10
44.328513
 20
177.387608
 30
0.0
 10
44.313855
 20
177.349421
 30
0.0
 10
44.299621
 20
177.309182
 30
0.0
 10
44.285783
 20
177.266873
 30
0.0
 10
44.272369
 20
177.222481
 30
0.0
 10
44.259351
 20
177.175987
 30
0.0
 10
44.246731
 20
177.127378
 30
0.0
 10
44.234533
 20
177.076636
 30
0.0
 10
44.222733
 20
177.023745
 30
0.0
 10
44.211356
 20
176.968691
 30
0.0
 10
44.200376
 20
176.911457
 30
0.0
 10
44.189792
 20
176.852027
 30
0.0
 10
44.179632
 20
176.790384
 30
0.0
 10
44.169869
 20
176.726514
 30
0.0
 10
44.160503
 20
176.660401
 30
0.0
 10
44.151560
 20
176.592028
 30
0.0
 10
44.143014
 20
176.521379
 30
0.0
 10
44.134865
 20
176.448439
 30
0.0
 10
44.127112
 20
176.373191
 30
0.0
 10
44.119757
 20
176.295620
 30
0.0
 10
44.112798
 20
176.215710
 30
0.0
 10
44.106263
 20
176.133445
 30
0.0
 10
44.100125
 20
176.048809
 30
0.0
 10
44.094383
 20
175.961786
 30
0.0
 10
44.089039
 20
175.872360
 30
0.0
 10
44.084091
 20
175.780516
 30
0.0
 10
44.079540
 20
175.686236
 30
0.0
 10
44.075386
 20
175.589506
 30
0.0
 10
44.071629
 20
175.490310
 30
0.0
 10
44.068243
 20
175.388631
 30
0.0
 10
44.065279
 20
175.284454
 30
0.0
 10
44.062633
 20
175.177762
 30
0.0
 10
44.060517
 20
175.068541
 30
0.0
 10
44.058665
 20
174.956773
 30
0.0
 10
44.057342
 20
174.842443
 30
0.0
 10
44.056283
 20
174.725536
 30
0.0
 10
44.055754
 20
174.606034
 30
0.0
 10
44.055516
 20
174.483923
 30
0.0
 10
44.055670
 20
174.359186
 30
0.0
 10
44.056199
 20
174.231808
 30
0.0
 10
44.057257
 20
174.101772
 30
0.0
 10
44.058580
 20
173.969062
 30
0.0
 10
44.060168
 20
173.833664
 30
0.0
 10
44.062284
 20
173.695560
 30
0.0
 10
44.064665
 20
173.554735
 30
0.0
 10
44.067523
 20
173.411173
 30
0.0
 10
44.070777
 20
173.264858
 30
0.0
 10
44.131859
 20
172.887570
 30
0.0
 10
44.194388
 20
172.514671
 30
0.0
 10
44.258393
 20
172.146084
 30
0.0
 10
44.323912
 20
171.781732
 30
0.0
 10
44.390979
 20
171.421538
 30
0.0
 10
44.459628
 20
171.065424
 30
0.0
 10
44.529890
 20
170.713313
 30
0.0
 10
44.601807
 20
170.365127
 30
0.0
 10
44.675408
 20
170.020791
 30
0.0
 10
44.750727
 20
169.680226
 30
0.0
 10
44.827803
 20
169.343354
 30
0.0
 10
44.906668
 20
169.010100
 30
0.0
 10
44.987352
 20
168.680385
 30
0.0
 10
45.069897
 20
168.354133
 30
0.0
 10
45.154333
 20
168.031265
 30
0.0
 10
45.240696
 20
167.711706
 30
0.0
 10
45.329019
 20
167.395376
 30
0.0
 10
45.419337
 20
167.082201
 30
0.0
 10
45.511685
 20
166.772101
 30
0.0
 10
45.606096
 20
166.465000
 30
0.0
 10
45.702608
 20
166.160821
 30
0.0
 10
45.801250
 20
165.859486
 30
0.0
 10
45.902062
 20
165.560917
 30
0.0
 10
46.005075
 20
165.265039
 30
0.0
 10
46.110326
 20
164.971773
 30
0.0
 10
46.217847
 20
164.681043
 30
0.0
 10
46.327671
 20
164.392770
 30
0.0
 10
46.439838
 20
164.106879
 30
0.0
 10
46.554376
 20
163.823290
 30
0.0
 10
46.671325
 20
163.541928
 30
0.0
 10
46.790715
 20
163.262716
 30
0.0
 10
46.912585
 20
162.985575
 30
0.0
 10
47.036965
 20
162.710428
 30
0.0
 10
47.163891
 20
162.437199
 30
0.0
 10
47.293400
 20
162.165809
 30
0.0
 10
47.425525
 20
161.896183
 30
0.0
 10
47.560295
 20
161.628242
 30
0.0
 10
47.697752
 20
161.361909
 30
0.0
 10
47.837928
 20
161.097107
 30
0.0
 10
47.980856
 20
160.833759
 30
0.0
 10
48.126573
 20
160.571788
 30
0.0
 10
48.275112
 20
160.311115
 30
0.0
 10
48.426504
 20
160.051665
 30
0.0
 10
48.580791
 20
159.793359
 30
0.0
 10
48.738001
 20
159.536121
 30
0.0
 10
48.898172
 20
159.279874
 30
0.0
 10
49.061335
 20
159.024539
 30
0.0
 10
49.227528
 20
158.770039
 30
0.0
 10
49.396784
 20
158.516299
 30
0.0
 10
49.569136
 20
158.263240
 30
0.0
 10
49.744621
 20
158.010784
 30
0.0
 10
49.923273
 20
157.758855
 30
0.0
 10
50.105124
 20
157.507376
 30
0.0
 10
50.290213
 20
157.256269
 30
0.0
 10
50.478570
 20
157.005457
 30
0.0
 10
50.670232
 20
156.754863
 30
0.0
 10
50.865230
 20
156.504409
 30
0.0
 10
51.063604
 20
156.254018
 30
0.0
 10
51.265383
 20
156.003614
 30
0.0
 10
51.470607
 20
155.753118
 30
0.0
 10
51.679305
 20
155.502453
 30
0.0
 10
51.891514
 20
155.251543
 30
0.0
 10
52.107268
 20
155.000309
 30
0.0
 10
52.326603
 20
154.748676
 30
0.0
 10
52.429888
 20
154.630214
 30
0.0
 10
52.533131
 20
154.510165
 30
0.0
 10
52.636290
 20
154.388595
 30
0.0
 10
52.739326
 20
154.265568
 30
0.0
 10
52.842202
 20
154.141149
 30
0.0
 10
52.944876
 20
154.015402
 30
0.0
 10
53.047309
 20
153.888393
 30
0.0
 10
53.149465
 20
153.760186
 30
0.0
 10
53.251303
 20
153.630845
 30
0.0
 10
53.352781
 20
153.500437
 30
0.0
 10
53.453863
 20
153.369024
 30
0.0
 10
53.554510
 20
153.236672
 30
0.0
 10
53.654681
 20
153.103447
 30
0.0
 10
53.754339
 20
152.969411
 30
0.0
 10
53.853444
 20
152.834631
 30
0.0
 10
53.951957
 20
152.699170
 30
0.0
 10
54.049837
 20
152.563095
 30
0.0
 10
54.147047
 20
152.426469
 30
0.0
 10
54.243546
 20
152.289360
 30
0.0
 10
54.339296
 20
152.151827
 30
0.0
 10
54.434260
 20
152.013939
 30
0.0
 10
54.528394
 20
151.875758
 30
0.0
 10
54.621662
 20
151.737352
 30
0.0
 10
54.714025
 20
151.598784
 30
0.0
 10
54.805444
 20
151.460116
 30
0.0
 10
54.895876
 20
151.321419
 30
0.0
 10
54.985287
 20
151.182751
 30
0.0
 10
55.073636
 20
151.044183
 30
0.0
 10
55.160883
 20
150.905774
 30
0.0
 10
55.246989
 20
150.767593
 30
0.0
 10
55.331915
 20
150.629703
 30
0.0
 10
55.415621
 20
150.492170
 30
0.0
 10
55.498068
 20
150.355057
 30
0.0
 10
55.579221
 20
150.218429
 30
0.0
 10
55.659035
 20
150.082351
 30
0.0
 10
55.737473
 20
149.946890
 30
0.0
 10
55.814499
 20
149.812106
 30
0.0
 10
55.890069
 20
149.678068
 30
0.0
 10
55.964145
 20
149.544840
 30
0.0
 10
56.036691
 20
149.412484
 30
0.0
 10
56.107663
 20
149.281066
 30
0.0
 10
56.177026
 20
149.150653
 30
0.0
 10
56.244738
 20
149.021309
 30
0.0
 10
56.310762
 20
148.893097
 30
0.0
 10
56.375056
 20
148.766083
 30
0.0
 10
56.437585
 20
148.640330
 30
0.0
 10
56.498307
 20
148.515907
 30
0.0
 10
56.557182
 20
148.392873
 30
0.0
 10
56.614173
 20
148.271297
 30
0.0
 10
56.669238
 20
148.151242
 30
0.0
 10
56.722343
 20
148.032772
 30
0.0
 10
56.773444
 20
147.915956
 30
0.0
 10
56.822506
 20
147.800854
 30
0.0
 10
56.869485
 20
147.687533
 30
0.0
 10
56.914343
 20
147.576056
 30
0.0
 10
56.957044
 20
147.466490
 30
0.0
 10
56.997546
 20
147.358897
 30
0.0
 10
57.035813
 20
147.253344
 30
0.0
 10
57.071802
 20
147.149897
 30
0.0
 10
57.105475
 20
147.048618
 30
0.0
 10
57.136791
 20
146.949571
 30
0.0
 10
57.165715
 20
146.852823
 30
0.0
 10
57.192208
 20
146.758438
 30
0.0
 10
57.216232
 20
146.666482
 30
0.0
 10
57.283987
 20
146.414263
 30
0.0
 10
57.360750
 20
146.161216
 30
0.0
 10
57.446327
 20
145.907496
 30
0.0
 10
57.540524
 20
145.653255
 30
0.0
 10
57.643145
 20
145.398652
 30
0.0
 10
57.753998
 20
145.143835
 30
0.0
 10
57.872891
 20
144.888956
 30
0.0
 10
57.999624
 20
144.634176
 30
0.0
 10
58.134008
 20
144.379644
 30
0.0
 10
58.275849
 20
144.125511
 30
0.0
 10
58.424952
 20
143.871935
 30
0.0
 10
58.581122
 20
143.619070
 30
0.0
 10
58.744167
 20
143.367065
 30
0.0
 10
58.913889
 20
143.116076
 30
0.0
 10
59.090099
 20
142.866259
 30
0.0
 10
59.272600
 20
142.617762
 30
0.0
 10
59.461201
 20
142.370745
 30
0.0
 10
59.655704
 20
142.125357
 30
0.0
 10
59.855917
 20
141.881752
 30
0.0
 10
60.061643
 20
141.640084
 30
0.0
 10
60.272696
 20
141.400510
 30
0.0
 10
60.488874
 20
141.163178
 30
0.0
 10
60.709986
 20
140.928244
 30
0.0
 10
60.935840
 20
140.695863
 30
0.0
 10
61.166239
 20
140.466186
 30
0.0
 10
61.400991
 20
140.239370
 30
0.0
 10
61.639899
 20
140.015564
 30
0.0
 10
61.882771
 20
139.794925
 30
0.0
 10
62.129415
 20
139.577605
 30
0.0
 10
62.379634
 20
139.363758
 30
0.0
 10
62.633235
 20
139.153538
 30
0.0
 10
62.890023
 20
138.947100
 30
0.0
 10
63.149807
 20
138.744593
 30
0.0
 10
63.412390
 20
138.546174
 30
0.0
 10
63.677582
 20
138.351996
 30
0.0
 10
63.945184
 20
138.162211
 30
0.0
 10
64.215004
 20
137.976976
 30
0.0
 10
64.486847
 20
137.796440
 30
0.0
 10
64.760522
 20
137.620762
 30
0.0
 10
65.035834
 20
137.450090
 30
0.0
 10
65.312588
 20
137.284583
 30
0.0
 10
65.590588
 20
137.124388
 30
0.0
 10
65.869644
 20
136.969665
 30
0.0
 10
66.149560
 20
136.820564
 30
0.0
 10
66.430143
 20
136.677239
 30
0.0
 10
66.711197
 20
136.539844
 30
0.0
 10
66.992531
 20
136.408534
 30
0.0
 10
67.273950
 20
136.283457
 30
0.0
 10
67.555257
 20
136.164776
 30
0.0
 10
67.836261
 20
136.052635
 30
0.0
 10
68.116769
 20
135.947193
 30
0.0
 10
68.396585
 20
135.848601
 30
0.0
 10
68.675514
 20
135.757016
 30
0.0
 10
68.953366
 20
135.672590
 30
0.0
 10
69.229943
 20
135.595475
 30
0.0
 10
69.505051
 20
135.525823
 30
0.0
 10
69.778501
 20
135.463794
 30
0.0
 10
70.050093
 20
135.409533
 30
0.0
 10
70.319637
 20
135.363202
 30
0.0
 10
70.586935
 20
135.324949
 30
0.0
 10
70.851799
 20
135.294932
 30
0.0
 10
71.114030
 20
135.273289
 30
0.0
 10
71.373435
 20
135.260192
 30
0.0
 10
71.629822
 20
135.255800
 30
0.0
 10
71.713991
 20
135.255808
 30
0.0
 10
71.798158
 20
135.255816
 30
0.0
 10
71.882327
 20
135.255824
 30
0.0
 10
71.966494
 20
135.255832
 30
0.0
 10
72.050663
 20
135.255840
 30
0.0
 10
72.134829
 20
135.255848
 30
0.0
 10
72.218999
 20
135.255855
 30
0.0
 10
72.303165
 20
135.255866
 30
0.0
 10
72.387335
 20
135.255874
 30
0.0
 10
72.471501
 20
135.255882
 30
0.0
 10
72.555670
 20
135.255890
 30
0.0
 10
72.639837
 20
135.255898
 30
0.0
 10
72.724006
 20
135.255906
 30
0.0
 10
72.808173
 20
135.255914
 30
0.0
 10
72.892342
 20
135.255922
 30
0.0
 10
72.976511
 20
135.255930
 30
0.0
 10
73.060678
 20
135.255937
 30
0.0
 10
73.144847
 20
135.255945
 30
0.0
 10
73.229014
 20
135.255953
 30
0.0
 10
73.313183
 20
135.255961
 30
0.0
 10
73.397350
 20
135.255969
 30
0.0
 10
73.481519
 20
135.255977
 30
0.0
 10
73.565686
 20
135.255985
 30
0.0
 10
73.649855
 20
135.255996
 30
0.0
 10
73.734021
 20
135.256004
 30
0.0
 10
73.818191
 20
135.256012
 30
0.0
 10
73.902357
 20
135.256019
 30
0.0
 10
73.986526
 20
135.256027
 30
0.0
 10
74.070693
 20
135.256035
 30
0.0
 10
74.154862
 20
135.256043
 30
0.0
 10
74.239029
 20
135.256051
 30
0.0
 10
74.323198
 20
135.256059
 30
0.0
 10
74.407367
 20
135.256067
 30
0.0
 10
74.491534
 20
135.256075
 30
0.0
 10
74.575703
 20
135.256083
 30
0.0
 10
74.659870
 20
135.256091
 30
0.0
 10
74.744039
 20
135.256099
 30
0.0
 10
74.828206
 20
135.256107
 30
0.0
 10
74.912375
 20
135.256115
 30
0.0
 10
74.996542
 20
135.256125
 30
0.0
 10
75.080711
 20
135.256133
 30
0.0
 10
75.164877
 20
135.256141
 30
0.0
 10
75.249047
 20
135.256149
 30
0.0
 10
75.333213
 20
135.256157
 30
0.0
 10
75.417383
 20
135.256165
 30
0.0
 10
75.501549
 20
135.256173
 30
0.0
 10
75.585718
 20
135.256181
 30
0.0
 10
75.669885
 20
135.256189
 30
0.0
 10
75.754054
 20
135.256197
 30
0.0
 10
75.838224
 20
135.256205
 30
0.0
 10
75.922390
 20
135.256213
 30
0.0
 10
76.006559
 20
135.256221
 30
0.0
 10
76.090726
 20
135.256229
 30
0.0
 10
76.174895
 20
135.256236
 30
0.0
 10
76.259062
 20
135.256244
 30
0.0
 10
76.343231
 20
135.256252
 30
0.0
 10
76.427398
 20
135.256263
 30
0.0
 10
76.511567
 20
135.256271
 30
0.0
 10
76.595734
 20
135.256279
 30
0.0
 10
76.679903
 20
135.256287
 30
0.0
 10
76.764069
 20
135.256295
 30
0.0
 10
76.848239
 20
135.256303
 30
0.0
 10
76.932405
 20
135.256311
 30
0.0
 10
77.016574
 20
135.256318
 30
0.0
 10
77.012923
 20
135.214213
 30
0.0
 10
77.009219
 20
135.171014
 30
0.0
 10
77.005462
 20
135.126760
 30
0.0
 10
77.001652
 20
135.081479
 30
0.0
 10
76.997763
 20
135.035206
 30
0.0
 10
76.993820
 20
134.987975
 30
0.0
 10
76.989772
 20
134.939816
 30
0.0
 10
76.985645
 20
134.890765
 30
0.0
 10
76.981438
 20
134.840854
 30
0.0
 10
76.977125
 20
134.790117
 30
0.0
 10
76.972707
 20
134.738584
 30
0.0
 10
76.968156
 20
134.686292
 30
0.0
 10
76.963499
 20
134.633272
 30
0.0
 10
76.958710
 20
134.579557
 30
0.0
 10
76.953789
 20
134.525179
 30
0.0
 10
76.948735
 20
134.470173
 30
0.0
 10
76.943523
 20
134.414573
 30
0.0
 10
76.938152
 20
134.358407
 30
0.0
 10
76.932622
 20
134.301715
 30
0.0
 10
76.926934
 20
134.244525
 30
0.0
 10
76.921086
 20
134.186873
 30
0.0
 10
76.915054
 20
134.128789
 30
0.0
 10
76.908836
 20
134.070305
 30
0.0
 10
76.902433
 20
134.011462
 30
0.0
 10
76.895819
 20
133.952285
 30
0.0
 10
76.888992
 20
133.892809
 30
0.0
 10
76.881954
 20
133.833069
 30
0.0
 10
76.874705
 20
133.773096
 30
0.0
 10
76.867244
 20
133.712925
 30
0.0
 10
76.859544
 20
133.652586
 30
0.0
 10
76.851607
 20
133.592116
 30
0.0
 10
76.843431
 20
133.531545
 30
0.0
 10
76.835017
 20
133.470905
 30
0.0
 10
76.826339
 20
133.410233
 30
0.0
 10
76.817396
 20
133.349562
 30
0.0
 10
76.808189
 20
133.288922
 30
0.0
 10
76.798690
 20
133.228345
 30
0.0
 10
76.788927
 20
133.167870
 30
0.0
 10
76.778873
 20
133.107523
 30
0.0
 10
76.768501
 20
133.047341
 30
0.0
 10
76.757838
 20
132.987358
 30
0.0
 10
76.746885
 20
132.927602
 30
0.0
 10
76.735613
 20
132.868113
 30
0.0
 10
76.723998
 20
132.808917
 30
0.0
 10
76.712066
 20
132.750053
 30
0.0
 10
76.699789
 20
132.691553
 30
0.0
 10
76.687195
 20
132.633446
 30
0.0
 10
76.674257
 20
132.575769
 30
0.0
 10
76.660948
 20
132.518553
 30
0.0
 10
76.647269
 20
132.461832
 30
0.0
 10
76.633246
 20
132.405637
 30
0.0
 10
76.618853
 20
132.350006
 30
0.0
 10
76.604063
 20
132.294967
 30
0.0
 10
76.588902
 20
132.240555
 30
0.0
 10
76.573344
 20
132.186803
 30
0.0
 10
76.557390
 20
132.133743
 30
0.0
 10
76.541012
 20
132.081411
 30
0.0
 10
76.524238
 20
132.029839
 30
0.0
 10
76.507040
 20
131.979057
 30
0.0
 10
76.489419
 20
131.929098
 30
0.0
 10
76.471374
 20
131.880002
 30
0.0
 10
76.452880
 20
131.831795
 30
0.0
 10
76.433936
 20
131.784512
 30
0.0
 10
76.414542
 20
131.738186
 30
0.0
 10
76.410097
 20
131.727920
 30
0.0
 10
76.405572
 20
131.717707
 30
0.0
 10
76.400942
 20
131.707520
 30
0.0
 10
76.396232
 20
131.697360
 30
0.0
 10
76.391443
 20
131.687253
 30
0.0
 10
76.386549
 20
131.677173
 30
0.0
 10
76.381574
 20
131.667119
 30
0.0
 10
76.376521
 20
131.657117
 30
0.0
 10
76.371388
 20
131.647143
 30
0.0
 10
76.366176
 20
131.637221
 30
0.0
 10
76.360858
 20
131.627325
 30
0.0
 10
76.355460
 20
131.617456
 30
0.0
 10
76.349983
 20
131.607640
 30
0.0
 10
76.344427
 20
131.597851
 30
0.0
 10
76.338791
 20
131.588114
 30
0.0
 10
76.333076
 20
131.578404
 30
0.0
 10
76.327282
 20
131.568747
 30
0.0
 10
76.321408
 20
131.559116
 30
0.0
 10
76.315455
 20
131.549538
 30
0.0
 10
76.309449
 20
131.539986
 30
0.0
 10
76.303364
 20
131.530488
 30
0.0
 10
76.297199
 20
131.521042
 30
0.0
 10
76.290955
 20
131.511623
 30
0.0
 10
76.284658
 20
131.502257
 30
0.0
 10
76.278281
 20
131.492917
 30
0.0
 10
76.271825
 20
131.483630
 30
0.0
 10
76.265317
 20
131.474396
 30
0.0
 10
76.258728
 20
131.465189
 30
0.0
 10
76.252087
 20
131.456034
 30
0.0
 10
76.245367
 20
131.446932
 30
0.0
 10
76.238594
 20
131.437884
 30
0.0
 10
76.231741
 20
131.428861
 30
0.0
 10
76.224835
 20
131.419892
 30
0.0
 10
76.217877
 20
131.410975
 30
0.0
 10
76.210839
 20
131.402112
 30
0.0
 10
76.203748
 20
131.393275
 30
0.0
 10
76.196604
 20
131.384491
 30
0.0
 10
76.189408
 20
131.375759
 30
0.0
 10
76.182132
 20
131.367081
 30
0.0
 10
76.174803
 20
131.358456
 30
0.0
 10
76.167421
 20
131.349883
 30
0.0
 10
76.159986
 20
131.341364
 30
0.0
 10
76.152498
 20
131.332897
 30
0.0
 10
76.144958
 20
131.324457
 30
0.0
 10
76.137364
 20
131.316069
 30
0.0
 10
76.129718
 20
131.307735
 30
0.0
 10
76.122018
 20
131.299454
 30
0.0
 10
76.114266
 20
131.291225
 30
0.0
 10
76.106461
 20
131.283049
 30
0.0
 10
76.098603
 20
131.274927
 30
0.0
 10
76.090692
 20
131.266857
 30
0.0
 10
76.082754
 20
131.258840
 30
0.0
 10
76.074764
 20
131.250876
 30
0.0
 10
76.066720
 20
131.242965
 30
0.0
 10
76.058624
 20
131.235107
 30
0.0
 10
76.050501
 20
131.227328
 30
0.0
 10
76.042326
 20
131.219602
 30
0.0
 10
76.034124
 20
131.211929
 30
0.0
 10
76.025869
 20
131.204309
 30
0.0
 10
76.017587
 20
131.196742
 30
0.0
 10
76.009253
 20
131.189228
 30
0.0
 10
76.000892
 20
131.181793
 30
0.0
 10
75.992478
 20
131.174412
 30
0.0
 10
75.984038
 20
131.167083
 30
0.0
 10
75.937522
 20
131.127308
 30
0.0
 10
75.890656
 20
131.087964
 30
0.0
 10
75.843446
 20
131.049047
 30
0.0
 10
75.795898
 20
131.010552
 30
0.0
 10
75.748016
 20
130.972474
 30
0.0
 10
75.699807
 20
130.934810
 30
0.0
 10
75.651277
 20
130.897554
 30
0.0
 10
75.602432
 20
130.860700
 30
0.0
 10
75.553278
 20
130.824243
 30
0.0
 10
75.503819
 20
130.788181
 30
0.0
 10
75.454064
 20
130.752510
 30
0.0
 10
75.404016
 20
130.717219
 30
0.0
 10
75.353681
 20
130.682308
 30
0.0
 10
75.303067
 20
130.647774
 30
0.0
 10
75.252179
 20
130.613606
 30
0.0
 10
75.201022
 20
130.579805
 30
0.0
 10
75.149600
 20
130.546365
 30
0.0
 10
75.097925
 20
130.513279
 30
0.0
 10
75.045995
 20
130.480544
 30
0.0
 10
74.993822
 20
130.448154
 30
0.0
 10
74.941410
 20
130.416105
 30
0.0
 10
74.888764
 20
130.384392
 30
0.0
 10
74.835889
 20
130.353010
 30
0.0
 10
74.782793
 20
130.321956
 30
0.0
 10
74.729479
 20
130.291224
 30
0.0
 10
74.675957
 20
130.260808
 30
0.0
 10
74.622230
 20
130.230706
 30
0.0
 10
74.568303
 20
130.200909
 30
0.0
 10
74.514185
 20
130.171416
 30
0.0
 10
74.459879
 20
130.142222
 30
0.0
 10
74.405394
 20
130.113319
 30
0.0
 10
74.350731
 20
130.084707
 30
0.0
 10
74.295901
 20
130.056378
 30
0.0
 10
74.240905
 20
130.028326
 30
0.0
 10
74.185752
 20
130.000548
 30
0.0
 10
74.130449
 20
129.973042
 30
0.0
 10
74.074998
 20
129.945798
 30
0.0
 10
74.019406
 20
129.918815
 30
0.0
 10
73.963682
 20
129.892087
 30
0.0
 10
73.907829
 20
129.865608
 30
0.0
 10
73.851851
 20
129.839388
 30
0.0
 10
73.795759
 20
129.813405
 30
0.0
 10
73.739554
 20
129.787635
 30
0.0
 10
73.683245
 20
129.762103
 30
0.0
 10
73.626836
 20
129.736809
 30
0.0
 10
73.570332
 20
129.711726
 30
0.0
 10
73.513743
 20
129.686855
 30
0.0
 10
73.457069
 20
129.662196
 30
0.0
 10
73.400321
 20
129.637749
 30
0.0
 10
73.343502
 20
129.613513
 30
0.0
 10
73.286619
 20
129.589462
 30
0.0
 10
73.229678
 20
129.565623
 30
0.0
 10
73.172684
 20
129.541969
 30
0.0
 10
73.115643
 20
129.518501
 30
0.0
 10
73.058561
 20
129.495218
 30
0.0
 10
73.001443
 20
129.472093
 30
0.0
 10
72.944298
 20
129.449127
 30
0.0
 10
72.887127
 20
129.426347
 30
0.0
 10
72.829940
 20
129.403725
 30
0.0
 10
72.772740
 20
129.381262
 30
0.0
 10
72.715534
 20
129.358931
 30
0.0
 10
72.658329
 20
129.336759
 30
0.0
 10
72.601128
 20
129.314719
 30
0.0
 10
72.543939
 20
129.292811
 30
0.0
 10
72.455724
 20
129.259574
 30
0.0
 10
72.367269
 20
129.227142
 30
0.0
 10
72.278575
 20
129.195490
 30
0.0
 10
72.189651
 20
129.164600
 30
0.0
 10
72.100505
 20
129.134450
 30
0.0
 10
72.011137
 20
129.105021
 30
0.0
 10
71.921559
 20
129.076290
 30
0.0
 10
71.831778
 20
129.048236
 30
0.0
 10
71.741796
 20
129.020838
 30
0.0
 10
71.651621
 20
128.994076
 30
0.0
 10
71.561260
 20
128.967935
 30
0.0
 10
71.470717
 20
128.942376
 30
0.0
 10
71.380000
 20
128.917399
 30
0.0
 10
71.289115
 20
128.892978
 30
0.0
 10
71.198070
 20
128.869086
 30
0.0
 10
71.106870
 20
128.845697
 30
0.0
 10
71.015518
 20
128.822811
 30
0.0
 10
70.924025
 20
128.800374
 30
0.0
 10
70.832394
 20
128.778387
 30
0.0
 10
70.740634
 20
128.756824
 30
0.0
 10
70.648750
 20
128.735683
 30
0.0
 10
70.556746
 20
128.714914
 30
0.0
 10
70.464631
 20
128.694514
 30
0.0
 10
70.372411
 20
128.674459
 30
0.0
 10
70.280092
 20
128.654721
 30
0.0
 10
70.187681
 20
128.635274
 30
0.0
 10
70.095180
 20
128.616118
 30
0.0
 10
70.002603
 20
128.597227
 30
0.0
 10
69.909948
 20
128.578574
 30
0.0
 10
69.817228
 20
128.560132
 30
0.0
 10
69.724444
 20
128.541876
 30
0.0
 10
69.631604
 20
128.523805
 30
0.0
 10
69.538717
 20
128.505866
 30
0.0
 10
69.445784
 20
128.488086
 30
0.0
 10
69.352818
 20
128.470412
 30
0.0
 10
69.259819
 20
128.452817
 30
0.0
 10
69.166797
 20
128.435302
 30
0.0
 10
69.073756
 20
128.417840
 30
0.0
 10
68.980703
 20
128.400403
 30
0.0
 10
68.887646
 20
128.382967
 30
0.0
 10
68.794587
 20
128.365505
 30
0.0
 10
68.701538
 20
128.348016
 30
0.0
 10
68.608500
 20
128.330474
 30
0.0
 10
68.515483
 20
128.312853
 30
0.0
 10
68.422493
 20
128.295126
 30
0.0
 10
68.329531
 20
128.277293
 30
0.0
 10
68.236610
 20
128.259328
 30
0.0
 10
68.143733
 20
128.241204
 30
0.0
 10
68.050906
 20
128.222895
 30
0.0
 10
67.958138
 20
128.204374
 30
0.0
 10
67.865431
 20
128.185641
 30
0.0
 10
67.772795
 20
128.166644
 30
0.0
 10
67.680233
 20
128.147382
 30
0.0
 10
67.587753
 20
128.127856
 30
0.0
 10
67.495363
 20
128.108012
 30
0.0
 10
67.403066
 20
128.087851
 30
0.0
 10
67.310872
 20
128.067320
 30
0.0
 10
67.218781
 20
128.046417
 30
0.0
 10
67.126807
 20
128.025118
 30
0.0
 10
67.034951
 20
128.003423
 30
0.0
 10
66.943220
 20
127.981303
 30
0.0
 10
66.851622
 20
127.958708
 30
0.0
 10
66.760160
 20
127.935636
 30
0.0
 10
66.668845
 20
127.912088
 30
0.0
 10
66.514955
 20
127.871750
 30
0.0
 10
66.361158
 20
127.831081
 30
0.0
 10
66.207451
 20
127.790086
 30
0.0
 10
66.053829
 20
127.748782
 30
0.0
 10
65.900288
 20
127.707179
 30
0.0
 10
65.746830
 20
127.665283
 30
0.0
 10
65.593446
 20
127.623108
 30
0.0
 10
65.440138
 20
127.580661
 30
0.0
 10
65.286902
 20
127.537960
 30
0.0
 10
65.133732
 20
127.495007
 30
0.0
 10
64.980631
 20
127.451819
 30
0.0
 10
64.827588
 20
127.408404
 30
0.0
 10
64.674609
 20
127.364774
 30
0.0
 10
64.521682
 20
127.320938
 30
0.0
 10
64.368811
 20
127.276906
 30
0.0
 10
64.215991
 20
127.232689
 30
0.0
 10
64.063220
 20
127.188300
 30
0.0
 10
63.910492
 20
127.143749
 30
0.0
 10
63.757806
 20
127.099045
 30
0.0
 10
63.605160
 20
127.054198
 30
0.0
 10
63.452549
 20
127.009222
 30
0.0
 10
63.299971
 20
126.964123
 30
0.0
 10
63.147423
 20
126.918917
 30
0.0
 10
62.994904
 20
126.873609
 30
0.0
 10
62.842409
 20
126.828215
 30
0.0
 10
62.689935
 20
126.782741
 30
0.0
 10
62.537479
 20
126.737201
 30
0.0
 10
62.385040
 20
126.691603
 30
0.0
 10
62.232611
 20
126.645959
 30
0.0
 10
62.080195
 20
126.600282
 30
0.0
 10
61.927784
 20
126.554578
 30
0.0
 10
61.775376
 20
126.508860
 30
0.0
 10
61.622971
 20
126.463138
 30
0.0
 10
61.470563
 20
126.417423
 30
0.0
 10
61.318150
 20
126.371727
 30
0.0
 10
61.165729
 20
126.326057
 30
0.0
 10
61.013297
 20
126.280430
 30
0.0
 10
60.860852
 20
126.234847
 30
0.0
 10
60.708391
 20
126.189328
 30
0.0
 10
60.555909
 20
126.143878
 30
0.0
 10
60.403406
 20
126.098510
 30
0.0
 10
60.250876
 20
126.053234
 30
0.0
 10
60.098320
 20
126.008060
 30
0.0
 10
59.945729
 20
125.963001
 30
0.0
 10
59.793107
 20
125.918064
 30
0.0
 10
59.640448
 20
125.873262
 30
0.0
 10
59.487746
 20
125.828603
 30
0.0
 10
59.335005
 20
125.784103
 30
0.0
 10
59.182216
 20
125.739767
 30
0.0
 10
59.029377
 20
125.695610
 30
0.0
 10
58.876487
 20
125.651639
 30
0.0
 10
58.723542
 20
125.607867
 30
0.0
 10
58.570542
 20
125.564303
 30
0.0
 10
58.417478
 20
125.520959
 30
0.0
 10
58.264353
 20
125.477845
 30
0.0
 10
58.111159
 20
125.434972
 30
0.0
 10
57.957899
 20
125.392350
 30
0.0
 10
57.804565
 20
125.349988
 30
0.0
 10
57.651154
 20
125.307901
 30
0.0
 10
57.497667
 20
125.266096
 30
0.0
 10
57.344100
 20
125.224586
 30
0.0
 10
57.190446
 20
125.183380
 30
0.0
 10
57.036707
 20
125.142488
 30
0.0
 10
56.882878
 20
125.101922
 30
0.0
 10
56.471200
 20
124.993539
 30
0.0
 10
56.059127
 20
124.884480
 30
0.0
 10
55.646674
 20
124.774784
 30
0.0
 10
55.233858
 20
124.664492
 30
0.0
 10
54.820687
 20
124.553648
 30
0.0
 10
54.407178
 20
124.442287
 30
0.0
 10
53.993348
 20
124.330456
 30
0.0
 10
53.579209
 20
124.218190
 30
0.0
 10
53.164776
 20
124.105533
 30
0.0
 10
52.750060
 20
123.992527
 30
0.0
 10
52.335080
 20
123.879211
 30
0.0
 10
51.919851
 20
123.765623
 30
0.0
 10
51.504381
 20
123.651807
 30
0.0
 10
51.088689
 20
123.537804
 30
0.0
 10
50.672788
 20
123.423652
 30
0.0
 10
50.256693
 20
123.309394
 30
0.0
 10
49.840416
 20
123.195070
 30
0.0
 10
49.423975
 20
123.080723
 30
0.0
 10
49.007384
 20
122.966388
 30
0.0
 10
48.590652
 20
122.852110
 30
0.0
 10
48.173798
 20
122.737929
 30
0.0
 10
47.756836
 20
122.623885
 30
0.0
 10
47.339778
 20
122.510019
 30
0.0
 10
46.922639
 20
122.396373
 30
0.0
 10
46.505436
 20
122.282986
 30
0.0
 10
46.088180
 20
122.169897
 30
0.0
 10
45.670887
 20
122.057153
 30
0.0
 10
45.253571
 20
121.944787
 30
0.0
 10
44.836246
 20
121.832847
 30
0.0
 10
44.418927
 20
121.721368
 30
0.0
 10
44.001626
 20
121.610391
 30
0.0
 10
43.584359
 20
121.499962
 30
0.0
 10
43.167141
 20
121.390115
 30
0.0
 10
42.749985
 20
121.280895
 30
0.0
 10
42.332907
 20
121.172341
 30
0.0
 10
41.915918
 20
121.064495
 30
0.0
 10
41.499035
 20
120.957397
 30
0.0
 10
41.082272
 20
120.851087
 30
0.0
 10
40.665643
 20
120.745606
 30
0.0
 10
40.249160
 20
120.640997
 30
0.0
 10
39.832840
 20
120.537296
 30
0.0
 10
39.416698
 20
120.434548
 30
0.0
 10
39.000747
 20
120.332792
 30
0.0
 10
38.584999
 20
120.232068
 30
0.0
 10
38.169474
 20
120.132418
 30
0.0
 10
37.754181
 20
120.033882
 30
0.0
 10
37.339135
 20
119.936502
 30
0.0
 10
36.924353
 20
119.840315
 30
0.0
 10
36.509846
 20
119.745367
 30
0.0
 10
36.095630
 20
119.651694
 30
0.0
 10
35.681718
 20
119.559341
 30
0.0
 10
35.268130
 20
119.468345
 30
0.0
 10
34.854872
 20
119.378747
 30
0.0
 10
34.441963
 20
119.290590
 30
0.0
 10
34.029414
 20
119.203913
 30
0.0
 10
33.617243
 20
119.118757
 30
0.0
 10
33.205464
 20
119.035164
 30
0.0
 10
32.794090
 20
118.953173
 30
0.0
 10
32.383134
 20
118.872824
 30
0.0
 10
31.972612
 20
118.794161
 30
0.0
 10
31.562537
 20
118.717222
 30
0.0
 10
31.152925
 20
118.642046
 30
0.0
 10
30.743789
 20
118.568680
 30
0.0
 10
30.335145
 20
118.497158
 30
0.0
 10
30.395489
 20
118.910800
 30
0.0
 10
30.462085
 20
119.312760
 30
0.0
 10
30.534871
 20
119.703274
 30
0.0
 10
30.613799
 20
120.082584
 30
0.0
 10
30.698805
 20
120.450921
 30
0.0
 10
30.789829
 20
120.808526
 30
0.0
 10
30.886820
 20
121.155638
 30
0.0
 10
30.989717
 20
121.492493
 30
0.0
 10
31.098460
 20
121.819327
 30
0.0
 10
31.212993
 20
122.136380
 30
0.0
 10
31.333262
 20
122.443887
 30
0.0
 10
31.459207
 20
122.742091
 30
0.0
 10
31.590765
 20
123.031222
 30
0.0
 10
31.727886
 20
123.311524
 30
0.0
 10
31.870509
 20
123.583233
 30
0.0
 10
32.018578
 20
123.846583
 30
0.0
 10
32.172031
 20
124.101816
 30
0.0
 10
32.330816
 20
124.349170
 30
0.0
 10
32.494870
 20
124.588877
 30
0.0
 10
32.664140
 20
124.821181
 30
0.0
 10
32.838567
 20
125.046315
 30
0.0
 10
33.018089
 20
125.264520
 30
0.0
 10
33.202655
 20
125.476030
 30
0.0
 10
33.392205
 20
125.681085
 30
0.0
 10
33.586679
 20
125.879924
 30
0.0
 10
33.786019
 20
126.072782
 30
0.0
 10
33.990171
 20
126.259898
 30
0.0
 10
34.199075
 20
126.441508
 30
0.0
 10
34.412676
 20
126.617850
 30
0.0
 10
34.630912
 20
126.789162
 30
0.0
 10
34.853729
 20
126.955683
 30
0.0
 10
35.081067
 20
127.117651
 30
0.0
 10
35.312871
 20
127.275300
 30
0.0
 10
35.549080
 20
127.428869
 30
0.0
 10
35.789637
 20
127.578597
 30
0.0
 10
36.034487
 20
127.724721
 30
0.0
 10
36.283571
 20
127.867480
 30
0.0
 10
36.536828
 20
128.007108
 30
0.0
 10
36.794207
 20
128.143845
 30
0.0
 10
37.055644
 20
128.277928
 30
0.0
 10
37.321085
 20
128.409595
 30
0.0
 10
37.590470
 20
128.539085
 30
0.0
 10
37.863742
 20
128.666633
 30
0.0
 10
38.140846
 20
128.792476
 30
0.0
 10
38.421722
 20
128.916854
 30
0.0
 10
38.706311
 20
129.040005
 30
0.0
 10
38.994558
 20
129.162165
 30
0.0
 10
39.286404
 20
129.283572
 30
0.0
 10
39.581790
 20
129.404463
 30
0.0
 10
39.880664
 20
129.525078
 30
0.0
 10
40.182961
 20
129.645652
 30
0.0
 10
40.488626
 20
129.766423
 30
0.0
 10
40.797604
 20
129.887629
 30
0.0
 10
41.109833
 20
130.009507
 30
0.0
 10
41.425259
 20
130.132297
 30
0.0
 10
41.743823
 20
130.256233
 30
0.0
 10
42.065466
 20
130.381556
 30
0.0
 10
42.390131
 20
130.508503
 30
0.0
 10
42.717762
 20
130.637307
 30
0.0
 10
43.048300
 20
130.768213
 30
0.0
 10
43.381689
 20
130.901451
 30
0.0
 10
43.717868
 20
131.037267
 30
0.0
 10
44.056781
 20
131.175891
 30
0.0
 10
44.398371
 20
131.317564
 30
0.0
 10
44.728177
 20
131.440183
 30
0.0
 10
45.036001
 20
131.569903
 30
0.0
 10
45.322055
 20
131.706396
 30
0.0
 10
45.586554
 20
131.849324
 30
0.0
 10
45.829714
 20
131.998356
 30
0.0
 10
46.051747
 20
132.153158
 30
0.0
 10
46.252870
 20
132.313392
 30
0.0
 10
46.433295
 20
132.478728
 30
0.0
 10
46.593235
 20
132.648831
 30
0.0
 10
46.732906
 20
132.823369
 30
0.0
 10
46.852522
 20
133.002005
 30
0.0
 10
46.952296
 20
133.184406
 30
0.0
 10
47.032446
 20
133.370239
 30
0.0
 10
47.093182
 20
133.559170
 30
0.0
 10
47.134718
 20
133.750866
 30
0.0
 10
47.157261
 20
133.944991
 30
0.0
 10
47.161044
 20
134.141211
 30
0.0
 10
47.146281
 20
134.339196
 30
0.0
 10
47.113168
 20
134.538607
 30
0.0
 10
47.061926
 20
134.739114
 30
0.0
 10
46.992775
 20
134.940382
 30
0.0
 10
46.905920
 20
135.142077
 30
0.0
 10
46.801584
 20
135.343864
 30
0.0
 10
46.679976
 20
135.545410
 30
0.0
 10
46.541311
 20
135.746382
 30
0.0
 10
46.385807
 20
135.946447
 30
0.0
 10
46.213672
 20
136.145268
 30
0.0
 10
46.025125
 20
136.342512
 30
0.0
 10
45.820377
 20
136.537846
 30
0.0
 10
45.599646
 20
136.730937
 30
0.0
 10
45.363143
 20
136.921450
 30
0.0
 10
45.111082
 20
137.109050
 30
0.0
 10
44.843678
 20
137.293406
 30
0.0
 10
44.561148
 20
137.474183
 30
0.0
 10
44.263704
 20
137.651044
 30
0.0
 10
43.951556
 20
137.823660
 30
0.0
 10
43.624925
 20
137.991695
 30
0.0
 10
43.284023
 20
138.154813
 30
0.0
 10
42.929063
 20
138.312682
 30
0.0
 10
42.560258
 20
138.464971
 30
0.0
 10
42.177827
 20
138.611341
 30
0.0
 10
41.781978
 20
138.751462
 30
0.0
 10
41.372932
 20
138.884999
 30
0.0
 10
40.950895
 20
139.011616
 30
0.0
 10
40.516090
 20
139.130983
 30
0.0
 10
40.068724
 20
139.242764
 30
0.0
 10
39.609016
 20
139.346623
 30
0.0
 10
39.137179
 20
139.442230
 30
0.0
 10
38.653426
 20
139.529249
 30
0.0
 10
38.157972
 20
139.607346
 30
0.0
 10
37.651031
 20
139.676188
 30
0.0
 10
37.132815
 20
139.735444
 30
0.0
 10
36.603543
 20
139.784773
 30
0.0
 10
36.063425
 20
139.823847
 30
0.0
 10
35.512676
 20
139.852329
 30
0.0
 10
34.951513
 20
139.869898
 30
0.0
 10
34.380148
 20
139.876195
 30
0.0
 10
33.798795
 20
139.870903
 30
0.0
 10
33.207668
 20
139.853679
 30
0.0
 10
32.606985
 20
139.824201
 30
0.0
 10
31.996954
 20
139.782127
 30
0.0
 10
31.377792
 20
139.727128
 30
0.0
 10
30.749716
 20
139.658866
 30
0.0
 10
30.112935
 20
139.577009
 30
0.0
 10
29.190492
 20
139.467961
 30
0.0
 10
28.279344
 20
139.335106
 30
0.0
 10
27.379633
 20
139.178880
 30
0.0
 10
26.491509
 20
138.999717
 30
0.0
 10
25.615122
 20
138.798055
 30
0.0
 10
24.750617
 20
138.574331
 30
0.0
 10
23.898144
 20
138.328975
 30
0.0
 10
23.057850
 20
138.062428
 30
0.0
 10
22.229883
 20
137.775125
 30
0.0
 10
21.414390
 20
137.467502
 30
0.0
 10
20.611519
 20
137.139993
 30
0.0
 10
19.821419
 20
136.793034
 30
0.0
 10
19.044238
 20
136.427063
 30
0.0
 10
18.280121
 20
136.042512
 30
0.0
 10
17.529219
 20
135.639819
 30
0.0
 10
16.791679
 20
135.219420
 30
0.0
 10
16.067647
 20
134.781751
 30
0.0
 10
15.357273
 20
134.327247
 30
0.0
 10
14.660705
 20
133.856345
 30
0.0
 10
13.978089
 20
133.369477
 30
0.0
 10
13.309574
 20
132.867083
 30
0.0
 10
12.655307
 20
132.349598
 30
0.0
 10
12.015438
 20
131.817455
 30
0.0
 10
11.390112
 20
131.271093
 30
0.0
 10
10.779479
 20
130.710946
 30
0.0
 10
10.183685
 20
130.137451
 30
0.0
 10
9.602879
 20
129.551042
 30
0.0
 10
9.037209
 20
128.952158
 30
0.0
 10
8.486823
 20
128.341229
 30
0.0
 10
7.951867
 20
127.718699
 30
0.0
 10
7.432491
 20
127.084996
 30
0.0
 10
6.928842
 20
126.440561
 30
0.0
 10
6.441068
 20
125.785825
 30
0.0
 10
5.969316
 20
125.121226
 30
0.0
 10
5.513735
 20
124.447203
 30
0.0
 10
5.074472
 20
123.764187
 30
0.0
 10
4.651675
 20
123.072616
 30
0.0
 10
4.245493
 20
122.372925
 30
0.0
 10
3.856072
 20
121.665551
 30
0.0
 10
3.483560
 20
120.950930
 30
0.0
 10
3.128107
 20
120.229496
 30
0.0
 10
2.789858
 20
119.501686
 30
0.0
 10
2.468963
 20
118.767935
 30
0.0
 10
2.165569
 20
118.028679
 30
0.0
 10
1.879824
 20
117.284353
 30
0.0
 10
1.611875
 20
116.535392
 30
0.0
 10
1.361871
 20
115.782237
 30
0.0
 10
1.129959
 20
115.025317
 30
0.0
 10
0.916287
 20
114.265073
 30
0.0
 10
0.721004
 20
113.501938
 30
0.0
 10
0.544256
 20
112.736348
 30
0.0
 10
0.386192
 20
111.968739
 30
0.0
 10
0.246959
 20
111.199548
 30
0.0
 10
0.126706
 20
110.429208
 30
0.0
 10
0.025580
 20
109.658159
 30
0.0
 10
-0.056271
 20
108.886833
 30
0.0
 10
-0.118699
 20
108.115665
 30
0.0
 10
-0.161557
 20
107.345095
 30
0.0
 10
-0.184696
 20
106.575557
 30
0.0
 10
-0.187968
 20
105.807485
 30
0.0
 10
-0.171227
 20
105.041315
 30
0.0
 10
-0.134323
 20
104.277487
 30
0.0
 10
-0.077110
 20
103.516431
 30
0.0
 10
0.000562
 20
102.758585
 30
0.0
 10
0.021260
 20
101.816454
 30
0.0
 10
0.053361
 20
100.887994
 30
0.0
 10
0.096792
 20
99.973134
 30
0.0
 10
0.151478
 20
99.071802
 30
0.0
 10
0.217345
 20
98.183926
 30
0.0
 10
0.294318
 20
97.309441
 30
0.0
 10
0.382325
 20
96.448273
 30
0.0
 10
0.481289
 20
95.600355
 30
0.0
 10
0.591138
 20
94.765610
 30
0.0
 10
0.711796
 20
93.943973
 30
0.0
 10
0.843190
 20
93.135375
 30
0.0
 10
0.985246
 20
92.339741
 30
0.0
 10
1.137888
 20
91.557003
 30
0.0
 10
1.301044
 20
90.787092
 30
0.0
 10
1.474638
 20
90.029934
 30
0.0
 10
1.658597
 20
89.285462
 30
0.0
 10
1.852846
 20
88.553604
 30
0.0
 10
2.057311
 20
87.834289
 30
0.0
 10
2.271918
 20
87.127449
 30
0.0
 10
2.496593
 20
86.433013
 30
0.0
 10
2.731261
 20
85.750910
 30
0.0
 10
2.975848
 20
85.081069
 30
0.0
 10
3.230280
 20
84.423421
 30
0.0
 10
3.494483
 20
83.777893
 30
0.0
 10
3.768383
 20
83.144420
 30
0.0
 10
4.051904
 20
82.522927
 30
0.0
 10
4.344974
 20
81.913345
 30
0.0
 10
4.647518
 20
81.315604
 30
0.0
 10
4.959461
 20
80.729631
 30
0.0
 10
5.280730
 20
80.155361
 30
0.0
 10
5.611249
 20
79.592719
 30
0.0
 10
5.950946
 20
79.041637
 30
0.0
 10
6.299745
 20
78.502046
 30
0.0
 10
6.657573
 20
77.973872
 30
0.0
 10
7.024356
 20
77.457045
 30
0.0
 10
7.400018
 20
76.951498
 30
0.0
 10
7.784486
 20
76.457158
 30
0.0
 10
8.177686
 20
75.973955
 30
0.0
 10
8.579543
 20
75.501819
 30
0.0
 10
8.989983
 20
75.040680
 30
0.0
 10
9.408932
 20
74.590467
 30
0.0
 10
9.836316
 20
74.151111
 30
0.0
 10
10.272061
 20
73.722539
 30
0.0
 10
10.716092
 20
73.304682
 30
0.0
 10
11.168334
 20
72.897470
 30
0.0
 10
11.628715
 20
72.500836
 30
0.0
 10
12.097159
 20
72.114703
 30
0.0
 10
12.573593
 20
71.739005
 30
0.0
 10
13.057942
 20
71.373668
 30
0.0
 10
13.550131
 20
71.018627
 30
0.0
 10
14.050088
 20
70.673808
 30
0.0
 10
14.557737
 20
70.339142
 30
0.0
 10
15.073004
 20
70.014559
 30
0.0
 10
15.595815
 20
69.699986
 30
0.0
 10
16.126097
 20
69.395355
 30
0.0
 10
16.663773
 20
69.100596
 30
0.0
 10
17.208771
 20
68.815640
 30
0.0
 10
17.761016
 20
68.540410
 30
0.0
 10
18.320435
 20
68.274842
 30
0.0
 10
18.886952
 20
68.018866
 30
0.0
 10
19.460493
 20
67.772406
 30
0.0
 10
20.040985
 20
67.535398
 30
0.0
 10
20.628353
 20
67.307766
 30
0.0
 10
21.222522
 20
67.089445
 30
0.0
 10
21.874766
 20
66.788270
 30
0.0
 10
22.531425
 20
66.509362
 30
0.0
 10
23.191874
 20
66.252237
 30
0.0
 10
23.855488
 20
66.016414
 30
0.0
 10
24.521638
 20
65.801403
 30
0.0
 10
25.189701
 20
65.606723
 30
0.0
 10
25.859049
 20
65.431886
 30
0.0
 10
26.529056
 20
65.276412
 30
0.0
 10
27.199097
 20
65.139810
 30
0.0
 10
27.868544
 20
65.021602
 30
0.0
 10
28.536773
 20
64.921299
 30
0.0
 10
29.203157
 20
64.838415
 30
0.0
 10
29.867071
 20
64.772470
 30
0.0
 10
30.527886
 20
64.722977
 30
0.0
 10
31.184979
 20
64.689449
 30
0.0
 10
31.837722
 20
64.671405
 30
0.0
 10
32.485491
 20
64.668362
 30
0.0
 10
33.127658
 20
64.679819
 30
0.0
 10
33.763595
 20
64.705324
 30
0.0
 10
34.392682
 20
64.744366
 30
0.0
 10
35.014288
 20
64.796465
 30
0.0
 10
35.627786
 20
64.861138
 30
0.0
 10
36.232554
 20
64.937901
 30
0.0
 10
36.827965
 20
65.026272
 30
0.0
 10
37.413390
 20
65.125761
 30
0.0
 10
37.988205
 20
65.235885
 30
0.0
 10
38.551786
 20
65.356160
 30
0.0
 10
39.103503
 20
65.486102
 30
0.0
 10
39.642732
 20
65.625225
 30
0.0
 10
40.168845
 20
65.773045
 30
0.0
 10
40.681219
 20
65.929078
 30
0.0
 10
41.179226
 20
66.092839
 30
0.0
 10
41.662238
 20
66.263842
 30
0.0
 10
42.129633
 20
66.441602
 30
0.0
 10
42.580784
 20
66.625636
 30
0.0
 10
43.015061
 20
66.815461
 30
0.0
 10
43.431843
 20
67.010589
 30
0.0
 10
43.830501
 20
67.210534
 30
0.0
 10
44.210411
 20
67.414817
 30
0.0
 10
44.570946
 20
67.622946
 30
0.0
 10
44.911478
 20
67.834443
 30
0.0
 10
45.231383
 20
68.048822
 30
0.0
 10
45.530034
 20
68.265595
 30
0.0
 10
45.806804
 20
68.484278
 30
0.0
 10
46.061068
 20
68.704388
 30
0.0
 10
46.292203
 20
68.925442
 30
0.0
 10
46.499578
 20
69.146951
 30
0.0
 10
46.682569
 20
69.368434
 30
0.0
 10
46.840549
 20
69.589403
 30
0.0
 10
46.972894
 20
69.809375
 30
0.0
 10
47.078976
 20
70.027868
 30
0.0
 10
47.158168
 20
70.244392
 30
0.0
 10
47.209850
 20
70.458467
 30
0.0
 10
47.233397
 20
70.669604
 30
0.0
 10
47.228159
 20
70.877321
 30
0.0
 10
47.193538
 20
71.081134
 30
0.0
 10
47.128898
 20
71.280556
 30
0.0
 10
47.033613
 20
71.475104
 30
0.0
 10
46.907058
 20
71.664292
 30
0.0
 10
46.748604
 20
71.847638
 30
0.0
 10
46.557625
 20
72.024655
 30
0.0
 10
46.333499
 20
72.194858
 30
0.0
 10
46.075599
 20
72.357762
 30
0.0
 10
45.783296
 20
72.512885
 30
0.0
 10
45.354753
 20
72.715175
 30
0.0
 10
44.934216
 20
72.915776
 30
0.0
 10
44.521606
 20
73.114759
 30
0.0
 10
44.116852
 20
73.312196
 30
0.0
 10
43.719874
 20
73.508152
 30
0.0
 10
43.330595
 20
73.702700
 30
0.0
 10
42.948944
 20
73.895910
 30
0.0
 10
42.574839
 20
74.087846
 30
0.0
 10
42.208206
 20
74.278584
 30
0.0
 10
41.848971
 20
74.468193
 30
0.0
 10
41.497056
 20
74.656737
 30
0.0
 10
41.152386
 20
74.844293
 30
0.0
 10
40.814881
 20
75.030927
 30
0.0
 10
40.484472
 20
75.216707
 30
0.0
 10
40.161077
 20
75.401706
 30
0.0
 10
39.844620
 20
75.585991
 30
0.0
 10
39.535028
 20
75.769633
 30
0.0
 10
39.232226
 20
75.952701
 30
0.0
 10
38.936130
 20
76.135266
 30
0.0
 10
38.646674
 20
76.317395
 30
0.0
 10
38.363776
 20
76.499161
 30
0.0
 10
38.087360
 20
76.680628
 30
0.0
 10
37.817353
 20
76.861873
 30
0.0
 10
37.553675
 20
77.042959
 30
0.0
 10
37.296254
 20
77.223960
 30
0.0
 10
37.045010
 20
77.404946
 30
0.0
 10
36.799869
 20
77.585982
 30
0.0
 10
36.560754
 20
77.767142
 30
0.0
 10
36.327590
 20
77.948493
 30
0.0
 10
36.100300
 20
78.130105
 30
0.0
 10
35.878807
 20
78.312049
 30
0.0
 10
35.663036
 20
78.494394
 30
0.0
 10
35.452912
 20
78.677208
 30
0.0
 10
35.248360
 20
78.860564
 30
0.0
 10
35.049298
 20
79.044529
 30
0.0
 10
34.855657
 20
79.229174
 30
0.0
 10
34.667356
 20
79.414565
 30
0.0
 10
34.484320
 20
79.600779
 30
0.0
 10
34.306472
 20
79.787876
 30
0.0
 10
34.133739
 20
79.975934
 30
0.0
 10
33.966044
 20
80.165018
 30
0.0
 10
33.803309
 20
80.355201
 30
0.0
 10
33.645459
 20
80.546548
 30
0.0
 10
33.492416
 20
80.739132
 30
0.0
 10
33.344109
 20
80.933022
 30
0.0
 10
33.200456
 20
81.128287
 30
0.0
 10
33.061383
 20
81.324997
 30
0.0
 10
32.926816
 20
81.523223
 30
0.0
 10
32.796678
 20
81.723031
 30
0.0
 10
32.670890
 20
81.924492
 30
0.0
 10
32.549380
 20
82.127679
 30
0.0
 10
32.432069
 20
82.332660
 30
0.0
 10
32.318880
 20
82.539500
 30
0.0
 10
32.209742
 20
82.748275
 30
0.0
 10
32.104573
 20
82.959050
 30
0.0
 10
32.003301
 20
83.171897
 30
0.0
 10
31.905850
 20
83.386887
 30
0.0
 10
31.812140
 20
83.604086
 30
0.0
 10
31.722097
 20
83.823566
 30
0.0
 10
31.635647
 20
84.045395
 30
0.0
 10
31.552710
 20
84.269645
 30
0.0
 10
31.473211
 20
84.496382
 30
0.0
 10
31.397077
 20
84.725678
 30
0.0
 10
31.324229
 20
84.957604
 30
0.0
 10
31.412270
 20
84.943184
 30
0.0
 10
31.500466
 20
84.929003
 30
0.0
 10
31.588829
 20
84.915059
 30
0.0
 10
31.677358
 20
84.901354
 30
0.0
 10
31.766062
 20
84.887886
 30
0.0
 10
31.854944
 20
84.874631
 30
0.0
 10
31.944013
 20
84.861613
 30
0.0
 10
32.033273
 20
84.848807
 30
0.0
 10
32.122729
 20
84.836187
 30
0.0
 10
32.212385
 20
84.823778
 30
0.0
 10
32.302248
 20
84.811554
 30
0.0
 10
32.392323
 20
84.799516
 30
0.0
 10
32.482618
 20
84.787662
 30
0.0
 10
32.573132
 20
84.775994
 30
0.0
 10
32.663878
 20
84.764485
 30
0.0
 10
32.754858
 20
84.753134
 30
0.0
 10
32.846076
 20
84.741942
 30
0.0
 10
32.937539
 20
84.730883
 30
0.0
 10
33.029252
 20
84.719982
 30
0.0
 10
33.121221
 20
84.709213
 30
0.0
 10
33.213452
 20
84.698577
 30
0.0
 10
33.305951
 20
84.688047
 30
0.0
 10
33.398721
 20
84.677648
 30
0.0
 10
33.491767
 20
84.667356
 30
0.0
 10
33.585097
 20
84.657170
 30
0.0
 10
33.678717
 20
84.647089
 30
0.0
 10
33.772628
 20
84.637088
 30
0.0
 10
33.866841
 20
84.627192
 30
0.0
 10
33.961358
 20
84.617376
 30
0.0
 10
34.056185
 20
84.607640
 30
0.0
 10
34.151326
 20
84.597956
 30
0.0
 10
34.246790
 20
84.588325
 30
0.0
 10
34.342580
 20
84.578774
 30
0.0
 10
34.438701
 20
84.569275
 30
0.0
 10
34.535160
 20
84.559803
 30
0.0
 10
34.631963
 20
84.550384
 30
0.0
 10
34.729113
 20
84.540991
 30
0.0
 10
34.826617
 20
84.531625
 30
0.0
 10
34.924481
 20
84.522285
 30
0.0
 10
35.022707
 20
84.512945
 30
0.0
 10
35.121307
 20
84.503606
 30
0.0
 10
35.220280
 20
84.494266
 30
0.0
 10
35.319633
 20
84.484926
 30
0.0
 10
35.419373
 20
84.475586
 30
0.0
 10
35.519508
 20
84.466220
 30
0.0
 10
35.620036
 20
84.456827
 30
0.0
 10
35.720969
 20
84.447408
 30
0.0
 10
35.822310
 20
84.437936
 30
0.0
 10
35.924064
 20
84.428437
 30
0.0
 10
36.026235
 20
84.418886
 30
0.0
 10
36.128832
 20
84.409282
 30
0.0
 10
36.231861
 20
84.399624
 30
0.0
 10
36.335324
 20
84.389888
 30
0.0
 10
36.439226
 20
84.380072
 30
0.0
 10
36.543577
 20
84.370176
 30
0.0
 10
36.648376
 20
84.360201
 30
0.0
 10
36.753635
 20
84.350121
 30
0.0
 10
36.859355
 20
84.339961
 30
0.0
 10
36.965546
 20
84.329695
 30
0.0
 10
37.072207
 20
84.319323
 30
0.0
 10
37.179347
 20
84.308819
 30
0.0
 10
37.286972
 20
84.298183
 30
0.0
 10
37.395089
 20
84.287441
 30
0.0
 10
37.503697
 20
84.276540
 30
0.0
 10
38.058923
 20
84.220261
 30
0.0
 10
38.611833
 20
84.163423
 30
0.0
 10
39.162238
 20
84.106032
 30
0.0
 10
39.709952
 20
84.048080
 30
0.0
 10
40.254790
 20
83.989568
 30
0.0
 10
40.796559
 20
83.930497
 30
0.0
 10
41.335076
 20
83.870860
 30
0.0
 10
41.870150
 20
83.810659
 30
0.0
 10
42.401595
 20
83.749892
 30
0.0
 10
42.929225
 20
83.688557
 30
0.0
 10
43.452851
 20
83.626652
 30
0.0
 10
43.972286
 20
83.564176
 30
0.0
 10
44.487343
 20
83.501126
 30
0.0
 10
44.997830
 20
83.437504
 30
0.0
 10
45.503565
 20
83.373306
 30
0.0
 10
46.004358
 20
83.308528
 30
0.0
 10
46.500020
 20
83.243173
 30
0.0
 10
46.990367
 20
83.177236
 30
0.0
 10
47.475211
 20
83.110720
 30
0.0
 10
47.954361
 20
83.043616
 30
0.0
 10
48.427634
 20
82.975931
 30
0.0
 10
48.894838
 20
82.907655
 30
0.0
 10
49.355787
 20
82.838794
 30
0.0
 10
49.810294
 20
82.769341
 30
0.0
 10
50.258172
 20
82.699295
 30
0.0
 10
50.699233
 20
82.628660
 30
0.0
 10
51.133290
 20
82.557426
 30
0.0
 10
51.560152
 20
82.485597
 30
0.0
 10
51.979636
 20
82.413170
 30
0.0
 10
52.391553
 20
82.340145
 30
0.0
 10
52.795714
 20
82.266516
 30
0.0
 10
53.191936
 20
82.192288
 30
0.0
 10
53.580024
 20
82.117453
 30
0.0
 10
53.959796
 20
82.042012
 30
0.0
 10
54.331062
 20
81.965963
 30
0.0
 10
54.693634
 20
81.889308
 30
0.0
 10
55.047329
 20
81.812039
 30
0.0
 10
55.391954
 20
81.734162
 30
0.0
 10
55.727324
 20
81.655668
 30
0.0
 10
56.053251
 20
81.576557
 30
0.0
 10
56.369547
 20
81.496833
 30
0.0
 10
56.676027
 20
81.416490
 30
0.0
 10
56.972501
 20
81.335524
 30
0.0
 10
57.258780
 20
81.253938
 30
0.0
 10
57.534680
 20
81.171729
 30
0.0
 10
57.800012
 20
81.088896
 30
0.0
 10
58.054588
 20
81.005436
 30
0.0
 10
58.298219
 20
80.921346
 30
0.0
 10
58.530722
 20
80.836629
 30
0.0
 10
58.751903
 20
80.751279
 30
0.0
 10
58.961580
 20
80.665298
 30
0.0
 10
59.159565
 20
80.578681
 30
0.0
 10
59.345668
 20
80.491430
 30
0.0
 10
59.519700
 20
80.403540
 30
0.0
 10
59.681480
 20
80.315011
 30
0.0
 10
59.830813
 20
80.225841
 30
0.0
 10
59.967515
 20
80.136031
 30
0.0
 10
60.091399
 20
80.045575
 30
0.0
 10
60.202277
 20
79.954474
 30
0.0
 10
60.299959
 20
79.862727
 30
0.0
 10
60.384263
 20
79.770331
 30
0.0
 10
60.454994
 20
79.677285
 30
0.0
 10
60.511972
 20
79.583586
 30
0.0
 10
60.555004
 20
79.489236
 30
0.0
 10
60.574557
 20
79.437253
 30
0.0
 10
60.593289
 20
79.386180
 30
0.0
 10
60.611175
 20
79.335933
 30
0.0
 10
60.628214
 20
79.286417
 30
0.0
 10
60.644354
 20
79.237540
 30
0.0
 10
60.659567
 20
79.189217
 30
0.0
 10
60.673855
 20
79.141351
 30
0.0
 10
60.687190
 20
79.093853
 30
0.0
 10
60.699519
 20
79.046635
 30
0.0
 10
60.710844
 20
78.999606
 30
0.0
 10
60.721136
 20
78.952671
 30
0.0
 10
60.730370
 20
78.905742
 30
0.0
 10
60.738519
 20
78.858731
 30
0.0
 10
60.745557
 20
78.811545
 30
0.0
 10
60.751457
 20
78.764092
 30
0.0
 10
60.756220
 20
78.716282
 30
0.0
 10
60.759792
 20
78.668024
 30
0.0
 10
60.762173
 20
78.619230
 30
0.0
 10
60.763231
 20
78.569808
 30
0.0
 10
60.763123
 20
78.519667
 30
0.0
 10
60.761800
 20
78.468714
 30
0.0
 10
60.759127
 20
78.416863
 30
0.0
 10
60.755106
 20
78.364018
 30
0.0
 10
60.749735
 20
78.310093
 30
0.0
 10
60.742988
 20
78.254997
 30
0.0
 10
60.734865
 20
78.198635
 30
0.0
 10
60.725314
 20
78.140919
 30
0.0
 10
60.714307
 20
78.081761
 30
0.0
 10
60.701845
 20
78.021065
 30
0.0
 10
60.687875
 20
77.958743
 30
0.0
 10
60.672397
 20
77.894706
 30
0.0
 10
60.655384
 20
77.828861
 30
0.0
 10
60.636784
 20
77.761117
 30
0.0
 10
60.616596
 20
77.691386
 30
0.0
 10
60.594795
 20
77.619576
 30
0.0
 10
60.571353
 20
77.545596
 30
0.0
 10
60.546244
 20
77.469353
 30
0.0
 10
60.519457
 20
77.390762
 30
0.0
 10
60.490959
 20
77.309728
 30
0.0
 10
60.460725
 20
77.226159
 30
0.0
 10
60.428732
 20
77.139968
 30
0.0
 10
60.394952
 20
77.051063
 30
0.0
 10
60.359366
 20
76.959353
 30
0.0
 10
60.321946
 20
76.864749
 30
0.0
 10
60.282668
 20
76.767157
 30
0.0
 10
60.241510
 20
76.666489
 30
0.0
 10
60.198449
 20
76.562653
 30
0.0
 10
60.153457
 20
76.455560
 30
0.0
 10
60.106509
 20
76.345115
 30
0.0
 10
60.057585
 20
76.231233
 30
0.0
 10
60.006660
 20
76.113822
 30
0.0
 10
59.953709
 20
75.992788
 30
0.0
 10
59.898705
 20
75.868045
 30
0.0
 10
59.841629
 20
75.739497
 30
0.0
 10
59.782455
 20
75.607057
 30
0.0
 10
59.721156
 20
75.470635
 30
0.0
 10
59.657712
 20
75.330136
 30
0.0
 10
59.592095
 20
75.185475
 30
0.0
 10
59.524283
 20
75.036557
 30
0.0
 10
59.454253
 20
74.883292
 30
0.0
 10
59.381977
 20
74.725590
 30
0.0
 10
59.307435
 20
74.563361
 30
0.0
 10
59.230598
 20
74.396514
 30
0.0
 10
59.151448
 20
74.224959
 30
0.0
 10
59.019249
 20
73.940574
 30
0.0
 10
58.881684
 20
73.648291
 30
0.0
 10
58.738946
 20
73.348402
 30
0.0
 10
58.591237
 20
73.041192
 30
0.0
 10
58.438750
 20
72.726951
 30
0.0
 10
58.281686
 20
72.405975
 30
0.0
 10
58.120239
 20
72.078547
 30
0.0
 10
57.954608
 20
71.744958
 30
0.0
 10
57.784989
 20
71.405503
 30
0.0
 10
57.611581
 20
71.060465
 30
0.0
 10
57.434580
 20
70.710138
 30
0.0
 10
57.254182
 20
70.354814
 30
0.0
 10
57.070587
 20
69.994777
 30
0.0
 10
56.883990
 20
69.630318
 30
0.0
 10
56.694590
 20
69.261730
 30
0.0
 10
56.502585
 20
68.889302
 30
0.0
 10
56.308169
 20
68.513322
 30
0.0
 10
56.111541
 20
68.134081
 30
0.0
 10
55.912897
 20
67.751867
 30
0.0
 10
55.712439
 20
67.366975
 30
0.0
 10
55.510358
 20
66.979688
 30
0.0
 10
55.306856
 20
66.590301
 30
0.0
 10
55.102127
 20
66.199101
 30
0.0
 10
54.896368
 20
65.806380
 30
0.0
 10
54.689779
 20
65.412426
 30
0.0
 10
54.482555
 20
65.017530
 30
0.0
 10
54.274896
 20
64.621981
 30
0.0
 10
54.066997
 20
64.226071
 30
0.0
 10
53.859054
 20
63.830085
 30
0.0
 10
53.651268
 20
63.434319
 30
0.0
 10
53.443832
 20
63.039058
 30
0.0
 10
53.236947
 20
62.644593
 30
0.0
 10
53.030810
 20
62.251216
 30
0.0
 10
52.825615
 20
61.859212
 30
0.0
 10
52.621560
 20
61.468878
 30
0.0
 10
52.418844
 20
61.080498
 30
0.0
 10
52.217666
 20
60.694363
 30
0.0
 10
52.018218
 20
60.310765
 30
0.0
 10
51.820701
 20
59.929992
 30
0.0
 10
51.625311
 20
59.552334
 30
0.0
 10
51.432248
 20
59.178081
 30
0.0
 10
51.241703
 20
58.807524
 30
0.0
 10
51.053880
 20
58.440952
 30
0.0
 10
50.868973
 20
58.078652
 30
0.0
 10
50.687178
 20
57.720917
 30
0.0
 10
50.508696
 20
57.368037
 30
0.0
 10
50.333719
 20
57.020303
 30
0.0
 10
50.162451
 20
56.678001
 30
0.0
 10
49.995084
 20
56.341422
 30
0.0
 10
49.831815
 20
56.010857
 30
0.0
 10
49.672845
 20
55.686597
 30
0.0
 10
49.518368
 20
55.368930
 30
0.0
 10
49.368585
 20
55.058145
 30
0.0
 10
49.223689
 20
54.754533
 30
0.0
 10
49.083877
 20
54.458383
 30
0.0
 10
48.949353
 20
54.169987
 30
0.0
 10
48.820305
 20
53.889634
 30
0.0
 10
48.696938
 20
53.617611
 30
0.0
 10
48.579444
 20
53.354213
 30
0.0
 10
48.468023
 20
53.099723
 30
0.0
 10
48.362872
 20
52.854439
 30
0.0
 10
48.264188
 20
52.618645
 30
0.0
 10
48.172166
 20
52.392632
 30
0.0
 10
48.087007
 20
52.176690
 30
0.0
 10
48.066872
 20
52.124784
 30
0.0
 10
48.045203
 20
52.069161
 30
0.0
 10
48.022052
 20
52.009878
 30
0.0
 10
47.997419
 20
51.947005
 30
0.0
 10
47.971357
 20
51.880608
 30
0.0
 10
47.943886
 20
51.810750
 30
0.0
 10
47.915030
 20
51.737495
 30
0.0
 10
47.884812
 20
51.660911
 30
0.0
 10
47.853258
 20
51.581060
 30
0.0
 10
47.820397
 20
51.498007
 30
0.0
 10
47.786255
 20
51.411822
 30
0.0
 10
47.750856
 20
51.322565
 30
0.0
 10
47.714227
 20
51.230299
 30
0.0
 10
47.676395
 20
51.135097
 30
0.0
 10
47.637384
 20
51.037018
 30
0.0
 10
47.597223
 20
50.936128
 30
0.0
 10
47.555935
 20
50.832493
 30
0.0
 10
47.513549
 20
50.726175
 30
0.0
 10
47.470088
 20
50.617244
 30
0.0
 10
47.425583
 20
50.505762
 30
0.0
 10
47.380056
 20
50.391795
 30
0.0
 10
47.333534
 20
50.275405
 30
0.0
 10
47.286042
 20
50.156662
 30
0.0
 10
47.237610
 20
50.035629
 30
0.0
 10
47.188260
 20
49.912367
 30
0.0
 10
47.138018
 20
49.786950
 30
0.0
 10
47.086914
 20
49.659434
 30
0.0
 10
47.034971
 20
49.529888
 30
0.0
 10
46.982215
 20
49.398377
 30
0.0
 10
46.928677
 20
49.264964
 30
0.0
 10
46.874376
 20
49.129717
 30
0.0
 10
46.819343
 20
48.992700
 30
0.0
 10
46.763601
 20
48.853978
 30
0.0
 10
46.707178
 20
48.713614
 30
0.0
 10
46.650102
 20
48.571676
 30
0.0
 10
46.592394
 20
48.428229
 30
0.0
 10
46.534085
 20
48.283336
 30
0.0
 10
46.475200
 20
48.137061
 30
0.0
 10
46.415761
 20
47.989471
 30
0.0
 10
46.355798
 20
47.840632
 30
0.0
 10
46.295338
 20
47.690608
 30
0.0
 10
46.234405
 20
47.539462
 30
0.0
 10
46.173027
 20
47.387263
 30
0.0
 10
46.111228
 20
47.234072
 30
0.0
 10
46.049035
 20
47.079958
 30
0.0
 10
45.986474
 20
46.924981
 30
0.0
 10
45.923572
 20
46.769213
 30
0.0
 10
45.860353
 20
46.612712
 30
0.0
 10
45.796845
 20
46.455544
 30
0.0
 10
45.733075
 20
46.297778
 30
0.0
 10
45.669064
 20
46.139478
 30
0.0
 10
45.604845
 20
45.980707
 30
0.0
 10
45.540443
 20
45.821531
 30
0.0
 10
45.475879
 20
45.662016
 30
0.0
 10
45.411180
 20
45.502224
 30
0.0
 10
45.346379
 20
45.342225
 30
0.0
 10
45.281495
 20
45.182078
 30
0.0
 10
45.216558
 20
45.021851
 30
0.0
 10
45.151592
 20
44.861612
 30
0.0
 10
45.086624
 20
44.701420
 30
0.0
 10
45.021679
 20
44.541344
 30
0.0
 10
44.956785
 20
44.381449
 30
0.0
 10
44.891967
 20
44.221799
 30
0.0
 10
44.827250
 20
44.062459
 30
0.0
 10
44.762094
 20
43.901960
 30
0.0
 10
44.695961
 20
43.738858
 30
0.0
 10
44.628889
 20
43.573239
 30
0.0
 10
44.560918
 20
43.405200
 30
0.0
 10
44.492081
 20
43.234834
 30
0.0
 10
44.422414
 20
43.062234
 30
0.0
 10
44.351958
 20
42.887495
 30
0.0
 10
44.280748
 20
42.710708
 30
0.0
 10
44.208821
 20
42.531966
 30
0.0
 10
44.136211
 20
42.351364
 30
0.0
 10
44.062962
 20
42.168995
 30
0.0
 10
43.989103
 20
41.984951
 30
0.0
 10
43.914673
 20
41.799327
 30
0.0
 10
43.839711
 20
41.612214
 30
0.0
 10
43.764255
 20
41.423706
 30
0.0
 10
43.688338
 20
41.233899
 30
0.0
 10
43.611998
 20
41.042883
 30
0.0
 10
43.535274
 20
40.850751
 30
0.0
 10
43.458198
 20
40.657600
 30
0.0
 10
43.380813
 20
40.463520
 30
0.0
 10
43.303152
 20
40.268604
 30
0.0
 10
43.225254
 20
40.072947
 30
0.0
 10
43.147151
 20
39.876642
 30
0.0
 10
43.068888
 20
39.679782
 30
0.0
 10
42.990494
 20
39.482458
 30
0.0
 10
42.912011
 20
39.284769
 30
0.0
 10
42.833475
 20
39.086803
 30
0.0
 10
42.754920
 20
38.888654
 30
0.0
 10
42.676386
 20
38.690417
 30
0.0
 10
42.597908
 20
38.492184
 30
0.0
 10
42.519523
 20
38.294050
 30
0.0
 10
42.441267
 20
38.096105
 30
0.0
 10
42.363180
 20
37.898445
 30
0.0
 10
42.285298
 20
37.701164
 30
0.0
 10
42.207656
 20
37.504351
 30
0.0
 10
42.130291
 20
37.308104
 30
0.0
 10
42.053242
 20
37.112514
 30
0.0
 10
41.976545
 20
36.917675
 30
0.0
 10
41.900234
 20
36.723679
 30
0.0
 10
41.824348
 20
36.530621
 30
0.0
 10
41.748926
 20
36.338592
 30
0.0
 10
41.674004
 20
36.147687
 30
0.0
 10
41.599614
 20
35.957999
 30
0.0
 10
41.525801
 20
35.769618
 30
0.0
 10
41.452593
 20
35.582645
 30
0.0
 10
41.380034
 20
35.397167
 30
0.0
 10
41.308157
 20
35.213279
 30
0.0
 10
41.237003
 20
35.031074
 30
0.0
 10
41.166602
 20
34.850644
 30
0.0
 10
41.096996
 20
34.672084
 30
0.0
 10
41.028223
 20
34.495488
 30
0.0
 10
40.960315
 20
34.320948
 30
0.0
 10
40.893311
 20
34.148559
 30
0.0
 10
40.827248
 20
33.978410
 30
0.0
 10
40.762163
 20
33.810598
 30
0.0
 10
40.698094
 20
33.645215
 30
0.0
 10
40.635078
 20
33.482354
 30
0.0
 10
40.573147
 20
33.322109
 30
0.0
 10
40.512343
 20
33.164573
 30
0.0
 10
40.452704
 20
33.009840
 30
0.0
 10
40.394260
 20
32.858001
 30
0.0
 10
40.337054
 20
32.709151
 30
0.0
 10
40.281121
 20
32.563384
 30
0.0
 10
40.226498
 20
32.420793
 30
0.0
 10
40.172489
 20
32.279764
 30
0.0
 10
40.118384
 20
32.138662
 30
0.0
 10
40.064205
 20
31.997539
 30
0.0
 10
40.009974
 20
31.856452
 30
0.0
 10
39.955715
 20
31.715458
 30
0.0
 10
39.901447
 20
31.574610
 30
0.0
 10
39.847197
 20
31.433966
 30
0.0
 10
39.792978
 20
31.293575
 30
0.0
 10
39.738821
 20
31.153497
 30
0.0
 10
39.684742
 20
31.013783
 30
0.0
 10
39.630767
 20
30.874493
 30
0.0
 10
39.576914
 20
30.735682
 30
0.0
 10
39.523209
 20
30.597401
 30
0.0
 10
39.469671
 20
30.459709
 30
0.0
 10
39.416320
 20
30.322657
 30
0.0
 10
39.363184
 20
30.186304
 30
0.0
 10
39.310280
 20
30.050703
 30
0.0
 10
39.257631
 20
29.915908
 30
0.0
 10
39.205259
 20
29.781979
 30
0.0
 10
39.153187
 20
29.648965
 30
0.0
 10
39.101437
 20
29.516924
 30
0.0
 10
39.050028
 20
29.385913
 30
0.0
 10
38.998985
 20
29.255984
 30
0.0
 10
38.948328
 20
29.127196
 30
0.0
 10
38.898081
 20
28.999598
 30
0.0
 10
38.848262
 20
28.873249
 30
0.0
 10
38.798896
 20
28.748204
 30
0.0
 10
38.750007
 20
28.624519
 30
0.0
 10
38.701614
 20
28.502247
 30
0.0
 10
38.653738
 20
28.381444
 30
0.0
 10
38.606401
 20
28.262164
 30
0.0
 10
38.559628
 20
28.144464
 30
0.0
 10
38.513440
 20
28.028397
 30
0.0
 10
38.467855
 20
27.914020
 30
0.0
 10
38.422900
 20
27.801390
 30
0.0
 10
38.378592
 20
27.690559
 30
0.0
 10
38.334960
 20
27.581579
 30
0.0
 10
38.292018
 20
27.474513
 30
0.0
 10
38.249793
 20
27.369410
 30
0.0
 10
38.208304
 20
27.266326
 30
0.0
 10
38.167574
 20
27.165318
 30
0.0
 10
38.127627
 20
27.066441
 30
0.0
 10
38.088482
 20
26.969749
 30
0.0
 10
38.050163
 20
26.875298
 30
0.0
 10
38.012690
 20
26.783141
 30
0.0
 10
37.976084
 20
26.693336
 30
0.0
 10
37.940371
 20
26.605936
 30
0.0
 10
37.905570
 20
26.520997
 30
0.0
 10
37.871706
 20
26.438574
 30
0.0
 10
37.838795
 20
26.358723
 30
0.0
 10
37.806862
 20
26.281496
 30
0.0
 10
37.775932
 20
26.206953
 30
0.0
 10
37.746024
 20
26.135145
 30
0.0
 10
37.717158
 20
26.066128
 30
0.0
 10
37.689358
 20
25.999961
 30
0.0
 10
37.662648
 20
25.936691
 30
0.0
 10
37.637037
 20
25.876382
 30
0.0
 10
37.612563
 20
25.819081
 30
0.0
 10
37.589253
 20
25.764850
 30
0.0
 10
37.567107
 20
25.713740
 30
0.0
 10
37.546179
 20
25.665808
 30
0.0
 10
37.526467
 20
25.621109
 30
0.0
 10
37.507973
 20
25.579697
 30
0.0
 10
37.490749
 20
25.541626
 30
0.0
 10
37.392591
 20
25.324559
 30
0.0
 10
37.290930
 20
25.096446
 30
0.0
 10
37.185909
 20
24.857670
 30
0.0
 10
37.077668
 20
24.608615
 30
0.0
 10
36.966347
 20
24.349660
 30
0.0
 10
36.852090
 20
24.081189
 30
0.0
 10
36.735035
 20
23.803583
 30
0.0
 10
36.615324
 20
23.517225
 30
0.0
 10
36.493100
 20
23.222500
 30
0.0
 10
36.368503
 20
22.919785
 30
0.0
 10
36.241672
 20
22.609469
 30
0.0
 10
36.112748
 20
22.291929
 30
0.0
 10
35.981878
 20
21.967547
 30
0.0
 10
35.849194
 20
21.636709
 30
0.0
 10
35.714844
 20
21.299797
 30
0.0
 10
35.578967
 20
20.957191
 30
0.0
 10
35.441707
 20
20.609274
 30
0.0
 10
35.303198
 20
20.256428
 30
0.0
 10
35.163588
 20
19.899037
 30
0.0
 10
35.023012
 20
19.537481
 30
0.0
 10
34.881616
 20
19.172145
 30
0.0
 10
34.739540
 20
18.803411
 30
0.0
 10
34.596924
 20
18.431658
 30
0.0
 10
34.453909
 20
18.057273
 30
0.0
 10
34.310637
 20
17.680633
 30
0.0
 10
34.167249
 20
17.302125
 30
0.0
 10
34.023884
 20
16.922131
 30
0.0
 10
33.880686
 20
16.541030
 30
0.0
 10
33.737796
 20
16.159207
 30
0.0
 10
33.595352
 20
15.777043
 30
0.0
 10
33.453498
 20
15.394924
 30
0.0
 10
33.312375
 20
15.013226
 30
0.0
 10
33.172122
 20
14.632337
 30
0.0
 10
33.032879
 20
14.252633
 30
0.0
 10
32.894793
 20
13.874504
 30
0.0
 10
32.758001
 20
13.498327
 30
0.0
 10
32.622643
 20
13.124487
 30
0.0
 10
32.488862
 20
12.753364
 30
0.0
 10
32.356800
 20
12.385342
 30
0.0
 10
32.226593
 20
12.020804
 30
0.0
 10
32.098390
 20
11.660132
 30
0.0
 10
31.972326
 20
11.303704
 30
0.0
 10
31.848544
 20
10.951909
 30
0.0
 10
31.727185
 20
10.605124
 30
0.0
 10
31.608392
 20
10.263735
 30
0.0
 10
31.492301
 20
9.928124
 30
0.0
 10
31.379056
 20
9.598671
 30
0.0
 10
31.268802
 20
9.275760
 30
0.0
 10
31.161672
 20
8.959773
 30
0.0
 10
31.057815
 20
8.651092
 30
0.0
 10
30.957366
 20
8.350099
 30
0.0
 10
30.860470
 20
8.057179
 30
0.0
 10
30.767266
 20
7.772710
 30
0.0
 10
30.677897
 20
7.497077
 30
0.0
 10
30.592503
 20
7.230663
 30
0.0
 10
30.511223
 20
6.973848
 30
0.0
 10
30.434200
 20
6.727015
 30
0.0
 10
30.361575
 20
6.490549
 30
0.0
 10
30.293489
 20
6.264828
 30
0.0
 10
30.230085
 20
6.050238
 30
0.0
 10
30.171501
 20
5.847159
 30
0.0
 10
30.117880
 20
5.655977
 30
0.0
 10
30.069361
 20
5.477068
 30
0.0
 10
30.026088
 20
5.310820
 30
0.0
 10
29.995225
 20
5.187892
 30
0.0
 10
29.965554
 20
5.066713
 30
0.0
 10
29.937077
 20
4.947275
 30
0.0
 10
29.909796
 20
4.829564
 30
0.0
 10
29.883708
 20
4.713576
 30
0.0
 10
29.858811
 20
4.599300
 30
0.0
 10
29.835131
 20
4.486728
 30
0.0
 10
29.812641
 20
4.375851
 30
0.0
 10
29.791342
 20
4.266658
 30
0.0
 10
29.771234
 20
4.159144
 30
0.0
 10
29.752342
 20
4.053295
 30
0.0
 10
29.734642
 20
3.949107
 30
0.0
 10
29.718158
 20
3.846568
 30
0.0
 10
29.702865
 20
3.745669
 30
0.0
 10
29.688790
 20
3.646403
 30
0.0
 10
29.675904
 20
3.548761
 30
0.0
 10
29.664236
 20
3.452731
 30
0.0
 10
29.653785
 20
3.358306
 30
0.0
 10
29.644525
 20
3.265480
 30
0.0
 10
29.636481
 20
3.174238
 30
0.0
 10
29.629655
 20
3.084576
 30
0.0
 10
29.624020
 20
2.996483
 30
0.0
 10
29.619601
 20
2.909951
 30
0.0
 10
29.616400
 20
2.824970
 30
0.0
 10
29.614283
 20
2.741531
 30
0.0
 10
29.613489
 20
2.659626
 30
0.0
 10
29.614018
 20
2.579246
 30
0.0
 10
29.615606
 20
2.500381
 30
0.0
 10
29.618490
 20
2.423025
 30
0.0
 10
29.622591
 20
2.347164
 30
0.0
 10
29.627909
 20
2.272795
 30
0.0
 10
29.634444
 20
2.199905
 30
0.0
 10
29.642196
 20
2.128483
 30
0.0
 10
29.651166
 20
2.058527
 30
0.0
 10
29.661352
 20
1.990021
 30
0.0
 10
29.672756
 20
1.922963
 30
0.0
 10
29.685403
 20
1.857338
 30
0.0
 10
29.699267
 20
1.793140
 30
0.0
 10
29.714348
 20
1.730357
 30
0.0
 10
29.730673
 20
1.668984
 30
0.0
 10
29.748215
 20
1.609011
 30
0.0
 10
29.767000
 20
1.550429
 30
0.0
 10
29.787003
 20
1.493229
 30
0.0
 10
29.808222
 20
1.437399
 30
0.0
 10
29.830686
 20
1.382938
 30
0.0
 10
29.854392
 20
1.329828
 30
0.0
 10
29.879316
 20
1.278062
 30
0.0
 10
29.905483
 20
1.227638
 30
0.0
 10
29.932881
 20
1.178539
 30
0.0
 10
29.961511
 20
1.130758
 30
0.0
 10
29.991378
 20
1.084289
 30
0.0
 10
30.022485
 20
1.039122
 30
0.0
 10
30.054825
 20
0.995246
 30
0.0
 10
30.088406
 20
0.952654
 30
0.0
 10
30.123227
 20
0.911334
 30
0.0
 10
30.159288
 20
0.871281
 30
0.0
 10
30.196591
 20
0.832485
 30
0.0
 10
30.235136
 20
0.794938
 30
0.0
 10
30.274924
 20
0.758627
 30
0.0
 10
30.315955
 20
0.723548
 30
0.0
 10
30.358233
 20
0.689687
 30
0.0
 10
30.401754
 20
0.657040
 30
0.0
 10
30.446524
 20
0.625594
 30
0.0
 10
30.492541
 20
0.595344
 30
0.0
 10
30.502780
 20
0.591005
 30
0.0
 10
30.513020
 20
0.586666
 30
0.0
 10
30.523259
 20
0.582353
 30
0.0
 10
30.533498
 20
0.578014
 30
0.0
 10
30.543738
 20
0.573675
 30
0.0
 10
30.553977
 20
0.569336
 30
0.0
 10
30.564216
 20
0.565023
 30
0.0
 10
30.574456
 20
0.560684
 30
0.0
 10
30.584695
 20
0.556345
 30
0.0
 10
30.594935
 20
0.552006
 30
0.0
 10
30.605174
 20
0.547693
 30
0.0
 10
30.615413
 20
0.543354
 30
0.0
 10
30.625653
 20
0.539015
 30
0.0
 10
30.635892
 20
0.534675
 30
0.0
 10
30.646131
 20
0.530363
 30
0.0
 10
30.656371
 20
0.526024
 30
0.0
 10
30.666610
 20
0.521684
 30
0.0
 10
30.676850
 20
0.517345
 30
0.0
 10
30.687089
 20
0.513033
 30
0.0
 10
30.697328
 20
0.508693
 30
0.0
 10
30.707568
 20
0.504354
 30
0.0
 10
30.717807
 20
0.500015
 30
0.0
 10
30.728046
 20
0.495702
 30
0.0
 10
30.738286
 20
0.491363
 30
0.0
 10
30.748525
 20
0.487024
 30
0.0
 10
30.758765
 20
0.482685
 30
0.0
 10
30.769004
 20
0.478372
 30
0.0
 10
30.779243
 20
0.474033
 30
0.0
 10
30.789483
 20
0.469694
 30
0.0
 10
30.799722
 20
0.465355
 30
0.0
 10
30.809961
 20
0.461042
 30
0.0
 10
30.820201
 20
0.456703
 30
0.0
 10
30.830440
 20
0.452364
 30
0.0
 10
30.840680
 20
0.448051
 30
0.0
 10
30.850919
 20
0.443712
 30
0.0
 10
30.861158
 20
0.439373
 30
0.0
 10
30.871398
 20
0.435033
 30
0.0
 10
30.881637
 20
0.430721
 30
0.0
 10
30.891876
 20
0.426382
 30
0.0
 10
30.902116
 20
0.422042
 30
0.0
 10
30.912355
 20
0.417703
 30
0.0
 10
30.922595
 20
0.413390
 30
0.0
 10
30.932834
 20
0.409051
 30
0.0
 10
30.943073
 20
0.404712
 30
0.0
 10
30.953313
 20
0.400373
 30
0.0
 10
30.963552
 20
0.396060
 30
0.0
 10
30.973791
 20
0.391721
 30
0.0
 10
30.984031
 20
0.387382
 30
0.0
 10
30.994270
 20
0.383043
 30
0.0
 10
31.004510
 20
0.378730
 30
0.0
 10
31.014749
 20
0.374391
 30
0.0
 10
31.024988
 20
0.370052
 30
0.0
 10
31.035228
 20
0.365713
 30
0.0
 10
31.045467
 20
0.361400
 30
0.0
 10
31.055706
 20
0.357061
 30
0.0
 10
31.065946
 20
0.352722
 30
0.0
 10
31.076185
 20
0.348382
 30
0.0
 10
31.086425
 20
0.344070
 30
0.0
 10
31.096664
 20
0.339730
 30
0.0
 10
31.106903
 20
0.335391
 30
0.0
 10
31.117143
 20
0.331052
 30
0.0
 10
31.127382
 20
0.326739
 30
0.0
 10
31.137621
 20
0.322400
 30
0.0
 10
31.147861
 20
0.318061
 30
0.0
 10
31.166038
 20
0.311420
 30
0.0
 10
31.198933
 20
0.305202
 30
0.0
 10
31.246447
 20
0.299408
 30
0.0
 10
31.308487
 20
0.294010
 30
0.0
 10
31.384959
 20
0.289010
 30
0.0
 10
31.475777
 20
0.284406
 30
0.0
 10
31.580846
 20
0.280173
 30
0.0
 10
31.700075
 20
0.276310
 30
0.0
 10
31.833375
 20
0.272817
 30
0.0
 10
31.980647
 20
0.269669
 30
0.0
 10
32.141808
 20
0.266864
 30
0.0
 10
32.316761
 20
0.264483
 30
0.0
 10
32.505417
 20
0.262366
 30
0.0
 10
32.707680
 20
0.260514
 30
0.0
 10
32.923466
 20
0.258927
 30
0.0
 10
33.152675
 20
0.257604
 30
0.0
 10
33.395224
 20
0.256545
 30
0.0
 10
33.651012
 20
0.255752
 30
0.0
 10
33.919956
 20
0.255223
 30
0.0
 10
34.201959
 20
0.254958
 30
0.0
 10
34.496930
 20
0.254926
 30
0.0
 10
34.804781
 20
0.255114
 30
0.0
 10
35.125416
 20
0.255643
 30
0.0
 10
35.458743
 20
0.256172
 30
0.0
 10
35.804676
 20
0.256966
 30
0.0
 10
36.163117
 20
0.258024
 30
0.0
 10
36.533981
 20
0.259083
 30
0.0
 10
36.917169
 20
0.260406
 30
0.0
 10
37.312594
 20
0.261729
 30
0.0
 10
37.720166
 20
0.263316
 30
0.0
 10
38.139787
 20
0.264904
 30
0.0
 10
38.571371
 20
0.266756
 30
0.0
 10
39.014825
 20
0.268608
 30
0.0
 10
39.470057
 20
0.270724
 30
0.0
 10
39.936975
 20
0.272841
 30
0.0
 10
40.415487
 20
0.274958
 30
0.0
 10
40.905501
 20
0.277074
 30
0.0
 10
41.406929
 20
0.279456
 30
0.0
 10
41.919675
 20
0.281837
 30
0.0
 10
42.443651
 20
0.284218
 30
0.0
 10
42.978763
 20
0.286599
 30
0.0
 10
43.524918
 20
0.288981
 30
0.0
 10
44.082027
 20
0.291362
 30
0.0
 10
44.650001
 20
0.293743
 30
0.0
 10
45.228742
 20
0.296124
 30
0.0
 10
45.818162
 20
0.298506
 30
0.0
 10
46.418169
 20
0.300887
 30
0.0
 10
47.028671
 20
0.303004
 30
0.0
 10
47.649576
 20
0.305120
 30
0.0
 10
48.280796
 20
0.307237
 30
0.0
 10
48.922235
 20
0.309354
 30
0.0
 10
49.573801
 20
0.311206
 30
0.0
 10
50.235405
 20
0.313058
 30
0.0
 10
50.906957
 20
0.314645
 30
0.0
 10
51.588360
 20
0.316233
 30
0.0
 10
52.279525
 20
0.317556
 30
0.0
 10
52.980364
 20
0.318879
 30
0.0
 10
53.690779
 20
0.319937
 30
0.0
 10
54.410683
 20
0.320995
 30
0.0
 10
55.139983
 20
0.321789
 30
0.0
 10
55.878586
 20
0.322318
 30
0.0
 10
56.626402
 20
0.322847
 30
0.0
 10
57.383340
 20
0.323046
 30
0.0
 10
58.149307
 20
0.323027
 30
0.0
 10
58.616243
 20
0.322945
 30
0.0
 10
59.083180
 20
0.322866
 30
0.0
 10
59.550117
 20
0.322784
 30
0.0
 10
60.017053
 20
0.322705
 30
0.0
 10
60.483990
 20
0.322623
 30
0.0
 10
60.950929
 20
0.322543
 30
0.0
 10
61.417866
 20
0.322461
 30
0.0
 10
61.884803
 20
0.322382
 30
0.0
 10
62.351739
 20
0.322300
 30
0.0
 10
62.818676
 20
0.322220
 30
0.0
 10
63.285612
 20
0.322138
 30
0.0
 10
63.752549
 20
0.322059
 30
0.0
 10
64.219486
 20
0.321977
 30
0.0
 10
64.686422
 20
0.321898
 30
0.0
 10
65.153359
 20
0.321816
 30
0.0
 10
65.620298
 20
0.321736
 30
0.0
 10
66.087235
 20
0.321654
 30
0.0
 10
66.554172
 20
0.321572
 30
0.0
 10
67.021108
 20
0.321493
 30
0.0
 10
67.488045
 20
0.321411
 30
0.0
 10
67.954982
 20
0.321331
 30
0.0
 10
68.421918
 20
0.321249
 30
0.0
 10
68.888855
 20
0.321170
 30
0.0
 10
69.355792
 20
0.321088
 30
0.0
 10
69.822728
 20
0.321009
 30
0.0
 10
70.289665
 20
0.320927
 30
0.0
 10
70.756604
 20
0.320847
 30
0.0
 10
71.223541
 20
0.320765
 30
0.0
 10
71.690478
 20
0.320686
 30
0.0
 10
72.157414
 20
0.320604
 30
0.0
 10
72.624351
 20
0.320524
 30
0.0
 10
73.091288
 20
0.320442
 30
0.0
 10
73.558224
 20
0.320360
 30
0.0
 10
74.025161
 20
0.320281
 30
0.0
 10
74.492098
 20
0.320199
 30
0.0
 10
74.959034
 20
0.320120
 30
0.0
 10
75.425971
 20
0.320038
 30
0.0
 10
75.892910
 20
0.319958
 30
0.0
 10
76.359847
 20
0.319876
 30
0.0
 10
76.826784
 20
0.319797
 30
0.0
 10
77.293720
 20
0.319715
 30
0.0
 10
77.760657
 20
0.319635
 30
0.0
 10
78.227594
 20
0.319553
 30
0.0
 10
78.694530
 20
0.319474
 30
0.0
 10
79.161467
 20
0.319392
 30
0.0
 10
79.628404
 20
0.319313
 30
0.0
 10
80.095340
 20
0.319231
 30
0.0
 10
80.562277
 20
0.319149
 30
0.0
 10
81.029216
 20
0.319069
 30
0.0
 10
81.496153
 20
0.318987
 30
0.0
 10
81.963089
 20
0.318908
 30
0.0
 10
82.430026
 20
0.318826
 30
0.0
 10
82.896963
 20
0.318746
 30
0.0
 10
83.363899
 20
0.318664
 30
0.0
 10
83.830836
 20
0.318585
 30
0.0
 10
84.297773
 20
0.318503
 30
0.0
 10
84.764709
 20
0.318424
 30
0.0
 10
85.231646
 20
0.318342
 30
0.0
 10
85.698585
 20
0.318262
 30
0.0
 10
86.165522
 20
0.318180
 30
0.0
 10
86.632459
 20
0.318101
 30
0.0
 10
87.099395
 20
0.318019
 30
0.0
 10
87.566332
 20
0.317939
 30
0.0
 10
88.033269
 20
0.317857
 30
0.0
 10
88.045096
 20
0.330266
 30
0.0
 10
88.056922
 20
0.342675
 30
0.0
 10
88.068749
 20
0.355084
 30
0.0
 10
88.080576
 20
0.367493
 30
0.0
 10
88.092403
 20
0.379902
 30
0.0
 10
88.104230
 20
0.392311
 30
0.0
 10
88.116057
 20
0.404720
 30
0.0
 10
88.127884
 20
0.417129
 30
0.0
 10
88.139711
 20
0.429538
 30
0.0
 10
88.151537
 20
0.441947
 30
0.0
 10
88.163364
 20
0.454356
 30
0.0
 10
88.175191
 20
0.466765
 30
0.0
 10
88.187018
 20
0.479174
 30
0.0
 10
88.198845
 20
0.491583
 30
0.0
 10
88.210672
 20
0.503992
 30
0.0
 10
88.222499
 20
0.516401
 30
0.0
 10
88.234326
 20
0.528810
 30
0.0
 10
88.246152
 20
0.541219
 30
0.0
 10
88.257979
 20
0.553628
 30
0.0
 10
88.269806
 20
0.566037
 30
0.0
 10
88.281633
 20
0.578445
 30
0.0
 10
88.293460
 20
0.590854
 30
0.0
 10
88.305287
 20
0.603263
 30
0.0
 10
88.317114
 20
0.615672
 30
0.0
 10
88.328941
 20
0.628081
 30
0.0
 10
88.340767
 20
0.640490
 30
0.0
 10
88.352594
 20
0.652899
 30
0.0
 10
88.364421
 20
0.665308
 30
0.0
 10
88.376248
 20
0.677717
 30
0.0
 10
88.388075
 20
0.690126
 30
0.0
 10
88.399902
 20
0.702535
 30
0.0
 10
88.411729
 20
0.714944
 30
0.0
 10
88.423556
 20
0.727353
 30
0.0
 10
88.435382
 20
0.739762
 30
0.0
 10
88.447209
 20
0.752171
 30
0.0
 10
88.459036
 20
0.764580
 30
0.0
 10
88.470863
 20
0.776989
 30
0.0
 10
88.482690
 20
0.789398
 30
0.0
 10
88.494517
 20
0.801807
 30
0.0
 10
88.506344
 20
0.814216
 30
0.0
 10
88.518171
 20
0.826625
 30
0.0
 10
88.529997
 20
0.839034
 30
0.0
 10
88.541824
 20
0.851443
 30
0.0
 10
88.553651
 20
0.863852
 30
0.0
 10
88.565478
 20
0.876260
 30
0.0
 10
88.577305
 20
0.888669
 30
0.0
 10
88.589132
 20
0.901078
 30
0.0
 10
88.600959
 20
0.913487
 30
0.0
 10
88.612786
 20
0.925896
 30
0.0
 10
88.624612
 20
0.938305
 30
0.0
 10
88.636439
 20
0.950714
 30
0.0
 10
88.648266
 20
0.963123
 30
0.0
 10
88.660093
 20
0.975532
 30
0.0
 10
88.671920
 20
0.987941
 30
0.0
 10
88.683747
 20
1.000350
 30
0.0
 10
88.695574
 20
1.012759
 30
0.0
 10
88.707401
 20
1.025168
 30
0.0
 10
88.719227
 20
1.037577
 30
0.0
 10
88.731054
 20
1.049986
 30
0.0
 10
88.742881
 20
1.062395
 30
0.0
 10
88.754708
 20
1.074804
 30
0.0
 10
88.766535
 20
1.087213
 30
0.0
 10
88.778362
 20
1.099622
 30
0.0
 10
88.790189
 20
1.112031
 30
0.0
 10
88.832038
 20
1.161537
 30
0.0
 10
88.876051
 20
1.224360
 30
0.0
 10
88.922168
 20
1.300128
 30
0.0
 10
88.970320
 20
1.388470
 30
0.0
 10
89.020448
 20
1.489006
 30
0.0
 10
89.072483
 20
1.601367
 30
0.0
 10
89.126363
 20
1.725176
 30
0.0
 10
89.182026
 20
1.860058
 30
0.0
 10
89.239406
 20
2.005642
 30
0.0
 10
89.298437
 20
2.161553
 30
0.0
 10
89.359061
 20
2.327415
 30
0.0
 10
89.421212
 20
2.502858
 30
0.0
 10
89.484823
 20
2.687503
 30
0.0
 10
89.549831
 20
2.880979
 30
0.0
 10
89.616173
 20
3.082912
 30
0.0
 10
89.683787
 20
3.292928
 30
0.0
 10
89.752605
 20
3.510651
 30
0.0
 10
89.822566
 20
3.735708
 30
0.0
 10
89.893607
 20
3.967726
 30
0.0
 10
89.965661
 20
4.206330
 30
0.0
 10
90.038665
 20
4.451144
 30
0.0
 10
90.112555
 20
4.701797
 30
0.0
 10
90.187268
 20
4.957913
 30
0.0
 10
90.262740
 20
5.219121
 30
0.0
 10
90.338906
 20
5.485043
 30
0.0
 10
90.415704
 20
5.755309
 30
0.0
 10
90.493068
 20
6.029539
 30
0.0
 10
90.570935
 20
6.307365
 30
0.0
 10
90.649241
 20
6.588411
 30
0.0
 10
90.727923
 20
6.872301
 30
0.0
 10
90.806914
 20
7.158662
 30
0.0
 10
90.886154
 20
7.447121
 30
0.0
 10
90.965577
 20
7.737303
 30
0.0
 10
91.045119
 20
8.028834
 30
0.0
 10
91.124716
 20
8.321342
 30
0.0
 10
91.204305
 20
8.614447
 30
0.0
 10
91.283820
 20
8.907783
 30
0.0
 10
91.363201
 20
9.200970
 30
0.0
 10
91.442380
 20
9.493636
 30
0.0
 10
91.521295
 20
9.785408
 30
0.0
 10
91.599884
 20
10.075910
 30
0.0
 10
91.678079
 20
10.364769
 30
0.0
 10
91.755816
 20
10.651609
 30
0.0
 10
91.833035
 20
10.936060
 30
0.0
 10
91.909671
 20
11.217743
 30
0.0
 10
91.985657
 20
11.496289
 30
0.0
 10
92.060933
 20
11.771320
 30
0.0
 10
92.135432
 20
12.042463
 30
0.0
 10
92.209092
 20
12.309345
 30
0.0
 10
92.281850
 20
12.571592
 30
0.0
 10
92.353639
 20
12.828828
 30
0.0
 10
92.424397
 20
13.080680
 30
0.0
 10
92.494059
 20
13.326777
 30
0.0
 10
92.562562
 20
13.566738
 30
0.0
 10
92.629840
 20
13.800196
 30
0.0
 10
92.695833
 20
14.026772
 30
0.0
 10
92.760476
 20
14.246093
 30
0.0
 10
92.823701
 20
14.457788
 30
0.0
 10
92.885449
 20
14.661478
 30
0.0
 10
92.945652
 20
14.856793
 30
0.0
 10
93.004252
 20
15.043359
 30
0.0
 10
93.061177
 20
15.220799
 30
0.0
 10
93.116372
 20
15.388741
 30
0.0
 10
93.169765
 20
15.546811
 30
0.0
 10
93.207934
 20
15.658251
 30
0.0
 10
93.249585
 20
15.780038
 30
0.0
 10
93.294670
 20
15.911904
 30
0.0
 10
93.343141
 20
16.053583
 30
0.0
 10
93.394957
 20
16.204800
 30
0.0
 10
93.450065
 20
16.365291
 30
0.0
 10
93.508421
 20
16.534786
 30
0.0
 10
93.569976
 20
16.713012
 30
0.0
 10
93.634686
 20
16.899699
 30
0.0
 10
93.702504
 20
17.094586
 30
0.0
 10
93.773380
 20
17.297395
 30
0.0
 10
93.847268
 20
17.507860
 30
0.0
 10
93.924124
 20
17.725710
 30
0.0
 10
94.003896
 20
17.950680
 30
0.0
 10
94.086544
 20
18.182497
 30
0.0
 10
94.172015
 20
18.420892
 30
0.0
 10
94.260264
 20
18.665595
 30
0.0
 10
94.351246
 20
18.916340
 30
0.0
 10
94.444911
 20
19.172854
 30
0.0
 10
94.541214
 20
19.434871
 30
0.0
 10
94.640108
 20
19.702118
 30
0.0
 10
94.741546
 20
19.974330
 30
0.0
 10
94.845480
 20
20.251232
 30
0.0
 10
94.951863
 20
20.532561
 30
0.0
 10
95.060652
 20
20.818044
 30
0.0
 10
95.171796
 20
21.107410
 30
0.0
 10
95.285249
 20
21.400394
 30
0.0
 10
95.400965
 20
21.696725
 30
0.0
 10
95.518897
 20
21.996133
 30
0.0
 10
95.638997
 20
22.298348
 30
0.0
 10
95.761219
 20
22.603103
 30
0.0
 10
95.885515
 20
22.910125
 30
0.0
 10
96.011837
 20
23.219148
 30
0.0
 10
96.140144
 20
23.529904
 30
0.0
 10
96.270383
 20
23.842120
 30
0.0
 10
96.402510
 20
24.155527
 30
0.0
 10
96.536477
 20
24.469857
 30
0.0
 10
96.672237
 20
24.784841
 30
0.0
 10
96.809744
 20
25.100211
 30
0.0
 10
96.948949
 20
25.415692
 30
0.0
 10
97.089808
 20
25.731023
 30
0.0
 10
97.232273
 20
26.045927
 30
0.0
 10
97.376296
 20
26.360138
 30
0.0
 10
97.521833
 20
26.673386
 30
0.0
 10
97.668833
 20
26.985404
 30
0.0
 10
97.817251
 20
27.295922
 30
0.0
 10
97.967042
 20
27.604667
 30
0.0
 10
98.118156
 20
27.911372
 30
0.0
 10
98.270548
 20
28.215770
 30
0.0
 10
98.424170
 20
28.517588
 30
0.0
 10
98.578978
 20
28.816559
 30
0.0
 10
98.734921
 20
29.112413
 30
0.0
 10
98.891954
 20
29.404881
 30
0.0
 10
99.050029
 20
29.693692
 30
0.0
 10
99.209102
 20
29.978580
 30
0.0
 10
99.369124
 20
30.259271
 30
0.0
 10
99.530047
 20
30.535501
 30
0.0
 10
99.691826
 20
30.806996
 30
0.0
 10
99.854413
 20
31.073489
 30
0.0
 10
100.017761
 20
31.334712
 30
0.0
 10
100.181827
 20
31.590392
 30
0.0
 10
100.346556
 20
31.840262
 30
0.0
 10
100.511910
 20
32.084055
 30
0.0
 10
100.677836
 20
32.321497
 30
0.0
 10
100.748569
 20
32.421959
 30
0.0
 10
100.819417
 20
32.524070
 30
0.0
 10
100.890397
 20
32.627728
 30
0.0
 10
100.961530
 20
32.732829
 30
0.0
 10
101.032843
 20
32.839263
 30
0.0
 10
101.104357
 20
32.946930
 30
0.0
 10
101.176091
 20
33.055718
 30
0.0
 10
101.248071
 20
33.165528
 30
0.0
 10
101.320321
 20
33.276251
 30
0.0
 10
101.392856
 20
33.387781
 30
0.0
 10
101.465707
 20
33.500017
 30
0.0
 10
101.538888
 20
33.612849
 30
0.0
 10
101.612429
 20
33.726175
 30
0.0
 10
101.686348
 20
33.839888
 30
0.0
 10
101.760667
 20
33.953881
 30
0.0
 10
101.835409
 20
34.068051
 30
0.0
 10
101.910598
 20
34.182293
 30
0.0
 10
101.986256
 20
34.296500
 30
0.0
 10
102.062403
 20
34.410568
 30
0.0
 10
102.139063
 20
34.524391
 30
0.0
 10
102.216258
 20
34.637863
 30
0.0
 10
102.294011
 20
34.750880
 30
0.0
 10
102.372344
 20
34.863336
 30
0.0
 10
102.451280
 20
34.975125
 30
0.0
 10
102.530837
 20
35.086142
 30
0.0
 10
102.611043
 20
35.196282
 30
0.0
 10
102.691918
 20
35.305441
 30
0.0
 10
102.773484
 20
35.413510
 30
0.0
 10
102.855764
 20
35.520386
 30
0.0
 10
102.938780
 20
35.625966
 30
0.0
 10
103.022552
 20
35.730140
 30
0.0
 10
103.107107
 20
35.832804
 30
0.0
 10
103.192465
 20
35.933853
 30
0.0
 10
103.278647
 20
36.033183
 30
0.0
 10
103.365679
 20
36.130687
 30
0.0
 10
103.453579
 20
36.226263
 30
0.0
 10
103.542374
 20
36.319798
 30
0.0
 10
103.632081
 20
36.411196
 30
0.0
 10
103.722724
 20
36.500345
 30
0.0
 10
103.814328
 20
36.587141
 30
0.0
 10
103.906914
 20
36.671482
 30
0.0
 10
104.000502
 20
36.753257
 30
0.0
 10
104.095117
 20
36.832368
 30
0.0
 10
104.190780
 20
36.908700
 30
0.0
 10
104.287514
 20
36.982156
 30
0.0
 10
104.385344
 20
37.052628
 30
0.0
 10
104.484285
 20
37.120009
 30
0.0
 10
104.584366
 20
37.184197
 30
0.0
 10
104.685609
 20
37.245083
 30
0.0
 10
104.788032
 20
37.302564
 30
0.0
 10
104.891661
 20
37.356531
 30
0.0
 10
104.996516
 20
37.406884
 30
0.0
 10
105.102621
 20
37.453514
 30
0.0
 10
105.209997
 20
37.496318
 30
0.0
 10
105.318670
 20
37.535191
 30
0.0
 10
105.428657
 20
37.570023
 30
0.0
 10
105.539983
 20
37.600712
 30
0.0
 10
105.652669
 20
37.627144
 30
0.0
 10
105.766741
 20
37.649237
 30
0.0
 10
105.882216
 20
37.666858
 30
0.0
 10
105.999120
 20
37.679929
 30
0.0
 10
106.117476
 20
37.688316
 30
0.0
 10
106.237303
 20
37.691941
 30
0.0
 10
106.358625
 20
37.690618
 30
0.0
 10
106.464911
 20
37.685220
 30
0.0
 10
106.569622
 20
37.675616
 30
0.0
 10
106.672783
 20
37.661910
 30
0.0
 10
106.774426
 20
37.644183
 30
0.0
 10
106.874570
 20
37.622540
 30
0.0
 10
106.973241
 20
37.597061
 30
0.0
 10
107.070465
 20
37.567856
 30
0.0
 10
107.166271
 20
37.535003
 30
0.0
 10
107.260679
 20
37.498596
 30
0.0
 10
107.353715
 20
37.458721
 30
0.0
 10
107.445409
 20
37.415475
 30
0.0
 10
107.535780
 20
37.368943
 30
0.0
 10
107.624857
 20
37.319220
 30
0.0
 10
107.712665
 20
37.266395
 30
0.0
 10
107.799231
 20
37.210563
 30
0.0
 10
107.884575
 20
37.151810
 30
0.0
 10
107.968728
 20
37.090231
 30
0.0
 10
108.051710
 20
37.025916
 30
0.0
 10
108.133550
 20
36.958955
 30
0.0
 10
108.214275
 20
36.889438
 30
0.0
 10
108.293906
 20
36.817461
 30
0.0
 10
108.372472
 20
36.743110
 30
0.0
 10
108.449995
 20
36.666482
 30
0.0
 10
108.526502
 20
36.587660
 30
0.0
 10
108.602016
 20
36.506742
 30
0.0
 10
108.676568
 20
36.423814
 30
0.0
 10
108.750178
 20
36.338973
 30
0.0
 10
108.822872
 20
36.252303
 30
0.0
 10
108.894677
 20
36.163901
 30
0.0
 10
108.965620
 20
36.073855
 30
0.0
 10
109.035721
 20
35.982259
 30
0.0
 10
109.105010
 20
35.889200
 30
0.0
 10
109.173511
 20
35.794772
 30
0.0
 10
109.241247
 20
35.699067
 30
0.0
 10
109.308248
 20
35.602172
 30
0.0
 10
109.374534
 20
35.504183
 30
0.0
 10
109.440134
 20
35.405187
 30
0.0
 10
109.505074
 20
35.305277
 30
0.0
 10
109.569375
 20
35.204543
 30
0.0
 10
109.633066
 20
35.103080
 30
0.0
 10
109.696172
 20
35.000972
 30
0.0
 10
109.758714
 20
34.898319
 30
0.0
 10
109.820724
 20
34.795203
 30
0.0
 10
109.882224
 20
34.691722
 30
0.0
 10
109.943240
 20
34.587965
 30
0.0
 10
110.003795
 20
34.484021
 30
0.0
 10
110.063916
 20
34.379984
 30
0.0
 10
110.123630
 20
34.275942
 30
0.0
 10
110.182960
 20
34.171990
 30
0.0
 10
110.241930
 20
34.068218
 30
0.0
 10
110.300570
 20
33.964713
 30
0.0
 10
110.358903
 20
33.861570
 30
0.0
 10
110.416952
 20
33.758883
 30
0.0
 10
110.474745
 20
33.656735
 30
0.0
 10
110.532308
 20
33.555225
 30
0.0
 10
110.589662
 20
33.454440
 30
0.0
 10
110.646838
 20
33.354470
 30
0.0
 10
110.703856
 20
33.255410
 30
0.0
 10
110.760747
 20
33.157350
 30
0.0
 10
110.817531
 20
33.060378
 30
0.0
 10
110.874237
 20
32.964588
 30
0.0
 10
110.930887
 20
32.870071
 30
0.0
 10
110.987510
 20
32.776916
 30
0.0
 10
111.044128
 20
32.685217
 30
0.0
 10
111.193943
 20
32.441488
 30
0.0
 10
111.340790
 20
32.196368
 30
0.0
 10
111.484739
 20
31.949890
 30
0.0
 10
111.625857
 20
31.702086
 30
0.0
 10
111.764213
 20
31.452981
 30
0.0
 10
111.899881
 20
31.202611
 30
0.0
 10
112.032924
 20
30.951003
 30
0.0
 10
112.163414
 20
30.698186
 30
0.0
 10
112.291417
 20
30.444194
 30
0.0
 10
112.417006
 20
30.189053
 30
0.0
 10
112.540247
 20
29.932796
 30
0.0
 10
112.661212
 20
29.675452
 30
0.0
 10
112.779967
 20
29.417055
 30
0.0
 10
112.896582
 20
29.157628
 30
0.0
 10
113.011126
 20
28.897209
 30
0.0
 10
113.123669
 20
28.635822
 30
0.0
 10
113.234278
 20
28.373501
 30
0.0
 10
113.343022
 20
28.110275
 30
0.0
 10
113.449971
 20
27.846176
 30
0.0
 10
113.555196
 20
27.581230
 30
0.0
 10
113.658765
 20
27.315472
 30
0.0
 10
113.760743
 20
27.048928
 30
0.0
 10
113.861203
 20
26.781630
 30
0.0
 10
113.960212
 20
26.513610
 30
0.0
 10
114.057841
 20
26.244899
 30
0.0
 10
114.154157
 20
25.975521
 30
0.0
 10
114.249230
 20
25.705512
 30
0.0
 10
114.343128
 20
25.434901
 30
0.0
 10
114.435920
 20
25.163716
 30
0.0
 10
114.527678
 20
24.891992
 30
0.0
 10
114.618467
 20
24.619754
 30
0.0
 10
114.708359
 20
24.347035
 30
0.0
 10
114.797420
 20
24.073863
 30
0.0
 10
114.885722
 20
23.800271
 30
0.0
 10
114.973334
 20
23.526289
 30
0.0
 10
115.060321
 20
23.251946
 30
0.0
 10
115.146755
 20
22.977274
 30
0.0
 10
115.232705
 20
22.702300
 30
0.0
 10
115.318239
 20
22.427057
 30
0.0
 10
115.403427
 20
22.151575
 30
0.0
 10
115.488337
 20
21.875882
 30
0.0
 10
115.573038
 20
21.600012
 30
0.0
 10
115.657602
 20
21.323990
 30
0.0
 10
115.742094
 20
21.047853
 30
0.0
 10
115.826583
 20
20.771625
 30
0.0
 10
115.911139
 20
20.495339
 30
0.0
 10
115.995835
 20
20.219027
 30
0.0
 10
116.080731
 20
19.942715
 30
0.0
 10
116.165906
 20
19.666437
 30
0.0
 10
116.251422
 20
19.390220
 30
0.0
 10
116.337351
 20
19.114098
 30
0.0
 10
116.423761
 20
18.838098
 30
0.0
 10
116.510719
 20
18.562254
 30
0.0
 10
116.598299
 20
18.286590
 30
0.0
 10
116.686566
 20
18.011143
 30
0.0
 10
116.775591
 20
17.735939
 30
0.0
 10
116.865441
 20
17.461010
 30
0.0
 10
116.956187
 20
17.186383
 30
0.0
 10
117.047897
 20
16.912095
 30
0.0
 10
117.140639
 20
16.638169
 30
0.0
 10
117.234484
 20
16.364641
 30
0.0
 10
117.329499
 20
16.091538
 30
0.0
 10
117.425754
 20
15.818890
 30
0.0
 10
117.523319
 20
15.546729
 30
0.0
 10
117.621480
 20
15.272806
 30
0.0
 10
117.719460
 20
14.995012
 30
0.0
 10
117.817239
 20
14.713588
 30
0.0
 10
117.914789
 20
14.428782
 30
0.0
 10
118.012087
 20
14.140833
 30
0.0
 10
118.109109
 20
13.849982
 30
0.0
 10
118.205830
 20
13.556477
 30
0.0
 10
118.302226
 20
13.260554
 30
0.0
 10
118.398270
 20
12.962461
 30
0.0
 10
118.493943
 20
12.662437
 30
0.0
 10
118.589214
 20
12.360725
 30
0.0
 10
118.684065
 20
12.057568
 30
0.0
 10
118.778468
 20
11.753210
 30
0.0
 10
118.872400
 20
11.447894
 30
0.0
 10
118.965835
 20
11.141858
 30
0.0
 10
119.058752
 20
10.835346
 30
0.0
 10
119.151120
 20
10.528604
 30
0.0
 10
119.242923
 20
10.221873
 30
0.0
 10
119.334130
 20
9.915393
 30
0.0
 10
119.424721
 20
9.609410
 30
0.0
 10
119.514669
 20
9.304166
 30
0.0
 10
119.603950
 20
8.999900
 30
0.0
 10
119.692540
 20
8.696857
 30
0.0
 10
119.780416
 20
8.395282
 30
0.0
 10
119.867549
 20
8.095414
 30
0.0
 10
119.953922
 20
7.797496
 30
0.0
 10
120.039504
 20
7.501771
 30
0.0
 10
120.124274
 20
7.208480
 30
0.0
 10
120.208205
 20
6.917870
 30
0.0
 10
120.291276
 20
6.630181
 30
0.0
 10
120.373461
 20
6.345653
 30
0.0
 10
120.454736
 20
6.064533
 30
0.0
 10
120.535076
 20
5.787059
 30
0.0
 10
120.614457
 20
5.513478
 30
0.0
 10
120.692853
 20
5.244029
 30
0.0
 10
120.770243
 20
4.978956
 30
0.0
 10
120.846600
 20
4.718503
 30
0.0
 10
120.921900
 20
4.462907
 30
0.0
 10
120.996118
 20
4.212418
 30
0.0
 10
121.069233
 20
3.967274
 30
0.0
 10
121.141216
 20
3.727717
 30
0.0
 10
121.212047
 20
3.493995
 30
0.0
 10
121.281699
 20
3.266345
 30
0.0
 10
121.350147
 20
3.045010
 30
0.0
 10
121.417367
 20
2.830232
 30
0.0
 10
121.483338
 20
2.622259
 30
0.0
 10
121.548031
 20
2.421327
 30
0.0
 10
121.611423
 20
2.227683
 30
0.0
 10
121.673491
 20
2.041567
 30
0.0
 10
121.734210
 20
1.863222
 30
0.0
 10
121.793556
 20
1.692892
 30
0.0
 10
121.851503
 20
1.530816
 30
0.0
 10
121.908028
 20
1.377241
 30
0.0
 10
121.963107
 20
1.232406
 30
0.0
 10
122.016714
 20
1.096555
 30
0.0
 10
122.068826
 20
0.969934
 30
0.0
 10
122.119420
 20
0.852779
 30
0.0
 10
122.168466
 20
0.745334
 30
0.0
 10
122.215945
 20
0.647846
 30
0.0
 10
122.261832
 20
0.560552
 30
0.0
 10
122.306102
 20
0.483698
 30
0.0
 10
122.348729
 20
0.417529
 30
0.0
 10
122.389689
 20
0.362281
 30
0.0
 10
122.428961
 20
0.318199
 30
0.0
 10
122.461923
 20
0.285666
 30
0.0
 10
122.494147
 20
0.255180
 30
0.0
 10
122.526339
 20
0.226695
 30
0.0
 10
122.559208
 20
0.200160
 30
0.0
 10
122.593461
 20
0.175527
 30
0.0
 10
122.629806
 20
0.152747
 30
0.0
 10
122.668952
 20
0.131765
 30
0.0
 10
122.711602
 20
0.112557
 30
0.0
 10
122.758468
 20
0.095041
 30
0.0
 10
122.810258
 20
0.079193
 30
0.0
 10
122.867677
 20
0.064932
 30
0.0
 10
122.931431
 20
0.052232
 30
0.0
 10
123.002234
 20
0.041040
 30
0.0
 10
123.080786
 20
0.031329
 30
0.0
 10
123.167800
 20
0.023022
 30
0.0
 10
123.263984
 20
0.016063
 30
0.0
 10
123.370039
 20
0.010427
 30
0.0
 10
123.486681
 20
0.006062
 30
0.0
 10
123.614612
 20
0.002913
 30
0.0
 10
123.754540
 20
0.000797
 30
0.0
 10
123.907175
 20
0.000003
 30
0.0
 10
124.073222
 20
0.000201
 30
0.0
 10
124.253393
 20
0.001524
 30
0.0
 10
124.448391
 20
0.003641
 30
0.0
 10
124.658925
 20
0.006736
 30
0.0
 10
124.885702
 20
0.010705
 30
0.0
 10
125.129434
 20
0.015494
 30
0.0
 10
125.390821
 20
0.021077
 30
0.0
 10
125.670575
 20
0.027374
 30
0.0
 10
125.969406
 20
0.034359
 30
0.0
 10
126.288018
 20
0.041953
 30
0.0
 10
126.627118
 20
0.050128
 30
0.0
 10
126.987415
 20
0.058833
 30
0.0
 10
127.369616
 20
0.068014
 30
0.0
 10
127.774431
 20
0.077618
 30
0.0
 10
128.202564
 20
0.087620
 30
0.0
 10
128.654726
 20
0.097938
 30
0.0
 10
129.131622
 20
0.108548
 30
0.0
 10
129.633962
 20
0.119396
 30
0.0
 10
130.162452
 20
0.130429
 30
0.0
 10
130.717799
 20
0.141595
 30
0.0
 10
131.300710
 20
0.152866
 30
0.0
 10
131.911895
 20
0.164164
 30
0.0
 10
132.552062
 20
0.175435
 30
0.0
 10
133.221916
 20
0.186653
 30
0.0
 10
133.922165
 20
0.197766
 30
0.0
 10
134.653518
 20
0.208719
 30
0.0
 10
135.416682
 20
0.219461
 30
0.0
 10
136.212366
 20
0.229965
 30
0.0
 10
137.041274
 20
0.240152
 30
0.0
 10
137.904117
 20
0.249994
 30
0.0
 10
138.801603
 20
0.259414
 30
0.0
 10
139.734433
 20
0.268383
 30
0.0
 10
140.703324
 20
0.276850
 30
0.0
 10
141.708979
 20
0.284787
 30
0.0
 10
142.752104
 20
0.292116
 30
0.0
 10
143.833409
 20
0.298784
 30
0.0
 10
144.953599
 20
0.304763
 30
0.0
 10
146.113387
 20
0.310002
 30
0.0
 10
147.313473
 20
0.314447
 30
0.0
 10
148.554573
 20
0.318045
 30
0.0
 10
149.837387
 20
0.320744
 30
0.0
 10
151.162629
 20
0.322596
 30
0.0
 10
152.531001
 20
0.323390
 30
0.0
 10
153.296194
 20
0.323416
 30
0.0
 10
154.050151
 20
0.323220
 30
0.0
 10
154.792847
 20
0.322691
 30
0.0
 10
155.524267
 20
0.322162
 30
0.0
 10
156.244386
 20
0.321368
 30
0.0
 10
156.953183
 20
0.320310
 30
0.0
 10
157.650643
 20
0.319252
 30
0.0
 10
158.336740
 20
0.317929
 30
0.0
 10
159.011456
 20
0.316606
 30
0.0
 10
159.674769
 20
0.315018
 30
0.0
 10
160.326658
 20
0.313431
 30
0.0
 10
160.967105
 20
0.311579
 30
0.0
 10
161.596089
 20
0.309727
 30
0.0
 10
162.213587
 20
0.307610
 30
0.0
 10
162.819580
 20
0.305493
 30
0.0
 10
163.414049
 20
0.303377
 30
0.0
 10
163.996971
 20
0.301260
 30
0.0
 10
164.568325
 20
0.298879
 30
0.0
 10
165.128094
 20
0.296498
 30
0.0
 10
165.676252
 20
0.294116
 30
0.0
 10
166.212785
 20
0.291735
 30
0.0
 10
166.737668
 20
0.289354
 30
0.0
 10
167.250880
 20
0.286973
 30
0.0
 10
167.752403
 20
0.284591
 30
0.0
 10
168.242216
 20
0.282210
 30
0.0
 10
168.720297
 20
0.279829
 30
0.0
 10
169.186625
 20
0.277448
 30
0.0
 10
169.641181
 20
0.275331
 30
0.0
 10
170.083946
 20
0.273214
 30
0.0
 10
170.514896
 20
0.271098
 30
0.0
 10
170.934015
 20
0.268981
 30
0.0
 10
171.341278
 20
0.267129
 30
0.0
 10
171.736663
 20
0.265277
 30
0.0
 10
172.120155
 20
0.263689
 30
0.0
 10
172.491731
 20
0.262102
 30
0.0
 10
172.851368
 20
0.260779
 30
0.0
 10
173.199049
 20
0.259456
 30
0.0
 10
173.534753
 20
0.258398
 30
0.0
 10
173.858457
 20
0.257339
 30
0.0
 10
174.170144
 20
0.256545
 30
0.0
 10
174.469790
 20
0.256016
 30
0.0
 10
174.757376
 20
0.255487
 30
0.0
 10
175.032882
 20
0.255297
 30
0.0
 10
175.296288
 20
0.255328
 30
0.0
 10
175.547570
 20
0.255590
 30
0.0
 10
175.786709
 20
0.256119
 30
0.0
 10
176.013687
 20
0.256913
 30
0.0
 10
176.228481
 20
0.257972
 30
0.0
 10
176.431070
 20
0.259294
 30
0.0
 10
176.621437
 20
0.260882
 30
0.0
 10
176.799558
 20
0.262734
 30
0.0
 10
176.965412
 20
0.264851
 30
0.0
 10
177.118978
 20
0.267232
 30
0.0
 10
177.260242
 20
0.270037
 30
0.0
 10
177.389176
 20
0.273185
 30
0.0
 10
177.505762
 20
0.276678
 30
0.0
 10
177.609979
 20
0.280541
 30
0.0
 10
177.701808
 20
0.284774
 30
0.0
 10
177.781228
 20
0.289378
 30
0.0
 10
177.848218
 20
0.294378
 30
0.0
 10
177.902756
 20
0.299776
 30
0.0
 10
177.944822
 20
0.305570
 30
0.0
 10
177.974397
 20
0.311788
 30
0.0
 10
177.991463
 20
0.318429
 30
0.0
 10
178.038157
 20
0.348798
 30
0.0
 10
178.085271
 20
0.380810
 30
0.0
 10
178.132759
 20
0.414454
 30
0.0
 10
178.180566
 20
0.449723
 30
0.0
 10
178.228641
 20
0.486609
 30
0.0
 10
178.276930
 20
0.525098
 30
0.0
 10
178.325381
 20
0.565182
 30
0.0
 10
178.373939
 20
0.606851
 30
0.0
 10
178.422559
 20
0.650097
 30
0.0
 10
178.471182
 20
0.694907
 30
0.0
 10
178.519757
 20
0.741275
 30
0.0
 10
178.568231
 20
0.789191
 30
0.0
 10
178.616554
 20
0.838645
 30
0.0
 10
178.664672
 20
0.889625
 30
0.0
 10
178.712532
 20
0.942121
 30
0.0
 10
178.760086
 20
0.996127
 30
0.0
 10
178.807274
 20
1.051632
 30
0.0
 10
178.854050
 20
1.108626
 30
0.0
 10
178.900360
 20
1.167098
 30
0.0
 10
178.946149
 20
1.227042
 30
0.0
 10
178.991368
 20
1.288444
 30
0.0
 10
179.035961
 20
1.351299
 30
0.0
 10
179.079880
 20
1.415592
 30
0.0
 10
179.123070
 20
1.481315
 30
0.0
 10
179.165480
 20
1.548461
 30
0.0
 10
179.207057
 20
1.617020
 30
0.0
 10
179.247747
 20
1.686981
 30
0.0
 10
179.287498
 20
1.758331
 30
0.0
 10
179.326260
 20
1.831068
 30
0.0
 10
179.363979
 20
1.905175
 30
0.0
 10
179.400602
 20
1.980647
 30
0.0
 10
179.436078
 20
2.057472
 30
0.0
 10
179.470352
 20
2.135643
 30
0.0
 10
179.503374
 20
2.215145
 30
0.0
 10
179.535093
 20
2.295975
 30
0.0
 10
179.565456
 20
2.378117
 30
0.0
 10
179.594407
 20
2.461567
 30
0.0
 10
179.621894
 20
2.546313
 30
0.0
 10
179.647876
 20
2.632345
 30
0.0
 10
179.672298
 20
2.719652
 30
0.0
 10
179.695078
 20
2.808229
 30
0.0
 10
179.716192
 20
2.898061
 30
0.0
 10
179.735586
 20
2.989141
 30
0.0
 10
179.753207
 20
3.081459
 30
0.0
 10
179.769003
 20
3.175005
 30
0.0
 10
179.782920
 20
3.269769
 30
0.0
 10
179.794905
 20
3.365744
 30
0.0
 10
179.804907
 20
3.462917
 30
0.0
 10
179.812844
 20
3.561279
 30
0.0
 10
179.818718
 20
3.660823
 30
0.0
 10
179.822422
 20
3.761534
 30
0.0
 10
179.824010
 20
3.863409
 30
0.0
 10
179.823216
 20
3.966432
 30
0.0
 10
179.820200
 20
4.070599
 30
0.0
 10
179.814829
 20
4.175898
 30
0.0
 10
179.807050
 20
4.282318
 30
0.0
 10
179.796810
 20
4.389850
 30
0.0
 10
179.784058
 20
4.498486
 30
0.0
 10
179.768738
 20
4.608214
 30
0.0
 10
179.750799
 20
4.719026
 30
0.0
 10
179.730188
 20
4.830911
 30
0.0
 10
179.706879
 20
4.943861
 30
0.0
 10
179.680791
 20
5.057865
 30
0.0
 10
179.651880
 20
5.172914
 30
0.0
 10
179.609025
 20
5.332423
 30
0.0
 10
179.560590
 20
5.505873
 30
0.0
 10
179.506729
 20
5.692823
 30
0.0
 10
179.447608
 20
5.892837
 30
0.0
 10
179.383386
 20
6.105475
 30
0.0
 10
179.314221
 20
6.330299
 30
0.0
 10
179.240275
 20
6.566866
 30
0.0
 10
179.161710
 20
6.814741
 30
0.0
 10
179.078684
 20
7.073479
 30
0.0
 10
178.991358
 20
7.342648
 30
0.0
 10
178.899894
 20
7.621805
 30
0.0
 10
178.804454
 20
7.910513
 30
0.0
 10
178.705193
 20
8.208328
 30
0.0
 10
178.602272
 20
8.514816
 30
0.0
 10
178.495857
 20
8.829535
 30
0.0
 10
178.386105
 20
9.152049
 30
0.0
 10
178.273176
 20
9.481913
 30
0.0
 10
178.157230
 20
9.818695
 30
0.0
 10
178.038429
 20
10.161950
 30
0.0
 10
177.916935
 20
10.511242
 30
0.0
 10
177.792904
 20
10.866131
 30
0.0
 10
177.666502
 20
11.226176
 30
0.0
 10
177.537883
 20
11.590941
 30
0.0
 10
177.407213
 20
11.959987
 30
0.0
 10
177.274649
 20
12.332869
 30
0.0
 10
177.140351
 20
12.709157
 30
0.0
 10
177.004483
 20
13.088403
 30
0.0
 10
176.867204
 20
13.470173
 30
0.0
 10
176.728673
 20
13.854028
 30
0.0
 10
176.589052
 20
14.239526
 30
0.0
 10
176.448500
 20
14.626230
 30
0.0
 10
176.307181
 20
15.013699
 30
0.0
 10
176.165251
 20
15.401496
 30
0.0
 10
176.022871
 20
15.789182
 30
0.0
 10
175.880205
 20
16.176315
 30
0.0
 10
175.737409
 20
16.562456
 30
0.0
 10
175.594645
 20
16.947168
 30
0.0
 10
175.452077
 20
17.330012
 30
0.0
 10
175.309861
 20
17.710549
 30
0.0
 10
175.168158
 20
18.088337
 30
0.0
 10
175.027130
 20
18.462940
 30
0.0
 10
174.886938
 20
18.833917
 30
0.0
 10
174.747740
 20
19.200828
 30
0.0
 10
174.609697
 20
19.563236
 30
0.0
 10
174.472970
 20
19.920701
 30
0.0
 10
174.337721
 20
20.272785
 30
0.0
 10
174.204109
 20
20.619045
 30
0.0
 10
174.072293
 20
20.959045
 30
0.0
 10
173.942436
 20
21.292346
 30
0.0
 10
173.814698
 20
21.618509
 30
0.0
 10
173.689238
 20
21.937094
 30
0.0
 10
173.566217
 20
22.247659
 30
0.0
 10
173.445797
 20
22.549771
 30
0.0
 10
173.328134
 20
22.842984
 30
0.0
 10
173.213395
 20
23.126867
 30
0.0
 10
173.101736
 20
23.400972
 30
0.0
 10
172.993317
 20
23.664865
 30
0.0
 10
172.888302
 20
23.918106
 30
0.0
 10
172.786850
 20
24.160255
 30
0.0
 10
172.689118
 20
24.390874
 30
0.0
 10
172.595270
 20
24.609523
 30
0.0
 10
172.505468
 20
24.815765
 30
0.0
 10
172.419867
 20
25.009157
 30
0.0
 10
172.338632
 20
25.189262
 30
0.0
 10
172.317280
 20
25.236400
 30
0.0
 10
172.294659
 20
25.286827
 30
0.0
 10
172.270820
 20
25.340482
 30
0.0
 10
172.245764
 20
25.397309
 30
0.0
 10
172.219517
 20
25.457250
 30
0.0
 10
172.192127
 20
25.520248
 30
0.0
 10
172.163597
 20
25.586243
 30
0.0
 10
172.133959
 20
25.655177
 30
0.0
 10
172.103230
 20
25.726996
 30
0.0
 10
172.071435
 20
25.801637
 30
0.0
 10
172.038597
 20
25.879046
 30
0.0
 10
172.004744
 20
25.959162
 30
0.0
 10
171.969893
 20
26.041929
 30
0.0
 10
171.934069
 20
26.127289
 30
0.0
 10
171.897297
 20
26.215184
 30
0.0
 10
171.859602
 20
26.305557
 30
0.0
 10
171.821002
 20
26.398347
 30
0.0
 10
171.781526
 20
26.493496
 30
0.0
 10
171.741193
 20
26.590953
 30
0.0
 10
171.700029
 20
26.690651
 30
0.0
 10
171.658055
 20
26.792536
 30
0.0
 10
171.615299
 20
26.896552
 30
0.0
 10
171.571780
 20
27.002639
 30
0.0
 10
171.527523
 20
27.110740
 30
0.0
 10
171.482552
 20
27.220796
 30
0.0
 10
171.436887
 20
27.332749
 30
0.0
 10
171.390556
 20
27.446544
 30
0.0
 10
171.343582
 20
27.562119
 30
0.0
 10
171.295984
 20
27.679417
 30
0.0
 10
171.247790
 20
27.798382
 30
0.0
 10
171.199019
 20
27.918955
 30
0.0
 10
171.149701
 20
28.041079
 30
0.0
 10
171.099853
 20
28.164692
 30
0.0
 10
171.049500
 20
28.289742
 30
0.0
 10
170.998666
 20
28.416168
 30
0.0
 10
170.947376
 20
28.543911
 30
0.0
 10
170.895650
 20
28.672917
 30
0.0
 10
170.843517
 20
28.803124
 30
0.0
 10
170.790994
 20
28.934473
 30
0.0
 10
170.738107
 20
29.066913
 30
0.0
 10
170.684881
 20
29.200380
 30
0.0
 10
170.631334
 20
29.334817
 30
0.0
 10
170.577497
 20
29.470170
 30
0.0
 10
170.523390
 20
29.606375
 30
0.0
 10
170.469034
 20
29.743379
 30
0.0
 10
170.414453
 20
29.881121
 30
0.0
 10
170.359673
 20
30.019545
 30
0.0
 10
170.304717
 20
30.158592
 30
0.0
 10
170.249609
 20
30.298205
 30
0.0
 10
170.194370
 20
30.438325
 30
0.0
 10
170.139021
 20
30.578893
 30
0.0
 10
170.083591
 20
30.719855
 30
0.0
 10
170.028103
 20
30.861151
 30
0.0
 10
169.972577
 20
31.002721
 30
0.0
 10
169.917039
 20
31.144511
 30
0.0
 10
169.861508
 20
31.286460
 30
0.0
 10
169.806014
 20
31.428512
 30
0.0
 10
169.750576
 20
31.570607
 30
0.0
 10
169.695217
 20
31.712688
 30
0.0
 10
169.639962
 20
31.854698
 30
0.0
 10
169.584836
 20
31.996578
 30
0.0
 10
169.529861
 20
32.138273
 30
0.0
 10
169.475058
 20
32.279719
 30
0.0
 10
169.420453
 20
32.420864
 30
0.0
 10
169.365293
 20
32.563456
 30
0.0
 10
169.308828
 20
32.709223
 30
0.0
 10
169.251096
 20
32.858072
 30
0.0
 10
169.192136
 20
33.009911
 30
0.0
 10
169.131986
 20
33.164645
 30
0.0
 10
169.070676
 20
33.322180
 30
0.0
 10
169.008251
 20
33.482425
 30
0.0
 10
168.944745
 20
33.645287
 30
0.0
 10
168.880192
 20
33.810670
 30
0.0
 10
168.814634
 20
33.978482
 30
0.0
 10
168.748104
 20
34.148630
 30
0.0
 10
168.680641
 20
34.321019
 30
0.0
 10
168.612283
 20
34.495560
 30
0.0
 10
168.543063
 20
34.672156
 30
0.0
 10
168.473022
 20
34.850715
 30
0.0
 10
168.402196
 20
35.031145
 30
0.0
 10
168.330621
 20
35.213351
 30
0.0
 10
168.258334
 20
35.397239
 30
0.0
 10
168.185373
 20
35.582717
 30
0.0
 10
168.111773
 20
35.769690
 30
0.0
 10
168.037576
 20
35.958071
 30
0.0
 10
167.962813
 20
36.147758
 30
0.0
 10
167.887523
 20
36.338663
 30
0.0
 10
167.811744
 20
36.530692
 30
0.0
 10
167.735512
 20
36.723751
 30
0.0
 10
167.658865
 20
36.917746
 30
0.0
 10
167.581839
 20
37.112585
 30
0.0
 10
167.504473
 20
37.308176
 30
0.0
 10
167.426799
 20
37.504423
 30
0.0
 10
167.348861
 20
37.701236
 30
0.0
 10
167.270689
 20
37.898517
 30
0.0
 10
167.192325
 20
38.096176
 30
0.0
 10
167.113802
 20
38.294122
 30
0.0
 10
167.035163
 20
38.492255
 30
0.0
 10
166.956439
 20
38.690489
 30
0.0
 10
166.877669
 20
38.888725
 30
0.0
 10
166.798890
 20
39.086874
 30
0.0
 10
166.720139
 20
39.284841
 30
0.0
 10
166.641455
 20
39.482530
 30
0.0
 10
166.562874
 20
39.679853
 30
0.0
 10
166.484430
 20
39.876714
 30
0.0
 10
166.406161
 20
40.073019
 30
0.0
 10
166.328106
 20
40.268675
 30
0.0
 10
166.250303
 20
40.463591
 30
0.0
 10
166.172785
 20
40.657671
 30
0.0
 10
166.095590
 20
40.850822
 30
0.0
 10
166.018758
 20
41.042955
 30
0.0
 10
165.942325
 20
41.233971
 30
0.0
 10
165.866324
 20
41.423777
 30
0.0
 10
165.790798
 20
41.612285
 30
0.0
 10
165.715778
 20
41.799398
 30
0.0
 10
165.641306
 20
41.985022
 30
0.0
 10
165.567416
 20
42.169066
 30
0.0
 10
165.494147
 20
42.351436
 30
0.0
 10
165.421532
 20
42.532038
 30
0.0
 10
165.349613
 20
42.710780
 30
0.0
 10
165.278427
 20
42.887566
 30
0.0
 10
165.208006
 20
43.062305
 30
0.0
 10
165.138391
 20
43.234906
 30
0.0
 10
165.069618
 20
43.405271
 30
0.0
 10
165.001723
 20
43.573311
 30
0.0
 10
164.934744
 20
43.738929
 30
0.0
 10
164.868717
 20
43.902032
 30
0.0
 10
164.803680
 20
44.062530
 30
0.0
 10
164.739090
 20
44.221870
 30
0.0
 10
164.674399
 20
44.381520
 30
0.0
 10
164.609629
 20
44.541416
 30
0.0
 10
164.544809
 20
44.701491
 30
0.0
 10
164.479965
 20
44.861683
 30
0.0
 10
164.415124
 20
45.021923
 30
0.0
 10
164.350309
 20
45.182149
 30
0.0
 10
164.285549
 20
45.342296
 30
0.0
 10
164.220867
 20
45.502295
 30
0.0
 10
164.156292
 20
45.662088
 30
0.0
 10
164.091848
 20
45.821602
 30
0.0
 10
164.027562
 20
45.980778
 30
0.0
 10
163.963461
 20
46.139549
 30
0.0
 10
163.899570
 20
46.297850
 30
0.0
 10
163.835916
 20
46.455615
 30
0.0
 10
163.772522
 20
46.612783
 30
0.0
 10
163.709419
 20
46.769281
 30
0.0
 10
163.646628
 20
46.925052
 30
0.0
 10
163.584179
 20
47.080029
 30
0.0
 10
163.522097
 20
47.234144
 30
0.0
 10
163.460406
 20
47.387335
 30
0.0
 10
163.399134
 20
47.539534
 30
0.0
 10
163.338307
 20
47.690680
 30
0.0
 10
163.277952
 20
47.840704
 30
0.0
 10
163.218093
 20
47.989542
 30
0.0
 10
163.158758
 20
48.137132
 30
0.0
 10
163.099970
 20
48.283407
 30
0.0
 10
163.041759
 20
48.428301
 30
0.0
 10
162.984149
 20
48.571747
 30
0.0
 10
162.927165
 20
48.713686
 30
0.0
 10
162.870833
 20
48.854050
 30
0.0
 10
162.815183
 20
48.992771
 30
0.0
 10
162.760237
 20
49.129788
 30
0.0
 10
162.706024
 20
49.265035
 30
0.0
 10
162.652567
 20
49.398449
 30
0.0
 10
162.599897
 20
49.529960
 30
0.0
 10
162.548033
 20
49.659505
 30
0.0
 10
162.497008
 20
49.787021
 30
0.0
 10
162.446843
 20
49.912439
 30
0.0
 10
162.397565
 20
50.035700
 30
0.0
 10
162.349204
 20
50.156734
 30
0.0
 10
162.301780
 20
50.275476
 30
0.0
 10
162.255325
 20
50.391866
 30
0.0
 10
162.209859
 20
50.505833
 30
0.0
 10
162.165414
 20
50.617315
 30
0.0
 10
162.122012
 20
50.726247
 30
0.0
 10
162.079681
 20
50.832562
 30
0.0
 10
162.038446
 20
50.936199
 30
0.0
 10
161.998335
 20
51.037090
 30
0.0
 10
161.959372
 20
51.135168
 30
0.0
 10
161.921584
 20
51.230371
 30
0.0
 10
161.884995
 20
51.322636
 30
0.0
 10
161.849636
 20
51.411893
 30
0.0
 10
161.815526
 20
51.498079
 30
0.0
 10
161.782699
 20
51.581131
 30
0.0
 10
161.751174
 20
51.660983
 30
0.0
 10
161.720983
 20
51.737566
 30
0.0
 10
161.692148
 20
51.810822
 30
0.0
 10
161.664695
 20
51.880679
 30
0.0
 10
161.638660
 20
51.947077
 30
0.0
 10
161.614054
 20
52.009950
 30
0.0
 10
161.590903
 20
52.069232
 30
0.0
 10
161.569260
 20
52.124855
 30
0.0
 10
161.549125
 20
52.176761
 30
0.0
 10
161.457807
 20
52.408552
 30
0.0
 10
161.359631
 20
52.650305
 30
0.0
 10
161.254800
 20
52.901720
 30
0.0
 10
161.143519
 20
53.162488
 30
0.0
 10
161.025994
 20
53.432305
 30
0.0
 10
160.902428
 20
53.710868
 30
0.0
 10
160.773026
 20
53.997873
 30
0.0
 10
160.637988
 20
54.293013
 30
0.0
 10
160.497520
 20
54.595982
 30
0.0
 10
160.351830
 20
54.906478
 30
0.0
 10
160.201116
 20
55.224198
 30
0.0
 10
160.045586
 20
55.548831
 30
0.0
 10
159.885441
 20
55.880079
 30
0.0
 10
159.720889
 20
56.217632
 30
0.0
 10
159.552132
 20
56.561188
 30
0.0
 10
159.379373
 20
56.910443
 30
0.0
 10
159.202819
 20
57.265088
 30
0.0
 10
159.022669
 20
57.624823
 30
0.0
 10
158.839131
 20
57.989342
 30
0.0
 10
158.652409
 20
58.358338
 30
0.0
 10
158.462705
 20
58.731509
 30
0.0
 10
158.270226
 20
59.108548
 30
0.0
 10
158.075173
 20
59.489151
 30
0.0
 10
157.877748
 20
59.873017
 30
0.0
 10
157.678163
 20
60.259835
 30
0.0
 10
157.476616
 20
60.649302
 30
0.0
 10
157.273313
 20
61.041115
 30
0.0
 10
157.068454
 20
61.434969
 30
0.0
 10
156.862251
 20
61.830560
 30
0.0
 10
156.654900
 20
62.227581
 30
0.0
 10
156.446609
 20
62.625729
 30
0.0
 10
156.237583
 20
63.024696
 30
0.0
 10
156.028025
 20
63.424183
 30
0.0
 10
155.818137
 20
63.823878
 30
0.0
 10
155.608124
 20
64.223484
 30
0.0
 10
155.398193
 20
64.622690
 30
0.0
 10
155.188542
 20
65.021195
 30
0.0
 10
154.979384
 20
65.418694
 30
0.0
 10
154.770913
 20
65.814878
 30
0.0
 10
154.563340
 20
66.209449
 30
0.0
 10
154.356867
 20
66.602096
 30
0.0
 10
154.151696
 20
66.992518
 30
0.0
 10
153.948035
 20
67.380407
 30
0.0
 10
153.746084
 20
67.765464
 30
0.0
 10
153.546051
 20
68.147379
 30
0.0
 10
153.348137
 20
68.525847
 30
0.0
 10
153.152547
 20
68.900568
 30
0.0
 10
152.959486
 20
69.271234
 30
0.0
 10
152.769158
 20
69.637539
 30
0.0
 10
152.581764
 20
69.999182
 30
0.0
 10
152.397511
 20
70.355853
 30
0.0
 10
152.216602
 20
70.707252
 30
0.0
 10
152.039241
 20
71.053073
 30
0.0
 10
151.865632
 20
71.393009
 30
0.0
 10
151.695981
 20
71.726760
 30
0.0
 10
151.530490
 20
72.054015
 30
0.0
 10
151.369361
 20
72.374476
 30
0.0
 10
151.212802
 20
72.687833
 30
0.0
 10
151.061016
 20
72.993784
 30
0.0
 10
150.914206
 20
73.292022
 30
0.0
 10
150.772577
 20
73.582243
 30
0.0
 10
150.636333
 20
73.864144
 30
0.0
 10
150.505676
 20
74.137419
 30
0.0
 10
150.380814
 20
74.401761
 30
0.0
 10
150.302580
 20
74.569367
 30
0.0
 10
150.226652
 20
74.733845
 30
0.0
 10
150.153026
 20
74.895243
 30
0.0
 10
150.081703
 20
75.053599
 30
0.0
 10
150.012673
 20
75.208957
 30
0.0
 10
149.945937
 20
75.361360
 30
0.0
 10
149.881490
 20
75.510849
 30
0.0
 10
149.819331
 20
75.657466
 30
0.0
 10
149.759453
 20
75.801253
 30
0.0
 10
149.701854
 20
75.942255
 30
0.0
 10
149.646532
 20
76.080511
 30
0.0
 10
149.593483
 20
76.216062
 30
0.0
 10
149.542702
 20
76.348954
 30
0.0
 10
149.494188
 20
76.479230
 30
0.0
 10
149.447936
 20
76.606926
 30
0.0
 10
149.403943
 20
76.732089
 30
0.0
 10
149.362205
 20
76.854761
 30
0.0
 10
149.322722
 20
76.974985
 30
0.0
 10
149.285484
 20
77.092798
 30
0.0
 10
149.250496
 20
77.208247
 30
0.0
 10
149.217746
 20
77.321375
 30
0.0
 10
149.187236
 20
77.432219
 30
0.0
 10
149.158963
 20
77.540825
 30
0.0
 10
149.132928
 20
77.647235
 30
0.0
 10
149.109116
 20
77.751492
 30
0.0
 10
149.087526
 20
77.853634
 30
0.0
 10
149.068158
 20
77.953710
 30
0.0
 10
149.051013
 20
78.051754
 30
0.0
 10
149.036091
 20
78.147817
 30
0.0
 10
149.023364
 20
78.241934
 30
0.0
 10
149.012860
 20
78.334149
 30
0.0
 10
149.004552
 20
78.424507
 30
0.0
 10
148.998440
 20
78.513047
 30
0.0
 10
148.994525
 20
78.599812
 30
0.0
 10
148.992937
 20
78.684847
 30
0.0
 10
148.993466
 20
78.768190
 30
0.0
 10
148.996139
 20
78.849886
 30
0.0
 10
149.000980
 20
78.929975
 30
0.0
 10
149.008018
 20
79.008503
 30
0.0
 10
149.017226
 20
79.085508
 30
0.0
 10
149.028603
 20
79.161033
 30
0.0
 10
149.042150
 20
79.235122
 30
0.0
 10
149.057866
 20
79.307816
 30
0.0
 10
149.075752
 20
79.379156
 30
0.0
 10
149.095807
 20
79.449188
 30
0.0
 10
149.118006
 20
79.517951
 30
0.0
 10
149.142374
 20
79.585486
 30
0.0
 10
149.168885
 20
79.651840
 30
0.0
 10
149.197545
 20
79.717050
 30
0.0
 10
149.228347
 20
79.781164
 30
0.0
 10
149.261291
 20
79.844216
 30
0.0
 10
149.296372
 20
79.906256
 30
0.0
 10
149.333585
 20
79.967322
 30
0.0
 10
149.372932
 20
80.027459
 30
0.0
 10
149.414405
 20
80.086707
 30
0.0
 10
149.458000
 20
80.145108
 30
0.0
 10
149.503718
 20
80.202706
 30
0.0
 10
149.551552
 20
80.259541
 30
0.0
 10
149.601497
 20
80.315656
 30
0.0
 10
149.653557
 20
80.371094
 30
0.0
 10
149.707720
 20
80.425898
 30
0.0
 10
149.763988
 20
80.480105
 30
0.0
 10
149.822356
 20
80.533766
 30
0.0
 10
149.882821
 20
80.586915
 30
0.0
 10
149.958923
 20
80.645848
 30
0.0
 10
150.050239
 20
80.704980
 30
0.0
 10
150.156469
 20
80.764297
 30
0.0
 10
150.277317
 20
80.823789
 30
0.0
 10
150.412485
 20
80.883441
 30
0.0
 10
150.561681
 20
80.943248
 30
0.0
 10
150.724601
 20
81.003192
 30
0.0
 10
150.900951
 20
81.063268
 30
0.0
 10
151.090435
 20
81.123458
 30
0.0
 10
151.292754
 20
81.183757
 30
0.0
 10
151.507608
 20
81.244148
 30
0.0
 10
151.734706
 20
81.304624
 30
0.0
 10
151.973746
 20
81.365174
 30
0.0
 10
152.224436
 20
81.425782
 30
0.0
 10
152.486472
 20
81.486437
 30
0.0
 10
152.759561
 20
81.547133
 30
0.0
 10
153.043406
 20
81.607855
 30
0.0
 10
153.337708
 20
81.668593
 30
0.0
 10
153.642172
 20
81.729333
 30
0.0
 10
153.956499
 20
81.790065
 30
0.0
 10
154.280391
 20
81.850779
 30
0.0
 10
154.613555
 20
81.911464
 30
0.0
 10
154.955688
 20
81.972107
 30
0.0
 10
155.306496
 20
82.032696
 30
0.0
 10
155.665684
 20
82.093220
 30
0.0
 10
156.032949
 20
82.153669
 30
0.0
 10
156.408001
 20
82.214031
 30
0.0
 10
156.790536
 20
82.274293
 30
0.0
 10
157.180262
 20
82.334446
 30
0.0
 10
157.576880
 20
82.394480
 30
0.0
 10
157.980092
 20
82.454379
 30
0.0
 10
158.389601
 20
82.514135
 30
0.0
 10
158.805110
 20
82.573735
 30
0.0
 10
159.226322
 20
82.633168
 30
0.0
 10
159.652939
 20
82.692422
 30
0.0
 10
160.084667
 20
82.751490
 30
0.0
 10
160.521203
 20
82.810354
 30
0.0
 10
160.962256
 20
82.869007
 30
0.0
 10
161.407526
 20
82.927438
 30
0.0
 10
161.856717
 20
82.985630
 30
0.0
 10
162.309527
 20
83.043579
 30
0.0
 10
162.765666
 20
83.101272
 30
0.0
 10
163.224832
 20
83.158691
 30
0.0
 10
163.686731
 20
83.215833
 30
0.0
 10
164.151062
 20
83.272685
 30
0.0
 10
164.617530
 20
83.329231
 30
0.0
 10
165.085837
 20
83.385463
 30
0.0
 10
165.555689
 20
83.441370
 30
0.0
 10
166.026785
 20
83.496940
 30
0.0
 10
166.498828
 20
83.552159
 30
0.0
 10
166.971522
 20
83.607020
 30
0.0
 10
167.444574
 20
83.661511
 30
0.0
 10
167.917678
 20
83.715618
 30
0.0
 10
168.390544
 20
83.769331
 30
0.0
 10
168.862870
 20
83.822639
 30
0.0
 10
169.334363
 20
83.875530
 30
0.0
 10
169.804723
 20
83.927994
 30
0.0
 10
170.273652
 20
83.980016
 30
0.0
 10
170.740856
 20
84.031589
 30
0.0
 10
171.206038
 20
84.082701
 30
0.0
 10
171.668898
 20
84.133337
 30
0.0
 10
172.129138
 20
84.183491
 30
0.0
 10
172.586465
 20
84.233146
 30
0.0
 10
173.040580
 20
84.282295
 30
0.0
 10
173.095113
 20
84.288089
 30
0.0
 10
173.150821
 20
84.293831
 30
0.0
 10
173.207683
 20
84.299546
 30
0.0
 10
173.265671
 20
84.305208
 30
0.0
 10
173.324761
 20
84.310817
 30
0.0
 10
173.384927
 20
84.316400
 30
0.0
 10
173.446141
 20
84.321929
 30
0.0
 10
173.508382
 20
84.327406
 30
0.0
 10
173.571620
 20
84.332857
 30
0.0
 10
173.635831
 20
84.338254
 30
0.0
 10
173.700990
 20
84.343625
 30
0.0
 10
173.767073
 20
84.348970
 30
0.0
 10
173.834052
 20
84.354261
 30
0.0
 10
173.901902
 20
84.359527
 30
0.0
 10
173.970598
 20
84.364765
 30
0.0
 10
174.040115
 20
84.369978
 30
0.0
 10
174.110425
 20
84.375164
 30
0.0
 10
174.181506
 20
84.380323
 30
0.0
 10
174.253329
 20
84.385456
 30
0.0
 10
174.325870
 20
84.390589
 30
0.0
 10
174.399107
 20
84.395695
 30
0.0
 10
174.473008
 20
84.400775
 30
0.0
 10
174.547551
 20
84.405829
 30
0.0
 10
174.622711
 20
84.410882
 30
0.0
 10
174.698462
 20
84.415909
 30
0.0
 10
174.774775
 20
84.420936
 30
0.0
 10
174.851632
 20
84.425964
 30
0.0
 10
174.929001
 20
84.430964
 30
0.0
 10
175.006857
 20
84.435965
 30
0.0
 10
175.085179
 20
84.440965
 30
0.0
 10
175.163935
 20
84.445966
 30
0.0
 10
175.243106
 20
84.450940
 30
0.0
 10
175.322661
 20
84.455941
 30
0.0
 10
175.402579
 20
84.460915
 30
0.0
 10
175.482832
 20
84.465916
 30
0.0
 10
175.563395
 20
84.470916
 30
0.0
 10
175.644241
 20
84.475917
 30
0.0
 10
175.725347
 20
84.480918
 30
0.0
 10
175.806685
 20
84.485945
 30
0.0
 10
175.888232
 20
84.490972
 30
0.0
 10
175.969959
 20
84.495999
 30
0.0
 10
176.051845
 20
84.501052
 30
0.0
 10
176.133863
 20
84.506106
 30
0.0
 10
176.215985
 20
84.511186
 30
0.0
 10
176.298188
 20
84.516292
 30
0.0
 10
176.380444
 20
84.521399
 30
0.0
 10
176.462730
 20
84.526532
 30
0.0
 10
176.545020
 20
84.531691
 30
0.0
 10
176.627287
 20
84.536877
 30
0.0
 10
176.709509
 20
84.542089
 30
0.0
 10
176.791657
 20
84.547328
 30
0.0
 10
176.873704
 20
84.552593
 30
0.0
 10
176.955630
 20
84.557885
 30
0.0
 10
177.037405
 20
84.563229
 30
0.0
 10
177.119005
 20
84.568600
 30
0.0
 10
177.200407
 20
84.573998
 30
0.0
 10
177.281578
 20
84.579448
 30
0.0
 10
177.362501
 20
84.584925
 30
0.0
 10
177.443146
 20
84.590429
 30
0.0
 10
177.523489
 20
84.595985
 30
0.0
 10
177.603502
 20
84.601594
 30
0.0
 10
177.683163
 20
84.607230
 30
0.0
 10
177.762442
 20
84.612918
 30
0.0
 10
177.841320
 20
84.618660
 30
0.0
 10
177.766337
 20
84.393105
 30
0.0
 10
177.688097
 20
84.170029
 30
0.0
 10
177.606529
 20
83.949364
 30
0.0
 10
177.521558
 20
83.731043
 30
0.0
 10
177.433113
 20
83.515003
 30
0.0
 10
177.341120
 20
83.301175
 30
0.0
 10
177.245507
 20
83.089492
 30
0.0
 10
177.146204
 20
82.879889
 30
0.0
 10
177.043136
 20
82.672300
 30
0.0
 10
176.936231
 20
82.466658
 30
0.0
 10
176.825418
 20
82.262897
 30
0.0
 10
176.710621
 20
82.060948
 30
0.0
 10
176.591772
 20
81.860749
 30
0.0
 10
176.468794
 20
81.662229
 30
0.0
 10
176.341617
 20
81.465326
 30
0.0
 10
176.210169
 20
81.269974
 30
0.0
 10
176.074377
 20
81.076100
 30
0.0
 10
175.934169
 20
80.883645
 30
0.0
 10
175.789471
 20
80.692539
 30
0.0
 10
175.640212
 20
80.502717
 30
0.0
 10
175.486319
 20
80.314114
 30
0.0
 10
175.327718
 20
80.126656
 30
0.0
 10
175.164340
 20
79.940287
 30
0.0
 10
174.996110
 20
79.754935
 30
0.0
 10
174.822953
 20
79.570534
 30
0.0
 10
174.644804
 20
79.387019
 30
0.0
 10
174.461583
 20
79.204322
 30
0.0
 10
174.273223
 20
79.022376
 30
0.0
 10
174.079649
 20
78.841117
 30
0.0
 10
173.880785
 20
78.660479
 30
0.0
 10
173.676567
 20
78.480395
 30
0.0
 10
173.466914
 20
78.300796
 30
0.0
 10
173.251760
 20
78.121620
 30
0.0
 10
173.031028
 20
77.942796
 30
0.0
 10
172.804648
 20
77.764261
 30
0.0
 10
172.572548
 20
77.585947
 30
0.0
 10
172.334653
 20
77.407790
 30
0.0
 10
172.090892
 20
77.229720
 30
0.0
 10
171.841192
 20
77.051672
 30
0.0
 10
171.585480
 20
76.873583
 30
0.0
 10
171.323685
 20
76.695381
 30
0.0
 10
171.055737
 20
76.517004
 30
0.0
 10
170.781557
 20
76.338384
 30
0.0
 10
170.501077
 20
76.159454
 30
0.0
 10
170.214224
 20
75.980149
 30
0.0
 10
169.920925
 20
75.800402
 30
0.0
 10
169.621108
 20
75.620146
 30
0.0
 10
169.314699
 20
75.439317
 30
0.0
 10
169.001628
 20
75.257844
 30
0.0
 10
168.681821
 20
75.075665
 30
0.0
 10
168.355206
 20
74.892714
 30
0.0
 10
168.021709
 20
74.708921
 30
0.0
 10
167.681259
 20
74.524221
 30
0.0
 10
167.333785
 20
74.338550
 30
0.0
 10
166.979209
 20
74.151838
 30
0.0
 10
166.617465
 20
73.964021
 30
0.0
 10
166.248477
 20
73.775032
 30
0.0
 10
165.872176
 20
73.584805
 30
0.0
 10
165.488485
 20
73.393273
 30
0.0
 10
165.097333
 20
73.200368
 30
0.0
 10
164.698648
 20
73.006028
 30
0.0
 10
164.292357
 20
72.810184
 30
0.0
 10
163.878390
 20
72.612770
 30
0.0
 10
163.456671
 20
72.413719
 30
0.0
 10
163.164367
 20
72.258596
 30
0.0
 10
162.906464
 20
72.095692
 30
0.0
 10
162.682336
 20
71.925489
 30
0.0
 10
162.491357
 20
71.748472
 30
0.0
 10
162.332900
 20
71.565126
 30
0.0
 10
162.206340
 20
71.375939
 30
0.0
 10
162.111050
 20
71.181390
 30
0.0
 10
162.046407
 20
70.981969
 30
0.0
 10
162.011778
 20
70.778155
 30
0.0
 10
162.006540
 20
70.570438
 30
0.0
 10
162.030061
 20
70.359301
 30
0.0
 10
162.081734
 20
70.145227
 30
0.0
 10
162.160919
 20
69.928702
 30
0.0
 10
162.266993
 20
69.710209
 30
0.0
 10
162.399329
 20
69.490237
 30
0.0
 10
162.557302
 20
69.269268
 30
0.0
 10
162.740282
 20
69.047785
 30
0.0
 10
162.947649
 20
68.826276
 30
0.0
 10
163.178771
 20
68.605222
 30
0.0
 10
163.433027
 20
68.385112
 30
0.0
 10
163.709787
 20
68.166429
 30
0.0
 10
164.008427
 20
67.949656
 30
0.0
 10
164.328322
 20
67.735277
 30
0.0
 10
164.668843
 20
67.523780
 30
0.0
 10
165.029364
 20
67.315651
 30
0.0
 10
165.409261
 20
67.111369
 30
0.0
 10
165.807909
 20
66.911423
 30
0.0
 10
166.224678
 20
66.716295
 30
0.0
 10
166.658946
 20
66.526470
 30
0.0
 10
167.110082
 20
66.342436
 30
0.0
 10
167.577466
 20
66.164676
 30
0.0
 10
168.060468
 20
65.993673
 30
0.0
 10
168.558462
 20
65.829912
 30
0.0
 10
169.070824
 20
65.673879
 30
0.0
 10
169.596925
 20
65.526059
 30
0.0
 10
170.136143
 20
65.386936
 30
0.0
 10
170.687847
 20
65.256994
 30
0.0
 10
171.251414
 20
65.136720
 30
0.0
 10
171.826219
 20
65.026595
 30
0.0
 10
172.411634
 20
64.927106
 30
0.0
 10
173.007031
 20
64.838735
 30
0.0
 10
173.611789
 20
64.761972
 30
0.0
 10
174.225278
 20
64.697300
 30
0.0
 10
174.846872
 20
64.645201
 30
0.0
 10
175.475948
 20
64.606159
 30
0.0
 10
176.111876
 20
64.580653
 30
0.0
 10
176.754033
 20
64.569196
 30
0.0
 10
177.401792
 20
64.572239
 30
0.0
 10
178.054527
 20
64.590284
 30
0.0
 10
178.711611
 20
64.623812
 30
0.0
 10
179.372419
 20
64.673305
 30
0.0
 10
180.036324
 20
64.739249
 30
0.0
 10
180.702701
 20
64.822133
 30
0.0
 10
181.370922
 20
64.922436
 30
0.0
 10
182.040366
 20
65.040644
 30
0.0
 10
182.710399
 20
65.177246
 30
0.0
 10
183.380401
 20
65.332720
 30
0.0
 10
184.049747
 20
65.507557
 30
0.0
 10
184.717804
 20
65.702237
 30
0.0
 10
185.383953
 20
65.917248
 30
0.0
 10
186.047562
 20
66.153072
 30
0.0
 10
186.708010
 20
66.410196
 30
0.0
 10
187.364669
 20
66.689104
 30
0.0
 10
188.016912
 20
66.990279
 30
0.0
 10
188.611081
 20
67.208600
 30
0.0
 10
189.198451
 20
67.436232
 30
0.0
 10
189.778944
 20
67.673240
 30
0.0
 10
190.352489
 20
67.919700
 30
0.0
 10
190.919007
 20
68.175676
 30
0.0
 10
191.478429
 20
68.441244
 30
0.0
 10
192.030681
 20
68.716474
 30
0.0
 10
192.575683
 20
69.001430
 30
0.0
 10
193.113366
 20
69.296189
 30
0.0
 10
193.643652
 20
69.600820
 30
0.0
 10
194.166471
 20
69.915394
 30
0.0
 10
194.681745
 20
70.239976
 30
0.0
 10
195.189401
 20
70.574643
 30
0.0
 10
195.689365
 20
70.919461
 30
0.0
 10
196.181564
 20
71.274503
 30
0.0
 10
196.665921
 20
71.639839
 30
0.0
 10
197.142364
 20
72.015537
 30
0.0
 10
197.610820
 20
72.401670
 30
0.0
 10
198.071208
 20
72.798304
 30
0.0
 10
198.523463
 20
73.205516
 30
0.0
 10
198.967502
 20
73.623373
 30
0.0
 10
199.403258
 20
74.051945
 30
0.0
 10
199.830653
 20
74.491301
 30
0.0
 10
200.249615
 20
74.941514
 30
0.0
 10
200.660066
 20
75.402653
 30
0.0
 10
201.061934
 20
75.874789
 30
0.0
 10
201.455147
 20
76.357992
 30
0.0
 10
201.839626
 20
76.852332
 30
0.0
 10
202.215300
 20
77.357879
 30
0.0
 10
202.582094
 20
77.874706
 30
0.0
 10
202.939933
 20
78.402880
 30
0.0
 10
203.288746
 20
78.942471
 30
0.0
 10
203.628455
 20
79.493554
 30
0.0
 10
203.958986
 20
80.056195
 30
0.0
 10
204.280267
 20
80.630465
 30
0.0
 10
204.592221
 20
81.216438
 30
0.0
 10
204.894778
 20
81.814179
 30
0.0
 10
205.187859
 20
82.423761
 30
0.0
 10
205.471392
 20
83.045254
 30
0.0
 10
205.745302
 20
83.678727
 30
0.0
 10
206.009517
 20
84.324255
 30
0.0
 10
206.263959
 20
84.981903
 30
0.0
 10
206.508559
 20
85.651744
 30
0.0
 10
206.743236
 20
86.333847
 30
0.0
 10
206.967920
 20
87.028283
 30
0.0
 10
207.182537
 20
87.735123
 30
0.0
 10
207.387012
 20
88.454438
 30
0.0
 10
207.581272
 20
89.186297
 30
0.0
 10
207.765239
 20
89.930768
 30
0.0
 10
207.938841
 20
90.687926
 30
0.0
 10
208.102006
 20
91.457837
 30
0.0
 10
208.254655
 20
92.240575
 30
0.0
 10
208.396718
 20
93.036209
 30
0.0
 10
208.528118
 20
93.844807
 30
0.0
 10
208.648784
 20
94.666444
 30
0.0
 10
208.758636
 20
95.501189
 30
0.0
 10
208.857606
 20
96.349107
 30
0.0
 10
208.945617
 20
97.210275
 30
0.0
 10
209.022595
 20
98.084760
 30
0.0
 10
209.088466
 20
98.972636
 30
0.0
 10
209.143152
 20
99.873968
 30
0.0
 10
209.186586
 20
100.788829
 30
0.0
 10
209.218688
 20
101.717288
 30
0.0
 10
209.239379
 20
102.659419
 30
0.0
 10
209.317050
 20
103.417265
 30
0.0
 10
209.374263
 20
104.178321
 30
0.0
 10
209.411167
 20
104.942149
 30
0.0
 10
209.427916
 20
105.708319
 30
0.0
 10
209.424635
 20
106.476389
 30
0.0
 10
209.401484
 20
107.245929
 30
0.0
 10
209.358626
 20
108.016499
 30
0.0
 10
209.296198
 20
108.787664
 30
0.0
 10
209.214349
 20
109.558991
 30
0.0
 10
209.113223
 20
110.330042
 30
0.0
 10
208.992970
 20
111.100382
 30
0.0
 10
208.853735
 20
111.869573
 30
0.0
 10
208.695673
 20
112.637182
 30
0.0
 10
208.518924
 20
113.402770
 30
0.0
 10
208.323640
 20
114.165905
 30
0.0
 10
208.109970
 20
114.926151
 30
0.0
 10
207.878058
 20
115.683068
 30
0.0
 10
207.628053
 20
116.436226
 30
0.0
 10
207.360104
 20
117.185184
 30
0.0
 10
207.074359
 20
117.929510
 30
0.0
 10
206.770964
 20
118.668767
 30
0.0
 10
206.450070
 20
119.402517
 30
0.0
 10
206.111821
 20
120.130330
 30
0.0
 10
205.756367
 20
120.851764
 30
0.0
 10
205.383857
 20
121.566385
 30
0.0
 10
204.994436
 20
122.273760
 30
0.0
 10
204.588253
 20
122.973450
 30
0.0
 10
204.165456
 20
123.665021
 30
0.0
 10
203.726192
 20
124.348035
 30
0.0
 10
203.270612
 20
125.022061
 30
0.0
 10
202.798860
 20
125.686657
 30
0.0
 10
202.311087
 20
126.341392
 30
0.0
 10
201.807437
 20
126.985830
 30
0.0
 10
201.288062
 20
127.619531
 30
0.0
 10
200.753107
 20
128.242064
 30
0.0
 10
200.202720
 20
128.852992
 30
0.0
 10
199.637049
 20
129.451876
 30
0.0
 10
199.056244
 20
130.038285
 30
0.0
 10
198.460450
 20
130.611780
 30
0.0
 10
197.849815
 20
131.171927
 30
0.0
 10
197.224491
 20
131.718289
 30
0.0
 10
196.584620
 20
132.250430
 30
0.0
 10
195.930356
 20
132.767918
 30
0.0
 10
195.261838
 20
133.270311
 30
0.0
 10
194.579224
 20
133.757176
 30
0.0
 10
193.882655
 20
134.228081
 30
0.0
 10
193.172281
 20
134.682585
 30
0.0
 10
192.448251
 20
135.120254
 30
0.0
 10
191.710709
 20
135.540653
 30
0.0
 10
190.959806
 20
135.943346
 30
0.0
 10
190.195692
 20
136.327894
 30
0.0
 10
189.418510
 20
136.693868
 30
0.0
 10
188.628409
 20
137.040827
 30
0.0
 10
187.825539
 20
137.368336
 30
0.0
 10
187.010045
 20
137.675959
 30
0.0
 10
186.182079
 20
137.963263
 30
0.0
 10
185.341784
 20
138.229809
 30
0.0
 10
184.489312
 20
138.475165
 30
0.0
 10
183.624807
 20
138.698889
 30
0.0
 10
182.748420
 20
138.900552
 30
0.0
 10
181.860296
 20
139.079714
 30
0.0
 10
180.960585
 20
139.235940
 30
0.0
 10
180.049437
 20
139.368795
 30
0.0
 10
179.126994
 20
139.477843
 30
0.0
 10
178.490213
 20
139.559700
 30
0.0
 10
177.862135
 20
139.627960
 30
0.0
 10
177.242973
 20
139.682959
 30
0.0
 10
176.632939
 20
139.725028
 30
0.0
 10
176.032250
 20
139.754505
 30
0.0
 10
175.441121
 20
139.771729
 30
0.0
 10
174.859762
 20
139.777021
 30
0.0
 10
174.288392
 20
139.770724
 30
0.0
 10
173.727224
 20
139.753156
 30
0.0
 10
173.176470
 20
139.724665
 30
0.0
 10
172.636347
 20
139.685586
 30
0.0
 10
172.107066
 20
139.636249
 30
0.0
 10
171.588846
 20
139.576988
 30
0.0
 10
171.081896
 20
139.508136
 30
0.0
 10
170.586432
 20
139.430031
 30
0.0
 10
170.102670
 20
139.343001
 30
0.0
 10
169.630823
 20
139.247386
 30
0.0
 10
169.171104
 20
139.143516
 30
0.0
 10
168.723731
 20
139.031727
 30
0.0
 10
168.288912
 20
138.912349
 30
0.0
 10
167.866867
 20
138.785720
 30
0.0
 10
167.457808
 20
138.652174
 30
0.0
 10
167.061952
 20
138.512043
 30
0.0
 10
166.679507
 20
138.365659
 30
0.0
 10
166.310691
 20
138.213360
 30
0.0
 10
165.955721
 20
138.055478
 30
0.0
 10
165.614805
 20
137.892349
 30
0.0
 10
165.288161
 20
137.724301
 30
0.0
 10
164.976006
 20
137.551674
 30
0.0
 10
164.678548
 20
137.374800
 30
0.0
 10
164.396005
 20
137.194013
 30
0.0
 10
164.128588
 20
137.009646
 30
0.0
 10
163.876517
 20
136.822033
 30
0.0
 10
163.640000
 20
136.631509
 30
0.0
 10
163.419258
 20
136.438405
 30
0.0
 10
163.214497
 20
136.243058
 30
0.0
 10
163.025939
 20
136.045803
 30
0.0
 10
162.853794
 20
135.846969
 30
0.0
 10
162.698277
 20
135.646894
 30
0.0
 10
162.559601
 20
135.445911
 30
0.0
 10
162.437982
 20
135.244354
 30
0.0
 10
162.333633
 20
135.042554
 30
0.0
 10
162.246771
 20
134.840849
 30
0.0
 10
162.177606
 20
134.639572
 30
0.0
 10
162.126353
 20
134.439055
 30
0.0
 10
162.093230
 20
134.239631
 30
0.0
 10
162.078440
 20
134.041638
 30
0.0
 10
162.082224
 20
133.845407
 30
0.0
 10
162.104766
 20
133.651274
 30
0.0
 10
162.146295
 20
133.459570
 30
0.0
 10
162.207022
 20
133.270631
 30
0.0
 10
162.287165
 20
133.084790
 30
0.0
 10
162.386931
 20
132.902381
 30
0.0
 10
162.506541
 20
132.723737
 30
0.0
 10
162.646207
 20
132.549197
 30
0.0
 10
162.806142
 20
132.379086
 30
0.0
 10
162.986562
 20
132.213745
 30
0.0
 10
163.187677
 20
132.053506
 30
0.0
 10
163.409707
 20
131.898703
 30
0.0
 10
163.652864
 20
131.749669
 30
0.0
 10
163.917360
 20
131.606735
 30
0.0
 10
164.203415
 20
131.470242
 30
0.0
 10
164.511236
 20
131.340520
 30
0.0
 10
164.841042
 20
131.217901
 30
0.0
 10
165.192430
 20
131.072200
 30
0.0
 10
165.540989
 20
130.929733
 30
0.0
 10
165.886657
 20
130.790237
 30
0.0
 10
166.229369
 20
130.653450
 30
0.0
 10
166.569065
 20
130.519121
 30
0.0
 10
166.905681
 20
130.386982
 30
0.0
 10
167.239151
 20
130.256781
 30
0.0
 10
167.569417
 20
130.128257
 30
0.0
 10
167.896413
 20
130.001148
 30
0.0
 10
168.220078
 20
129.875199
 30
0.0
 10
168.540346
 20
129.750149
 30
0.0
 10
168.857158
 20
129.625737
 30
0.0
 10
169.170445
 20
129.501708
 30
0.0
 10
169.480151
 20
129.377798
 30
0.0
 10
169.786208
 20
129.253754
 30
0.0
 10
170.088555
 20
129.129309
 30
0.0
 10
170.387127
 20
129.004212
 30
0.0
 10
170.681864
 20
128.878199
 30
0.0
 10
170.972702
 20
128.751013
 30
0.0
 10
171.259577
 20
128.622392
 30
0.0
 10
171.542427
 20
128.492082
 30
0.0
 10
171.821189
 20
128.359819
 30
0.0
 10
172.095798
 20
128.225345
 30
0.0
 10
172.366194
 20
128.088404
 30
0.0
 10
172.632312
 20
127.948733
 30
0.0
 10
172.894091
 20
127.806075
 30
0.0
 10
173.151464
 20
127.660171
 30
0.0
 10
173.404371
 20
127.510761
 30
0.0
 10
173.652752
 20
127.357585
 30
0.0
 10
173.896536
 20
127.200386
 30
0.0
 10
174.135669
 20
127.038905
 30
0.0
 10
174.370079
 20
126.872882
 30
0.0
 10
174.599711
 20
126.702056
 30
0.0
 10
174.824499
 20
126.526172
 30
0.0
 10
175.044378
 20
126.344967
 30
0.0
 10
175.259286
 20
126.158184
 30
0.0
 10
175.469161
 20
125.965562
 30
0.0
 10
175.673941
 20
125.766847
 30
0.0
 10
175.873561
 20
125.561774
 30
0.0
 10
176.067958
 20
125.350086
 30
0.0
 10
176.257069
 20
125.131524
 30
0.0
 10
176.440833
 20
124.905829
 30
0.0
 10
176.619186
 20
124.672742
 30
0.0
 10
176.792062
 20
124.432005
 30
0.0
 10
176.959403
 20
124.183358
 30
0.0
 10
177.121143
 20
123.926540
 30
0.0
 10
177.277220
 20
123.661293
 30
0.0
 10
177.427570
 20
123.387362
 30
0.0
 10
177.572130
 20
123.104480
 30
0.0
 10
177.710838
 20
122.812396
 30
0.0
 10
177.843630
 20
122.510845
 30
0.0
 10
177.970445
 20
122.199568
 30
0.0
 10
178.091219
 20
121.878311
 30
0.0
 10
178.205887
 20
121.546812
 30
0.0
 10
178.314387
 20
121.204811
 30
0.0
 10
178.416659
 20
120.852050
 30
0.0
 10
178.512637
 20
120.488269
 30
0.0
 10
178.602256
 20
120.113209
 30
0.0
 10
178.685457
 20
119.726611
 30
0.0
 10
178.762176
 20
119.328217
 30
0.0
 10
178.832351
 20
118.917769
 30
0.0
 10
178.895915
 20
118.495004
 30
0.0
 10
178.952808
 20
118.059667
 30
0.0
 10
179.002968
 20
117.611494
 30
0.0
 10
178.578126
 20
117.740696
 30
0.0
 10
178.153065
 20
117.869746
 30
0.0
 10
177.727785
 20
117.998643
 30
0.0
 10
177.302295
 20
118.127387
 30
0.0
 10
176.876594
 20
118.255972
 30
0.0
 10
176.450689
 20
118.384400
 30
0.0
 10
176.024585
 20
118.512665
 30
0.0
 10
175.598283
 20
118.640766
 30
0.0
 10
175.171788
 20
118.768700
 30
0.0
 10
174.745102
 20
118.896464
 30
0.0
 10
174.318234
 20
119.024060
 30
0.0
 10
173.891184
 20
119.151480
 30
0.0
 10
173.463958
 20
119.278729
 30
0.0
 10
173.036558
 20
119.405798
 30
0.0
 10
172.608989
 20
119.532687
 30
0.0
 10
172.181253
 20
119.659393
 30
0.0
 10
171.753358
 20
119.785917
 30
0.0
 10
171.325305
 20
119.912253
 30
0.0
 10
170.897100
 20
120.038401
 30
0.0
 10
170.468743
 20
120.164356
 30
0.0
 10
170.040242
 20
120.290117
 30
0.0
 10
169.611601
 20
120.415686
 30
0.0
 10
169.182820
 20
120.541054
 30
0.0
 10
168.753909
 20
120.666223
 30
0.0
 10
168.324866
 20
120.791191
 30
0.0
 10
167.895696
 20
120.915952
 30
0.0
 10
167.466407
 20
121.040508
 30
0.0
 10
167.036999
 20
121.164851
 30
0.0
 10
166.607477
 20
121.288986
 30
0.0
 10
166.177847
 20
121.412906
 30
0.0
 10
165.748110
 20
121.536609
 30
0.0
 10
165.318271
 20
121.660096
 30
0.0
 10
164.888334
 20
121.783362
 30
0.0
 10
164.458304
 20
121.906404
 30
0.0
 10
164.028184
 20
122.029221
 30
0.0
 10
163.597977
 20
122.151810
 30
0.0
 10
163.167687
 20
122.274172
 30
0.0
 10
162.737321
 20
122.396301
 30
0.0
 10
162.306881
 20
122.518195
 30
0.0
 10
161.876370
 20
122.639853
 30
0.0
 10
161.445792
 20
122.761273
 30
0.0
 10
161.015151
 20
122.882452
 30
0.0
 10
160.584454
 20
123.003385
 30
0.0
 10
160.153702
 20
123.124077
 30
0.0
 10
159.722900
 20
123.244518
 30
0.0
 10
159.292050
 20
123.364711
 30
0.0
 10
158.861157
 20
123.484652
 30
0.0
 10
158.430228
 20
123.604336
 30
0.0
 10
157.999261
 20
123.723766
 30
0.0
 10
157.568265
 20
123.842934
 30
0.0
 10
157.137243
 20
123.961844
 30
0.0
 10
156.706200
 20
124.080488
 30
0.0
 10
156.275135
 20
124.198868
 30
0.0
 10
155.844055
 20
124.316978
 30
0.0
 10
155.412967
 20
124.434818
 30
0.0
 10
154.981871
 20
124.552388
 30
0.0
 10
154.550772
 20
124.669681
 30
0.0
 10
154.119673
 20
124.786698
 30
0.0
 10
153.688579
 20
124.903435
 30
0.0
 10
153.257496
 20
125.019888
 30
0.0
 10
152.826424
 20
125.136062
 30
0.0
 10
152.395370
 20
125.251947
 30
0.0
 10
151.964335
 20
125.367543
 30
0.0
 10
151.533326
 20
125.482848
 30
0.0
 10
151.451914
 20
125.504491
 30
0.0
 10
151.370448
 20
125.525949
 30
0.0
 10
151.288936
 20
125.547222
 30
0.0
 10
151.207375
 20
125.568309
 30
0.0
 10
151.125770
 20
125.589211
 30
0.0
 10
151.044119
 20
125.609954
 30
0.0
 10
150.962427
 20
125.630539
 30
0.0
 10
150.880697
 20
125.650965
 30
0.0
 10
150.798927
 20
125.671232
 30
0.0
 10
150.717121
 20
125.691367
 30
0.0
 10
150.635280
 20
125.711369
 30
0.0
 10
150.553410
 20
125.731239
 30
0.0
 10
150.471505
 20
125.751004
 30
0.0
 10
150.389575
 20
125.770662
 30
0.0
 10
150.307617
 20
125.790215
 30
0.0
 10
150.225633
 20
125.809662
 30
0.0
 10
150.143626
 20
125.829029
 30
0.0
 10
150.061600
 20
125.848317
 30
0.0
 10
149.979552
 20
125.867526
 30
0.0
 10
149.897489
 20
125.886655
 30
0.0
 10
149.815410
 20
125.905732
 30
0.0
 10
149.733315
 20
125.924755
 30
0.0
 10
149.651212
 20
125.943726
 30
0.0
 10
149.569096
 20
125.962670
 30
0.0
 10
149.486975
 20
125.981562
 30
0.0
 10
149.404846
 20
126.000426
 30
0.0
 10
149.322714
 20
126.019291
 30
0.0
 10
149.240576
 20
126.038129
 30
0.0
 10
149.158442
 20
126.056968
 30
0.0
 10
149.076307
 20
126.075806
 30
0.0
 10
148.994175
 20
126.094671
 30
0.0
 10
148.912051
 20
126.113562
 30
0.0
 10
148.829933
 20
126.132453
 30
0.0
 10
148.747822
 20
126.151398
 30
0.0
 10
148.665722
 20
126.170368
 30
0.0
 10
148.583637
 20
126.189392
 30
0.0
 10
148.501563
 20
126.208468
 30
0.0
 10
148.419508
 20
126.227598
 30
0.0
 10
148.337472
 20
126.246806
 30
0.0
 10
148.255456
 20
126.266094
 30
0.0
 10
148.173459
 20
126.285462
 30
0.0
 10
148.091488
 20
126.304909
 30
0.0
 10
148.009544
 20
126.324462
 30
0.0
 10
147.927627
 20
126.344120
 30
0.0
 10
147.845738
 20
126.363884
 30
0.0
 10
147.763881
 20
126.383781
 30
0.0
 10
147.682059
 20
126.403784
 30
0.0
 10
147.600271
 20
126.423918
 30
0.0
 10
147.518520
 20
126.444212
 30
0.0
 10
147.436809
 20
126.464638
 30
0.0
 10
147.355137
 20
126.485222
 30
0.0
 10
147.273511
 20
126.505966
 30
0.0
 10
147.191926
 20
126.526894
 30
0.0
 10
147.110390
 20
126.547982
 30
0.0
 10
147.028901
 20
126.569254
 30
0.0
 10
146.947462
 20
126.590712
 30
0.0
 10
146.866076
 20
126.612381
 30
0.0
 10
146.784743
 20
126.634262
 30
0.0
 10
146.703466
 20
126.656328
 30
0.0
 10
146.622247
 20
126.678633
 30
0.0
 10
146.541088
 20
126.701149
 30
0.0
 10
146.459991
 20
126.723903
 30
0.0
 10
146.378954
 20
126.746895
 30
0.0
 10
146.297987
 20
126.770126
 30
0.0
 10
146.215434
 20
126.794070
 30
0.0
 10
146.132937
 20
126.818200
 30
0.0
 10
146.050501
 20
126.842516
 30
0.0
 10
145.968120
 20
126.867016
 30
0.0
 10
145.885795
 20
126.891702
 30
0.0
 10
145.803523
 20
126.916546
 30
0.0
 10
145.721301
 20
126.941576
 30
0.0
 10
145.639134
 20
126.966764
 30
0.0
 10
145.557013
 20
126.992111
 30
0.0
 10
145.474942
 20
127.017617
 30
0.0
 10
145.392918
 20
127.043281
 30
0.0
 10
145.310940
 20
127.069078
 30
0.0
 10
145.229006
 20
127.095034
 30
0.0
 10
145.147115
 20
127.121122
 30
0.0
 10
145.065266
 20
127.147342
 30
0.0
 10
144.983457
 20
127.173695
 30
0.0
 10
144.901685
 20
127.200171
 30
0.0
 10
144.819953
 20
127.226773
 30
0.0
 10
144.738257
 20
127.253488
 30
0.0
 10
144.656596
 20
127.280319
 30
0.0
 10
144.574967
 20
127.307256
 30
0.0
 10
144.493369
 20
127.334297
 30
0.0
 10
144.411806
 20
127.361438
 30
0.0
 10
144.330270
 20
127.388674
 30
0.0
 10
144.248762
 20
127.416003
 30
0.0
 10
144.167281
 20
127.443416
 30
0.0
 10
144.085826
 20
127.470912
 30
0.0
 10
144.004396
 20
127.498484
 30
0.0
 10
143.922986
 20
127.526130
 30
0.0
 10
143.841600
 20
127.553845
 30
0.0
 10
143.760233
 20
127.581627
 30
0.0
 10
143.678887
 20
127.609466
 30
0.0
 10
143.597556
 20
127.637361
 30
0.0
 10
143.516242
 20
127.665309
 30
0.0
 10
143.434941
 20
127.693305
 30
0.0
 10
143.353656
 20
127.721340
 30
0.0
 10
143.272381
 20
127.749415
 30
0.0
 10
143.191117
 20
127.777524
 30
0.0
 10
143.109863
 20
127.805662
 30
0.0
 10
143.028618
 20
127.833827
 30
0.0
 10
142.947377
 20
127.862011
 30
0.0
 10
142.866145
 20
127.890213
 30
0.0
 10
142.784915
 20
127.918425
 30
0.0
 10
142.703685
 20
127.946646
 30
0.0
 10
142.622461
 20
127.974871
 30
0.0
 10
142.541234
 20
128.003095
 30
0.0
 10
142.460007
 20
128.031310
 30
0.0
 10
142.378777
 20
128.059520
 30
0.0
 10
142.297542
 20
128.087711
 30
0.0
 10
142.216304
 20
128.115886
 30
0.0
 10
142.135056
 20
128.144038
 30
0.0
 10
142.053803
 20
128.172163
 30
0.0
 10
141.972539
 20
128.200257
 30
0.0
 10
141.891264
 20
128.228313
 30
0.0
 10
141.809979
 20
128.256330
 30
0.0
 10
141.728677
 20
128.284299
 30
0.0
 10
141.647363
 20
128.312223
 30
0.0
 10
141.566033
 20
128.340092
 30
0.0
 10
141.484684
 20
128.367902
 30
0.0
 10
141.403317
 20
128.395649
 30
0.0
 10
141.321928
 20
128.423332
 30
0.0
 10
141.240521
 20
128.450942
 30
0.0
 10
141.159088
 20
128.478477
 30
0.0
 10
141.077633
 20
128.505933
 30
0.0
 10
141.015350
 20
128.526861
 30
0.0
 10
140.953046
 20
128.547737
 30
0.0
 10
140.890721
 20
128.568559
 30
0.0
 10
140.828380
 20
128.589329
 30
0.0
 10
140.766020
 20
128.610046
 30
0.0
 10
140.703645
 20
128.630710
 30
0.0
 10
140.641256
 20
128.651348
 30
0.0
 10
140.578851
 20
128.671959
 30
0.0
 10
140.516433
 20
128.692517
 30
0.0
 10
140.454005
 20
128.713048
 30
0.0
 10
140.391566
 20
128.733554
 30
0.0
 10
140.329119
 20
128.754032
 30
0.0
 10
140.266661
 20
128.774485
 30
0.0
 10
140.204199
 20
128.794937
 30
0.0
 10
140.141728
 20
128.815363
 30
0.0
 10
140.079254
 20
128.835789
 30
0.0
 10
140.016776
 20
128.856188
 30
0.0
 10
139.954297
 20
128.876587
 30
0.0
 10
139.891813
 20
128.896987
 30
0.0
 10
139.829332
 20
128.917386
 30
0.0
 10
139.766850
 20
128.937785
 30
0.0
 10
139.704372
 20
128.958185
 30
0.0
 10
139.641895
 20
128.978584
 30
0.0
 10
139.579425
 20
128.999010
 30
0.0
 10
139.516957
 20
129.019436
 30
0.0
 10
139.454496
 20
129.039888
 30
0.0
 10
139.392044
 20
129.060367
 30
0.0
 10
139.329600
 20
129.080872
 30
0.0
 10
139.267166
 20
129.101404
 30
0.0
 10
139.204746
 20
129.121962
 30
0.0
 10
139.142333
 20
129.142546
 30
0.0
 10
139.079936
 20
129.163184
 30
0.0
 10
139.017553
 20
129.183848
 30
0.0
 10
138.955185
 20
129.204565
 30
0.0
 10
138.892836
 20
129.225335
 30
0.0
 10
138.830503
 20
129.246157
 30
0.0
 10
138.768188
 20
129.267006
 30
0.0
 10
138.705895
 20
129.287935
 30
0.0
 10
138.643623
 20
129.308916
 30
0.0
 10
138.581371
 20
129.329951
 30
0.0
 10
138.519144
 20
129.351065
 30
0.0
 10
138.456943
 20
129.372231
 30
0.0
 10
138.394766
 20
129.393477
 30
0.0
 10
138.332615
 20
129.414803
 30
0.0
 10
138.270494
 20
129.436208
 30
0.0
 10
138.208401
 20
129.457692
 30
0.0
 10
138.146341
 20
129.479255
 30
0.0
 10
138.084309
 20
129.500898
 30
0.0
 10
138.022309
 20
129.522620
 30
0.0
 10
137.960344
 20
129.544449
 30
0.0
 10
137.898416
 20
129.566383
 30
0.0
 10
137.836519
 20
129.588396
 30
0.0
 10
137.774662
 20
129.610515
 30
0.0
 10
137.712845
 20
129.632740
 30
0.0
 10
137.651065
 20
129.655071
 30
0.0
 10
137.589324
 20
129.677508
 30
0.0
 10
137.527626
 20
129.700076
 30
0.0
 10
137.465970
 20
129.722751
 30
0.0
 10
137.404359
 20
129.745558
 30
0.0
 10
137.342793
 20
129.768471
 30
0.0
 10
137.281272
 20
129.791516
 30
0.0
 10
137.219799
 20
129.814694
 30
0.0
 10
137.158373
 20
129.838004
 30
0.0
 10
137.096998
 20
129.861446
 30
0.0
 10
137.070347
 20
129.871632
 30
0.0
 10
137.043544
 20
129.881845
 30
0.0
 10
137.016602
 20
129.892085
 30
0.0
 10
136.989527
 20
129.902350
 30
0.0
 10
136.962325
 20
129.912643
 30
0.0
 10
136.935004
 20
129.922961
 30
0.0
 10
136.907575
 20
129.933307
 30
0.0
 10
136.880045
 20
129.943678
 30
0.0
 10
136.852420
 20
129.954076
 30
0.0
 10
136.824710
 20
129.964501
 30
0.0
 10
136.796921
 20
129.974952
 30
0.0
 10
136.769066
 20
129.985430
 30
0.0
 10
136.741144
 20
129.995934
 30
0.0
 10
136.713172
 20
130.006464
 30
0.0
 10
136.685153
 20
130.017021
 30
0.0
 10
136.657097
 20
130.027604
 30
0.0
 10
136.629008
 20
130.038214
 30
0.0
 10
136.600902
 20
130.048850
 30
0.0
 10
136.572779
 20
130.059539
 30
0.0
 10
136.544649
 20
130.070255
 30
0.0
 10
136.516523
 20
130.080997
 30
0.0
 10
136.488406
 20
130.091766
 30
0.0
 10
136.460307
 20
130.102561
 30
0.0
 10
136.432235
 20
130.113382
 30
0.0
 10
136.404197
 20
130.124256
 30
0.0
 10
136.376199
 20
130.135157
 30
0.0
 10
136.348254
 20
130.146085
 30
0.0
 10
136.320364
 20
130.157038
 30
0.0
 10
136.292540
 20
130.168045
 30
0.0
 10
136.264791
 20
130.179078
 30
0.0
 10
136.237123
 20
130.190138
 30
0.0
 10
136.209546
 20
130.201250
 30
0.0
 10
136.182066
 20
130.212389
 30
0.0
 10
136.154692
 20
130.223555
 30
0.0
 10
136.127430
 20
130.234773
 30
0.0
 10
136.100291
 20
130.246018
 30
0.0
 10
136.073283
 20
130.257289
 30
0.0
 10
136.046409
 20
130.268613
 30
0.0
 10
136.019684
 20
130.279964
 30
0.0
 10
135.993111
 20
130.291367
 30
0.0
 10
135.966706
 20
130.302797
 30
0.0
 10
135.940459
 20
130.314280
 30
0.0
 10
135.914398
 20
130.325790
 30
0.0
 10
135.888522
 20
130.337325
 30
0.0
 10
135.862831
 20
130.348914
 30
0.0
 10
135.837351
 20
130.360529
 30
0.0
 10
135.812084
 20
130.372198
 30
0.0
 10
135.787027
 20
130.383919
 30
0.0
 10
135.762210
 20
130.395666
 30
0.0
 10
135.737603
 20
130.407466
 30
0.0
 10
135.713262
 20
130.419293
 30
0.0
 10
135.689158
 20
130.431173
 30
0.0
 10
135.665319
 20
130.443079
 30
0.0
 10
135.641745
 20
130.455039
 30
0.0
 10
135.618435
 20
130.467051
 30
0.0
 10
135.595390
 20
130.479089
 30
0.0
 10
135.572662
 20
130.491181
 30
0.0
 10
135.550225
 20
130.503325
 30
0.0
 10
135.528080
 20
130.515496
 30
0.0
 10
135.506252
 20
130.527720
 30
0.0
 10
135.484741
 20
130.539996
 30
0.0
 10
135.463574
 20
130.552326
 30
0.0
 10
135.442725
 20
130.564682
 30
0.0
 10
135.422220
 20
130.577091
 30
0.0
 10
135.401979
 20
130.589579
 30
0.0
 10
135.381897
 20
130.602120
 30
0.0
 10
135.361974
 20
130.614768
 30
0.0
 10
135.342210
 20
130.627494
 30
0.0
 10
135.322604
 20
130.640300
 30
0.0
 10
135.303157
 20
130.653185
 30
0.0
 10
135.283869
 20
130.666150
 30
0.0
 10
135.264714
 20
130.679220
 30
0.0
 10
135.245716
 20
130.692396
 30
0.0
 10
135.226878
 20
130.705652
 30
0.0
 10
135.208172
 20
130.719013
 30
0.0
 10
135.189625
 20
130.732454
 30
0.0
 10
135.171236
 20
130.746001
 30
0.0
 10
135.152980
 20
130.759653
 30
0.0
 10
135.134882
 20
130.773412
 30
0.0
 10
135.116917
 20
130.787276
 30
0.0
 10
135.099111
 20
130.801246
 30
0.0
 10
135.081437
 20
130.815322
 30
0.0
 10
135.063895
 20
130.829503
 30
0.0
 10
135.046512
 20
130.843791
 30
0.0
 10
135.029261
 20
130.858211
 30
0.0
 10
135.012142
 20
130.872736
 30
0.0
 10
134.995156
 20
130.887394
 30
0.0
 10
134.978329
 20
130.902158
 30
0.0
 10
134.961633
 20
130.917054
 30
0.0
 10
134.945070
 20
130.932056
 30
0.0
 10
134.928640
 20
130.947190
 30
0.0
 10
134.912341
 20
130.962456
 30
0.0
 10
134.896175
 20
130.977855
 30
0.0
 10
134.880142
 20
130.993386
 30
0.0
 10
134.864214
 20
131.009050
 30
0.0
 10
134.848418
 20
131.024845
 30
0.0
 10
134.832755
 20
131.040773
 30
0.0
 10
134.817224
 20
131.056833
 30
0.0
 10
134.801825
 20
131.073052
 30
0.0
 10
134.786532
 20
131.089404
 30
0.0
 10
134.771371
 20
131.105887
 30
0.0
 10
134.756317
 20
131.122529
 30
0.0
 10
134.741394
 20
131.139330
 30
0.0
 10
134.726577
 20
131.156264
 30
0.0
 10
134.711893
 20
131.173356
 30
0.0
 10
134.697315
 20
131.190607
 30
0.0
 10
134.682868
 20
131.207990
 30
0.0
 10
134.668528
 20
131.225532
 30
0.0
 10
134.654293
 20
131.243232
 30
0.0
 10
134.640191
 20
131.261092
 30
0.0
 10
134.626195
 20
131.279110
 30
0.0
 10
134.612304
 20
131.297313
 30
0.0
 10
134.598519
 20
131.315675
 30
0.0
 10
134.584840
 20
131.334196
 30
0.0
 10
134.571267
 20
131.352902
 30
0.0
 10
134.557800
 20
131.371767
 30
0.0
 10
134.544438
 20
131.390817
 30
0.0
 10
134.531183
 20
131.410026
 30
0.0
 10
134.518033
 20
131.429420
 30
0.0
 10
134.504989
 20
131.448972
 30
0.0
 10
134.492051
 20
131.468710
 30
0.0
 10
134.479219
 20
131.488633
 30
0.0
 10
134.466466
 20
131.508742
 30
0.0
 10
134.453819
 20
131.529035
 30
0.0
 10
134.441277
 20
131.549514
 30
0.0
 10
134.428815
 20
131.570178
 30
0.0
 10
134.416459
 20
131.591054
 30
0.0
 10
134.404183
 20
131.612114
 30
0.0
 10
134.397409
 20
131.624973
 30
0.0
 10
134.390662
 20
131.639975
 30
0.0
 10
134.383942
 20
131.657094
 30
0.0
 10
134.377248
 20
131.676276
 30
0.0
 10
134.370581
 20
131.697522
 30
0.0
 10
134.363940
 20
131.720752
 30
0.0
 10
134.357325
 20
131.745941
 30
0.0
 10
134.350737
 20
131.773074
 30
0.0
 10
134.344202
 20
131.802098
 30
0.0
 10
134.337693
 20
131.832983
 30
0.0
 10
134.331211
 20
131.865691
 30
0.0
 10
134.324755
 20
131.900185
 30
0.0
 10
134.318325
 20
131.936430
 30
0.0
 10
134.311922
 20
131.974387
 30
0.0
 10
134.305546
 20
132.014024
 30
0.0
 10
134.299196
 20
132.055302
 30
0.0
 10
134.292872
 20
132.098186
 30
0.0
 10
134.286575
 20
132.142638
 30
0.0
 10
134.280305
 20
132.188626
 30
0.0
 10
134.274061
 20
132.236110
 30
0.0
 10
134.267843
 20
132.285058
 30
0.0
 10
134.261652
 20
132.335430
 30
0.0
 10
134.255487
 20
132.387193
 30
0.0
 10
134.249349
 20
132.440308
 30
0.0
 10
134.243237
 20
132.494738
 30
0.0
 10
134.237125
 20
132.550451
 30
0.0
 10
134.231066
 20
132.607411
 30
0.0
 10
134.225007
 20
132.665579
 30
0.0
 10
134.218974
 20
132.724920
 30
0.0
 10
134.212968
 20
132.785396
 30
0.0
 10
134.206989
 20
132.846975
 30
0.0
 10
134.201036
 20
132.909618
 30
0.0
 10
134.195109
 20
132.973290
 30
0.0
 10
134.189209
 20
133.037954
 30
0.0
 10
134.183335
 20
133.103573
 30
0.0
 10
134.177461
 20
133.170113
 30
0.0
 10
134.171614
 20
133.237540
 30
0.0
 10
134.165793
 20
133.305813
 30
0.0
 10
134.159999
 20
133.374898
 30
0.0
 10
134.154231
 20
133.444761
 30
0.0
 10
134.148463
 20
133.515363
 30
0.0
 10
134.142721
 20
133.586668
 30
0.0
 10
134.137006
 20
133.658640
 30
0.0
 10
134.131318
 20
133.731247
 30
0.0
 10
134.125656
 20
133.804447
 30
0.0
 10
134.119994
 20
133.878207
 30
0.0
 10
134.114358
 20
133.952491
 30
0.0
 10
134.108749
 20
134.027263
 30
0.0
 10
134.103140
 20
134.102484
 30
0.0
 10
134.097557
 20
134.178123
 30
0.0
 10
134.092001
 20
134.254140
 30
0.0
 10
134.086471
 20
134.330499
 30
0.0
 10
134.080941
 20
134.407167
 30
0.0
 10
134.075438
 20
134.484106
 30
0.0
 10
134.069961
 20
134.561279
 30
0.0
 10
134.064484
 20
134.638649
 30
0.0
 10
134.059034
 20
134.716185
 30
0.0
 10
134.053610
 20
134.793845
 30
0.0
 10
134.048186
 20
134.871598
 30
0.0
 10
134.042788
 20
134.949404
 30
0.0
 10
134.037391
 20
135.027229
 30
0.0
 10
134.032020
 20
135.105035
 30
0.0
 10
134.026675
 20
135.182788
 30
0.0
 10
134.021331
 20
135.260451
 30
0.0
 10
134.076020
 20
135.260451
 30
0.0
 10
134.130707
 20
135.260451
 30
0.0
 10
134.185396
 20
135.260451
 30
0.0
 10
134.240083
 20
135.260451
 30
0.0
 10
134.294772
 20
135.260451
 30
0.0
 10
134.349459
 20
135.260451
 30
0.0
 10
134.404148
 20
135.260451
 30
0.0
 10
134.458838
 20
135.260451
 30
0.0
 10
134.513524
 20
135.260451
 30
0.0
 10
134.568214
 20
135.260451
 30
0.0
 10
134.622901
 20
135.260451
 30
0.0
 10
134.677590
 20
135.260451
 30
0.0
 10
134.732277
 20
135.260451
 30
0.0
 10
134.786966
 20
135.260451
 30
0.0
 10
134.841653
 20
135.260451
 30
0.0
 10
134.896342
 20
135.260451
 30
0.0
 10
134.951031
 20
135.260451
 30
0.0
 10
135.005718
 20
135.260451
 30
0.0
 10
135.060408
 20
135.260451
 30
0.0
 10
135.115094
 20
135.260451
 30
0.0
 10
135.169784
 20
135.260451
 30
0.0
 10
135.224470
 20
135.260451
 30
0.0
 10
135.279160
 20
135.260451
 30
0.0
 10
135.333846
 20
135.260451
 30
0.0
 10
135.388536
 20
135.260451
 30
0.0
 10
135.443225
 20
135.260451
 30
0.0
 10
135.497912
 20
135.260451
 30
0.0
 10
135.552601
 20
135.260451
 30
0.0
 10
135.607288
 20
135.260451
 30
0.0
 10
135.661977
 20
135.260451
 30
0.0
 10
135.716664
 20
135.260451
 30
0.0
 10
135.771354
 20
135.260451
 30
0.0
 10
135.826043
 20
135.260451
 30
0.0
 10
135.880730
 20
135.260451
 30
0.0
 10
135.935419
 20
135.260451
 30
0.0
 10
135.990106
 20
135.260451
 30
0.0
 10
136.044795
 20
135.260451
 30
0.0
 10
136.099482
 20
135.260451
 30
0.0
 10
136.154171
 20
135.260451
 30
0.0
 10
136.208858
 20
135.260451
 30
0.0
 10
136.263547
 20
135.260451
 30
0.0
 10
136.318237
 20
135.260451
 30
0.0
 10
136.372923
 20
135.260451
 30
0.0
 10
136.427613
 20
135.260451
 30
0.0
 10
136.482300
 20
135.260451
 30
0.0
 10
136.536989
 20
135.260451
 30
0.0
 10
136.591676
 20
135.260451
 30
0.0
 10
136.646365
 20
135.260451
 30
0.0
 10
136.701054
 20
135.260451
 30
0.0
 10
136.755741
 20
135.260451
 30
0.0
 10
136.810430
 20
135.260451
 30
0.0
 10
136.865117
 20
135.260451
 30
0.0
 10
136.919807
 20
135.260451
 30
0.0
 10
136.974493
 20
135.260451
 30
0.0
 10
137.029183
 20
135.260451
 30
0.0
 10
137.083869
 20
135.260451
 30
0.0
 10
137.138559
 20
135.260451
 30
0.0
 10
137.193248
 20
135.260451
 30
0.0
 10
137.247935
 20
135.260451
 30
0.0
 10
137.302624
 20
135.260451
 30
0.0
 10
137.357311
 20
135.260451
 30
0.0
 10
137.412000
 20
135.260451
 30
0.0
 10
137.466687
 20
135.260451
 30
0.0
 10
137.521376
 20
135.260451
 30
0.0
 10
137.770207
 20
135.263917
 30
0.0
 10
138.019992
 20
135.273628
 30
0.0
 10
138.270639
 20
135.289476
 30
0.0
 10
138.522052
 20
135.311410
 30
0.0
 10
138.774144
 20
135.339379
 30
0.0
 10
139.026816
 20
135.373304
 30
0.0
 10
139.279977
 20
135.413118
 30
0.0
 10
139.533535
 20
135.458756
 30
0.0
 10
139.787400
 20
135.510152
 30
0.0
 10
140.041472
 20
135.567238
 30
0.0
 10
140.295665
 20
135.629950
 30
0.0
 10
140.549882
 20
135.698218
 30
0.0
 10
140.804030
 20
135.771975
 30
0.0
 10
141.058017
 20
135.851160
 30
0.0
 10
141.311752
 20
135.935702
 30
0.0
 10
141.565138
 20
136.025539
 30
0.0
 10
141.818085
 20
136.120598
 30
0.0
 10
142.070501
 20
136.220817
 30
0.0
 10
142.322291
 20
136.326127
 30
0.0
 10
142.573362
 20
136.436466
 30
0.0
 10
142.823624
 20
136.551763
 30
0.0
 10
143.072980
 20
136.671953
 30
0.0
 10
143.321339
 20
136.796969
 30
0.0
 10
143.568608
 20
136.926747
 30
0.0
 10
143.814692
 20
137.061219
 30
0.0
 10
144.059503
 20
137.200315
 30
0.0
 10
144.302944
 20
137.343974
 30
0.0
 10
144.544924
 20
137.492127
 30
0.0
 10
144.785350
 20
137.644710
 30
0.0
 10
145.024126
 20
137.801652
 30
0.0
 10
145.261164
 20
137.962890
 30
0.0
 10
145.496368
 20
138.128357
 30
0.0
 10
145.729646
 20
138.297984
 30
0.0
 10
145.960902
 20
138.471710
 30
0.0
 10
146.190050
 20
138.649462
 30
0.0
 10
146.416991
 20
138.831178
 30
0.0
 10
146.641633
 20
139.016791
 30
0.0
 10
146.863885
 20
139.206233
 30
0.0
 10
147.083653
 20
139.399437
 30
0.0
 10
147.300845
 20
139.596340
 30
0.0
 10
147.515366
 20
139.796873
 30
0.0
 10
147.727125
 20
140.000970
 30
0.0
 10
147.936027
 20
140.208564
 30
0.0
 10
148.141984
 20
140.419588
 30
0.0
 10
148.344896
 20
140.633980
 30
0.0
 10
148.544677
 20
140.851666
 30
0.0
 10
148.741228
 20
141.072588
 30
0.0
 10
148.934462
 20
141.296671
 30
0.0
 10
149.124279
 20
141.523856
 30
0.0
 10
149.310593
 20
141.754072
 30
0.0
 10
149.493306
 20
141.987252
 30
0.0
 10
149.672329
 20
142.223335
 30
0.0
 10
149.847568
 20
142.462248
 30
0.0
 10
150.018928
 20
142.703929
 30
0.0
 10
150.186316
 20
142.948309
 30
0.0
 10
150.349644
 20
143.195324
 30
0.0
 10
150.508814
 20
143.444905
 30
0.0
 10
150.663733
 20
143.696987
 30
0.0
 10
150.814313
 20
143.951503
 30
0.0
 10
150.960455
 20
144.208387
 30
0.0
 10
151.102068
 20
144.467570
 30
0.0
 10
151.239064
 20
144.728992
 30
0.0
 10
151.371343
 20
144.992580
 30
0.0
 10
151.498816
 20
145.258269
 30
0.0
 10
151.561147
 20
145.390170
 30
0.0
 10
151.625560
 20
145.524409
 30
0.0
 10
151.692005
 20
145.660912
 30
0.0
 10
151.760434
 20
145.799596
 30
0.0
 10
151.830797
 20
145.940384
 30
0.0
 10
151.903044
 20
146.083195
 30
0.0
 10
151.977125
 20
146.227951
 30
0.0
 10
152.052994
 20
146.374576
 30
0.0
 10
152.130602
 20
146.522986
 30
0.0
 10
152.209897
 20
146.673105
 30
0.0
 10
152.290831
 20
146.824854
 30
0.0
 10
152.373354
 20
146.978151
 30
0.0
 10
152.457418
 20
147.132922
 30
0.0
 10
152.542973
 20
147.289081
 30
0.0
 10
152.629971
 20
147.446556
 30
0.0
 10
152.718363
 20
147.605264
 30
0.0
 10
152.808099
 20
147.765125
 30
0.0
 10
152.899129
 20
147.926063
 30
0.0
 10
152.991402
 20
148.087999
 30
0.0
 10
153.084877
 20
148.250852
 30
0.0
 10
153.179495
 20
148.414542
 30
0.0
 10
153.275213
 20
148.578994
 30
0.0
 10
153.371979
 20
148.744126
 30
0.0
 10
153.469748
 20
148.909858
 30
0.0
 10
153.568464
 20
149.076112
 30
0.0
 10
153.668082
 20
149.242810
 30
0.0
 10
153.768555
 20
149.409873
 30
0.0
 10
153.869830
 20
149.577222
 30
0.0
 10
153.971858
 20
149.744775
 30
0.0
 10
154.074591
 20
149.912457
 30
0.0
 10
154.177979
 20
150.080187
 30
0.0
 10
154.281976
 20
150.247885
 30
0.0
 10
154.386529
 20
150.415472
 30
0.0
 10
154.491590
 20
150.582874
 30
0.0
 10
154.597111
 20
150.750003
 30
0.0
 10
154.703042
 20
150.916789
 30
0.0
 10
154.809333
 20
151.083146
 30
0.0
 10
154.915937
 20
151.249000
 30
0.0
 10
155.022799
 20
151.414266
 30
0.0
 10
155.129879
 20
151.578872
 30
0.0
 10
155.237122
 20
151.742733
 30
0.0
 10
155.344479
 20
151.905775
 30
0.0
 10
155.451903
 20
152.067917
 30
0.0
 10
155.559342
 20
152.229077
 30
0.0
 10
155.666750
 20
152.389179
 30
0.0
 10
155.774073
 20
152.548143
 30
0.0
 10
155.881269
 20
152.705892
 30
0.0
 10
155.988282
 20
152.862345
 30
0.0
 10
156.095068
 20
153.017422
 30
0.0
 10
156.201576
 20
153.171046
 30
0.0
 10
156.307756
 20
153.323136
 30
0.0
 10
156.413558
 20
153.473615
 30
0.0
 10
156.518933
 20
153.622403
 30
0.0
 10
156.623835
 20
153.769420
 30
0.0
 10
156.728213
 20
153.914589
 30
0.0
 10
156.832017
 20
154.057829
 30
0.0
 10
156.935199
 20
154.199062
 30
0.0
 10
157.037710
 20
154.338209
 30
0.0
 10
157.139500
 20
154.475190
 30
0.0
 10
157.240518
 20
154.609927
 30
0.0
 10
157.340718
 20
154.742341
 30
0.0
 10
157.440051
 20
154.872352
 30
0.0
 10
157.538463
 20
154.999882
 30
0.0
 10
157.635911
 20
155.124851
 30
0.0
 10
157.841313
 20
155.387546
 30
0.0
 10
158.045010
 20
155.649516
 30
0.0
 10
158.246951
 20
155.910788
 30
0.0
 10
158.447087
 20
156.171390
 30
0.0
 10
158.645368
 20
156.431350
 30
0.0
 10
158.841745
 20
156.690695
 30
0.0
 10
159.036166
 20
156.949454
 30
0.0
 10
159.228587
 20
157.207653
 30
0.0
 10
159.418952
 20
157.465321
 30
0.0
 10
159.607213
 20
157.722486
 30
0.0
 10
159.793324
 20
157.979174
 30
0.0
 10
159.977230
 20
158.235414
 30
0.0
 10
160.158885
 20
158.491234
 30
0.0
 10
160.338241
 20
158.746661
 30
0.0
 10
160.515242
 20
159.001723
 30
0.0
 10
160.689843
 20
159.256448
 30
0.0
 10
160.861994
 20
159.510864
 30
0.0
 10
161.031645
 20
159.764997
 30
0.0
 10
161.198745
 20
160.018876
 30
0.0
 10
161.363245
 20
160.272528
 30
0.0
 10
161.525098
 20
160.525982
 30
0.0
 10
161.684251
 20
160.779265
 30
0.0
 10
161.840654
 20
161.032405
 30
0.0
 10
161.994258
 20
161.285428
 30
0.0
 10
162.145015
 20
161.538364
 30
0.0
 10
162.292874
 20
161.791240
 30
0.0
 10
162.437787
 20
162.044084
 30
0.0
 10
162.579704
 20
162.296922
 30
0.0
 10
162.718573
 20
162.549784
 30
0.0
 10
162.854344
 20
162.802696
 30
0.0
 10
162.986972
 20
163.055687
 30
0.0
 10
163.116400
 20
163.308784
 30
0.0
 10
163.242586
 20
163.562015
 30
0.0
 10
163.365477
 20
163.815407
 30
0.0
 10
163.485023
 20
164.068989
 30
0.0
 10
163.601175
 20
164.322788
 30
0.0
 10
163.713883
 20
164.576831
 30
0.0
 10
163.823095
 20
164.831147
 30
0.0
 10
163.928767
 20
165.085763
 30
0.0
 10
164.030843
 20
165.340707
 30
0.0
 10
164.129278
 20
165.596006
 30
0.0
 10
164.224020
 20
165.851689
 30
0.0
 10
164.315021
 20
166.107783
 30
0.0
 10
164.402230
 20
166.364315
 30
0.0
 10
164.485598
 20
166.621314
 30
0.0
 10
164.565076
 20
166.878807
 30
0.0
 10
164.640612
 20
167.136822
 30
0.0
 10
164.712158
 20
167.395387
 30
0.0
 10
164.779664
 20
167.654529
 30
0.0
 10
164.843079
 20
167.914276
 30
0.0
 10
164.902356
 20
168.174656
 30
0.0
 10
164.957445
 20
168.435696
 30
0.0
 10
165.008293
 20
168.697425
 30
0.0
 10
165.054854
 20
168.959869
 30
0.0
 10
165.097079
 20
169.223057
 30
0.0
 10
165.134915
 20
169.487017
 30
0.0
 10
165.168313
 20
169.751775
 30
0.0
 10
165.197224
 20
170.017360
 30
0.0
 10
165.221592
 20
170.283800
 30
0.0
 10
165.241383
 20
170.551122
 30
0.0
 10
165.256544
 20
170.819354
 30
0.0
 10
165.267021
 20
171.088524
 30
0.0
 10
165.272763
 20
171.358658
 30
0.0
 10
165.273821
 20
171.629787
 30
0.0
 10
165.271969
 20
172.011750
 30
0.0
 10
165.268900
 20
172.378391
 30
0.0
 10
165.264693
 20
172.729942
 30
0.0
 10
165.259322
 20
173.066640
 30
0.0
 10
165.252787
 20
173.388719
 30
0.0
 10
165.245061
 20
173.696413
 30
0.0
 10
165.236171
 20
173.989958
 30
0.0
 10
165.226090
 20
174.269589
 30
0.0
 10
165.214819
 20
174.535540
 30
0.0
 10
165.202330
 20
174.788047
 30
0.0
 10
165.188652
 20
175.027344
 30
0.0
 10
165.173755
 20
175.253666
 30
0.0
 10
165.157642
 20
175.467248
 30
0.0
 10
165.140286
 20
175.668325
 30
0.0
 10
165.121712
 20
175.857132
 30
0.0
 10
165.101895
 20
176.033904
 30
0.0
 10
165.080834
 20
176.198875
 30
0.0
 10
165.058529
 20
176.352281
 30
0.0
 10
165.034955
 20
176.494356
 30
0.0
 10
165.010111
 20
176.625335
 30
0.0
 10
164.983996
 20
176.745453
 30
0.0
 10
164.956607
 20
176.854946
 30
0.0
 10
164.927936
 20
176.954047
 30
0.0
 10
164.897972
 20
177.042992
 30
0.0
 10
164.866709
 20
177.122016
 30
0.0
 10
164.834144
 20
177.191353
 30
0.0
 10
164.800267
 20
177.251238
 30
0.0
 10
164.765072
 20
177.301907
 30
0.0
 10
164.728554
 20
177.343594
 30
0.0
 10
164.690706
 20
177.376534
 30
0.0
 10
164.651521
 20
177.400962
 30
0.0
 10
164.610992
 20
177.417112
 30
0.0
 10
164.569111
 20
177.425221
 30
0.0
 10
164.525876
 20
177.425522
 30
0.0
 10
164.481275
 20
177.418251
 30
0.0
 10
164.435306
 20
177.403642
 30
0.0
 10
164.387962
 20
177.381930
 30
0.0
 10
164.339233
 20
177.353350
 30
0.0
 10
164.289116
 20
177.318137
 30
0.0
 10
164.237601
 20
177.276526
 30
0.0
 10
164.184687
 20
177.228752
 30
0.0
 10
164.130363
 20
177.175049
 30
0.0
 10
164.074623
 20
177.115653
 30
0.0
 10
164.017460
 20
177.050798
 30
0.0
 10
163.958871
 20
176.980720
 30
0.0
 10
163.898845
 20
176.905653
 30
0.0
 10
163.837379
 20
176.825831
 30
0.0
 10
163.774464
 20
176.741491
 30
0.0
 10
163.710094
 20
176.652867
 30
0.0
 10
163.644263
 20
176.560193
 30
0.0
 10
163.576963
 20
176.463705
 30
0.0
 10
163.508193
 20
176.363637
 30
0.0
 10
163.437938
 20
176.260225
 30
0.0
 10
163.366199
 20
176.153703
 30
0.0
 10
163.292962
 20
176.044306
 30
0.0
 10
163.218228
 20
175.932269
 30
0.0
 10
163.141986
 20
175.817827
 30
0.0
 10
163.064233
 20
175.701214
 30
0.0
 10
162.984955
 20
175.582666
 30
0.0
 10
162.904154
 20
175.462418
 30
0.0
 10
162.821821
 20
175.340704
 30
0.0
 10
162.737946
 20
175.217760
 30
0.0
 10
162.652528
 20
175.093819
 30
0.0
 10
162.565554
 20
174.969118
 30
0.0
 10
162.494519
 20
174.859998
 30
0.0
 10
162.419970
 20
174.748923
 30
0.0
 10
162.341973
 20
174.635958
 30
0.0
 10
162.260603
 20
174.521169
 30
0.0
 10
162.175926
 20
174.404621
 30
0.0
 10
162.088013
 20
174.286379
 30
0.0
 10
161.996935
 20
174.166511
 30
0.0
 10
161.902759
 20
174.045080
 30
0.0
 10
161.805559
 20
173.922154
 30
0.0
 10
161.705401
 20
173.797797
 30
0.0
 10
161.602359
 20
173.672075
 30
0.0
 10
161.496497
 20
173.545054
 30
0.0
 10
161.387891
 20
173.416799
 30
0.0
 10
161.276607
 20
173.287376
 30
0.0
 10
161.162717
 20
173.156851
 30
0.0
 10
161.046287
 20
173.025289
 30
0.0
 10
160.927394
 20
172.892756
 30
0.0
 10
160.806101
 20
172.759317
 30
0.0
 10
160.682480
 20
172.625038
 30
0.0
 10
160.556602
 20
172.489986
 30
0.0
 10
160.428535
 20
172.354224
 30
0.0
 10
160.298353
 20
172.217820
 30
0.0
 10
160.166122
 20
172.080838
 30
0.0
 10
160.031912
 20
171.943344
 30
0.0
 10
159.895794
 20
171.805405
 30
0.0
 10
159.757838
 20
171.667085
 30
0.0
 10
159.618114
 20
171.528450
 30
0.0
 10
159.476692
 20
171.389565
 30
0.0
 10
159.333639
 20
171.250497
 30
0.0
 10
159.189029
 20
171.111311
 30
0.0
 10
159.042928
 20
170.972073
 30
0.0
 10
158.895407
 20
170.832848
 30
0.0
 10
158.746540
 20
170.693702
 30
0.0
 10
158.596391
 20
170.554701
 30
0.0
 10
158.445034
 20
170.415909
 30
0.0
 10
158.292538
 20
170.277394
 30
0.0
 10
158.138972
 20
170.139219
 30
0.0
 10
157.984405
 20
170.001452
 30
0.0
 10
157.828906
 20
169.864158
 30
0.0
 10
157.672551
 20
169.727401
 30
0.0
 10
157.515404
 20
169.591249
 30
0.0
 10
157.357535
 20
169.455766
 30
0.0
 10
157.199018
 20
169.321019
 30
0.0
 10
157.039919
 20
169.187072
 30
0.0
 10
156.880309
 20
169.053992
 30
0.0
 10
156.720257
 20
168.921843
 30
0.0
 10
156.559838
 20
168.790693
 30
0.0
 10
156.399114
 20
168.660605
 30
0.0
 10
156.238160
 20
168.531647
 30
0.0
 10
156.077045
 20
168.403883
 30
0.0
 10
155.915837
 20
168.277380
 30
0.0
 10
155.754607
 20
168.152202
 30
0.0
 10
155.593429
 20
168.028416
 30
0.0
 10
155.432366
 20
167.906086
 30
0.0
 10
155.271492
 20
167.785280
 30
0.0
 10
155.110874
 20
167.666061
 30
0.0
 10
154.950584
 20
167.548497
 30
0.0
 10
154.790693
 20
167.432652
 30
0.0
 10
154.631269
 20
167.318593
 30
0.0
 10
154.472381
 20
167.206384
 30
0.0
 10
154.314102
 20
167.096092
 30
0.0
 10
154.156498
 20
166.987782
 30
0.0
 10
153.999642
 20
166.881519
 30
0.0
 10
153.843604
 20
166.777370
 30
0.0
 10
153.580669
 20
166.603596
 30
0.0
 10
153.324089
 20
166.434912
 30
0.0
 10
153.073513
 20
166.271243
 30
0.0
 10
152.828594
 20
166.112514
 30
0.0
 10
152.588974
 20
165.958649
 30
0.0
 10
152.354304
 20
165.809573
 30
0.0
 10
152.124236
 20
165.665210
 30
0.0
 10
151.898417
 20
165.525486
 30
0.0
 10
151.676492
 20
165.390325
 30
0.0
 10
151.458113
 20
165.259651
 30
0.0
 10
151.242927
 20
165.133390
 30
0.0
 10
151.030583
 20
165.011466
 30
0.0
 10
150.820729
 20
164.893804
 30
0.0
 10
150.613015
 20
164.780327
 30
0.0
 10
150.407090
 20
164.670962
 30
0.0
 10
150.202601
 20
164.565633
 30
0.0
 10
149.999198
 20
164.464265
 30
0.0
 10
149.796527
 20
164.366781
 30
0.0
 10
149.594240
 20
164.273107
 30
0.0
 10
149.391982
 20
164.183168
 30
0.0
 10
149.189403
 20
164.096888
 30
0.0
 10
148.986153
 20
164.014191
 30
0.0
 10
148.781879
 20
163.935004
 30
0.0
 10
148.576229
 20
163.859249
 30
0.0
 10
148.368854
 20
163.786853
 30
0.0
 10
148.159402
 20
163.717739
 30
0.0
 10
147.947518
 20
163.651832
 30
0.0
 10
147.732856
 20
163.589058
 30
0.0
 10
147.515062
 20
163.529340
 30
0.0
 10
147.293783
 20
163.472603
 30
0.0
 10
147.068670
 20
163.418772
 30
0.0
 10
146.839369
 20
163.367772
 30
0.0
 10
146.605533
 20
163.319527
 30
0.0
 10
146.366805
 20
163.273963
 30
0.0
 10
146.122838
 20
163.231003
 30
0.0
 10
145.873277
 20
163.190573
 30
0.0
 10
145.617775
 20
163.152596
 30
0.0
 10
145.355975
 20
163.116999
 30
0.0
 10
145.087531
 20
163.083705
 30
0.0
 10
144.812089
 20
163.052639
 30
0.0
 10
144.529297
 20
163.023726
 30
0.0
 10
144.238806
 20
162.996890
 30
0.0
 10
143.940261
 20
162.972056
 30
0.0
 10
143.633312
 20
162.949151
 30
0.0
 10
143.317609
 20
162.928096
 30
0.0
 10
142.992801
 20
162.908818
 30
0.0
 10
142.658534
 20
162.891239
 30
0.0
 10
142.314457
 20
162.875288
 30
0.0
 10
141.960220
 20
162.860886
 30
0.0
 10
141.595470
 20
162.847959
 30
0.0
 10
141.219857
 20
162.836431
 30
0.0
 10
140.833031
 20
162.826229
 30
0.0
 10
140.434637
 20
162.817275
 30
0.0
 10
140.024324
 20
162.809496
 30
0.0
 10
139.601745
 20
162.802816
 30
0.0
 10
139.166542
 20
162.797156
 30
0.0
 10
138.718367
 20
162.792447
 30
0.0
 10
138.256871
 20
162.788608
 30
0.0
 10
137.781697
 20
162.785568
 30
0.0
 10
137.292499
 20
162.783239
 30
0.0
 10
136.788923
 20
162.781572
 30
0.0
 10
136.270617
 20
162.780461
 30
0.0
 10
135.737230
 20
162.779853
 30
0.0
 10
135.188413
 20
162.779667
 30
0.0
 10
134.581459
 20
162.780435
 30
0.0
 10
133.990938
 20
162.782763
 30
0.0
 10
133.416623
 20
162.786718
 30
0.0
 10
132.858278
 20
162.792359
 30
0.0
 10
132.315678
 20
162.799744
 30
0.0
 10
131.788589
 20
162.808930
 30
0.0
 10
131.276779
 20
162.819979
 30
0.0
 10
130.780021
 20
162.832949
 30
0.0
 10
130.298082
 20
162.847898
 30
0.0
 10
129.830735
 20
162.864884
 30
0.0
 10
129.377745
 20
162.883969
 30
0.0
 10
128.938883
 20
162.905209
 30
0.0
 10
128.513920
 20
162.928667
 30
0.0
 10
128.102625
 20
162.954398
 30
0.0
 10
127.704766
 20
162.982463
 30
0.0
 10
127.320112
 20
163.012920
 30
0.0
 10
126.948436
 20
163.045828
 30
0.0
 10
126.589505
 20
163.081247
 30
0.0
 10
126.243086
 20
163.119235
 30
0.0
 10
125.908952
 20
163.159852
 30
0.0
 10
125.586872
 20
163.203156
 30
0.0
 10
125.276616
 20
163.249206
 30
0.0
 10
124.977949
 20
163.298062
 30
0.0
 10
124.690646
 20
163.349781
 30
0.0
 10
124.414474
 20
163.404425
 30
0.0
 10
124.149203
 20
163.462050
 30
0.0
 10
123.894602
 20
163.522717
 30
0.0
 10
123.650442
 20
163.586484
 30
0.0
 10
123.416489
 20
163.653410
 30
0.0
 10
123.192514
 20
163.723554
 30
0.0
 10
122.978287
 20
163.796976
 30
0.0
 10
122.773578
 20
163.873734
 30
0.0
 10
122.578157
 20
163.953887
 30
0.0
 10
122.391790
 20
164.037494
 30
0.0
 10
122.214249
 20
164.124614
 30
0.0
 10
122.045305
 20
164.215306
 30
0.0
 10
121.884724
 20
164.309630
 30
0.0
 10
121.732279
 20
164.407643
 30
0.0
 10
121.587734
 20
164.509406
 30
0.0
 10
121.450866
 20
164.614976
 30
0.0
 10
121.321437
 20
164.724414
 30
0.0
 10
121.199220
 20
164.837777
 30
0.0
 10
121.083986
 20
164.955126
 30
0.0
 10
120.975502
 20
165.076519
 30
0.0
 10
120.873539
 20
165.202014
 30
0.0
 10
120.777863
 20
165.331672
 30
0.0
 10
120.688249
 20
165.465550
 30
0.0
 10
120.604463
 20
165.603708
 30
0.0
 10
120.526274
 20
165.746206
 30
0.0
 10
120.453453
 20
165.893101
 30
0.0
 10
120.385769
 20
166.044453
 30
0.0
 10
120.322989
 20
166.200320
 30
0.0
 10
120.264887
 20
166.360763
 30
0.0
 10
120.211229
 20
166.525840
 30
0.0
 10
120.161786
 20
166.695609
 30
0.0
 10
120.116328
 20
166.870130
 30
0.0
 10
120.074622
 20
167.049462
 30
0.0
 10
120.036440
 20
167.233663
 30
0.0
 10
120.001552
 20
167.422793
 30
0.0
 10
119.969723
 20
167.616912
 30
0.0
 10
119.940727
 20
167.816076
 30
0.0
 10
119.914322
 20
168.020346
 30
0.0
 10
119.890297
 20
168.229782
 30
0.0
 10
119.868416
 20
168.444440
 30
0.0
 10
119.859262
 20
168.534955
 30
0.0
 10
119.849419
 20
168.622960
 30
0.0
 10
119.838915
 20
168.708464
 30
0.0
 10
119.827697
 20
168.791474
 30
0.0
 10
119.815791
 20
168.871998
 30
0.0
 10
119.803197
 20
168.950043
 30
0.0
 10
119.789888
 20
169.025616
 30
0.0
 10
119.775865
 20
169.098727
 30
0.0
 10
119.761128
 20
169.169381
 30
0.0
 10
119.745650
 20
169.237587
 30
0.0
 10
119.729431
 20
169.303352
 30
0.0
 10
119.712497
 20
169.366684
 30
0.0
 10
119.694797
 20
169.427591
 30
0.0
 10
119.676355
 20
169.486079
 30
0.0
 10
119.657147
 20
169.542157
 30
0.0
 10
119.637171
 20
169.595833
 30
0.0
 10
119.616427
 20
169.647113
 30
0.0
 10
119.594917
 20
169.696006
 30
0.0
 10
119.572612
 20
169.742519
 30
0.0
 10
119.549514
 20
169.786659
 30
0.0
 10
119.525622
 20
169.828435
 30
0.0
 10
119.500937
 20
169.867853
 30
0.0
 10
119.475431
 20
169.904922
 30
0.0
 10
119.449105
 20
169.939649
 30
0.0
 10
119.421964
 20
169.972042
 30
0.0
 10
119.393989
 20
170.002108
 30
0.0
 10
119.365184
 20
170.029854
 30
0.0
 10
119.335532
 20
170.055289
 30
0.0
 10
119.305037
 20
170.078421
 30
0.0
 10
119.273683
 20
170.099255
 30
0.0
 10
119.241470
 20
170.117802
 30
0.0
 10
119.208387
 20
170.134066
 30
0.0
 10
119.174433
 20
170.148057
 30
0.0
 10
119.139598
 20
170.159783
 30
0.0
 10
119.103876
 20
170.169250
 30
0.0
 10
119.067261
 20
170.176465
 30
0.0
 10
119.029748
 20
170.181437
 30
0.0
 10
118.991328
 20
170.184175
 30
0.0
 10
118.951995
 20
170.184678
 30
0.0
 10
118.911744
 20
170.182958
 30
0.0
 10
118.870570
 20
170.179034
 30
0.0
 10
118.828461
 20
170.172904
 30
0.0
 10
118.785416
 20
170.164578
 30
0.0
 10
118.741429
 20
170.154060
 30
0.0
 10
118.696490
 20
170.141360
 30
0.0
 10
118.650592
 20
170.126485
 30
0.0
 10
118.603732
 20
170.109444
 30
0.0
 10
118.555903
 20
170.090243
 30
0.0
 10
118.507098
 20
170.068891
 30
0.0
 10
118.457312
 20
170.045393
 30
0.0
 10
118.406535
 20
170.019758
 30
0.0
 10
118.354764
 20
169.991995
 30
0.0
 10
118.301991
 20
169.962110
 30
0.0
 10
118.248209
 20
169.930111
 30
0.0
 10
118.193413
 20
169.896005
 30
0.0
 10
118.137597
 20
169.859801
 30
0.0
 10
118.080754
 20
169.821505
 30
0.0
 10
118.022876
 20
169.781126
 30
0.0
 10
117.963959
 20
169.738671
 30
0.0
 10
117.903996
 20
169.694148
 30
0.0
 10
117.842981
 20
169.647563
 30
0.0
 10
117.780904
 20
169.598925
 30
0.0
 10
117.717764
 20
169.548242
 30
0.0
 10
117.653552
 20
169.495521
 30
0.0
 10
117.543536
 20
169.410947
 30
0.0
 10
117.426632
 20
169.333928
 30
0.0
 10
117.303069
 20
169.264356
 30
0.0
 10
117.173072
 20
169.202126
 30
0.0
 10
117.036864
 20
169.147132
 30
0.0
 10
116.894677
 20
169.099268
 30
0.0
 10
116.746733
 20
169.058428
 30
0.0
 10
116.593258
 20
169.024506
 30
0.0
 10
116.434479
 20
168.997396
 30
0.0
 10
116.270623
 20
168.976991
 30
0.0
 10
116.101914
 20
168.963188
 30
0.0
 10
115.928578
 20
168.955878
 30
0.0
 10
115.750841
 20
168.954952
 30
0.0
 10
115.568932
 20
168.960309
 30
0.0
 10
115.383073
 20
168.971843
 30
0.0
 10
115.193491
 20
168.989448
 30
0.0
 10
115.000414
 20
169.013017
 30
0.0
 10
114.804067
 20
169.042443
 30
0.0
 10
114.604674
 20
169.077621
 30
0.0
 10
114.402464
 20
169.118444
 30
0.0
 10
114.197660
 20
169.164807
 30
0.0
 10
113.990489
 20
169.216604
 30
0.0
 10
113.781177
 20
169.273728
 30
0.0
 10
113.569952
 20
169.336074
 30
0.0
 10
113.357039
 20
169.403536
 30
0.0
 10
113.142663
 20
169.476007
 30
0.0
 10
112.927049
 20
169.553382
 30
0.0
 10
112.710427
 20
169.635555
 30
0.0
 10
112.493016
 20
169.722419
 30
0.0
 10
112.275050
 20
169.813869
 30
0.0
 10
112.056750
 20
169.909799
 30
0.0
 10
111.838344
 20
170.010102
 30
0.0
 10
111.620055
 20
170.114672
 30
0.0
 10
111.402112
 20
170.223405
 30
0.0
 10
111.184741
 20
170.336192
 30
0.0
 10
110.968167
 20
170.452930
 30
0.0
 10
110.752616
 20
170.573510
 30
0.0
 10
110.538314
 20
170.697829
 30
0.0
 10
110.325488
 20
170.825778
 30
0.0
 10
110.114364
 20
170.957254
 30
0.0
 10
109.905163
 20
171.092148
 30
0.0
 10
109.698119
 20
171.230357
 30
0.0
 10
109.493453
 20
171.371772
 30
0.0
 10
109.291391
 20
171.516289
 30
0.0
 10
109.092160
 20
171.663802
 30
0.0
 10
108.895987
 20
171.814204
 30
0.0
 10
108.703095
 20
171.967389
 30
0.0
 10
108.513714
 20
172.123252
 30
0.0
 10
108.328067
 20
172.281686
 30
0.0
 10
108.146380
 20
172.442585
 30
0.0
 10
107.968882
 20
172.605844
 30
0.0
 10
107.795794
 20
172.771356
 30
0.0
 10
107.627347
 20
172.939015
 30
0.0
 10
107.463763
 20
173.108716
 30
0.0
 10
107.305272
 20
173.280352
 30
0.0
 10
107.152097
 20
173.453817
 30
0.0
 10
107.004465
 20
173.629006
 30
0.0
 10
106.862601
 20
173.805811
 30
0.0
 10
106.726729
 20
173.984129
 30
0.0
 10
106.597081
 20
174.163851
 30
0.0
 10
106.473880
 20
174.344872
 30
0.0
 10
106.357350
 20
174.527087
 30
0.0
 10
106.247720
 20
174.710389
 30
0.0
 10
106.145212
 20
174.894672
 30
0.0
 10
106.080122
 20
175.009305
 30
0.0
 10
106.016736
 20
175.120290
 30
0.0
 10
105.955003
 20
175.227622
 30
0.0
 10
105.894869
 20
175.331299
 30
0.0
 10
105.836271
 20
175.431316
 30
0.0
 10
105.779164
 20
175.527671
 30
0.0
 10
105.723485
 20
175.620361
 30
0.0
 10
105.669184
 20
175.709382
 30
0.0
 10
105.616204
 20
175.794730
 30
0.0
 10
105.564489
 20
175.876403
 30
0.0
 10
105.513985
 20
175.954397
 30
0.0
 10
105.464638
 20
176.028709
 30
0.0
 10
105.416391
 20
176.099336
 30
0.0
 10
105.369192
 20
176.166273
 30
0.0
 10
105.322982
 20
176.229519
 30
0.0
 10
105.277707
 20
176.289069
 30
0.0
 10
105.233315
 20
176.344919
 30
0.0
 10
105.189749
 20
176.397069
 30
0.0
 10
105.146950
 20
176.445512
 30
0.0
 10
105.104870
 20
176.490247
 30
0.0
 10
105.063450
 20
176.531270
 30
0.0
 10
105.022635
 20
176.568577
 30
0.0
 10
104.982371
 20
176.602166
 30
0.0
 10
104.942601
 20
176.632033
 30
0.0
 10
104.903274
 20
176.658174
 30
0.0
 10
104.864332
 20
176.680587
 30
0.0
 10
104.825719
 20
176.699267
 30
0.0
 10
104.787381
 20
176.714213
 30
0.0
 10
104.749265
 20
176.725420
 30
0.0
 10
104.711313
 20
176.732885
 30
0.0
 10
104.673473
 20
176.736604
 30
0.0
 10
104.635687
 20
176.736575
 30
0.0
 10
104.597900
 20
176.732795
 30
0.0
 10
104.560059
 20
176.725258
 30
0.0
 10
104.522107
 20
176.713964
 30
0.0
 10
104.483991
 20
176.698907
 30
0.0
 10
104.445656
 20
176.680086
 30
0.0
 10
104.407045
 20
176.657496
 30
0.0
 10
104.368104
 20
176.631134
 30
0.0
 10
104.328779
 20
176.600997
 30
0.0
 10
104.289012
 20
176.567081
 30
0.0
 10
104.248748
 20
176.529384
 30
0.0
 10
104.207936
 20
176.487902
 30
0.0
 10
104.166518
 20
176.442631
 30
0.0
 10
104.124441
 20
176.393569
 30
0.0
 10
104.081647
 20
176.340711
 30
0.0
 10
104.038084
 20
176.284056
 30
0.0
 10
103.993694
 20
176.223598
 30
0.0
 10
103.948424
 20
176.159336
 30
0.0
 10
103.902217
 20
176.091265
 30
0.0
 10
103.855021
 20
176.019382
 30
0.0
 10
103.806780
 20
175.943685
 30
0.0
 10
103.757437
 20
175.864169
 30
0.0
 10
103.706939
 20
175.780832
 30
0.0
 10
103.655229
 20
175.693670
 30
0.0
 10
103.602254
 20
175.602679
 30
0.0
 10
103.547956
 20
175.507858
 30
0.0
 10
103.492285
 20
175.409201
 30
0.0
 10
103.435180
 20
175.306706
 30
0.0
 10
103.376591
 20
175.200369
 30
0.0
 10
103.316462
 20
175.090188
 30
0.0
 10
103.254734
 20
174.976159
 30
0.0
 10
103.191359
 20
174.858277
 30
0.0
 10
103.126274
 20
174.736542
 30
0.0
 10
103.020253
 20
174.544693
 30
0.0
 10
102.908495
 20
174.354466
 30
0.0
 10
102.791182
 20
174.165950
 30
0.0
 10
102.668500
 20
173.979235
 30
0.0
 10
102.540627
 20
173.794410
 30
0.0
 10
102.407750
 20
173.611566
 30
0.0
 10
102.270048
 20
173.430792
 30
0.0
 10
102.127710
 20
173.252178
 30
0.0
 10
101.980911
 20
173.075814
 30
0.0
 10
101.829839
 20
172.901789
 30
0.0
 10
101.674677
 20
172.730194
 30
0.0
 10
101.515604
 20
172.561117
 30
0.0
 10
101.352806
 20
172.394649
 30
0.0
 10
101.186465
 20
172.230879
 30
0.0
 10
101.016764
 20
172.069898
 30
0.0
 10
100.843888
 20
171.911795
 30
0.0
 10
100.668014
 20
171.756659
 30
0.0
 10
100.489331
 20
171.604581
 30
0.0
 10
100.308020
 20
171.455650
 30
0.0
 10
100.124261
 20
171.309956
 30
0.0
 10
99.938241
 20
171.167589
 30
0.0
 10
99.750138
 20
171.028639
 30
0.0
 10
99.560140
 20
170.893195
 30
0.0
 10
99.368426
 20
170.761346
 30
0.0
 10
99.175182
 20
170.633184
 30
0.0
 10
98.980589
 20
170.508797
 30
0.0
 10
98.784829
 20
170.388275
 30
0.0
 10
98.588085
 20
170.271709
 30
0.0
 10
98.390542
 20
170.159187
 30
0.0
 10
98.192382
 20
170.050800
 30
0.0
 10
97.993789
 20
169.946637
 30
0.0
 10
97.794941
 20
169.846789
 30
0.0
 10
97.596025
 20
169.751344
 30
0.0
 10
97.397225
 20
169.660393
 30
0.0
 10
97.198721
 20
169.574025
 30
0.0
 10
97.000694
 20
169.492330
 30
0.0
 10
96.803333
 20
169.415399
 30
0.0
 10
96.606814
 20
169.343319
 30
0.0
 10
96.411326
 20
169.276183
 30
0.0
 10
96.217048
 20
169.214078
 30
0.0
 10
96.024164
 20
169.157095
 30
0.0
 10
95.832857
 20
169.105324
 30
0.0
 10
95.643310
 20
169.058855
 30
0.0
 10
95.455704
 20
169.017776
 30
0.0
 10
95.270223
 20
168.982178
 30
0.0
 10
95.087050
 20
168.952152
 30
0.0
 10
94.906371
 20
168.927786
 30
0.0
 10
94.728362
 20
168.909170
 30
0.0
 10
94.553210
 20
168.896393
 30
0.0
 10
94.381102
 20
168.889546
 30
0.0
 10
94.212210
 20
168.888726
 30
0.0
 10
94.046727
 20
168.894007
 30
0.0
 10
93.884831
 20
168.905487
 30
0.0
 10
93.726708
 20
168.923256
 30
0.0
 10
93.572535
 20
168.947405
 30
0.0
 10
93.422500
 20
168.978022
 30
0.0
 10
93.276784
 20
169.015196
 30
0.0
 10
93.135573
 20
169.059019
 30
0.0
 10
92.999043
 20
169.109579
 30
0.0
 10
92.867383
 20
169.166966
 30
0.0
 10
92.740775
 20
169.231271
 30
0.0
 10
92.619397
 20
169.302582
 30
0.0
 10
92.503438
 20
169.380990
 30
0.0
 10
92.393078
 20
169.466584
 30
0.0
 10
92.330115
 20
169.518374
 30
0.0
 10
92.268277
 20
169.568290
 30
0.0
 10
92.207547
 20
169.616328
 30
0.0
 10
92.147907
 20
169.662482
 30
0.0
 10
92.089347
 20
169.706750
 30
0.0
 10
92.031842
 20
169.749127
 30
0.0
 10
91.975380
 20
169.789608
 30
0.0
 10
91.919948
 20
169.828189
 30
0.0
 10
91.865523
 20
169.864866
 30
0.0
 10
91.812093
 20
169.899635
 30
0.0
 10
91.759639
 20
169.932490
 30
0.0
 10
91.708146
 20
169.963429
 30
0.0
 10
91.657600
 20
169.992447
 30
0.0
 10
91.607980
 20
170.019539
 30
0.0
 10
91.559270
 20
170.044701
 30
0.0
 10
91.511460
 20
170.067929
 30
0.0
 10
91.464526
 20
170.089220
 30
0.0
 10
91.418456
 20
170.108566
 30
0.0
 10
91.373231
 20
170.125968
 30
0.0
 10
91.328837
 20
170.141417
 30
0.0
 10
91.285257
 20
170.154911
 30
0.0
 10
91.242474
 20
170.166444
 30
0.0
 10
91.200471
 20
170.176014
 30
0.0
 10
91.159236
 20
170.183616
 30
0.0
 10
91.118744
 20
170.189246
 30
0.0
 10
91.078988
 20
170.192900
 30
0.0
 10
91.039946
 20
170.194567
 30
0.0
 10
91.001603
 20
170.194249
 30
0.0
 10
90.963942
 20
170.191947
 30
0.0
 10
90.926948
 20
170.187650
 30
0.0
 10
90.890605
 20
170.181356
 30
0.0
 10
90.854894
 20
170.173059
 30
0.0
 10
90.819802
 20
170.162756
 30
0.0
 10
90.785308
 20
170.150442
 30
0.0
 10
90.751402
 20
170.136112
 30
0.0
 10
90.718062
 20
170.119764
 30
0.0
 10
90.685275
 20
170.101391
 30
0.0
 10
90.653022
 20
170.080992
 30
0.0
 10
90.621288
 20
170.058558
 30
0.0
 10
90.590059
 20
170.034089
 30
0.0
 10
90.559315
 20
170.007578
 30
0.0
 10
90.529041
 20
169.979023
 30
0.0
 10
90.499220
 20
169.948418
 30
0.0
 10
90.469835
 20
169.915760
 30
0.0
 10
90.440874
 20
169.881044
 30
0.0
 10
90.412315
 20
169.844265
 30
0.0
 10
90.384147
 20
169.805420
 30
0.0
 10
90.356347
 20
169.764504
 30
0.0
 10
90.328905
 20
169.721514
 30
0.0
 10
90.301801
 20
169.676444
 30
0.0
 10
90.275020
 20
169.629290
 30
0.0
 10
90.248546
 20
169.580049
 30
0.0
 10
90.222352
 20
169.528715
 30
0.0
 10
90.196449
 20
169.475285
 30
0.0
 10
90.170784
 20
169.419755
 30
0.0
 10
90.145384
 20
169.362120
 30
0.0
 10
90.120196
 20
169.302375
 30
0.0
 10
90.095219
 20
169.240517
 30
0.0
 10
90.070428
 20
169.176542
 30
0.0
 10
90.045822
 20
169.110444
 30
0.0
 10
90.021374
 20
169.042220
 30
0.0
 10
89.997059
 20
168.971866
 30
0.0
 10
89.972876
 20
168.899377
 30
0.0
 10
89.948799
 20
168.824749
 30
0.0
 10
89.931363
 20
168.769770
 30
0.0
 10
89.913609
 20
168.713839
 30
0.0
 10
89.895565
 20
168.656986
 30
0.0
 10
89.877256
 20
168.599246
 30
0.0
 10
89.858682
 20
168.540650
 30
0.0
 10
89.839844
 20
168.481232
 30
0.0
 10
89.820767
 20
168.421023
 30
0.0
 10
89.801453
 20
168.360058
 30
0.0
 10
89.781926
 20
168.298367
 30
0.0
 10
89.762188
 20
168.235985
 30
0.0
 10
89.742239
 20
168.172944
 30
0.0
 10
89.722104
 20
168.109276
 30
0.0
 10
89.701784
 20
168.045014
 30
0.0
 10
89.681279
 20
167.980191
 30
0.0
 10
89.660615
 20
167.914839
 30
0.0
 10
89.639792
 20
167.848991
 30
0.0
 10
89.618837
 20
167.782680
 30
0.0
 10
89.597750
 20
167.715938
 30
0.0
 10
89.576530
 20
167.648799
 30
0.0
 10
89.555205
 20
167.581294
 30
0.0
 10
89.533774
 20
167.513456
 30
0.0
 10
89.512263
 20
167.445319
 30
0.0
 10
89.490673
 20
167.376914
 30
0.0
 10
89.469004
 20
167.308275
 30
0.0
 10
89.447281
 20
167.239434
 30
0.0
 10
89.425506
 20
167.170424
 30
0.0
 10
89.403705
 20
167.101277
 30
0.0
 10
89.381876
 20
167.032026
 30
0.0
 10
89.360022
 20
166.962705
 30
0.0
 10
89.338167
 20
166.893344
 30
0.0
 10
89.316313
 20
166.823977
 30
0.0
 10
89.294458
 20
166.754638
 30
0.0
 10
89.272630
 20
166.685358
 30
0.0
 10
89.250828
 20
166.616170
 30
0.0
 10
89.229080
 20
166.547107
 30
0.0
 10
89.207384
 20
166.478201
 30
0.0
 10
89.185741
 20
166.409485
 30
0.0
 10
89.164177
 20
166.340992
 30
0.0
 10
89.142720
 20
166.272755
 30
0.0
 10
89.121341
 20
166.204806
 30
0.0
 10
89.100069
 20
166.137178
 30
0.0
 10
89.078902
 20
166.069902
 30
0.0
 10
89.057868
 20
166.003014
 30
0.0
 10
89.036966
 20
165.936544
 30
0.0
 10
89.016222
 20
165.870525
 30
0.0
 10
88.995638
 20
165.804991
 30
0.0
 10
88.975212
 20
165.739974
 30
0.0
 10
88.954971
 20
165.675506
 30
0.0
 10
88.934916
 20
165.611620
 30
0.0
 10
88.915046
 20
165.548349
 30
0.0
 10
88.895387
 20
165.485726
 30
0.0
 10
88.875940
 20
165.423783
 30
0.0
 10
88.856731
 20
165.362553
 30
0.0
 10
88.837761
 20
165.302068
 30
0.0
 10
88.819055
 20
165.242361
 30
0.0
 10
88.800587
 20
165.183466
 30
0.0
 10
88.782410
 20
165.125414
 30
0.0
 10
88.764498
 20
165.068237
 30
0.0
 10
88.746876
 20
165.011970
 30
0.0
 10
88.729573
 20
164.956645
 30
0.0
 10
88.712560
 20
164.902294
 30
0.0
 10
88.695891
 20
164.848949
 30
0.0
 10
88.679540
 20
164.796644
 30
0.0
 10
88.663533
 20
164.745412
 30
0.0
 10
88.638953
 20
164.672774
 30
0.0
 10
88.611076
 20
164.601832
 30
0.0
 10
88.579776
 20
164.532569
 30
0.0
 10
88.544936
 20
164.464966
 30
0.0
 10
88.506436
 20
164.399006
 30
0.0
 10
88.464159
 20
164.334672
 30
0.0
 10
88.417986
 20
164.271945
 30
0.0
 10
88.367800
 20
164.210808
 30
0.0
 10
88.313481
 20
164.151244
 30
0.0
 10
88.254913
 20
164.093234
 30
0.0
 10
88.191976
 20
164.036761
 30
0.0
 10
88.124553
 20
163.981808
 30
0.0
 10
88.052525
 20
163.928356
 30
0.0
 10
87.975775
 20
163.876389
 30
0.0
 10
87.894183
 20
163.825887
 30
0.0
 10
87.807629
 20
163.776834
 30
0.0
 10
87.716002
 20
163.729213
 30
0.0
 10
87.619177
 20
163.683004
 30
0.0
 10
87.517038
 20
163.638192
 30
0.0
 10
87.409469
 20
163.594757
 30
0.0
 10
87.296349
 20
163.552682
 30
0.0
 10
87.177559
 20
163.511951
 30
0.0
 10
87.052985
 20
163.472544
 30
0.0
 10
86.922503
 20
163.434445
 30
0.0
 10
86.786002
 20
163.397635
 30
0.0
 10
86.643357
 20
163.362097
 30
0.0
 10
86.494455
 20
163.327813
 30
0.0
 10
86.339173
 20
163.294767
 30
0.0
 10
86.177397
 20
163.262939
 30
0.0
 10
86.009005
 20
163.232312
 30
0.0
 10
85.833883
 20
163.202869
 30
0.0
 10
85.651910
 20
163.174592
 30
0.0
 10
85.462969
 20
163.147463
 30
0.0
 10
85.266942
 20
163.121465
 30
0.0
 10
85.063710
 20
163.096581
 30
0.0
 10
84.853154
 20
163.072793
 30
0.0
 10
84.635159
 20
163.050081
 30
0.0
 10
84.409602
 20
163.028427
 30
0.0
 10
84.176369
 20
163.007816
 30
0.0
 10
83.935339
 20
162.988232
 30
0.0
 10
83.686395
 20
162.969653
 30
0.0
 10
83.429421
 20
162.952063
 30
0.0
 10
83.164295
 20
162.935445
 30
0.0
 10
82.890901
 20
162.919782
 30
0.0
 10
82.609120
 20
162.905055
 30
0.0
 10
82.318835
 20
162.891246
 30
0.0
 10
82.019927
 20
162.878340
 30
0.0
 10
81.712278
 20
162.866315
 30
0.0
 10
81.395767
 20
162.855157
 30
0.0
 10
81.070282
 20
162.844846
 30
0.0
 10
80.735698
 20
162.835366
 30
0.0
 10
80.391904
 20
162.826698
 30
0.0
 10
80.038775
 20
162.818824
 30
0.0
 10
79.676195
 20
162.811728
 30
0.0
 10
79.304048
 20
162.805392
 30
0.0
 10
78.922215
 20
162.799798
 30
0.0
 10
78.530576
 20
162.794927
 30
0.0
 10
78.129012
 20
162.790765
 30
0.0
 10
77.717411
 20
162.787291
 30
0.0
 10
77.295649
 20
162.784490
 30
0.0
 10
76.863608
 20
162.782346
 30
0.0
 10
76.421172
 20
162.780838
 30
0.0
 10
75.968221
 20
162.779939
 30
0.0
 10
75.504640
 20
162.779648
 30
0.0
 10
74.819025
 20
162.781129
 30
0.0
 10
74.147232
 20
162.785685
 30
0.0
 10
73.488985
 20
162.793411
 30
0.0
 10
72.844008
 20
162.804415
 30
0.0
 10
72.212030
 20
162.818803
 30
0.0
 10
71.592767
 20
162.836684
 30
0.0
 10
70.985948
 20
162.858165
 30
0.0
 10
70.391297
 20
162.883356
 30
0.0
 10
69.808536
 20
162.912366
 30
0.0
 10
69.237391
 20
162.945301
 30
0.0
 10
68.677585
 20
162.982269
 30
0.0
 10
68.128845
 20
163.023378
 30
0.0
 10
67.590891
 20
163.068737
 30
0.0
 10
67.063450
 20
163.118454
 30
0.0
 10
66.546242
 20
163.172635
 30
0.0
 10
66.038996
 20
163.231391
 30
0.0
 10
65.541434
 20
163.294827
 30
0.0
 10
65.053280
 20
163.363053
 30
0.0
 10
64.574260
 20
163.436177
 30
0.0
 10
64.104093
 20
163.514306
 30
0.0
 10
63.642509
 20
163.597548
 30
0.0
 10
63.189230
 20
163.686012
 30
0.0
 10
62.743981
 20
163.779806
 30
0.0
 10
62.306482
 20
163.879036
 30
0.0
 10
61.876463
 20
163.983813
 30
0.0
 10
61.453643
 20
164.094243
 30
0.0
 10
61.037747
 20
164.210434
 30
0.0
 10
60.628503
 20
164.332495
 30
0.0
 10
60.225632
 20
164.460533
 30
0.0
 10
59.828858
 20
164.594657
 30
0.0
 10
59.437907
 20
164.734975
 30
0.0
 10
59.052499
 20
164.881594
 30
0.0
 10
58.672364
 20
165.034622
 30
0.0
 10
58.297219
 20
165.194168
 30
0.0
 10
57.926797
 20
165.360340
 30
0.0
 10
57.560815
 20
165.533245
 30
0.0
 10
57.198997
 20
165.712992
 30
0.0
 10
56.841074
 20
165.899689
 30
0.0
 10
56.486763
 20
166.093443
 30
0.0
 10
56.135790
 20
166.294362
 30
0.0
 10
55.787882
 20
166.502555
 30
0.0
 10
55.442759
 20
166.718131
 30
0.0
 10
55.100148
 20
166.941195
 30
0.0
 10
54.759772
 20
167.171857
 30
0.0
 10
54.421357
 20
167.410225
 30
0.0
 10
54.084621
 20
167.656406
 30
0.0
 10
53.749296
 20
167.910509
 30
0.0
 10
53.415101
 20
168.172642
 30
0.0
 10
53.081763
 20
168.442913
 30
0.0
 10
52.749005
 20
168.721429
 30
0.0
 10
52.416548
 20
169.008299
 30
0.0
 10
52.084123
 20
169.303630
 30
0.0
 10
51.751446
 20
169.607531
 30
0.0
 10
51.418248
 20
169.920110
 30
0.0
 10
51.084249
 20
170.241475
 30
0.0
 10
50.749175
 20
170.571733
 30
0.0
 10
50.412750
 20
170.910993
 30
0.0
 10
50.074697
 20
171.259363
 30
0.0
 10
49.734742
 20
171.616951
 30
0.0
 10
49.392606
 20
171.983864
 30
0.0
 10
49.048016
 20
172.360211
 30
0.0
 10
48.700695
 20
172.746100
 30
0.0
 10
48.350368
 20
173.141639
 30
0.0
 10
47.996757
 20
173.546935
 30
0.0
 10
47.920841
 20
173.658530
 30
0.0
 10
47.845707
 20
173.769362
 30
0.0
 10
47.771354
 20
173.879398
 30
0.0
 10
47.697784
 20
173.988603
 30
0.0
 10
47.624994
 20
174.096944
 30
0.0
 10
47.552985
 20
174.204388
 30
0.0
 10
47.481751
 20
174.310899
 30
0.0
 10
47.411293
 20
174.416445
 30
0.0
 10
47.341609
 20
174.520991
 30
0.0
 10
47.272701
 20
174.624504
 30
0.0
 10
47.204563
 20
174.726950
 30
0.0
 10
47.137195
 20
174.828295
 30
0.0
 10
47.070599
 20
174.928505
 30
0.0
 10
47.004768
 20
175.027547
 30
0.0
 10
46.939707
 20
175.125386
 30
0.0
 10
46.875408
 20
175.221989
 30
0.0
 10
46.811877
 20
175.317322
 30
0.0
 10
46.749104
 20
175.411351
 30
0.0
 10
46.687096
 20
175.504042
 30
0.0
 10
46.625848
 20
175.595361
 30
0.0
 10
46.565356
 20
175.685276
 30
0.0
 10
46.505624
 20
175.773751
 30
0.0
 10
46.446646
 20
175.860752
 30
0.0
 10
46.388424
 20
175.946248
 30
0.0
 10
46.330957
 20
176.030202
 30
0.0
 10
46.274238
 20
176.112581
 30
0.0
 10
46.218273
 20
176.193353
 30
0.0
 10
46.163057
 20
176.272482
 30
0.0
 10
46.108588
 20
176.349935
 30
0.0
 10
46.054867
 20
176.425678
 30
0.0
 10
46.001889
 20
176.499678
 30
0.0
 10
45.949658
 20
176.571899
 30
0.0
 10
45.898167
 20
176.642310
 30
0.0
 10
45.847420
 20
176.710875
 30
0.0
 10
45.797411
 20
176.777562
 30
0.0
 10
45.748140
 20
176.842335
 30
0.0
 10
45.699611
 20
176.905162
 30
0.0
 10
45.651814
 20
176.966008
 30
0.0
 10
45.604752
 20
177.024840
 30
0.0
 10
45.558424
 20
177.081624
 30
0.0
 10
45.512828
 20
177.136326
 30
0.0
 10
45.467963
 20
177.188912
 30
0.0
 10
45.423827
 20
177.239348
 30
0.0
 10
45.380420
 20
177.287601
 30
0.0
 10
45.337740
 20
177.333637
 30
0.0
 10
45.295785
 20
177.377421
 30
0.0
 10
45.254552
 20
177.418920
 30
0.0
 10
45.214045
 20
177.458101
 30
0.0
 10
45.174257
 20
177.494929
 30
0.0
 10
45.135191
 20
177.529370
 30
0.0
 10
45.096842
 20
177.561392
 30
0.0
 10
45.059210
 20
177.590959
 30
0.0
 10
45.022296
 20
177.618038
 30
0.0
 10
44.986095
 20
177.642595
 30
0.0
 10
44.950607
 20
177.664597
 30
0.0
 10
44.915833
 20
177.684009
 30
0.0
 10
44.881770
 20
177.700798
 30
0.0
 10
44.848414
 20
177.714930
 30
0.0
 10
44.815767
 20
177.726371
 30
0.0
 10
44.783829
 20
177.735087
 30
0.0
 10
44.752595
 20
177.741045
 30
0.0
 10
44.722065
 20
177.744210
 30
0.0
 10
44.692236
 20
177.744549
 30
0.0
  0
ENDSEC
  0
SECTION
  2
OBJECTS
  0
DICTIONARY
  5
C
330
0
100
AcDbDictionary
  3
ACAD_GROUP
350
D
  3
ACAD_MLINESTYLE
350
17
  0
DICTIONARY
  5
D
330
C
100
AcDbDictionary
  0
DICTIONARY
  5
1A
330
C
100
AcDbDictionary
  0
DICTIONARY
  5
17
330
C
100
AcDbDictionary
  3
STANDARD
350
18
  0
DICTIONARY
  5
19
330
C
100
AcDbDictionary
  0
ENDSEC
  0
EOF
