  0
SECTION
  2
HEADER
  9
$ACADVER
  1
AC1014
  9
$HANDSEED
  5
FFFF
  9
$MEASUREMENT
 70
     1
  0
ENDSEC
  0
SECTION
  2
TABLES
  0
TABLE
  2
VPORT
  5
8
330
0
100
AcDbSymbolTable
 70
     4
  0
VPORT
  5
2E
330
8
100
AcDbSymbolTableRecord
100
AcDbViewportTableRecord
  2
*ACTIVE
 70
     0
 10
0.0
 20
0.0
 11
1.0
 21
1.0
 12
210.0
 22
148.5
 13
0.0
 23
0.0
 14
10.0
 24
10.0
 15
10.0
 25
10.0
 16
0.0
 26
0.0
 36
1.0
 17
0.0
 27
0.0
 37
0.0
 40
341.0
 41
1.24
 42
50.0
 43
0.0
 44
0.0
 50
0.0
 51
0.0
 71
     0
 72
   100
 73
     1
 74
     3
 75
     0
 76
     0
 77
     0
 78
     0
  0
ENDTAB
  0
TABLE
  2
LTYPE
  5
5
330
0
100
AcDbSymbolTable
 70
     1
  0
LTYPE
  5
14
330
5
100
AcDbSymbolTableRecord
100
AcDbLinetypeTableRecord
  2
BYBLOCK
 70
     0
  3

 72
    65
 73
     0
 40
0.0
  0
LTYPE
  5
15
330
5
100
AcDbSymbolTableRecord
100
AcDbLinetypeTableRecord
  2
BYLAYER
 70
     0
  3

 72
    65
 73
     0
 40
0.0
  0
LTYPE
  5
16
330
5
100
AcDbSymbolTableRecord
100
AcDbLinetypeTableRecord
  2
CONTINUOUS
 70
     0
  3
Solid line
 72
    65
 73
     0
 40
0.0
  0
ENDTAB
  0
TABLE
  2
LAYER
  5
2
100
AcDbSymbolTable
 70
1
  0
LAYER
  5
50
100
AcDbSymbolTableRecord
100
AcDbLayerTableRecord
  2
0
 70
0
  6
CONTINUOUS
  0
ENDTAB
  0
TABLE
  2
STYLE
  5
3
330
0
100
AcDbSymbolTable
 70
     1
  0
STYLE
  5
11
330
3
100
AcDbSymbolTableRecord
100
AcDbTextStyleTableRecord
  2
STANDARD
 70
     0
 40
0.0
 41
1.0
 50
0.0
 71
     0
 42
2.5
  3
txt
  4

  0
ENDTAB
  0
TABLE
  2
VIEW
  5
6
330
0
100
AcDbSymbolTable
 70
     0
  0
ENDTAB
  0
TABLE
  2
UCS
  5
7
330
0
100
AcDbSymbolTable
 70
     0
  0
ENDTAB
  0
TABLE
  2
APPID
  5
9
330
0
100
AcDbSymbolTable
 70
     2
  0
APPID
  5
12
330
9
100
AcDbSymbolTableRecord
100
AcDbRegAppTableRecord
  2
ACAD
 70
     0
  0
ENDTAB
  0
TABLE
  2
DIMSTYLE
  5
A
330
0
100
AcDbSymbolTable
 70
     1
  0
DIMSTYLE
105
27
330
A
100
AcDbSymbolTableRecord
100
AcDbDimStyleTableRecord
  2
ISO-25
 70
     0
  3

  4

  5

  6

  7

 40
1.0
 41
2.5
 42
0.625
 43
3.75
 44
1.25
 45
0.0
 46
0.0
 47
0.0
 48
0.0
140
2.5
141
2.5
142
0.0
143
0.03937007874016
144
1.0
145
0.0
146
1.0
147
0.625
 71
     0
 72
     0
 73
     0
 74
     0
 75
     0
 76
     0
 77
     1
 78
     8
170
     0
171
     3
172
     1
173
     0
174
     0
175
     0
176
     0
177
     0
178
     0
270
     2
271
     2
272
     2
273
     2
274
     3
340
11
275
     0
280
     0
281
     0
282
     0
283
     0
284
     8
285
     0
286
     0
287
     3
288
     0
  0
ENDTAB
  0
TABLE
  2
BLOCK_RECORD
  5
1
330
0
100
AcDbSymbolTable
 70
     1
  0
BLOCK_RECORD
  5
1F
330
1
100
AcDbSymbolTableRecord
100
AcDbBlockTableRecord
  2
*MODEL_SPACE
  0
BLOCK_RECORD
  5
1B
330
1
100
AcDbSymbolTableRecord
100
AcDbBlockTableRecord
  2
*PAPER_SPACE
  0
ENDTAB
  0
ENDSEC
  0
SECTION
  2
BLOCKS
  0
BLOCK
  5
20
330
1F
100
AcDbEntity
  8
0
100
AcDbBlockBegin
  2
*MODEL_SPACE
 70
     0
 10
0.0
 20
0.0
 30
0.0
  3
*MODEL_SPACE
  1

  0
ENDBLK
  5
21
330
1F
100
AcDbEntity
  8
0
100
AcDbBlockEnd
  0
BLOCK
  5
1C
330
1B
100
AcDbEntity
 67
     1
  8
0
100
AcDbBlockBegin
  2
*PAPER_SPACE
  1

  0
ENDBLK
  5
1D
330
1B
100
AcDbEntity
 67
     1
  8
0
100
AcDbBlockEnd
  0
ENDSEC
  0
SECTION
  2
ENTITIES
  0
LWPOLYLINE
  5
100
100
AcDbEntity
  8
0
 62
7
100
AcDbPolyline
 90
592
 70
1
 10
109.802083
 20
214.641389
 30
0.0
 10
109.375885
 20
214.625626
 30
0.0
 10
108.924937
 20
214.585691
 30
0.0
 10
108.451774
 20
214.523000
 30
0.0
 10
107.958924
 20
214.438970
 30
0.0
 10
107.448916
 20
214.335018
 30
0.0
 10
106.924279
 20
214.212560
 30
0.0
 10
106.387548
 20
214.073013
 30
0.0
 10
105.841247
 20
213.917794
 30
0.0
 10
105.287908
 20
213.748320
 30
0.0
 10
104.730063
 20
213.566006
 30
0.0
 10
104.170237
 20
213.372270
 30
0.0
 10
103.610966
 20
213.168529
 30
0.0
 10
103.054772
 20
212.956199
 30
0.0
 10
102.504192
 20
212.736697
 30
0.0
 10
101.961752
 20
212.511439
 30
0.0
 10
101.429984
 20
212.281843
 30
0.0
 10
100.690206
 20
211.914078
 30
0.0
 10
99.973537
 20
211.473125
 30
0.0
 10
99.282552
 20
210.961729
 30
0.0
 10
98.619829
 20
210.382634
 30
0.0
 10
97.987945
 20
209.738585
 30
0.0
 10
97.389474
 20
209.032325
 30
0.0
 10
96.826991
 20
208.266599
 30
0.0
 10
96.303073
 20
207.444151
 30
0.0
 10
95.820301
 20
206.567725
 30
0.0
 10
95.381244
 20
205.640067
 30
0.0
 10
94.988483
 20
204.663919
 30
0.0
 10
94.644594
 20
203.642026
 30
0.0
 10
94.352150
 20
202.577134
 30
0.0
 10
94.113728
 20
201.471985
 30
0.0
 10
93.931907
 20
200.329324
 30
0.0
 10
93.809262
 20
199.151895
 30
0.0
 10
93.883504
 20
198.255575
 30
0.0
 10
93.978783
 20
197.392387
 30
0.0
 10
94.090300
 20
196.556597
 30
0.0
 10
94.213251
 20
195.742470
 30
0.0
 10
94.342836
 20
194.944273
 30
0.0
 10
94.474255
 20
194.156270
 30
0.0
 10
94.602705
 20
193.372729
 30
0.0
 10
94.723384
 20
192.587915
 30
0.0
 10
94.831493
 20
191.796094
 30
0.0
 10
94.922229
 20
190.991530
 30
0.0
 10
94.990793
 20
190.168493
 30
0.0
 10
95.032383
 20
189.321242
 30
0.0
 10
95.042199
 20
188.444050
 30
0.0
 10
95.015436
 20
187.531179
 30
0.0
 10
94.947295
 20
186.576893
 30
0.0
 10
94.832974
 20
185.575464
 30
0.0
 10
94.653214
 20
184.678603
 30
0.0
 10
94.365442
 20
183.818046
 30
0.0
 10
93.980849
 20
182.996975
 30
0.0
 10
93.510624
 20
182.218576
 30
0.0
 10
92.965953
 20
181.486027
 30
0.0
 10
92.358030
 20
180.802513
 30
0.0
 10
91.698040
 20
180.171220
 30
0.0
 10
90.997177
 20
179.595328
 30
0.0
 10
90.266626
 20
179.078019
 30
0.0
 10
89.517580
 20
178.622478
 30
0.0
 10
88.761226
 20
178.231887
 30
0.0
 10
88.008754
 20
177.909429
 30
0.0
 10
87.271352
 20
177.658289
 30
0.0
 10
86.560210
 20
177.481648
 30
0.0
 10
85.886518
 20
177.382689
 30
0.0
 10
85.261466
 20
177.364591
 30
0.0
 10
84.437059
 20
177.482828
 30
0.0
 10
83.596573
 20
177.720233
 30
0.0
 10
82.748572
 20
178.068248
 30
0.0
 10
81.901631
 20
178.518309
 30
0.0
 10
81.064312
 20
179.061864
 30
0.0
 10
80.245185
 20
179.690350
 30
0.0
 10
79.452822
 20
180.395205
 30
0.0
 10
78.695791
 20
181.167876
 30
0.0
 10
77.982654
 20
181.999797
 30
0.0
 10
77.321987
 20
182.882416
 30
0.0
 10
76.722354
 20
183.807166
 30
0.0
 10
76.192324
 20
184.765495
 30
0.0
 10
75.740466
 20
185.748840
 30
0.0
 10
75.375352
 20
186.748642
 30
0.0
 10
75.105543
 20
187.756342
 30
0.0
 10
74.939615
 20
188.763381
 30
0.0
 10
74.982361
 20
189.571140
 30
0.0
 10
75.049483
 20
190.300505
 30
0.0
 10
75.137132
 20
190.962573
 30
0.0
 10
75.241454
 20
191.568440
 30
0.0
 10
75.358606
 20
192.129205
 30
0.0
 10
75.484741
 20
192.655963
 30
0.0
 10
75.616004
 20
193.159812
 30
0.0
 10
75.748552
 20
193.651850
 30
0.0
 10
75.878531
 20
194.143172
 30
0.0
 10
76.002100
 20
194.644877
 30
0.0
 10
76.115402
 20
195.168061
 30
0.0
 10
76.214594
 20
195.723822
 30
0.0
 10
76.295827
 20
196.323256
 30
0.0
 10
76.355250
 20
196.977460
 30
0.0
 10
76.389013
 20
197.697532
 30
0.0
 10
76.393273
 20
198.494568
 30
0.0
 10
76.288016
 20
199.547554
 30
0.0
 10
76.142133
 20
200.596561
 30
0.0
 10
75.950477
 20
201.638315
 30
0.0
 10
75.707899
 20
202.669546
 30
0.0
 10
75.409253
 20
203.686979
 30
0.0
 10
75.049391
 20
204.687342
 30
0.0
 10
74.623165
 20
205.667363
 30
0.0
 10
74.125431
 20
206.623770
 30
0.0
 10
73.551037
 20
207.553289
 30
0.0
 10
72.894838
 20
208.452648
 30
0.0
 10
72.151687
 20
209.318575
 30
0.0
 10
71.316435
 20
210.147797
 30
0.0
 10
70.383934
 20
210.937041
 30
0.0
 10
69.349038
 20
211.683035
 30
0.0
 10
68.206599
 20
212.382506
 30
0.0
 10
66.951471
 20
213.032182
 30
0.0
 10
65.877493
 20
213.476317
 30
0.0
 10
64.832397
 20
213.848022
 30
0.0
 10
63.825406
 20
214.145547
 30
0.0
 10
62.865736
 20
214.367142
 30
0.0
 10
61.962609
 20
214.511059
 30
0.0
 10
61.125243
 20
214.575547
 30
0.0
 10
60.362862
 20
214.558857
 30
0.0
 10
59.684685
 20
214.459239
 30
0.0
 10
59.099926
 20
214.274945
 30
0.0
 10
58.617813
 20
214.004224
 30
0.0
 10
58.247563
 20
213.645327
 30
0.0
 10
57.998397
 20
213.196504
 30
0.0
 10
57.879530
 20
212.656006
 30
0.0
 10
57.900194
 20
212.022083
 30
0.0
 10
58.069596
 20
211.292985
 30
0.0
 10
58.396960
 20
210.466964
 30
0.0
 10
59.137854
 20
208.846696
 30
0.0
 10
59.789457
 20
207.332549
 30
0.0
 10
60.350212
 20
205.910949
 30
0.0
 10
60.818567
 20
204.568319
 30
0.0
 10
61.192963
 20
203.291088
 30
0.0
 10
61.471847
 20
202.065679
 30
0.0
 10
61.653661
 20
200.878518
 30
0.0
 10
61.736848
 20
199.716032
 30
0.0
 10
61.719862
 20
198.564645
 30
0.0
 10
61.601133
 20
197.410783
 30
0.0
 10
61.379111
 20
196.240872
 30
0.0
 10
61.052242
 20
195.041337
 30
0.0
 10
60.618968
 20
193.798603
 30
0.0
 10
60.077734
 20
192.499097
 30
0.0
 10
59.426986
 20
191.129244
 30
0.0
 10
58.665166
 20
189.675468
 30
0.0
 10
58.045421
 20
188.800041
 30
0.0
 10
57.450940
 20
187.952409
 30
0.0
 10
56.880924
 20
187.126777
 30
0.0
 10
56.334573
 20
186.317342
 30
0.0
 10
55.811092
 20
185.518308
 30
0.0
 10
55.309677
 20
184.723884
 30
0.0
 10
54.829538
 20
183.928263
 30
0.0
 10
54.369872
 20
183.125655
 30
0.0
 10
53.929881
 20
182.310259
 30
0.0
 10
53.508770
 20
181.476277
 30
0.0
 10
53.105735
 20
180.617916
 30
0.0
 10
52.719983
 20
179.729371
 30
0.0
 10
52.350715
 20
178.804850
 30
0.0
 10
51.997134
 20
177.838558
 30
0.0
 10
51.658438
 20
176.824690
 30
0.0
 10
51.333831
 20
175.757454
 30
0.0
 10
51.045803
 20
174.420390
 30
0.0
 10
50.886757
 20
173.058582
 30
0.0
 10
50.850078
 20
171.675774
 30
0.0
 10
50.929148
 20
170.275700
 30
0.0
 10
51.117354
 20
168.862105
 30
0.0
 10
51.408076
 20
167.438726
 30
0.0
 10
51.794698
 20
166.009304
 30
0.0
 10
52.270610
 20
164.577575
 30
0.0
 10
52.829187
 20
163.147285
 30
0.0
 10
53.463822
 20
161.722168
 30
0.0
 10
54.167892
 20
160.305964
 30
0.0
 10
54.934784
 20
158.902418
 30
0.0
 10
55.757884
 20
157.515264
 30
0.0
 10
56.630570
 20
156.148243
 30
0.0
 10
57.546232
 20
154.805097
 30
0.0
 10
58.498251
 20
153.489565
 30
0.0
 10
58.522089
 20
153.442575
 30
0.0
 10
58.545770
 20
153.395770
 30
0.0
 10
58.569291
 20
153.349140
 30
0.0
 10
58.592680
 20
153.302668
 30
0.0
 10
58.615937
 20
153.256340
 30
0.0
 10
58.639088
 20
153.210143
 30
0.0
 10
58.662133
 20
153.164061
 30
0.0
 10
58.685099
 20
153.118079
 30
0.0
 10
58.707986
 20
153.072184
 30
0.0
 10
58.730819
 20
153.026361
 30
0.0
 10
58.753600
 20
152.980599
 30
0.0
 10
58.776354
 20
152.934876
 30
0.0
 10
58.799082
 20
152.889185
 30
0.0
 10
58.821809
 20
152.843508
 30
0.0
 10
58.844537
 20
152.797833
 30
0.0
 10
58.867291
 20
152.752142
 30
0.0
 10
52.079856
 20
155.213828
 30
0.0
 10
46.383739
 20
157.139008
 30
0.0
 10
41.718966
 20
158.528422
 30
0.0
 10
38.025544
 20
159.382817
 30
0.0
 10
35.243492
 20
159.702931
 30
0.0
 10
33.312828
 20
159.489513
 30
0.0
 10
32.173564
 20
158.743301
 30
0.0
 10
31.765719
 20
157.465038
 30
0.0
 10
32.029310
 20
155.655470
 30
0.0
 10
32.904351
 20
153.315337
 30
0.0
 10
34.330857
 20
150.445385
 30
0.0
 10
36.248845
 20
147.046355
 30
0.0
 10
38.598329
 20
143.118988
 30
0.0
 10
41.319331
 20
138.664032
 30
0.0
 10
44.351861
 20
133.682227
 30
0.0
 10
47.635938
 20
128.174313
 30
0.0
 10
46.828313
 20
127.958659
 30
0.0
 10
46.013304
 20
127.753345
 30
0.0
 10
45.194421
 20
127.557300
 30
0.0
 10
44.375176
 20
127.369451
 30
0.0
 10
43.559079
 20
127.188725
 30
0.0
 10
42.749645
 20
127.014049
 30
0.0
 10
41.950383
 20
126.844351
 30
0.0
 10
41.164806
 20
126.678560
 30
0.0
 10
40.396427
 20
126.515603
 30
0.0
 10
39.648757
 20
126.354406
 30
0.0
 10
38.925307
 20
126.193896
 30
0.0
 10
38.229588
 20
126.033006
 30
0.0
 10
37.565116
 20
125.870658
 30
0.0
 10
36.935399
 20
125.705780
 30
0.0
 10
36.343952
 20
125.537301
 30
0.0
 10
35.794283
 20
125.364147
 30
0.0
 10
34.120066
 20
124.781955
 30
0.0
 10
32.444240
 20
124.198586
 30
0.0
 10
30.768187
 20
123.611669
 30
0.0
 10
29.093276
 20
123.018825
 30
0.0
 10
27.420885
 20
122.417684
 30
0.0
 10
25.752385
 20
121.805869
 30
0.0
 10
24.089155
 20
121.181005
 30
0.0
 10
22.432568
 20
120.540719
 30
0.0
 10
20.783999
 20
119.882634
 30
0.0
 10
19.144822
 20
119.204377
 30
0.0
 10
17.516413
 20
118.503573
 30
0.0
 10
15.900146
 20
117.777850
 30
0.0
 10
14.297396
 20
117.024827
 30
0.0
 10
12.709538
 20
116.242137
 30
0.0
 10
11.137946
 20
115.427400
 30
0.0
 10
9.583996
 20
114.578244
 30
0.0
 10
8.164151
 20
113.567512
 30
0.0
 10
6.886862
 20
112.630789
 30
0.0
 10
5.745054
 20
111.756335
 30
0.0
 10
4.731656
 20
110.932412
 30
0.0
 10
3.839595
 20
110.147285
 30
0.0
 10
3.061800
 20
109.389209
 30
0.0
 10
2.391196
 20
108.646452
 30
0.0
 10
1.820714
 20
107.907270
 30
0.0
 10
1.343278
 20
107.159928
 30
0.0
 10
0.951818
 20
106.392684
 30
0.0
 10
0.639262
 20
105.593803
 30
0.0
 10
0.398535
 20
104.751545
 30
0.0
 10
0.222567
 20
103.854173
 30
0.0
 10
0.104284
 20
102.889944
 30
0.0
 10
0.036615
 20
101.847126
 30
0.0
 10
0.012487
 20
100.713974
 30
0.0
 10
0.004744
 20
99.664276
 30
0.0
 10
0.060174
 20
98.669668
 30
0.0
 10
0.178212
 20
97.724214
 30
0.0
 10
0.358291
 20
96.821974
 30
0.0
 10
0.599847
 20
95.957009
 30
0.0
 10
0.902313
 20
95.123381
 30
0.0
 10
1.265124
 20
94.315153
 30
0.0
 10
1.687714
 20
93.526385
 30
0.0
 10
2.169518
 20
92.751140
 30
0.0
 10
2.709970
 20
91.983478
 30
0.0
 10
3.308505
 20
91.217461
 30
0.0
 10
3.964557
 20
90.447151
 30
0.0
 10
4.677559
 20
89.666606
 30
0.0
 10
5.446948
 20
88.869893
 30
0.0
 10
6.272157
 20
88.051074
 30
0.0
 10
7.152620
 20
87.204203
 30
0.0
 10
9.539650
 20
85.600937
 30
0.0
 10
11.955809
 20
83.950842
 30
0.0
 10
14.372012
 20
82.261586
 30
0.0
 10
16.759172
 20
80.540828
 30
0.0
 10
19.088204
 20
78.796234
 30
0.0
 10
21.330022
 20
77.035464
 30
0.0
 10
23.455541
 20
75.266182
 30
0.0
 10
25.435675
 20
73.496051
 30
0.0
 10
27.241339
 20
71.732733
 30
0.0
 10
28.843446
 20
69.983890
 30
0.0
 10
30.212911
 20
68.257187
 30
0.0
 10
31.320650
 20
66.560284
 30
0.0
 10
32.137575
 20
64.900844
 30
0.0
 10
32.634603
 20
63.286531
 30
0.0
 10
32.782645
 20
61.725011
 30
0.0
 10
32.552619
 20
60.223940
 30
0.0
 10
30.789086
 20
56.490251
 30
0.0
 10
29.318365
 20
53.406969
 30
0.0
 10
28.097504
 20
50.877380
 30
0.0
 10
27.083554
 20
48.804769
 30
0.0
 10
26.233565
 20
47.092428
 30
0.0
 10
25.504581
 20
45.643641
 30
0.0
 10
24.853653
 20
44.361695
 30
0.0
 10
24.237830
 20
43.149880
 30
0.0
 10
23.614160
 20
41.911479
 30
0.0
 10
22.939692
 20
40.549782
 30
0.0
 10
22.171474
 20
38.968074
 30
0.0
 10
21.266556
 20
37.069646
 30
0.0
 10
20.181986
 20
34.757781
 30
0.0
 10
18.874812
 20
31.935769
 30
0.0
 10
17.302083
 20
28.506896
 30
0.0
 10
15.420849
 20
24.374448
 30
0.0
 10
13.071733
 20
19.889343
 30
0.0
 10
10.857914
 20
16.048096
 30
0.0
 10
8.820390
 20
12.798396
 30
0.0
 10
7.000158
 20
10.087927
 30
0.0
 10
5.438217
 20
7.864377
 30
0.0
 10
4.175565
 20
6.075429
 30
0.0
 10
3.253201
 20
4.668771
 30
0.0
 10
2.712122
 20
3.592089
 30
0.0
 10
2.593326
 20
2.793066
 30
0.0
 10
2.937811
 20
2.219391
 30
0.0
 10
3.786577
 20
1.818748
 30
0.0
 10
5.180621
 20
1.538824
 30
0.0
 10
7.160940
 20
1.327306
 30
0.0
 10
9.768534
 20
1.131877
 30
0.0
 10
13.044400
 20
0.900224
 30
0.0
 10
17.029536
 20
0.580033
 30
0.0
 10
17.111897
 20
0.555982
 30
0.0
 10
17.282284
 20
0.538334
 30
0.0
 10
17.555253
 20
0.526402
 30
0.0
 10
17.945359
 20
0.519522
 30
0.0
 10
18.467157
 20
0.517141
 30
0.0
 10
19.135201
 20
0.518464
 30
0.0
 10
19.964049
 20
0.522697
 30
0.0
 10
20.968254
 20
0.529286
 30
0.0
 10
22.162372
 20
0.537541
 30
0.0
 10
23.560957
 20
0.546827
 30
0.0
 10
25.178566
 20
0.556432
 30
0.0
 10
27.029754
 20
0.565719
 30
0.0
 10
29.129075
 20
0.573974
 30
0.0
 10
31.491084
 20
0.580562
 30
0.0
 10
34.130337
 20
0.584795
 30
0.0
 10
37.061389
 20
0.586118
 30
0.0
 10
39.855029
 20
0.665914
 30
0.0
 10
42.469649
 20
0.892402
 30
0.0
 10
44.919355
 20
1.244669
 30
0.0
 10
47.218256
 20
1.701797
 30
0.0
 10
49.380452
 20
2.242881
 30
0.0
 10
51.420051
 20
2.846999
 30
0.0
 10
53.351157
 20
3.493241
 30
0.0
 10
55.187874
 20
4.160689
 30
0.0
 10
56.944310
 20
4.828437
 30
0.0
 10
58.634569
 20
5.475563
 30
0.0
 10
60.272755
 20
6.081157
 30
0.0
 10
61.872974
 20
6.624304
 30
0.0
 10
63.449332
 20
7.084094
 30
0.0
 10
65.015933
 20
7.439607
 30
0.0
 10
66.586883
 20
7.669932
 30
0.0
 10
68.176286
 20
7.754157
 30
0.0
 10
69.021142
 20
7.673967
 30
0.0
 10
69.945062
 20
7.443541
 30
0.0
 10
70.937062
 20
7.084404
 30
0.0
 10
71.986159
 20
6.618084
 30
0.0
 10
73.081372
 20
6.066099
 30
0.0
 10
74.211720
 20
5.449980
 30
0.0
 10
75.366219
 20
4.791250
 30
0.0
 10
76.533891
 20
4.111429
 30
0.0
 10
77.703751
 20
3.432048
 30
0.0
 10
78.864817
 20
2.774630
 30
0.0
 10
80.006111
 20
2.160699
 30
0.0
 10
81.116646
 20
1.611781
 30
0.0
 10
82.185444
 20
1.149398
 30
0.0
 10
83.201521
 20
0.795078
 30
0.0
 10
84.153896
 20
0.570341
 30
0.0
 10
85.031588
 20
0.496718
 30
0.0
 10
85.832910
 20
0.578771
 30
0.0
 10
86.730999
 20
0.795763
 30
0.0
 10
87.710417
 20
1.128363
 30
0.0
 10
88.755725
 20
1.557232
 30
0.0
 10
89.851487
 20
2.063041
 30
0.0
 10
90.982260
 20
2.626452
 30
0.0
 10
92.132608
 20
3.228136
 30
0.0
 10
93.287091
 20
3.848756
 30
0.0
 10
94.430273
 20
4.468976
 30
0.0
 10
95.546714
 20
5.069469
 30
0.0
 10
96.620978
 20
5.630897
 30
0.0
 10
97.637621
 20
6.133925
 30
0.0
 10
98.581210
 20
6.559222
 30
0.0
 10
99.436304
 20
6.887453
 30
0.0
 10
100.187466
 20
7.099284
 30
0.0
 10
100.819254
 20
7.175381
 30
0.0
 10
102.718759
 20
7.102657
 30
0.0
 10
104.399395
 20
6.885300
 30
0.0
 10
105.908472
 20
6.543672
 30
0.0
 10
107.293312
 20
6.098130
 30
0.0
 10
108.601224
 20
5.569032
 30
0.0
 10
109.879524
 20
4.976738
 30
0.0
 10
111.175530
 20
4.341606
 30
0.0
 10
112.536555
 20
3.683995
 30
0.0
 10
114.009913
 20
3.024267
 30
0.0
 10
115.642922
 20
2.382774
 30
0.0
 10
117.482893
 20
1.779884
 30
0.0
 10
119.577144
 20
1.235948
 30
0.0
 10
121.972985
 20
0.771326
 30
0.0
 10
124.717736
 20
0.406381
 30
0.0
 10
127.858711
 20
0.161470
 30
0.0
 10
131.443225
 20
0.056951
 30
0.0
 10
133.150300
 20
0.031366
 30
0.0
 10
134.784862
 20
0.013851
 30
0.0
 10
136.355085
 20
0.003744
 30
0.0
 10
137.869149
 20
0.000410
 30
0.0
 10
139.335237
 20
0.003215
 30
0.0
 10
140.761530
 20
0.011522
 30
0.0
 10
142.156204
 20
0.024699
 30
0.0
 10
143.527436
 20
0.042082
 30
0.0
 10
144.883412
 20
0.063063
 30
0.0
 10
146.232311
 20
0.086982
 30
0.0
 10
147.582308
 20
0.113202
 30
0.0
 10
148.941586
 20
0.141081
 30
0.0
 10
150.318322
 20
0.169984
 30
0.0
 10
151.720701
 20
0.199268
 30
0.0
 10
153.156896
 20
0.228293
 30
0.0
 10
154.635092
 20
0.256423
 30
0.0
 10
158.582193
 20
0.509757
 30
0.0
 10
161.757196
 20
0.753790
 30
0.0
 10
164.208502
 20
1.024940
 30
0.0
 10
165.984521
 20
1.359630
 30
0.0
 10
167.133654
 20
1.794272
 30
0.0
 10
167.704304
 20
2.365293
 30
0.0
 10
167.744881
 20
3.109105
 30
0.0
 10
167.303789
 20
4.062132
 30
0.0
 10
166.429428
 20
5.260792
 30
0.0
 10
165.170210
 20
6.741504
 30
0.0
 10
163.574534
 20
8.540686
 30
0.0
 10
161.690809
 20
10.694760
 30
0.0
 10
159.567441
 20
13.240141
 30
0.0
 10
157.252829
 20
16.213251
 30
0.0
 10
154.795381
 20
19.650509
 30
0.0
 10
152.243504
 20
23.588334
 30
0.0
 10
151.390757
 20
24.941122
 30
0.0
 10
150.401544
 20
26.632257
 30
0.0
 10
149.300644
 20
28.608216
 30
0.0
 10
148.112837
 20
30.815478
 30
0.0
 10
146.862903
 20
33.200522
 30
0.0
 10
145.575623
 20
35.709831
 30
0.0
 10
144.275773
 20
38.289881
 30
0.0
 10
142.988138
 20
40.887152
 30
0.0
 10
141.737495
 20
43.448126
 30
0.0
 10
140.548627
 20
45.919279
 30
0.0
 10
139.446310
 20
48.247094
 30
0.0
 10
138.455323
 20
50.378048
 30
0.0
 10
137.600452
 20
52.258619
 30
0.0
 10
136.906471
 20
53.835292
 30
0.0
 10
136.398161
 20
55.054542
 30
0.0
 10
136.100304
 20
55.862850
 30
0.0
 10
135.568526
 20
57.722407
 30
0.0
 10
135.238710
 20
59.402445
 30
0.0
 10
135.120914
 20
60.940513
 30
0.0
 10
135.225203
 20
62.374158
 30
0.0
 10
135.561634
 20
63.740935
 30
0.0
 10
136.140269
 20
65.078390
 30
0.0
 10
136.971170
 20
66.424077
 30
0.0
 10
138.064396
 20
67.815542
 30
0.0
 10
139.430011
 20
69.290337
 30
0.0
 10
141.078072
 20
70.886013
 30
0.0
 10
143.018645
 20
72.640121
 30
0.0
 10
145.261788
 20
74.590209
 30
0.0
 10
147.817560
 20
76.773828
 30
0.0
 10
150.696025
 20
79.228529
 30
0.0
 10
153.907244
 20
81.991861
 30
0.0
 10
157.461275
 20
85.101374
 30
0.0
 10
158.474386
 20
85.913423
 30
0.0
 10
159.482562
 20
86.703564
 30
0.0
 10
160.478578
 20
87.481172
 30
0.0
 10
161.455216
 20
88.255618
 30
0.0
 10
162.405258
 20
89.036279
 30
0.0
 10
163.321481
 20
89.832526
 30
0.0
 10
164.196665
 20
90.653735
 30
0.0
 10
165.023591
 20
91.509276
 30
0.0
 10
165.795039
 20
92.408520
 30
0.0
 10
166.503787
 20
93.360846
 30
0.0
 10
167.142612
 20
94.375626
 30
0.0
 10
167.704302
 20
95.462230
 30
0.0
 10
168.181629
 20
96.630035
 30
0.0
 10
168.567375
 20
97.888412
 30
0.0
 10
168.854321
 20
99.246735
 30
0.0
 10
169.035246
 20
100.714376
 30
0.0
 10
168.978736
 20
101.608244
 30
0.0
 10
168.921914
 20
102.456440
 30
0.0
 10
168.849979
 20
103.267028
 30
0.0
 10
168.748131
 20
104.048078
 30
0.0
 10
168.601565
 20
104.807657
 30
0.0
 10
168.395481
 20
105.553838
 30
0.0
 10
168.115078
 20
106.294685
 30
0.0
 10
167.745553
 20
107.038264
 30
0.0
 10
167.272107
 20
107.792652
 30
0.0
 10
166.679936
 20
108.565910
 30
0.0
 10
165.954239
 20
109.366108
 30
0.0
 10
165.080214
 20
110.201318
 30
0.0
 10
164.043058
 20
111.079603
 30
0.0
 10
162.827973
 20
112.009036
 30
0.0
 10
161.420154
 20
112.997681
 30
0.0
 10
159.804801
 20
114.053612
 30
0.0
 10
157.771317
 20
115.171125
 30
0.0
 10
155.662291
 20
116.239552
 30
0.0
 10
153.484554
 20
117.262640
 30
0.0
 10
151.244932
 20
118.244130
 30
0.0
 10
148.950257
 20
119.187764
 30
0.0
 10
146.607355
 20
120.097293
 30
0.0
 10
144.223057
 20
120.976451
 30
0.0
 10
141.804192
 20
121.828989
 30
0.0
 10
139.357587
 20
122.658648
 30
0.0
 10
136.890072
 20
123.469170
 30
0.0
 10
134.408476
 20
124.264298
 30
0.0
 10
131.919628
 20
125.047780
 30
0.0
 10
129.430357
 20
125.823358
 30
0.0
 10
126.947491
 20
126.594772
 30
0.0
 10
124.477862
 20
127.365770
 30
0.0
 10
122.028294
 20
128.140092
 30
0.0
 10
125.330696
 20
133.680279
 30
0.0
 10
128.379866
 20
138.689437
 30
0.0
 10
131.114914
 20
143.166790
 30
0.0
 10
133.474939
 20
147.111558
 30
0.0
 10
135.399044
 20
150.522964
 30
0.0
 10
136.826337
 20
153.400231
 30
0.0
 10
137.695919
 20
155.742574
 30
0.0
 10
137.946897
 20
157.549223
 30
0.0
 10
137.518370
 20
158.819395
 30
0.0
 10
136.349444
 20
159.552309
 30
0.0
 10
134.379224
 20
159.747193
 30
0.0
 10
131.546812
 20
159.403267
 30
0.0
 10
127.791313
 20
158.519746
 30
0.0
 10
123.051829
 20
157.095862
 30
0.0
 10
117.267466
 20
155.130828
 30
0.0
 10
110.377327
 20
152.623869
 30
0.0
 10
111.403974
 20
153.988794
 30
0.0
 10
112.383274
 20
155.307292
 30
0.0
 10
113.311408
 20
156.585004
 30
0.0
 10
114.184562
 20
157.827570
 30
0.0
 10
114.998918
 20
159.040629
 30
0.0
 10
115.750657
 20
160.229820
 30
0.0
 10
116.435965
 20
161.400781
 30
0.0
 10
117.051026
 20
162.559151
 30
0.0
 10
117.592020
 20
163.710570
 30
0.0
 10
118.055133
 20
164.860679
 30
0.0
 10
118.436546
 20
166.015112
 30
0.0
 10
118.732446
 20
167.179514
 30
0.0
 10
118.939014
 20
168.359518
 30
0.0
 10
119.052430
 20
169.560769
 30
0.0
 10
119.068887
 20
170.788901
 30
0.0
 10
118.984556
 20
172.049556
 30
0.0
 10
118.889203
 20
173.560250
 30
0.0
 10
118.727268
 20
174.997158
 30
0.0
 10
118.501599
 20
176.367644
 30
0.0
 10
118.215061
 20
177.679085
 30
0.0
 10
117.870502
 20
178.938843
 30
0.0
 10
117.470780
 20
180.154291
 30
0.0
 10
117.018750
 20
181.332796
 30
0.0
 10
116.517267
 20
182.481728
 30
0.0
 10
115.969185
 20
183.608456
 30
0.0
 10
115.377362
 20
184.720349
 30
0.0
 10
114.744651
 20
185.824773
 30
0.0
 10
114.073908
 20
186.929101
 30
0.0
 10
113.367989
 20
188.040700
 30
0.0
 10
112.629749
 20
189.166939
 30
0.0
 10
111.862044
 20
190.315188
 30
0.0
 10
111.067726
 20
191.492814
 30
0.0
 10
110.449122
 20
192.534051
 30
0.0
 10
109.907845
 20
193.565526
 30
0.0
 10
109.443613
 20
194.590991
 30
0.0
 10
109.056138
 20
195.614200
 30
0.0
 10
108.745139
 20
196.638906
 30
0.0
 10
108.510329
 20
197.668862
 30
0.0
 10
108.351423
 20
198.707822
 30
0.0
 10
108.268138
 20
199.759540
 30
0.0
 10
108.260174
 20
200.827768
 30
0.0
 10
108.327275
 20
201.916261
 30
0.0
 10
108.469139
 20
203.028771
 30
0.0
 10
108.685486
 20
204.169052
 30
0.0
 10
108.976028
 20
205.340858
 30
0.0
 10
109.340481
 20
206.547941
 30
0.0
 10
109.778562
 20
207.794056
 30
0.0
 10
110.289983
 20
209.082955
 30
0.0
 10
110.807926
 20
209.836923
 30
0.0
 10
111.235546
 20
210.527051
 30
0.0
 10
111.576525
 20
211.155403
 30
0.0
 10
111.834552
 20
211.724044
 30
0.0
 10
112.013309
 20
212.235038
 30
0.0
 10
112.116484
 20
212.690450
 30
0.0
 10
112.147765
 20
213.092346
 30
0.0
 10
112.110837
 20
213.442788
 30
0.0
 10
112.009383
 20
213.743843
 30
0.0
 10
111.847093
 20
213.997574
 30
0.0
 10
111.627647
 20
214.206046
 30
0.0
 10
111.354738
 20
214.371324
 30
0.0
 10
111.032049
 20
214.495473
 30
0.0
 10
110.663265
 20
214.580557
 30
0.0
 10
110.252073
 20
214.628641
 30
0.0
  0
ENDSEC
  0
SECTION
  2
OBJECTS
  0
DICTIONARY
  5
C
330
0
100
AcDbDictionary
  3
ACAD_GROUP
350
D
  3
ACAD_MLINESTYLE
350
17
  0
DICTIONARY
  5
D
330
C
100
AcDbDictionary
  0
DICTIONARY
  5
1A
330
C
100
AcDbDictionary
  0
DICTIONARY
  5
17
330
C
100
AcDbDictionary
  3
STANDARD
350
18
  0
DICTIONARY
  5
19
330
C
100
AcDbDictionary
  0
ENDSEC
  0
EOF
