  0
SECTION
  2
HEADER
  9
$ACADVER
  1
AC1014
  9
$HANDSEED
  5
FFFF
  9
$MEASUREMENT
 70
     1
  0
ENDSEC
  0
SECTION
  2
TABLES
  0
TABLE
  2
VPORT
  5
8
330
0
100
AcDbSymbolTable
 70
     4
  0
VPORT
  5
2E
330
8
100
AcDbSymbolTableRecord
100
AcDbViewportTableRecord
  2
*ACTIVE
 70
     0
 10
0.0
 20
0.0
 11
1.0
 21
1.0
 12
210.0
 22
148.5
 13
0.0
 23
0.0
 14
10.0
 24
10.0
 15
10.0
 25
10.0
 16
0.0
 26
0.0
 36
1.0
 17
0.0
 27
0.0
 37
0.0
 40
341.0
 41
1.24
 42
50.0
 43
0.0
 44
0.0
 50
0.0
 51
0.0
 71
     0
 72
   100
 73
     1
 74
     3
 75
     0
 76
     0
 77
     0
 78
     0
  0
ENDTAB
  0
TABLE
  2
LTYPE
  5
5
330
0
100
AcDbSymbolTable
 70
     1
  0
LTYPE
  5
14
330
5
100
AcDbSymbolTableRecord
100
AcDbLinetypeTableRecord
  2
BYBLOCK
 70
     0
  3

 72
    65
 73
     0
 40
0.0
  0
LTYPE
  5
15
330
5
100
AcDbSymbolTableRecord
100
AcDbLinetypeTableRecord
  2
BYLAYER
 70
     0
  3

 72
    65
 73
     0
 40
0.0
  0
LTYPE
  5
16
330
5
100
AcDbSymbolTableRecord
100
AcDbLinetypeTableRecord
  2
CONTINUOUS
 70
     0
  3
Solid line
 72
    65
 73
     0
 40
0.0
  0
ENDTAB
  0
TABLE
  2
LAYER
  5
2
100
AcDbSymbolTable
 70
1
  0
LAYER
  5
50
100
AcDbSymbolTableRecord
100
AcDbLayerTableRecord
  2
0
 70
0
  6
CONTINUOUS
  0
ENDTAB
  0
TABLE
  2
STYLE
  5
3
330
0
100
AcDbSymbolTable
 70
     1
  0
STYLE
  5
11
330
3
100
AcDbSymbolTableRecord
100
AcDbTextStyleTableRecord
  2
STANDARD
 70
     0
 40
0.0
 41
1.0
 50
0.0
 71
     0
 42
2.5
  3
txt
  4

  0
ENDTAB
  0
TABLE
  2
VIEW
  5
6
330
0
100
AcDbSymbolTable
 70
     0
  0
ENDTAB
  0
TABLE
  2
UCS
  5
7
330
0
100
AcDbSymbolTable
 70
     0
  0
ENDTAB
  0
TABLE
  2
APPID
  5
9
330
0
100
AcDbSymbolTable
 70
     2
  0
APPID
  5
12
330
9
100
AcDbSymbolTableRecord
100
AcDbRegAppTableRecord
  2
ACAD
 70
     0
  0
ENDTAB
  0
TABLE
  2
DIMSTYLE
  5
A
330
0
100
AcDbSymbolTable
 70
     1
  0
DIMSTYLE
105
27
330
A
100
AcDbSymbolTableRecord
100
AcDbDimStyleTableRecord
  2
ISO-25
 70
     0
  3

  4

  5

  6

  7

 40
1.0
 41
2.5
 42
0.625
 43
3.75
 44
1.25
 45
0.0
 46
0.0
 47
0.0
 48
0.0
140
2.5
141
2.5
142
0.0
143
0.03937007874016
144
1.0
145
0.0
146
1.0
147
0.625
 71
     0
 72
     0
 73
     0
 74
     0
 75
     0
 76
     0
 77
     1
 78
     8
170
     0
171
     3
172
     1
173
     0
174
     0
175
     0
176
     0
177
     0
178
     0
270
     2
271
     2
272
     2
273
     2
274
     3
340
11
275
     0
280
     0
281
     0
282
     0
283
     0
284
     8
285
     0
286
     0
287
     3
288
     0
  0
ENDTAB
  0
TABLE
  2
BLOCK_RECORD
  5
1
330
0
100
AcDbSymbolTable
 70
     1
  0
BLOCK_RECORD
  5
1F
330
1
100
AcDbSymbolTableRecord
100
AcDbBlockTableRecord
  2
*MODEL_SPACE
  0
BLOCK_RECORD
  5
1B
330
1
100
AcDbSymbolTableRecord
100
AcDbBlockTableRecord
  2
*PAPER_SPACE
  0
ENDTAB
  0
ENDSEC
  0
SECTION
  2
BLOCKS
  0
BLOCK
  5
20
330
1F
100
AcDbEntity
  8
0
100
AcDbBlockBegin
  2
*MODEL_SPACE
 70
     0
 10
0.0
 20
0.0
 30
0.0
  3
*MODEL_SPACE
  1

  0
ENDBLK
  5
21
330
1F
100
AcDbEntity
  8
0
100
AcDbBlockEnd
  0
BLOCK
  5
1C
330
1B
100
AcDbEntity
 67
     1
  8
0
100
AcDbBlockBegin
  2
*PAPER_SPACE
  1

  0
ENDBLK
  5
1D
330
1B
100
AcDbEntity
 67
     1
  8
0
100
AcDbBlockEnd
  0
ENDSEC
  0
SECTION
  2
ENTITIES
  0
LWPOLYLINE
  5
100
100
AcDbEntity
  8
0
 62
7
100
AcDbPolyline
 90
944
 70
1
 10
188.076893
 20
194.032100
 30
0.0
 10
187.974814
 20
194.029904
 30
0.0
 10
187.855857
 20
194.023850
 30
0.0
 10
187.719420
 20
194.014074
 30
0.0
 10
187.564903
 20
194.000704
 30
0.0
 10
187.391701
 20
193.983864
 30
0.0
 10
187.199214
 20
193.963679
 30
0.0
 10
186.986841
 20
193.940274
 30
0.0
 10
186.753976
 20
193.913775
 30
0.0
 10
184.525944
 20
193.583535
 30
0.0
 10
182.247233
 20
193.127002
 30
0.0
 10
179.935314
 20
192.565014
 30
0.0
 10
177.607653
 20
191.918415
 30
0.0
 10
175.281717
 20
191.208044
 30
0.0
 10
172.974976
 20
190.454742
 30
0.0
 10
170.704894
 20
189.679351
 30
0.0
 10
168.488939
 20
188.902711
 30
0.0
 10
165.930710
 20
187.852824
 30
0.0
 10
163.429662
 20
186.718680
 30
0.0
 10
160.969336
 20
185.495153
 30
0.0
 10
158.533277
 20
184.177120
 30
0.0
 10
156.105027
 20
182.759452
 30
0.0
 10
153.668127
 20
181.237025
 30
0.0
 10
151.206121
 20
179.604713
 30
0.0
 10
148.702551
 20
177.857391
 30
0.0
 10
146.700743
 20
176.464989
 30
0.0
 10
144.782704
 20
175.116076
 30
0.0
 10
142.946366
 20
173.773206
 30
0.0
 10
141.189662
 20
172.398937
 30
0.0
 10
139.510527
 20
170.955826
 30
0.0
 10
137.906892
 20
169.406428
 30
0.0
 10
136.376693
 20
167.713302
 30
0.0
 10
134.917863
 20
165.839003
 30
0.0
 10
134.567964
 20
165.338115
 30
0.0
 10
133.749357
 20
164.089476
 30
0.0
 10
132.699400
 20
162.333989
 30
0.0
 10
131.655458
 20
160.312557
 30
0.0
 10
130.854884
 20
158.266083
 30
0.0
 10
130.535048
 20
156.435470
 30
0.0
 10
130.933304
 20
155.061621
 30
0.0
 10
132.287015
 20
154.385438
 30
0.0
 10
132.776013
 20
154.810976
 30
0.0
 10
133.361041
 20
155.170052
 30
0.0
 10
134.040555
 20
155.462310
 30
0.0
 10
134.813011
 20
155.687393
 30
0.0
 10
135.676862
 20
155.844946
 30
0.0
 10
136.630563
 20
155.934612
 30
0.0
 10
137.672575
 20
155.956036
 30
0.0
 10
138.801348
 20
155.908860
 30
0.0
 10
140.025625
 20
155.796118
 30
0.0
 10
141.277679
 20
155.633430
 30
0.0
 10
142.542903
 20
155.415355
 30
0.0
 10
143.806685
 20
155.136456
 30
0.0
 10
145.054421
 20
154.791294
 30
0.0
 10
146.271504
 20
154.374431
 30
0.0
 10
147.443322
 20
153.880430
 30
0.0
 10
148.555273
 20
153.303851
 30
0.0
 10
149.302795
 20
152.201352
 30
0.0
 10
149.617613
 20
150.932529
 30
0.0
 10
149.549564
 20
149.521546
 30
0.0
 10
149.148493
 20
147.992570
 30
0.0
 10
148.464238
 20
146.369766
 30
0.0
 10
147.546639
 20
144.677300
 30
0.0
 10
146.445539
 20
142.939337
 30
0.0
 10
145.210773
 20
141.180043
 30
0.0
 10
144.882264
 20
141.377195
 30
0.0
 10
144.575591
 20
141.572462
 30
0.0
 10
144.296352
 20
141.761859
 30
0.0
 10
144.050144
 20
141.941400
 30
0.0
 10
143.842563
 20
142.107095
 30
0.0
 10
143.679198
 20
142.254963
 30
0.0
 10
143.565652
 20
142.381011
 30
0.0
 10
143.507518
 20
142.481256
 30
0.0
 10
143.457867
 20
142.880410
 30
0.0
 10
143.470275
 20
143.339519
 30
0.0
 10
143.543443
 20
143.835506
 30
0.0
 10
143.676053
 20
144.345293
 30
0.0
 10
143.866785
 20
144.845802
 30
0.0
 10
144.114335
 20
145.313955
 30
0.0
 10
144.417386
 20
145.726674
 30
0.0
 10
144.774621
 20
146.060882
 30
0.0
 10
145.363065
 20
146.823204
 30
0.0
 10
145.694318
 20
147.765424
 30
0.0
 10
145.767679
 20
148.774317
 30
0.0
 10
145.582439
 20
149.736655
 30
0.0
 10
145.137899
 20
150.539212
 30
0.0
 10
144.433356
 20
151.068763
 30
0.0
 10
143.468103
 20
151.212080
 30
0.0
 10
142.241442
 20
150.855938
 30
0.0
 10
140.510141
 20
150.602025
 30
0.0
 10
139.877594
 20
150.512241
 30
0.0
 10
139.855422
 20
150.516895
 30
0.0
 10
139.955273
 20
150.546294
 30
0.0
 10
139.688768
 20
150.530747
 30
0.0
 10
138.567544
 20
150.400563
 30
0.0
 10
136.103225
 20
150.086051
 30
0.0
 10
131.807445
 20
149.517519
 30
0.0
 10
130.066561
 20
149.020338
 30
0.0
 10
128.406673
 20
148.521550
 30
0.0
 10
126.801883
 20
148.000660
 30
0.0
 10
125.226281
 20
147.437171
 30
0.0
 10
123.653960
 20
146.810587
 30
0.0
 10
122.059020
 20
146.100410
 30
0.0
 10
120.415553
 20
145.286144
 30
0.0
 10
118.697650
 20
144.347292
 30
0.0
 10
118.033377
 20
143.638119
 30
0.0
 10
117.420287
 20
142.655225
 30
0.0
 10
116.884783
 20
141.473043
 30
0.0
 10
116.453269
 20
140.165999
 30
0.0
 10
116.152149
 20
138.808528
 30
0.0
 10
116.007833
 20
137.475054
 30
0.0
 10
116.046718
 20
136.240011
 30
0.0
 10
116.295215
 20
135.177825
 30
0.0
 10
116.734270
 20
134.658565
 30
0.0
 10
117.361917
 20
134.017601
 30
0.0
 10
118.154590
 20
133.333060
 30
0.0
 10
119.088728
 20
132.683082
 30
0.0
 10
120.140767
 20
132.145798
 30
0.0
 10
121.287146
 20
131.799345
 30
0.0
 10
122.504295
 20
131.721851
 30
0.0
 10
123.768660
 20
131.991456
 30
0.0
 10
124.741443
 20
132.345429
 30
0.0
 10
126.256897
 20
132.696571
 30
0.0
 10
128.134462
 20
133.024408
 30
0.0
 10
130.193584
 20
133.308470
 30
0.0
 10
132.253710
 20
133.528288
 30
0.0
 10
134.134281
 20
133.663390
 30
0.0
 10
135.654743
 20
133.693304
 30
0.0
 10
136.634540
 20
133.597562
 30
0.0
 10
136.966471
 20
133.436589
 30
0.0
 10
137.277412
 20
133.306242
 30
0.0
 10
137.569258
 20
133.202674
 30
0.0
 10
137.843914
 20
133.122050
 30
0.0
 10
138.103271
 20
133.060521
 30
0.0
 10
138.349236
 20
133.014253
 30
0.0
 10
138.583702
 20
132.979400
 30
0.0
 10
138.808568
 20
132.952121
 30
0.0
 10
138.536288
 20
132.585901
 30
0.0
 10
138.275806
 20
132.228256
 30
0.0
 10
138.027860
 20
131.879540
 30
0.0
 10
137.793188
 20
131.540117
 30
0.0
 10
137.572525
 20
131.210345
 30
0.0
 10
137.366608
 20
130.890580
 30
0.0
 10
137.176174
 20
130.581185
 30
0.0
 10
137.001959
 20
130.282518
 30
0.0
 10
136.176726
 20
130.303605
 30
0.0
 10
135.305051
 20
130.318819
 30
0.0
 10
134.385264
 20
130.327894
 30
0.0
 10
133.415691
 20
130.330592
 30
0.0
 10
132.394656
 20
130.326677
 30
0.0
 10
131.320490
 20
130.315882
 30
0.0
 10
130.191518
 20
130.297969
 30
0.0
 10
129.006066
 20
130.272675
 30
0.0
 10
127.650687
 20
130.252091
 30
0.0
 10
126.300971
 20
130.234707
 30
0.0
 10
124.907728
 20
130.213752
 30
0.0
 10
123.421772
 20
130.182524
 30
0.0
 10
121.793918
 20
130.134269
 30
0.0
 10
119.974976
 20
130.062255
 30
0.0
 10
117.915764
 20
129.959739
 30
0.0
 10
115.567092
 20
129.819986
 30
0.0
 10
115.482193
 20
129.851064
 30
0.0
 10
115.394856
 20
129.880520
 30
0.0
 10
115.305356
 20
129.908484
 30
0.0
 10
115.213958
 20
129.935080
 30
0.0
 10
115.120939
 20
129.960427
 30
0.0
 10
115.026564
 20
129.984663
 30
0.0
 10
114.931108
 20
130.007920
 30
0.0
 10
114.834837
 20
130.030304
 30
0.0
 10
114.774038
 20
130.058140
 30
0.0
 10
114.714242
 20
130.086152
 30
0.0
 10
114.655642
 20
130.114359
 30
0.0
 10
114.598429
 20
130.142791
 30
0.0
 10
114.542798
 20
130.171472
 30
0.0
 10
114.488939
 20
130.200420
 30
0.0
 10
114.437049
 20
130.229667
 30
0.0
 10
114.387320
 20
130.259232
 30
0.0
 10
114.229814
 20
130.361364
 30
0.0
 10
114.082034
 20
130.469414
 30
0.0
 10
113.943440
 20
130.584320
 30
0.0
 10
113.813487
 20
130.707013
 30
0.0
 10
113.691638
 20
130.838426
 30
0.0
 10
113.577351
 20
130.979491
 30
0.0
 10
113.470084
 20
131.131140
 30
0.0
 10
113.369294
 20
131.294311
 30
0.0
 10
113.274451
 20
131.674562
 30
0.0
 10
113.185006
 20
132.403045
 30
0.0
 10
113.100422
 20
133.369081
 30
0.0
 10
113.020160
 20
134.461990
 30
0.0
 10
112.943685
 20
135.571089
 30
0.0
 10
112.870459
 20
136.585702
 30
0.0
 10
112.799945
 20
137.395145
 30
0.0
 10
112.731608
 20
137.888741
 30
0.0
 10
112.664909
 20
138.197647
 30
0.0
 10
112.599298
 20
138.527429
 30
0.0
 10
112.534229
 20
138.879015
 30
0.0
 10
112.469173
 20
139.253337
 30
0.0
 10
112.403591
 20
139.651324
 30
0.0
 10
112.336942
 20
140.073903
 30
0.0
 10
112.268693
 20
140.522006
 30
0.0
 10
112.198306
 20
140.996560
 30
0.0
 10
112.134494
 20
141.422516
 30
0.0
 10
112.068906
 20
141.842722
 30
0.0
 10
112.001480
 20
142.257297
 30
0.0
 10
111.932146
 20
142.666349
 30
0.0
 10
111.860849
 20
143.069992
 30
0.0
 10
111.787519
 20
143.468338
 30
0.0
 10
111.712097
 20
143.861501
 30
0.0
 10
111.634516
 20
144.249592
 30
0.0
 10
111.554736
 20
144.632720
 30
0.0
 10
111.472700
 20
145.010997
 30
0.0
 10
111.388356
 20
145.384541
 30
0.0
 10
111.301649
 20
145.753468
 30
0.0
 10
111.212529
 20
146.117893
 30
0.0
 10
111.120944
 20
146.477935
 30
0.0
 10
111.026842
 20
146.833708
 30
0.0
 10
110.930166
 20
147.185330
 30
0.0
 10
110.830873
 20
147.532910
 30
0.0
 10
110.728892
 20
147.876554
 30
0.0
 10
110.624168
 20
148.216377
 30
0.0
 10
110.516638
 20
148.552492
 30
0.0
 10
110.406249
 20
148.885015
 30
0.0
 10
110.292944
 20
149.214060
 30
0.0
 10
110.176665
 20
149.539740
 30
0.0
 10
110.057351
 20
149.862169
 30
0.0
 10
109.934944
 20
150.181454
 30
0.0
 10
109.809402
 20
150.497702
 30
0.0
 10
109.680666
 20
150.811029
 30
0.0
 10
109.548684
 20
151.121555
 30
0.0
 10
109.413395
 20
151.429396
 30
0.0
 10
109.274745
 20
151.734670
 30
0.0
 10
109.132677
 20
152.037495
 30
0.0
 10
108.987132
 20
152.337987
 30
0.0
 10
108.838061
 20
152.636255
 30
0.0
 10
108.685409
 20
152.932402
 30
0.0
 10
108.529120
 20
153.226543
 30
0.0
 10
108.369132
 20
153.518794
 30
0.0
 10
108.205394
 20
153.809268
 30
0.0
 10
108.037844
 20
154.098080
 30
0.0
 10
107.866429
 20
154.385345
 30
0.0
 10
107.691087
 20
154.671178
 30
0.0
 10
107.511749
 20
154.955705
 30
0.0
 10
107.328372
 20
155.239048
 30
0.0
 10
107.140899
 20
155.521312
 30
0.0
 10
106.949280
 20
155.802603
 30
0.0
 10
106.753459
 20
156.083025
 30
0.0
 10
106.553389
 20
156.362684
 30
0.0
 10
106.349012
 20
156.641686
 30
0.0
 10
106.140279
 20
156.920136
 30
0.0
 10
105.927118
 20
157.198156
 30
0.0
 10
105.709461
 20
157.475874
 30
0.0
 10
105.487258
 20
157.753403
 30
0.0
 10
105.260458
 20
158.030859
 30
0.0
 10
105.029011
 20
158.308355
 30
0.0
 10
104.792865
 20
158.586005
 30
0.0
 10
104.551972
 20
158.863923
 30
0.0
 10
104.306283
 20
159.142223
 30
0.0
 10
104.055757
 20
159.421013
 30
0.0
 10
103.800325
 20
159.700402
 30
0.0
 10
103.539925
 20
159.980506
 30
0.0
 10
103.274498
 20
160.261442
 30
0.0
 10
103.003972
 20
160.543327
 30
0.0
 10
102.728289
 20
160.826276
 30
0.0
 10
102.447384
 20
161.110406
 30
0.0
 10
102.161205
 20
161.395849
 30
0.0
 10
101.624286
 20
161.924229
 30
0.0
 10
101.118175
 20
162.414926
 30
0.0
 10
100.640526
 20
162.869832
 30
0.0
 10
100.188990
 20
163.290837
 30
0.0
 10
99.761225
 20
163.679833
 30
0.0
 10
99.354883
 20
164.038713
 30
0.0
 10
98.967618
 20
164.369366
 30
0.0
 10
98.597082
 20
164.673685
 30
0.0
 10
98.240932
 20
164.953556
 30
0.0
 10
97.896815
 20
165.210870
 30
0.0
 10
97.562358
 20
165.447524
 30
0.0
 10
97.235203
 20
165.665414
 30
0.0
 10
96.912983
 20
165.866438
 30
0.0
 10
96.593335
 20
166.052491
 30
0.0
 10
96.273887
 20
166.225472
 30
0.0
 10
95.952284
 20
166.387276
 30
0.0
 10
95.542611
 20
166.584875
 30
0.0
 10
95.150607
 20
166.771548
 30
0.0
 10
94.774808
 20
166.947601
 30
0.0
 10
94.413737
 20
167.113335
 30
0.0
 10
94.065926
 20
167.269057
 30
0.0
 10
93.729905
 20
167.415070
 30
0.0
 10
93.404201
 20
167.551679
 30
0.0
 10
93.087341
 20
167.679187
 30
0.0
 10
92.777842
 20
167.797898
 30
0.0
 10
92.474235
 20
167.908121
 30
0.0
 10
92.175057
 20
168.010161
 30
0.0
 10
91.878838
 20
168.104325
 30
0.0
 10
91.584111
 20
168.190919
 30
0.0
 10
91.289407
 20
168.270248
 30
0.0
 10
90.993262
 20
168.342620
 30
0.0
 10
90.694206
 20
168.408341
 30
0.0
 10
90.390755
 20
168.467719
 30
0.0
 10
90.081423
 20
168.521061
 30
0.0
 10
89.764746
 20
168.568670
 30
0.0
 10
89.439261
 20
168.610850
 30
0.0
 10
89.103504
 20
168.647902
 30
0.0
 10
88.756008
 20
168.680129
 30
0.0
 10
88.395313
 20
168.707834
 30
0.0
 10
88.019951
 20
168.731319
 30
0.0
 10
87.628452
 20
168.750892
 30
0.0
 10
87.219335
 20
168.766864
 30
0.0
 10
86.791131
 20
168.779540
 30
0.0
 10
86.342360
 20
168.789227
 30
0.0
 10
85.871553
 20
168.796228
 30
0.0
 10
85.377234
 20
168.800851
 30
0.0
 10
84.857931
 20
168.803401
 30
0.0
 10
84.312167
 20
168.804183
 30
0.0
 10
83.848337
 20
168.803961
 30
0.0
 10
83.409666
 20
168.803195
 30
0.0
 10
82.994939
 20
168.801738
 30
0.0
 10
82.602940
 20
168.799439
 30
0.0
 10
82.232455
 20
168.796151
 30
0.0
 10
81.882271
 20
168.791725
 30
0.0
 10
81.551169
 20
168.786011
 30
0.0
 10
81.237937
 20
168.778861
 30
0.0
 10
80.941365
 20
168.770128
 30
0.0
 10
80.660227
 20
168.759668
 30
0.0
 10
80.393315
 20
168.747341
 30
0.0
 10
80.139416
 20
168.733005
 30
0.0
 10
79.897325
 20
168.716521
 30
0.0
 10
79.665827
 20
168.697748
 30
0.0
 10
79.443720
 20
168.676545
 30
0.0
 10
79.229789
 20
168.652771
 30
0.0
 10
78.821563
 20
168.596919
 30
0.0
 10
78.431432
 20
168.529016
 30
0.0
 10
78.049692
 20
168.447894
 30
0.0
 10
77.666633
 20
168.352389
 30
0.0
 10
77.272557
 20
168.241333
 30
0.0
 10
76.857754
 20
168.113562
 30
0.0
 10
76.412519
 20
167.967910
 30
0.0
 10
75.927148
 20
167.803210
 30
0.0
 10
75.570773
 20
167.678311
 30
0.0
 10
75.221859
 20
167.550727
 30
0.0
 10
74.879906
 20
167.420127
 30
0.0
 10
74.544412
 20
167.286179
 30
0.0
 10
74.214879
 20
167.148550
 30
0.0
 10
73.890804
 20
167.006907
 30
0.0
 10
73.571687
 20
166.860919
 30
0.0
 10
73.257026
 20
166.710253
 30
0.0
 10
72.946329
 20
166.554567
 30
0.0
 10
72.639118
 20
166.393507
 30
0.0
 10
72.334898
 20
166.226726
 30
0.0
 10
72.033164
 20
166.053876
 30
0.0
 10
71.733423
 20
165.874609
 30
0.0
 10
71.435174
 20
165.688579
 30
0.0
 10
71.137918
 20
165.495437
 30
0.0
 10
70.841153
 20
165.294836
 30
0.0
 10
70.544373
 20
165.086431
 30
0.0
 10
70.247089
 20
164.869880
 30
0.0
 10
69.948814
 20
164.644850
 30
0.0
 10
69.649052
 20
164.411004
 30
0.0
 10
69.347310
 20
164.168006
 30
0.0
 10
69.043095
 20
163.915520
 30
0.0
 10
68.735916
 20
163.653210
 30
0.0
 10
68.425280
 20
163.380741
 30
0.0
 10
68.110674
 20
163.097771
 30
0.0
 10
67.791603
 20
162.803951
 30
0.0
 10
67.467570
 20
162.498936
 30
0.0
 10
67.138082
 20
162.182379
 30
0.0
 10
66.802646
 20
161.853935
 30
0.0
 10
66.460762
 20
161.513257
 30
0.0
 10
66.111938
 20
161.160001
 30
0.0
 10
65.755676
 20
160.793819
 30
0.0
 10
65.502039
 20
160.529195
 30
0.0
 10
65.252555
 20
160.264652
 30
0.0
 10
65.007180
 20
160.000118
 30
0.0
 10
64.765875
 20
159.735522
 30
0.0
 10
64.528602
 20
159.470793
 30
0.0
 10
64.295316
 20
159.205857
 30
0.0
 10
64.065978
 20
158.940646
 30
0.0
 10
63.840548
 20
158.675085
 30
0.0
 10
63.618994
 20
158.409114
 30
0.0
 10
63.401271
 20
158.142664
 30
0.0
 10
63.187355
 20
157.875656
 30
0.0
 10
62.977220
 20
157.608010
 30
0.0
 10
62.770843
 20
157.339649
 30
0.0
 10
62.568196
 20
157.070492
 30
0.0
 10
62.369250
 20
156.800462
 30
0.0
 10
62.173982
 20
156.529480
 30
0.0
 10
61.982353
 20
156.257461
 30
0.0
 10
61.794313
 20
155.984335
 30
0.0
 10
61.609830
 20
155.710037
 30
0.0
 10
61.428863
 20
155.434506
 30
0.0
 10
61.251378
 20
155.157676
 30
0.0
 10
61.077337
 20
154.879484
 30
0.0
 10
60.906705
 20
154.599868
 30
0.0
 10
60.739446
 20
154.318762
 30
0.0
 10
60.575526
 20
154.036085
 30
0.0
 10
60.414916
 20
153.751749
 30
0.0
 10
60.257582
 20
153.465679
 30
0.0
 10
60.103488
 20
153.177802
 30
0.0
 10
59.952604
 20
152.888046
 30
0.0
 10
59.804890
 20
152.596335
 30
0.0
 10
59.660316
 20
152.302597
 30
0.0
 10
59.518846
 20
152.006758
 30
0.0
 10
59.380464
 20
151.708746
 30
0.0
 10
59.245148
 20
151.408490
 30
0.0
 10
59.112849
 20
151.105916
 30
0.0
 10
58.983528
 20
150.800953
 30
0.0
 10
58.857139
 20
150.493526
 30
0.0
 10
58.733640
 20
150.183565
 30
0.0
 10
58.612987
 20
149.870995
 30
0.0
 10
58.495136
 20
149.555745
 30
0.0
 10
58.380056
 20
149.237743
 30
0.0
 10
58.267719
 20
148.916915
 30
0.0
 10
58.158097
 20
148.593188
 30
0.0
 10
58.051160
 20
148.266489
 30
0.0
 10
57.946883
 20
147.936746
 30
0.0
 10
57.845235
 20
147.603884
 30
0.0
 10
57.746188
 20
147.267832
 30
0.0
 10
57.649711
 20
146.928515
 30
0.0
 10
57.555778
 20
146.585866
 30
0.0
 10
57.464341
 20
146.239815
 30
0.0
 10
57.375362
 20
145.890285
 30
0.0
 10
57.288800
 20
145.537204
 30
0.0
 10
57.204626
 20
145.180496
 30
0.0
 10
57.122796
 20
144.820085
 30
0.0
 10
57.043278
 20
144.455899
 30
0.0
 10
56.966033
 20
144.087862
 30
0.0
 10
56.891021
 20
143.715912
 30
0.0
 10
56.818223
 20
143.339986
 30
0.0
 10
56.747606
 20
142.960005
 30
0.0
 10
56.679134
 20
142.575892
 30
0.0
 10
56.612774
 20
142.187570
 30
0.0
 10
56.548491
 20
141.794963
 30
0.0
 10
56.486248
 20
141.397990
 30
0.0
 10
56.426013
 20
140.996577
 30
0.0
 10
56.374419
 20
140.647518
 30
0.0
 10
56.324460
 20
140.314799
 30
0.0
 10
56.276012
 20
139.997955
 30
0.0
 10
56.228943
 20
139.696515
 30
0.0
 10
56.183125
 20
139.410017
 30
0.0
 10
56.138426
 20
139.137991
 30
0.0
 10
56.094720
 20
138.879966
 30
0.0
 10
56.051876
 20
138.635481
 30
0.0
 10
56.023682
 20
138.334422
 30
0.0
 10
56.018867
 20
137.932001
 30
0.0
 10
56.029714
 20
137.465739
 30
0.0
 10
56.048526
 20
136.973151
 30
0.0
 10
56.067550
 20
136.491760
 30
0.0
 10
56.079086
 20
136.059082
 30
0.0
 10
56.075382
 20
135.712634
 30
0.0
 10
56.048749
 20
135.489937
 30
0.0
 10
56.011003
 20
135.253344
 30
0.0
 10
55.974390
 20
134.864890
 30
0.0
 10
55.931779
 20
134.361629
 30
0.0
 10
55.876031
 20
133.780607
 30
0.0
 10
55.800014
 20
133.158873
 30
0.0
 10
55.696599
 20
132.533477
 30
0.0
 10
55.558645
 20
131.941472
 30
0.0
 10
55.379022
 20
131.419902
 30
0.0
 10
55.333604
 20
131.332452
 30
0.0
 10
55.272204
 20
131.238233
 30
0.0
 10
55.201614
 20
131.142930
 30
0.0
 10
55.128626
 20
131.052218
 30
0.0
 10
55.060035
 20
130.971774
 30
0.0
 10
55.002631
 20
130.907285
 30
0.0
 10
54.963208
 20
130.864427
 30
0.0
 10
54.948550
 20
130.848870
 30
0.0
 10
54.860627
 20
130.846489
 30
0.0
 10
54.618430
 20
130.836408
 30
0.0
 10
54.254321
 20
130.813866
 30
0.0
 10
53.800671
 20
130.774181
 30
0.0
 10
53.289838
 20
130.712657
 30
0.0
 10
52.754189
 20
130.624601
 30
0.0
 10
52.226086
 20
130.505319
 30
0.0
 10
51.737892
 20
130.350122
 30
0.0
 10
49.389221
 20
130.489875
 30
0.0
 10
47.330008
 20
130.592391
 30
0.0
 10
45.511066
 20
130.664405
 30
0.0
 10
43.883212
 20
130.712660
 30
0.0
 10
42.397257
 20
130.743889
 30
0.0
 10
41.004014
 20
130.764844
 30
0.0
 10
39.654297
 20
130.782227
 30
0.0
 10
38.298919
 20
130.802811
 30
0.0
 10
29.012666
 20
130.768998
 30
0.0
 10
24.005393
 20
130.200331
 30
0.0
 10
22.399973
 20
129.237026
 30
0.0
 10
23.319277
 20
128.019297
 30
0.0
 10
25.886180
 20
126.687358
 30
0.0
 10
29.223555
 20
125.381422
 30
0.0
 10
32.454273
 20
124.241708
 30
0.0
 10
34.701207
 20
123.408429
 30
0.0
 10
31.384454
 20
122.286443
 30
0.0
 10
28.124565
 20
121.224783
 30
0.0
 10
24.919358
 20
120.185521
 30
0.0
 10
21.766650
 20
119.130725
 30
0.0
 10
18.664254
 20
118.022471
 30
0.0
 10
15.609987
 20
116.822823
 30
0.0
 10
12.601665
 20
115.493853
 30
0.0
 10
9.637103
 20
113.997634
 30
0.0
 10
9.120738
 20
113.699838
 30
0.0
 10
8.610210
 20
113.372358
 30
0.0
 10
8.108478
 20
113.022803
 30
0.0
 10
7.618499
 20
112.658782
 30
0.0
 10
7.143231
 20
112.287905
 30
0.0
 10
6.685632
 20
111.917776
 30
0.0
 10
6.248658
 20
111.556009
 30
0.0
 10
5.835268
 20
111.210209
 30
0.0
 10
5.443155
 20
110.875882
 30
0.0
 10
5.067668
 20
110.543144
 30
0.0
 10
4.708248
 20
110.211529
 30
0.0
 10
4.364336
 20
109.880575
 30
0.0
 10
4.035374
 20
109.549814
 30
0.0
 10
3.720801
 20
109.218780
 30
0.0
 10
3.420060
 20
108.887011
 30
0.0
 10
3.132591
 20
108.554038
 30
0.0
 10
2.857824
 20
108.219386
 30
0.0
 10
2.595198
 20
107.882584
 30
0.0
 10
2.344167
 20
107.543171
 30
0.0
 10
2.104185
 20
107.200692
 30
0.0
 10
1.874705
 20
106.854683
 30
0.0
 10
1.655181
 20
106.504687
 30
0.0
 10
1.445067
 20
106.150246
 30
0.0
 10
1.243817
 20
105.790899
 30
0.0
 10
0.939354
 20
105.207962
 30
0.0
 10
0.697735
 20
104.675689
 30
0.0
 10
0.509985
 20
104.150996
 30
0.0
 10
0.367126
 20
103.590802
 30
0.0
 10
0.260182
 20
102.952023
 30
0.0
 10
0.180177
 20
102.191579
 30
0.0
 10
0.118135
 20
101.266387
 30
0.0
 10
0.065078
 20
100.133364
 30
0.0
 10
0.019105
 20
98.919218
 30
0.0
 10
-0.000099
 20
97.962429
 30
0.0
 10
0.016982
 20
97.200511
 30
0.0
 10
0.079865
 20
96.570977
 30
0.0
 10
0.198067
 20
96.011346
 30
0.0
 10
0.381104
 20
95.459132
 30
0.0
 10
0.638493
 20
94.851850
 30
0.0
 10
0.979751
 20
94.127013
 30
0.0
 10
1.474635
 20
93.206181
 30
0.0
 10
2.078955
 20
92.267474
 30
0.0
 10
2.778464
 20
91.326843
 30
0.0
 10
3.558914
 20
90.400248
 30
0.0
 10
4.406061
 20
89.503639
 30
0.0
 10
5.305657
 20
88.652972
 30
0.0
 10
6.243456
 20
87.864201
 30
0.0
 10
7.205211
 20
87.153279
 30
0.0
 10
8.272732
 20
86.456615
 30
0.0
 10
9.306938
 20
85.865258
 30
0.0
 10
10.337395
 20
85.369022
 30
0.0
 10
11.393667
 20
84.957722
 30
0.0
 10
12.505320
 20
84.621169
 30
0.0
 10
13.701918
 20
84.349175
 30
0.0
 10
15.013027
 20
84.131557
 30
0.0
 10
16.468211
 20
83.958126
 30
0.0
 10
20.834686
 20
83.492266
 30
0.0
 10
24.968952
 20
82.990195
 30
0.0
 10
28.774972
 20
82.451088
 30
0.0
 10
32.156707
 20
81.874130
 30
0.0
 10
35.018117
 20
81.258497
 30
0.0
 10
37.263171
 20
80.603368
 30
0.0
 10
38.795820
 20
79.907921
 30
0.0
 10
39.520035
 20
79.171337
 30
0.0
 10
39.652170
 20
78.775954
 30
0.0
 10
39.721147
 20
78.398383
 30
0.0
 10
39.714585
 20
77.992195
 30
0.0
 10
39.620134
 20
77.510963
 30
0.0
 10
39.425417
 20
76.908258
 30
0.0
 10
39.118064
 20
76.137659
 30
0.0
 10
38.685705
 20
75.152734
 30
0.0
 10
38.115976
 20
73.907057
 30
0.0
 10
36.919135
 20
71.427036
 30
0.0
 10
35.467113
 20
68.571319
 30
0.0
 10
33.860896
 20
65.488317
 30
0.0
 10
32.201474
 20
62.326435
 30
0.0
 10
30.589839
 20
59.234083
 30
0.0
 10
29.126979
 20
56.359666
 30
0.0
 10
27.913880
 20
53.851593
 30
0.0
 10
27.051534
 20
51.858275
 30
0.0
 10
26.849348
 20
51.342518
 30
0.0
 10
26.561759
 20
50.617792
 30
0.0
 10
26.202144
 20
49.717375
 30
0.0
 10
25.783877
 20
48.674541
 30
0.0
 10
25.320334
 20
47.522569
 30
0.0
 10
24.824887
 20
46.294728
 30
0.0
 10
24.310913
 20
45.024299
 30
0.0
 10
23.791784
 20
43.744557
 30
0.0
 10
23.245283
 20
42.392806
 30
0.0
 10
22.652872
 20
40.915997
 30
0.0
 10
22.033422
 20
39.361880
 30
0.0
 10
21.405802
 20
37.778203
 30
0.0
 10
20.788883
 20
36.212719
 30
0.0
 10
20.201535
 20
34.713172
 30
0.0
 10
19.662628
 20
33.327314
 30
0.0
 10
19.191032
 20
32.102891
 30
0.0
 10
18.757513
 20
30.975673
 30
0.0
 10
18.327716
 20
29.868402
 30
0.0
 10
17.912860
 20
28.809294
 30
0.0
 10
17.524161
 20
27.826563
 30
0.0
 10
17.172836
 20
26.948424
 30
0.0
 10
16.870103
 20
26.203095
 30
0.0
 10
16.627179
 20
25.618789
 30
0.0
 10
16.455281
 20
25.223724
 30
0.0
 10
15.579858
 20
23.199323
 30
0.0
 10
14.543502
 20
20.639289
 30
0.0
 10
13.418441
 20
17.739371
 30
0.0
 10
12.276907
 20
14.695326
 30
0.0
 10
11.191128
 20
11.702902
 30
0.0
 10
10.233335
 20
8.957860
 30
0.0
 10
9.475756
 20
6.655946
 30
0.0
 10
8.990621
 20
4.992918
 30
0.0
 10
8.777171
 20
4.057928
 30
0.0
 10
8.640474
 20
3.230779
 30
0.0
 10
8.580980
 20
2.506906
 30
0.0
 10
8.599138
 20
1.881746
 30
0.0
 10
8.695396
 20
1.350732
 30
0.0
 10
8.870203
 20
0.909301
 30
0.0
 10
9.124008
 20
0.552889
 30
0.0
 10
9.457260
 20
0.276929
 30
0.0
 10
9.539231
 20
0.242305
 30
0.0
 10
9.621203
 20
0.207682
 30
0.0
 10
9.703175
 20
0.173059
 30
0.0
 10
9.785147
 20
0.138435
 30
0.0
 10
9.867118
 20
0.103812
 30
0.0
 10
9.949090
 20
0.069189
 30
0.0
 10
10.031062
 20
0.034565
 30
0.0
 10
10.113034
 20
-0.000058
 30
0.0
 10
10.898404
 20
-0.103105
 30
0.0
 10
12.893594
 20
-0.270920
 30
0.0
 10
15.816420
 20
-0.456300
 30
0.0
 10
19.384698
 20
-0.612055
 30
0.0
 10
23.316245
 20
-0.690988
 30
0.0
 10
27.328874
 20
-0.645903
 30
0.0
 10
31.140406
 20
-0.429601
 30
0.0
 10
34.468653
 20
0.005109
 30
0.0
 10
35.995957
 20
0.429720
 30
0.0
 10
37.474134
 20
1.064837
 30
0.0
 10
38.920662
 20
1.826316
 30
0.0
 10
40.353010
 20
2.630014
 30
0.0
 10
41.788660
 20
3.391789
 30
0.0
 10
43.245086
 20
4.027501
 30
0.0
 10
44.739757
 20
4.453004
 30
0.0
 10
46.290154
 20
4.584158
 30
0.0
 10
47.640243
 20
4.391004
 30
0.0
 10
48.926293
 20
3.938937
 30
0.0
 10
50.168255
 20
3.303148
 30
0.0
 10
51.386085
 20
2.558825
 30
0.0
 10
52.599731
 20
1.781154
 30
0.0
 10
53.829149
 20
1.045324
 30
0.0
 10
55.094294
 20
0.426524
 30
0.0
 10
56.415118
 20
-0.000058
 30
0.0
 10
58.283259
 20
-0.366287
 30
0.0
 10
60.174212
 20
-0.631317
 30
0.0
 10
62.081220
 20
-0.798351
 30
0.0
 10
63.997518
 20
-0.870582
 30
0.0
 10
65.916345
 20
-0.851215
 30
0.0
 10
67.830942
 20
-0.743445
 30
0.0
 10
69.734545
 20
-0.550471
 30
0.0
 10
71.620391
 20
-0.275495
 30
0.0
 10
73.268806
 20
0.142343
 30
0.0
 10
74.868435
 20
0.775949
 30
0.0
 10
76.436520
 20
1.541341
 30
0.0
 10
77.990299
 20
2.354543
 30
0.0
 10
79.547014
 20
3.131577
 30
0.0
 10
81.123910
 20
3.788460
 30
0.0
 10
82.738228
 20
4.241221
 30
0.0
 10
84.407206
 20
4.405873
 30
0.0
 10
85.830279
 20
4.255222
 30
0.0
 10
87.205146
 20
3.862308
 30
0.0
 10
88.546798
 20
3.296774
 30
0.0
 10
89.870223
 20
2.628262
 30
0.0
 10
91.190414
 20
1.926410
 30
0.0
 10
92.522361
 20
1.260861
 30
0.0
 10
93.881052
 20
0.701254
 30
0.0
 10
95.281478
 20
0.317235
 30
0.0
 10
97.387395
 20
-0.043527
 30
0.0
 10
99.513560
 20
-0.321368
 30
0.0
 10
101.653470
 20
-0.511876
 30
0.0
 10
103.800620
 20
-0.610642
 30
0.0
 10
105.948513
 20
-0.613288
 30
0.0
 10
108.090640
 20
-0.515334
 30
0.0
 10
110.220504
 20
-0.312407
 30
0.0
 10
112.331601
 20
-0.000090
 30
0.0
 10
113.877588
 20
0.410334
 30
0.0
 10
115.373696
 20
1.032907
 30
0.0
 10
116.837553
 20
1.784781
 30
0.0
 10
118.286787
 20
2.583114
 30
0.0
 10
119.739025
 20
3.345058
 30
0.0
 10
121.211894
 20
3.987771
 30
0.0
 10
122.723024
 20
4.428411
 30
0.0
 10
124.290043
 20
4.584126
 30
0.0
 10
125.782600
 20
4.408786
 30
0.0
 10
127.216991
 20
3.962633
 30
0.0
 10
128.611438
 20
3.324349
 30
0.0
 10
129.984157
 20
2.572628
 30
0.0
 10
131.353370
 20
1.786152
 30
0.0
 10
132.737295
 20
1.043612
 30
0.0
 10
134.154154
 20
0.423691
 30
0.0
 10
135.622168
 20
0.005077
 30
0.0
 10
138.533678
 20
-0.391038
 30
0.0
 10
141.868306
 20
-0.589224
 30
0.0
 10
145.379536
 20
-0.631947
 30
0.0
 10
148.820858
 20
-0.561681
 30
0.0
 10
151.945756
 20
-0.420891
 30
0.0
 10
154.507719
 20
-0.252050
 30
0.0
 10
156.260232
 20
-0.097626
 30
0.0
 10
156.956785
 20
-0.000090
 30
0.0
 10
157.339261
 20
0.288353
 30
0.0
 10
157.725407
 20
0.677691
 30
0.0
 10
158.088392
 20
1.162960
 30
0.0
 10
158.401399
 20
1.739212
 30
0.0
 10
158.637601
 20
2.401488
 30
0.0
 10
158.770175
 20
3.144832
 30
0.0
 10
158.772292
 20
3.964292
 30
0.0
 10
158.617140
 20
4.854911
 30
0.0
 10
158.126971
 20
6.496714
 30
0.0
 10
157.351366
 20
8.833964
 30
0.0
 10
156.372471
 20
11.641820
 30
0.0
 10
155.272439
 20
14.695440
 30
0.0
 10
154.133416
 20
17.769983
 30
0.0
 10
153.037551
 20
20.640609
 30
0.0
 10
152.066994
 20
23.082475
 30
0.0
 10
151.303890
 20
24.870743
 30
0.0
 10
151.099227
 20
25.336683
 30
0.0
 10
150.824870
 20
25.987118
 30
0.0
 10
150.492792
 20
26.792386
 30
0.0
 10
150.114969
 20
27.722817
 30
0.0
 10
149.703375
 20
28.748744
 30
0.0
 10
149.269985
 20
29.840507
 30
0.0
 10
148.826776
 20
30.968434
 30
0.0
 10
148.385721
 20
32.102859
 30
0.0
 10
147.910014
 20
33.327282
 30
0.0
 10
147.367467
 20
34.713140
 30
0.0
 10
146.777015
 20
36.212687
 30
0.0
 10
146.157596
 20
37.778171
 30
0.0
 10
145.528145
 20
39.361848
 30
0.0
 10
144.907596
 20
40.915966
 30
0.0
 10
144.314884
 20
42.392775
 30
0.0
 10
143.768951
 20
43.744526
 30
0.0
 10
143.250820
 20
45.024268
 30
0.0
 10
142.737793
 20
46.294696
 30
0.0
 10
142.243221
 20
47.522537
 30
0.0
 10
141.780454
 20
48.674509
 30
0.0
 10
141.362836
 20
49.717344
 30
0.0
 10
141.003717
 20
50.617760
 30
0.0
 10
140.716443
 20
51.342486
 30
0.0
 10
140.514367
 20
51.858243
 30
0.0
 10
139.603229
 20
53.974495
 30
0.0
 10
138.344617
 20
56.591925
 30
0.0
 10
136.842993
 20
59.554499
 30
0.0
 10
135.202828
 20
62.706179
 30
0.0
 10
133.528584
 20
65.890931
 30
0.0
 10
131.924730
 20
68.952716
 30
0.0
 10
130.495734
 20
71.735498
 30
0.0
 10
129.346059
 20
74.083243
 30
0.0
 10
128.784576
 20
75.338948
 30
0.0
 10
128.369188
 20
76.413572
 30
0.0
 10
128.098165
 20
77.328718
 30
0.0
 10
127.969773
 20
78.105987
 30
0.0
 10
127.982288
 20
78.766987
 30
0.0
 10
128.133965
 20
79.333320
 30
0.0
 10
128.423081
 20
79.826588
 30
0.0
 10
128.847901
 20
80.268395
 30
0.0
 10
129.866031
 20
80.744748
 30
0.0
 10
131.724642
 20
81.228613
 30
0.0
 10
134.271576
 20
81.714176
 30
0.0
 10
137.354679
 20
82.195614
 30
0.0
 10
140.821797
 20
82.667113
 30
0.0
 10
144.520770
 20
83.122852
 30
0.0
 10
148.299443
 20
83.557012
 30
0.0
 10
152.005661
 20
83.963777
 30
0.0
 10
152.779368
 20
84.057416
 30
0.0
 10
153.573915
 20
84.172018
 30
0.0
 10
154.366712
 20
84.303119
 30
0.0
 10
155.135171
 20
84.446261
 30
0.0
 10
155.856700
 20
84.596983
 30
0.0
 10
156.508718
 20
84.750823
 30
0.0
 10
157.068629
 20
84.903321
 30
0.0
 10
157.513849
 20
85.050016
 30
0.0
 10
159.016939
 20
85.716721
 30
0.0
 10
160.523442
 20
86.580959
 30
0.0
 10
161.997732
 20
87.610807
 30
0.0
 10
163.404194
 20
88.774347
 30
0.0
 10
164.707206
 20
90.039656
 30
0.0
 10
165.871145
 20
91.374812
 30
0.0
 10
166.860395
 20
92.747894
 30
0.0
 10
167.639331
 20
94.126981
 30
0.0
 10
167.982684
 20
94.852485
 30
0.0
 10
168.241555
 20
95.459664
 30
0.0
 10
168.425559
 20
96.011291
 30
0.0
 10
168.544318
 20
96.570146
 30
0.0
 10
168.607439
 20
97.199000
 30
0.0
 10
168.624558
 20
97.960632
 30
0.0
 10
168.605270
 20
98.917818
 30
0.0
 10
168.559190
 20
100.133333
 30
0.0
 10
168.548659
 20
100.380736
 30
0.0
 10
168.537944
 20
100.616644
 30
0.0
 10
168.527016
 20
100.841932
 30
0.0
 10
168.515825
 20
101.057472
 30
0.0
 10
168.504342
 20
101.264143
 30
0.0
 10
168.492515
 20
101.462821
 30
0.0
 10
168.480317
 20
101.654377
 30
0.0
 10
168.467723
 20
101.839689
 30
0.0
 10
170.941771
 20
100.584781
 30
0.0
 10
173.447499
 20
99.071581
 30
0.0
 10
175.666337
 20
97.291406
 30
0.0
 10
177.279721
 20
95.235580
 30
0.0
 10
177.969083
 20
92.895417
 30
0.0
 10
177.415850
 20
90.262242
 30
0.0
 10
175.301461
 20
87.327367
 30
0.0
 10
171.307343
 20
84.082117
 30
0.0
 10
169.375628
 20
83.311942
 30
0.0
 10
167.422791
 20
82.672743
 30
0.0
 10
165.445690
 20
82.119880
 30
0.0
 10
163.441174
 20
81.608708
 30
0.0
 10
161.406105
 20
81.094588
 30
0.0
 10
159.337333
 20
80.532875
 30
0.0
 10
157.231716
 20
79.878928
 30
0.0
 10
155.086109
 20
79.088107
 30
0.0
 10
153.062020
 20
78.340728
 30
0.0
 10
151.262060
 20
77.409342
 30
0.0
 10
149.650834
 20
76.304471
 30
0.0
 10
148.192956
 20
75.036638
 30
0.0
 10
146.853035
 20
73.616362
 30
0.0
 10
145.595677
 20
72.054167
 30
0.0
 10
144.385494
 20
70.360577
 30
0.0
 10
143.187095
 20
68.546115
 30
0.0
 10
142.979839
 20
68.087274
 30
0.0
 10
142.777449
 20
67.219049
 30
0.0
 10
142.587544
 20
66.080243
 30
0.0
 10
142.417745
 20
64.809648
 30
0.0
 10
142.275677
 20
63.546061
 30
0.0
 10
142.168963
 20
62.428281
 30
0.0
 10
142.105219
 20
61.595101
 30
0.0
 10
142.092070
 20
61.185322
 30
0.0
 10
142.970526
 20
61.479845
 30
0.0
 10
144.189329
 20
62.021294
 30
0.0
 10
145.647535
 20
62.758344
 30
0.0
 10
147.244211
 20
63.639674
 30
0.0
 10
148.878415
 20
64.613959
 30
0.0
 10
150.449212
 20
65.629877
 30
0.0
 10
151.855663
 20
66.636104
 30
0.0
 10
152.996829
 20
67.581314
 30
0.0
 10
154.636399
 20
69.514559
 30
0.0
 10
156.562590
 20
70.875514
 30
0.0
 10
158.737772
 20
71.786750
 30
0.0
 10
161.124329
 20
72.370826
 30
0.0
 10
163.684636
 20
72.750312
 30
0.0
 10
166.381074
 20
73.047773
 30
0.0
 10
169.176016
 20
73.385770
 30
0.0
 10
172.031843
 20
73.886872
 30
0.0
 10
173.848121
 20
74.210590
 30
0.0
 10
175.986663
 20
74.807284
 30
0.0
 10
178.333292
 20
75.628725
 30
0.0
 10
180.773830
 20
76.626686
 30
0.0
 10
183.194098
 20
77.752945
 30
0.0
 10
185.479924
 20
78.959271
 30
0.0
 10
187.517123
 20
80.197441
 30
0.0
 10
189.191520
 20
81.419229
 30
0.0
 10
191.348512
 20
84.310815
 30
0.0
 10
192.865283
 20
87.607423
 30
0.0
 10
193.769571
 20
91.198412
 30
0.0
 10
194.089116
 20
94.973135
 30
0.0
 10
193.851660
 20
98.820954
 30
0.0
 10
193.084940
 20
102.631229
 30
0.0
 10
191.816697
 20
106.293317
 30
0.0
 10
190.074670
 20
109.696573
 30
0.0
 10
188.765546
 20
111.431895
 30
0.0
 10
187.557289
 20
112.976144
 30
0.0
 10
186.401004
 20
114.382108
 30
0.0
 10
185.247794
 20
115.702575
 30
0.0
 10
184.048758
 20
116.990336
 30
0.0
 10
182.754996
 20
118.298180
 30
0.0
 10
181.317612
 20
119.678897
 30
0.0
 10
179.687708
 20
121.185279
 30
0.0
 10
179.977143
 20
121.480744
 30
0.0
 10
180.781810
 20
121.838021
 30
0.0
 10
182.006246
 20
122.230589
 30
0.0
 10
183.554995
 20
122.631922
 30
0.0
 10
185.332596
 20
123.015497
 30
0.0
 10
187.243589
 20
123.354788
 30
0.0
 10
189.192512
 20
123.623271
 30
0.0
 10
191.083910
 20
123.794422
 30
0.0
 10
190.284828
 20
127.234744
 30
0.0
 10
190.585234
 20
129.789740
 30
0.0
 10
191.760105
 20
131.600840
 30
0.0
 10
193.584431
 20
132.809475
 30
0.0
 10
195.833196
 20
133.557081
 30
0.0
 10
198.281381
 20
133.985087
 30
0.0
 10
200.703972
 20
134.234928
 30
0.0
 10
202.875955
 20
134.448034
 30
0.0
 10
200.019193
 20
139.554918
 30
0.0
 10
198.233078
 20
144.091432
 30
0.0
 10
197.453341
 20
148.120447
 30
0.0
 10
197.615708
 20
151.704833
 30
0.0
 10
198.655909
 20
154.907464
 30
0.0
 10
200.509672
 20
157.791210
 30
0.0
 10
203.112728
 20
160.418943
 30
0.0
 10
206.400806
 20
162.853536
 30
0.0
 10
207.168849
 20
163.291683
 30
0.0
 10
208.258892
 20
163.823273
 30
0.0
 10
209.538923
 20
164.417289
 30
0.0
 10
210.876923
 20
165.042718
 30
0.0
 10
212.140878
 20
165.668546
 30
0.0
 10
213.198769
 20
166.263759
 30
0.0
 10
213.918579
 20
166.797341
 30
0.0
 10
214.168290
 20
167.238281
 30
0.0
 10
213.947704
 20
167.357389
 30
0.0
 10
213.549143
 20
167.450466
 30
0.0
 10
212.926817
 20
167.519029
 30
0.0
 10
212.034944
 20
167.564598
 30
0.0
 10
210.827732
 20
167.588691
 30
0.0
 10
209.259396
 20
167.592827
 30
0.0
 10
207.284146
 20
167.578526
 30
0.0
 10
204.856197
 20
167.547306
 30
0.0
 10
203.184758
 20
167.522428
 30
0.0
 10
201.768266
 20
167.502691
 30
0.0
 10
200.542034
 20
167.490295
 30
0.0
 10
199.441367
 20
167.487444
 30
0.0
 10
198.401568
 20
167.496339
 30
0.0
 10
197.357948
 20
167.519182
 30
0.0
 10
196.245812
 20
167.558174
 30
0.0
 10
195.000468
 20
167.615519
 30
0.0
 10
192.675175
 20
168.039713
 30
0.0
 10
190.551372
 20
168.838807
 30
0.0
 10
188.650386
 20
170.071967
 30
0.0
 10
186.993549
 20
171.798363
 30
0.0
 10
185.602190
 20
174.077160
 30
0.0
 10
184.497637
 20
176.967526
 30
0.0
 10
183.701217
 20
180.528629
 30
0.0
 10
183.234259
 20
184.819637
 30
0.0
 10
183.394790
 20
185.739263
 30
0.0
 10
183.766119
 20
186.876112
 30
0.0
 10
184.307095
 20
188.147615
 30
0.0
 10
184.976556
 20
189.471207
 30
0.0
 10
185.733347
 20
190.764320
 30
0.0
 10
186.536310
 20
191.944388
 30
0.0
 10
187.344292
 20
192.928843
 30
0.0
 10
188.116131
 20
193.635119
 30
0.0
 10
188.221166
 20
193.733150
 30
0.0
 10
188.300324
 20
193.816206
 30
0.0
 10
188.350841
 20
193.884856
 30
0.0
 10
188.369944
 20
193.939672
 30
0.0
 10
188.354862
 20
193.981224
 30
0.0
 10
188.302835
 20
194.010081
 30
0.0
 10
188.211088
 20
194.026814
 30
0.0
  0
ENDSEC
  0
SECTION
  2
OBJECTS
  0
DICTIONARY
  5
C
330
0
100
AcDbDictionary
  3
ACAD_GROUP
350
D
  3
ACAD_MLINESTYLE
350
17
  0
DICTIONARY
  5
D
330
C
100
AcDbDictionary
  0
DICTIONARY
  5
1A
330
C
100
AcDbDictionary
  0
DICTIONARY
  5
17
330
C
100
AcDbDictionary
  3
STANDARD
350
18
  0
DICTIONARY
  5
19
330
C
100
AcDbDictionary
  0
ENDSEC
  0
EOF
