<?xml version="1.0" encoding="UTF-8" standalone="no"?>
<!-- Created with Inkscape (http://www.inkscape.org/) -->

<svg
   xmlns:dc="http://purl.org/dc/elements/1.1/"
   xmlns:cc="http://creativecommons.org/ns#"
   xmlns:rdf="http://www.w3.org/1999/02/22-rdf-syntax-ns#"
   xmlns:svg="http://www.w3.org/2000/svg"
   xmlns="http://www.w3.org/2000/svg"
   xmlns:sodipodi="http://sodipodi.sourceforge.net/DTD/sodipodi-0.dtd"
   xmlns:inkscape="http://www.inkscape.org/namespaces/inkscape"
   version="1.1"
   id="svg80"
   width="637.32123"
   height="638.00006"
   viewBox="0 0 637.32122 638.00006"
   sodipodi:docname="meeple_hockey.svg"
   inkscape:version="0.92.4 5da689c313, 2019-01-14">
  <metadata
     id="metadata86">
    <rdf:RDF>
      <cc:Work
         rdf:about="">
        <dc:format>image/svg+xml</dc:format>
        <dc:type
           rdf:resource="http://purl.org/dc/dcmitype/StillImage" />
        <dc:title />
      </cc:Work>
    </rdf:RDF>
  </metadata>
  <defs
     id="defs84" />
  <sodipodi:namedview
     pagecolor="#ffffff"
     bordercolor="#666666"
     borderopacity="1"
     objecttolerance="10"
     gridtolerance="10"
     guidetolerance="10"
     inkscape:pageopacity="0"
     inkscape:pageshadow="2"
     inkscape:window-width="1920"
     inkscape:window-height="1012"
     id="namedview82"
     showgrid="false"
     inkscape:zoom="0.81621109"
     inkscape:cx="-12.785639"
     inkscape:cy="340.91194"
     inkscape:window-x="1280"
     inkscape:window-y="0"
     inkscape:window-maximized="1"
     inkscape:current-layer="svg80"
     showguides="true">
    <inkscape:grid
       type="xygrid"
       id="grid60"
       originx="663.22299"
       originy="-59.999997" />
  </sodipodi:namedview>
  <path
     style="fill:#000000;stroke-width:1.33333337"
     d="m 49.743642,636.95248 c -3.76063,-2.39123 -4.29973,-7.8408 -1.76314,-17.82311 3.27394,-12.88401 18.694532,-49.6148 26.464032,-66.66129 1.3369,-2.93333 -6.261432,-24.43472 -1.911032,-35.80139 4.3505,-11.36667 12.1754,-31.16667 17.3887,-44 5.2132,-12.83334 10.756998,-26.63334 12.319498,-30.66667 6.5845,-16.99753 31.3821,-60.7297 41.8195,-83.33334 6.476,-14.02484 6.9136,-15.6658 5.3051,-19.89648 -2.9025,-7.6339 -42.2672,-13.57776 -87.123298,-18.09332 -15.4918,-1.55952 -23.98313,-4.48812 -35.00961,-12.07453 -9.76614,-6.71928 -19.1411095,-17.2214 -23.5295795,-26.35855 -3.89406,-8.10776 -4.0234,-8.95707 -3.45713,-22.70097 0.51962,-12.61151 1.03963,-15.10738 4.45509,-21.3827 1.98551,-3.64803 4.30478,-7.07881 7.1370995,-10.44239 2.83232,-3.36357 6.17768,-6.65993 10.21535,-10.03911 4.03767,-3.37919 9.190159,-7.6286 14.36921,-10.53605 31.136683,-17.47972 65.339988,-29.02682 99.062588,-40.76647 12.11433,-4.21729 24.57593,-7.38149 36.98775,-10.62019 7.35681,-1.91967 14.99212,-2.81259 22.20417,-5.21971 8.23827,-2.74963 20.03679,-2.66861 23.86029,-10.46671 2.31331,-4.71803 -3.12268,-10.0843 -3.83393,-15.29058 -1.68634,-12.34392 -1.80485,-24.932858 -0.96687,-37.36322 0.46938,-6.962673 2.72617,-13.715443 3.34564,-20.66637 0.82869,-9.298559 -2.80717,-19.265958 0.4838,-28.00206 4.00783,-10.639078 11.43346,-21.966092 22.05714,-26.014555 5.15596,-1.964828 10.97304,3.335704 16.39248,2.299312 3.92869,-0.751307 6.91118,-4.031676 10.42979,-5.933898 3.4375,-1.8583694 6.83917,-3.8109568 10.43079,-5.3504997 3.83744,-1.6449158 7.84629,-2.86426832 11.82516,-4.1293 3.69591,-1.1750689 7.34323,-2.6637075 11.1825,-3.21198 10.82023,-1.5452007 21.90361,-1.1089327 32.78977,-0.1308993 4.28989,0.3854116 8.52911,1.2997612 12.70528,2.3539317 3.36486,0.84937458 6.72554,1.81139329 9.91073,3.1891642 3.6342,1.5719923 6.98743,3.7323232 10.39504,5.7489483 3.24565,1.9207769 5.93633,5.0149468 9.56463,6.0440458 6.24389,1.77096 13.62278,-3.028227 19.4694,-0.210515 9.83883,4.741714 16.37084,15.595886 20.1355,25.848384 2.9113,7.928514 0.34272,16.900777 1.06452,25.316003 0.75376,8.787769 2.95077,17.43165 3.40662,26.239898 0.59346,11.46712 0.39158,23.02474 -0.88485,34.43604 -0.64093,5.72995 -6.20576,11.9324 -3.38716,16.96217 2.34338,4.18175 8.91833,3.545 13.49831,4.96001 8.2618,2.55253 16.85255,3.92279 25.15298,6.34674 6.65284,1.94281 13.0708,4.63941 19.72953,6.56194 6.52585,1.88416 13.31938,2.79265 19.78796,4.86492 37.91466,12.14631 76.59737,24.08827 110.96291,44.18962 6.25136,3.65659 12.149,8.81216 16.9004,13.65384 4.7514,4.84168 8.6005,9.95315 11.4866,15.27261 3.4658,6.38798 3.9798,8.84206 4.5009,21.48964 0.5671,13.76357 0.4418,14.58161 -3.4768,22.70097 -6.6712,13.82248 -23.2561,28.69091 -38.2685,34.30777 -3.8334,1.43428 -13.202,3.28127 -20.8191,4.10442 -36.4777,3.94207 -82.0097,9.22307 -87.5245,13.96669 -4.9597,4.26611 -4.5194,9.7363 1.8817,23.37734 9.8287,20.94577 35.1311,65.72071 42.2122,84 1.5625,4.03333 7.0979,17.83333 12.3009,30.66667 5.203,12.83333 15.50563,36.30885 19.89973,47.67552 4.3942,11.36667 -4.11999,29.79253 -2.44869,33.45919 6.3697,13.97439 27.44226,53.56226 30.66816,65.84959 2.4464,9.31826 -2.52961,15.96698 -6.27591,18.34906 -0.8708,0.55369 -26.07939,-0.0317 -88.22939,-0.0204 -112.0897,0.0203 -93.29909,7.62824 -96.00559,4.9211 -1.5488,-1.54877 -6.04133,-33.42922 -12.97457,-44.38467 -6.93324,-10.95545 -19.37012,-7.11177 -23.33074,-18.07374 -7.92124,-21.92394 -12.289,-45.17946 -24.49002,-64.7746 -4.5657,-7.33262 -9.07451,-18.6546 -17.70833,-18.91905 -9.84308,-0.3015 -15.77131,12.26209 -21.4708,20.29285 -13.4005,18.88176 -18.84691,43.7494 -28.37585,63.4008 -4.76447,9.8257 -15.68048,10.04221 -21.21705,20.79462 -4.65976,8.33139 -8.66086,34.43779 -15.26058,41.35743 l -95.88517,-4.6148 c -62.121398,-0.0107 -87.18112,0.57416 -88.05191,0.0205 z"
     id="path195-3"
     inkscape:connector-curvature="0"
     sodipodi:nodetypes="csccccccsssssssaaaaaaaaaaaaaaaaaaaaaaaaaaaaaaasccccccccsccscscssaaasccccc" />
  <path
     style="fill:#000000;stroke-width:1.95093942"
     d="m -104.48196,665.97116 c -19.75985,1.27696 -67.8936,14.23832 -97.38353,8.33771 -8.7854,-19.393 -21.85208,-71.05778 -4.13283,-104.5363 40.99755,-21.22678 121.875671,-12.62333 153.542856,-24.02478 31.173903,-10.16318 36.334897,-23.25884 45.1454675,-62.67522 C 10.5435,403.2003 17.881446,353.54044 35.595533,275.943 53.491726,184.17202 69.184176,108.52114 81.704254,41.153127 84.009384,39.728597 102.39426,18.70337 113.58093,28.44335 c 7.55846,6.58098 37.00937,22.66415 37.11897,24.18604 -9.31396,56.08479 -23.98013,147.68962 -35.47691,206 C 90.334416,377.26887 69.477677,486.76027 39.150242,590.88113 30.772579,622.23082 19.436257,636.03762 14.050935,642.1063"
     id="path928"
     inkscape:connector-curvature="0"
     sodipodi:nodetypes="cccccccscccc" />
  <path
     style="color:#000000;font-style:normal;font-variant:normal;font-weight:normal;font-stretch:normal;font-size:medium;line-height:normal;font-family:sans-serif;font-variant-ligatures:normal;font-variant-position:normal;font-variant-caps:normal;font-variant-numeric:normal;font-variant-alternates:normal;font-feature-settings:normal;text-indent:0;text-align:start;text-decoration:none;text-decoration-line:none;text-decoration-style:solid;text-decoration-color:#000000;letter-spacing:normal;word-spacing:normal;text-transform:none;writing-mode:lr-tb;direction:ltr;text-orientation:mixed;dominant-baseline:auto;baseline-shift:baseline;text-anchor:start;white-space:normal;shape-padding:0;clip-rule:nonzero;display:inline;overflow:visible;visibility:visible;opacity:1;isolation:auto;mix-blend-mode:normal;color-interpolation:sRGB;color-interpolation-filters:linearRGB;solid-color:#000000;solid-opacity:1;vector-effect:none;fill:#000000;fill-opacity:1;fill-rule:nonzero;stroke:none;stroke-width:1.09946656;stroke-linecap:butt;stroke-linejoin:miter;stroke-miterlimit:4;stroke-dasharray:none;stroke-dashoffset:0;stroke-opacity:1;color-rendering:auto;image-rendering:auto;shape-rendering:auto;text-rendering:auto;enable-background:accumulate"
     d="m 64.333158,624.11617 c -7.541399,0 -14.374689,3.00433 -19.322629,7.86161 C 40.062589,636.83505 37,643.54527 37,650.95704 c 0,7.41177 3.062589,14.12252 8.010529,18.98035 4.94794,4.8578 11.78123,7.86267 19.322629,7.86267 7.541401,0 14.374691,-3.00487 19.322631,-7.86267 4.94794,-4.85783 8.010529,-11.56858 8.010529,-18.98035 0,-7.41177 -3.062589,-14.12199 -8.010529,-18.97926 -4.94794,-4.85728 -11.78123,-7.86161 -19.322631,-7.86161 z"
     id="path3972"
     inkscape:connector-curvature="0"
     sodipodi:nodetypes="sssssssss" />
  <path
     style="color:#000000;font-style:normal;font-variant:normal;font-weight:normal;font-stretch:normal;font-size:medium;line-height:normal;font-family:sans-serif;font-variant-ligatures:normal;font-variant-position:normal;font-variant-caps:normal;font-variant-numeric:normal;font-variant-alternates:normal;font-feature-settings:normal;text-indent:0;text-align:start;text-decoration:none;text-decoration-line:none;text-decoration-style:solid;text-decoration-color:#000000;letter-spacing:normal;word-spacing:normal;text-transform:none;writing-mode:lr-tb;direction:ltr;text-orientation:mixed;dominant-baseline:auto;baseline-shift:baseline;text-anchor:start;white-space:normal;shape-padding:0;clip-rule:nonzero;display:inline;overflow:visible;visibility:visible;opacity:1;isolation:auto;mix-blend-mode:normal;color-interpolation:sRGB;color-interpolation-filters:linearRGB;solid-color:#000000;solid-opacity:1;vector-effect:none;fill:#000000;fill-opacity:1;fill-rule:nonzero;stroke:none;stroke-width:1.0994705;stroke-linecap:butt;stroke-linejoin:miter;stroke-miterlimit:4;stroke-dasharray:none;stroke-dashoffset:0;stroke-opacity:1;color-rendering:auto;image-rendering:auto;shape-rendering:auto;text-rendering:auto;enable-background:accumulate"
     d="m 112.3311,624.11812 c -7.54142,0 -14.3742,3.00434 -19.321616,7.86164 C 88.062064,636.83705 85,643.54729 85,650.9591 c 0,7.41179 3.062064,14.12204 8.009484,18.97932 4.947416,4.8573 11.780196,7.86164 19.321616,7.86164 7.54143,0 14.37474,-3.00434 19.3227,-7.86164 4.94796,-4.85728 8.01056,-11.56753 8.01056,-18.97932 0,-7.41181 -3.0626,-14.12205 -8.01056,-18.97934 -4.94796,-4.8573 -11.78127,-7.86164 -19.3227,-7.86164 z"
     id="path3972-3"
     inkscape:connector-curvature="0"
     sodipodi:nodetypes="sssssssss" />
  <path
     style="color:#000000;font-style:normal;font-variant:normal;font-weight:normal;font-stretch:normal;font-size:medium;line-height:normal;font-family:sans-serif;font-variant-ligatures:normal;font-variant-position:normal;font-variant-caps:normal;font-variant-numeric:normal;font-variant-alternates:normal;font-feature-settings:normal;text-indent:0;text-align:start;text-decoration:none;text-decoration-line:none;text-decoration-style:solid;text-decoration-color:#000000;letter-spacing:normal;word-spacing:normal;text-transform:none;writing-mode:lr-tb;direction:ltr;text-orientation:mixed;dominant-baseline:auto;baseline-shift:baseline;text-anchor:start;white-space:normal;shape-padding:0;clip-rule:nonzero;display:inline;overflow:visible;visibility:visible;opacity:1;isolation:auto;mix-blend-mode:normal;color-interpolation:sRGB;color-interpolation-filters:linearRGB;solid-color:#000000;solid-opacity:1;vector-effect:none;fill:#000000;fill-opacity:1;fill-rule:nonzero;stroke:none;stroke-width:1.11194623;stroke-linecap:butt;stroke-linejoin:miter;stroke-miterlimit:4;stroke-dasharray:none;stroke-dashoffset:0;stroke-opacity:1;color-rendering:auto;image-rendering:auto;shape-rendering:auto;text-rendering:auto;enable-background:accumulate"
     d="m 160.77742,622.89294 c -7.54143,0 -14.37474,3.07291 -19.3227,8.04106 -4.94796,4.96815 -8.01055,11.83154 -8.01055,19.4125 0,7.58095 3.06259,14.44435 8.01055,19.41249 4.94796,4.96816 11.78127,8.04107 19.3227,8.04107 7.54144,0 14.37421,-3.07291 19.32163,-8.04107 4.94742,-4.96814 8.00948,-11.83154 8.00948,-19.41249 0,-7.58096 -3.06206,-14.44435 -8.00948,-19.4125 -4.94742,-4.96815 -11.7802,-8.04106 -19.32163,-8.04106 z"
     id="path3972-6"
     inkscape:connector-curvature="0"
     sodipodi:nodetypes="sssssssss" />
  <path
     style="color:#000000;font-style:normal;font-variant:normal;font-weight:normal;font-stretch:normal;font-size:medium;line-height:normal;font-family:sans-serif;font-variant-ligatures:normal;font-variant-position:normal;font-variant-caps:normal;font-variant-numeric:normal;font-variant-alternates:normal;font-feature-settings:normal;text-indent:0;text-align:start;text-decoration:none;text-decoration-line:none;text-decoration-style:solid;text-decoration-color:#000000;letter-spacing:normal;word-spacing:normal;text-transform:none;writing-mode:lr-tb;direction:ltr;text-orientation:mixed;dominant-baseline:auto;baseline-shift:baseline;text-anchor:start;white-space:normal;shape-padding:0;clip-rule:nonzero;display:inline;overflow:visible;visibility:visible;opacity:1;isolation:auto;mix-blend-mode:normal;color-interpolation:sRGB;color-interpolation-filters:linearRGB;solid-color:#000000;solid-opacity:1;vector-effect:none;fill:#000000;fill-opacity:1;fill-rule:nonzero;stroke:none;stroke-width:1.12433803;stroke-linecap:butt;stroke-linejoin:miter;stroke-miterlimit:4;stroke-dasharray:none;stroke-dashoffset:0;stroke-opacity:1;color-rendering:auto;image-rendering:auto;shape-rendering:auto;text-rendering:auto;enable-background:accumulate"
     d="m 210.2425,622.89294 c -7.71045,0 -14.69637,3.07291 -19.75467,8.04106 -5.0583,4.96815 -8.189,11.83154 -8.189,19.4125 0,7.58095 3.1307,14.44435 8.189,19.41249 5.0583,4.96816 12.04422,8.04107 19.75467,8.04107 7.71045,0 14.69691,-3.07291 19.75577,-8.04107 5.05885,-4.96814 8.1901,-11.83154 8.1901,-19.41249 0,-7.58096 -3.13125,-14.44435 -8.1901,-19.4125 -5.05886,-4.96815 -12.04532,-8.04106 -19.75577,-8.04106 z"
     id="path3972-7"
     inkscape:connector-curvature="0"
     sodipodi:nodetypes="sssssssss" />
  <path
     style="color:#000000;font-style:normal;font-variant:normal;font-weight:normal;font-stretch:normal;font-size:medium;line-height:normal;font-family:sans-serif;font-variant-ligatures:normal;font-variant-position:normal;font-variant-caps:normal;font-variant-numeric:normal;font-variant-alternates:normal;font-feature-settings:normal;text-indent:0;text-align:start;text-decoration:none;text-decoration-line:none;text-decoration-style:solid;text-decoration-color:#000000;letter-spacing:normal;word-spacing:normal;text-transform:none;writing-mode:lr-tb;direction:ltr;text-orientation:mixed;dominant-baseline:auto;baseline-shift:baseline;text-anchor:start;white-space:normal;shape-padding:0;clip-rule:nonzero;display:inline;overflow:visible;visibility:visible;opacity:1;isolation:auto;mix-blend-mode:normal;color-interpolation:sRGB;color-interpolation-filters:linearRGB;solid-color:#000000;solid-opacity:1;vector-effect:none;fill:#000000;fill-opacity:1;fill-rule:nonzero;stroke:none;stroke-width:1.09946656;stroke-linecap:butt;stroke-linejoin:miter;stroke-miterlimit:4;stroke-dasharray:none;stroke-dashoffset:0;stroke-opacity:1;color-rendering:auto;image-rendering:auto;shape-rendering:auto;text-rendering:auto;enable-background:accumulate"
     d="m 427.33316,624.11617 c -7.5414,0 -14.37469,3.00433 -19.32263,7.86161 C 403.06259,636.83505 400,643.54527 400,650.95704 c 0,7.41177 3.06259,14.12252 8.01053,18.98035 4.94794,4.8578 11.78123,7.86267 19.32263,7.86267 7.5414,0 14.37469,-3.00487 19.32263,-7.86267 4.94794,-4.85783 8.01053,-11.56858 8.01053,-18.98035 0,-7.41177 -3.06259,-14.12199 -8.01053,-18.97926 -4.94794,-4.85728 -11.78123,-7.86161 -19.32263,-7.86161 z"
     id="path3972-2"
     inkscape:connector-curvature="0"
     sodipodi:nodetypes="sssssssss" />
  <path
     style="color:#000000;font-style:normal;font-variant:normal;font-weight:normal;font-stretch:normal;font-size:medium;line-height:normal;font-family:sans-serif;font-variant-ligatures:normal;font-variant-position:normal;font-variant-caps:normal;font-variant-numeric:normal;font-variant-alternates:normal;font-feature-settings:normal;text-indent:0;text-align:start;text-decoration:none;text-decoration-line:none;text-decoration-style:solid;text-decoration-color:#000000;letter-spacing:normal;word-spacing:normal;text-transform:none;writing-mode:lr-tb;direction:ltr;text-orientation:mixed;dominant-baseline:auto;baseline-shift:baseline;text-anchor:start;white-space:normal;shape-padding:0;clip-rule:nonzero;display:inline;overflow:visible;visibility:visible;opacity:1;isolation:auto;mix-blend-mode:normal;color-interpolation:sRGB;color-interpolation-filters:linearRGB;solid-color:#000000;solid-opacity:1;vector-effect:none;fill:#000000;fill-opacity:1;fill-rule:nonzero;stroke:none;stroke-width:1.0994705;stroke-linecap:butt;stroke-linejoin:miter;stroke-miterlimit:4;stroke-dasharray:none;stroke-dashoffset:0;stroke-opacity:1;color-rendering:auto;image-rendering:auto;shape-rendering:auto;text-rendering:auto;enable-background:accumulate"
     d="m 475.33111,624.11812 c -7.54142,0 -14.3742,3.00434 -19.32162,7.86164 C 451.06207,636.83705 448,643.54729 448,650.9591 c 0,7.41179 3.06207,14.12204 8.00949,18.97932 4.94742,4.8573 11.7802,7.86164 19.32162,7.86164 7.54143,0 14.37474,-3.00434 19.3227,-7.86164 4.94795,-4.85728 8.01055,-11.56753 8.01055,-18.97932 0,-7.41181 -3.0626,-14.12205 -8.01055,-18.97934 -4.94796,-4.8573 -11.78127,-7.86164 -19.3227,-7.86164 z"
     id="path3972-3-9"
     inkscape:connector-curvature="0"
     sodipodi:nodetypes="sssssssss" />
  <path
     style="color:#000000;font-style:normal;font-variant:normal;font-weight:normal;font-stretch:normal;font-size:medium;line-height:normal;font-family:sans-serif;font-variant-ligatures:normal;font-variant-position:normal;font-variant-caps:normal;font-variant-numeric:normal;font-variant-alternates:normal;font-feature-settings:normal;text-indent:0;text-align:start;text-decoration:none;text-decoration-line:none;text-decoration-style:solid;text-decoration-color:#000000;letter-spacing:normal;word-spacing:normal;text-transform:none;writing-mode:lr-tb;direction:ltr;text-orientation:mixed;dominant-baseline:auto;baseline-shift:baseline;text-anchor:start;white-space:normal;shape-padding:0;clip-rule:nonzero;display:inline;overflow:visible;visibility:visible;opacity:1;isolation:auto;mix-blend-mode:normal;color-interpolation:sRGB;color-interpolation-filters:linearRGB;solid-color:#000000;solid-opacity:1;vector-effect:none;fill:#000000;fill-opacity:1;fill-rule:nonzero;stroke:none;stroke-width:1.11194623;stroke-linecap:butt;stroke-linejoin:miter;stroke-miterlimit:4;stroke-dasharray:none;stroke-dashoffset:0;stroke-opacity:1;color-rendering:auto;image-rendering:auto;shape-rendering:auto;text-rendering:auto;enable-background:accumulate"
     d="m 523.73819,622.89294 c -7.54143,0 -14.37474,3.07291 -19.3227,8.04106 -4.94795,4.96815 -8.01054,11.83154 -8.01054,19.4125 0,7.58095 3.06259,14.44435 8.01054,19.41249 4.94796,4.96816 11.78127,8.04107 19.3227,8.04107 7.54144,0 14.37421,-3.07291 19.32163,-8.04107 4.94742,-4.96814 8.00948,-11.83154 8.00948,-19.41249 0,-7.58096 -3.06206,-14.44435 -8.00948,-19.4125 -4.94742,-4.96815 -11.7802,-8.04106 -19.32163,-8.04106 z"
     id="path3972-6-1"
     inkscape:connector-curvature="0"
     sodipodi:nodetypes="sssssssss" />
  <path
     style="color:#000000;font-style:normal;font-variant:normal;font-weight:normal;font-stretch:normal;font-size:medium;line-height:normal;font-family:sans-serif;font-variant-ligatures:normal;font-variant-position:normal;font-variant-caps:normal;font-variant-numeric:normal;font-variant-alternates:normal;font-feature-settings:normal;text-indent:0;text-align:start;text-decoration:none;text-decoration-line:none;text-decoration-style:solid;text-decoration-color:#000000;letter-spacing:normal;word-spacing:normal;text-transform:none;writing-mode:lr-tb;direction:ltr;text-orientation:mixed;dominant-baseline:auto;baseline-shift:baseline;text-anchor:start;white-space:normal;shape-padding:0;clip-rule:nonzero;display:inline;overflow:visible;visibility:visible;opacity:1;isolation:auto;mix-blend-mode:normal;color-interpolation:sRGB;color-interpolation-filters:linearRGB;solid-color:#000000;solid-opacity:1;vector-effect:none;fill:#000000;fill-opacity:1;fill-rule:nonzero;stroke:none;stroke-width:1.12433803;stroke-linecap:butt;stroke-linejoin:miter;stroke-miterlimit:4;stroke-dasharray:none;stroke-dashoffset:0;stroke-opacity:1;color-rendering:auto;image-rendering:auto;shape-rendering:auto;text-rendering:auto;enable-background:accumulate"
     d="m 573.35642,622.89294 c -7.71045,0 -14.69637,3.07291 -19.75467,8.04106 -5.0583,4.96815 -8.189,11.83154 -8.189,19.4125 0,7.58095 3.1307,14.44435 8.189,19.41249 5.0583,4.96816 12.04422,8.04107 19.75467,8.04107 7.71045,0 14.69691,-3.07291 19.75577,-8.04107 5.05885,-4.96814 8.1901,-11.83154 8.1901,-19.41249 0,-7.58096 -3.13125,-14.44435 -8.1901,-19.4125 -5.05886,-4.96815 -12.04532,-8.04106 -19.75577,-8.04106 z"
     id="path3972-7-2"
     inkscape:connector-curvature="0"
     sodipodi:nodetypes="sssssssss" />
</svg>
