<?xml version="1.0" encoding="UTF-8" standalone="no"?>
<!-- Created with Inkscape (http://www.inkscape.org/) -->

<svg
   xmlns:dc="http://purl.org/dc/elements/1.1/"
   xmlns:cc="http://creativecommons.org/ns#"
   xmlns:rdf="http://www.w3.org/1999/02/22-rdf-syntax-ns#"
   xmlns:svg="http://www.w3.org/2000/svg"
   xmlns="http://www.w3.org/2000/svg"
   xmlns:sodipodi="http://sodipodi.sourceforge.net/DTD/sodipodi-0.dtd"
   xmlns:inkscape="http://www.inkscape.org/namespaces/inkscape"
   width="390.03989mm"
   height="565.87842mm"
   viewBox="0 0 390.0399 565.87841"
   version="1.1"
   id="svg8"
   inkscape:version="0.92.2 2405546, 2018-03-11"
   sodipodi:docname="meeple_fairy.svg">
  <defs
     id="defs2" />
  <sodipodi:namedview
     id="base"
     pagecolor="#ffffff"
     bordercolor="#666666"
     borderopacity="1.0"
     inkscape:pageopacity="0.0"
     inkscape:pageshadow="2"
     inkscape:zoom="0.35"
     inkscape:cx="414.27226"
     inkscape:cy="1069.0209"
     inkscape:document-units="mm"
     inkscape:current-layer="layer1"
     showgrid="false"
     inkscape:window-width="1920"
     inkscape:window-height="1015"
     inkscape:window-x="1280"
     inkscape:window-y="0"
     inkscape:window-maximized="1" />
  <metadata
     id="metadata5">
    <rdf:RDF>
      <cc:Work
         rdf:about="">
        <dc:format>image/svg+xml</dc:format>
        <dc:type
           rdf:resource="http://purl.org/dc/dcmitype/StillImage" />
        <dc:title />
      </cc:Work>
    </rdf:RDF>
  </metadata>
  <g
     inkscape:label="Calque 1"
     inkscape:groupmode="layer"
     id="layer1"
     transform="translate(72.016875,-34.146527)">
    <path
       style="fill:#000000;stroke-width:0.97391868"
       d="m 30.355634,583.42599 c -22.5524903,-8.31436 -43.884996,-20.89168 -62.24365,-36.40628 -12.734546,-10.76177 -24.890166,-23.32637 -32.099194,-38.36013 -5.858918,-12.21824 -9.499621,-26.39645 -7.976152,-39.8609 2.289225,-20.23222 15.252082,-37.86387 25.065253,-55.70442 8.688711,-15.79625 19.801732,-30.1324 29.772205,-45.15255 5.362716,-8.07873 11.6847242,-15.5858 16.16287448,-24.18643 2.35572512,-4.52435 7.80463992,-9.68706 5.54792622,-14.2616 -1.708619,-3.46351 -7.4139751,-2.16663 -11.1245089,-3.23772 -8.6059008,-2.48417 -18.1878628,-2.73003 -25.8340268,-7.39574 -7.553266,-4.60902 -15.596142,-10.88706 -18.168828,-19.35324 -3.343549,-11.00293 0.34762,-23.82075 5.626452,-34.03729 5.433065,-10.51504 16.705234,-16.77338 25.222791,-24.99137 1.562931,-1.50796 4.358008,-2.32477 4.748497,-4.46118 0.324886,-1.77749 -1.517424,-3.28277 -2.382341,-4.86926 -2.702148,-4.95646 -6.554844,-9.29834 -8.75428,-14.49743 -3.488553,-8.24635 -6.387695,-17.03542 -6.832293,-25.97827 -0.447203,-8.99526 -1.404668,-19.67065 4.246666,-26.68328 4.91987,-6.10497 14.120761,-7.68115 21.9131707,-8.54959 9.9279542,-1.10645 20.1026473,1.48115 29.6316843,4.47881 15.293161,4.81094 28.012204,26.73572 43.106311,21.33259 4.766477,-1.70622 4.476311,-9.101 6.244988,-13.84466 7.991992,-21.43482 12.49527,-44.02617 19.626036,-65.76267 6.441955,-19.636822 9.470835,-41.154306 20.907455,-58.367885 2.49175,-3.75041 5.45663,-9.237661 9.95799,-9.12733 4.54362,0.111367 7.21992,5.815117 9.58805,9.694403 10.56829,17.31213 12.46028,38.605918 18.92495,57.831072 7.3136,21.7498 12.1224,44.58809 22.46999,65.06905 2.50191,4.95203 4.13811,12.07726 9.44129,13.7077 15.43599,4.74573 29.67866,-12.93726 45.14916,-17.56924 7.11094,-2.12907 14.35339,-4.59377 21.77595,-4.65773 8.62152,-0.0743 19.00007,-0.82276 25.38287,4.97344 7.0127,6.36821 8.20795,17.7613 8.11917,27.23358 -0.0843,8.99259 -4.03161,17.73225 -8.19127,25.70539 -2.44097,4.67879 -6.79314,8.11728 -9.62197,12.57229 -1.5746,2.47979 -4.48386,4.91764 -4.05561,7.82372 0.36697,2.49021 3.45798,3.66065 5.26139,5.41664 7.7997,7.59461 18.8127,12.56553 24.02468,22.12318 5.77739,10.59449 9.28271,24.00344 6.19278,35.66851 -2.11226,7.97421 -8.71569,14.77877 -15.74875,19.08988 -8.80425,5.39682 -20.28903,3.96964 -30.24142,6.72471 -3.47995,0.96333 -8.8624,0.0993 -10.27808,3.42107 -2.39108,5.6104 4.75829,11.27002 7.85465,16.52421 6.00972,10.19785 13.8138,19.22591 20.67118,28.87419 9.09214,12.79258 19.90943,24.54377 27.14478,38.47097 9.24985,17.80486 20.3505,36.60604 20.28911,56.67017 -0.0502,16.40176 -9.05567,31.80232 -16.86884,46.22365 -6.67653,12.32337 -14.86937,24.19213 -25.21478,33.64804 -15.10125,13.80285 -33.12928,24.89419 -52.2185,32.25409 -31.47444,12.13506 -65.78203,18.29015 -99.51467,18.38283 -31.39166,0.0862 -63.247225,-5.73932 -92.701136,-16.59799 z"
       id="path94"
       inkscape:connector-curvature="0"
       sodipodi:nodetypes="aaaaaaaaaaaaaaaaaaaaaaaaaaaaaaaaaaaaaaaaaaaaaaaaaaa" />
    <path
       style="fill:none;fill-rule:evenodd;stroke:#ff0000;stroke-width:0.66222543px;stroke-linecap:butt;stroke-linejoin:miter;stroke-opacity:1"
       d="m 123.65184,-36.496041 -0.4563,739.426381"
       id="path96"
       inkscape:connector-type="polyline"
       inkscape:connector-curvature="0"
       sodipodi:nodetypes="cc" />
    <path
       style="fill:none;fill-rule:evenodd;stroke:#ff0000;stroke-width:0.24734387px;stroke-linecap:butt;stroke-linejoin:miter;stroke-opacity:1"
       d="m 124.47311,420.17802 172.43052,10e-6"
       id="path822"
       inkscape:connector-type="polyline"
       inkscape:connector-curvature="0"
       sodipodi:nodetypes="cc" />
    <path
       sodipodi:type="star"
       style="fill:#fd0000;fill-opacity:1;stroke:#ff0000;stroke-width:0.3644672;stroke-opacity:1"
       id="path869"
       sodipodi:sides="5"
       sodipodi:cx="195.48399"
       sodipodi:cy="235.54285"
       sodipodi:r1="58.212395"
       sodipodi:r2="29.106197"
       sodipodi:arg1="0.1798535"
       sodipodi:arg2="0.80817203"
       inkscape:flatsided="false"
       inkscape:rounded="0"
       inkscape:randomized="0"
       d="m 252.75742,245.9562 -37.16625,10.63117 -12.3124,36.64364 -21.59585,-32.06198 -38.65491,-0.38629 23.81927,-30.44657 -11.57765,-36.88237 36.31697,13.24496 31.49954,-22.40827 -1.37415,38.63241 z"
       inkscape:transform-center-x="-2.4087129"
       inkscape:transform-center-y="3.2178968" />
    <rect
       style="fill:#fd0000;fill-opacity:1;stroke:#ff0000;stroke-width:0.3644672;stroke-opacity:1"
       id="rect871"
       width="15.620024"
       height="131.20821"
       x="293.2988"
       y="88.186745"
       transform="rotate(35.729048)" />
  </g>
</svg>
