  0
SECTION
  2
HEADER
  9
$ACADVER
  1
AC1014
  9
$HANDSEED
  5
FFFF
  9
$MEASUREMENT
 70
     1
  0
ENDSEC
  0
SECTION
  2
TABLES
  0
TABLE
  2
VPORT
  5
8
330
0
100
AcDbSymbolTable
 70
     4
  0
VPORT
  5
2E
330
8
100
AcDbSymbolTableRecord
100
AcDbViewportTableRecord
  2
*ACTIVE
 70
     0
 10
0.0
 20
0.0
 11
1.0
 21
1.0
 12
210.0
 22
148.5
 13
0.0
 23
0.0
 14
10.0
 24
10.0
 15
10.0
 25
10.0
 16
0.0
 26
0.0
 36
1.0
 17
0.0
 27
0.0
 37
0.0
 40
341.0
 41
1.24
 42
50.0
 43
0.0
 44
0.0
 50
0.0
 51
0.0
 71
     0
 72
   100
 73
     1
 74
     3
 75
     0
 76
     0
 77
     0
 78
     0
  0
ENDTAB
  0
TABLE
  2
LTYPE
  5
5
330
0
100
AcDbSymbolTable
 70
     1
  0
LTYPE
  5
14
330
5
100
AcDbSymbolTableRecord
100
AcDbLinetypeTableRecord
  2
BYBLOCK
 70
     0
  3

 72
    65
 73
     0
 40
0.0
  0
LTYPE
  5
15
330
5
100
AcDbSymbolTableRecord
100
AcDbLinetypeTableRecord
  2
BYLAYER
 70
     0
  3

 72
    65
 73
     0
 40
0.0
  0
LTYPE
  5
16
330
5
100
AcDbSymbolTableRecord
100
AcDbLinetypeTableRecord
  2
CONTINUOUS
 70
     0
  3
Solid line
 72
    65
 73
     0
 40
0.0
  0
ENDTAB
  0
TABLE
  2
LAYER
  5
2
100
AcDbSymbolTable
 70
1
  0
LAYER
  5
50
100
AcDbSymbolTableRecord
100
AcDbLayerTableRecord
  2
0
 70
0
  6
CONTINUOUS
  0
ENDTAB
  0
TABLE
  2
STYLE
  5
3
330
0
100
AcDbSymbolTable
 70
     1
  0
STYLE
  5
11
330
3
100
AcDbSymbolTableRecord
100
AcDbTextStyleTableRecord
  2
STANDARD
 70
     0
 40
0.0
 41
1.0
 50
0.0
 71
     0
 42
2.5
  3
txt
  4

  0
ENDTAB
  0
TABLE
  2
VIEW
  5
6
330
0
100
AcDbSymbolTable
 70
     0
  0
ENDTAB
  0
TABLE
  2
UCS
  5
7
330
0
100
AcDbSymbolTable
 70
     0
  0
ENDTAB
  0
TABLE
  2
APPID
  5
9
330
0
100
AcDbSymbolTable
 70
     2
  0
APPID
  5
12
330
9
100
AcDbSymbolTableRecord
100
AcDbRegAppTableRecord
  2
ACAD
 70
     0
  0
ENDTAB
  0
TABLE
  2
DIMSTYLE
  5
A
330
0
100
AcDbSymbolTable
 70
     1
  0
DIMSTYLE
105
27
330
A
100
AcDbSymbolTableRecord
100
AcDbDimStyleTableRecord
  2
ISO-25
 70
     0
  3

  4

  5

  6

  7

 40
1.0
 41
2.5
 42
0.625
 43
3.75
 44
1.25
 45
0.0
 46
0.0
 47
0.0
 48
0.0
140
2.5
141
2.5
142
0.0
143
0.03937007874016
144
1.0
145
0.0
146
1.0
147
0.625
 71
     0
 72
     0
 73
     0
 74
     0
 75
     0
 76
     0
 77
     1
 78
     8
170
     0
171
     3
172
     1
173
     0
174
     0
175
     0
176
     0
177
     0
178
     0
270
     2
271
     2
272
     2
273
     2
274
     3
340
11
275
     0
280
     0
281
     0
282
     0
283
     0
284
     8
285
     0
286
     0
287
     3
288
     0
  0
ENDTAB
  0
TABLE
  2
BLOCK_RECORD
  5
1
330
0
100
AcDbSymbolTable
 70
     1
  0
BLOCK_RECORD
  5
1F
330
1
100
AcDbSymbolTableRecord
100
AcDbBlockTableRecord
  2
*MODEL_SPACE
  0
BLOCK_RECORD
  5
1B
330
1
100
AcDbSymbolTableRecord
100
AcDbBlockTableRecord
  2
*PAPER_SPACE
  0
ENDTAB
  0
ENDSEC
  0
SECTION
  2
BLOCKS
  0
BLOCK
  5
20
330
1F
100
AcDbEntity
  8
0
100
AcDbBlockBegin
  2
*MODEL_SPACE
 70
     0
 10
0.0
 20
0.0
 30
0.0
  3
*MODEL_SPACE
  1

  0
ENDBLK
  5
21
330
1F
100
AcDbEntity
  8
0
100
AcDbBlockEnd
  0
BLOCK
  5
1C
330
1B
100
AcDbEntity
 67
     1
  8
0
100
AcDbBlockBegin
  2
*PAPER_SPACE
  1

  0
ENDBLK
  5
1D
330
1B
100
AcDbEntity
 67
     1
  8
0
100
AcDbBlockEnd
  0
ENDSEC
  0
SECTION
  2
ENTITIES
  0
LWPOLYLINE
  5
100
100
AcDbEntity
  8
0
 62
7
100
AcDbPolyline
 90
544
 70
1
 10
58.545780
 20
216.364281
 30
0.0
 10
57.657582
 20
216.321387
 30
0.0
 10
56.816180
 20
216.220456
 30
0.0
 10
56.030453
 20
216.059709
 30
0.0
 10
55.309278
 20
215.837364
 30
0.0
 10
54.661533
 20
215.551640
 30
0.0
 10
54.096094
 20
215.200756
 30
0.0
 10
53.621842
 20
214.782930
 30
0.0
 10
53.247652
 20
214.296382
 30
0.0
 10
52.982405
 20
213.739329
 30
0.0
 10
52.834971
 20
213.109992
 30
0.0
 10
52.814228
 20
212.406588
 30
0.0
 10
52.929068
 20
211.627336
 30
0.0
 10
53.188354
 20
210.770456
 30
0.0
 10
53.600972
 20
209.834166
 30
0.0
 10
54.175795
 20
208.816684
 30
0.0
 10
54.921703
 20
207.716231
 30
0.0
 10
55.800400
 20
206.471061
 30
0.0
 10
56.564975
 20
205.302184
 30
0.0
 10
57.209968
 20
204.189997
 30
0.0
 10
57.729916
 20
203.114898
 30
0.0
 10
58.119359
 20
202.057285
 30
0.0
 10
58.372833
 20
200.997555
 30
0.0
 10
58.484878
 20
199.916106
 30
0.0
 10
58.450033
 20
198.793335
 30
0.0
 10
58.262838
 20
197.609640
 30
0.0
 10
57.917823
 20
196.345419
 30
0.0
 10
57.409538
 20
194.981069
 30
0.0
 10
56.732514
 20
193.496988
 30
0.0
 10
55.881289
 20
191.873574
 30
0.0
 10
54.850406
 20
190.091224
 30
0.0
 10
53.634399
 20
188.130333
 30
0.0
 10
52.227811
 20
185.971304
 30
0.0
 10
51.982132
 20
185.571593
 30
0.0
 10
51.740128
 20
185.127874
 30
0.0
 10
51.502654
 20
184.642757
 30
0.0
 10
51.270567
 20
184.118856
 30
0.0
 10
51.044724
 20
183.558778
 30
0.0
 10
50.825979
 20
182.965140
 30
0.0
 10
50.615186
 20
182.340552
 30
0.0
 10
50.413203
 20
181.687623
 30
0.0
 10
50.220885
 20
181.008970
 30
0.0
 10
50.039087
 20
180.307202
 30
0.0
 10
49.868667
 20
179.584932
 30
0.0
 10
49.710475
 20
178.844771
 30
0.0
 10
49.565372
 20
178.089332
 30
0.0
 10
49.434213
 20
177.321223
 30
0.0
 10
49.317852
 20
176.543062
 30
0.0
 10
49.217143
 20
175.757456
 30
0.0
 10
49.234659
 20
174.224468
 30
0.0
 10
49.301117
 20
172.721262
 30
0.0
 10
49.417994
 20
171.245937
 30
0.0
 10
49.586774
 20
169.796590
 30
0.0
 10
49.808945
 20
168.371316
 30
0.0
 10
50.085985
 20
166.968210
 30
0.0
 10
50.419381
 20
165.585370
 30
0.0
 10
50.810615
 20
164.220890
 30
0.0
 10
51.261171
 20
162.872870
 30
0.0
 10
51.772532
 20
161.539402
 30
0.0
 10
52.346183
 20
160.218583
 30
0.0
 10
52.983604
 20
158.908512
 30
0.0
 10
53.686284
 20
157.607283
 30
0.0
 10
54.455703
 20
156.312994
 30
0.0
 10
55.293345
 20
155.023738
 30
0.0
 10
56.200694
 20
153.737614
 30
0.0
 10
49.959493
 20
155.954286
 30
0.0
 10
44.740354
 20
157.658985
 30
0.0
 10
40.487285
 20
158.852436
 30
0.0
 10
37.144304
 20
159.535368
 30
0.0
 10
34.655419
 20
159.708509
 30
0.0
 10
32.964647
 20
159.372578
 30
0.0
 10
32.015996
 20
158.528308
 30
0.0
 10
31.753485
 20
157.176420
 30
0.0
 10
32.121123
 20
155.317645
 30
0.0
 10
33.062921
 20
152.952707
 30
0.0
 10
34.522897
 20
150.082332
 30
0.0
 10
36.445058
 20
146.707246
 30
0.0
 10
38.773423
 20
142.828174
 30
0.0
 10
41.451998
 20
138.445846
 30
0.0
 10
44.424801
 20
133.560984
 30
0.0
 10
47.635843
 20
128.174316
 30
0.0
 10
46.828218
 20
127.958662
 30
0.0
 10
46.013209
 20
127.753348
 30
0.0
 10
45.194326
 20
127.557302
 30
0.0
 10
44.375081
 20
127.369454
 30
0.0
 10
43.558984
 20
127.188727
 30
0.0
 10
42.749549
 20
127.014052
 30
0.0
 10
41.950288
 20
126.844354
 30
0.0
 10
41.164711
 20
126.678563
 30
0.0
 10
40.396332
 20
126.515606
 30
0.0
 10
39.648662
 20
126.354409
 30
0.0
 10
38.925212
 20
126.193899
 30
0.0
 10
38.229492
 20
126.033009
 30
0.0
 10
37.565020
 20
125.870660
 30
0.0
 10
36.935304
 20
125.705783
 30
0.0
 10
36.343857
 20
125.537304
 30
0.0
 10
35.794188
 20
125.364150
 30
0.0
 10
34.119971
 20
124.781958
 30
0.0
 10
32.444145
 20
124.198589
 30
0.0
 10
30.768092
 20
123.611672
 30
0.0
 10
29.093181
 20
123.018828
 30
0.0
 10
27.420790
 20
122.417687
 30
0.0
 10
25.752290
 20
121.805872
 30
0.0
 10
24.089060
 20
121.181008
 30
0.0
 10
22.432473
 20
120.540722
 30
0.0
 10
20.783903
 20
119.882637
 30
0.0
 10
19.144727
 20
119.204380
 30
0.0
 10
17.516318
 20
118.503576
 30
0.0
 10
15.900051
 20
117.777853
 30
0.0
 10
14.297301
 20
117.024830
 30
0.0
 10
12.709442
 20
116.242140
 30
0.0
 10
11.137851
 20
115.427403
 30
0.0
 10
9.583900
 20
114.578246
 30
0.0
 10
8.164056
 20
113.567514
 30
0.0
 10
6.886766
 20
112.630791
 30
0.0
 10
5.744959
 20
111.756338
 30
0.0
 10
4.731560
 20
110.932415
 30
0.0
 10
3.839500
 20
110.147288
 30
0.0
 10
3.061704
 20
109.389212
 30
0.0
 10
2.391101
 20
108.646455
 30
0.0
 10
1.820618
 20
107.907272
 30
0.0
 10
1.343183
 20
107.159930
 30
0.0
 10
0.951723
 20
106.392686
 30
0.0
 10
0.639166
 20
105.593806
 30
0.0
 10
0.398440
 20
104.751547
 30
0.0
 10
0.222472
 20
103.854176
 30
0.0
 10
0.104189
 20
102.889947
 30
0.0
 10
0.036520
 20
101.847129
 30
0.0
 10
0.012392
 20
100.713977
 30
0.0
 10
0.004649
 20
99.664279
 30
0.0
 10
0.060079
 20
98.669671
 30
0.0
 10
0.178117
 20
97.724217
 30
0.0
 10
0.358196
 20
96.821977
 30
0.0
 10
0.599752
 20
95.957012
 30
0.0
 10
0.902218
 20
95.123384
 30
0.0
 10
1.265029
 20
94.315156
 30
0.0
 10
1.687619
 20
93.526388
 30
0.0
 10
2.169423
 20
92.751143
 30
0.0
 10
2.709875
 20
91.983481
 30
0.0
 10
3.308410
 20
91.217464
 30
0.0
 10
3.964461
 20
90.447154
 30
0.0
 10
4.677464
 20
89.666609
 30
0.0
 10
5.446853
 20
88.869896
 30
0.0
 10
6.272061
 20
88.051076
 30
0.0
 10
7.152524
 20
87.204206
 30
0.0
 10
9.539555
 20
85.600940
 30
0.0
 10
11.955714
 20
83.950844
 30
0.0
 10
14.371917
 20
82.261588
 30
0.0
 10
16.759077
 20
80.540831
 30
0.0
 10
19.088108
 20
78.796237
 30
0.0
 10
21.329927
 20
77.035467
 30
0.0
 10
23.455446
 20
75.266185
 30
0.0
 10
25.435580
 20
73.496054
 30
0.0
 10
27.241243
 20
71.732735
 30
0.0
 10
28.843351
 20
69.983892
 30
0.0
 10
30.212816
 20
68.257190
 30
0.0
 10
31.320555
 20
66.560287
 30
0.0
 10
32.137480
 20
64.900847
 30
0.0
 10
32.634507
 20
63.286534
 30
0.0
 10
32.782550
 20
61.725014
 30
0.0
 10
32.552524
 20
60.223942
 30
0.0
 10
30.788991
 20
56.490254
 30
0.0
 10
29.318270
 20
53.406971
 30
0.0
 10
28.097409
 20
50.877383
 30
0.0
 10
27.083459
 20
48.804772
 30
0.0
 10
26.233469
 20
47.092431
 30
0.0
 10
25.504486
 20
45.643644
 30
0.0
 10
24.853558
 20
44.361698
 30
0.0
 10
24.237734
 20
43.149882
 30
0.0
 10
23.614064
 20
41.911482
 30
0.0
 10
22.939596
 20
40.549785
 30
0.0
 10
22.171379
 20
38.968077
 30
0.0
 10
21.266461
 20
37.069649
 30
0.0
 10
20.181890
 20
34.757783
 30
0.0
 10
18.874717
 20
31.935772
 30
0.0
 10
17.301988
 20
28.506899
 30
0.0
 10
15.420754
 20
24.374451
 30
0.0
 10
13.071638
 20
19.889346
 30
0.0
 10
10.857819
 20
16.048098
 30
0.0
 10
8.820294
 20
12.798399
 30
0.0
 10
7.000063
 20
10.087930
 30
0.0
 10
5.438122
 20
7.864380
 30
0.0
 10
4.175470
 20
6.075431
 30
0.0
 10
3.253106
 20
4.668774
 30
0.0
 10
2.712026
 20
3.592092
 30
0.0
 10
2.593230
 20
2.793069
 30
0.0
 10
2.937716
 20
2.219394
 30
0.0
 10
3.786482
 20
1.818751
 30
0.0
 10
5.180525
 20
1.538827
 30
0.0
 10
7.160845
 20
1.327309
 30
0.0
 10
9.768438
 20
1.131880
 30
0.0
 10
13.044304
 20
0.900226
 30
0.0
 10
17.029441
 20
0.580035
 30
0.0
 10
17.111802
 20
0.555985
 30
0.0
 10
17.282189
 20
0.538337
 30
0.0
 10
17.555158
 20
0.526404
 30
0.0
 10
17.945264
 20
0.519525
 30
0.0
 10
18.467061
 20
0.517144
 30
0.0
 10
19.135106
 20
0.518467
 30
0.0
 10
19.963954
 20
0.522700
 30
0.0
 10
20.968159
 20
0.529288
 30
0.0
 10
22.162276
 20
0.537543
 30
0.0
 10
23.560862
 20
0.546830
 30
0.0
 10
25.178470
 20
0.556435
 30
0.0
 10
27.029659
 20
0.565722
 30
0.0
 10
29.128979
 20
0.573977
 30
0.0
 10
31.490989
 20
0.580565
 30
0.0
 10
34.130242
 20
0.584798
 30
0.0
 10
37.061293
 20
0.586121
 30
0.0
 10
39.854934
 20
0.665917
 30
0.0
 10
42.469554
 20
0.892405
 30
0.0
 10
44.919260
 20
1.244671
 30
0.0
 10
47.218161
 20
1.701800
 30
0.0
 10
49.380357
 20
2.242884
 30
0.0
 10
51.419956
 20
2.847001
 30
0.0
 10
53.351062
 20
3.493243
 30
0.0
 10
55.187779
 20
4.160692
 30
0.0
 10
56.944215
 20
4.828439
 30
0.0
 10
58.634474
 20
5.475565
 30
0.0
 10
60.272660
 20
6.081160
 30
0.0
 10
61.872879
 20
6.624307
 30
0.0
 10
63.449237
 20
7.084097
 30
0.0
 10
65.015838
 20
7.439610
 30
0.0
 10
66.586788
 20
7.669935
 30
0.0
 10
68.176190
 20
7.754160
 30
0.0
 10
69.021047
 20
7.673970
 30
0.0
 10
69.944967
 20
7.443544
 30
0.0
 10
70.936967
 20
7.084407
 30
0.0
 10
71.986063
 20
6.618086
 30
0.0
 10
73.081277
 20
6.066102
 30
0.0
 10
74.211625
 20
5.449983
 30
0.0
 10
75.366123
 20
4.791252
 30
0.0
 10
76.533796
 20
4.111432
 30
0.0
 10
77.703656
 20
3.432051
 30
0.0
 10
78.864722
 20
2.774633
 30
0.0
 10
80.006015
 20
2.160701
 30
0.0
 10
81.116551
 20
1.611783
 30
0.0
 10
82.185349
 20
1.149400
 30
0.0
 10
83.201425
 20
0.795081
 30
0.0
 10
84.153801
 20
0.570344
 30
0.0
 10
85.031493
 20
0.496721
 30
0.0
 10
85.832815
 20
0.578773
 30
0.0
 10
86.730903
 20
0.795766
 30
0.0
 10
87.710322
 20
1.128366
 30
0.0
 10
88.755630
 20
1.557234
 30
0.0
 10
89.851391
 20
2.063044
 30
0.0
 10
90.982165
 20
2.626455
 30
0.0
 10
92.132512
 20
3.228139
 30
0.0
 10
93.286995
 20
3.848759
 30
0.0
 10
94.430178
 20
4.468979
 30
0.0
 10
95.546619
 20
5.069472
 30
0.0
 10
96.620883
 20
5.630900
 30
0.0
 10
97.637526
 20
6.133928
 30
0.0
 10
98.581115
 20
6.559225
 30
0.0
 10
99.436208
 20
6.887456
 30
0.0
 10
100.187371
 20
7.099287
 30
0.0
 10
100.819159
 20
7.175384
 30
0.0
 10
102.718664
 20
7.102660
 30
0.0
 10
104.399300
 20
6.885302
 30
0.0
 10
105.908377
 20
6.543675
 30
0.0
 10
107.293217
 20
6.098133
 30
0.0
 10
108.601129
 20
5.569035
 30
0.0
 10
109.879429
 20
4.976741
 30
0.0
 10
111.175435
 20
4.341609
 30
0.0
 10
112.536459
 20
3.683997
 30
0.0
 10
114.009818
 20
3.024270
 30
0.0
 10
115.642827
 20
2.382777
 30
0.0
 10
117.482797
 20
1.779886
 30
0.0
 10
119.577048
 20
1.235951
 30
0.0
 10
121.972890
 20
0.771329
 30
0.0
 10
124.717641
 20
0.406384
 30
0.0
 10
127.858615
 20
0.161473
 30
0.0
 10
131.443129
 20
0.056954
 30
0.0
 10
133.150205
 20
0.031369
 30
0.0
 10
134.784767
 20
0.013854
 30
0.0
 10
136.354989
 20
0.003747
 30
0.0
 10
137.869054
 20
0.000413
 30
0.0
 10
139.335142
 20
0.003217
 30
0.0
 10
140.761434
 20
0.011525
 30
0.0
 10
142.156109
 20
0.024701
 30
0.0
 10
143.527341
 20
0.042085
 30
0.0
 10
144.883317
 20
0.063066
 30
0.0
 10
146.232216
 20
0.086984
 30
0.0
 10
147.582213
 20
0.113205
 30
0.0
 10
148.941491
 20
0.141084
 30
0.0
 10
150.318227
 20
0.169987
 30
0.0
 10
151.720606
 20
0.199271
 30
0.0
 10
153.156801
 20
0.228296
 30
0.0
 10
154.634996
 20
0.256426
 30
0.0
 10
158.582098
 20
0.509759
 30
0.0
 10
161.757101
 20
0.753793
 30
0.0
 10
164.208407
 20
1.024943
 30
0.0
 10
165.984425
 20
1.359633
 30
0.0
 10
167.133558
 20
1.794275
 30
0.0
 10
167.704209
 20
2.365296
 30
0.0
 10
167.744786
 20
3.109108
 30
0.0
 10
167.303693
 20
4.062135
 30
0.0
 10
166.429333
 20
5.260795
 30
0.0
 10
165.170115
 20
6.741507
 30
0.0
 10
163.574439
 20
8.540689
 30
0.0
 10
161.690714
 20
10.694763
 30
0.0
 10
159.567346
 20
13.240144
 30
0.0
 10
157.252733
 20
16.213254
 30
0.0
 10
154.795286
 20
19.650512
 30
0.0
 10
152.243409
 20
23.588337
 30
0.0
 10
151.390662
 20
24.941125
 30
0.0
 10
150.401449
 20
26.632260
 30
0.0
 10
149.300549
 20
28.608218
 30
0.0
 10
148.112742
 20
30.815481
 30
0.0
 10
146.862808
 20
33.200525
 30
0.0
 10
145.575528
 20
35.709834
 30
0.0
 10
144.275678
 20
38.289884
 30
0.0
 10
142.988043
 20
40.887155
 30
0.0
 10
141.737400
 20
43.448129
 30
0.0
 10
140.548532
 20
45.919282
 30
0.0
 10
139.446214
 20
48.247096
 30
0.0
 10
138.455228
 20
50.378050
 30
0.0
 10
137.600357
 20
52.258621
 30
0.0
 10
136.906376
 20
53.835295
 30
0.0
 10
136.398066
 20
55.054545
 30
0.0
 10
136.100209
 20
55.862852
 30
0.0
 10
135.568431
 20
57.722410
 30
0.0
 10
135.238614
 20
59.402448
 30
0.0
 10
135.120819
 20
60.940516
 30
0.0
 10
135.225107
 20
62.374161
 30
0.0
 10
135.561538
 20
63.740938
 30
0.0
 10
136.140174
 20
65.078393
 30
0.0
 10
136.971074
 20
66.424080
 30
0.0
 10
138.064301
 20
67.815545
 30
0.0
 10
139.429916
 20
69.290340
 30
0.0
 10
141.077976
 20
70.886016
 30
0.0
 10
143.018550
 20
72.640124
 30
0.0
 10
145.261692
 20
74.590211
 30
0.0
 10
147.817464
 20
76.773831
 30
0.0
 10
150.695930
 20
79.228532
 30
0.0
 10
153.907149
 20
81.991864
 30
0.0
 10
157.461180
 20
85.101377
 30
0.0
 10
158.474291
 20
85.913426
 30
0.0
 10
159.482467
 20
86.703567
 30
0.0
 10
160.478483
 20
87.481175
 30
0.0
 10
161.455121
 20
88.255621
 30
0.0
 10
162.405163
 20
89.036282
 30
0.0
 10
163.321386
 20
89.832529
 30
0.0
 10
164.196570
 20
90.653738
 30
0.0
 10
165.023496
 20
91.509278
 30
0.0
 10
165.794944
 20
92.408523
 30
0.0
 10
166.503691
 20
93.360849
 30
0.0
 10
167.142517
 20
94.375629
 30
0.0
 10
167.704206
 20
95.462233
 30
0.0
 10
168.181533
 20
96.630038
 30
0.0
 10
168.567280
 20
97.888414
 30
0.0
 10
168.854226
 20
99.246738
 30
0.0
 10
169.035151
 20
100.714379
 30
0.0
 10
168.978641
 20
101.608247
 30
0.0
 10
168.921819
 20
102.456443
 30
0.0
 10
168.849884
 20
103.267031
 30
0.0
 10
168.748035
 20
104.048081
 30
0.0
 10
168.601469
 20
104.807660
 30
0.0
 10
168.395385
 20
105.553841
 30
0.0
 10
168.114983
 20
106.294687
 30
0.0
 10
167.745458
 20
107.038267
 30
0.0
 10
167.272012
 20
107.792655
 30
0.0
 10
166.679840
 20
108.565913
 30
0.0
 10
165.954144
 20
109.366111
 30
0.0
 10
165.080119
 20
110.201321
 30
0.0
 10
164.042963
 20
111.079605
 30
0.0
 10
162.827877
 20
112.009039
 30
0.0
 10
161.420059
 20
112.997684
 30
0.0
 10
159.804706
 20
114.053615
 30
0.0
 10
157.771222
 20
115.171127
 30
0.0
 10
155.662196
 20
116.239555
 30
0.0
 10
153.484458
 20
117.262643
 30
0.0
 10
151.244837
 20
118.244133
 30
0.0
 10
148.950161
 20
119.187767
 30
0.0
 10
146.607260
 20
120.097296
 30
0.0
 10
144.222962
 20
120.976453
 30
0.0
 10
141.804096
 20
121.828991
 30
0.0
 10
139.357492
 20
122.658651
 30
0.0
 10
136.889977
 20
123.469172
 30
0.0
 10
134.408381
 20
124.264301
 30
0.0
 10
131.919533
 20
125.047782
 30
0.0
 10
129.430261
 20
125.823361
 30
0.0
 10
126.947396
 20
126.594775
 30
0.0
 10
124.477767
 20
127.365773
 30
0.0
 10
122.028199
 20
128.140095
 30
0.0
 10
125.252514
 20
133.550930
 30
0.0
 10
128.237332
 20
138.456474
 30
0.0
 10
130.926110
 20
142.856000
 30
0.0
 10
133.262314
 20
146.748786
 30
0.0
 10
135.189407
 20
150.134106
 30
0.0
 10
136.650857
 20
153.011232
 30
0.0
 10
137.590123
 20
155.379441
 30
0.0
 10
137.950670
 20
157.238007
 30
0.0
 10
137.675964
 20
158.586204
 30
0.0
 10
136.709465
 20
159.423312
 30
0.0
 10
134.994642
 20
159.748598
 30
0.0
 10
132.474954
 20
159.561342
 30
0.0
 10
129.093868
 20
158.860818
 30
0.0
 10
124.794846
 20
157.646301
 30
0.0
 10
119.521354
 20
155.917067
 30
0.0
 10
113.216851
 20
153.672387
 30
0.0
 10
114.129450
 20
155.008982
 30
0.0
 10
114.986385
 20
156.330729
 30
0.0
 10
115.788535
 20
157.640046
 30
0.0
 10
116.536780
 20
158.939354
 30
0.0
 10
117.231993
 20
160.231066
 30
0.0
 10
117.875055
 20
161.517600
 30
0.0
 10
118.466841
 20
162.801379
 30
0.0
 10
119.008231
 20
164.084818
 30
0.0
 10
119.500097
 20
165.370335
 30
0.0
 10
119.943322
 20
166.660351
 30
0.0
 10
120.338781
 20
167.957280
 30
0.0
 10
120.687351
 20
169.263542
 30
0.0
 10
120.989910
 20
170.581555
 30
0.0
 10
121.247337
 20
171.913738
 30
0.0
 10
121.460503
 20
173.262507
 30
0.0
 10
121.630292
 20
174.630281
 30
0.0
 10
121.635001
 20
175.293274
 30
0.0
 10
121.621772
 20
175.981252
 30
0.0
 10
121.589438
 20
176.690226
 30
0.0
 10
121.536809
 20
177.416217
 30
0.0
 10
121.462702
 20
178.155243
 30
0.0
 10
121.365928
 20
178.903323
 30
0.0
 10
121.245305
 20
179.656470
 30
0.0
 10
121.099649
 20
180.410705
 30
0.0
 10
120.927773
 20
181.162045
 30
0.0
 10
120.728491
 20
181.906505
 30
0.0
 10
120.500619
 20
182.640105
 30
0.0
 10
120.242973
 20
183.358864
 30
0.0
 10
119.954365
 20
184.058795
 30
0.0
 10
119.633611
 20
184.735920
 30
0.0
 10
119.279530
 20
185.386252
 30
0.0
 10
118.890931
 20
186.005814
 30
0.0
 10
118.072942
 20
187.599040
 30
0.0
 10
117.250057
 20
189.085744
 30
0.0
 10
116.442043
 20
190.481269
 30
0.0
 10
115.668682
 20
191.800951
 30
0.0
 10
114.949748
 20
193.060133
 30
0.0
 10
114.305016
 20
194.274153
 30
0.0
 10
113.754265
 20
195.458352
 30
0.0
 10
113.317266
 20
196.628070
 30
0.0
 10
113.013800
 20
197.798647
 30
0.0
 10
112.863638
 20
198.985422
 30
0.0
 10
112.886551
 20
200.203737
 30
0.0
 10
113.102326
 20
201.468929
 30
0.0
 10
113.530740
 20
202.796341
 30
0.0
 10
114.191561
 20
204.201311
 30
0.0
 10
115.104566
 20
205.699181
 30
0.0
 10
116.289532
 20
207.305288
 30
0.0
 10
117.849957
 20
209.662352
 30
0.0
 10
118.724960
 20
211.611082
 30
0.0
 10
118.989380
 20
213.179891
 30
0.0
 10
118.718065
 20
214.397187
 30
0.0
 10
117.985855
 20
215.291382
 30
0.0
 10
116.867596
 20
215.890886
 30
0.0
 10
115.438129
 20
216.224110
 30
0.0
 10
113.772302
 20
216.319465
 30
0.0
 10
111.944954
 20
216.205360
 30
0.0
 10
110.030932
 20
215.910207
 30
0.0
 10
108.105078
 20
215.462416
 30
0.0
 10
106.242236
 20
214.890398
 30
0.0
 10
104.517251
 20
214.222563
 30
0.0
 10
103.004964
 20
213.487321
 30
0.0
 10
101.780218
 20
212.713084
 30
0.0
 10
100.917862
 20
211.928262
 30
0.0
 10
100.212811
 20
211.340301
 30
0.0
 10
99.504725
 20
210.728278
 30
0.0
 10
98.800692
 20
210.091498
 30
0.0
 10
98.107804
 20
209.429270
 30
0.0
 10
97.433154
 20
208.740900
 30
0.0
 10
96.783829
 20
208.025696
 30
0.0
 10
96.166919
 20
207.282964
 30
0.0
 10
95.589516
 20
206.512012
 30
0.0
 10
95.058712
 20
205.712146
 30
0.0
 10
94.581594
 20
204.882674
 30
0.0
 10
94.165256
 20
204.022904
 30
0.0
 10
93.816784
 20
203.132141
 30
0.0
 10
93.543273
 20
202.209694
 30
0.0
 10
93.351810
 20
201.254869
 30
0.0
 10
93.249488
 20
200.266974
 30
0.0
 10
93.243403
 20
199.245315
 30
0.0
 10
93.417834
 20
198.107606
 30
0.0
 10
93.548245
 20
196.995872
 30
0.0
 10
93.625244
 20
195.915209
 30
0.0
 10
93.639426
 20
194.870710
 30
0.0
 10
93.581405
 20
193.867471
 30
0.0
 10
93.441785
 20
192.910585
 30
0.0
 10
93.211163
 20
192.005147
 30
0.0
 10
92.880151
 20
191.156251
 30
0.0
 10
92.439347
 20
190.368993
 30
0.0
 10
91.879359
 20
189.648465
 30
0.0
 10
91.190792
 20
188.999765
 30
0.0
 10
90.364246
 20
188.427984
 30
0.0
 10
89.390328
 20
187.938217
 30
0.0
 10
88.259642
 20
187.535561
 30
0.0
 10
86.962790
 20
187.225107
 30
0.0
 10
85.490381
 20
187.011953
 30
0.0
 10
84.187871
 20
187.281627
 30
0.0
 10
83.041916
 20
187.626644
 30
0.0
 10
82.043714
 20
188.044608
 30
0.0
 10
81.184472
 20
188.533117
 30
0.0
 10
80.455389
 20
189.089771
 30
0.0
 10
79.847668
 20
189.712171
 30
0.0
 10
79.352510
 20
190.397915
 30
0.0
 10
78.961123
 20
191.144605
 30
0.0
 10
78.664705
 20
191.949840
 30
0.0
 10
78.454459
 20
192.811220
 30
0.0
 10
78.321585
 20
193.726345
 30
0.0
 10
78.257292
 20
194.692814
 30
0.0
 10
78.252767
 20
195.708228
 30
0.0
 10
78.299233
 20
196.770188
 30
0.0
 10
78.387885
 20
197.876291
 30
0.0
 10
78.509921
 20
199.024140
 30
0.0
 10
78.426321
 20
199.836315
 30
0.0
 10
78.266425
 20
200.665846
 30
0.0
 10
78.035539
 20
201.508621
 30
0.0
 10
77.738975
 20
202.360527
 30
0.0
 10
77.382039
 20
203.217451
 30
0.0
 10
76.970041
 20
204.075281
 30
0.0
 10
76.508287
 20
204.929903
 30
0.0
 10
76.002086
 20
205.777205
 30
0.0
 10
75.456751
 20
206.613073
 30
0.0
 10
74.877586
 20
207.433397
 30
0.0
 10
74.269899
 20
208.234061
 30
0.0
 10
73.639000
 20
209.010954
 30
0.0
 10
72.990197
 20
209.759962
 30
0.0
 10
72.328799
 20
210.476974
 30
0.0
 10
71.660112
 20
211.157875
 30
0.0
 10
70.989449
 20
211.798554
 30
0.0
 10
70.462902
 20
212.317551
 30
0.0
 10
69.874405
 20
212.811112
 30
0.0
 10
69.230060
 20
213.278013
 30
0.0
 10
68.535960
 20
213.717029
 30
0.0
 10
67.798209
 20
214.126937
 30
0.0
 10
67.022901
 20
214.506513
 30
0.0
 10
66.216133
 20
214.854532
 30
0.0
 10
65.384005
 20
215.169770
 30
0.0
 10
64.532613
 20
215.451004
 30
0.0
 10
63.668061
 20
215.697008
 30
0.0
 10
62.796439
 20
215.906560
 30
0.0
 10
61.923848
 20
216.078435
 30
0.0
 10
61.056388
 20
216.211409
 30
0.0
 10
60.200156
 20
216.304258
 30
0.0
 10
59.361247
 20
216.355757
 30
0.0
  0
ENDSEC
  0
SECTION
  2
OBJECTS
  0
DICTIONARY
  5
C
330
0
100
AcDbDictionary
  3
ACAD_GROUP
350
D
  3
ACAD_MLINESTYLE
350
17
  0
DICTIONARY
  5
D
330
C
100
AcDbDictionary
  0
DICTIONARY
  5
1A
330
C
100
AcDbDictionary
  0
DICTIONARY
  5
17
330
C
100
AcDbDictionary
  3
STANDARD
350
18
  0
DICTIONARY
  5
19
330
C
100
AcDbDictionary
  0
ENDSEC
  0
EOF
