<?xml version="1.0" encoding="UTF-8" standalone="no"?>
<!-- Created with Inkscape (http://www.inkscape.org/) -->

<svg
   xmlns:dc="http://purl.org/dc/elements/1.1/"
   xmlns:cc="http://creativecommons.org/ns#"
   xmlns:rdf="http://www.w3.org/1999/02/22-rdf-syntax-ns#"
   xmlns:svg="http://www.w3.org/2000/svg"
   xmlns="http://www.w3.org/2000/svg"
   xmlns:sodipodi="http://sodipodi.sourceforge.net/DTD/sodipodi-0.dtd"
   xmlns:inkscape="http://www.inkscape.org/namespaces/inkscape"
   width="210mm"
   height="297mm"
   viewBox="0 0 210 297"
   version="1.1"
   id="svg8"
   inkscape:version="0.92.4 5da689c313, 2019-01-14"
   sodipodi:docname="meeple_cowboy.svg">
  <defs
     id="defs2" />
  <sodipodi:namedview
     id="base"
     pagecolor="#ffffff"
     bordercolor="#666666"
     borderopacity="1.0"
     inkscape:pageopacity="0.0"
     inkscape:pageshadow="2"
     inkscape:zoom="0.7"
     inkscape:cx="435.973"
     inkscape:cy="491.86698"
     inkscape:document-units="mm"
     inkscape:current-layer="layer1"
     showgrid="false"
     inkscape:window-width="1920"
     inkscape:window-height="1012"
     inkscape:window-x="1280"
     inkscape:window-y="0"
     inkscape:window-maximized="1" />
  <metadata
     id="metadata5">
    <rdf:RDF>
      <cc:Work
         rdf:about="">
        <dc:format>image/svg+xml</dc:format>
        <dc:type
           rdf:resource="http://purl.org/dc/dcmitype/StillImage" />
        <dc:title />
      </cc:Work>
    </rdf:RDF>
  </metadata>
  <g
     inkscape:label="Calque 1"
     inkscape:groupmode="layer"
     id="layer1">
    <path
       style="fill:#000000;stroke-width:1.12084591"
       d="m 67.710184,123.8942 c -0.174648,-0.50478 -5.495641,0.0849 -9.953549,-0.82772 -3.14825,-1.09358 -5.154789,-3.18054 -6.207422,-4.29112 -1.052633,-1.11058 -2.010465,-5.16551 -1.018521,-7.47701 0.483677,-1.12711 1.340955,-2.02859 2.984636,-2.1519 1.643681,-0.12331 5.325606,0.0351 8.265097,0.60768 5.153065,0.7684 6.810449,2.08239 8.630407,-1.18068 1.218257,-2.18426 1.662187,-6.88455 2.012283,-10.510626 0.367313,-3.804405 3.633814,-7.227714 5.271222,-8.300583 2.788358,-1.827006 2.891196,-0.791907 6.868577,-0.09495 4.260052,0.746489 15.613306,0.598778 19.936836,-0.06866 2.88671,-1.656748 4.27129,-1.716133 6.67999,-0.427035 1.43723,0.769183 3.61403,4.151786 3.8595,7.152864 1.04729,5.0056 2.08248,6.82334 3.61545,11.65547 1.83159,3.22637 3.69939,2.56717 8.39401,1.64242 3.14413,-1.16187 7.68511,-1.35309 9.69321,-1.12979 2.00811,0.22329 2.67264,0.87163 3.18222,2.02007 1.09262,2.46241 -0.27336,6.82596 -1.36685,7.9654 -1.0935,1.13943 -3.78609,2.85304 -7.08599,3.43536 -6.15375,0.40596 -5.61266,-0.93545 -13.81616,2.60895 -29.760791,-6.6963 -13.52567,-6.44854 -49.944946,-0.62818 z"
       id="path110"
       inkscape:connector-curvature="0"
       sodipodi:nodetypes="ccsascsscscscccsascccc" />
    <path
       style="fill:#000000;stroke-width:0.35277778"
       d="m 19.758302,263.36717 c -0.995,-0.63268 -1.13764,-2.07454 -0.4665,-4.7157 0.86623,-3.40889 5.40882,-15.72053 7.4645,-20.23075 0.35373,-0.77611 1.58494,-3.87173 2.73598,-6.87916 1.15107,-3.00744 2.163076,-4.54202 3.542426,-7.9375 1.37933,-3.39549 2.84612,-5.45925 3.25954,-6.5264 0.217768,-0.56216 -1.988395,-4.50696 -2.993001,-6.75581 -0.599425,-1.34184 -1.099209,-2.734 -1.810679,-4.01995 -0.674526,-1.21917 -1.028664,-2.94817 -2.316853,-3.47915 -2.63168,-1.08475 -7.776705,2.73698 -8.366879,1.70797 -2.661993,-4.64137 -2.481199,-14.39703 -1.931298,-15.44608 0.549902,-1.04905 13.148375,5.39898 13.663707,4.40095 0.515331,-0.99802 0.815973,-1.76917 1.263069,-2.6667 0.447096,-0.89753 13.211479,2.84106 13.556674,2.09349 1.71344,-3.71073 2.887554,-7.31991 2.461974,-8.43927 -0.76795,-2.01981 -11.1832,-3.59245 -23.05137,-4.78719 -4.09888,-0.41263 -6.34554,-1.18749 -9.26296,-3.19472 -2.58396,-1.77781 -5.06442,-4.5565 -6.22554,-6.97404 -1.0303,-2.14517 -1.06452,-2.36989 -0.9147,-6.00629 0.13749,-3.3368 0.27507,-3.99717 1.17875,-5.65751 0.52533,-0.96521 1.13897,-1.87294 1.88835,-2.76288 0.74939,-0.88995 1.63451,-1.76211 2.70281,-2.65618 1.06831,-0.89408 2.43157,-2.0184 3.80186,-2.78767 8.23825,-4.62484 17.28787,-7.68001 26.21031,-10.78613 3.20525,-1.11582 6.50238,-1.95301 9.78634,-2.80992 1.94649,-0.50791 3.9956,-0.66328 5.87485,-1.38105 1.21987,-0.46592 2.45158,-1.02081 3.44013,-1.874 0.18044,-0.15573 0.33642,-0.35203 0.43019,-0.57116 0.54089,-1.264 0.56144,-3.67433 0.66994,-4.06984 0.10848,-0.39551 -0.1103,-2.51126 0.003,-3.14558 0.11322,-0.63433 0.23429,-1.40804 0.37418,-2.36107 0.15798,-1.07643 0.337,-2.10485 0.54001,-3.09148 0.20299,-0.98664 0.42995,-1.93148 0.68379,-2.84074 0.25387,-0.90926 0.53462,-1.78294 0.84518,-2.62724 0.31057,-0.84431 0.65096,-1.65924 1.0241,-2.45101 0.37314,-0.79177 0.77901,-1.56038 1.22058,-2.31204 0.44156,-0.75165 0.91879,-1.48636 1.43462,-2.21032 0.51583,-0.72396 1.07027,-1.43718 1.66621,-2.14587 0.59598,-0.70869 1.23346,-1.41284 1.9154,-2.11868 0.96039,-0.99402 1.8361,-1.84666 2.66954,-2.58709 0.83345,-0.740434 1.62458,-1.368644 2.41576,-1.913834 0.79116,-0.54519 1.58237,-1.00735 2.41599,-1.41565 0.8336,-0.40831 1.70958,-0.76277 2.67031,-1.09255 1.35647,-0.46563 2.18117,-0.71593 3.30253,-0.84984 0.56065,-0.067 1.19549,-0.10479 2.008,-0.1259 0.81255,-0.0211 1.80278,-0.0255 3.074278,-0.0255 1.49196,0 2.68613,0.0156 3.70795,0.0729 1.02182,0.0573 1.8713,0.1562 2.67396,0.32286 0.80267,0.16666 1.5585,0.40104 2.393,0.72919 0.83447,0.32816 1.74763,0.75009 2.86496,1.29186 0.8626,0.41826 1.67738,0.93568 2.64525,1.71376 0.96787,0.77809 2.08884,1.816854 3.56379,3.277784 0.77028,0.76298 1.48386,1.51099 2.14545,2.25373 0.66162,0.74274 1.2713,1.48022 1.83377,2.22211 0.56248,0.74189 1.07776,1.4882 1.55065,2.24861 0.47286,0.76041 0.90331,1.53493 1.29611,2.33324 0.3928,0.79831 0.74795,1.62041 1.07024,2.47599 0.32226,0.85558 0.61164,1.74463 0.87289,2.67686 0.26127,0.93223 0.4944,1.90762 0.70419,2.93587 0.20981,1.02824 0.39624,2.10934 0.56409,3.25298 0.19103,1.30158 0.35343,2.31089 0.53321,3.10763 0.17981,0.79674 0.37701,6.14341 0.6376,6.59472 0.26061,0.45131 0.58464,0.76975 1.01811,1.03504 0.4335,0.26528 1.10787,0.49874 1.67479,0.71607 1.30881,0.50173 2.65224,0.90804 3.98073,1.35508 1.738,0.58483 3.45832,1.22751 5.22011,1.73618 1.72663,0.49851 3.52408,0.73889 5.23556,1.28717 10.03159,3.21372 20.26639,6.37336 29.35894,11.69184 1.65401,0.96747 3.21442,2.33155 4.47156,3.61258 1.25714,1.28103 2.27555,2.63344 3.03917,4.04088 0.91699,1.69015 1.05299,2.33946 1.19086,5.6858 0.15004,3.64161 0.11689,3.85805 -0.9199,6.0063 -1.76509,3.65719 -6.15318,7.59113 -10.12521,9.07726 -1.01425,0.37949 -3.49303,0.86817 -5.50839,1.08596 -9.65139,1.04301 -21.6984,2.44027 -23.15752,3.69536 -1.31226,1.12874 -1.19576,2.57606 0.49786,6.18525 2.60051,5.5419 9.29511,17.38861 11.16865,22.225 0.41341,1.06715 1.87799,4.7184 3.25461,8.11389 1.37663,3.39549 3.45422,8.63424 4.61682,11.64167 1.16263,3.00743 2.47568,6.2618 2.91788,7.23194 1.68532,3.69739 6.45999,16.76496 7.31351,20.01599 0.64727,2.46545 -0.6693,4.22459 -1.6605,4.85485 -0.2304,0.1465 -9.01684,-0.008 -25.4607,-0.005 -29.65706,0.005 -29.38571,0.72166 -30.1018,0.005 -0.81958,-0.81955 -2.80963,-9.4281 -4.90546,-15.22881 -2.09583,-5.80071 -3.25146,-11.95373 -6.47965,-17.13828 -1.20801,-1.94009 -2.40097,-4.93569 -4.68533,-5.00566 -2.604318,-0.0798 -4.172828,3.24434 -5.680818,5.36915 -3.54555,4.9958 -6.73099,14.50973 -7.50777,16.77479 -1.11943,3.26418 -3.51052,13.52367 -4.37976,14.43505 l -0.75705,0.79375 -29.88418,-0.005 c -16.43629,-0.003 -26.77084,0.15191 -27.00124,0.005 z"
       id="path195-3"
       inkscape:connector-curvature="0"
       sodipodi:nodetypes="csccccaaassssccsssssssaaaaaasscssssssscsssssssssscssssssssscsssaaaaasccccccccsccscsczaaasccccc" />
  </g>
</svg>
