  0
SECTION
  2
HEADER
  9
$ACADVER
  1
AC1014
  9
$HANDSEED
  5
FFFF
  9
$MEASUREMENT
 70
     1
  0
ENDSEC
  0
SECTION
  2
TABLES
  0
TABLE
  2
VPORT
  5
8
330
0
100
AcDbSymbolTable
 70
     4
  0
VPORT
  5
2E
330
8
100
AcDbSymbolTableRecord
100
AcDbViewportTableRecord
  2
*ACTIVE
 70
     0
 10
0.0
 20
0.0
 11
1.0
 21
1.0
 12
210.0
 22
148.5
 13
0.0
 23
0.0
 14
10.0
 24
10.0
 15
10.0
 25
10.0
 16
0.0
 26
0.0
 36
1.0
 17
0.0
 27
0.0
 37
0.0
 40
341.0
 41
1.24
 42
50.0
 43
0.0
 44
0.0
 50
0.0
 51
0.0
 71
     0
 72
   100
 73
     1
 74
     3
 75
     0
 76
     0
 77
     0
 78
     0
  0
ENDTAB
  0
TABLE
  2
LTYPE
  5
5
330
0
100
AcDbSymbolTable
 70
     1
  0
LTYPE
  5
14
330
5
100
AcDbSymbolTableRecord
100
AcDbLinetypeTableRecord
  2
BYBLOCK
 70
     0
  3

 72
    65
 73
     0
 40
0.0
  0
LTYPE
  5
15
330
5
100
AcDbSymbolTableRecord
100
AcDbLinetypeTableRecord
  2
BYLAYER
 70
     0
  3

 72
    65
 73
     0
 40
0.0
  0
LTYPE
  5
16
330
5
100
AcDbSymbolTableRecord
100
AcDbLinetypeTableRecord
  2
CONTINUOUS
 70
     0
  3
Solid line
 72
    65
 73
     0
 40
0.0
  0
ENDTAB
  0
TABLE
  2
LAYER
  5
2
100
AcDbSymbolTable
 70
1
  0
LAYER
  5
50
100
AcDbSymbolTableRecord
100
AcDbLayerTableRecord
  2
0
 70
0
  6
CONTINUOUS
  0
ENDTAB
  0
TABLE
  2
STYLE
  5
3
330
0
100
AcDbSymbolTable
 70
     1
  0
STYLE
  5
11
330
3
100
AcDbSymbolTableRecord
100
AcDbTextStyleTableRecord
  2
STANDARD
 70
     0
 40
0.0
 41
1.0
 50
0.0
 71
     0
 42
2.5
  3
txt
  4

  0
ENDTAB
  0
TABLE
  2
VIEW
  5
6
330
0
100
AcDbSymbolTable
 70
     0
  0
ENDTAB
  0
TABLE
  2
UCS
  5
7
330
0
100
AcDbSymbolTable
 70
     0
  0
ENDTAB
  0
TABLE
  2
APPID
  5
9
330
0
100
AcDbSymbolTable
 70
     2
  0
APPID
  5
12
330
9
100
AcDbSymbolTableRecord
100
AcDbRegAppTableRecord
  2
ACAD
 70
     0
  0
ENDTAB
  0
TABLE
  2
DIMSTYLE
  5
A
330
0
100
AcDbSymbolTable
 70
     1
  0
DIMSTYLE
105
27
330
A
100
AcDbSymbolTableRecord
100
AcDbDimStyleTableRecord
  2
ISO-25
 70
     0
  3

  4

  5

  6

  7

 40
1.0
 41
2.5
 42
0.625
 43
3.75
 44
1.25
 45
0.0
 46
0.0
 47
0.0
 48
0.0
140
2.5
141
2.5
142
0.0
143
0.03937007874016
144
1.0
145
0.0
146
1.0
147
0.625
 71
     0
 72
     0
 73
     0
 74
     0
 75
     0
 76
     0
 77
     1
 78
     8
170
     0
171
     3
172
     1
173
     0
174
     0
175
     0
176
     0
177
     0
178
     0
270
     2
271
     2
272
     2
273
     2
274
     3
340
11
275
     0
280
     0
281
     0
282
     0
283
     0
284
     8
285
     0
286
     0
287
     3
288
     0
  0
ENDTAB
  0
TABLE
  2
BLOCK_RECORD
  5
1
330
0
100
AcDbSymbolTable
 70
     1
  0
BLOCK_RECORD
  5
1F
330
1
100
AcDbSymbolTableRecord
100
AcDbBlockTableRecord
  2
*MODEL_SPACE
  0
BLOCK_RECORD
  5
1B
330
1
100
AcDbSymbolTableRecord
100
AcDbBlockTableRecord
  2
*PAPER_SPACE
  0
ENDTAB
  0
ENDSEC
  0
SECTION
  2
BLOCKS
  0
BLOCK
  5
20
330
1F
100
AcDbEntity
  8
0
100
AcDbBlockBegin
  2
*MODEL_SPACE
 70
     0
 10
0.0
 20
0.0
 30
0.0
  3
*MODEL_SPACE
  1

  0
ENDBLK
  5
21
330
1F
100
AcDbEntity
  8
0
100
AcDbBlockEnd
  0
BLOCK
  5
1C
330
1B
100
AcDbEntity
 67
     1
  8
0
100
AcDbBlockBegin
  2
*PAPER_SPACE
  1

  0
ENDBLK
  5
1D
330
1B
100
AcDbEntity
 67
     1
  8
0
100
AcDbBlockEnd
  0
ENDSEC
  0
SECTION
  2
ENTITIES
  0
LWPOLYLINE
  5
100
100
AcDbEntity
  8
0
 62
7
100
AcDbPolyline
 90
920
 70
1
 10
207.730990
 20
207.740308
 30
0.0
 10
207.551184
 20
207.740298
 30
0.0
 10
207.371389
 20
207.737916
 30
0.0
 10
207.192322
 20
207.733180
 30
0.0
 10
207.014704
 20
207.726010
 30
0.0
 10
206.839256
 20
207.716353
 30
0.0
 10
206.666700
 20
207.704182
 30
0.0
 10
206.497756
 20
207.689445
 30
0.0
 10
206.333143
 20
207.672088
 30
0.0
 10
197.508797
 20
206.603327
 30
0.0
 10
188.325194
 20
205.215882
 30
0.0
 10
178.985106
 20
203.320436
 30
0.0
 10
169.691309
 20
200.727678
 30
0.0
 10
160.646578
 20
197.248301
 30
0.0
 10
152.053690
 20
192.692988
 30
0.0
 10
144.115414
 20
186.872431
 30
0.0
 10
137.034529
 20
179.597317
 30
0.0
 10
136.684631
 20
179.096429
 30
0.0
 10
135.866023
 20
177.847790
 30
0.0
 10
134.816067
 20
176.092303
 30
0.0
 10
133.772124
 20
174.070871
 30
0.0
 10
132.971551
 20
172.024398
 30
0.0
 10
132.651714
 20
170.193785
 30
0.0
 10
133.049970
 20
168.819935
 30
0.0
 10
134.403682
 20
168.143752
 30
0.0
 10
135.055173
 20
168.608681
 30
0.0
 10
136.068596
 20
169.071607
 30
0.0
 10
137.353768
 20
169.510686
 30
0.0
 10
138.820517
 20
169.904077
 30
0.0
 10
140.378659
 20
170.229938
 30
0.0
 10
141.938023
 20
170.466426
 30
0.0
 10
143.408426
 20
170.591699
 30
0.0
 10
144.699694
 20
170.583913
 30
0.0
 10
146.007294
 20
170.465002
 30
0.0
 10
147.474202
 20
170.273851
 30
0.0
 10
149.033137
 20
169.990095
 30
0.0
 10
150.616825
 20
169.593368
 30
0.0
 10
152.157986
 20
169.063304
 30
0.0
 10
153.589342
 20
168.379538
 30
0.0
 10
154.843618
 20
167.521704
 30
0.0
 10
155.853535
 20
166.469436
 30
0.0
 10
156.688017
 20
165.430624
 30
0.0
 10
157.437855
 20
164.091283
 30
0.0
 10
158.066034
 20
162.485246
 30
0.0
 10
158.535537
 20
160.646347
 30
0.0
 10
158.809349
 20
158.608421
 30
0.0
 10
158.850452
 20
156.405301
 30
0.0
 10
158.621833
 20
154.070821
 30
0.0
 10
158.086475
 20
151.638817
 30
0.0
 10
157.654778
 20
150.945516
 30
0.0
 10
157.219031
 20
150.365330
 30
0.0
 10
156.773867
 20
149.881472
 30
0.0
 10
156.313918
 20
149.477159
 30
0.0
 10
155.833826
 20
149.135603
 30
0.0
 10
155.328218
 20
148.840022
 30
0.0
 10
154.791735
 20
148.573629
 30
0.0
 10
154.219010
 20
148.319639
 30
0.0
 10
153.526778
 20
148.146909
 30
0.0
 10
152.870466
 20
148.035949
 30
0.0
 10
152.248288
 20
147.993822
 30
0.0
 10
151.658452
 20
148.027586
 30
0.0
 10
151.099171
 20
148.144301
 30
0.0
 10
150.568649
 20
148.351026
 30
0.0
 10
150.065102
 20
148.654821
 30
0.0
 10
149.586736
 20
149.062747
 30
0.0
 10
149.308264
 20
149.454539
 30
0.0
 10
149.034328
 20
149.950184
 30
0.0
 10
148.794086
 20
150.511197
 30
0.0
 10
148.616704
 20
151.099094
 30
0.0
 10
148.531350
 20
151.675392
 30
0.0
 10
148.567180
 20
152.201606
 30
0.0
 10
148.753364
 20
152.639253
 30
0.0
 10
149.119063
 20
152.949848
 30
0.0
 10
149.909504
 20
154.033314
 30
0.0
 10
150.534217
 20
155.081769
 30
0.0
 10
150.912258
 20
156.064733
 30
0.0
 10
150.962696
 20
156.951724
 30
0.0
 10
150.604590
 20
157.712263
 30
0.0
 10
149.757003
 20
158.315869
 30
0.0
 10
148.338992
 20
158.732062
 30
0.0
 10
146.269625
 20
158.930361
 30
0.0
 10
143.949076
 20
159.114295
 30
0.0
 10
142.124769
 20
159.199213
 30
0.0
 10
140.672442
 20
159.212059
 30
0.0
 10
139.467833
 20
159.179770
 30
0.0
 10
138.386685
 20
159.129289
 30
0.0
 10
137.304735
 20
159.087557
 30
0.0
 10
136.097724
 20
159.081514
 30
0.0
 10
134.641394
 20
159.138101
 30
0.0
 10
132.833427
 20
158.973622
 30
0.0
 10
131.287496
 20
158.699160
 30
0.0
 10
129.912364
 20
158.326264
 30
0.0
 10
128.616797
 20
157.866484
 30
0.0
 10
127.309557
 20
157.331367
 30
0.0
 10
125.899410
 20
156.732464
 30
0.0
 10
124.295120
 20
156.081323
 30
0.0
 10
122.405450
 20
155.389493
 30
0.0
 10
121.505758
 20
154.816192
 30
0.0
 10
120.526760
 20
154.024997
 30
0.0
 10
119.545629
 20
153.028203
 30
0.0
 10
118.639542
 20
151.838107
 30
0.0
 10
117.885673
 20
150.467005
 30
0.0
 10
117.361195
 20
148.927192
 30
0.0
 10
117.143287
 20
147.230965
 30
0.0
 10
117.309119
 20
145.390620
 30
0.0
 10
117.495090
 20
144.252646
 30
0.0
 10
117.968310
 20
142.968933
 30
0.0
 10
118.691552
 20
141.639571
 30
0.0
 10
119.627589
 20
140.364655
 30
0.0
 10
120.739196
 20
139.244272
 30
0.0
 10
121.989146
 20
138.378513
 30
0.0
 10
123.340215
 20
137.867473
 30
0.0
 10
124.755174
 20
137.811238
 30
0.0
 10
125.732794
 20
137.949290
 30
0.0
 10
127.087310
 20
137.912584
 30
0.0
 10
128.688325
 20
137.734012
 30
0.0
 10
130.405439
 20
137.446476
 30
0.0
 10
132.108247
 20
137.082867
 30
0.0
 10
133.666352
 20
136.676086
 30
0.0
 10
134.949353
 20
136.259026
 30
0.0
 10
135.826852
 20
135.864587
 30
0.0
 10
136.461130
 20
135.500259
 30
0.0
 10
137.081837
 20
135.178843
 30
0.0
 10
137.666137
 20
134.879075
 30
0.0
 10
138.191190
 20
134.579699
 30
0.0
 10
138.634155
 20
134.259453
 30
0.0
 10
138.972197
 20
133.897074
 30
0.0
 10
139.182472
 20
133.471307
 30
0.0
 10
139.242146
 20
132.960889
 30
0.0
 10
139.171725
 20
132.445938
 30
0.0
 10
139.005196
 20
131.993056
 30
0.0
 10
138.741457
 20
131.597419
 30
0.0
 10
138.379406
 20
131.254194
 30
0.0
 10
137.917944
 20
130.958551
 30
0.0
 10
137.355969
 20
130.705668
 30
0.0
 10
136.692378
 20
130.490709
 30
0.0
 10
135.926071
 20
130.308853
 30
0.0
 10
135.185047
 20
130.320257
 30
0.0
 10
134.410908
 20
130.327454
 30
0.0
 10
133.602505
 20
130.330285
 30
0.0
 10
132.758680
 20
130.328433
 30
0.0
 10
131.878279
 20
130.321977
 30
0.0
 10
130.960148
 20
130.310626
 30
0.0
 10
130.003135
 20
130.294222
 30
0.0
 10
129.006079
 20
130.272553
 30
0.0
 10
127.650700
 20
130.251968
 30
0.0
 10
126.300984
 20
130.234585
 30
0.0
 10
124.907741
 20
130.213630
 30
0.0
 10
123.421786
 20
130.182401
 30
0.0
 10
121.793931
 20
130.134146
 30
0.0
 10
119.974990
 20
130.062132
 30
0.0
 10
117.915777
 20
129.959617
 30
0.0
 10
115.567105
 20
129.819864
 30
0.0
 10
115.482206
 20
129.850942
 30
0.0
 10
115.394870
 20
129.880398
 30
0.0
 10
115.305369
 20
129.908362
 30
0.0
 10
115.213971
 20
129.934957
 30
0.0
 10
115.120952
 20
129.960305
 30
0.0
 10
115.026578
 20
129.984540
 30
0.0
 10
114.931121
 20
130.007797
 30
0.0
 10
114.834850
 20
130.030181
 30
0.0
 10
114.774051
 20
130.058018
 30
0.0
 10
114.714255
 20
130.086029
 30
0.0
 10
114.655656
 20
130.114236
 30
0.0
 10
114.598442
 20
130.142669
 30
0.0
 10
114.542811
 20
130.171349
 30
0.0
 10
114.488952
 20
130.200297
 30
0.0
 10
114.437062
 20
130.229545
 30
0.0
 10
114.387334
 20
130.259109
 30
0.0
 10
114.229827
 20
130.361241
 30
0.0
 10
114.082047
 20
130.469291
 30
0.0
 10
113.943453
 20
130.584197
 30
0.0
 10
113.813500
 20
130.706890
 30
0.0
 10
113.691651
 20
130.838303
 30
0.0
 10
113.577365
 20
130.979368
 30
0.0
 10
113.470097
 20
131.131017
 30
0.0
 10
113.369307
 20
131.294188
 30
0.0
 10
113.274464
 20
131.674439
 30
0.0
 10
113.185019
 20
132.402922
 30
0.0
 10
113.100435
 20
133.368958
 30
0.0
 10
113.020173
 20
134.461867
 30
0.0
 10
112.943698
 20
135.570966
 30
0.0
 10
112.870472
 20
136.585580
 30
0.0
 10
112.799958
 20
137.395022
 30
0.0
 10
112.731621
 20
137.888618
 30
0.0
 10
112.664923
 20
138.197525
 30
0.0
 10
112.599311
 20
138.527306
 30
0.0
 10
112.534242
 20
138.878893
 30
0.0
 10
112.469187
 20
139.253215
 30
0.0
 10
112.403604
 20
139.651201
 30
0.0
 10
112.336956
 20
140.073780
 30
0.0
 10
112.268706
 20
140.521884
 30
0.0
 10
112.198319
 20
140.996438
 30
0.0
 10
112.134507
 20
141.422393
 30
0.0
 10
112.068920
 20
141.842599
 30
0.0
 10
112.001493
 20
142.257175
 30
0.0
 10
111.932159
 20
142.666226
 30
0.0
 10
111.860862
 20
143.069869
 30
0.0
 10
111.787533
 20
143.468216
 30
0.0
 10
111.712110
 20
143.861378
 30
0.0
 10
111.634529
 20
144.249469
 30
0.0
 10
111.554749
 20
144.632597
 30
0.0
 10
111.472713
 20
145.010875
 30
0.0
 10
111.388369
 20
145.384419
 30
0.0
 10
111.301662
 20
145.753345
 30
0.0
 10
111.212543
 20
146.117771
 30
0.0
 10
111.120957
 20
146.477812
 30
0.0
 10
111.026855
 20
146.833585
 30
0.0
 10
110.930179
 20
147.185208
 30
0.0
 10
110.830887
 20
147.532787
 30
0.0
 10
110.728906
 20
147.876431
 30
0.0
 10
110.624181
 20
148.216254
 30
0.0
 10
110.516651
 20
148.552370
 30
0.0
 10
110.406262
 20
148.884893
 30
0.0
 10
110.292957
 20
149.213937
 30
0.0
 10
110.176678
 20
149.539617
 30
0.0
 10
110.057364
 20
149.862047
 30
0.0
 10
109.934957
 20
150.181332
 30
0.0
 10
109.809415
 20
150.497579
 30
0.0
 10
109.680679
 20
150.810907
 30
0.0
 10
109.548697
 20
151.121432
 30
0.0
 10
109.413408
 20
151.429274
 30
0.0
 10
109.274758
 20
151.734548
 30
0.0
 10
109.132690
 20
152.037372
 30
0.0
 10
108.987146
 20
152.337865
 30
0.0
 10
108.838074
 20
152.636132
 30
0.0
 10
108.685423
 20
152.932279
 30
0.0
 10
108.529133
 20
153.226421
 30
0.0
 10
108.369145
 20
153.518671
 30
0.0
 10
108.205408
 20
153.809145
 30
0.0
 10
108.037858
 20
154.097958
 30
0.0
 10
107.866442
 20
154.385223
 30
0.0
 10
107.691100
 20
154.671055
 30
0.0
 10
107.511763
 20
154.955583
 30
0.0
 10
107.328385
 20
155.238926
 30
0.0
 10
107.140912
 20
155.521189
 30
0.0
 10
106.949293
 20
155.802480
 30
0.0
 10
106.753472
 20
156.082902
 30
0.0
 10
106.553402
 20
156.362562
 30
0.0
 10
106.349025
 20
156.641564
 30
0.0
 10
106.140292
 20
156.920014
 30
0.0
 10
105.927131
 20
157.198033
 30
0.0
 10
105.709474
 20
157.475751
 30
0.0
 10
105.487272
 20
157.753281
 30
0.0
 10
105.260471
 20
158.030737
 30
0.0
 10
105.029024
 20
158.308232
 30
0.0
 10
104.792878
 20
158.585883
 30
0.0
 10
104.551985
 20
158.863801
 30
0.0
 10
104.306296
 20
159.142100
 30
0.0
 10
104.055770
 20
159.420890
 30
0.0
 10
103.800339
 20
159.700279
 30
0.0
 10
103.539938
 20
159.980384
 30
0.0
 10
103.274511
 20
160.261320
 30
0.0
 10
103.003985
 20
160.543204
 30
0.0
 10
102.728302
 20
160.826153
 30
0.0
 10
102.447397
 20
161.110283
 30
0.0
 10
102.161205
 20
161.395849
 30
0.0
 10
101.624286
 20
161.924229
 30
0.0
 10
101.118175
 20
162.414926
 30
0.0
 10
100.640526
 20
162.869832
 30
0.0
 10
100.188990
 20
163.290837
 30
0.0
 10
99.761225
 20
163.679833
 30
0.0
 10
99.354883
 20
164.038713
 30
0.0
 10
98.967618
 20
164.369366
 30
0.0
 10
98.597082
 20
164.673685
 30
0.0
 10
98.240932
 20
164.953556
 30
0.0
 10
97.896815
 20
165.210870
 30
0.0
 10
97.562358
 20
165.447524
 30
0.0
 10
97.235203
 20
165.665414
 30
0.0
 10
96.912983
 20
165.866438
 30
0.0
 10
96.593335
 20
166.052491
 30
0.0
 10
96.273887
 20
166.225472
 30
0.0
 10
95.952284
 20
166.387276
 30
0.0
 10
95.542611
 20
166.584875
 30
0.0
 10
95.150607
 20
166.771548
 30
0.0
 10
94.774808
 20
166.947601
 30
0.0
 10
94.413737
 20
167.113335
 30
0.0
 10
94.065926
 20
167.269057
 30
0.0
 10
93.729905
 20
167.415070
 30
0.0
 10
93.404201
 20
167.551679
 30
0.0
 10
93.087341
 20
167.679187
 30
0.0
 10
92.777842
 20
167.797898
 30
0.0
 10
92.474235
 20
167.908121
 30
0.0
 10
92.175057
 20
168.010161
 30
0.0
 10
91.878838
 20
168.104325
 30
0.0
 10
91.584111
 20
168.190919
 30
0.0
 10
91.289407
 20
168.270248
 30
0.0
 10
90.993262
 20
168.342620
 30
0.0
 10
90.694206
 20
168.408341
 30
0.0
 10
90.390755
 20
168.467719
 30
0.0
 10
90.081423
 20
168.521061
 30
0.0
 10
89.764746
 20
168.568670
 30
0.0
 10
89.439261
 20
168.610850
 30
0.0
 10
89.103504
 20
168.647902
 30
0.0
 10
88.756008
 20
168.680129
 30
0.0
 10
88.395313
 20
168.707834
 30
0.0
 10
88.019951
 20
168.731319
 30
0.0
 10
87.628452
 20
168.750892
 30
0.0
 10
87.219335
 20
168.766864
 30
0.0
 10
86.791131
 20
168.779540
 30
0.0
 10
86.342360
 20
168.789227
 30
0.0
 10
85.871553
 20
168.796228
 30
0.0
 10
85.377234
 20
168.800851
 30
0.0
 10
84.857931
 20
168.803401
 30
0.0
 10
84.312167
 20
168.804183
 30
0.0
 10
83.848337
 20
168.803961
 30
0.0
 10
83.409666
 20
168.803195
 30
0.0
 10
82.994939
 20
168.801738
 30
0.0
 10
82.602940
 20
168.799439
 30
0.0
 10
82.232455
 20
168.796151
 30
0.0
 10
81.882271
 20
168.791725
 30
0.0
 10
81.551169
 20
168.786011
 30
0.0
 10
81.237937
 20
168.778861
 30
0.0
 10
80.941365
 20
168.770128
 30
0.0
 10
80.660227
 20
168.759668
 30
0.0
 10
80.393315
 20
168.747341
 30
0.0
 10
80.139416
 20
168.733005
 30
0.0
 10
79.897325
 20
168.716521
 30
0.0
 10
79.665827
 20
168.697748
 30
0.0
 10
79.443720
 20
168.676545
 30
0.0
 10
79.229789
 20
168.652771
 30
0.0
 10
78.821563
 20
168.596919
 30
0.0
 10
78.431432
 20
168.529016
 30
0.0
 10
78.049692
 20
168.447894
 30
0.0
 10
77.666633
 20
168.352389
 30
0.0
 10
77.272557
 20
168.241333
 30
0.0
 10
76.857754
 20
168.113562
 30
0.0
 10
76.412519
 20
167.967910
 30
0.0
 10
75.927148
 20
167.803210
 30
0.0
 10
75.570773
 20
167.678311
 30
0.0
 10
75.221859
 20
167.550727
 30
0.0
 10
74.879906
 20
167.420127
 30
0.0
 10
74.544412
 20
167.286179
 30
0.0
 10
74.214879
 20
167.148550
 30
0.0
 10
73.890804
 20
167.006907
 30
0.0
 10
73.571687
 20
166.860919
 30
0.0
 10
73.257026
 20
166.710253
 30
0.0
 10
72.946329
 20
166.554567
 30
0.0
 10
72.639118
 20
166.393507
 30
0.0
 10
72.334898
 20
166.226726
 30
0.0
 10
72.033164
 20
166.053876
 30
0.0
 10
71.733423
 20
165.874609
 30
0.0
 10
71.435174
 20
165.688579
 30
0.0
 10
71.137918
 20
165.495437
 30
0.0
 10
70.841153
 20
165.294836
 30
0.0
 10
70.544373
 20
165.086431
 30
0.0
 10
70.247089
 20
164.869880
 30
0.0
 10
69.948814
 20
164.644850
 30
0.0
 10
69.649052
 20
164.411004
 30
0.0
 10
69.347310
 20
164.168006
 30
0.0
 10
69.043095
 20
163.915520
 30
0.0
 10
68.735916
 20
163.653210
 30
0.0
 10
68.425280
 20
163.380741
 30
0.0
 10
68.110674
 20
163.097771
 30
0.0
 10
67.791603
 20
162.803951
 30
0.0
 10
67.467570
 20
162.498936
 30
0.0
 10
67.138082
 20
162.182379
 30
0.0
 10
66.802646
 20
161.853935
 30
0.0
 10
66.460762
 20
161.513257
 30
0.0
 10
66.111938
 20
161.160001
 30
0.0
 10
65.755676
 20
160.793819
 30
0.0
 10
65.502039
 20
160.529195
 30
0.0
 10
65.252555
 20
160.264652
 30
0.0
 10
65.007180
 20
160.000118
 30
0.0
 10
64.765875
 20
159.735522
 30
0.0
 10
64.528602
 20
159.470793
 30
0.0
 10
64.295316
 20
159.205857
 30
0.0
 10
64.065978
 20
158.940646
 30
0.0
 10
63.840548
 20
158.675085
 30
0.0
 10
63.618994
 20
158.409114
 30
0.0
 10
63.401271
 20
158.142664
 30
0.0
 10
63.187355
 20
157.875656
 30
0.0
 10
62.977220
 20
157.608010
 30
0.0
 10
62.770843
 20
157.339649
 30
0.0
 10
62.568196
 20
157.070492
 30
0.0
 10
62.369250
 20
156.800462
 30
0.0
 10
62.173982
 20
156.529480
 30
0.0
 10
61.982353
 20
156.257461
 30
0.0
 10
61.794313
 20
155.984335
 30
0.0
 10
61.609830
 20
155.710037
 30
0.0
 10
61.428863
 20
155.434506
 30
0.0
 10
61.251378
 20
155.157676
 30
0.0
 10
61.077337
 20
154.879484
 30
0.0
 10
60.906705
 20
154.599868
 30
0.0
 10
60.739446
 20
154.318762
 30
0.0
 10
60.575526
 20
154.036085
 30
0.0
 10
60.414916
 20
153.751749
 30
0.0
 10
60.257582
 20
153.465679
 30
0.0
 10
60.103488
 20
153.177802
 30
0.0
 10
59.952604
 20
152.888046
 30
0.0
 10
59.804890
 20
152.596335
 30
0.0
 10
59.660316
 20
152.302597
 30
0.0
 10
59.518846
 20
152.006758
 30
0.0
 10
59.380464
 20
151.708746
 30
0.0
 10
59.245148
 20
151.408490
 30
0.0
 10
59.112849
 20
151.105916
 30
0.0
 10
58.983528
 20
150.800953
 30
0.0
 10
58.857139
 20
150.493526
 30
0.0
 10
58.733640
 20
150.183565
 30
0.0
 10
58.612987
 20
149.870995
 30
0.0
 10
58.495136
 20
149.555745
 30
0.0
 10
58.380056
 20
149.237743
 30
0.0
 10
58.267719
 20
148.916915
 30
0.0
 10
58.158097
 20
148.593188
 30
0.0
 10
58.051160
 20
148.266489
 30
0.0
 10
57.946883
 20
147.936746
 30
0.0
 10
57.845235
 20
147.603884
 30
0.0
 10
57.746188
 20
147.267832
 30
0.0
 10
57.649711
 20
146.928515
 30
0.0
 10
57.555778
 20
146.585866
 30
0.0
 10
57.464341
 20
146.239815
 30
0.0
 10
57.375362
 20
145.890286
 30
0.0
 10
57.288800
 20
145.537204
 30
0.0
 10
57.204626
 20
145.180496
 30
0.0
 10
57.122796
 20
144.820085
 30
0.0
 10
57.043278
 20
144.455899
 30
0.0
 10
56.966033
 20
144.087862
 30
0.0
 10
56.891021
 20
143.715912
 30
0.0
 10
56.818223
 20
143.339986
 30
0.0
 10
56.747606
 20
142.960005
 30
0.0
 10
56.679134
 20
142.575892
 30
0.0
 10
56.612774
 20
142.187570
 30
0.0
 10
56.548491
 20
141.794963
 30
0.0
 10
56.486248
 20
141.397990
 30
0.0
 10
56.426013
 20
140.996577
 30
0.0
 10
56.374419
 20
140.647518
 30
0.0
 10
56.324460
 20
140.314799
 30
0.0
 10
56.276012
 20
139.997955
 30
0.0
 10
56.228943
 20
139.696515
 30
0.0
 10
56.183125
 20
139.410017
 30
0.0
 10
56.138426
 20
139.137991
 30
0.0
 10
56.094720
 20
138.879966
 30
0.0
 10
56.051876
 20
138.635481
 30
0.0
 10
56.023682
 20
138.334422
 30
0.0
 10
56.018867
 20
137.932001
 30
0.0
 10
56.029714
 20
137.465739
 30
0.0
 10
56.048526
 20
136.973151
 30
0.0
 10
56.067550
 20
136.491760
 30
0.0
 10
56.079086
 20
136.059082
 30
0.0
 10
56.075382
 20
135.712634
 30
0.0
 10
56.048749
 20
135.489937
 30
0.0
 10
56.011003
 20
135.253344
 30
0.0
 10
55.974390
 20
134.864890
 30
0.0
 10
55.931779
 20
134.361629
 30
0.0
 10
55.876031
 20
133.780607
 30
0.0
 10
55.800014
 20
133.158873
 30
0.0
 10
55.696599
 20
132.533477
 30
0.0
 10
55.558645
 20
131.941472
 30
0.0
 10
55.379022
 20
131.419902
 30
0.0
 10
55.333604
 20
131.332452
 30
0.0
 10
55.272204
 20
131.238233
 30
0.0
 10
55.201614
 20
131.142930
 30
0.0
 10
55.128626
 20
131.052218
 30
0.0
 10
55.060035
 20
130.971774
 30
0.0
 10
55.002631
 20
130.907285
 30
0.0
 10
54.963208
 20
130.864427
 30
0.0
 10
54.948550
 20
130.848870
 30
0.0
 10
54.860627
 20
130.846489
 30
0.0
 10
54.618430
 20
130.836408
 30
0.0
 10
54.254321
 20
130.813866
 30
0.0
 10
53.800671
 20
130.774181
 30
0.0
 10
53.289838
 20
130.712657
 30
0.0
 10
52.754189
 20
130.624601
 30
0.0
 10
52.226086
 20
130.505319
 30
0.0
 10
51.737892
 20
130.350122
 30
0.0
 10
49.389221
 20
130.489875
 30
0.0
 10
47.330008
 20
130.592391
 30
0.0
 10
45.511066
 20
130.664405
 30
0.0
 10
43.883212
 20
130.712660
 30
0.0
 10
42.397257
 20
130.743889
 30
0.0
 10
41.004014
 20
130.764844
 30
0.0
 10
39.654297
 20
130.782227
 30
0.0
 10
38.298919
 20
130.802811
 30
0.0
 10
33.066085
 20
130.861533
 30
0.0
 10
29.012610
 20
130.769029
 30
0.0
 10
26.028863
 20
130.542821
 30
0.0
 10
24.005214
 20
130.200432
 30
0.0
 10
22.832030
 20
129.759382
 30
0.0
 10
22.399680
 20
129.237200
 30
0.0
 10
22.598532
 20
128.651405
 30
0.0
 10
23.318956
 20
128.019519
 30
0.0
 10
23.567723
 20
127.856387
 30
0.0
 10
23.840545
 20
127.691721
 30
0.0
 10
24.135701
 20
127.525806
 30
0.0
 10
24.451469
 20
127.358921
 30
0.0
 10
24.786129
 20
127.191347
 30
0.0
 10
25.137958
 20
127.023365
 30
0.0
 10
25.505236
 20
126.855254
 30
0.0
 10
25.886241
 20
126.687300
 30
0.0
 10
26.279264
 20
126.519765
 30
0.0
 10
26.682602
 20
126.352914
 30
0.0
 10
27.094545
 20
126.187020
 30
0.0
 10
27.513386
 20
126.022354
 30
0.0
 10
27.937410
 20
125.859191
 30
0.0
 10
28.364913
 20
125.697800
 30
0.0
 10
28.794181
 20
125.538458
 30
0.0
 10
29.223504
 20
125.381435
 30
0.0
 10
29.651172
 20
125.227019
 30
0.0
 10
30.075463
 20
125.075487
 30
0.0
 10
30.494666
 20
124.927114
 30
0.0
 10
30.907064
 20
124.782165
 30
0.0
 10
31.310942
 20
124.640906
 30
0.0
 10
31.704587
 20
124.503609
 30
0.0
 10
32.086283
 20
124.370539
 30
0.0
 10
32.454316
 20
124.241970
 30
0.0
 10
32.616764
 20
124.076169
 30
0.0
 10
32.720754
 20
123.841129
 30
0.0
 10
32.753202
 20
123.560237
 30
0.0
 10
32.701034
 20
123.256881
 30
0.0
 10
32.551172
 20
122.954447
 30
0.0
 10
32.290533
 20
122.676319
 30
0.0
 10
31.906038
 20
122.445886
 30
0.0
 10
31.384613
 20
122.286535
 30
0.0
 10
28.614148
 20
121.383123
 30
0.0
 10
25.879401
 20
120.496671
 30
0.0
 10
23.169947
 20
119.599744
 30
0.0
 10
20.475357
 20
118.664903
 30
0.0
 10
17.785205
 20
117.664709
 30
0.0
 10
15.089063
 20
116.571723
 30
0.0
 10
12.376505
 20
115.358513
 30
0.0
 10
9.637103
 20
113.997634
 30
0.0
 10
9.120738
 20
113.699838
 30
0.0
 10
8.610210
 20
113.372358
 30
0.0
 10
8.108478
 20
113.022803
 30
0.0
 10
7.618500
 20
112.658782
 30
0.0
 10
7.143232
 20
112.287905
 30
0.0
 10
6.685632
 20
111.917776
 30
0.0
 10
6.248658
 20
111.556009
 30
0.0
 10
5.835268
 20
111.210209
 30
0.0
 10
5.443155
 20
110.875882
 30
0.0
 10
5.067668
 20
110.543144
 30
0.0
 10
4.708248
 20
110.211529
 30
0.0
 10
4.364336
 20
109.880575
 30
0.0
 10
4.035374
 20
109.549814
 30
0.0
 10
3.720801
 20
109.218780
 30
0.0
 10
3.420060
 20
108.887011
 30
0.0
 10
3.132591
 20
108.554038
 30
0.0
 10
2.857824
 20
108.219386
 30
0.0
 10
2.595198
 20
107.882584
 30
0.0
 10
2.344167
 20
107.543171
 30
0.0
 10
2.104185
 20
107.200692
 30
0.0
 10
1.874705
 20
106.854683
 30
0.0
 10
1.655181
 20
106.504687
 30
0.0
 10
1.445067
 20
106.150246
 30
0.0
 10
1.243817
 20
105.790899
 30
0.0
 10
0.939354
 20
105.207962
 30
0.0
 10
0.697735
 20
104.675689
 30
0.0
 10
0.509985
 20
104.150996
 30
0.0
 10
0.367126
 20
103.590802
 30
0.0
 10
0.260182
 20
102.952023
 30
0.0
 10
0.180177
 20
102.191579
 30
0.0
 10
0.118135
 20
101.266387
 30
0.0
 10
0.065078
 20
100.133364
 30
0.0
 10
0.019105
 20
98.919218
 30
0.0
 10
-0.000099
 20
97.962429
 30
0.0
 10
0.016982
 20
97.200511
 30
0.0
 10
0.079865
 20
96.570977
 30
0.0
 10
0.198067
 20
96.011346
 30
0.0
 10
0.381104
 20
95.459132
 30
0.0
 10
0.638493
 20
94.851850
 30
0.0
 10
0.979751
 20
94.127013
 30
0.0
 10
2.026486
 20
92.707529
 30
0.0
 10
3.549343
 20
91.427189
 30
0.0
 10
5.437306
 20
90.284866
 30
0.0
 10
7.579362
 20
89.279431
 30
0.0
 10
9.864496
 20
88.409751
 30
0.0
 10
12.181691
 20
87.674699
 30
0.0
 10
14.419935
 20
87.073145
 30
0.0
 10
16.468211
 20
86.603959
 30
0.0
 10
20.834686
 20
86.138099
 30
0.0
 10
24.968952
 20
85.636026
 30
0.0
 10
28.774972
 20
85.096921
 30
0.0
 10
32.156707
 20
84.519963
 30
0.0
 10
35.018117
 20
83.904328
 30
0.0
 10
37.263171
 20
83.249198
 30
0.0
 10
38.795820
 20
82.553754
 30
0.0
 10
39.520035
 20
81.817170
 30
0.0
 10
39.652170
 20
81.308099
 30
0.0
 10
39.721147
 20
80.630805
 30
0.0
 10
39.714585
 20
79.800868
 30
0.0
 10
39.620134
 20
78.833879
 30
0.0
 10
39.425417
 20
77.745415
 30
0.0
 10
39.118064
 20
76.551070
 30
0.0
 10
38.685705
 20
75.266420
 30
0.0
 10
38.115976
 20
73.907057
 30
0.0
 10
36.919135
 20
71.427036
 30
0.0
 10
35.467113
 20
68.571319
 30
0.0
 10
33.860896
 20
65.488317
 30
0.0
 10
32.201474
 20
62.326435
 30
0.0
 10
30.589839
 20
59.234083
 30
0.0
 10
29.126979
 20
56.359666
 30
0.0
 10
27.913880
 20
53.851593
 30
0.0
 10
27.051534
 20
51.858275
 30
0.0
 10
26.849348
 20
51.342518
 30
0.0
 10
26.561759
 20
50.617792
 30
0.0
 10
26.202144
 20
49.717375
 30
0.0
 10
25.783877
 20
48.674541
 30
0.0
 10
25.320334
 20
47.522569
 30
0.0
 10
24.824887
 20
46.294728
 30
0.0
 10
24.310913
 20
45.024299
 30
0.0
 10
23.791784
 20
43.744557
 30
0.0
 10
23.245283
 20
42.392806
 30
0.0
 10
22.652872
 20
40.915997
 30
0.0
 10
22.033422
 20
39.361880
 30
0.0
 10
21.405802
 20
37.778203
 30
0.0
 10
20.788883
 20
36.212719
 30
0.0
 10
20.201535
 20
34.713172
 30
0.0
 10
19.662628
 20
33.327314
 30
0.0
 10
19.191032
 20
32.102891
 30
0.0
 10
18.757513
 20
30.975673
 30
0.0
 10
18.327716
 20
29.868402
 30
0.0
 10
17.912860
 20
28.809294
 30
0.0
 10
17.524161
 20
27.826563
 30
0.0
 10
17.172836
 20
26.948424
 30
0.0
 10
16.870103
 20
26.203095
 30
0.0
 10
16.627179
 20
25.618789
 30
0.0
 10
16.455281
 20
25.223724
 30
0.0
 10
15.579858
 20
23.199323
 30
0.0
 10
14.543502
 20
20.639289
 30
0.0
 10
13.418441
 20
17.739371
 30
0.0
 10
12.276907
 20
14.695326
 30
0.0
 10
11.191128
 20
11.702902
 30
0.0
 10
10.233335
 20
8.957860
 30
0.0
 10
9.475756
 20
6.655946
 30
0.0
 10
8.990621
 20
4.992918
 30
0.0
 10
8.777171
 20
4.057928
 30
0.0
 10
8.640474
 20
3.230779
 30
0.0
 10
8.580980
 20
2.506906
 30
0.0
 10
8.599138
 20
1.881746
 30
0.0
 10
8.695396
 20
1.350732
 30
0.0
 10
8.870203
 20
0.909301
 30
0.0
 10
9.124008
 20
0.552889
 30
0.0
 10
9.457260
 20
0.276929
 30
0.0
 10
9.539231
 20
0.242305
 30
0.0
 10
9.621203
 20
0.207682
 30
0.0
 10
9.703175
 20
0.173059
 30
0.0
 10
9.785147
 20
0.138435
 30
0.0
 10
9.867118
 20
0.103812
 30
0.0
 10
9.949090
 20
0.069189
 30
0.0
 10
10.031062
 20
0.034565
 30
0.0
 10
10.113034
 20
-0.000058
 30
0.0
 10
10.898404
 20
-0.103105
 30
0.0
 10
12.893594
 20
-0.270920
 30
0.0
 10
15.816420
 20
-0.456300
 30
0.0
 10
19.384698
 20
-0.612055
 30
0.0
 10
23.316245
 20
-0.690988
 30
0.0
 10
27.328874
 20
-0.645903
 30
0.0
 10
31.140406
 20
-0.429601
 30
0.0
 10
34.468653
 20
0.005109
 30
0.0
 10
35.995957
 20
0.429720
 30
0.0
 10
37.474134
 20
1.064837
 30
0.0
 10
38.920662
 20
1.826316
 30
0.0
 10
40.353010
 20
2.630014
 30
0.0
 10
41.788660
 20
3.391789
 30
0.0
 10
43.245086
 20
4.027501
 30
0.0
 10
44.739757
 20
4.453004
 30
0.0
 10
46.290154
 20
4.584158
 30
0.0
 10
47.640243
 20
4.391004
 30
0.0
 10
48.926293
 20
3.938937
 30
0.0
 10
50.168255
 20
3.303148
 30
0.0
 10
51.386085
 20
2.558825
 30
0.0
 10
52.599731
 20
1.781154
 30
0.0
 10
53.829149
 20
1.045324
 30
0.0
 10
55.094294
 20
0.426524
 30
0.0
 10
56.415118
 20
-0.000058
 30
0.0
 10
58.283259
 20
-0.366287
 30
0.0
 10
60.174212
 20
-0.631317
 30
0.0
 10
62.081220
 20
-0.798351
 30
0.0
 10
63.997518
 20
-0.870582
 30
0.0
 10
65.916345
 20
-0.851215
 30
0.0
 10
67.830942
 20
-0.743445
 30
0.0
 10
69.734545
 20
-0.550471
 30
0.0
 10
71.620391
 20
-0.275495
 30
0.0
 10
73.268806
 20
0.142343
 30
0.0
 10
74.868435
 20
0.775949
 30
0.0
 10
76.436520
 20
1.541341
 30
0.0
 10
77.990299
 20
2.354543
 30
0.0
 10
79.547014
 20
3.131577
 30
0.0
 10
81.123910
 20
3.788460
 30
0.0
 10
82.738228
 20
4.241221
 30
0.0
 10
84.407206
 20
4.405873
 30
0.0
 10
85.830279
 20
4.255222
 30
0.0
 10
87.205146
 20
3.862308
 30
0.0
 10
88.546798
 20
3.296774
 30
0.0
 10
89.870223
 20
2.628262
 30
0.0
 10
91.190414
 20
1.926410
 30
0.0
 10
92.522361
 20
1.260861
 30
0.0
 10
93.881052
 20
0.701254
 30
0.0
 10
95.281478
 20
0.317235
 30
0.0
 10
97.387395
 20
-0.043527
 30
0.0
 10
99.513560
 20
-0.321368
 30
0.0
 10
101.653470
 20
-0.511876
 30
0.0
 10
103.800620
 20
-0.610642
 30
0.0
 10
105.948513
 20
-0.613288
 30
0.0
 10
108.090640
 20
-0.515334
 30
0.0
 10
110.220504
 20
-0.312407
 30
0.0
 10
112.331601
 20
-0.000090
 30
0.0
 10
113.877588
 20
0.410334
 30
0.0
 10
115.373696
 20
1.032907
 30
0.0
 10
116.837553
 20
1.784781
 30
0.0
 10
118.286787
 20
2.583114
 30
0.0
 10
119.739025
 20
3.345058
 30
0.0
 10
121.211894
 20
3.987771
 30
0.0
 10
122.723024
 20
4.428411
 30
0.0
 10
124.290043
 20
4.584126
 30
0.0
 10
125.782600
 20
4.408786
 30
0.0
 10
127.216991
 20
3.962633
 30
0.0
 10
128.611438
 20
3.324349
 30
0.0
 10
129.984157
 20
2.572628
 30
0.0
 10
131.353370
 20
1.786152
 30
0.0
 10
132.737295
 20
1.043612
 30
0.0
 10
134.154154
 20
0.423691
 30
0.0
 10
135.622168
 20
0.005077
 30
0.0
 10
138.533678
 20
-0.391038
 30
0.0
 10
141.868306
 20
-0.589224
 30
0.0
 10
145.379536
 20
-0.631947
 30
0.0
 10
148.820858
 20
-0.561681
 30
0.0
 10
151.945756
 20
-0.420891
 30
0.0
 10
154.507719
 20
-0.252050
 30
0.0
 10
156.260232
 20
-0.097626
 30
0.0
 10
156.956785
 20
-0.000090
 30
0.0
 10
157.339261
 20
0.288353
 30
0.0
 10
157.725407
 20
0.677691
 30
0.0
 10
158.088392
 20
1.162960
 30
0.0
 10
158.401399
 20
1.739212
 30
0.0
 10
158.637601
 20
2.401488
 30
0.0
 10
158.770175
 20
3.144832
 30
0.0
 10
158.772292
 20
3.964292
 30
0.0
 10
158.617140
 20
4.854911
 30
0.0
 10
158.126971
 20
6.496714
 30
0.0
 10
157.351366
 20
8.833964
 30
0.0
 10
156.372471
 20
11.641820
 30
0.0
 10
155.272439
 20
14.695440
 30
0.0
 10
154.133416
 20
17.769983
 30
0.0
 10
153.037551
 20
20.640609
 30
0.0
 10
152.066994
 20
23.082475
 30
0.0
 10
151.303890
 20
24.870743
 30
0.0
 10
151.099227
 20
25.336683
 30
0.0
 10
150.824870
 20
25.987118
 30
0.0
 10
150.492792
 20
26.792386
 30
0.0
 10
150.114969
 20
27.722817
 30
0.0
 10
149.703375
 20
28.748744
 30
0.0
 10
149.269985
 20
29.840507
 30
0.0
 10
148.826776
 20
30.968434
 30
0.0
 10
148.385721
 20
32.102859
 30
0.0
 10
146.329276
 20
37.376605
 30
0.0
 10
144.712537
 20
41.501380
 30
0.0
 10
143.429993
 20
44.741097
 30
0.0
 10
142.376132
 20
47.359671
 30
0.0
 10
141.445436
 20
49.621017
 30
0.0
 10
140.532398
 20
51.789047
 30
0.0
 10
139.531504
 20
54.127680
 30
0.0
 10
138.337241
 20
56.900829
 30
0.0
 10
137.519652
 20
58.800405
 30
0.0
 10
136.507665
 20
60.846605
 30
0.0
 10
135.354722
 20
63.001578
 30
0.0
 10
134.114263
 20
65.227470
 30
0.0
 10
132.839728
 20
67.486435
 30
0.0
 10
131.584555
 20
69.740619
 30
0.0
 10
130.402185
 20
71.952173
 30
0.0
 10
129.346059
 20
74.083243
 30
0.0
 10
128.784576
 20
75.452637
 30
0.0
 10
128.369188
 20
76.826983
 30
0.0
 10
128.098165
 20
78.165875
 30
0.0
 10
127.969773
 20
79.428904
 30
0.0
 10
127.982288
 20
80.575663
 30
0.0
 10
128.133965
 20
81.565742
 30
0.0
 10
128.423081
 20
82.358733
 30
0.0
 10
128.847901
 20
82.914228
 30
0.0
 10
129.866031
 20
83.390581
 30
0.0
 10
131.724642
 20
83.874446
 30
0.0
 10
134.271576
 20
84.360009
 30
0.0
 10
137.354679
 20
84.841448
 30
0.0
 10
140.821797
 20
85.312946
 30
0.0
 10
144.520770
 20
85.768685
 30
0.0
 10
148.299443
 20
86.202845
 30
0.0
 10
152.005661
 20
86.609611
 30
0.0
 10
152.779368
 20
86.703249
 30
0.0
 10
153.573915
 20
86.817851
 30
0.0
 10
154.366712
 20
86.948952
 30
0.0
 10
155.135171
 20
87.092094
 30
0.0
 10
155.856700
 20
87.242817
 30
0.0
 10
156.508718
 20
87.396656
 30
0.0
 10
157.068629
 20
87.549154
 30
0.0
 10
157.513849
 20
87.695849
 30
0.0
 10
159.016939
 20
88.248866
 30
0.0
 10
160.523442
 20
88.813381
 30
0.0
 10
161.997732
 20
89.419483
 30
0.0
 10
163.404194
 20
90.097263
 30
0.0
 10
164.707206
 20
90.876813
 30
0.0
 10
165.871145
 20
91.788223
 30
0.0
 10
166.860395
 20
92.861582
 30
0.0
 10
167.639331
 20
94.126981
 30
0.0
 10
167.784805
 20
94.430096
 30
0.0
 10
167.916218
 20
94.709133
 30
0.0
 10
168.034201
 20
94.967875
 30
0.0
 10
168.139373
 20
95.210109
 30
0.0
 10
168.232358
 20
95.439619
 30
0.0
 10
168.313783
 20
95.660189
 30
0.0
 10
168.384271
 20
95.875605
 30
0.0
 10
168.444448
 20
96.089653
 30
0.0
 10
168.673275
 20
96.636049
 30
0.0
 10
168.954080
 20
97.066134
 30
0.0
 10
169.292091
 20
97.384407
 30
0.0
 10
169.692527
 20
97.595362
 30
0.0
 10
170.160617
 20
97.703497
 30
0.0
 10
170.701585
 20
97.713313
 30
0.0
 10
171.320651
 20
97.629308
 30
0.0
 10
172.023043
 20
97.455977
 30
0.0
 10
173.224223
 20
96.313829
 30
0.0
 10
174.153759
 20
94.598860
 30
0.0
 10
174.723809
 20
92.498487
 30
0.0
 10
174.846536
 20
90.200128
 30
0.0
 10
174.434104
 20
87.891205
 30
0.0
 10
173.398670
 20
85.759134
 30
0.0
 10
171.652402
 20
83.991331
 30
0.0
 10
169.107457
 20
82.775219
 30
0.0
 10
165.888488
 20
81.026926
 30
0.0
 10
163.202547
 20
79.441569
 30
0.0
 10
160.936345
 20
77.942675
 30
0.0
 10
158.976598
 20
76.453770
 30
0.0
 10
157.210017
 20
74.898377
 30
0.0
 10
155.523320
 20
73.200030
 30
0.0
 10
153.803213
 20
71.282248
 30
0.0
 10
151.936414
 20
69.068564
 30
0.0
 10
150.465550
 20
65.052427
 30
0.0
 10
150.496837
 20
62.375658
 30
0.0
 10
151.740537
 20
60.878231
 30
0.0
 10
153.906909
 20
60.400113
 30
0.0
 10
156.706211
 20
60.781274
 30
0.0
 10
159.848702
 20
61.861687
 30
0.0
 10
163.044641
 20
63.481323
 30
0.0
 10
166.004288
 20
65.480152
 30
0.0
 10
169.256033
 20
67.807647
 30
0.0
 10
172.121169
 20
69.494710
 30
0.0
 10
174.686477
 20
70.704697
 30
0.0
 10
177.038750
 20
71.600975
 30
0.0
 10
179.264769
 20
72.346907
 30
0.0
 10
181.451325
 20
73.105854
 30
0.0
 10
183.685205
 20
74.041180
 30
0.0
 10
186.053194
 20
75.316244
 30
0.0
 10
189.832256
 20
78.116925
 30
0.0
 10
192.454705
 20
81.686286
 30
0.0
 10
194.030797
 20
85.853826
 30
0.0
 10
194.670779
 20
90.449040
 30
0.0
 10
194.484904
 20
95.301427
 30
0.0
 10
193.583423
 20
100.240478
 30
0.0
 10
192.076589
 20
105.095696
 30
0.0
 10
190.074654
 20
109.696573
 30
0.0
 10
189.730137
 20
110.167817
 30
0.0
 10
189.387647
 20
110.649123
 30
0.0
 10
189.046287
 20
111.139190
 30
0.0
 10
188.705157
 20
111.636728
 30
0.0
 10
188.363358
 20
112.140439
 30
0.0
 10
188.019987
 20
112.649026
 30
0.0
 10
187.674153
 20
113.161199
 30
0.0
 10
187.324951
 20
113.675657
 30
0.0
 10
187.136710
 20
113.994205
 30
0.0
 10
186.960707
 20
114.420256
 30
0.0
 10
186.853241
 20
114.932164
 30
0.0
 10
186.870624
 20
115.508289
 30
0.0
 10
187.069135
 20
116.126993
 30
0.0
 10
187.505087
 20
116.766634
 30
0.0
 10
188.234776
 20
117.405571
 30
0.0
 10
189.314503
 20
118.022164
 30
0.0
 10
191.105696
 20
118.808508
 30
0.0
 10
193.150295
 20
119.045313
 30
0.0
 10
195.345956
 20
118.855474
 30
0.0
 10
197.590331
 20
118.361883
 30
0.0
 10
199.781081
 20
117.687429
 30
0.0
 10
201.815860
 20
116.955009
 30
0.0
 10
203.592320
 20
116.287510
 30
0.0
 10
205.008118
 20
115.807829
 30
0.0
 10
206.828491
 20
115.172588
 30
0.0
 10
208.574352
 20
114.581239
 30
0.0
 10
210.280814
 20
114.029485
 30
0.0
 10
211.982993
 20
113.513021
 30
0.0
 10
213.716000
 20
113.027545
 30
0.0
 10
215.514958
 20
112.568755
 30
0.0
 10
217.414973
 20
112.132345
 30
0.0
 10
219.451167
 20
111.714021
 30
0.0
 10
218.385862
 20
114.705212
 30
0.0
 10
217.483320
 20
117.902702
 30
0.0
 10
216.943584
 20
121.209395
 30
0.0
 10
216.966682
 20
124.528210
 30
0.0
 10
217.752682
 20
127.762048
 30
0.0
 10
219.501612
 20
130.813823
 30
0.0
 10
222.413516
 20
133.586445
 30
0.0
 10
226.688439
 20
135.982824
 30
0.0
 10
223.784256
 20
140.033965
 30
0.0
 10
221.806321
 20
144.635313
 30
0.0
 10
220.824267
 20
149.640787
 30
0.0
 10
220.907714
 20
154.904302
 30
0.0
 10
222.126292
 20
160.279775
 30
0.0
 10
224.549627
 20
165.621121
 30
0.0
 10
228.247343
 20
170.782256
 30
0.0
 10
233.289071
 20
175.617098
 30
0.0
 10
228.797668
 20
177.218518
 30
0.0
 10
224.353277
 20
178.513802
 30
0.0
 10
220.071633
 20
179.731341
 30
0.0
 10
216.068472
 20
181.099527
 30
0.0
 10
212.459531
 20
182.846749
 30
0.0
 10
209.360546
 20
185.201399
 30
0.0
 10
206.887253
 20
188.391869
 30
0.0
 10
205.155385
 20
192.646549
 30
0.0
 10
204.947000
 20
194.548406
 30
0.0
 10
204.991674
 20
196.385161
 30
0.0
 10
205.282004
 20
198.176909
 30
0.0
 10
205.810578
 20
199.943752
 30
0.0
 10
206.569996
 20
201.705787
 30
0.0
 10
207.552844
 20
203.483107
 30
0.0
 10
208.751718
 20
205.295817
 30
0.0
 10
210.159215
 20
207.164009
 30
0.0
 10
210.221333
 20
207.285511
 30
0.0
 10
210.139826
 20
207.395456
 30
0.0
 10
209.934268
 20
207.492555
 30
0.0
 10
209.624240
 20
207.575518
 30
0.0
 10
209.229315
 20
207.643053
 30
0.0
 10
208.769073
 20
207.693871
 30
0.0
 10
208.263089
 20
207.726685
 30
0.0
  0
ENDSEC
  0
SECTION
  2
OBJECTS
  0
DICTIONARY
  5
C
330
0
100
AcDbDictionary
  3
ACAD_GROUP
350
D
  3
ACAD_MLINESTYLE
350
17
  0
DICTIONARY
  5
D
330
C
100
AcDbDictionary
  0
DICTIONARY
  5
1A
330
C
100
AcDbDictionary
  0
DICTIONARY
  5
17
330
C
100
AcDbDictionary
  3
STANDARD
350
18
  0
DICTIONARY
  5
19
330
C
100
AcDbDictionary
  0
ENDSEC
  0
EOF
