  0
SECTION
  2
HEADER
  9
$ACADVER
  1
AC1014
  9
$HANDSEED
  5
FFFF
  9
$MEASUREMENT
 70
     1
  0
ENDSEC
  0
SECTION
  2
TABLES
  0
TABLE
  2
VPORT
  5
8
330
0
100
AcDbSymbolTable
 70
     4
  0
VPORT
  5
2E
330
8
100
AcDbSymbolTableRecord
100
AcDbViewportTableRecord
  2
*ACTIVE
 70
     0
 10
0.0
 20
0.0
 11
1.0
 21
1.0
 12
210.0
 22
148.5
 13
0.0
 23
0.0
 14
10.0
 24
10.0
 15
10.0
 25
10.0
 16
0.0
 26
0.0
 36
1.0
 17
0.0
 27
0.0
 37
0.0
 40
341.0
 41
1.24
 42
50.0
 43
0.0
 44
0.0
 50
0.0
 51
0.0
 71
     0
 72
   100
 73
     1
 74
     3
 75
     0
 76
     0
 77
     0
 78
     0
  0
ENDTAB
  0
TABLE
  2
LTYPE
  5
5
330
0
100
AcDbSymbolTable
 70
     1
  0
LTYPE
  5
14
330
5
100
AcDbSymbolTableRecord
100
AcDbLinetypeTableRecord
  2
BYBLOCK
 70
     0
  3

 72
    65
 73
     0
 40
0.0
  0
LTYPE
  5
15
330
5
100
AcDbSymbolTableRecord
100
AcDbLinetypeTableRecord
  2
BYLAYER
 70
     0
  3

 72
    65
 73
     0
 40
0.0
  0
LTYPE
  5
16
330
5
100
AcDbSymbolTableRecord
100
AcDbLinetypeTableRecord
  2
CONTINUOUS
 70
     0
  3
Solid line
 72
    65
 73
     0
 40
0.0
  0
ENDTAB
  0
TABLE
  2
LAYER
  5
2
100
AcDbSymbolTable
 70
1
  0
LAYER
  5
50
100
AcDbSymbolTableRecord
100
AcDbLayerTableRecord
  2
0
 70
0
  6
CONTINUOUS
  0
ENDTAB
  0
TABLE
  2
STYLE
  5
3
330
0
100
AcDbSymbolTable
 70
     1
  0
STYLE
  5
11
330
3
100
AcDbSymbolTableRecord
100
AcDbTextStyleTableRecord
  2
STANDARD
 70
     0
 40
0.0
 41
1.0
 50
0.0
 71
     0
 42
2.5
  3
txt
  4

  0
ENDTAB
  0
TABLE
  2
VIEW
  5
6
330
0
100
AcDbSymbolTable
 70
     0
  0
ENDTAB
  0
TABLE
  2
UCS
  5
7
330
0
100
AcDbSymbolTable
 70
     0
  0
ENDTAB
  0
TABLE
  2
APPID
  5
9
330
0
100
AcDbSymbolTable
 70
     2
  0
APPID
  5
12
330
9
100
AcDbSymbolTableRecord
100
AcDbRegAppTableRecord
  2
ACAD
 70
     0
  0
ENDTAB
  0
TABLE
  2
DIMSTYLE
  5
A
330
0
100
AcDbSymbolTable
 70
     1
  0
DIMSTYLE
105
27
330
A
100
AcDbSymbolTableRecord
100
AcDbDimStyleTableRecord
  2
ISO-25
 70
     0
  3

  4

  5

  6

  7

 40
1.0
 41
2.5
 42
0.625
 43
3.75
 44
1.25
 45
0.0
 46
0.0
 47
0.0
 48
0.0
140
2.5
141
2.5
142
0.0
143
0.03937007874016
144
1.0
145
0.0
146
1.0
147
0.625
 71
     0
 72
     0
 73
     0
 74
     0
 75
     0
 76
     0
 77
     1
 78
     8
170
     0
171
     3
172
     1
173
     0
174
     0
175
     0
176
     0
177
     0
178
     0
270
     2
271
     2
272
     2
273
     2
274
     3
340
11
275
     0
280
     0
281
     0
282
     0
283
     0
284
     8
285
     0
286
     0
287
     3
288
     0
  0
ENDTAB
  0
TABLE
  2
BLOCK_RECORD
  5
1
330
0
100
AcDbSymbolTable
 70
     1
  0
BLOCK_RECORD
  5
1F
330
1
100
AcDbSymbolTableRecord
100
AcDbBlockTableRecord
  2
*MODEL_SPACE
  0
BLOCK_RECORD
  5
1B
330
1
100
AcDbSymbolTableRecord
100
AcDbBlockTableRecord
  2
*PAPER_SPACE
  0
ENDTAB
  0
ENDSEC
  0
SECTION
  2
BLOCKS
  0
BLOCK
  5
20
330
1F
100
AcDbEntity
  8
0
100
AcDbBlockBegin
  2
*MODEL_SPACE
 70
     0
 10
0.0
 20
0.0
 30
0.0
  3
*MODEL_SPACE
  1

  0
ENDBLK
  5
21
330
1F
100
AcDbEntity
  8
0
100
AcDbBlockEnd
  0
BLOCK
  5
1C
330
1B
100
AcDbEntity
 67
     1
  8
0
100
AcDbBlockBegin
  2
*PAPER_SPACE
  1

  0
ENDBLK
  5
1D
330
1B
100
AcDbEntity
 67
     1
  8
0
100
AcDbBlockEnd
  0
ENDSEC
  0
SECTION
  2
ENTITIES
  0
LWPOLYLINE
  5
100
100
AcDbEntity
  8
0
 62
7
100
AcDbPolyline
 90
435
 70
1
 10
119.913612
 20
193.125468
 30
0.0
 10
106.754208
 20
172.069906
 30
0.0
 10
93.633047
 20
185.191069
 30
0.0
 10
93.633047
 20
164.187701
 30
0.0
 10
77.846412
 20
166.818547
 30
0.0
 10
88.832304
 20
144.714987
 30
0.0
 10
88.759959
 20
144.389941
 30
0.0
 10
88.219939
 20
141.298657
 30
0.0
 10
88.118386
 20
140.616879
 30
0.0
 10
88.022869
 20
139.998596
 30
0.0
 10
87.932353
 20
139.440071
 30
0.0
 10
87.845802
 20
138.937561
 30
0.0
 10
87.812803
 20
138.234081
 30
0.0
 10
87.842468
 20
137.275231
 30
0.0
 10
87.873028
 20
136.361162
 30
0.0
 10
87.842701
 20
135.792017
 30
0.0
 10
87.768343
 20
135.166970
 30
0.0
 10
87.669984
 20
134.082687
 30
0.0
 10
87.593969
 20
133.460953
 30
0.0
 10
87.490551
 20
132.835557
 30
0.0
 10
87.352598
 20
132.243550
 30
0.0
 10
87.172975
 20
131.721982
 30
0.0
 10
87.134957
 20
131.640919
 30
0.0
 10
87.091531
 20
131.562213
 30
0.0
 10
87.043144
 20
131.486071
 30
0.0
 10
86.990243
 20
131.412694
 30
0.0
 10
86.933283
 20
131.342291
 30
0.0
 10
86.872707
 20
131.275063
 30
0.0
 10
86.808966
 20
131.211217
 30
0.0
 10
86.742511
 20
131.150958
 30
0.0
 10
86.360905
 20
130.844573
 30
0.0
 10
85.959495
 20
130.563681
 30
0.0
 10
85.541263
 20
130.305831
 30
0.0
 10
85.109203
 20
130.068582
 30
0.0
 10
84.666299
 20
129.849486
 30
0.0
 10
84.215539
 20
129.646093
 30
0.0
 10
83.759916
 20
129.455966
 30
0.0
 10
83.302409
 20
129.276652
 30
0.0
 10
82.590270
 20
129.032074
 30
0.0
 10
81.865420
 20
128.829520
 30
0.0
 10
81.131045
 20
128.658258
 30
0.0
 10
80.390333
 20
128.507559
 30
0.0
 10
79.646470
 20
128.366697
 30
0.0
 10
78.902639
 20
128.224947
 30
0.0
 10
78.162034
 20
128.071576
 30
0.0
 10
77.427833
 20
127.895858
 30
0.0
 10
76.195931
 20
127.574850
 30
0.0
 10
74.964012
 20
127.252174
 30
0.0
 10
73.733316
 20
126.924345
 30
0.0
 10
72.505075
 20
126.587872
 30
0.0
 10
71.280525
 20
126.239259
 30
0.0
 10
70.060897
 20
125.875018
 30
0.0
 10
68.847428
 20
125.491661
 30
0.0
 10
67.641351
 20
125.085695
 30
0.0
 10
64.291308
 20
123.920134
 30
0.0
 10
60.940344
 20
122.740372
 30
0.0
 10
57.599453
 20
121.527414
 30
0.0
 10
54.279636
 20
120.262264
 30
0.0
 10
50.991889
 20
118.925922
 30
0.0
 10
47.747214
 20
117.499395
 30
0.0
 10
44.556606
 20
115.963681
 30
0.0
 10
41.431064
 20
114.299788
 30
0.0
 10
40.918098
 20
113.995824
 30
0.0
 10
40.409164
 20
113.665450
 30
0.0
 10
39.907641
 20
113.315517
 30
0.0
 10
39.416900
 20
112.952882
 30
0.0
 10
38.940314
 20
112.584394
 30
0.0
 10
38.481257
 20
112.216909
 30
0.0
 10
38.043104
 20
111.857282
 30
0.0
 10
37.629230
 20
111.512363
 30
0.0
 10
37.237114
 20
111.178036
 30
0.0
 10
36.861628
 20
110.845298
 30
0.0
 10
36.502208
 20
110.513683
 30
0.0
 10
36.158297
 20
110.182729
 30
0.0
 10
35.829335
 20
109.851968
 30
0.0
 10
35.514762
 20
109.520934
 30
0.0
 10
35.214020
 20
109.189165
 30
0.0
 10
34.926550
 20
108.856193
 30
0.0
 10
34.651783
 20
108.521540
 30
0.0
 10
34.389158
 20
108.184738
 30
0.0
 10
34.138127
 20
107.845326
 30
0.0
 10
33.898144
 20
107.502846
 30
0.0
 10
33.668666
 20
107.156837
 30
0.0
 10
33.449141
 20
106.806841
 30
0.0
 10
33.239027
 20
106.452400
 30
0.0
 10
33.037777
 20
106.093054
 30
0.0
 10
32.733313
 20
105.510116
 30
0.0
 10
32.491696
 20
104.977843
 30
0.0
 10
32.303945
 20
104.453150
 30
0.0
 10
32.161086
 20
103.892956
 30
0.0
 10
32.054141
 20
103.254178
 30
0.0
 10
31.974139
 20
102.493733
 30
0.0
 10
31.912094
 20
101.568541
 30
0.0
 10
31.859037
 20
100.435518
 30
0.0
 10
31.830838
 20
99.726340
 30
0.0
 10
31.809645
 20
99.105027
 30
0.0
 10
31.797077
 20
98.560882
 30
0.0
 10
31.794696
 20
98.083211
 30
0.0
 10
31.804168
 20
97.661317
 30
0.0
 10
31.827055
 20
97.284506
 30
0.0
 10
31.864951
 20
96.942082
 30
0.0
 10
31.919463
 20
96.623349
 30
0.0
 10
26.252987
 20
96.322623
 30
0.0
 10
21.306585
 20
96.038837
 30
0.0
 10
17.068652
 20
95.771179
 30
0.0
 10
13.527584
 20
95.518851
 30
0.0
 10
10.671774
 20
95.281046
 30
0.0
 10
8.489619
 20
95.056957
 30
0.0
 10
6.969512
 20
94.845785
 30
0.0
 10
6.099850
 20
94.646724
 30
0.0
 10
4.936310
 20
94.158088
 30
0.0
 10
3.860043
 20
93.549650
 30
0.0
 10
2.884704
 20
92.835865
 30
0.0
 10
2.023954
 20
92.031193
 30
0.0
 10
1.291447
 20
91.150099
 30
0.0
 10
0.700842
 20
90.207036
 30
0.0
 10
0.265795
 20
89.216468
 30
0.0
 10
0.000000
 20
88.192856
 30
0.0
 10
0.025532
 20
87.162076
 30
0.0
 10
0.539213
 20
86.098097
 30
0.0
 10
1.663634
 20
84.919815
 30
0.0
 10
3.521395
 20
83.546130
 30
0.0
 10
6.235092
 20
81.895942
 30
0.0
 10
9.927320
 20
79.888149
 30
0.0
 10
14.720675
 20
77.441650
 30
0.0
 10
20.737754
 20
74.475345
 30
0.0
 10
24.580113
 20
72.578957
 30
0.0
 10
28.122830
 20
70.787014
 30
0.0
 10
31.296398
 20
69.137604
 30
0.0
 10
34.031322
 20
67.668820
 30
0.0
 10
36.258098
 20
66.418751
 30
0.0
 10
37.907219
 20
65.425489
 30
0.0
 10
38.909191
 20
64.727127
 30
0.0
 10
39.194507
 20
64.361751
 30
0.0
 10
38.918470
 20
63.804483
 30
0.0
 10
38.305333
 20
62.551889
 30
0.0
 10
37.393941
 20
60.683780
 30
0.0
 10
36.223138
 20
58.279953
 30
0.0
 10
34.831771
 20
55.420210
 30
0.0
 10
33.258683
 20
52.184356
 30
0.0
 10
31.542723
 20
48.652187
 30
0.0
 10
29.722736
 20
44.903509
 30
0.0
 10
27.110542
 20
39.490610
 30
0.0
 10
25.064316
 20
35.163599
 30
0.0
 10
23.527670
 20
31.778456
 30
0.0
 10
22.444211
 20
29.191156
 30
0.0
 10
21.757551
 20
27.257677
 30
0.0
 10
21.411297
 20
25.833993
 30
0.0
 10
21.349061
 20
24.776086
 30
0.0
 10
21.514450
 20
23.939929
 30
0.0
 10
22.059034
 20
22.798185
 30
0.0
 10
22.839826
 20
21.856811
 30
0.0
 10
23.829037
 20
21.124725
 30
0.0
 10
24.998883
 20
20.610843
 30
0.0
 10
26.321575
 20
20.324093
 30
0.0
 10
27.769328
 20
20.273394
 30
0.0
 10
29.314352
 20
20.467664
 30
0.0
 10
30.928863
 20
20.915826
 30
0.0
 10
31.725232
 20
21.302131
 30
0.0
 10
33.032396
 20
22.081911
 30
0.0
 10
34.860116
 20
23.261979
 30
0.0
 10
37.218157
 20
24.849140
 30
0.0
 10
40.116281
 20
26.850202
 30
0.0
 10
43.564246
 20
29.271971
 30
0.0
 10
47.571816
 20
32.121255
 30
0.0
 10
52.148756
 20
35.404864
 30
0.0
 10
51.987363
 20
34.991860
 30
0.0
 10
51.829311
 20
34.586778
 30
0.0
 10
51.675205
 20
34.191091
 30
0.0
 10
51.525646
 20
33.806268
 30
0.0
 10
51.381245
 20
33.433779
 30
0.0
 10
51.242600
 20
33.075099
 30
0.0
 10
51.110319
 20
32.731697
 30
0.0
 10
50.985002
 20
32.405045
 30
0.0
 10
50.551485
 20
31.277827
 30
0.0
 10
50.121688
 20
30.170557
 30
0.0
 10
49.706832
 20
29.111448
 30
0.0
 10
49.318132
 20
28.128717
 30
0.0
 10
48.966808
 20
27.250578
 30
0.0
 10
48.664074
 20
26.505249
 30
0.0
 10
48.421150
 20
25.920943
 30
0.0
 10
48.249253
 20
25.525878
 30
0.0
 10
47.373828
 20
23.501480
 30
0.0
 10
46.337471
 20
20.941443
 30
0.0
 10
45.212413
 20
18.041525
 30
0.0
 10
44.070879
 20
14.997480
 30
0.0
 10
42.985100
 20
12.005059
 30
0.0
 10
42.027306
 20
9.260015
 30
0.0
 10
41.269727
 20
6.958100
 30
0.0
 10
40.784592
 20
5.295072
 30
0.0
 10
40.571142
 20
4.360082
 30
0.0
 10
40.434445
 20
3.532934
 30
0.0
 10
40.374951
 20
2.809060
 30
0.0
 10
40.393101
 20
2.183900
 30
0.0
 10
40.489359
 20
1.652886
 30
0.0
 10
40.664167
 20
1.211456
 30
0.0
 10
40.917971
 20
0.855043
 30
0.0
 10
41.251222
 20
0.579083
 30
0.0
 10
41.333195
 20
0.544460
 30
0.0
 10
41.415166
 20
0.509836
 30
0.0
 10
41.497139
 20
0.475213
 30
0.0
 10
41.579109
 20
0.440589
 30
0.0
 10
41.661083
 20
0.405966
 30
0.0
 10
41.743053
 20
0.371343
 30
0.0
 10
41.825024
 20
0.336719
 30
0.0
 10
41.906997
 20
0.302096
 30
0.0
 10
42.459219
 20
0.260376
 30
0.0
 10
43.911819
 20
0.241512
 30
0.0
 10
46.217888
 20
0.240189
 30
0.0
 10
49.330515
 20
0.250957
 30
0.0
 10
53.202792
 20
0.268446
 30
0.0
 10
57.787813
 20
0.287205
 30
0.0
 10
63.038667
 20
0.301995
 30
0.0
 10
68.908448
 20
0.307419
 30
0.0
 10
72.643944
 20
0.306890
 30
0.0
 10
76.379440
 20
0.306096
 30
0.0
 10
80.114934
 20
0.305567
 30
0.0
 10
83.850430
 20
0.304774
 30
0.0
 10
87.585926
 20
0.304244
 30
0.0
 10
91.321422
 20
0.303451
 30
0.0
 10
95.056918
 20
0.302921
 30
0.0
 10
98.792414
 20
0.302128
 30
0.0
 10
98.887045
 20
0.401346
 30
0.0
 10
98.981678
 20
0.500565
 30
0.0
 10
99.076309
 20
0.599784
 30
0.0
 10
99.170942
 20
0.699003
 30
0.0
 10
99.265573
 20
0.798221
 30
0.0
 10
99.360207
 20
0.897440
 30
0.0
 10
99.454838
 20
0.996659
 30
0.0
 10
99.549471
 20
1.095878
 30
0.0
 10
99.941330
 20
1.843926
 30
0.0
 10
100.443149
 20
3.276854
 30
0.0
 10
101.022187
 20
5.203132
 30
0.0
 10
101.645696
 20
7.431225
 30
0.0
 10
102.895154
 20
12.026744
 30
0.0
 10
103.929566
 20
15.531171
 30
0.0
 10
104.931734
 20
18.405253
 30
0.0
 10
106.645056
 20
22.894486
 30
0.0
 10
108.877521
 20
27.895735
 30
0.0
 10
111.437118
 20
32.305858
 30
0.0
 10
112.594692
 20
34.052412
 30
0.0
 10
113.866393
 20
35.817164
 30
0.0
 10
115.343652
 20
37.168561
 30
0.0
 10
117.117910
 20
37.675039
 30
0.0
 10
118.643860
 20
37.136176
 30
0.0
 10
119.864293
 20
35.873386
 30
0.0
 10
120.882913
 20
34.259951
 30
0.0
 10
121.803411
 20
32.669144
 30
0.0
 10
123.883031
 20
28.619831
 30
0.0
 10
125.467901
 20
24.331218
 30
0.0
 10
126.840451
 20
19.927078
 30
0.0
 10
128.283118
 20
15.531171
 30
0.0
 10
129.818469
 20
10.819709
 30
0.0
 10
131.214278
 20
6.048716
 30
0.0
 10
132.370788
 20
2.211692
 30
0.0
 10
133.188247
 20
0.302128
 30
0.0
 10
134.023267
 20
0.000005
 30
0.0
 10
137.386401
 20
0.034100
 30
0.0
 10
146.175968
 20
0.203496
 30
0.0
 10
163.290284
 20
0.307295
 30
0.0
 10
174.173332
 20
0.287134
 30
0.0
 10
182.100561
 20
0.250883
 30
0.0
 10
186.987767
 20
0.241543
 30
0.0
 10
188.750747
 20
0.302120
 30
0.0
 10
189.519369
 20
0.979900
 30
0.0
 10
190.195361
 20
2.041422
 30
0.0
 10
190.564138
 20
3.447042
 30
0.0
 10
190.411111
 20
5.157121
 30
0.0
 10
189.145336
 20
9.136174
 30
0.0
 10
187.066409
 20
14.997650
 30
0.0
 10
184.831522
 20
20.942819
 30
0.0
 10
183.097861
 20
25.172953
 30
0.0
 10
182.618840
 20
26.289328
 30
0.0
 10
181.908939
 20
28.025027
 30
0.0
 10
181.063956
 20
30.142717
 30
0.0
 10
180.179692
 20
32.405069
 30
0.0
 10
179.161437
 20
35.015350
 30
0.0
 10
177.951567
 20
38.080381
 30
0.0
 10
176.701566
 20
41.218175
 30
0.0
 10
175.562921
 20
44.046735
 30
0.0
 10
174.531763
 20
46.596906
 30
0.0
 10
174.037191
 20
47.824747
 30
0.0
 10
173.574424
 20
48.976719
 30
0.0
 10
173.156806
 20
50.019553
 30
0.0
 10
172.797687
 20
50.919970
 30
0.0
 10
172.510416
 20
51.644696
 30
0.0
 10
172.308337
 20
52.160453
 30
0.0
 10
171.397200
 20
54.276704
 30
0.0
 10
170.138587
 20
56.894135
 30
0.0
 10
168.636963
 20
59.856709
 30
0.0
 10
166.996798
 20
63.008388
 30
0.0
 10
165.322554
 20
66.193141
 30
0.0
 10
163.718700
 20
69.254926
 30
0.0
 10
162.289702
 20
72.037707
 30
0.0
 10
161.140029
 20
74.385453
 30
0.0
 10
160.578546
 20
75.641158
 30
0.0
 10
160.163158
 20
76.715781
 30
0.0
 10
159.892135
 20
77.630928
 30
0.0
 10
159.763743
 20
78.408197
 30
0.0
 10
159.776258
 20
79.069197
 30
0.0
 10
159.927938
 20
79.635530
 30
0.0
 10
160.217054
 20
80.128798
 30
0.0
 10
160.641874
 20
80.570604
 30
0.0
 10
161.660004
 20
81.046958
 30
0.0
 10
163.518615
 20
81.530822
 30
0.0
 10
166.065549
 20
82.016386
 30
0.0
 10
169.148652
 20
82.497824
 30
0.0
 10
172.615770
 20
82.969322
 30
0.0
 10
176.314743
 20
83.425062
 30
0.0
 10
180.093416
 20
83.859222
 30
0.0
 10
183.799633
 20
84.265987
 30
0.0
 10
184.573341
 20
84.359626
 30
0.0
 10
185.367888
 20
84.474227
 30
0.0
 10
186.160685
 20
84.605328
 30
0.0
 10
186.929144
 20
84.748471
 30
0.0
 10
187.650673
 20
84.899190
 30
0.0
 10
188.302691
 20
85.053032
 30
0.0
 10
188.862602
 20
85.205530
 30
0.0
 10
189.307822
 20
85.352226
 30
0.0
 10
190.810912
 20
86.018931
 30
0.0
 10
192.317415
 20
86.883169
 30
0.0
 10
193.791708
 20
87.913017
 30
0.0
 10
195.198167
 20
89.076556
 30
0.0
 10
196.501176
 20
90.341865
 30
0.0
 10
197.665118
 20
91.677022
 30
0.0
 10
198.654366
 20
93.050103
 30
0.0
 10
199.433304
 20
94.429191
 30
0.0
 10
199.776657
 20
95.154694
 30
0.0
 10
200.035528
 20
95.761874
 30
0.0
 10
200.219535
 20
96.313501
 30
0.0
 10
200.338290
 20
96.872356
 30
0.0
 10
200.401412
 20
97.501210
 30
0.0
 10
200.418531
 20
98.262842
 30
0.0
 10
200.399243
 20
99.220028
 30
0.0
 10
200.353160
 20
100.435542
 30
0.0
 10
200.237831
 20
102.498033
 30
0.0
 10
200.049760
 20
103.899592
 30
0.0
 10
199.715602
 20
104.990617
 30
0.0
 10
199.162019
 20
106.121502
 30
0.0
 10
198.541796
 20
107.166460
 30
0.0
 10
198.196332
 20
107.680699
 30
0.0
 10
197.827545
 20
108.189197
 30
0.0
 10
197.435626
 20
108.691767
 30
0.0
 10
197.020759
 20
109.188229
 30
0.0
 10
196.583131
 20
109.678396
 30
0.0
 10
196.122928
 20
110.162081
 30
0.0
 10
196.055610
 20
110.230407
 30
0.0
 10
195.987620
 20
110.298894
 30
0.0
 10
195.918997
 20
110.367519
 30
0.0
 10
195.849788
 20
110.436258
 30
0.0
 10
195.780033
 20
110.505089
 30
0.0
 10
195.709775
 20
110.573995
 30
0.0
 10
195.639058
 20
110.642945
 30
0.0
 10
195.567922
 20
110.711919
 30
0.0
 10
196.832813
 20
111.556678
 30
0.0
 10
198.074857
 20
112.417566
 30
0.0
 10
199.345457
 20
113.329680
 30
0.0
 10
200.696015
 20
114.328120
 30
0.0
 10
202.177928
 20
115.447979
 30
0.0
 10
203.842601
 20
116.724361
 30
0.0
 10
205.741431
 20
118.192357
 30
0.0
 10
207.925823
 20
119.887069
 30
0.0
 10
209.053451
 20
121.118881
 30
0.0
 10
209.729909
 20
122.445828
 30
0.0
 10
209.978673
 20
123.786527
 30
0.0
 10
209.823219
 20
125.059588
 30
0.0
 10
209.287028
 20
126.183636
 30
0.0
 10
208.393575
 20
127.077280
 30
0.0
 10
207.166342
 20
127.659135
 30
0.0
 10
205.628806
 20
127.847823
 30
0.0
 10
200.925300
 20
127.457057
 30
0.0
 10
196.917239
 20
127.246515
 30
0.0
 10
193.426866
 20
127.150249
 30
0.0
 10
190.276430
 20
127.102306
 30
0.0
 10
187.288167
 20
127.036740
 30
0.0
 10
184.284329
 20
126.887600
 30
0.0
 10
181.087157
 20
126.588938
 30
0.0
 10
177.518893
 20
126.074805
 30
0.0
 10
176.600043
 20
125.869314
 30
0.0
 10
175.875709
 20
125.657179
 30
0.0
 10
175.311869
 20
125.405661
 30
0.0
 10
174.874502
 20
125.082022
 30
0.0
 10
174.529586
 20
124.653522
 30
0.0
 10
174.243095
 20
124.087419
 30
0.0
 10
173.981012
 20
123.350978
 30
0.0
 10
173.709309
 20
122.411461
 30
0.0
 10
173.687613
 20
122.332139
 30
0.0
 10
173.665917
 20
122.252814
 30
0.0
 10
173.644221
 20
122.173492
 30
0.0
 10
173.622525
 20
122.094170
 30
0.0
 10
173.600830
 20
122.014845
 30
0.0
 10
173.579134
 20
121.935523
 30
0.0
 10
173.557438
 20
121.856198
 30
0.0
 10
173.535742
 20
121.776876
 30
0.0
 10
170.731963
 20
122.732744
 30
0.0
 10
167.919109
 20
123.659175
 30
0.0
 10
165.103760
 20
124.566881
 30
0.0
 10
162.292501
 20
125.466573
 30
0.0
 10
160.995257
 20
125.828912
 30
0.0
 10
159.680513
 20
126.128867
 30
0.0
 10
158.362928
 20
126.419488
 30
0.0
 10
157.057161
 20
126.753832
 30
0.0
 10
155.742632
 20
127.157485
 30
0.0
 10
154.438062
 20
127.593434
 30
0.0
 10
153.137952
 20
128.043665
 30
0.0
 10
151.836808
 20
128.490160
 30
0.0
 10
150.838429
 20
128.819907
 30
0.0
 10
149.839111
 20
129.147128
 30
0.0
 10
148.843484
 20
129.484602
 30
0.0
 10
147.856173
 20
129.845118
 30
0.0
 10
147.416271
 20
130.011408
 30
0.0
 10
146.968721
 20
130.185253
 30
0.0
 10
146.546189
 20
130.368085
 30
0.0
 10
146.181339
 20
130.561353
 30
0.0
 10
145.876052
 20
130.771535
 30
0.0
 10
145.607506
 20
131.009133
 30
0.0
 10
145.371370
 20
131.281612
 30
0.0
 10
145.163312
 20
131.596432
 30
0.0
 10
144.979025
 20
132.705165
 30
0.0
 10
144.814179
 20
134.764111
 30
0.0
 10
144.664478
 20
136.887823
 30
0.0
 10
144.525627
 20
138.190862
 30
0.0
 10
144.393317
 20
138.829550
 30
0.0
 10
144.263192
 20
139.555458
 30
0.0
 10
144.130961
 20
140.376024
 30
0.0
 10
143.992325
 20
141.298681
 30
0.0
 10
143.428535
 20
144.551712
 30
0.0
 10
142.724185
 20
147.487452
 30
0.0
 10
141.851369
 20
150.164289
 30
0.0
 10
140.781151
 20
152.640109
 30
0.0
 10
139.485105
 20
154.973298
 30
0.0
 10
137.934298
 20
157.222256
 30
0.0
 10
136.656339
 20
158.805107
 30
0.0
 10
151.453884
 20
182.650287
 30
0.0
 10
125.160400
 20
174.761880
 30
0.0
  0
ENDSEC
  0
SECTION
  2
OBJECTS
  0
DICTIONARY
  5
C
330
0
100
AcDbDictionary
  3
ACAD_GROUP
350
D
  3
ACAD_MLINESTYLE
350
17
  0
DICTIONARY
  5
D
330
C
100
AcDbDictionary
  0
DICTIONARY
  5
1A
330
C
100
AcDbDictionary
  0
DICTIONARY
  5
17
330
C
100
AcDbDictionary
  3
STANDARD
350
18
  0
DICTIONARY
  5
19
330
C
100
AcDbDictionary
  0
ENDSEC
  0
EOF
