  0
SECTION
  2
HEADER
  9
$ACADVER
  1
AC1014
  9
$HANDSEED
  5
FFFF
  9
$MEASUREMENT
 70
     1
  0
ENDSEC
  0
SECTION
  2
TABLES
  0
TABLE
  2
VPORT
  5
8
330
0
100
AcDbSymbolTable
 70
     4
  0
VPORT
  5
2E
330
8
100
AcDbSymbolTableRecord
100
AcDbViewportTableRecord
  2
*ACTIVE
 70
     0
 10
0.0
 20
0.0
 11
1.0
 21
1.0
 12
210.0
 22
148.5
 13
0.0
 23
0.0
 14
10.0
 24
10.0
 15
10.0
 25
10.0
 16
0.0
 26
0.0
 36
1.0
 17
0.0
 27
0.0
 37
0.0
 40
341.0
 41
1.24
 42
50.0
 43
0.0
 44
0.0
 50
0.0
 51
0.0
 71
     0
 72
   100
 73
     1
 74
     3
 75
     0
 76
     0
 77
     0
 78
     0
  0
ENDTAB
  0
TABLE
  2
LTYPE
  5
5
330
0
100
AcDbSymbolTable
 70
     1
  0
LTYPE
  5
14
330
5
100
AcDbSymbolTableRecord
100
AcDbLinetypeTableRecord
  2
BYBLOCK
 70
     0
  3

 72
    65
 73
     0
 40
0.0
  0
LTYPE
  5
15
330
5
100
AcDbSymbolTableRecord
100
AcDbLinetypeTableRecord
  2
BYLAYER
 70
     0
  3

 72
    65
 73
     0
 40
0.0
  0
LTYPE
  5
16
330
5
100
AcDbSymbolTableRecord
100
AcDbLinetypeTableRecord
  2
CONTINUOUS
 70
     0
  3
Solid line
 72
    65
 73
     0
 40
0.0
  0
ENDTAB
  0
TABLE
  2
LAYER
  5
2
100
AcDbSymbolTable
 70
1
  0
LAYER
  5
50
100
AcDbSymbolTableRecord
100
AcDbLayerTableRecord
  2
0
 70
0
  6
CONTINUOUS
  0
ENDTAB
  0
TABLE
  2
STYLE
  5
3
330
0
100
AcDbSymbolTable
 70
     1
  0
STYLE
  5
11
330
3
100
AcDbSymbolTableRecord
100
AcDbTextStyleTableRecord
  2
STANDARD
 70
     0
 40
0.0
 41
1.0
 50
0.0
 71
     0
 42
2.5
  3
txt
  4

  0
ENDTAB
  0
TABLE
  2
VIEW
  5
6
330
0
100
AcDbSymbolTable
 70
     0
  0
ENDTAB
  0
TABLE
  2
UCS
  5
7
330
0
100
AcDbSymbolTable
 70
     0
  0
ENDTAB
  0
TABLE
  2
APPID
  5
9
330
0
100
AcDbSymbolTable
 70
     2
  0
APPID
  5
12
330
9
100
AcDbSymbolTableRecord
100
AcDbRegAppTableRecord
  2
ACAD
 70
     0
  0
ENDTAB
  0
TABLE
  2
DIMSTYLE
  5
A
330
0
100
AcDbSymbolTable
 70
     1
  0
DIMSTYLE
105
27
330
A
100
AcDbSymbolTableRecord
100
AcDbDimStyleTableRecord
  2
ISO-25
 70
     0
  3

  4

  5

  6

  7

 40
1.0
 41
2.5
 42
0.625
 43
3.75
 44
1.25
 45
0.0
 46
0.0
 47
0.0
 48
0.0
140
2.5
141
2.5
142
0.0
143
0.03937007874016
144
1.0
145
0.0
146
1.0
147
0.625
 71
     0
 72
     0
 73
     0
 74
     0
 75
     0
 76
     0
 77
     1
 78
     8
170
     0
171
     3
172
     1
173
     0
174
     0
175
     0
176
     0
177
     0
178
     0
270
     2
271
     2
272
     2
273
     2
274
     3
340
11
275
     0
280
     0
281
     0
282
     0
283
     0
284
     8
285
     0
286
     0
287
     3
288
     0
  0
ENDTAB
  0
TABLE
  2
BLOCK_RECORD
  5
1
330
0
100
AcDbSymbolTable
 70
     1
  0
BLOCK_RECORD
  5
1F
330
1
100
AcDbSymbolTableRecord
100
AcDbBlockTableRecord
  2
*MODEL_SPACE
  0
BLOCK_RECORD
  5
1B
330
1
100
AcDbSymbolTableRecord
100
AcDbBlockTableRecord
  2
*PAPER_SPACE
  0
ENDTAB
  0
ENDSEC
  0
SECTION
  2
BLOCKS
  0
BLOCK
  5
20
330
1F
100
AcDbEntity
  8
0
100
AcDbBlockBegin
  2
*MODEL_SPACE
 70
     0
 10
0.0
 20
0.0
 30
0.0
  3
*MODEL_SPACE
  1

  0
ENDBLK
  5
21
330
1F
100
AcDbEntity
  8
0
100
AcDbBlockEnd
  0
BLOCK
  5
1C
330
1B
100
AcDbEntity
 67
     1
  8
0
100
AcDbBlockBegin
  2
*PAPER_SPACE
  1

  0
ENDBLK
  5
1D
330
1B
100
AcDbEntity
 67
     1
  8
0
100
AcDbBlockEnd
  0
ENDSEC
  0
SECTION
  2
ENTITIES
  0
LWPOLYLINE
  5
100
100
AcDbEntity
  8
0
 62
7
100
AcDbPolyline
 90
1760
 70
1
 10
201.320527
 20
216.291208
 30
0.0
 10
201.230304
 20
216.290678
 30
0.0
 10
201.139854
 20
216.289885
 30
0.0
 10
201.049173
 20
216.288826
 30
0.0
 10
200.958267
 20
216.287768
 30
0.0
 10
200.867134
 20
216.286445
 30
0.0
 10
200.775774
 20
216.285122
 30
0.0
 10
200.684188
 20
216.283535
 30
0.0
 10
200.592375
 20
216.281683
 30
0.0
 10
200.500340
 20
216.279831
 30
0.0
 10
200.408077
 20
216.277714
 30
0.0
 10
200.315592
 20
216.275597
 30
0.0
 10
200.222882
 20
216.273216
 30
0.0
 10
200.129950
 20
216.270570
 30
0.0
 10
200.036795
 20
216.267898
 30
0.0
 10
199.943416
 20
216.265067
 30
0.0
 10
199.849817
 20
216.262077
 30
0.0
 10
195.581320
 20
215.731111
 30
0.0
 10
191.354877
 20
215.099236
 30
0.0
 10
187.173378
 20
214.349200
 30
0.0
 10
183.039710
 20
213.463756
 30
0.0
 10
178.956758
 20
212.425653
 30
0.0
 10
174.927413
 20
211.217642
 30
0.0
 10
170.954557
 20
209.822476
 30
0.0
 10
167.041081
 20
208.222900
 30
0.0
 10
163.189872
 20
206.401673
 30
0.0
 10
159.403817
 20
204.341540
 30
0.0
 10
155.685805
 20
202.025250
 30
0.0
 10
152.038719
 20
199.435559
 30
0.0
 10
148.465447
 20
196.555214
 30
0.0
 10
144.968881
 20
193.366969
 30
0.0
 10
141.551903
 20
189.853572
 30
0.0
 10
138.217402
 20
185.997775
 30
0.0
 10
138.106174
 20
185.838208
 30
0.0
 10
137.838550
 20
185.426795
 30
0.0
 10
137.459000
 20
184.794397
 30
0.0
 10
137.011987
 20
183.971879
 30
0.0
 10
136.541970
 20
182.990102
 30
0.0
 10
136.093420
 20
181.879930
 30
0.0
 10
135.710800
 20
180.672224
 30
0.0
 10
135.438571
 20
179.397847
 30
0.0
 10
135.321201
 20
178.087663
 30
0.0
 10
135.403153
 20
176.772533
 30
0.0
 10
135.728890
 20
175.483321
 30
0.0
 10
136.342879
 20
174.250888
 30
0.0
 10
137.289582
 20
173.106099
 30
0.0
 10
138.613465
 20
172.079815
 30
0.0
 10
140.358992
 20
171.202899
 30
0.0
 10
142.570626
 20
170.506214
 30
0.0
 10
143.330149
 20
170.396955
 30
0.0
 10
143.974436
 20
170.297667
 30
0.0
 10
144.517843
 20
170.207582
 30
0.0
 10
144.974720
 20
170.125936
 30
0.0
 10
145.359424
 20
170.051961
 30
0.0
 10
145.686309
 20
169.984890
 30
0.0
 10
145.969731
 20
169.923959
 30
0.0
 10
146.224040
 20
169.868401
 30
0.0
 10
146.463591
 20
169.817448
 30
0.0
 10
146.702743
 20
169.770336
 30
0.0
 10
146.955843
 20
169.726298
 30
0.0
 10
147.237252
 20
169.684567
 30
0.0
 10
147.561321
 20
169.644378
 30
0.0
 10
147.942403
 20
169.604964
 30
0.0
 10
148.394854
 20
169.565558
 30
0.0
 10
148.933027
 20
169.525395
 30
0.0
 10
149.515166
 20
169.485582
 30
0.0
 10
150.058726
 20
169.451959
 30
0.0
 10
150.567697
 20
169.418879
 30
0.0
 10
151.046077
 20
169.380697
 30
0.0
 10
151.497850
 20
169.331766
 30
0.0
 10
151.927018
 20
169.266440
 30
0.0
 10
152.337566
 20
169.179072
 30
0.0
 10
152.733491
 20
169.064016
 30
0.0
 10
153.118786
 20
168.915626
 30
0.0
 10
153.497439
 20
168.728255
 30
0.0
 10
153.873446
 20
168.496258
 30
0.0
 10
154.250800
 20
168.213988
 30
0.0
 10
154.633493
 20
167.875798
 30
0.0
 10
155.025519
 20
167.476043
 30
0.0
 10
155.430868
 20
167.009076
 30
0.0
 10
155.853535
 20
166.469251
 30
0.0
 10
156.239152
 20
166.038633
 30
0.0
 10
156.611503
 20
165.542678
 30
0.0
 10
156.967171
 20
164.984524
 30
0.0
 10
157.302742
 20
164.367308
 30
0.0
 10
157.614803
 20
163.694167
 30
0.0
 10
157.899936
 20
162.968239
 30
0.0
 10
158.154730
 20
162.192661
 30
0.0
 10
158.375765
 20
161.370571
 30
0.0
 10
158.559630
 20
160.505106
 30
0.0
 10
158.702907
 20
159.599403
 30
0.0
 10
158.802181
 20
158.656599
 30
0.0
 10
158.854039
 20
157.679832
 30
0.0
 10
158.855098
 20
156.672240
 30
0.0
 10
158.801880
 20
155.636959
 30
0.0
 10
158.690995
 20
154.577128
 30
0.0
 10
158.519037
 20
153.495882
 30
0.0
 10
158.208446
 20
153.427390
 30
0.0
 10
157.905267
 20
153.371923
 30
0.0
 10
157.609339
 20
153.330179
 30
0.0
 10
157.320507
 20
153.302858
 30
0.0
 10
157.038604
 20
153.290658
 30
0.0
 10
156.763474
 20
153.294277
 30
0.0
 10
156.494954
 20
153.314415
 30
0.0
 10
156.232881
 20
153.351769
 30
0.0
 10
155.977101
 20
153.407038
 30
0.0
 10
155.727450
 20
153.480921
 30
0.0
 10
155.483769
 20
153.574116
 30
0.0
 10
155.245893
 20
153.687322
 30
0.0
 10
155.013668
 20
153.821238
 30
0.0
 10
154.786928
 20
153.976562
 30
0.0
 10
154.565514
 20
154.153993
 30
0.0
 10
154.349267
 20
154.354229
 30
0.0
 10
154.211290
 20
154.534739
 30
0.0
 10
154.070796
 20
154.746022
 30
0.0
 10
153.931440
 20
154.983268
 30
0.0
 10
153.796860
 20
155.241667
 30
0.0
 10
153.670704
 20
155.516407
 30
0.0
 10
153.556618
 20
155.802680
 30
0.0
 10
153.458249
 20
156.095673
 30
0.0
 10
153.379236
 20
156.390577
 30
0.0
 10
153.323232
 20
156.682581
 30
0.0
 10
153.293882
 20
156.966875
 30
0.0
 10
153.294940
 20
157.238648
 30
0.0
 10
153.329825
 20
157.493089
 30
0.0
 10
153.402300
 20
157.725389
 30
0.0
 10
153.516010
 20
157.930736
 30
0.0
 10
153.674596
 20
158.104320
 30
0.0
 10
153.881709
 20
158.241331
 30
0.0
 10
154.217039
 20
158.820791
 30
0.0
 10
154.465319
 20
159.381206
 30
0.0
 10
154.630530
 20
159.920780
 30
0.0
 10
154.716657
 20
160.437719
 30
0.0
 10
154.727690
 20
160.930227
 30
0.0
 10
154.667609
 20
161.396507
 30
0.0
 10
154.540400
 20
161.834766
 30
0.0
 10
154.350048
 20
162.243207
 30
0.0
 10
154.100538
 20
162.620035
 30
0.0
 10
153.795854
 20
162.963454
 30
0.0
 10
153.439982
 20
163.271669
 30
0.0
 10
153.036908
 20
163.542885
 30
0.0
 10
152.590614
 20
163.775306
 30
0.0
 10
152.105087
 20
163.967136
 30
0.0
 10
151.584311
 20
164.116581
 30
0.0
 10
151.032271
 20
164.221844
 30
0.0
 10
149.802202
 20
164.327872
 30
0.0
 10
148.711722
 20
164.405778
 30
0.0
 10
147.745304
 20
164.458930
 30
0.0
 10
146.887414
 20
164.490696
 30
0.0
 10
146.122520
 20
164.504444
 30
0.0
 10
145.435087
 20
164.503545
 30
0.0
 10
144.809583
 20
164.491358
 30
0.0
 10
144.230479
 20
164.471255
 30
0.0
 10
143.682238
 20
164.446604
 30
0.0
 10
143.149331
 20
164.420772
 30
0.0
 10
142.616222
 20
164.397129
 30
0.0
 10
142.067381
 20
164.379040
 30
0.0
 10
141.487274
 20
164.369874
 30
0.0
 10
140.860370
 20
164.372996
 30
0.0
 10
140.171136
 20
164.391777
 30
0.0
 10
139.404040
 20
164.429583
 30
0.0
 10
138.461599
 20
164.361813
 30
0.0
 10
137.596073
 20
164.265104
 30
0.0
 10
136.796055
 20
164.140899
 30
0.0
 10
136.050142
 20
163.990642
 30
0.0
 10
135.346929
 20
163.815777
 30
0.0
 10
134.675010
 20
163.617746
 30
0.0
 10
134.022984
 20
163.397994
 30
0.0
 10
133.379443
 20
163.157965
 30
0.0
 10
132.732984
 20
162.899102
 30
0.0
 10
132.072203
 20
162.622849
 30
0.0
 10
131.385694
 20
162.330649
 30
0.0
 10
130.662056
 20
162.023945
 30
0.0
 10
129.889880
 20
161.704183
 30
0.0
 10
129.057765
 20
161.372804
 30
0.0
 10
128.154306
 20
161.031254
 30
0.0
 10
127.168095
 20
160.680974
 30
0.0
 10
126.679500
 20
160.362901
 30
0.0
 10
126.063764
 20
159.880297
 30
0.0
 10
125.344486
 20
159.250202
 30
0.0
 10
124.545265
 20
158.489656
 30
0.0
 10
123.689700
 20
157.615698
 30
0.0
 10
122.801391
 20
156.645368
 30
0.0
 10
121.903937
 20
155.595708
 30
0.0
 10
121.020938
 20
154.483755
 30
0.0
 10
120.175994
 20
153.326552
 30
0.0
 10
119.392703
 20
152.141136
 30
0.0
 10
118.694666
 20
150.944549
 30
0.0
 10
118.105481
 20
149.753830
 30
0.0
 10
117.648749
 20
148.586019
 30
0.0
 10
117.348071
 20
147.458156
 30
0.0
 10
117.227043
 20
146.387282
 30
0.0
 10
117.309265
 20
145.390435
 30
0.0
 10
117.364018
 20
144.845921
 30
0.0
 10
117.495235
 20
144.252461
 30
0.0
 10
117.698266
 20
143.622566
 30
0.0
 10
117.968456
 20
142.968748
 30
0.0
 10
118.301151
 20
142.303517
 30
0.0
 10
118.691697
 20
141.639386
 30
0.0
 10
119.135443
 20
140.988868
 30
0.0
 10
119.627735
 20
140.364470
 30
0.0
 10
120.163918
 20
139.778706
 30
0.0
 10
120.739342
 20
139.244087
 30
0.0
 10
121.349352
 20
138.773123
 30
0.0
 10
121.989292
 20
138.378328
 30
0.0
 10
122.654515
 20
138.072213
 30
0.0
 10
123.340360
 20
137.867288
 30
0.0
 10
124.042181
 20
137.776065
 30
0.0
 10
124.755320
 20
137.811053
 30
0.0
 10
125.188866
 20
137.903980
 30
0.0
 10
125.732940
 20
137.949105
 30
0.0
 10
126.371236
 20
137.950428
 30
0.0
 10
127.087455
 20
137.912285
 30
0.0
 10
127.865301
 20
137.838676
 30
0.0
 10
128.688470
 20
137.733713
 30
0.0
 10
129.540667
 20
137.601511
 30
0.0
 10
130.405584
 20
137.446177
 30
0.0
 10
131.266927
 20
137.271824
 30
0.0
 10
132.108392
 20
137.082568
 30
0.0
 10
132.913684
 20
136.882519
 30
0.0
 10
133.666497
 20
136.675787
 30
0.0
 10
134.350538
 20
136.466486
 30
0.0
 10
134.949499
 20
136.258727
 30
0.0
 10
135.447088
 20
136.056625
 30
0.0
 10
135.826997
 20
135.864289
 30
0.0
 10
136.043424
 20
135.715238
 30
0.0
 10
136.241967
 20
135.569299
 30
0.0
 10
136.423191
 20
135.425750
 30
0.0
 10
136.587661
 20
135.283862
 30
0.0
 10
136.735939
 20
135.142913
 30
0.0
 10
136.868588
 20
135.002176
 30
0.0
 10
136.986171
 20
134.860922
 30
0.0
 10
137.089253
 20
134.718434
 30
0.0
 10
137.178399
 20
134.573979
 30
0.0
 10
137.254168
 20
134.426834
 30
0.0
 10
137.317125
 20
134.276275
 30
0.0
 10
137.367836
 20
134.121576
 30
0.0
 10
137.406859
 20
133.962009
 30
0.0
 10
137.434762
 20
133.796853
 30
0.0
 10
137.452119
 20
133.625379
 30
0.0
 10
137.459474
 20
133.446865
 30
0.0
 10
137.457886
 20
133.220889
 30
0.0
 10
137.446165
 20
132.991467
 30
0.0
 10
137.423438
 20
132.760189
 30
0.0
 10
137.388793
 20
132.528655
 30
0.0
 10
137.341330
 20
132.298462
 30
0.0
 10
137.280139
 20
132.071209
 30
0.0
 10
137.204320
 20
131.848490
 30
0.0
 10
137.112960
 20
131.631905
 30
0.0
 10
137.005158
 20
131.423051
 30
0.0
 10
136.880002
 20
131.223521
 30
0.0
 10
136.736587
 20
131.034918
 30
0.0
 10
136.574009
 20
130.858835
 30
0.0
 10
136.391356
 20
130.696868
 30
0.0
 10
136.187725
 20
130.550619
 30
0.0
 10
135.962210
 20
130.421682
 30
0.0
 10
135.713901
 20
130.311655
 30
0.0
 10
135.355915
 20
130.317079
 30
0.0
 10
134.990491
 20
130.321551
 30
0.0
 10
134.617473
 20
130.325043
 30
0.0
 10
134.236709
 20
130.327689
 30
0.0
 10
133.848038
 20
130.329277
 30
0.0
 10
133.451306
 20
130.329806
 30
0.0
 10
133.046356
 20
130.329277
 30
0.0
 10
132.633035
 20
130.327689
 30
0.0
 10
132.211183
 20
130.324911
 30
0.0
 10
131.780645
 20
130.321022
 30
0.0
 10
131.341267
 20
130.315968
 30
0.0
 10
130.892894
 20
130.309750
 30
0.0
 10
130.435366
 20
130.302342
 30
0.0
 10
129.968527
 20
130.293717
 30
0.0
 10
129.492224
 20
130.283874
 30
0.0
 10
129.006301
 20
130.272762
 30
0.0
 10
128.324830
 20
130.261649
 30
0.0
 10
127.650923
 20
130.252177
 30
0.0
 10
126.978431
 20
130.243499
 30
0.0
 10
126.301206
 20
130.234794
 30
0.0
 10
125.613099
 20
130.225190
 30
0.0
 10
124.907963
 20
130.213839
 30
0.0
 10
124.179647
 20
130.199922
 30
0.0
 10
123.422008
 20
130.182592
 30
0.0
 10
122.628893
 20
130.161002
 30
0.0
 10
121.794154
 20
130.134324
 30
0.0
 10
120.911644
 20
130.101709
 30
0.0
 10
119.975212
 20
130.062309
 30
0.0
 10
118.978714
 20
130.015285
 30
0.0
 10
117.916000
 20
129.959794
 30
0.0
 10
116.780921
 20
129.894992
 30
0.0
 10
115.567328
 20
129.820041
 30
0.0
 10
115.525198
 20
129.835784
 30
0.0
 10
115.482428
 20
129.851103
 30
0.0
 10
115.439047
 20
129.866026
 30
0.0
 10
115.395092
 20
129.880551
 30
0.0
 10
115.350594
 20
129.894707
 30
0.0
 10
115.305591
 20
129.908518
 30
0.0
 10
115.260112
 20
129.921985
 30
0.0
 10
115.214194
 20
129.935108
 30
0.0
 10
115.167870
 20
129.947941
 30
0.0
 10
115.121174
 20
129.960482
 30
0.0
 10
115.074139
 20
129.972732
 30
0.0
 10
115.026800
 20
129.984718
 30
0.0
 10
114.979191
 20
129.996465
 30
0.0
 10
114.931343
 20
130.007975
 30
0.0
 10
114.883292
 20
130.019272
 30
0.0
 10
114.835072
 20
130.030358
 30
0.0
 10
114.804560
 20
130.044249
 30
0.0
 10
114.774274
 20
130.058193
 30
0.0
 10
114.744238
 20
130.072163
 30
0.0
 10
114.714478
 20
130.086185
 30
0.0
 10
114.685016
 20
130.100261
 30
0.0
 10
114.655878
 20
130.114390
 30
0.0
 10
114.627083
 20
130.128572
 30
0.0
 10
114.598664
 20
130.142806
 30
0.0
 10
114.570637
 20
130.157120
 30
0.0
 10
114.543033
 20
130.171487
 30
0.0
 10
114.515868
 20
130.185933
 30
0.0
 10
114.489174
 20
130.200433
 30
0.0
 10
114.462981
 20
130.215011
 30
0.0
 10
114.437290
 20
130.229669
 30
0.0
 10
114.412154
 20
130.244406
 30
0.0
 10
114.387574
 20
130.259223
 30
0.0
 10
114.307572
 20
130.309608
 30
0.0
 10
114.230068
 20
130.361355
 30
0.0
 10
114.154995
 20
130.414581
 30
0.0
 10
114.082288
 20
130.469405
 30
0.0
 10
114.011877
 20
130.525944
 30
0.0
 10
113.943694
 20
130.584311
 30
0.0
 10
113.877669
 20
130.644626
 30
0.0
 10
113.813741
 20
130.707004
 30
0.0
 10
113.751839
 20
130.771562
 30
0.0
 10
113.691892
 20
130.838417
 30
0.0
 10
113.633837
 20
130.907685
 30
0.0
 10
113.577605
 20
130.979482
 30
0.0
 10
113.523128
 20
131.053925
 30
0.0
 10
113.470338
 20
131.131131
 30
0.0
 10
113.419168
 20
131.211218
 30
0.0
 10
113.369548
 20
131.294302
 30
0.0
 10
113.321417
 20
131.433981
 30
0.0
 10
113.274705
 20
131.674553
 30
0.0
 10
113.229342
 20
132.002184
 30
0.0
 10
113.185260
 20
132.403036
 30
0.0
 10
113.142392
 20
132.863279
 30
0.0
 10
113.100675
 20
133.369072
 30
0.0
 10
113.060038
 20
133.906586
 30
0.0
 10
113.020414
 20
134.461981
 30
0.0
 10
112.981737
 20
135.021424
 30
0.0
 10
112.943939
 20
135.571080
 30
0.0
 10
112.906953
 20
136.097117
 30
0.0
 10
112.870713
 20
136.585694
 30
0.0
 10
112.835150
 20
137.022978
 30
0.0
 10
112.800199
 20
137.395136
 30
0.0
 10
112.765792
 20
137.688334
 30
0.0
 10
112.731862
 20
137.888732
 30
0.0
 10
112.698345
 20
138.040635
 30
0.0
 10
112.665163
 20
138.197638
 30
0.0
 10
112.632255
 20
138.359860
 30
0.0
 10
112.599552
 20
138.527420
 30
0.0
 10
112.566982
 20
138.700429
 30
0.0
 10
112.534483
 20
138.879007
 30
0.0
 10
112.501990
 20
139.063268
 30
0.0
 10
112.469427
 20
139.253329
 30
0.0
 10
112.436735
 20
139.449305
 30
0.0
 10
112.403845
 20
139.651315
 30
0.0
 10
112.370687
 20
139.859473
 30
0.0
 10
112.337196
 20
140.073894
 30
0.0
 10
112.303306
 20
140.294697
 30
0.0
 10
112.268947
 20
140.521998
 30
0.0
 10
112.234054
 20
140.755911
 30
0.0
 10
112.198560
 20
140.996552
 30
0.0
 10
112.166874
 20
141.210253
 30
0.0
 10
112.134748
 20
141.422507
 30
0.0
 10
112.102180
 20
141.633322
 30
0.0
 10
112.069160
 20
141.842713
 30
0.0
 10
112.035680
 20
142.050697
 30
0.0
 10
112.001734
 20
142.257289
 30
0.0
 10
111.967309
 20
142.462497
 30
0.0
 10
111.932400
 20
142.666340
 30
0.0
 10
111.897001
 20
142.868830
 30
0.0
 10
111.861103
 20
143.069983
 30
0.0
 10
111.824696
 20
143.269811
 30
0.0
 10
111.787773
 20
143.468329
 30
0.0
 10
111.750327
 20
143.665552
 30
0.0
 10
111.712351
 20
143.861492
 30
0.0
 10
111.673833
 20
144.056165
 30
0.0
 10
111.634770
 20
144.249583
 30
0.0
 10
111.595159
 20
144.441761
 30
0.0
 10
111.554990
 20
144.632711
 30
0.0
 10
111.514258
 20
144.822449
 30
0.0
 10
111.472954
 20
145.010989
 30
0.0
 10
111.431073
 20
145.198345
 30
0.0
 10
111.388610
 20
145.384532
 30
0.0
 10
111.345554
 20
145.569566
 30
0.0
 10
111.301903
 20
145.753459
 30
0.0
 10
111.257649
 20
145.936227
 30
0.0
 10
111.212783
 20
146.117885
 30
0.0
 10
111.167304
 20
146.298446
 30
0.0
 10
111.121198
 20
146.477926
 30
0.0
 10
111.074465
 20
146.656339
 30
0.0
 10
111.027096
 20
146.833699
 30
0.0
 10
110.979082
 20
147.010022
 30
0.0
 10
110.930420
 20
147.185322
 30
0.0
 10
110.881107
 20
147.359611
 30
0.0
 10
110.831127
 20
147.532901
 30
0.0
 10
110.780475
 20
147.705208
 30
0.0
 10
110.729146
 20
147.876545
 30
0.0
 10
110.677129
 20
148.046927
 30
0.0
 10
110.624422
 20
148.216368
 30
0.0
 10
110.571010
 20
148.384882
 30
0.0
 10
110.516892
 20
148.552484
 30
0.0
 10
110.462060
 20
148.719187
 30
0.0
 10
110.406503
 20
148.885007
 30
0.0
 10
110.350221
 20
149.049956
 30
0.0
 10
110.293198
 20
149.214051
 30
0.0
 10
110.235434
 20
149.377304
 30
0.0
 10
110.176919
 20
149.539731
 30
0.0
 10
110.117644
 20
149.701345
 30
0.0
 10
110.057605
 20
149.862161
 30
0.0
 10
109.996790
 20
150.022190
 30
0.0
 10
109.935198
 20
150.181445
 30
0.0
 10
109.872822
 20
150.339941
 30
0.0
 10
109.809656
 20
150.497693
 30
0.0
 10
109.745690
 20
150.654714
 30
0.0
 10
109.680920
 20
150.811021
 30
0.0
 10
109.615338
 20
150.966626
 30
0.0
 10
109.548938
 20
151.121546
 30
0.0
 10
109.481710
 20
151.275795
 30
0.0
 10
109.413649
 20
151.429387
 30
0.0
 10
109.344748
 20
151.582338
 30
0.0
 10
109.274999
 20
151.734662
 30
0.0
 10
109.204395
 20
151.886373
 30
0.0
 10
109.132931
 20
152.037486
 30
0.0
 10
109.060596
 20
152.188016
 30
0.0
 10
108.987386
 20
152.337978
 30
0.0
 10
108.913295
 20
152.487384
 30
0.0
 10
108.838315
 20
152.636246
 30
0.0
 10
108.762440
 20
152.784577
 30
0.0
 10
108.685663
 20
152.932393
 30
0.0
 10
108.607976
 20
153.079707
 30
0.0
 10
108.529374
 20
153.226535
 30
0.0
 10
108.449846
 20
153.372889
 30
0.0
 10
108.369386
 20
153.518785
 30
0.0
 10
108.287989
 20
153.664237
 30
0.0
 10
108.205648
 20
153.809259
 30
0.0
 10
108.122355
 20
153.953866
 30
0.0
 10
108.038098
 20
154.098071
 30
0.0
 10
107.952879
 20
154.241890
 30
0.0
 10
107.866683
 20
154.385336
 30
0.0
 10
107.779505
 20
154.528425
 30
0.0
 10
107.691341
 20
154.671169
 30
0.0
 10
107.602173
 20
154.813588
 30
0.0
 10
107.512003
 20
154.955697
 30
0.0
 10
107.420823
 20
155.097510
 30
0.0
 10
107.328626
 20
155.239039
 30
0.0
 10
107.235403
 20
155.380300
 30
0.0
 10
107.141153
 20
155.521303
 30
0.0
 10
107.045863
 20
155.662064
 30
0.0
 10
106.949534
 20
155.802594
 30
0.0
 10
106.852151
 20
155.942907
 30
0.0
 10
106.753713
 20
156.083016
 30
0.0
 10
106.654211
 20
156.222934
 30
0.0
 10
106.553643
 20
156.362675
 30
0.0
 10
106.451995
 20
156.502252
 30
0.0
 10
106.349266
 20
156.641677
 30
0.0
 10
106.245448
 20
156.780965
 30
0.0
 10
106.140533
 20
156.920128
 30
0.0
 10
106.034512
 20
157.059182
 30
0.0
 10
105.927372
 20
157.198147
 30
0.0
 10
105.819109
 20
157.337037
 30
0.0
 10
105.709715
 20
157.475865
 30
0.0
 10
105.599185
 20
157.614646
 30
0.0
 10
105.487512
 20
157.753394
 30
0.0
 10
105.374691
 20
157.892125
 30
0.0
 10
105.260711
 20
158.030851
 30
0.0
 10
105.145573
 20
158.169586
 30
0.0
 10
105.029265
 20
158.308346
 30
0.0
 10
104.911782
 20
158.447145
 30
0.0
 10
104.793119
 20
158.585996
 30
0.0
 10
104.673270
 20
158.724915
 30
0.0
 10
104.552226
 20
158.863915
 30
0.0
 10
104.429986
 20
159.003010
 30
0.0
 10
104.306537
 20
159.142214
 30
0.0
 10
104.181881
 20
159.281542
 30
0.0
 10
104.056011
 20
159.421004
 30
0.0
 10
103.928910
 20
159.560616
 30
0.0
 10
103.800579
 20
159.700393
 30
0.0
 10
103.671005
 20
159.840348
 30
0.0
 10
103.540179
 20
159.980497
 30
0.0
 10
103.408099
 20
160.120854
 30
0.0
 10
103.274752
 20
160.261434
 30
0.0
 10
103.140129
 20
160.402250
 30
0.0
 10
103.004226
 20
160.543318
 30
0.0
 10
102.867034
 20
160.684652
 30
0.0
 10
102.728543
 20
160.826267
 30
0.0
 10
102.588748
 20
160.968177
 30
0.0
 10
102.447638
 20
161.110397
 30
0.0
 10
102.304966
 20
161.252966
 30
0.0
 10
102.161205
 20
161.395849
 30
0.0
 10
101.888748
 20
161.664868
 30
0.0
 10
101.624286
 20
161.924229
 30
0.0
 10
101.367526
 20
162.174170
 30
0.0
 10
101.118175
 20
162.414926
 30
0.0
 10
100.875939
 20
162.646735
 30
0.0
 10
100.640526
 20
162.869832
 30
0.0
 10
100.411640
 20
163.084454
 30
0.0
 10
100.188990
 20
163.290837
 30
0.0
 10
99.972283
 20
163.489218
 30
0.0
 10
99.761225
 20
163.679833
 30
0.0
 10
99.555522
 20
163.862919
 30
0.0
 10
99.354883
 20
164.038713
 30
0.0
 10
99.159012
 20
164.207450
 30
0.0
 10
98.967618
 20
164.369366
 30
0.0
 10
98.780404
 20
164.524699
 30
0.0
 10
98.597082
 20
164.673685
 30
0.0
 10
98.417356
 20
164.816559
 30
0.0
 10
98.240932
 20
164.953556
 30
0.0
 10
98.067519
 20
165.084914
 30
0.0
 10
97.896815
 20
165.210870
 30
0.0
 10
97.728527
 20
165.331661
 30
0.0
 10
97.562358
 20
165.447524
 30
0.0
 10
97.398017
 20
165.558696
 30
0.0
 10
97.235203
 20
165.665414
 30
0.0
 10
97.073625
 20
165.767916
 30
0.0
 10
96.912983
 20
165.866438
 30
0.0
 10
96.752984
 20
165.961217
 30
0.0
 10
96.593335
 20
166.052491
 30
0.0
 10
96.433733
 20
166.140497
 30
0.0
 10
96.273887
 20
166.225472
 30
0.0
 10
96.113505
 20
166.307652
 30
0.0
 10
95.952284
 20
166.387276
 30
0.0
 10
95.745147
 20
166.487460
 30
0.0
 10
95.542611
 20
166.584875
 30
0.0
 10
95.344491
 20
166.679558
 30
0.0
 10
95.150607
 20
166.771548
 30
0.0
 10
94.960773
 20
166.860883
 30
0.0
 10
94.774808
 20
166.947601
 30
0.0
 10
94.592524
 20
167.031739
 30
0.0
 10
94.413737
 20
167.113335
 30
0.0
 10
94.238268
 20
167.192429
 30
0.0
 10
94.065926
 20
167.269057
 30
0.0
 10
93.896535
 20
167.343258
 30
0.0
 10
93.729905
 20
167.415070
 30
0.0
 10
93.565856
 20
167.484531
 30
0.0
 10
93.404201
 20
167.551679
 30
0.0
 10
93.244757
 20
167.616551
 30
0.0
 10
93.087341
 20
167.679187
 30
0.0
 10
92.931763
 20
167.739623
 30
0.0
 10
92.777842
 20
167.797898
 30
0.0
 10
92.625394
 20
167.854052
 30
0.0
 10
92.474235
 20
167.908121
 30
0.0
 10
92.324185
 20
167.960145
 30
0.0
 10
92.175057
 20
168.010161
 30
0.0
 10
92.026669
 20
168.058208
 30
0.0
 10
91.878838
 20
168.104325
 30
0.0
 10
91.731378
 20
168.148549
 30
0.0
 10
91.584111
 20
168.190919
 30
0.0
 10
91.436846
 20
168.231472
 30
0.0
 10
91.289407
 20
168.270248
 30
0.0
 10
91.141606
 20
168.307285
 30
0.0
 10
90.993262
 20
168.342620
 30
0.0
 10
90.844190
 20
168.376293
 30
0.0
 10
90.694206
 20
168.408341
 30
0.0
 10
90.543123
 20
168.438803
 30
0.0
 10
90.390755
 20
168.467719
 30
0.0
 10
90.236916
 20
168.495125
 30
0.0
 10
90.081423
 20
168.521061
 30
0.0
 10
89.924094
 20
168.545563
 30
0.0
 10
89.764746
 20
168.568670
 30
0.0
 10
89.603196
 20
168.590420
 30
0.0
 10
89.439261
 20
168.610850
 30
0.0
 10
89.272758
 20
168.629998
 30
0.0
 10
89.103504
 20
168.647902
 30
0.0
 10
88.931316
 20
168.664600
 30
0.0
 10
88.756008
 20
168.680129
 30
0.0
 10
88.577401
 20
168.694528
 30
0.0
 10
88.395313
 20
168.707834
 30
0.0
 10
88.209557
 20
168.720085
 30
0.0
 10
88.019951
 20
168.731319
 30
0.0
 10
87.826310
 20
168.741575
 30
0.0
 10
87.628452
 20
168.750892
 30
0.0
 10
87.426189
 20
168.759309
 30
0.0
 10
87.219335
 20
168.766864
 30
0.0
 10
87.007711
 20
168.773595
 30
0.0
 10
86.791131
 20
168.779540
 30
0.0
 10
86.569407
 20
168.784738
 30
0.0
 10
86.342360
 20
168.789226
 30
0.0
 10
86.109805
 20
168.793044
 30
0.0
 10
85.871553
 20
168.796228
 30
0.0
 10
85.627424
 20
168.798818
 30
0.0
 10
85.377234
 20
168.800851
 30
0.0
 10
85.120798
 20
168.802366
 30
0.0
 10
84.857931
 20
168.803401
 30
0.0
 10
84.588448
 20
168.803993
 30
0.0
 10
84.312167
 20
168.804183
 30
0.0
 10
84.077032
 20
168.804130
 30
0.0
 10
83.848337
 20
168.803961
 30
0.0
 10
83.625931
 20
168.803655
 30
0.0
 10
83.409666
 20
168.803195
 30
0.0
 10
83.199385
 20
168.802562
 30
0.0
 10
82.994939
 20
168.801738
 30
0.0
 10
82.796174
 20
168.800703
 30
0.0
 10
82.602940
 20
168.799439
 30
0.0
 10
82.415084
 20
168.797928
 30
0.0
 10
82.232455
 20
168.796151
 30
0.0
 10
82.054901
 20
168.794090
 30
0.0
 10
81.882271
 20
168.791725
 30
0.0
 10
81.714411
 20
168.789038
 30
0.0
 10
81.551169
 20
168.786011
 30
0.0
 10
81.392395
 20
168.782625
 30
0.0
 10
81.237937
 20
168.778861
 30
0.0
 10
81.087645
 20
168.774702
 30
0.0
 10
80.941365
 20
168.770128
 30
0.0
 10
80.798943
 20
168.765123
 30
0.0
 10
80.660227
 20
168.759668
 30
0.0
 10
80.525070
 20
168.753747
 30
0.0
 10
80.393315
 20
168.747341
 30
0.0
 10
80.264815
 20
168.740433
 30
0.0
 10
80.139416
 20
168.733005
 30
0.0
 10
80.016969
 20
168.725041
 30
0.0
 10
79.897325
 20
168.716521
 30
0.0
 10
79.780326
 20
168.707430
 30
0.0
 10
79.665827
 20
168.697748
 30
0.0
 10
79.553676
 20
168.687459
 30
0.0
 10
79.443720
 20
168.676545
 30
0.0
 10
79.335807
 20
168.664988
 30
0.0
 10
79.229789
 20
168.652771
 30
0.0
 10
79.022808
 20
168.626279
 30
0.0
 10
78.821563
 20
168.596919
 30
0.0
 10
78.624843
 20
168.564547
 30
0.0
 10
78.431432
 20
168.529016
 30
0.0
 10
78.240120
 20
168.490180
 30
0.0
 10
78.049691
 20
168.447894
 30
0.0
 10
77.858935
 20
168.402012
 30
0.0
 10
77.666633
 20
168.352389
 30
0.0
 10
77.471580
 20
168.298878
 30
0.0
 10
77.272557
 20
168.241333
 30
0.0
 10
77.068352
 20
168.179610
 30
0.0
 10
76.857754
 20
168.113562
 30
0.0
 10
76.639547
 20
168.043044
 30
0.0
 10
76.412519
 20
167.967910
 30
0.0
 10
76.175457
 20
167.888014
 30
0.0
 10
75.927148
 20
167.803210
 30
0.0
 10
75.747996
 20
167.741075
 30
0.0
 10
75.570773
 20
167.678311
 30
0.0
 10
75.395415
 20
167.614875
 30
0.0
 10
75.221859
 20
167.550727
 30
0.0
 10
75.050044
 20
167.485825
 30
0.0
 10
74.879906
 20
167.420127
 30
0.0
 10
74.711383
 20
167.353592
 30
0.0
 10
74.544412
 20
167.286179
 30
0.0
 10
74.378931
 20
167.217845
 30
0.0
 10
74.214879
 20
167.148550
 30
0.0
 10
74.052189
 20
167.078251
 30
0.0
 10
73.890804
 20
167.006907
 30
0.0
 10
73.730657
 20
166.934477
 30
0.0
 10
73.571687
 20
166.860919
 30
0.0
 10
73.413832
 20
166.786192
 30
0.0
 10
73.257026
 20
166.710253
 30
0.0
 10
73.101211
 20
166.633060
 30
0.0
 10
72.946329
 20
166.554567
 30
0.0
 10
72.792317
 20
166.474731
 30
0.0
 10
72.639118
 20
166.393507
 30
0.0
 10
72.486666
 20
166.310853
 30
0.0
 10
72.334898
 20
166.226726
 30
0.0
 10
72.183752
 20
166.141081
 30
0.0
 10
72.033164
 20
166.053876
 30
0.0
 10
71.883077
 20
165.965066
 30
0.0
 10
71.733423
 20
165.874609
 30
0.0
 10
71.584143
 20
165.782461
 30
0.0
 10
71.435174
 20
165.688579
 30
0.0
 10
71.286452
 20
165.592918
 30
0.0
 10
71.137918
 20
165.495437
 30
0.0
 10
70.989505
 20
165.396090
 30
0.0
 10
70.841153
 20
165.294836
 30
0.0
 10
70.692796
 20
165.191630
 30
0.0
 10
70.544372
 20
165.086431
 30
0.0
 10
70.395825
 20
164.979195
 30
0.0
 10
70.247089
 20
164.869880
 30
0.0
 10
70.098108
 20
164.758446
 30
0.0
 10
69.948814
 20
164.644850
 30
0.0
 10
69.799150
 20
164.529050
 30
0.0
 10
69.649052
 20
164.411004
 30
0.0
 10
69.498459
 20
164.290670
 30
0.0
 10
69.347310
 20
164.168006
 30
0.0
 10
69.195543
 20
164.042970
 30
0.0
 10
69.043095
 20
163.915520
 30
0.0
 10
68.889906
 20
163.785614
 30
0.0
 10
68.735916
 20
163.653210
 30
0.0
 10
68.581061
 20
163.518266
 30
0.0
 10
68.425280
 20
163.380741
 30
0.0
 10
68.268503
 20
163.240590
 30
0.0
 10
68.110674
 20
163.097771
 30
0.0
 10
67.951726
 20
162.952239
 30
0.0
 10
67.791603
 20
162.803951
 30
0.0
 10
67.630236
 20
162.652865
 30
0.0
 10
67.467570
 20
162.498936
 30
0.0
 10
67.303539
 20
162.342122
 30
0.0
 10
67.138082
 20
162.182379
 30
0.0
 10
66.971140
 20
162.019664
 30
0.0
 10
66.802646
 20
161.853935
 30
0.0
 10
66.632540
 20
161.685147
 30
0.0
 10
66.460762
 20
161.513257
 30
0.0
 10
66.287248
 20
161.338223
 30
0.0
 10
66.111938
 20
161.160001
 30
0.0
 10
65.934767
 20
160.978547
 30
0.0
 10
65.755676
 20
160.793819
 30
0.0
 10
65.628335
 20
160.661492
 30
0.0
 10
65.502039
 20
160.529195
 30
0.0
 10
65.376780
 20
160.396918
 30
0.0
 10
65.252555
 20
160.264652
 30
0.0
 10
65.129354
 20
160.132389
 30
0.0
 10
65.007180
 20
160.000118
 30
0.0
 10
64.886022
 20
159.867833
 30
0.0
 10
64.765875
 20
159.735522
 30
0.0
 10
64.646739
 20
159.603179
 30
0.0
 10
64.528602
 20
159.470793
 30
0.0
 10
64.411463
 20
159.338355
 30
0.0
 10
64.295316
 20
159.205857
 30
0.0
 10
64.180156
 20
159.073291
 30
0.0
 10
64.065978
 20
158.940646
 30
0.0
 10
63.952776
 20
158.807913
 30
0.0
 10
63.840548
 20
158.675085
 30
0.0
 10
63.729291
 20
158.542155
 30
0.0
 10
63.618994
 20
158.409114
 30
0.0
 10
63.509655
 20
158.275954
 30
0.0
 10
63.401271
 20
158.142664
 30
0.0
 10
63.293839
 20
158.009235
 30
0.0
 10
63.187355
 20
157.875656
 30
0.0
 10
63.081818
 20
157.741918
 30
0.0
 10
62.977220
 20
157.608010
 30
0.0
 10
62.873565
 20
157.473924
 30
0.0
 10
62.770843
 20
157.339649
 30
0.0
 10
62.669055
 20
157.205175
 30
0.0
 10
62.568196
 20
157.070492
 30
0.0
 10
62.468260
 20
156.935591
 30
0.0
 10
62.369250
 20
156.800462
 30
0.0
 10
62.271159
 20
156.665095
 30
0.0
 10
62.173982
 20
156.529480
 30
0.0
 10
62.077716
 20
156.393605
 30
0.0
 10
61.982353
 20
156.257461
 30
0.0
 10
61.887888
 20
156.121040
 30
0.0
 10
61.794313
 20
155.984335
 30
0.0
 10
61.701630
 20
155.847336
 30
0.0
 10
61.609830
 20
155.710038
 30
0.0
 10
61.518908
 20
155.572430
 30
0.0
 10
61.428863
 20
155.434506
 30
0.0
 10
61.339688
 20
155.296257
 30
0.0
 10
61.251378
 20
155.157676
 30
0.0
 10
61.163930
 20
155.018755
 30
0.0
 10
61.077337
 20
154.879484
 30
0.0
 10
60.991599
 20
154.739858
 30
0.0
 10
60.906705
 20
154.599868
 30
0.0
 10
60.822657
 20
154.459505
 30
0.0
 10
60.739446
 20
154.318762
 30
0.0
 10
60.657071
 20
154.177626
 30
0.0
 10
60.575526
 20
154.036085
 30
0.0
 10
60.494810
 20
153.894129
 30
0.0
 10
60.414916
 20
153.751749
 30
0.0
 10
60.335843
 20
153.608935
 30
0.0
 10
60.257582
 20
153.465679
 30
0.0
 10
60.180133
 20
153.321971
 30
0.0
 10
60.103488
 20
153.177802
 30
0.0
 10
60.027648
 20
153.033164
 30
0.0
 10
59.952604
 20
152.888046
 30
0.0
 10
59.878352
 20
152.742439
 30
0.0
 10
59.804890
 20
152.596335
 30
0.0
 10
59.732214
 20
152.449724
 30
0.0
 10
59.660316
 20
152.302597
 30
0.0
 10
59.589196
 20
152.154945
 30
0.0
 10
59.518846
 20
152.006758
 30
0.0
 10
59.449269
 20
151.858028
 30
0.0
 10
59.380464
 20
151.708746
 30
0.0
 10
59.312426
 20
151.558903
 30
0.0
 10
59.245148
 20
151.408490
 30
0.0
 10
59.178624
 20
151.257497
 30
0.0
 10
59.112848
 20
151.105916
 30
0.0
 10
59.047819
 20
150.953737
 30
0.0
 10
58.983528
 20
150.800953
 30
0.0
 10
58.919970
 20
150.647552
 30
0.0
 10
58.857139
 20
150.493526
 30
0.0
 10
58.795031
 20
150.338867
 30
0.0
 10
58.733640
 20
150.183565
 30
0.0
 10
58.672960
 20
150.027611
 30
0.0
 10
58.612987
 20
149.870995
 30
0.0
 10
58.553712
 20
149.713710
 30
0.0
 10
58.495136
 20
149.555745
 30
0.0
 10
58.437251
 20
149.397092
 30
0.0
 10
58.380056
 20
149.237743
 30
0.0
 10
58.323546
 20
149.077686
 30
0.0
 10
58.267719
 20
148.916915
 30
0.0
 10
58.212569
 20
148.755418
 30
0.0
 10
58.158097
 20
148.593188
 30
0.0
 10
58.104294
 20
148.430215
 30
0.0
 10
58.051160
 20
148.266489
 30
0.0
 10
57.998691
 20
148.102003
 30
0.0
 10
57.946883
 20
147.936746
 30
0.0
 10
57.895733
 20
147.770710
 30
0.0
 10
57.845235
 20
147.603884
 30
0.0
 10
57.795388
 20
147.436262
 30
0.0
 10
57.746188
 20
147.267832
 30
0.0
 10
57.697629
 20
147.098586
 30
0.0
 10
57.649711
 20
146.928515
 30
0.0
 10
57.602432
 20
146.757611
 30
0.0
 10
57.555778
 20
146.585866
 30
0.0
 10
57.509751
 20
146.413271
 30
0.0
 10
57.464341
 20
146.239815
 30
0.0
 10
57.419547
 20
146.065489
 30
0.0
 10
57.375361
 20
145.890285
 30
0.0
 10
57.331782
 20
145.714193
 30
0.0
 10
57.288800
 20
145.537204
 30
0.0
 10
57.246417
 20
145.359308
 30
0.0
 10
57.204626
 20
145.180496
 30
0.0
 10
57.163420
 20
145.000758
 30
0.0
 10
57.122796
 20
144.820085
 30
0.0
 10
57.082751
 20
144.638469
 30
0.0
 10
57.043278
 20
144.455899
 30
0.0
 10
57.004373
 20
144.272366
 30
0.0
 10
56.966033
 20
144.087862
 30
0.0
 10
56.928247
 20
143.902379
 30
0.0
 10
56.891021
 20
143.715912
 30
0.0
 10
56.854347
 20
143.528451
 30
0.0
 10
56.818223
 20
143.339986
 30
0.0
 10
56.782645
 20
143.150507
 30
0.0
 10
56.747606
 20
142.960005
 30
0.0
 10
56.713104
 20
142.768470
 30
0.0
 10
56.679134
 20
142.575892
 30
0.0
 10
56.645694
 20
142.382262
 30
0.0
 10
56.612774
 20
142.187570
 30
0.0
 10
56.580376
 20
141.991808
 30
0.0
 10
56.548491
 20
141.794963
 30
0.0
 10
56.517117
 20
141.597028
 30
0.0
 10
56.486248
 20
141.397990
 30
0.0
 10
56.455881
 20
141.197843
 30
0.0
 10
56.426013
 20
140.996577
 30
0.0
 10
56.400004
 20
140.819976
 30
0.0
 10
56.374419
 20
140.647518
 30
0.0
 10
56.349257
 20
140.479145
 30
0.0
 10
56.324466
 20
140.314799
 30
0.0
 10
56.300071
 20
140.154422
 30
0.0
 10
56.276020
 20
139.997955
 30
0.0
 10
56.252314
 20
139.845338
 30
0.0
 10
56.228951
 20
139.696515
 30
0.0
 10
56.205879
 20
139.551429
 30
0.0
 10
56.183125
 20
139.410017
 30
0.0
 10
56.160636
 20
139.272224
 30
0.0
 10
56.138411
 20
139.137991
 30
0.0
 10
56.116450
 20
139.007257
 30
0.0
 10
56.094701
 20
138.879966
 30
0.0
 10
56.073191
 20
138.756062
 30
0.0
 10
56.051865
 20
138.635481
 30
0.0
 10
56.034350
 20
138.499966
 30
0.0
 10
56.023661
 20
138.334422
 30
0.0
 10
56.018819
 20
138.143536
 30
0.0
 10
56.018859
 20
137.932001
 30
0.0
 10
56.022801
 20
137.704505
 30
0.0
 10
56.029707
 20
137.465739
 30
0.0
 10
56.038597
 20
137.220391
 30
0.0
 10
56.048518
 20
136.973151
 30
0.0
 10
56.058493
 20
136.728711
 30
0.0
 10
56.067542
 20
136.491760
 30
0.0
 10
56.074739
 20
136.266986
 30
0.0
 10
56.079078
 20
136.059082
 30
0.0
 10
56.079607
 20
135.872733
 30
0.0
 10
56.075374
 20
135.712634
 30
0.0
 10
56.065399
 20
135.583472
 30
0.0
 10
56.048730
 20
135.489937
 30
0.0
 10
56.029283
 20
135.392938
 30
0.0
 10
56.011001
 20
135.253344
 30
0.0
 10
55.993009
 20
135.075782
 30
0.0
 10
55.974409
 20
134.864890
 30
0.0
 10
55.954300
 20
134.625294
 30
0.0
 10
55.931811
 20
134.361629
 30
0.0
 10
55.906014
 20
134.078522
 30
0.0
 10
55.876052
 20
133.780607
 30
0.0
 10
55.841024
 20
133.472513
 30
0.0
 10
55.800035
 20
133.158873
 30
0.0
 10
55.752198
 20
132.844318
 30
0.0
 10
55.696620
 20
132.533477
 30
0.0
 10
55.632406
 20
132.230987
 30
0.0
 10
55.558666
 20
131.941472
 30
0.0
 10
55.474510
 20
131.669565
 30
0.0
 10
55.379043
 20
131.419902
 30
0.0
 10
55.255702
 20
131.202189
 30
0.0
 10
55.104617
 20
131.020921
 30
0.0
 10
54.928754
 20
130.872600
 30
0.0
 10
54.731084
 20
130.753728
 30
0.0
 10
54.514567
 20
130.660801
 30
0.0
 10
54.282176
 20
130.590322
 30
0.0
 10
54.036878
 20
130.538791
 30
0.0
 10
53.781637
 20
130.502708
 30
0.0
 10
53.519425
 20
130.478578
 30
0.0
 10
53.253203
 20
130.462888
 30
0.0
 10
52.985945
 20
130.452146
 30
0.0
 10
52.720613
 20
130.442859
 30
0.0
 10
52.460178
 20
130.431508
 30
0.0
 10
52.207607
 20
130.414628
 30
0.0
 10
51.965865
 20
130.388699
 30
0.0
 10
51.737921
 20
130.350207
 30
0.0
 10
50.524328
 20
130.425158
 30
0.0
 10
49.389250
 20
130.489960
 30
0.0
 10
48.326535
 20
130.545451
 30
0.0
 10
47.330037
 20
130.592475
 30
0.0
 10
46.393605
 20
130.631875
 30
0.0
 10
45.511096
 20
130.664490
 30
0.0
 10
44.676356
 20
130.691168
 30
0.0
 10
43.883241
 20
130.712731
 30
0.0
 10
43.125602
 20
130.730061
 30
0.0
 10
42.397286
 20
130.743979
 30
0.0
 10
41.692150
 20
130.755303
 30
0.0
 10
41.004043
 20
130.764907
 30
0.0
 10
40.326818
 20
130.773612
 30
0.0
 10
39.654327
 20
130.782290
 30
0.0
 10
38.980420
 20
130.791762
 30
0.0
 10
38.298948
 20
130.802875
 30
0.0
 10
35.538574
 20
130.857091
 30
0.0
 10
33.104519
 20
130.879607
 30
0.0
 10
30.978795
 20
130.870478
 30
0.0
 10
29.143412
 20
130.829746
 30
0.0
 10
27.580386
 20
130.757478
 30
0.0
 10
26.271722
 20
130.653732
 30
0.0
 10
25.199435
 20
130.518569
 30
0.0
 10
24.345536
 20
130.352041
 30
0.0
 10
23.692037
 20
130.154209
 30
0.0
 10
23.220949
 20
129.925127
 30
0.0
 10
22.914284
 20
129.664854
 30
0.0
 10
22.754052
 20
129.373450
 30
0.0
 10
22.722267
 20
129.050971
 30
0.0
 10
22.800938
 20
128.697469
 30
0.0
 10
22.972079
 20
128.313008
 30
0.0
 10
23.217699
 20
127.897644
 30
0.0
 10
23.369846
 20
127.629311
 30
0.0
 10
23.509425
 20
127.383447
 30
0.0
 10
23.637787
 20
127.157401
 30
0.0
 10
23.756286
 20
126.948512
 30
0.0
 10
23.866271
 20
126.754133
 30
0.0
 10
23.969094
 20
126.571610
 30
0.0
 10
24.066108
 20
126.398287
 30
0.0
 10
24.158664
 20
126.231512
 30
0.0
 10
24.248113
 20
126.068632
 30
0.0
 10
24.335806
 20
125.906993
 30
0.0
 10
24.423097
 20
125.743941
 30
0.0
 10
24.511335
 20
125.576822
 30
0.0
 10
24.601873
 20
125.402986
 30
0.0
 10
24.696062
 20
125.219777
 30
0.0
 10
24.795254
 20
125.024541
 30
0.0
 10
24.900800
 20
124.814626
 30
0.0
 10
25.008445
 20
124.574189
 30
0.0
 10
25.108515
 20
124.314929
 30
0.0
 10
25.197116
 20
124.039477
 30
0.0
 10
25.270353
 20
123.750456
 30
0.0
 10
25.324331
 20
123.450493
 30
0.0
 10
25.355153
 20
123.142214
 30
0.0
 10
25.358926
 20
122.828246
 30
0.0
 10
25.331753
 20
122.511211
 30
0.0
 10
25.269741
 20
122.193741
 30
0.0
 10
25.168992
 20
121.878460
 30
0.0
 10
25.025613
 20
121.567990
 30
0.0
 10
24.835708
 20
121.264963
 30
0.0
 10
24.595382
 20
120.972001
 30
0.0
 10
24.300740
 20
120.691730
 30
0.0
 10
23.947886
 20
120.426776
 30
0.0
 10
23.532925
 20
120.179769
 30
0.0
 10
22.446974
 20
119.698992
 30
0.0
 10
21.437541
 20
119.256879
 30
0.0
 10
20.494442
 20
118.847838
 30
0.0
 10
19.607493
 20
118.466288
 30
0.0
 10
18.766512
 20
118.106634
 30
0.0
 10
17.961314
 20
117.763295
 30
0.0
 10
17.181718
 20
117.430677
 30
0.0
 10
16.417539
 20
117.103197
 30
0.0
 10
15.658594
 20
116.775264
 30
0.0
 10
14.894700
 20
116.441291
 30
0.0
 10
14.115673
 20
116.095693
 30
0.0
 10
13.311330
 20
115.732880
 30
0.0
 10
12.471488
 20
115.347263
 30
0.0
 10
11.585964
 20
114.933254
 30
0.0
 10
10.644573
 20
114.485269
 30
0.0
 10
9.637133
 20
113.997716
 30
0.0
 10
9.378405
 20
113.853005
 30
0.0
 10
9.120767
 20
113.699920
 30
0.0
 10
8.864589
 20
113.539416
 30
0.0
 10
8.610239
 20
113.372440
 30
0.0
 10
8.358089
 20
113.199947
 30
0.0
 10
8.108508
 20
113.022885
 30
0.0
 10
7.861864
 20
112.842207
 30
0.0
 10
7.618529
 20
112.658864
 30
0.0
 10
7.378871
 20
112.473806
 30
0.0
 10
7.143261
 20
112.287987
 30
0.0
 10
6.912068
 20
112.102352
 30
0.0
 10
6.685662
 20
111.917858
 30
0.0
 10
6.464412
 20
111.735455
 30
0.0
 10
6.248688
 20
111.556091
 30
0.0
 10
6.038860
 20
111.380720
 30
0.0
 10
5.835298
 20
111.210291
 30
0.0
 10
5.637128
 20
111.042900
 30
0.0
 10
5.443185
 20
110.875964
 30
0.0
 10
5.253398
 20
110.709424
 30
0.0
 10
5.067697
 20
110.543226
 30
0.0
 10
4.886014
 20
110.377306
 30
0.0
 10
4.708278
 20
110.211611
 30
0.0
 10
4.534418
 20
110.046082
 30
0.0
 10
4.364366
 20
109.880657
 30
0.0
 10
4.198051
 20
109.715281
 30
0.0
 10
4.035403
 20
109.549896
 30
0.0
 10
3.876353
 20
109.384444
 30
0.0
 10
3.720831
 20
109.218862
 30
0.0
 10
3.568766
 20
109.053098
 30
0.0
 10
3.420089
 20
108.887093
 30
0.0
 10
3.274731
 20
108.720787
 30
0.0
 10
3.132620
 20
108.554120
 30
0.0
 10
2.993685
 20
108.387033
 30
0.0
 10
2.857854
 20
108.219468
 30
0.0
 10
2.725057
 20
108.051365
 30
0.0
 10
2.595228
 20
107.882666
 30
0.0
 10
2.468297
 20
107.713314
 30
0.0
 10
2.344197
 20
107.543253
 30
0.0
 10
2.222858
 20
107.372425
 30
0.0
 10
2.104214
 20
107.200774
 30
0.0
 10
1.988195
 20
107.028239
 30
0.0
 10
1.874734
 20
106.854765
 30
0.0
 10
1.763762
 20
106.680294
 30
0.0
 10
1.655210
 20
106.504769
 30
0.0
 10
1.549011
 20
106.328133
 30
0.0
 10
1.445096
 20
106.150328
 30
0.0
 10
1.343398
 20
105.971298
 30
0.0
 10
1.243847
 20
105.790981
 30
0.0
 10
1.083198
 20
105.490486
 30
0.0
 10
0.939383
 20
105.208044
 30
0.0
 10
0.811279
 20
104.938266
 30
0.0
 10
0.697765
 20
104.675771
 30
0.0
 10
0.597717
 20
104.415169
 30
0.0
 10
0.510014
 20
104.151078
 30
0.0
 10
0.433534
 20
103.878110
 30
0.0
 10
0.367155
 20
103.590884
 30
0.0
 10
0.309755
 20
103.284009
 30
0.0
 10
0.260212
 20
102.952105
 30
0.0
 10
0.217403
 20
102.589782
 30
0.0
 10
0.180207
 20
102.191661
 30
0.0
 10
0.147501
 20
101.752350
 30
0.0
 10
0.118164
 20
101.266469
 30
0.0
 10
0.091073
 20
100.728629
 30
0.0
 10
0.065107
 20
100.133446
 30
0.0
 10
0.039369
 20
99.490297
 30
0.0
 10
0.019134
 20
98.919300
 30
0.0
 10
0.005591
 20
98.412641
 30
0.0
 10
-0.000070
 20
97.962511
 30
0.0
 10
0.003340
 20
97.561098
 30
0.0
 10
0.017011
 20
97.200593
 30
0.0
 10
0.042133
 20
96.873184
 30
0.0
 10
0.079895
 20
96.571059
 30
0.0
 10
0.131486
 20
96.286413
 30
0.0
 10
0.198097
 20
96.011428
 30
0.0
 10
0.280916
 20
95.738299
 30
0.0
 10
0.381134
 20
95.459214
 30
0.0
 10
0.499939
 20
95.166363
 30
0.0
 10
0.638523
 20
94.851932
 30
0.0
 10
0.798073
 20
94.508114
 30
0.0
 10
0.979780
 20
94.127095
 30
0.0
 10
1.436694
 20
93.399888
 30
0.0
 10
2.026515
 20
92.707611
 30
0.0
 10
2.735367
 20
92.050119
 30
0.0
 10
3.549372
 20
91.427271
 30
0.0
 10
4.454654
 20
90.838928
 30
0.0
 10
5.437336
 20
90.284948
 30
0.0
 10
6.483540
 20
89.765190
 30
0.0
 10
7.579392
 20
89.279513
 30
0.0
 10
8.711012
 20
88.827774
 30
0.0
 10
9.864525
 20
88.409833
 30
0.0
 10
11.026053
 20
88.025549
 30
0.0
 10
12.181721
 20
87.674781
 30
0.0
 10
13.317650
 20
87.357387
 30
0.0
 10
14.419964
 20
87.073227
 30
0.0
 10
15.474787
 20
86.822158
 30
0.0
 10
16.468241
 20
86.604041
 30
0.0
 10
18.674502
 20
86.375587
 30
0.0
 10
20.834715
 20
86.138181
 30
0.0
 10
22.936877
 20
85.891722
 30
0.0
 10
24.968982
 20
85.636108
 30
0.0
 10
26.919023
 20
85.371236
 30
0.0
 10
28.775001
 20
85.097004
 30
0.0
 10
30.524908
 20
84.813307
 30
0.0
 10
32.156736
 20
84.520045
 30
0.0
 10
33.658485
 20
84.217113
 30
0.0
 10
35.018147
 20
83.904410
 30
0.0
 10
36.223721
 20
83.581835
 30
0.0
 10
37.263200
 20
83.249281
 30
0.0
 10
38.124577
 20
82.906650
 30
0.0
 10
38.795849
 20
82.553836
 30
0.0
 10
39.265014
 20
82.190738
 30
0.0
 10
39.520064
 20
81.817252
 30
0.0
 10
39.593253
 20
81.584721
 30
0.0
 10
39.652200
 20
81.308181
 30
0.0
 10
39.695356
 20
80.989588
 30
0.0
 10
39.721179
 20
80.630887
 30
0.0
 10
39.728111
 20
80.234025
 30
0.0
 10
39.714617
 20
79.800950
 30
0.0
 10
39.679150
 20
79.333614
 30
0.0
 10
39.620166
 20
78.833961
 30
0.0
 10
39.536114
 20
78.303940
 30
0.0
 10
39.425449
 20
77.745497
 30
0.0
 10
39.286625
 20
77.160586
 30
0.0
 10
39.118096
 20
76.551152
 30
0.0
 10
38.918317
 20
75.919142
 30
0.0
 10
38.685737
 20
75.266502
 30
0.0
 10
38.418818
 20
74.595186
 30
0.0
 10
38.116008
 20
73.907139
 30
0.0
 10
37.555797
 20
72.723367
 30
0.0
 10
36.919167
 20
71.427118
 30
0.0
 10
36.218741
 20
70.036947
 30
0.0
 10
35.467145
 20
68.571401
 30
0.0
 10
34.676998
 20
67.049036
 30
0.0
 10
33.860928
 20
65.488399
 30
0.0
 10
33.031557
 20
63.908043
 30
0.0
 10
32.201506
 20
62.326517
 30
0.0
 10
31.383404
 20
60.762375
 30
0.0
 10
30.589871
 20
59.234165
 30
0.0
 10
29.833533
 20
57.760439
 30
0.0
 10
29.127011
 20
56.359748
 30
0.0
 10
28.482928
 20
55.050642
 30
0.0
 10
27.913912
 20
53.851675
 30
0.0
 10
27.432582
 20
52.781398
 30
0.0
 10
27.051566
 20
51.858357
 30
0.0
 10
26.961984
 20
51.628680
 30
0.0
 10
26.849380
 20
51.342600
 30
0.0
 10
26.715424
 20
51.004279
 30
0.0
 10
26.561791
 20
50.617874
 30
0.0
 10
26.390150
 20
50.187548
 30
0.0
 10
26.202176
 20
49.717457
 30
0.0
 10
25.999538
 20
49.211764
 30
0.0
 10
25.783909
 20
48.674623
 30
0.0
 10
25.556961
 20
48.110201
 30
0.0
 10
25.320366
 20
47.522651
 30
0.0
 10
25.075795
 20
46.916134
 30
0.0
 10
24.824919
 20
46.294810
 30
0.0
 10
24.569412
 20
45.662839
 30
0.0
 10
24.310945
 20
45.024381
 30
0.0
 10
24.051189
 20
44.383595
 30
0.0
 10
23.791816
 20
43.744639
 30
0.0
 10
23.525484
 20
43.087380
 30
0.0
 10
23.245315
 20
42.392888
 30
0.0
 10
22.953669
 20
41.667131
 30
0.0
 10
22.652904
 20
40.916079
 30
0.0
 10
22.345379
 20
40.145700
 30
0.0
 10
22.033454
 20
39.361962
 30
0.0
 10
21.719486
 20
38.570834
 30
0.0
 10
21.405834
 20
37.778285
 30
0.0
 10
21.094858
 20
36.990285
 30
0.0
 10
20.788915
 20
36.212801
 30
0.0
 10
20.490366
 20
35.451799
 30
0.0
 10
20.201567
 20
34.713254
 30
0.0
 10
19.924879
 20
34.003128
 30
0.0
 10
19.662660
 20
33.327396
 30
0.0
 10
19.417269
 20
32.692020
 30
0.0
 10
19.191064
 20
32.102973
 30
0.0
 10
18.974540
 20
31.538632
 30
0.0
 10
18.757545
 20
30.975755
 30
0.0
 10
18.541480
 20
30.417863
 30
0.0
 10
18.327748
 20
29.868484
 30
0.0
 10
18.117751
 20
29.331145
 30
0.0
 10
17.912892
 20
28.809376
 30
0.0
 10
17.714572
 20
28.306699
 30
0.0
 10
17.524193
 20
27.826645
 30
0.0
 10
17.343158
 20
27.372739
 30
0.0
 10
17.172868
 20
26.948506
 30
0.0
 10
17.014727
 20
26.557478
 30
0.0
 10
16.870135
 20
26.203177
 30
0.0
 10
16.740496
 20
25.889133
 30
0.0
 10
16.627211
 20
25.618871
 30
0.0
 10
16.531683
 20
25.395920
 30
0.0
 10
16.455313
 20
25.223806
 30
0.0
 10
16.042233
 20
24.290795
 30
0.0
 10
15.579890
 20
23.199405
 30
0.0
 10
15.077314
 20
21.974109
 30
0.0
 10
14.543534
 20
20.639371
 30
0.0
 10
13.987577
 20
19.219661
 30
0.0
 10
13.418473
 20
17.739453
 30
0.0
 10
12.845251
 20
16.223210
 30
0.0
 10
12.276939
 20
14.695408
 30
0.0
 10
11.722566
 20
13.180507
 30
0.0
 10
11.191160
 20
11.702984
 30
0.0
 10
10.691751
 20
10.287307
 30
0.0
 10
10.233367
 20
8.957942
 30
0.0
 10
9.825036
 20
7.739359
 30
0.0
 10
9.475788
 20
6.656028
 30
0.0
 10
9.194650
 20
5.732420
 30
0.0
 10
8.990653
 20
4.993000
 30
0.0
 10
8.874362
 20
4.511738
 30
0.0
 10
8.777203
 20
4.058010
 30
0.0
 10
8.699232
 20
3.631240
 30
0.0
 10
8.640506
 20
3.230861
 30
0.0
 10
8.601081
 20
2.856299
 30
0.0
 10
8.581012
 20
2.506988
 30
0.0
 10
8.580350
 20
2.182355
 30
0.0
 10
8.599165
 20
1.881828
 30
0.0
 10
8.637503
 20
1.604838
 30
0.0
 10
8.695422
 20
1.350814
 30
0.0
 10
8.772979
 20
1.119185
 30
0.0
 10
8.870230
 20
0.909383
 30
0.0
 10
8.987229
 20
0.720833
 30
0.0
 10
9.124035
 20
0.552971
 30
0.0
 10
9.280702
 20
0.405220
 30
0.0
 10
9.457286
 20
0.277011
 30
0.0
 10
9.498272
 20
0.259707
 30
0.0
 10
9.539258
 20
0.242403
 30
0.0
 10
9.580244
 20
0.225100
 30
0.0
 10
9.621230
 20
0.207796
 30
0.0
 10
9.662216
 20
0.190492
 30
0.0
 10
9.703202
 20
0.173188
 30
0.0
 10
9.744187
 20
0.155885
 30
0.0
 10
9.785173
 20
0.138581
 30
0.0
 10
9.826159
 20
0.121277
 30
0.0
 10
9.867145
 20
0.103973
 30
0.0
 10
9.908131
 20
0.086670
 30
0.0
 10
9.949117
 20
0.069366
 30
0.0
 10
9.990103
 20
0.052062
 30
0.0
 10
10.031089
 20
0.034758
 30
0.0
 10
10.072074
 20
0.017455
 30
0.0
 10
10.113060
 20
0.000151
 30
0.0
 10
10.336881
 20
-0.040328
 30
0.0
 10
10.898430
 20
-0.102896
 30
0.0
 10
11.762434
 20
-0.181658
 30
0.0
 10
12.893620
 20
-0.270711
 30
0.0
 10
14.256715
 20
-0.364154
 30
0.0
 10
15.816447
 20
-0.456091
 30
0.0
 10
17.537541
 20
-0.540623
 30
0.0
 10
19.384725
 20
-0.611846
 30
0.0
 10
21.322726
 20
-0.663866
 30
0.0
 10
23.316271
 20
-0.690779
 30
0.0
 10
25.330088
 20
-0.686678
 30
0.0
 10
27.328901
 20
-0.645684
 30
0.0
 10
29.277441
 20
-0.561885
 30
0.0
 10
31.140433
 20
-0.429382
 30
0.0
 10
32.882603
 20
-0.242279
 30
0.0
 10
34.468679
 20
0.005329
 30
0.0
 10
35.239564
 20
0.186063
 30
0.0
 10
35.995984
 20
0.429940
 30
0.0
 10
36.740119
 20
0.726443
 30
0.0
 10
37.474161
 20
1.065056
 30
0.0
 10
38.200289
 20
1.435259
 30
0.0
 10
38.920688
 20
1.826535
 30
0.0
 10
39.637542
 20
2.228366
 30
0.0
 10
40.353037
 20
2.630233
 30
0.0
 10
41.069359
 20
3.021621
 30
0.0
 10
41.788687
 20
3.392009
 30
0.0
 10
42.513211
 20
3.730882
 30
0.0
 10
43.245112
 20
4.027720
 30
0.0
 10
43.986575
 20
4.272007
 30
0.0
 10
44.739783
 20
4.453223
 30
0.0
 10
45.506924
 20
4.560853
 30
0.0
 10
46.290181
 20
4.584375
 30
0.0
 10
46.974478
 20
4.524862
 30
0.0
 10
47.640270
 20
4.391221
 30
0.0
 10
48.290052
 20
4.192852
 30
0.0
 10
48.926320
 20
3.939154
 30
0.0
 10
49.551565
 20
3.639526
 30
0.0
 10
50.168282
 20
3.303365
 30
0.0
 10
50.778967
 20
2.940071
 30
0.0
 10
51.386111
 20
2.559042
 30
0.0
 10
51.992208
 20
2.169673
 30
0.0
 10
52.599758
 20
1.781371
 30
0.0
 10
53.211250
 20
1.403525
 30
0.0
 10
53.829176
 20
1.045541
 30
0.0
 10
54.456037
 20
0.716812
 30
0.0
 10
55.094321
 20
0.426741
 30
0.0
 10
55.746527
 20
0.184724
 30
0.0
 10
56.415145
 20
0.000159
 30
0.0
 10
57.345941
 20
-0.195805
 30
0.0
 10
58.283286
 20
-0.366070
 30
0.0
 10
59.226332
 20
-0.511035
 30
0.0
 10
60.174239
 20
-0.631100
 30
0.0
 10
61.126159
 20
-0.726668
 30
0.0
 10
62.081247
 20
-0.798134
 30
0.0
 10
63.038658
 20
-0.845899
 30
0.0
 10
63.997545
 20
-0.870373
 30
0.0
 10
64.957064
 20
-0.871961
 30
0.0
 10
65.916372
 20
-0.851032
 30
0.0
 10
66.874621
 20
-0.807998
 30
0.0
 10
67.830968
 20
-0.743262
 30
0.0
 10
68.784566
 20
-0.657225
 30
0.0
 10
69.734571
 20
-0.550288
 30
0.0
 10
70.680137
 20
-0.422852
 30
0.0
 10
71.620418
 20
-0.275312
 30
0.0
 10
72.451802
 20
-0.098613
 30
0.0
 10
73.268833
 20
0.142526
 30
0.0
 10
74.073669
 20
0.437605
 30
0.0
 10
74.868462
 20
0.776131
 30
0.0
 10
75.655369
 20
1.147601
 30
0.0
 10
76.436546
 20
1.541523
 30
0.0
 10
77.214146
 20
1.947397
 30
0.0
 10
77.990325
 20
2.354726
 30
0.0
 10
78.767237
 20
2.753011
 30
0.0
 10
79.547041
 20
3.131759
 30
0.0
 10
80.331890
 20
3.480469
 30
0.0
 10
81.123937
 20
3.788643
 30
0.0
 10
81.925341
 20
4.045789
 30
0.0
 10
82.738255
 20
4.241403
 30
0.0
 10
83.564834
 20
4.364990
 30
0.0
 10
84.407233
 20
4.406056
 30
0.0
 10
85.125730
 20
4.365366
 30
0.0
 10
85.830305
 20
4.255405
 30
0.0
 10
86.522826
 20
4.084878
 30
0.0
 10
87.205173
 20
3.862491
 30
0.0
 10
87.879212
 20
3.596950
 30
0.0
 10
88.546825
 20
3.296957
 30
0.0
 10
89.209878
 20
2.971221
 30
0.0
 10
89.870249
 20
2.628445
 30
0.0
 10
90.529813
 20
2.277332
 30
0.0
 10
91.190441
 20
1.926593
 30
0.0
 10
91.854008
 20
1.584926
 30
0.0
 10
92.522388
 20
1.261044
 30
0.0
 10
93.197454
 20
0.963644
 30
0.0
 10
93.881079
 20
0.701437
 30
0.0
 10
94.575139
 20
0.483127
 30
0.0
 10
95.281505
 20
0.317418
 30
0.0
 10
96.331528
 20
0.126947
 30
0.0
 10
97.387422
 20
-0.043344
 30
0.0
 10
98.448380
 20
-0.192905
 30
0.0
 10
99.513587
 20
-0.321186
 30
0.0
 10
100.582231
 20
-0.427633
 30
0.0
 10
101.653497
 20
-0.511694
 30
0.0
 10
102.726573
 20
-0.572820
 30
0.0
 10
103.800646
 20
-0.610460
 30
0.0
 10
104.874908
 20
-0.624059
 30
0.0
 10
105.948539
 20
-0.613079
 30
0.0
 10
107.020729
 20
-0.576948
 30
0.0
 10
108.090667
 20
-0.515125
 30
0.0
 10
109.157538
 20
-0.427059
 30
0.0
 10
110.220531
 20
-0.312198
 30
0.0
 10
111.278832
 20
-0.169990
 30
0.0
 10
112.331628
 20
0.000119
 30
0.0
 10
113.111958
 20
0.173635
 30
0.0
 10
113.877615
 20
0.410543
 30
0.0
 10
114.630802
 20
0.700490
 30
0.0
 10
115.373723
 20
1.033116
 30
0.0
 10
116.108582
 20
1.398069
 30
0.0
 10
116.837580
 20
1.784990
 30
0.0
 10
117.562922
 20
2.183527
 30
0.0
 10
118.286814
 20
2.583323
 30
0.0
 10
119.011455
 20
2.974020
 30
0.0
 10
119.739051
 20
3.345267
 30
0.0
 10
120.471807
 20
3.686707
 30
0.0
 10
121.211920
 20
3.987980
 30
0.0
 10
121.961601
 20
4.238736
 30
0.0
 10
122.723051
 20
4.428620
 30
0.0
 10
123.498473
 20
4.547269
 30
0.0
 10
124.290070
 20
4.584335
 30
0.0
 10
125.044757
 20
4.535435
 30
0.0
 10
125.782627
 20
4.408995
 30
0.0
 10
126.505955
 20
4.214852
 30
0.0
 10
127.217018
 20
3.962842
 30
0.0
 10
127.918095
 20
3.662799
 30
0.0
 10
128.611464
 20
3.324558
 30
0.0
 10
129.299400
 20
2.957960
 30
0.0
 10
129.984184
 20
2.572837
 30
0.0
 10
130.668089
 20
2.179026
 30
0.0
 10
131.353397
 20
1.786361
 30
0.0
 10
132.042380
 20
1.404681
 30
0.0
 10
132.737321
 20
1.043821
 30
0.0
 10
133.440496
 20
0.713613
 30
0.0
 10
134.154181
 20
0.423900
 30
0.0
 10
134.880655
 20
0.184512
 30
0.0
 10
135.622195
 20
0.005286
 30
0.0
 10
137.009654
 20
-0.220168
 30
0.0
 10
138.533704
 20
-0.390829
 30
0.0
 10
140.163535
 20
-0.512008
 30
0.0
 10
141.868333
 20
-0.589015
 30
0.0
 10
143.617279
 20
-0.627155
 30
0.0
 10
145.379563
 20
-0.631732
 30
0.0
 10
147.124368
 20
-0.608079
 30
0.0
 10
148.820884
 20
-0.561475
 30
0.0
 10
150.438293
 20
-0.497239
 30
0.0
 10
151.945783
 20
-0.420685
 30
0.0
 10
153.312538
 20
-0.337116
 30
0.0
 10
154.507746
 20
-0.251844
 30
0.0
 10
155.500590
 20
-0.170175
 30
0.0
 10
156.260259
 20
-0.097420
 30
0.0
 10
156.755937
 20
-0.038886
 30
0.0
 10
156.956811
 20
0.000116
 30
0.0
 10
157.145914
 20
0.131419
 30
0.0
 10
157.339288
 20
0.288560
 30
0.0
 10
157.533579
 20
0.470927
 30
0.0
 10
157.725434
 20
0.677897
 30
0.0
 10
157.911497
 20
0.908849
 30
0.0
 10
158.088418
 20
1.163167
 30
0.0
 10
158.252846
 20
1.440230
 30
0.0
 10
158.401426
 20
1.739418
 30
0.0
 10
158.530804
 20
2.060112
 30
0.0
 10
158.637627
 20
2.401694
 30
0.0
 10
158.718545
 20
2.763544
 30
0.0
 10
158.770202
 20
3.145039
 30
0.0
 10
158.789252
 20
3.545565
 30
0.0
 10
158.772319
 20
3.964498
 30
0.0
 10
158.716079
 20
4.401222
 30
0.0
 10
158.617167
 20
4.855117
 30
0.0
 10
158.412895
 20
5.575035
 30
0.0
 10
158.126997
 20
6.496920
 30
0.0
 10
157.769738
 20
7.592669
 30
0.0
 10
157.351392
 20
8.834170
 30
0.0
 10
156.882223
 20
10.193324
 30
0.0
 10
156.372498
 20
11.642026
 30
0.0
 10
155.832491
 20
13.152168
 30
0.0
 10
155.272466
 20
14.695646
 30
0.0
 10
154.702694
 20
16.244353
 30
0.0
 10
154.133443
 20
17.770189
 30
0.0
 10
153.574981
 20
19.245043
 30
0.0
 10
153.037578
 20
20.640815
 30
0.0
 10
152.531502
 20
21.929394
 30
0.0
 10
152.067020
 20
23.082681
 30
0.0
 10
151.654403
 20
24.072567
 30
0.0
 10
151.303917
 20
24.870950
 30
0.0
 10
151.211046
 20
25.079002
 30
0.0
 10
151.099254
 20
25.336889
 30
0.0
 10
150.970039
 20
25.640898
 30
0.0
 10
150.824897
 20
25.987325
 30
0.0
 10
150.665324
 20
26.372458
 30
0.0
 10
150.492818
 20
26.792592
 30
0.0
 10
150.308877
 20
27.244016
 30
0.0
 10
150.114996
 20
27.723023
 30
0.0
 10
149.912672
 20
28.225903
 30
0.0
 10
149.703402
 20
28.748950
 30
0.0
 10
149.488685
 20
29.288457
 30
0.0
 10
149.270012
 20
29.840714
 30
0.0
 10
149.048886
 20
30.402009
 30
0.0
 10
148.826803
 20
30.968640
 30
0.0
 10
148.605257
 20
31.536894
 30
0.0
 10
148.385748
 20
32.103065
 30
0.0
 10
147.295969
 20
34.900055
 30
0.0
 10
146.329303
 20
37.376812
 30
0.0
 10
145.472566
 20
39.566326
 30
0.0
 10
144.712564
 20
41.501587
 30
0.0
 10
144.036114
 20
43.215581
 30
0.0
 10
143.430020
 20
44.741304
 30
0.0
 10
142.881097
 20
46.111737
 30
0.0
 10
142.376158
 20
47.359877
 30
0.0
 10
141.902009
 20
48.518707
 30
0.0
 10
141.445463
 20
49.621223
 30
0.0
 10
140.993332
 20
50.700408
 30
0.0
 10
140.532425
 20
51.789253
 30
0.0
 10
140.049553
 20
52.920749
 30
0.0
 10
139.531530
 20
54.127887
 30
0.0
 10
138.965163
 20
55.443652
 30
0.0
 10
138.337267
 20
56.901035
 30
0.0
 10
137.956111
 20
57.830130
 30
0.0
 10
137.519678
 20
58.800611
 30
0.0
 10
137.034644
 20
59.807750
 30
0.0
 10
136.507692
 20
60.846811
 30
0.0
 10
135.945500
 20
61.913066
 30
0.0
 10
135.354749
 20
63.001784
 30
0.0
 10
134.742119
 20
64.108232
 30
0.0
 10
134.114290
 20
65.227676
 30
0.0
 10
133.477940
 20
66.355391
 30
0.0
 10
132.839755
 20
67.486641
 30
0.0
 10
132.206406
 20
68.616698
 30
0.0
 10
131.584582
 20
69.740825
 30
0.0
 10
130.980956
 20
70.854297
 30
0.0
 10
130.402212
 20
71.952379
 30
0.0
 10
129.855027
 20
73.030339
 30
0.0
 10
129.346085
 20
74.083450
 30
0.0
 10
129.046974
 20
74.765001
 30
0.0
 10
128.784602
 20
75.452843
 30
0.0
 10
128.558754
 20
76.141921
 30
0.0
 10
128.369215
 20
76.827189
 30
0.0
 10
128.215767
 20
77.503594
 30
0.0
 10
128.098191
 20
78.166082
 30
0.0
 10
128.016276
 20
78.809604
 30
0.0
 10
127.969800
 20
79.429110
 30
0.0
 10
127.958555
 20
80.019549
 30
0.0
 10
127.982314
 20
80.575870
 30
0.0
 10
128.040864
 20
81.093019
 30
0.0
 10
128.133992
 20
81.565948
 30
0.0
 10
128.261479
 20
81.989605
 30
0.0
 10
128.423107
 20
82.358939
 30
0.0
 10
128.618664
 20
82.668898
 30
0.0
 10
128.847928
 20
82.914434
 30
0.0
 10
129.242422
 20
83.151308
 30
0.0
 10
129.866058
 20
83.390788
 30
0.0
 10
130.699813
 20
83.632143
 30
0.0
 10
131.724668
 20
83.874652
 30
0.0
 10
132.921604
 20
84.117585
 30
0.0
 10
134.271603
 20
84.360216
 30
0.0
 10
135.755643
 20
84.601815
 30
0.0
 10
137.354705
 20
84.841654
 30
0.0
 10
139.049772
 20
85.079009
 30
0.0
 10
140.821824
 20
85.313152
 30
0.0
 10
142.651836
 20
85.543356
 30
0.0
 10
144.520797
 20
85.768892
 30
0.0
 10
146.409678
 20
85.989033
 30
0.0
 10
148.299470
 20
86.203052
 30
0.0
 10
150.171146
 20
86.410223
 30
0.0
 10
152.005687
 20
86.609817
 30
0.0
 10
152.388523
 20
86.653738
 30
0.0
 10
152.779395
 20
86.703456
 30
0.0
 10
153.175476
 20
86.758415
 30
0.0
 10
153.573941
 20
86.818057
 30
0.0
 10
153.971970
 20
86.881824
 30
0.0
 10
154.366739
 20
86.949158
 30
0.0
 10
154.755422
 20
87.019503
 30
0.0
 10
155.135197
 20
87.092301
 30
0.0
 10
155.503241
 20
87.166992
 30
0.0
 10
155.856727
 20
87.243023
 30
0.0
 10
156.192838
 20
87.319832
 30
0.0
 10
156.508745
 20
87.396862
 30
0.0
 10
156.801625
 20
87.473557
 30
0.0
 10
157.068656
 20
87.549360
 30
0.0
 10
157.307014
 20
87.623711
 30
0.0
 10
157.513876
 20
87.696056
 30
0.0
 10
158.012120
 20
87.880957
 30
0.0
 10
158.513294
 20
88.064991
 30
0.0
 10
159.016095
 20
88.249255
 30
0.0
 10
159.519216
 20
88.434852
 30
0.0
 10
160.021350
 20
88.622883
 30
0.0
 10
160.521193
 20
88.814455
 30
0.0
 10
161.017438
 20
89.010665
 30
0.0
 10
161.508774
 20
89.212616
 30
0.0
 10
161.993904
 20
89.421412
 30
0.0
 10
162.471514
 20
89.638150
 30
0.0
 10
162.940303
 20
89.863941
 30
0.0
 10
163.398960
 20
90.099877
 30
0.0
 10
163.846183
 20
90.347064
 30
0.0
 10
164.280663
 20
90.606607
 30
0.0
 10
164.701099
 20
90.879607
 30
0.0
 10
165.106179
 20
91.167162
 30
0.0
 10
165.462472
 20
91.375180
 30
0.0
 10
165.822872
 20
91.575308
 30
0.0
 10
166.186420
 20
91.765522
 30
0.0
 10
166.552153
 20
91.943790
 30
0.0
 10
166.919115
 20
92.108091
 30
0.0
 10
167.286343
 20
92.256396
 30
0.0
 10
167.652878
 20
92.386674
 30
0.0
 10
168.017760
 20
92.496902
 30
0.0
 10
168.380033
 20
92.585048
 30
0.0
 10
168.738731
 20
92.649090
 30
0.0
 10
169.092900
 20
92.687000
 30
0.0
 10
169.441575
 20
92.696763
 30
0.0
 10
169.783798
 20
92.676311
 30
0.0
 10
170.118612
 20
92.623659
 30
0.0
 10
170.445053
 20
92.536761
 30
0.0
 10
170.762164
 20
92.413598
 30
0.0
 10
171.375161
 20
91.981213
 30
0.0
 10
171.904706
 20
91.483423
 30
0.0
 10
172.348211
 20
90.929389
 30
0.0
 10
172.703094
 20
90.328268
 30
0.0
 10
172.966762
 20
89.689218
 30
0.0
 10
173.136632
 20
89.021396
 30
0.0
 10
173.210121
 20
88.333958
 30
0.0
 10
173.184641
 20
87.636064
 30
0.0
 10
173.057601
 20
86.936874
 30
0.0
 10
172.826416
 20
86.245541
 30
0.0
 10
172.488507
 20
85.571227
 30
0.0
 10
172.041279
 20
84.923085
 30
0.0
 10
171.482148
 20
84.310278
 30
0.0
 10
170.808529
 20
83.741958
 30
0.0
 10
170.017838
 20
83.227288
 30
0.0
 10
169.107486
 20
82.775425
 30
0.0
 10
167.424292
 20
81.876133
 30
0.0
 10
165.888518
 20
81.027132
 30
0.0
 10
164.485998
 20
80.218867
 30
0.0
 10
163.202576
 20
79.441776
 30
0.0
 10
162.024088
 20
78.686300
 30
0.0
 10
160.936375
 20
77.942882
 30
0.0
 10
159.925275
 20
77.201959
 30
0.0
 10
158.976627
 20
76.453976
 30
0.0
 10
158.076271
 20
75.689370
 30
0.0
 10
157.210047
 20
74.898583
 30
0.0
 10
156.363793
 20
74.072059
 30
0.0
 10
155.523349
 20
73.200236
 30
0.0
 10
154.674553
 20
72.273554
 30
0.0
 10
153.803243
 20
71.282454
 30
0.0
 10
152.895259
 20
70.217379
 30
0.0
 10
151.936443
 20
69.068770
 30
0.0
 10
150.894604
 20
66.723625
 30
0.0
 10
150.091924
 20
64.448330
 30
0.0
 10
149.534876
 20
62.274334
 30
0.0
 10
149.229938
 20
60.233094
 30
0.0
 10
149.183583
 20
58.356066
 30
0.0
 10
149.402285
 20
56.674705
 30
0.0
 10
149.892516
 20
55.220465
 30
0.0
 10
150.660755
 20
54.024803
 30
0.0
 10
151.713476
 20
53.119171
 30
0.0
 10
153.057149
 20
52.535024
 30
0.0
 10
154.698254
 20
52.303823
 30
0.0
 10
156.643259
 20
52.457017
 30
0.0
 10
158.898647
 20
53.026061
 30
0.0
 10
161.470883
 20
54.042413
 30
0.0
 10
164.366449
 20
55.537529
 30
0.0
 10
167.591818
 20
57.542859
 30
0.0
 10
169.352025
 20
58.685295
 30
0.0
 10
170.983959
 20
59.675964
 30
0.0
 10
172.500614
 20
60.532309
 30
0.0
 10
173.914992
 20
61.271780
 30
0.0
 10
175.240086
 20
61.911817
 30
0.0
 10
176.488895
 20
62.469866
 30
0.0
 10
177.674419
 20
62.963375
 30
0.0
 10
178.809651
 20
63.409782
 30
0.0
 10
179.907590
 20
63.826541
 30
0.0
 10
180.981232
 20
64.231091
 30
0.0
 10
182.043576
 20
64.640878
 30
0.0
 10
183.107619
 20
65.073347
 30
0.0
 10
184.186357
 20
65.545946
 30
0.0
 10
185.292789
 20
66.076116
 30
0.0
 10
186.439914
 20
66.681302
 30
0.0
 10
187.640723
 20
67.378950
 30
0.0
 10
189.788018
 20
68.690929
 30
0.0
 10
191.826487
 20
70.249952
 30
0.0
 10
193.742181
 20
72.029915
 30
0.0
 10
195.521150
 20
74.004710
 30
0.0
 10
197.149449
 20
76.148229
 30
0.0
 10
198.613129
 20
78.434361
 30
0.0
 10
199.898239
 20
80.837003
 30
0.0
 10
200.990836
 20
83.330045
 30
0.0
 10
201.876968
 20
85.887377
 30
0.0
 10
202.542686
 20
88.482898
 30
0.0
 10
202.974044
 20
91.090496
 30
0.0
 10
203.157094
 20
93.684061
 30
0.0
 10
203.077885
 20
96.237491
 30
0.0
 10
202.722473
 20
98.724672
 30
0.0
 10
202.076908
 20
101.119503
 30
0.0
 10
201.127239
 20
103.395873
 30
0.0
 10
201.013918
 20
104.316001
 30
0.0
 10
201.003811
 20
105.158638
 30
0.0
 10
201.091335
 20
105.924723
 30
0.0
 10
201.270948
 20
106.615204
 30
0.0
 10
201.537084
 20
107.231013
 30
0.0
 10
201.884191
 20
107.773097
 30
0.0
 10
202.306707
 20
108.242391
 30
0.0
 10
202.799078
 20
108.639843
 30
0.0
 10
203.355740
 20
108.966389
 30
0.0
 10
203.971140
 20
109.222971
 30
0.0
 10
204.639715
 20
109.410529
 30
0.0
 10
205.355911
 20
109.530004
 30
0.0
 10
206.114164
 20
109.582339
 30
0.0
 10
206.908922
 20
109.568475
 30
0.0
 10
207.734623
 20
109.489348
 30
0.0
 10
208.585711
 20
109.345902
 30
0.0
 10
209.529599
 20
109.017160
 30
0.0
 10
210.488076
 20
108.695207
 30
0.0
 10
211.455358
 20
108.388531
 30
0.0
 10
212.425673
 20
108.105612
 30
0.0
 10
213.393233
 20
107.854933
 30
0.0
 10
214.352265
 20
107.644975
 30
0.0
 10
215.296989
 20
107.484222
 30
0.0
 10
216.221621
 20
107.381159
 30
0.0
 10
217.120386
 20
107.344266
 30
0.0
 10
217.987503
 20
107.382024
 30
0.0
 10
218.817191
 20
107.502918
 30
0.0
 10
219.603673
 20
107.715428
 30
0.0
 10
220.341167
 20
108.028041
 30
0.0
 10
221.023895
 20
108.449240
 30
0.0
 10
221.646076
 20
108.987500
 30
0.0
 10
222.201934
 20
109.651311
 30
0.0
 10
223.077237
 20
110.910598
 30
0.0
 10
223.612036
 20
112.200465
 30
0.0
 10
223.846351
 20
113.512814
 30
0.0
 10
223.820184
 20
114.839538
 30
0.0
 10
223.573582
 20
116.172538
 30
0.0
 10
223.146547
 20
117.503707
 30
0.0
 10
222.579095
 20
118.824949
 30
0.0
 10
221.911244
 20
120.128154
 30
0.0
 10
221.183016
 20
121.405227
 30
0.0
 10
220.434422
 20
122.648059
 30
0.0
 10
219.705482
 20
123.848548
 30
0.0
 10
219.036213
 20
124.998596
 30
0.0
 10
218.466631
 20
126.090098
 30
0.0
 10
218.036758
 20
127.114951
 30
0.0
 10
217.786607
 20
128.065054
 30
0.0
 10
217.756196
 20
128.932302
 30
0.0
 10
217.990519
 20
129.658615
 30
0.0
 10
218.489560
 20
130.209237
 30
0.0
 10
219.225816
 20
130.611047
 30
0.0
 10
220.171792
 20
130.890931
 30
0.0
 10
221.299983
 20
131.075766
 30
0.0
 10
222.582897
 20
131.192437
 30
0.0
 10
223.993028
 20
131.267827
 30
0.0
 10
225.502881
 20
131.328816
 30
0.0
 10
227.084957
 20
131.402291
 30
0.0
 10
228.711753
 20
131.515128
 30
0.0
 10
230.355776
 20
131.694211
 30
0.0
 10
231.989523
 20
131.966425
 30
0.0
 10
233.585492
 20
132.358649
 30
0.0
 10
235.116188
 20
132.897766
 30
0.0
 10
236.554114
 20
133.610660
 30
0.0
 10
237.871766
 20
134.524210
 30
0.0
 10
238.473516
 20
137.249964
 30
0.0
 10
238.561384
 20
139.719349
 30
0.0
 10
238.202349
 20
141.955372
 30
0.0
 10
237.463379
 20
143.981031
 30
0.0
 10
236.411448
 20
145.819331
 30
0.0
 10
235.113527
 20
147.493272
 30
0.0
 10
233.636591
 20
149.025857
 30
0.0
 10
232.047607
 20
150.440087
 30
0.0
 10
230.413553
 20
151.758964
 30
0.0
 10
228.801397
 20
153.005490
 30
0.0
 10
227.278114
 20
154.202668
 30
0.0
 10
225.910673
 20
155.373498
 30
0.0
 10
224.766051
 20
156.540984
 30
0.0
 10
223.911217
 20
157.728126
 30
0.0
 10
223.413141
 20
158.957927
 30
0.0
 10
223.338801
 20
160.253389
 30
0.0
 10
223.665768
 20
161.579216
 30
0.0
 10
224.295955
 20
162.888617
 30
0.0
 10
225.182839
 20
164.187357
 30
0.0
 10
226.279902
 20
165.481198
 30
0.0
 10
227.540620
 20
166.775902
 30
0.0
 10
228.918475
 20
168.077233
 30
0.0
 10
230.366941
 20
169.390954
 30
0.0
 10
231.839501
 20
170.722826
 30
0.0
 10
233.289632
 20
172.078614
 30
0.0
 10
234.670815
 20
173.464079
 30
0.0
 10
235.936526
 20
174.884985
 30
0.0
 10
237.040246
 20
176.347094
 30
0.0
 10
237.935451
 20
177.856169
 30
0.0
 10
238.575624
 20
179.417973
 30
0.0
 10
238.914240
 20
181.038269
 30
0.0
 10
238.904768
 20
182.722819
 30
0.0
 10
237.522233
 20
184.679377
 30
0.0
 10
236.013983
 20
186.238241
 30
0.0
 10
234.397654
 20
187.449724
 30
0.0
 10
232.690877
 20
188.364141
 30
0.0
 10
230.911290
 20
189.031806
 30
0.0
 10
229.076524
 20
189.503033
 30
0.0
 10
227.204215
 20
189.828134
 30
0.0
 10
225.311995
 20
190.057425
 30
0.0
 10
223.417501
 20
190.241220
 30
0.0
 10
221.538367
 20
190.429831
 30
0.0
 10
219.692224
 20
190.673574
 30
0.0
 10
217.896711
 20
191.022761
 30
0.0
 10
216.169458
 20
191.527708
 30
0.0
 10
214.528105
 20
192.238727
 30
0.0
 10
212.990280
 20
193.206134
 30
0.0
 10
211.573619
 20
194.480241
 30
0.0
 10
211.450966
 20
195.421742
 30
0.0
 10
211.415239
 20
196.307710
 30
0.0
 10
211.458697
 20
197.141992
 30
0.0
 10
211.573603
 20
197.928447
 30
0.0
 10
211.752223
 20
198.670926
 30
0.0
 10
211.986819
 20
199.373281
 30
0.0
 10
212.269653
 20
200.039367
 30
0.0
 10
212.592987
 20
200.673033
 30
0.0
 10
212.949087
 20
201.278138
 30
0.0
 10
213.330214
 20
201.858533
 30
0.0
 10
213.728632
 20
202.418069
 30
0.0
 10
214.136603
 20
202.960597
 30
0.0
 10
214.546390
 20
203.489978
 30
0.0
 10
214.950258
 20
204.010059
 30
0.0
 10
215.340468
 20
204.524692
 30
0.0
 10
215.709284
 20
205.037735
 30
0.0
 10
216.722604
 20
206.013407
 30
0.0
 10
217.463868
 20
207.002975
 30
0.0
 10
217.936727
 20
207.995687
 30
0.0
 10
218.144832
 20
208.980781
 30
0.0
 10
218.091838
 20
209.947494
 30
0.0
 10
217.781392
 20
210.885072
 30
0.0
 10
217.217150
 20
211.782753
 30
0.0
 10
216.402757
 20
212.629779
 30
0.0
 10
215.341870
 20
213.415391
 30
0.0
 10
214.038139
 20
214.128829
 30
0.0
 10
212.495216
 20
214.759336
 30
0.0
 10
210.716750
 20
215.296149
 30
0.0
 10
208.706393
 20
215.728516
 30
0.0
 10
206.467798
 20
216.045669
 30
0.0
 10
204.004615
 20
216.236854
 30
0.0
  0
ENDSEC
  0
SECTION
  2
OBJECTS
  0
DICTIONARY
  5
C
330
0
100
AcDbDictionary
  3
ACAD_GROUP
350
D
  3
ACAD_MLINESTYLE
350
17
  0
DICTIONARY
  5
D
330
C
100
AcDbDictionary
  0
DICTIONARY
  5
1A
330
C
100
AcDbDictionary
  0
DICTIONARY
  5
17
330
C
100
AcDbDictionary
  3
STANDARD
350
18
  0
DICTIONARY
  5
19
330
C
100
AcDbDictionary
  0
ENDSEC
  0
EOF
