  0
SECTION
  2
HEADER
  9
$ACADVER
  1
AC1014
  9
$HANDSEED
  5
FFFF
  9
$MEASUREMENT
 70
     1
  0
ENDSEC
  0
SECTION
  2
TABLES
  0
TABLE
  2
VPORT
  5
8
330
0
100
AcDbSymbolTable
 70
     4
  0
VPORT
  5
2E
330
8
100
AcDbSymbolTableRecord
100
AcDbViewportTableRecord
  2
*ACTIVE
 70
     0
 10
0.0
 20
0.0
 11
1.0
 21
1.0
 12
210.0
 22
148.5
 13
0.0
 23
0.0
 14
10.0
 24
10.0
 15
10.0
 25
10.0
 16
0.0
 26
0.0
 36
1.0
 17
0.0
 27
0.0
 37
0.0
 40
341.0
 41
1.24
 42
50.0
 43
0.0
 44
0.0
 50
0.0
 51
0.0
 71
     0
 72
   100
 73
     1
 74
     3
 75
     0
 76
     0
 77
     0
 78
     0
  0
ENDTAB
  0
TABLE
  2
LTYPE
  5
5
330
0
100
AcDbSymbolTable
 70
     1
  0
LTYPE
  5
14
330
5
100
AcDbSymbolTableRecord
100
AcDbLinetypeTableRecord
  2
BYBLOCK
 70
     0
  3

 72
    65
 73
     0
 40
0.0
  0
LTYPE
  5
15
330
5
100
AcDbSymbolTableRecord
100
AcDbLinetypeTableRecord
  2
BYLAYER
 70
     0
  3

 72
    65
 73
     0
 40
0.0
  0
LTYPE
  5
16
330
5
100
AcDbSymbolTableRecord
100
AcDbLinetypeTableRecord
  2
CONTINUOUS
 70
     0
  3
Solid line
 72
    65
 73
     0
 40
0.0
  0
ENDTAB
  0
TABLE
  2
LAYER
  5
2
100
AcDbSymbolTable
 70
1
  0
LAYER
  5
50
100
AcDbSymbolTableRecord
100
AcDbLayerTableRecord
  2
0
 70
0
  6
CONTINUOUS
  0
ENDTAB
  0
TABLE
  2
STYLE
  5
3
330
0
100
AcDbSymbolTable
 70
     1
  0
STYLE
  5
11
330
3
100
AcDbSymbolTableRecord
100
AcDbTextStyleTableRecord
  2
STANDARD
 70
     0
 40
0.0
 41
1.0
 50
0.0
 71
     0
 42
2.5
  3
txt
  4

  0
ENDTAB
  0
TABLE
  2
VIEW
  5
6
330
0
100
AcDbSymbolTable
 70
     0
  0
ENDTAB
  0
TABLE
  2
UCS
  5
7
330
0
100
AcDbSymbolTable
 70
     0
  0
ENDTAB
  0
TABLE
  2
APPID
  5
9
330
0
100
AcDbSymbolTable
 70
     2
  0
APPID
  5
12
330
9
100
AcDbSymbolTableRecord
100
AcDbRegAppTableRecord
  2
ACAD
 70
     0
  0
ENDTAB
  0
TABLE
  2
DIMSTYLE
  5
A
330
0
100
AcDbSymbolTable
 70
     1
  0
DIMSTYLE
105
27
330
A
100
AcDbSymbolTableRecord
100
AcDbDimStyleTableRecord
  2
ISO-25
 70
     0
  3

  4

  5

  6

  7

 40
1.0
 41
2.5
 42
0.625
 43
3.75
 44
1.25
 45
0.0
 46
0.0
 47
0.0
 48
0.0
140
2.5
141
2.5
142
0.0
143
0.03937007874016
144
1.0
145
0.0
146
1.0
147
0.625
 71
     0
 72
     0
 73
     0
 74
     0
 75
     0
 76
     0
 77
     1
 78
     8
170
     0
171
     3
172
     1
173
     0
174
     0
175
     0
176
     0
177
     0
178
     0
270
     2
271
     2
272
     2
273
     2
274
     3
340
11
275
     0
280
     0
281
     0
282
     0
283
     0
284
     8
285
     0
286
     0
287
     3
288
     0
  0
ENDTAB
  0
TABLE
  2
BLOCK_RECORD
  5
1
330
0
100
AcDbSymbolTable
 70
     1
  0
BLOCK_RECORD
  5
1F
330
1
100
AcDbSymbolTableRecord
100
AcDbBlockTableRecord
  2
*MODEL_SPACE
  0
BLOCK_RECORD
  5
1B
330
1
100
AcDbSymbolTableRecord
100
AcDbBlockTableRecord
  2
*PAPER_SPACE
  0
ENDTAB
  0
ENDSEC
  0
SECTION
  2
BLOCKS
  0
BLOCK
  5
20
330
1F
100
AcDbEntity
  8
0
100
AcDbBlockBegin
  2
*MODEL_SPACE
 70
     0
 10
0.0
 20
0.0
 30
0.0
  3
*MODEL_SPACE
  1

  0
ENDBLK
  5
21
330
1F
100
AcDbEntity
  8
0
100
AcDbBlockEnd
  0
BLOCK
  5
1C
330
1B
100
AcDbEntity
 67
     1
  8
0
100
AcDbBlockBegin
  2
*PAPER_SPACE
  1

  0
ENDBLK
  5
1D
330
1B
100
AcDbEntity
 67
     1
  8
0
100
AcDbBlockEnd
  0
ENDSEC
  0
SECTION
  2
ENTITIES
  0
LWPOLYLINE
  5
100
100
AcDbEntity
  8
0
 62
7
100
AcDbPolyline
 90
1096
 70
1
 10
90.810995
 20
201.083349
 30
0.0
 10
74.935995
 20
177.270849
 30
0.0
 10
51.123495
 20
195.791683
 30
0.0
 10
59.060995
 20
166.687516
 30
0.0
 10
29.956829
 20
169.333349
 30
0.0
 10
56.020354
 20
138.057223
 30
0.0
 10
56.021412
 20
137.886588
 30
0.0
 10
56.024640
 20
137.706682
 30
0.0
 10
56.029693
 20
137.519780
 30
0.0
 10
56.036123
 20
137.328167
 30
0.0
 10
56.043425
 20
137.134113
 30
0.0
 10
56.051151
 20
136.939901
 30
0.0
 10
56.058850
 20
136.747803
 30
0.0
 10
56.066021
 20
136.560100
 30
0.0
 10
56.072212
 20
136.379069
 30
0.0
 10
56.076974
 20
136.206984
 30
0.0
 10
56.079805
 20
136.046128
 30
0.0
 10
56.080335
 20
135.898774
 30
0.0
 10
56.077953
 20
135.767199
 30
0.0
 10
56.072238
 20
135.653685
 30
0.0
 10
56.062740
 20
135.560504
 30
0.0
 10
56.048981
 20
135.489937
 30
0.0
 10
56.029535
 20
135.392938
 30
0.0
 10
56.011252
 20
135.253344
 30
0.0
 10
55.993260
 20
135.075782
 30
0.0
 10
55.974660
 20
134.864890
 30
0.0
 10
55.954552
 20
134.625294
 30
0.0
 10
55.932062
 20
134.361629
 30
0.0
 10
55.906265
 20
134.078522
 30
0.0
 10
55.876304
 20
133.780607
 30
0.0
 10
55.841276
 20
133.472513
 30
0.0
 10
55.800286
 20
133.158873
 30
0.0
 10
55.752450
 20
132.844318
 30
0.0
 10
55.696871
 20
132.533477
 30
0.0
 10
55.632657
 20
132.230987
 30
0.0
 10
55.558918
 20
131.941472
 30
0.0
 10
55.474762
 20
131.669565
 30
0.0
 10
55.379295
 20
131.419902
 30
0.0
 10
55.360985
 20
131.379090
 30
0.0
 10
55.341274
 20
131.338839
 30
0.0
 10
55.320213
 20
131.299180
 30
0.0
 10
55.297856
 20
131.260133
 30
0.0
 10
55.274255
 20
131.221729
 30
0.0
 10
55.249464
 20
131.183991
 30
0.0
 10
55.223561
 20
131.146944
 30
0.0
 10
55.196573
 20
131.110614
 30
0.0
 10
55.168572
 20
131.075028
 30
0.0
 10
55.139614
 20
131.040211
 30
0.0
 10
55.109748
 20
131.006189
 30
0.0
 10
55.079037
 20
130.972983
 30
0.0
 10
55.047534
 20
130.940625
 30
0.0
 10
55.015297
 20
130.909137
 30
0.0
 10
54.982380
 20
130.878546
 30
0.0
 10
54.948841
 20
130.848878
 30
0.0
 10
54.760701
 20
130.692348
 30
0.0
 10
54.567235
 20
130.542493
 30
0.0
 10
54.368819
 20
130.399015
 30
0.0
 10
54.165825
 20
130.261601
 30
0.0
 10
53.958625
 20
130.129949
 30
0.0
 10
53.747593
 20
130.003751
 30
0.0
 10
53.533106
 20
129.882704
 30
0.0
 10
53.315534
 20
129.766502
 30
0.0
 10
53.095250
 20
129.654834
 30
0.0
 10
52.872629
 20
129.547403
 30
0.0
 10
52.648046
 20
129.443898
 30
0.0
 10
52.421869
 20
129.344013
 30
0.0
 10
52.194479
 20
129.247445
 30
0.0
 10
51.966244
 20
129.153886
 30
0.0
 10
51.737540
 20
129.063030
 30
0.0
 10
51.508739
 20
128.974572
 30
0.0
 10
51.154457
 20
128.846360
 30
0.0
 10
50.796600
 20
128.729997
 30
0.0
 10
50.435566
 20
128.624137
 30
0.0
 10
50.071750
 20
128.527440
 30
0.0
 10
49.705554
 20
128.438569
 30
0.0
 10
49.337375
 20
128.356177
 30
0.0
 10
48.967612
 20
128.278927
 30
0.0
 10
48.596664
 20
128.205479
 30
0.0
 10
48.224927
 20
128.134491
 30
0.0
 10
47.852801
 20
128.064617
 30
0.0
 10
47.480683
 20
127.994524
 30
0.0
 10
47.108970
 20
127.922867
 30
0.0
 10
46.738066
 20
127.848304
 30
0.0
 10
46.368364
 20
127.769496
 30
0.0
 10
46.000263
 20
127.685101
 30
0.0
 10
45.634164
 20
127.593778
 30
0.0
 10
45.018291
 20
127.433263
 30
0.0
 10
44.402261
 20
127.272770
 30
0.0
 10
43.786227
 20
127.111858
 30
0.0
 10
43.170343
 20
126.950094
 30
0.0
 10
42.554766
 20
126.787042
 30
0.0
 10
41.939647
 20
126.622265
 30
0.0
 10
41.325144
 20
126.455326
 30
0.0
 10
40.711406
 20
126.285792
 30
0.0
 10
40.098591
 20
126.113220
 30
0.0
 10
39.486856
 20
125.937179
 30
0.0
 10
38.876348
 20
125.757231
 30
0.0
 10
38.267227
 20
125.572938
 30
0.0
 10
37.659646
 20
125.383867
 30
0.0
 10
37.053758
 20
125.189581
 30
0.0
 10
36.449720
 20
124.989643
 30
0.0
 10
35.847681
 20
124.783615
 30
0.0
 10
34.173464
 20
124.201423
 30
0.0
 10
32.497638
 20
123.618053
 30
0.0
 10
30.821585
 20
123.031136
 30
0.0
 10
29.146675
 20
122.438292
 30
0.0
 10
27.474283
 20
121.837151
 30
0.0
 10
25.805784
 20
121.225334
 30
0.0
 10
24.142554
 20
120.600470
 30
0.0
 10
22.485966
 20
119.960184
 30
0.0
 10
20.837397
 20
119.302099
 30
0.0
 10
19.198221
 20
118.623842
 30
0.0
 10
17.569812
 20
117.923040
 30
0.0
 10
15.953544
 20
117.197314
 30
0.0
 10
14.350795
 20
116.444292
 30
0.0
 10
12.762936
 20
115.661601
 30
0.0
 10
11.191345
 20
114.846865
 30
0.0
 10
9.637394
 20
113.997708
 30
0.0
 10
9.380618
 20
113.849457
 30
0.0
 10
9.124428
 20
113.693744
 30
0.0
 10
8.869247
 20
113.531430
 30
0.0
 10
8.615496
 20
113.363370
 30
0.0
 10
8.363597
 20
113.190420
 30
0.0
 10
8.113972
 20
113.013437
 30
0.0
 10
7.867043
 20
112.833280
 30
0.0
 10
7.623231
 20
112.650802
 30
0.0
 10
7.382957
 20
112.466861
 30
0.0
 10
7.146645
 20
112.282314
 30
0.0
 10
6.914714
 20
112.098018
 30
0.0
 10
6.687588
 20
111.914829
 30
0.0
 10
6.465688
 20
111.733605
 30
0.0
 10
6.249435
 20
111.555202
 30
0.0
 10
6.039252
 20
111.380476
 30
0.0
 10
5.835560
 20
111.210283
 30
0.0
 10
5.637390
 20
111.042892
 30
0.0
 10
5.443446
 20
110.875956
 30
0.0
 10
5.253659
 20
110.709416
 30
0.0
 10
5.067959
 20
110.543218
 30
0.0
 10
4.886276
 20
110.377298
 30
0.0
 10
4.708539
 20
110.211603
 30
0.0
 10
4.534680
 20
110.046074
 30
0.0
 10
4.364627
 20
109.880649
 30
0.0
 10
4.198312
 20
109.715274
 30
0.0
 10
4.035665
 20
109.549888
 30
0.0
 10
3.876615
 20
109.384436
 30
0.0
 10
3.721092
 20
109.218854
 30
0.0
 10
3.569028
 20
109.053090
 30
0.0
 10
3.420351
 20
108.887085
 30
0.0
 10
3.274992
 20
108.720779
 30
0.0
 10
3.132882
 20
108.554113
 30
0.0
 10
2.993947
 20
108.387026
 30
0.0
 10
2.858115
 20
108.219460
 30
0.0
 10
2.725319
 20
108.051357
 30
0.0
 10
2.595489
 20
107.882658
 30
0.0
 10
2.468559
 20
107.713306
 30
0.0
 10
2.344458
 20
107.543245
 30
0.0
 10
2.223120
 20
107.372417
 30
0.0
 10
2.104476
 20
107.200766
 30
0.0
 10
1.988457
 20
107.028231
 30
0.0
 10
1.874996
 20
106.854757
 30
0.0
 10
1.764023
 20
106.680286
 30
0.0
 10
1.655472
 20
106.504761
 30
0.0
 10
1.549273
 20
106.328125
 30
0.0
 10
1.445358
 20
106.150320
 30
0.0
 10
1.343659
 20
105.971290
 30
0.0
 10
1.244108
 20
105.790974
 30
0.0
 10
1.083460
 20
105.490478
 30
0.0
 10
0.939645
 20
105.208036
 30
0.0
 10
0.811541
 20
104.938258
 30
0.0
 10
0.698026
 20
104.675763
 30
0.0
 10
0.597978
 20
104.415161
 30
0.0
 10
0.510276
 20
104.151070
 30
0.0
 10
0.433796
 20
103.878102
 30
0.0
 10
0.367417
 20
103.590876
 30
0.0
 10
0.310017
 20
103.284001
 30
0.0
 10
0.260473
 20
102.952098
 30
0.0
 10
0.217664
 20
102.589774
 30
0.0
 10
0.180468
 20
102.191653
 30
0.0
 10
0.147763
 20
101.752342
 30
0.0
 10
0.118426
 20
101.266461
 30
0.0
 10
0.091335
 20
100.728621
 30
0.0
 10
0.065369
 20
100.133438
 30
0.0
 10
0.050491
 20
99.767197
 30
0.0
 10
0.037168
 20
99.424260
 30
0.0
 10
0.025600
 20
99.103288
 30
0.0
 10
0.015985
 20
98.802947
 30
0.0
 10
0.008525
 20
98.521896
 30
0.0
 10
0.003420
 20
98.258802
 30
0.0
 10
0.000868
 20
98.012324
 30
0.0
 10
0.001071
 20
97.781131
 30
0.0
 10
0.004228
 20
97.563879
 30
0.0
 10
0.010538
 20
97.359237
 30
0.0
 10
0.020203
 20
97.165866
 30
0.0
 10
0.033421
 20
96.982426
 30
0.0
 10
0.050393
 20
96.807584
 30
0.0
 10
0.071319
 20
96.640002
 30
0.0
 10
0.096398
 20
96.478344
 30
0.0
 10
0.125830
 20
96.321269
 30
0.0
 10
-2.798142
 20
96.168739
 30
0.0
 10
-5.540646
 20
96.020543
 30
0.0
 10
-8.103130
 20
95.876584
 30
0.0
 10
-10.487047
 20
95.736757
 30
0.0
 10
-12.693847
 20
95.600962
 30
0.0
 10
-14.724980
 20
95.469099
 30
0.0
 10
-16.581897
 20
95.341070
 30
0.0
 10
-18.266049
 20
95.216771
 30
0.0
 10
-19.778886
 20
95.096102
 30
0.0
 10
-21.121858
 20
94.978963
 30
0.0
 10
-22.296417
 20
94.865256
 30
0.0
 10
-23.304014
 20
94.754877
 30
0.0
 10
-24.146098
 20
94.647726
 30
0.0
 10
-24.824120
 20
94.543705
 30
0.0
 10
-25.339531
 20
94.442711
 30
0.0
 10
-25.693782
 20
94.344643
 30
0.0
 10
-26.285607
 20
94.116205
 30
0.0
 10
-26.857322
 20
93.856008
 30
0.0
 10
-27.407219
 20
93.565861
 30
0.0
 10
-27.933589
 20
93.247570
 30
0.0
 10
-28.434729
 20
92.902942
 30
0.0
 10
-28.908928
 20
92.533785
 30
0.0
 10
-29.354481
 20
92.141905
 30
0.0
 10
-29.769678
 20
91.729113
 30
0.0
 10
-30.152816
 20
91.297215
 30
0.0
 10
-30.502185
 20
90.848019
 30
0.0
 10
-30.816079
 20
90.383328
 30
0.0
 10
-31.092791
 20
89.904956
 30
0.0
 10
-31.330614
 20
89.414707
 30
0.0
 10
-31.527840
 20
88.914388
 30
0.0
 10
-31.682759
 20
88.405809
 30
0.0
 10
-31.793669
 20
87.890776
 30
0.0
 10
-31.834259
 20
87.374468
 30
0.0
 10
-31.768137
 20
86.859996
 30
0.0
 10
-31.579976
 20
86.337225
 30
0.0
 10
-31.254457
 20
85.796017
 30
0.0
 10
-30.776251
 20
85.226231
 30
0.0
 10
-30.130036
 20
84.617735
 30
0.0
 10
-29.300485
 20
83.960385
 30
0.0
 10
-28.272274
 20
83.244050
 30
0.0
 10
-27.030079
 20
82.458586
 30
0.0
 10
-25.558577
 20
81.593862
 30
0.0
 10
-23.842442
 20
80.639735
 30
0.0
 10
-21.866350
 20
79.586069
 30
0.0
 10
-19.614975
 20
78.422728
 30
0.0
 10
-17.072995
 20
77.139570
 30
0.0
 10
-14.225083
 20
75.726462
 30
0.0
 10
-11.055916
 20
74.173265
 30
0.0
 10
-9.101625
 20
73.214397
 30
0.0
 10
-7.213557
 20
72.276877
 30
0.0
 10
-5.400400
 20
71.365470
 30
0.0
 10
-3.670841
 20
70.484934
 30
0.0
 10
-2.033569
 20
69.640032
 30
0.0
 10
-0.497270
 20
68.835524
 30
0.0
 10
0.929366
 20
68.076172
 30
0.0
 10
2.237653
 20
67.366740
 30
0.0
 10
3.418903
 20
66.711986
 30
0.0
 10
4.464427
 20
66.116671
 30
0.0
 10
5.365539
 20
65.585560
 30
0.0
 10
6.113551
 20
65.123409
 30
0.0
 10
6.699774
 20
64.734985
 30
0.0
 10
7.115522
 20
64.425047
 30
0.0
 10
7.352106
 20
64.198354
 30
0.0
 10
7.400838
 20
64.059670
 30
0.0
 10
7.307385
 20
63.872938
 30
0.0
 10
7.124801
 20
63.502400
 30
0.0
 10
6.857942
 20
62.958033
 30
0.0
 10
6.511664
 20
62.249809
 30
0.0
 10
6.090821
 20
61.387707
 30
0.0
 10
5.600271
 20
60.381700
 30
0.0
 10
5.044868
 20
59.241764
 30
0.0
 10
4.429468
 20
57.977873
 30
0.0
 10
3.758927
 20
56.600003
 30
0.0
 10
3.038101
 20
55.118130
 30
0.0
 10
2.271845
 20
53.542229
 30
0.0
 10
1.465015
 20
51.882275
 30
0.0
 10
0.622466
 20
50.148241
 30
0.0
 10
-0.250946
 20
48.350107
 30
0.0
 10
-1.150365
 20
46.497843
 30
0.0
 10
-2.070935
 20
44.601429
 30
0.0
 10
-3.451302
 20
41.750242
 30
0.0
 10
-4.683129
 20
39.188530
 30
0.0
 10
-5.773463
 20
36.898289
 30
0.0
 10
-6.729354
 20
34.861519
 30
0.0
 10
-7.557850
 20
33.060217
 30
0.0
 10
-8.266000
 20
31.476376
 30
0.0
 10
-8.860853
 20
30.091996
 30
0.0
 10
-9.349458
 20
28.889076
 30
0.0
 10
-9.738864
 20
27.849610
 30
0.0
 10
-10.036119
 20
26.955597
 30
0.0
 10
-10.248272
 20
26.189032
 30
0.0
 10
-10.382372
 20
25.531913
 30
0.0
 10
-10.445468
 20
24.966239
 30
0.0
 10
-10.444622
 20
24.474006
 30
0.0
 10
-10.386856
 20
24.037211
 30
0.0
 10
-10.279232
 20
23.637849
 30
0.0
 10
-10.038203
 20
23.042488
 30
0.0
 10
-9.734648
 20
22.496105
 30
0.0
 10
-9.372041
 20
21.999816
 30
0.0
 10
-8.953856
 20
21.554731
 30
0.0
 10
-8.483566
 20
21.161970
 30
0.0
 10
-7.964644
 20
20.822645
 30
0.0
 10
-7.400564
 20
20.537871
 30
0.0
 10
-6.794799
 20
20.308763
 30
0.0
 10
-6.150822
 20
20.136440
 30
0.0
 10
-5.472107
 20
20.022013
 30
0.0
 10
-4.762126
 20
19.966599
 30
0.0
 10
-4.024355
 20
19.971308
 30
0.0
 10
-3.262265
 20
20.037264
 30
0.0
 10
-2.479330
 20
20.165579
 30
0.0
 10
-1.679024
 20
20.357364
 30
0.0
 10
-0.864820
 20
20.613740
 30
0.0
 10
-0.529874
 20
20.758134
 30
0.0
 10
-0.068451
 20
21.000045
 30
0.0
 10
0.520672
 20
21.340326
 30
0.0
 10
1.238713
 20
21.779825
 30
0.0
 10
2.086894
 20
22.319398
 30
0.0
 10
3.066435
 20
22.959893
 30
0.0
 10
4.178555
 20
23.702163
 30
0.0
 10
5.424476
 20
24.547055
 30
0.0
 10
6.805417
 20
25.495422
 30
0.0
 10
8.322598
 20
26.548117
 30
0.0
 10
9.977240
 20
27.705987
 30
0.0
 10
11.770564
 20
28.969885
 30
0.0
 10
13.703789
 20
30.340662
 30
0.0
 10
15.778135
 20
31.819170
 30
0.0
 10
17.994823
 20
33.406260
 30
0.0
 10
20.355074
 20
35.102779
 30
0.0
 10
20.273997
 20
34.895377
 30
0.0
 10
20.193681
 20
34.689775
 30
0.0
 10
20.114199
 20
34.486152
 30
0.0
 10
20.035628
 20
34.284692
 30
0.0
 10
19.958044
 20
34.085583
 30
0.0
 10
19.881522
 20
33.889005
 30
0.0
 10
19.806137
 20
33.695143
 30
0.0
 10
19.731965
 20
33.504182
 30
0.0
 10
19.659082
 20
33.316304
 30
0.0
 10
19.587562
 20
33.131694
 30
0.0
 10
19.517482
 20
32.950536
 30
0.0
 10
19.448918
 20
32.773014
 30
0.0
 10
19.381944
 20
32.599313
 30
0.0
 10
19.316636
 20
32.429611
 30
0.0
 10
19.253070
 20
32.264101
 30
0.0
 10
19.191321
 20
32.102959
 30
0.0
 10
18.974797
 20
31.538619
 30
0.0
 10
18.757802
 20
30.975742
 30
0.0
 10
18.541737
 20
30.417849
 30
0.0
 10
18.328005
 20
29.868471
 30
0.0
 10
18.118008
 20
29.331132
 30
0.0
 10
17.913149
 20
28.809363
 30
0.0
 10
17.714829
 20
28.306686
 30
0.0
 10
17.524450
 20
27.826631
 30
0.0
 10
17.343414
 20
27.372725
 30
0.0
 10
17.173125
 20
26.948492
 30
0.0
 10
17.014983
 20
26.557465
 30
0.0
 10
16.870392
 20
26.203164
 30
0.0
 10
16.740753
 20
25.889119
 30
0.0
 10
16.627468
 20
25.618858
 30
0.0
 10
16.531940
 20
25.395907
 30
0.0
 10
16.455570
 20
25.223793
 30
0.0
 10
16.042489
 20
24.290782
 30
0.0
 10
15.580147
 20
23.199392
 30
0.0
 10
15.077571
 20
21.974096
 30
0.0
 10
14.543790
 20
20.639357
 30
0.0
 10
13.987834
 20
19.219648
 30
0.0
 10
13.418730
 20
17.739439
 30
0.0
 10
12.845508
 20
16.223197
 30
0.0
 10
12.277196
 20
14.695395
 30
0.0
 10
11.722823
 20
13.180494
 30
0.0
 10
11.191417
 20
11.702971
 30
0.0
 10
10.692008
 20
10.287294
 30
0.0
 10
10.233624
 20
8.957929
 30
0.0
 10
9.825293
 20
7.739346
 30
0.0
 10
9.476045
 20
6.656014
 30
0.0
 10
9.194907
 20
5.732407
 30
0.0
 10
8.990910
 20
4.992986
 30
0.0
 10
8.874618
 20
4.511725
 30
0.0
 10
8.777459
 20
4.057997
 30
0.0
 10
8.699489
 20
3.631226
 30
0.0
 10
8.640763
 20
3.230848
 30
0.0
 10
8.601337
 20
2.856286
 30
0.0
 10
8.581269
 20
2.506975
 30
0.0
 10
8.580607
 20
2.182342
 30
0.0
 10
8.599422
 20
1.881815
 30
0.0
 10
8.637760
 20
1.604825
 30
0.0
 10
8.695679
 20
1.350801
 30
0.0
 10
8.773236
 20
1.119172
 30
0.0
 10
8.870486
 20
0.909370
 30
0.0
 10
8.987486
 20
0.720820
 30
0.0
 10
9.124291
 20
0.552958
 30
0.0
 10
9.280959
 20
0.405207
 30
0.0
 10
9.457543
 20
0.276998
 30
0.0
 10
9.498529
 20
0.259694
 30
0.0
 10
9.539515
 20
0.242390
 30
0.0
 10
9.580501
 20
0.225086
 30
0.0
 10
9.621487
 20
0.207783
 30
0.0
 10
9.662473
 20
0.190479
 30
0.0
 10
9.703459
 20
0.173175
 30
0.0
 10
9.744444
 20
0.155871
 30
0.0
 10
9.785430
 20
0.138568
 30
0.0
 10
9.826416
 20
0.121264
 30
0.0
 10
9.867402
 20
0.103960
 30
0.0
 10
9.908388
 20
0.086656
 30
0.0
 10
9.949374
 20
0.069353
 30
0.0
 10
9.990359
 20
0.052049
 30
0.0
 10
10.031346
 20
0.034745
 30
0.0
 10
10.072331
 20
0.017441
 30
0.0
 10
10.113317
 20
0.000138
 30
0.0
 10
10.273950
 20
-0.023913
 30
0.0
 10
10.665540
 20
-0.041587
 30
0.0
 10
11.282225
 20
-0.053546
 30
0.0
 10
12.118140
 20
-0.060452
 30
0.0
 10
13.167422
 20
-0.063098
 30
0.0
 10
14.424208
 20
-0.062039
 30
0.0
 10
15.882633
 20
-0.057859
 30
0.0
 10
17.536835
 20
-0.051324
 30
0.0
 10
19.380949
 20
-0.043122
 30
0.0
 10
21.409113
 20
-0.033888
 30
0.0
 10
23.615462
 20
-0.024310
 30
0.0
 10
25.994134
 20
-0.015076
 30
0.0
 10
28.539264
 20
-0.006847
 30
0.0
 10
31.244988
 20
-0.000286
 30
0.0
 10
34.105447
 20
0.003921
 30
0.0
 10
37.114770
 20
0.005244
 30
0.0
 10
38.982516
 20
0.004979
 30
0.0
 10
40.850266
 20
0.004715
 30
0.0
 10
42.718012
 20
0.004450
 30
0.0
 10
44.585762
 20
0.004186
 30
0.0
 10
46.453508
 20
0.003921
 30
0.0
 10
48.321258
 20
0.003657
 30
0.0
 10
50.189004
 20
0.003392
 30
0.0
 10
52.056751
 20
0.003127
 30
0.0
 10
53.924500
 20
0.002863
 30
0.0
 10
55.792247
 20
0.002598
 30
0.0
 10
57.659996
 20
0.002334
 30
0.0
 10
59.527743
 20
0.002069
 30
0.0
 10
61.395492
 20
0.001804
 30
0.0
 10
63.263239
 20
0.001540
 30
0.0
 10
65.130988
 20
0.001275
 30
0.0
 10
66.998735
 20
0.001011
 30
0.0
 10
67.046050
 20
0.050620
 30
0.0
 10
67.093368
 20
0.100229
 30
0.0
 10
67.140684
 20
0.149839
 30
0.0
 10
67.187999
 20
0.199448
 30
0.0
 10
67.235315
 20
0.249058
 30
0.0
 10
67.282630
 20
0.298667
 30
0.0
 10
67.329948
 20
0.348276
 30
0.0
 10
67.377264
 20
0.397886
 30
0.0
 10
67.424579
 20
0.447495
 30
0.0
 10
67.471895
 20
0.497104
 30
0.0
 10
67.519213
 20
0.546714
 30
0.0
 10
67.566528
 20
0.596323
 30
0.0
 10
67.613844
 20
0.645933
 30
0.0
 10
67.661159
 20
0.695542
 30
0.0
 10
67.708477
 20
0.745151
 30
0.0
 10
67.755792
 20
0.794761
 30
0.0
 10
67.935931
 20
1.071205
 30
0.0
 10
68.147651
 20
1.542809
 30
0.0
 10
68.386863
 20
2.185636
 30
0.0
 10
68.649470
 20
2.975737
 30
0.0
 10
68.931384
 20
3.889179
 30
0.0
 10
69.228508
 20
4.902015
 30
0.0
 10
69.536751
 20
5.990304
 30
0.0
 10
69.852017
 20
7.130108
 30
0.0
 10
70.170216
 20
8.297484
 30
0.0
 10
70.487253
 20
9.468488
 30
0.0
 10
70.799038
 20
10.619184
 30
0.0
 10
71.101475
 20
11.725627
 30
0.0
 10
71.390472
 20
12.763878
 30
0.0
 10
71.661934
 20
13.709991
 30
0.0
 10
71.911770
 20
14.540032
 30
0.0
 10
72.135888
 20
15.230054
 30
0.0
 10
72.309258
 20
15.736827
 30
0.0
 10
72.536078
 20
16.396256
 30
0.0
 10
72.813343
 20
17.191104
 30
0.0
 10
73.138055
 20
18.104136
 30
0.0
 10
73.507215
 20
19.118114
 30
0.0
 10
73.917822
 20
20.215804
 30
0.0
 10
74.366878
 20
21.379968
 30
0.0
 10
74.851378
 20
22.593369
 30
0.0
 10
75.368323
 20
23.838770
 30
0.0
 10
75.914717
 20
25.098939
 30
0.0
 10
76.487556
 20
26.356633
 30
0.0
 10
77.083842
 20
27.594618
 30
0.0
 10
77.700572
 20
28.795657
 30
0.0
 10
78.334750
 20
29.942515
 30
0.0
 10
78.983373
 20
31.017956
 30
0.0
 10
79.643440
 20
32.004741
 30
0.0
 10
79.927134
 20
32.416073
 30
0.0
 10
80.213675
 20
32.848772
 30
0.0
 10
80.504494
 20
33.296093
 30
0.0
 10
80.801013
 20
33.751295
 30
0.0
 10
81.104667
 20
34.207635
 30
0.0
 10
81.416884
 20
34.658369
 30
0.0
 10
81.739088
 20
35.096754
 30
0.0
 10
82.072714
 20
35.516047
 30
0.0
 10
82.419186
 20
35.909507
 30
0.0
 10
82.779932
 20
36.270388
 30
0.0
 10
83.156387
 20
36.591946
 30
0.0
 10
83.549973
 20
36.867444
 30
0.0
 10
83.962122
 20
37.090130
 30
0.0
 10
84.394264
 20
37.253270
 30
0.0
 10
84.847823
 20
37.350113
 30
0.0
 10
85.324232
 20
37.373925
 30
0.0
 10
85.740032
 20
37.327491
 30
0.0
 10
86.131878
 20
37.218313
 30
0.0
 10
86.501387
 20
37.052226
 30
0.0
 10
86.850182
 20
36.835061
 30
0.0
 10
87.179882
 20
36.572650
 30
0.0
 10
87.492106
 20
36.270827
 30
0.0
 10
87.788476
 20
35.935423
 30
0.0
 10
88.070615
 20
35.572271
 30
0.0
 10
88.340140
 20
35.187205
 30
0.0
 10
88.598670
 20
34.786057
 30
0.0
 10
88.847828
 20
34.374656
 30
0.0
 10
89.089234
 20
33.958837
 30
0.0
 10
89.324507
 20
33.544433
 30
0.0
 10
89.555266
 20
33.137274
 30
0.0
 10
89.783136
 20
32.743196
 30
0.0
 10
90.009733
 20
32.368030
 30
0.0
 10
90.591467
 20
31.384904
 30
0.0
 10
91.129039
 20
30.381019
 30
0.0
 10
91.626863
 20
29.358312
 30
0.0
 10
92.089352
 20
28.318717
 30
0.0
 10
92.520919
 20
27.264162
 30
0.0
 10
92.925978
 20
26.196586
 30
0.0
 10
93.308941
 20
25.117922
 30
0.0
 10
93.674222
 20
24.030104
 30
0.0
 10
94.026232
 20
22.935065
 30
0.0
 10
94.369383
 20
21.834740
 30
0.0
 10
94.708092
 20
20.731059
 30
0.0
 10
95.046772
 20
19.625964
 30
0.0
 10
95.389834
 20
18.521378
 30
0.0
 10
95.741690
 20
17.419246
 30
0.0
 10
96.106754
 20
16.321492
 30
0.0
 10
96.489439
 20
15.230057
 30
0.0
 10
96.880904
 20
14.112105
 30
0.0
 10
97.268322
 20
12.943861
 30
0.0
 10
97.650137
 20
11.740851
 30
0.0
 10
98.024790
 20
10.518595
 30
0.0
 10
98.390722
 20
9.292619
 30
0.0
 10
98.746372
 20
8.078446
 30
0.0
 10
99.090185
 20
6.891599
 30
0.0
 10
99.420599
 20
5.747602
 30
0.0
 10
99.736057
 20
4.661980
 30
0.0
 10
100.035001
 20
3.650250
 30
0.0
 10
100.315873
 20
2.727944
 30
0.0
 10
100.577109
 20
1.910577
 30
0.0
 10
100.817157
 20
1.213678
 30
0.0
 10
101.034454
 20
0.652769
 30
0.0
 10
101.227444
 20
0.243374
 30
0.0
 10
101.394568
 20
0.001013
 30
0.0
 10
101.524815
 20
-0.117025
 30
0.0
 10
101.677209
 20
-0.204631
 30
0.0
 10
101.897038
 20
-0.264946
 30
0.0
 10
102.229588
 20
-0.301109
 30
0.0
 10
102.720147
 20
-0.316243
 30
0.0
 10
103.413998
 20
-0.313518
 30
0.0
 10
104.356428
 20
-0.296056
 30
0.0
 10
105.592723
 20
-0.266999
 30
0.0
 10
107.168171
 20
-0.229486
 30
0.0
 10
109.128056
 20
-0.186658
 30
0.0
 10
111.517667
 20
-0.141650
 30
0.0
 10
114.382289
 20
-0.097602
 30
0.0
 10
117.767207
 20
-0.057653
 30
0.0
 10
121.717709
 20
-0.024945
 30
0.0
 10
126.279078
 20
-0.002614
 30
0.0
 10
131.496606
 20
0.006197
 30
0.0
 10
134.489871
 20
0.005138
 30
0.0
 10
137.302345
 20
0.000931
 30
0.0
 10
139.932710
 20
-0.005604
 30
0.0
 10
142.379654
 20
-0.013832
 30
0.0
 10
144.641860
 20
-0.023066
 30
0.0
 10
146.718008
 20
-0.032644
 30
0.0
 10
148.606789
 20
-0.041878
 30
0.0
 10
150.306883
 20
-0.050107
 30
0.0
 10
151.816976
 20
-0.056642
 30
0.0
 10
153.135752
 20
-0.060822
 30
0.0
 10
154.261893
 20
-0.061881
 30
0.0
 10
155.194089
 20
-0.059235
 30
0.0
 10
155.931019
 20
-0.052329
 30
0.0
 10
156.471370
 20
-0.040370
 30
0.0
 10
156.813825
 20
-0.022696
 30
0.0
 10
156.957068
 20
0.001355
 30
0.0
 10
157.146171
 20
0.132657
 30
0.0
 10
157.339545
 20
0.289798
 30
0.0
 10
157.533836
 20
0.472165
 30
0.0
 10
157.725691
 20
0.679135
 30
0.0
 10
157.911754
 20
0.910087
 30
0.0
 10
158.088675
 20
1.164405
 30
0.0
 10
158.253103
 20
1.441469
 30
0.0
 10
158.401683
 20
1.740657
 30
0.0
 10
158.531061
 20
2.061350
 30
0.0
 10
158.637884
 20
2.402933
 30
0.0
 10
158.718802
 20
2.764782
 30
0.0
 10
158.770459
 20
3.146277
 30
0.0
 10
158.789509
 20
3.546803
 30
0.0
 10
158.772576
 20
3.965736
 30
0.0
 10
158.716336
 20
4.402460
 30
0.0
 10
158.617424
 20
4.856356
 30
0.0
 10
158.413152
 20
5.576274
 30
0.0
 10
158.127254
 20
6.498159
 30
0.0
 10
157.769995
 20
7.593907
 30
0.0
 10
157.351649
 20
8.835409
 30
0.0
 10
156.882480
 20
10.194563
 30
0.0
 10
156.372754
 20
11.643265
 30
0.0
 10
155.832748
 20
13.153406
 30
0.0
 10
155.272723
 20
14.696885
 30
0.0
 10
154.702951
 20
16.245591
 30
0.0
 10
154.133699
 20
17.771428
 30
0.0
 10
153.575238
 20
19.246281
 30
0.0
 10
153.037835
 20
20.642053
 30
0.0
 10
152.531759
 20
21.930633
 30
0.0
 10
152.067277
 20
23.083920
 30
0.0
 10
151.654659
 20
24.073805
 30
0.0
 10
151.304174
 20
24.872188
 30
0.0
 10
151.211302
 20
25.080240
 30
0.0
 10
151.099511
 20
25.338127
 30
0.0
 10
150.970296
 20
25.642136
 30
0.0
 10
150.825154
 20
25.988563
 30
0.0
 10
150.665581
 20
26.373696
 30
0.0
 10
150.493075
 20
26.793830
 30
0.0
 10
150.309134
 20
27.245254
 30
0.0
 10
150.115253
 20
27.724261
 30
0.0
 10
149.912929
 20
28.227142
 30
0.0
 10
149.703659
 20
28.750189
 30
0.0
 10
149.488942
 20
29.289695
 30
0.0
 10
149.270269
 20
29.841952
 30
0.0
 10
149.049143
 20
30.403247
 30
0.0
 10
148.827060
 20
30.969879
 30
0.0
 10
148.605514
 20
31.538132
 30
0.0
 10
148.386005
 20
32.104304
 30
0.0
 10
148.157691
 20
32.693351
 30
0.0
 10
147.910297
 20
33.328726
 30
0.0
 10
147.646196
 20
34.004459
 30
0.0
 10
147.367751
 20
34.714585
 30
0.0
 10
147.077328
 20
35.453130
 30
0.0
 10
146.777299
 20
36.214132
 30
0.0
 10
146.470027
 20
36.991615
 30
0.0
 10
146.157880
 20
37.779616
 30
0.0
 10
145.843224
 20
38.572165
 30
0.0
 10
145.528428
 20
39.363293
 30
0.0
 10
145.215857
 20
40.147031
 30
0.0
 10
144.907880
 20
40.917410
 30
0.0
 10
144.606861
 20
41.668462
 30
0.0
 10
144.315168
 20
42.394219
 30
0.0
 10
144.035173
 20
43.088711
 30
0.0
 10
143.769235
 20
43.745970
 30
0.0
 10
143.510364
 20
44.384926
 30
0.0
 10
143.251104
 20
45.025712
 30
0.0
 10
142.993117
 20
45.664170
 30
0.0
 10
142.738077
 20
46.296141
 30
0.0
 10
142.487651
 20
46.917464
 30
0.0
 10
142.243504
 20
47.523982
 30
0.0
 10
142.007311
 20
48.111532
 30
0.0
 10
141.780738
 20
48.675954
 30
0.0
 10
141.565449
 20
49.213093
 30
0.0
 10
141.363119
 20
49.718788
 30
0.0
 10
141.175413
 20
50.188879
 30
0.0
 10
141.004000
 20
50.619205
 30
0.0
 10
140.850547
 20
51.005610
 30
0.0
 10
140.716726
 20
51.343930
 30
0.0
 10
140.604204
 20
51.630011
 30
0.0
 10
140.514651
 20
51.859688
 30
0.0
 10
140.109047
 20
52.845414
 30
0.0
 10
139.603513
 20
53.975939
 30
0.0
 10
139.011114
 20
55.231758
 30
0.0
 10
138.344901
 20
56.593370
 30
0.0
 10
137.617937
 20
58.041265
 30
0.0
 10
136.843277
 20
59.555944
 30
0.0
 10
136.033982
 20
61.117895
 30
0.0
 10
135.203111
 20
62.707623
 30
0.0
 10
134.363721
 20
64.305617
 30
0.0
 10
133.528868
 20
65.892376
 30
0.0
 10
132.711612
 20
67.448390
 30
0.0
 10
131.925014
 20
68.954161
 30
0.0
 10
131.182130
 20
70.390179
 30
0.0
 10
130.496018
 20
71.736942
 30
0.0
 10
129.879734
 20
72.974949
 30
0.0
 10
129.346342
 20
74.084688
 30
0.0
 10
129.047231
 20
74.736526
 30
0.0
 10
128.784859
 20
75.340393
 30
0.0
 10
128.559011
 20
75.898989
 30
0.0
 10
128.369471
 20
76.415016
 30
0.0
 10
128.216024
 20
76.891174
 30
0.0
 10
128.098448
 20
77.330162
 30
0.0
 10
128.016533
 20
77.734681
 30
0.0
 10
127.970056
 20
78.107432
 30
0.0
 10
127.958812
 20
78.451115
 30
0.0
 10
127.982571
 20
78.768432
 30
0.0
 10
128.041121
 20
79.062083
 30
0.0
 10
128.134249
 20
79.334765
 30
0.0
 10
128.261736
 20
79.589180
 30
0.0
 10
128.423364
 20
79.828033
 30
0.0
 10
128.618921
 20
80.054019
 30
0.0
 10
128.848185
 20
80.269839
 30
0.0
 10
129.242678
 20
80.506713
 30
0.0
 10
129.866315
 20
80.746193
 30
0.0
 10
130.700070
 20
80.987548
 30
0.0
 10
131.724925
 20
81.230057
 30
0.0
 10
132.921861
 20
81.472990
 30
0.0
 10
134.271860
 20
81.715621
 30
0.0
 10
135.755900
 20
81.957220
 30
0.0
 10
137.354962
 20
82.197059
 30
0.0
 10
139.050029
 20
82.434414
 30
0.0
 10
140.822081
 20
82.668557
 30
0.0
 10
142.652093
 20
82.898761
 30
0.0
 10
144.521054
 20
83.124297
 30
0.0
 10
146.409935
 20
83.344438
 30
0.0
 10
148.299727
 20
83.558457
 30
0.0
 10
150.171403
 20
83.765628
 30
0.0
 10
152.005944
 20
83.965222
 30
0.0
 10
152.388780
 20
84.009143
 30
0.0
 10
152.779652
 20
84.058861
 30
0.0
 10
153.175733
 20
84.113820
 30
0.0
 10
153.574198
 20
84.173462
 30
0.0
 10
153.972227
 20
84.237229
 30
0.0
 10
154.366996
 20
84.304563
 30
0.0
 10
154.755679
 20
84.374908
 30
0.0
 10
155.135454
 20
84.447705
 30
0.0
 10
155.503498
 20
84.522397
 30
0.0
 10
155.856984
 20
84.598428
 30
0.0
 10
156.193094
 20
84.675237
 30
0.0
 10
156.509002
 20
84.752267
 30
0.0
 10
156.801882
 20
84.828962
 30
0.0
 10
157.068913
 20
84.904765
 30
0.0
 10
157.307271
 20
84.979116
 30
0.0
 10
157.514133
 20
85.051461
 30
0.0
 10
158.263025
 20
85.358126
 30
0.0
 10
159.017223
 20
85.718166
 30
0.0
 10
159.772275
 20
86.127587
 30
0.0
 10
160.523726
 20
86.582403
 30
0.0
 10
161.267123
 20
87.078622
 30
0.0
 10
161.998016
 20
87.612252
 30
0.0
 10
162.711952
 20
88.179307
 30
0.0
 10
163.404477
 20
88.775791
 30
0.0
 10
164.071140
 20
89.397721
 30
0.0
 10
164.707489
 20
90.041100
 30
0.0
 10
165.309070
 20
90.701942
 30
0.0
 10
165.871428
 20
91.376257
 30
0.0
 10
166.390115
 20
92.060051
 30
0.0
 10
166.860679
 20
92.749338
 30
0.0
 10
167.278663
 20
93.440126
 30
0.0
 10
167.639615
 20
94.128426
 30
0.0
 10
167.822453
 20
94.509892
 30
0.0
 10
167.982967
 20
94.853929
 30
0.0
 10
168.122363
 20
95.168387
 30
0.0
 10
168.241838
 20
95.461108
 30
0.0
 10
168.342600
 20
95.739942
 30
0.0
 10
168.425843
 20
96.012736
 30
0.0
 10
168.492777
 20
96.287336
 30
0.0
 10
168.544601
 20
96.571591
 30
0.0
 10
168.582516
 20
96.873343
 30
0.0
 10
168.607731
 20
97.200445
 30
0.0
 10
168.621436
 20
97.560741
 30
0.0
 10
168.624849
 20
97.962077
 30
0.0
 10
168.619161
 20
98.412303
 30
0.0
 10
168.605561
 20
98.919263
 30
0.0
 10
168.585268
 20
99.490805
 30
0.0
 10
168.559471
 20
100.134777
 30
0.0
 10
168.533436
 20
100.731524
 30
0.0
 10
168.506305
 20
101.270538
 30
0.0
 10
168.476918
 20
101.757295
 30
0.0
 10
168.444131
 20
102.197268
 30
0.0
 10
168.406798
 20
102.595931
 30
0.0
 10
168.363772
 20
102.958762
 30
0.0
 10
168.313908
 20
103.291238
 30
0.0
 10
168.256060
 20
103.598827
 30
0.0
 10
168.189081
 20
103.887008
 30
0.0
 10
168.111825
 20
104.161257
 30
0.0
 10
168.023147
 20
104.427046
 30
0.0
 10
167.921902
 20
104.689852
 30
0.0
 10
167.806943
 20
104.955147
 30
0.0
 10
167.677122
 20
105.228411
 30
0.0
 10
167.531297
 20
105.515116
 30
0.0
 10
167.368319
 20
105.820737
 30
0.0
 10
167.222161
 20
106.083978
 30
0.0
 10
167.070054
 20
106.345903
 30
0.0
 10
166.912027
 20
106.606483
 30
0.0
 10
166.748096
 20
106.865695
 30
0.0
 10
166.578292
 20
107.123521
 30
0.0
 10
166.402632
 20
107.379934
 30
0.0
 10
166.221141
 20
107.634910
 30
0.0
 10
166.033846
 20
107.888431
 30
0.0
 10
165.840766
 20
108.140468
 30
0.0
 10
165.641926
 20
108.391002
 30
0.0
 10
165.437350
 20
108.640007
 30
0.0
 10
165.227060
 20
108.887464
 30
0.0
 10
165.011078
 20
109.133344
 30
0.0
 10
164.789431
 20
109.377628
 30
0.0
 10
164.562140
 20
109.620293
 30
0.0
 10
164.329228
 20
109.861316
 30
0.0
 10
164.295655
 20
109.895457
 30
0.0
 10
164.261910
 20
109.929642
 30
0.0
 10
164.227996
 20
109.963868
 30
0.0
 10
164.193920
 20
109.998129
 30
0.0
 10
164.159685
 20
110.032427
 30
0.0
 10
164.125297
 20
110.066754
 30
0.0
 10
164.090764
 20
110.101110
 30
0.0
 10
164.056088
 20
110.135493
 30
0.0
 10
164.021277
 20
110.169899
 30
0.0
 10
163.986333
 20
110.204327
 30
0.0
 10
163.951265
 20
110.238770
 30
0.0
 10
163.916076
 20
110.273230
 30
0.0
 10
163.880772
 20
110.307699
 30
0.0
 10
163.845358
 20
110.342177
 30
0.0
 10
163.809840
 20
110.376666
 30
0.0
 10
163.774222
 20
110.411154
 30
0.0
 10
164.412736
 20
110.833710
 30
0.0
 10
165.039113
 20
111.255913
 30
0.0
 10
165.659778
 20
111.682146
 30
0.0
 10
166.281157
 20
112.116801
 30
0.0
 10
166.909675
 20
112.564262
 30
0.0
 10
167.551757
 20
113.028915
 30
0.0
 10
168.213830
 20
113.515151
 30
0.0
 10
168.902315
 20
114.027355
 30
0.0
 10
169.623638
 20
114.569915
 30
0.0
 10
170.384228
 20
115.147214
 30
0.0
 10
171.190509
 20
115.763646
 30
0.0
 10
172.048902
 20
116.423596
 30
0.0
 10
172.965834
 20
117.131449
 30
0.0
 10
173.947731
 20
117.891592
 30
0.0
 10
175.001019
 20
118.708416
 30
0.0
 10
176.132124
 20
119.586304
 30
0.0
 10
176.753802
 20
120.185230
 30
0.0
 10
177.259751
 20
120.818116
 30
0.0
 10
177.652909
 20
121.474783
 30
0.0
 10
177.936209
 20
122.145063
 30
0.0
 10
178.112585
 20
122.818779
 30
0.0
 10
178.184973
 20
123.485759
 30
0.0
 10
178.156305
 20
124.135833
 30
0.0
 10
178.029519
 20
124.758823
 30
0.0
 10
177.807547
 20
125.344560
 30
0.0
 10
177.493328
 20
125.882868
 30
0.0
 10
177.089791
 20
126.363579
 30
0.0
 10
176.599875
 20
126.776514
 30
0.0
 10
176.026515
 20
127.111501
 30
0.0
 10
175.372642
 20
127.358370
 30
0.0
 10
174.641196
 20
127.506947
 30
0.0
 10
173.835106
 20
127.547058
 30
0.0
 10
171.385313
 20
127.325025
 30
0.0
 10
169.131600
 20
127.156292
 30
0.0
 10
167.051748
 20
127.032615
 30
0.0
 10
165.123539
 20
126.945750
 30
0.0
 10
163.324750
 20
126.887454
 30
0.0
 10
161.633166
 20
126.849484
 30
0.0
 10
160.026566
 20
126.823608
 30
0.0
 10
158.482730
 20
126.801568
 30
0.0
 10
156.979436
 20
126.775109
 30
0.0
 10
155.494467
 20
126.736001
 30
0.0
 10
154.005607
 20
126.675999
 30
0.0
 10
152.490629
 20
126.586861
 30
0.0
 10
150.927320
 20
126.460343
 30
0.0
 10
149.293457
 20
126.288199
 30
0.0
 10
147.566821
 20
126.062190
 30
0.0
 10
145.725194
 20
125.774066
 30
0.0
 10
145.239326
 20
125.670106
 30
0.0
 10
144.806343
 20
125.568575
 30
0.0
 10
144.421988
 20
125.465385
 30
0.0
 10
144.082009
 20
125.356440
 30
0.0
 10
143.782154
 20
125.237650
 30
0.0
 10
143.518169
 20
125.104922
 30
0.0
 10
143.285804
 20
124.954165
 30
0.0
 10
143.080802
 20
124.781284
 30
0.0
 10
142.898914
 20
124.582187
 30
0.0
 10
142.735886
 20
124.352783
 30
0.0
 10
142.587465
 20
124.088977
 30
0.0
 10
142.449395
 20
123.786680
 30
0.0
 10
142.317429
 20
123.441799
 30
0.0
 10
142.187312
 20
123.050242
 30
0.0
 10
142.054788
 20
122.607911
 30
0.0
 10
141.915609
 20
122.110722
 30
0.0
 10
141.904761
 20
122.071061
 30
0.0
 10
141.893913
 20
122.031400
 30
0.0
 10
141.883065
 20
121.991736
 30
0.0
 10
141.872217
 20
121.952075
 30
0.0
 10
141.861369
 20
121.912414
 30
0.0
 10
141.850521
 20
121.872753
 30
0.0
 10
141.839674
 20
121.833092
 30
0.0
 10
141.828826
 20
121.793431
 30
0.0
 10
141.817978
 20
121.753768
 30
0.0
 10
141.807130
 20
121.714107
 30
0.0
 10
141.796282
 20
121.674446
 30
0.0
 10
141.785434
 20
121.634784
 30
0.0
 10
141.774586
 20
121.595123
 30
0.0
 10
141.763738
 20
121.555460
 30
0.0
 10
141.752890
 20
121.515799
 30
0.0
 10
141.742042
 20
121.476138
 30
0.0
 10
141.042309
 20
121.718451
 30
0.0
 10
140.341698
 20
121.958420
 30
0.0
 10
139.640317
 20
122.196217
 30
0.0
 10
138.938263
 20
122.432006
 30
0.0
 10
138.235644
 20
122.665956
 30
0.0
 10
137.532561
 20
122.898231
 30
0.0
 10
136.829113
 20
123.129003
 30
0.0
 10
136.125409
 20
123.358436
 30
0.0
 10
135.421549
 20
123.586700
 30
0.0
 10
134.717635
 20
123.813962
 30
0.0
 10
134.013772
 20
124.040387
 30
0.0
 10
133.310060
 20
124.266142
 30
0.0
 10
132.606607
 20
124.491398
 30
0.0
 10
131.903508
 20
124.716320
 30
0.0
 10
131.200873
 20
124.941076
 30
0.0
 10
130.498801
 20
125.165834
 30
0.0
 10
130.176933
 20
125.265169
 30
0.0
 10
129.853281
 20
125.358118
 30
0.0
 10
129.528082
 20
125.445509
 30
0.0
 10
129.201557
 20
125.528173
 30
0.0
 10
128.873939
 20
125.606937
 30
0.0
 10
128.545456
 20
125.682632
 30
0.0
 10
128.216339
 20
125.756085
 30
0.0
 10
127.886813
 20
125.828129
 30
0.0
 10
127.557111
 20
125.899585
 30
0.0
 10
127.227461
 20
125.971289
 30
0.0
 10
126.898089
 20
126.044068
 30
0.0
 10
126.569228
 20
126.118750
 30
0.0
 10
126.241108
 20
126.196164
 30
0.0
 10
125.913953
 20
126.277140
 30
0.0
 10
125.587994
 20
126.362508
 30
0.0
 10
125.263462
 20
126.453093
 30
0.0
 10
124.933595
 20
126.549994
 30
0.0
 10
124.604609
 20
126.649758
 30
0.0
 10
124.276415
 20
126.752101
 30
0.0
 10
123.948932
 20
126.856747
 30
0.0
 10
123.622071
 20
126.963411
 30
0.0
 10
123.295745
 20
127.071811
 30
0.0
 10
122.969871
 20
127.181666
 30
0.0
 10
122.644362
 20
127.292695
 30
0.0
 10
122.319131
 20
127.404619
 30
0.0
 10
121.994093
 20
127.517152
 30
0.0
 10
121.669160
 20
127.630015
 30
0.0
 10
121.344252
 20
127.742926
 30
0.0
 10
121.019278
 20
127.855604
 30
0.0
 10
120.694152
 20
127.967766
 30
0.0
 10
120.368792
 20
128.079132
 30
0.0
 10
120.043108
 20
128.189421
 30
0.0
 10
119.793855
 20
128.272794
 30
0.0
 10
119.544326
 20
128.355410
 30
0.0
 10
119.294594
 20
128.437471
 30
0.0
 10
119.044729
 20
128.519169
 30
0.0
 10
118.794806
 20
128.600713
 30
0.0
 10
118.544900
 20
128.682298
 30
0.0
 10
118.295075
 20
128.764123
 30
0.0
 10
118.045411
 20
128.846390
 30
0.0
 10
117.795978
 20
128.929297
 30
0.0
 10
117.546846
 20
129.013045
 30
0.0
 10
117.298090
 20
129.097834
 30
0.0
 10
117.049784
 20
129.183863
 30
0.0
 10
116.801994
 20
129.271332
 30
0.0
 10
116.554799
 20
129.360441
 30
0.0
 10
116.308268
 20
129.451391
 30
0.0
 10
116.062473
 20
129.544379
 30
0.0
 10
115.955002
 20
129.585323
 30
0.0
 10
115.845520
 20
129.626670
 30
0.0
 10
115.734540
 20
129.668445
 30
0.0
 10
115.622571
 20
129.710669
 30
0.0
 10
115.510123
 20
129.753368
 30
0.0
 10
115.397710
 20
129.796559
 30
0.0
 10
115.285839
 20
129.840265
 30
0.0
 10
115.175021
 20
129.884514
 30
0.0
 10
115.065766
 20
129.929321
 30
0.0
 10
114.958586
 20
129.974716
 30
0.0
 10
114.853991
 20
130.020716
 30
0.0
 10
114.752489
 20
130.067346
 30
0.0
 10
114.654593
 20
130.114630
 30
0.0
 10
114.560812
 20
130.162586
 30
0.0
 10
114.471658
 20
130.211240
 30
0.0
 10
114.387639
 20
130.260614
 30
0.0
 10
114.307637
 20
130.310998
 30
0.0
 10
114.230133
 20
130.362746
 30
0.0
 10
114.155060
 20
130.415972
 30
0.0
 10
114.082352
 20
130.470796
 30
0.0
 10
114.011942
 20
130.527335
 30
0.0
 10
113.943758
 20
130.585702
 30
0.0
 10
113.877734
 20
130.646017
 30
0.0
 10
113.813806
 20
130.708395
 30
0.0
 10
113.751904
 20
130.772953
 30
0.0
 10
113.691957
 20
130.839808
 30
0.0
 10
113.633902
 20
130.909076
 30
0.0
 10
113.577670
 20
130.980873
 30
0.0
 10
113.523193
 20
131.055316
 30
0.0
 10
113.470403
 20
131.132522
 30
0.0
 10
113.419233
 20
131.212609
 30
0.0
 10
113.369613
 20
131.295693
 30
0.0
 10
113.321482
 20
131.435372
 30
0.0
 10
113.274770
 20
131.675944
 30
0.0
 10
113.229407
 20
132.003575
 30
0.0
 10
113.185325
 20
132.404427
 30
0.0
 10
113.142457
 20
132.864670
 30
0.0
 10
113.100740
 20
133.370463
 30
0.0
 10
113.060103
 20
133.907977
 30
0.0
 10
113.020479
 20
134.463372
 30
0.0
 10
112.981802
 20
135.022815
 30
0.0
 10
112.944004
 20
135.572471
 30
0.0
 10
112.907018
 20
136.098508
 30
0.0
 10
112.870778
 20
136.587084
 30
0.0
 10
112.835215
 20
137.024369
 30
0.0
 10
112.800264
 20
137.396527
 30
0.0
 10
112.765857
 20
137.689725
 30
0.0
 10
112.731927
 20
137.890123
 30
0.0
 10
112.698410
 20
138.042026
 30
0.0
 10
112.665228
 20
138.199029
 30
0.0
 10
112.632319
 20
138.361251
 30
0.0
 10
112.599617
 20
138.528811
 30
0.0
 10
112.567047
 20
138.701820
 30
0.0
 10
112.534548
 20
138.880398
 30
0.0
 10
112.502054
 20
139.064659
 30
0.0
 10
112.469492
 20
139.254719
 30
0.0
 10
112.436800
 20
139.450696
 30
0.0
 10
112.403910
 20
139.652706
 30
0.0
 10
112.370752
 20
139.860864
 30
0.0
 10
112.337261
 20
140.075285
 30
0.0
 10
112.303371
 20
140.296088
 30
0.0
 10
112.269012
 20
140.523389
 30
0.0
 10
112.234119
 20
140.757301
 30
0.0
 10
112.198625
 20
140.997943
 30
0.0
 10
112.166938
 20
141.211644
 30
0.0
 10
112.134813
 20
141.423898
 30
0.0
 10
112.102245
 20
141.634713
 30
0.0
 10
112.069225
 20
141.844104
 30
0.0
 10
112.035745
 20
142.052088
 30
0.0
 10
112.001799
 20
142.258680
 30
0.0
 10
111.967374
 20
142.463888
 30
0.0
 10
111.932465
 20
142.667731
 30
0.0
 10
111.897066
 20
142.870221
 30
0.0
 10
111.861167
 20
143.071374
 30
0.0
 10
111.824761
 20
143.271202
 30
0.0
 10
111.787838
 20
143.469720
 30
0.0
 10
111.750392
 20
143.666943
 30
0.0
 10
111.712416
 20
143.862883
 30
0.0
 10
111.673898
 20
144.057555
 30
0.0
 10
111.634835
 20
144.250974
 30
0.0
 10
111.595224
 20
144.443152
 30
0.0
 10
111.555055
 20
144.634102
 30
0.0
 10
111.514322
 20
144.823840
 30
0.0
 10
111.473018
 20
145.012380
 30
0.0
 10
111.431137
 20
145.199736
 30
0.0
 10
111.388674
 20
145.385923
 30
0.0
 10
111.345619
 20
145.570957
 30
0.0
 10
111.301968
 20
145.754850
 30
0.0
 10
111.257714
 20
145.937618
 30
0.0
 10
111.212848
 20
146.119276
 30
0.0
 10
111.167369
 20
146.299837
 30
0.0
 10
111.121263
 20
146.479317
 30
0.0
 10
111.074529
 20
146.657730
 30
0.0
 10
111.027161
 20
146.835090
 30
0.0
 10
110.979147
 20
147.011413
 30
0.0
 10
110.930485
 20
147.186712
 30
0.0
 10
110.881172
 20
147.361001
 30
0.0
 10
110.831192
 20
147.534292
 30
0.0
 10
110.780540
 20
147.706599
 30
0.0
 10
110.729211
 20
147.877936
 30
0.0
 10
110.677194
 20
148.048318
 30
0.0
 10
110.624486
 20
148.217759
 30
0.0
 10
110.571075
 20
148.386273
 30
0.0
 10
110.516957
 20
148.553875
 30
0.0
 10
110.462125
 20
148.720578
 30
0.0
 10
110.406568
 20
148.886398
 30
0.0
 10
110.350285
 20
149.051347
 30
0.0
 10
110.293262
 20
149.215442
 30
0.0
 10
110.235499
 20
149.378695
 30
0.0
 10
110.176983
 20
149.541122
 30
0.0
 10
110.117709
 20
149.702736
 30
0.0
 10
110.057670
 20
149.863552
 30
0.0
 10
109.996855
 20
150.023581
 30
0.0
 10
109.935263
 20
150.182836
 30
0.0
 10
109.872887
 20
150.341332
 30
0.0
 10
109.809721
 20
150.499084
 30
0.0
 10
109.745755
 20
150.656105
 30
0.0
 10
109.680985
 20
150.812412
 30
0.0
 10
109.615403
 20
150.968017
 30
0.0
 10
109.549003
 20
151.122937
 30
0.0
 10
109.481775
 20
151.277186
 30
0.0
 10
109.413713
 20
151.430778
 30
0.0
 10
109.344813
 20
151.583729
 30
0.0
 10
109.275064
 20
151.736052
 30
0.0
 10
109.204460
 20
151.887763
 30
0.0
 10
109.132996
 20
152.038877
 30
0.0
 10
109.060661
 20
152.189407
 30
0.0
 10
108.987451
 20
152.339369
 30
0.0
 10
108.965041
 20
152.384778
 30
0.0
 10
108.942525
 20
152.430128
 30
0.0
 10
108.919903
 20
152.475422
 30
0.0
 10
108.897175
 20
152.520662
 30
0.0
 10
108.874368
 20
152.565848
 30
0.0
 10
108.851455
 20
152.610981
 30
0.0
 10
108.828463
 20
152.656064
 30
0.0
 10
108.805365
 20
152.701097
 30
0.0
 10
108.782187
 20
152.746082
 30
0.0
 10
108.758930
 20
152.791020
 30
0.0
 10
108.735594
 20
152.835912
 30
0.0
 10
108.712205
 20
152.880760
 30
0.0
 10
108.688737
 20
152.925566
 30
0.0
 10
108.665189
 20
152.970330
 30
0.0
 10
108.641588
 20
153.015054
 30
0.0
 10
108.617934
 20
153.059739
 30
0.0
 10
125.206829
 20
187.854183
 30
0.0
 10
96.102662
 20
174.625016
 30
0.0
  0
ENDSEC
  0
SECTION
  2
OBJECTS
  0
DICTIONARY
  5
C
330
0
100
AcDbDictionary
  3
ACAD_GROUP
350
D
  3
ACAD_MLINESTYLE
350
17
  0
DICTIONARY
  5
D
330
C
100
AcDbDictionary
  0
DICTIONARY
  5
1A
330
C
100
AcDbDictionary
  0
DICTIONARY
  5
17
330
C
100
AcDbDictionary
  3
STANDARD
350
18
  0
DICTIONARY
  5
19
330
C
100
AcDbDictionary
  0
ENDSEC
  0
EOF
