  0
SECTION
  2
HEADER
  9
$ACADVER
  1
AC1014
  9
$HANDSEED
  5
FFFF
  9
$MEASUREMENT
 70
     1
  0
ENDSEC
  0
SECTION
  2
TABLES
  0
TABLE
  2
VPORT
  5
8
330
0
100
AcDbSymbolTable
 70
     4
  0
VPORT
  5
2E
330
8
100
AcDbSymbolTableRecord
100
AcDbViewportTableRecord
  2
*ACTIVE
 70
     0
 10
0.0
 20
0.0
 11
1.0
 21
1.0
 12
210.0
 22
148.5
 13
0.0
 23
0.0
 14
10.0
 24
10.0
 15
10.0
 25
10.0
 16
0.0
 26
0.0
 36
1.0
 17
0.0
 27
0.0
 37
0.0
 40
341.0
 41
1.24
 42
50.0
 43
0.0
 44
0.0
 50
0.0
 51
0.0
 71
     0
 72
   100
 73
     1
 74
     3
 75
     0
 76
     0
 77
     0
 78
     0
  0
ENDTAB
  0
TABLE
  2
LTYPE
  5
5
330
0
100
AcDbSymbolTable
 70
     1
  0
LTYPE
  5
14
330
5
100
AcDbSymbolTableRecord
100
AcDbLinetypeTableRecord
  2
BYBLOCK
 70
     0
  3

 72
    65
 73
     0
 40
0.0
  0
LTYPE
  5
15
330
5
100
AcDbSymbolTableRecord
100
AcDbLinetypeTableRecord
  2
BYLAYER
 70
     0
  3

 72
    65
 73
     0
 40
0.0
  0
LTYPE
  5
16
330
5
100
AcDbSymbolTableRecord
100
AcDbLinetypeTableRecord
  2
CONTINUOUS
 70
     0
  3
Solid line
 72
    65
 73
     0
 40
0.0
  0
ENDTAB
  0
TABLE
  2
LAYER
  5
2
100
AcDbSymbolTable
 70
1
  0
LAYER
  5
50
100
AcDbSymbolTableRecord
100
AcDbLayerTableRecord
  2
0
 70
0
  6
CONTINUOUS
  0
ENDTAB
  0
TABLE
  2
STYLE
  5
3
330
0
100
AcDbSymbolTable
 70
     1
  0
STYLE
  5
11
330
3
100
AcDbSymbolTableRecord
100
AcDbTextStyleTableRecord
  2
STANDARD
 70
     0
 40
0.0
 41
1.0
 50
0.0
 71
     0
 42
2.5
  3
txt
  4

  0
ENDTAB
  0
TABLE
  2
VIEW
  5
6
330
0
100
AcDbSymbolTable
 70
     0
  0
ENDTAB
  0
TABLE
  2
UCS
  5
7
330
0
100
AcDbSymbolTable
 70
     0
  0
ENDTAB
  0
TABLE
  2
APPID
  5
9
330
0
100
AcDbSymbolTable
 70
     2
  0
APPID
  5
12
330
9
100
AcDbSymbolTableRecord
100
AcDbRegAppTableRecord
  2
ACAD
 70
     0
  0
ENDTAB
  0
TABLE
  2
DIMSTYLE
  5
A
330
0
100
AcDbSymbolTable
 70
     1
  0
DIMSTYLE
105
27
330
A
100
AcDbSymbolTableRecord
100
AcDbDimStyleTableRecord
  2
ISO-25
 70
     0
  3

  4

  5

  6

  7

 40
1.0
 41
2.5
 42
0.625
 43
3.75
 44
1.25
 45
0.0
 46
0.0
 47
0.0
 48
0.0
140
2.5
141
2.5
142
0.0
143
0.03937007874016
144
1.0
145
0.0
146
1.0
147
0.625
 71
     0
 72
     0
 73
     0
 74
     0
 75
     0
 76
     0
 77
     1
 78
     8
170
     0
171
     3
172
     1
173
     0
174
     0
175
     0
176
     0
177
     0
178
     0
270
     2
271
     2
272
     2
273
     2
274
     3
340
11
275
     0
280
     0
281
     0
282
     0
283
     0
284
     8
285
     0
286
     0
287
     3
288
     0
  0
ENDTAB
  0
TABLE
  2
BLOCK_RECORD
  5
1
330
0
100
AcDbSymbolTable
 70
     1
  0
BLOCK_RECORD
  5
1F
330
1
100
AcDbSymbolTableRecord
100
AcDbBlockTableRecord
  2
*MODEL_SPACE
  0
BLOCK_RECORD
  5
1B
330
1
100
AcDbSymbolTableRecord
100
AcDbBlockTableRecord
  2
*PAPER_SPACE
  0
ENDTAB
  0
ENDSEC
  0
SECTION
  2
BLOCKS
  0
BLOCK
  5
20
330
1F
100
AcDbEntity
  8
0
100
AcDbBlockBegin
  2
*MODEL_SPACE
 70
     0
 10
0.0
 20
0.0
 30
0.0
  3
*MODEL_SPACE
  1

  0
ENDBLK
  5
21
330
1F
100
AcDbEntity
  8
0
100
AcDbBlockEnd
  0
BLOCK
  5
1C
330
1B
100
AcDbEntity
 67
     1
  8
0
100
AcDbBlockBegin
  2
*PAPER_SPACE
  1

  0
ENDBLK
  5
1D
330
1B
100
AcDbEntity
 67
     1
  8
0
100
AcDbBlockEnd
  0
ENDSEC
  0
SECTION
  2
ENTITIES
  0
LWPOLYLINE
  5
100
100
AcDbEntity
  8
0
 62
7
100
AcDbPolyline
 90
600
 70
1
 10
9.457172
 20
0.277172
 30
0.0
 10
9.123926
 20
0.553119
 30
0.0
 10
8.870137
 20
0.909500
 30
0.0
 10
8.695353
 20
1.350883
 30
0.0
 10
8.599121
 20
1.881844
 30
0.0
 10
8.580989
 20
2.506951
 30
0.0
 10
8.640505
 20
3.230777
 30
0.0
 10
8.777218
 20
4.057893
 30
0.0
 10
8.990674
 20
4.992870
 30
0.0
 10
9.475802
 20
6.655895
 30
0.0
 10
10.233363
 20
8.957802
 30
0.0
 10
11.191132
 20
11.702838
 30
0.0
 10
12.276882
 20
14.695249
 30
0.0
 10
13.418388
 20
17.739286
 30
0.0
 10
14.543423
 20
20.639193
 30
0.0
 10
15.579762
 20
23.199222
 30
0.0
 10
16.455178
 20
25.223621
 30
0.0
 10
16.627086
 20
25.618686
 30
0.0
 10
16.870035
 20
26.202992
 30
0.0
 10
17.172805
 20
26.948320
 30
0.0
 10
17.524171
 20
27.826459
 30
0.0
 10
17.912912
 20
28.809191
 30
0.0
 10
18.327804
 20
29.868299
 30
0.0
 10
18.757626
 20
30.975570
 30
0.0
 10
19.191155
 20
32.102787
 30
0.0
 10
19.662752
 20
33.327210
 30
0.0
 10
20.201660
 20
34.713069
 30
0.0
 10
20.789009
 20
36.212616
 30
0.0
 10
21.405929
 20
37.778100
 30
0.0
 10
22.033550
 20
39.361777
 30
0.0
 10
22.653002
 20
40.915894
 30
0.0
 10
23.245413
 20
42.392703
 30
0.0
 10
23.791915
 20
43.744454
 30
0.0
 10
24.311035
 20
45.024204
 30
0.0
 10
24.824985
 20
46.294654
 30
0.0
 10
25.320396
 20
47.522519
 30
0.0
 10
25.783900
 20
48.674525
 30
0.0
 10
26.202127
 20
49.717391
 30
0.0
 10
26.561706
 20
50.617834
 30
0.0
 10
26.849271
 20
51.342578
 30
0.0
 10
27.051449
 20
51.858344
 30
0.0
 10
27.944426
 20
53.777695
 30
0.0
 10
29.241366
 20
56.106126
 30
0.0
 10
30.829202
 20
58.758632
 30
0.0
 10
32.594870
 20
61.650200
 30
0.0
 10
34.425302
 20
64.695827
 30
0.0
 10
36.207432
 20
67.810499
 30
0.0
 10
37.828196
 20
70.909212
 30
0.0
 10
39.174525
 20
73.906957
 30
0.0
 10
39.418535
 20
74.543309
 30
0.0
 10
39.643192
 20
75.187699
 30
0.0
 10
39.848379
 20
75.839201
 30
0.0
 10
40.033979
 20
76.496900
 30
0.0
 10
40.199876
 20
77.159874
 30
0.0
 10
40.345952
 20
77.827201
 30
0.0
 10
40.472087
 20
78.497962
 30
0.0
 10
40.578166
 20
79.171234
 30
0.0
 10
40.841374
 20
80.704052
 30
0.0
 10
41.161644
 20
82.278400
 30
0.0
 10
41.477694
 20
83.871573
 30
0.0
 10
41.728241
 20
85.460882
 30
0.0
 10
41.851998
 20
87.023633
 30
0.0
 10
41.787677
 20
88.537124
 30
0.0
 10
41.473995
 20
89.978664
 30
0.0
 10
40.849671
 20
91.325557
 30
0.0
 10
39.729100
 20
92.760665
 30
0.0
 10
38.459200
 20
93.753879
 30
0.0
 10
37.015930
 20
94.442822
 30
0.0
 10
35.375238
 20
94.965118
 30
0.0
 10
33.513082
 20
95.458394
 30
0.0
 10
31.405409
 20
96.060271
 30
0.0
 10
29.028173
 20
96.908377
 30
0.0
 10
26.357329
 20
98.140335
 30
0.0
 10
22.348987
 20
100.792685
 30
0.0
 10
19.691156
 20
103.620946
 30
0.0
 10
17.800083
 20
106.544031
 30
0.0
 10
16.092017
 20
109.480861
 30
0.0
 10
13.983206
 20
112.350352
 30
0.0
 10
10.889896
 20
115.071422
 30
0.0
 10
6.228336
 20
117.562990
 30
0.0
 10
-0.585227
 20
119.743969
 30
0.0
 10
-2.643410
 20
120.253591
 30
0.0
 10
-4.856267
 20
120.843524
 30
0.0
 10
-7.139776
 20
121.553790
 30
0.0
 10
-9.409915
 20
122.424404
 30
0.0
 10
-11.582664
 20
123.495385
 30
0.0
 10
-13.574001
 20
124.806747
 30
0.0
 10
-15.299905
 20
126.398509
 30
0.0
 10
-16.676355
 20
128.310693
 30
0.0
 10
-17.637283
 20
130.583951
 30
0.0
 10
-18.250759
 20
133.243593
 30
0.0
 10
-18.530080
 20
136.121989
 30
0.0
 10
-18.488541
 20
139.051514
 30
0.0
 10
-18.139439
 20
141.864540
 30
0.0
 10
-17.496070
 20
144.393441
 30
0.0
 10
-16.571729
 20
146.470589
 30
0.0
 10
-15.379713
 20
147.928359
 30
0.0
 10
-13.843581
 20
149.079820
 30
0.0
 10
-12.060395
 20
150.101710
 30
0.0
 10
-9.938701
 20
150.923591
 30
0.0
 10
-7.387040
 20
151.475029
 30
0.0
 10
-4.313958
 20
151.685589
 30
0.0
 10
-0.627998
 20
151.484835
 30
0.0
 10
3.762296
 20
150.802332
 30
0.0
 10
8.948380
 20
149.567645
 30
0.0
 10
15.497024
 20
147.288282
 30
0.0
 10
20.006096
 20
144.756462
 30
0.0
 10
23.062482
 20
142.066563
 30
0.0
 10
25.253072
 20
139.312965
 30
0.0
 10
27.164752
 20
136.590043
 30
0.0
 10
29.384410
 20
133.992175
 30
0.0
 10
32.498937
 20
131.613738
 30
0.0
 10
37.095220
 20
129.549112
 30
0.0
 10
39.606071
 20
128.749245
 30
0.0
 10
42.019513
 20
128.099397
 30
0.0
 10
44.359610
 20
127.612058
 30
0.0
 10
46.650417
 20
127.299733
 30
0.0
 10
48.916002
 20
127.174919
 30
0.0
 10
51.180417
 20
127.250113
 30
0.0
 10
53.467727
 20
127.537813
 30
0.0
 10
55.801992
 20
128.050520
 30
0.0
 10
57.609163
 20
128.936186
 30
0.0
 10
58.786162
 20
129.773773
 30
0.0
 10
59.460460
 20
130.555839
 30
0.0
 10
59.759529
 20
131.274950
 30
0.0
 10
59.810843
 20
131.923671
 30
0.0
 10
59.741871
 20
132.494568
 30
0.0
 10
59.680086
 20
132.980205
 30
0.0
 10
59.752962
 20
133.373143
 30
0.0
 10
59.779590
 20
133.686793
 30
0.0
 10
59.783268
 20
134.273023
 30
0.0
 10
59.771705
 20
135.044707
 30
0.0
 10
59.752655
 20
135.914712
 30
0.0
 10
59.733817
 20
136.795915
 30
0.0
 10
59.722916
 20
137.601179
 30
0.0
 10
59.727705
 20
138.243384
 30
0.0
 10
59.755891
 20
138.635396
 30
0.0
 10
59.798743
 20
138.879879
 30
0.0
 10
59.842455
 20
139.137898
 30
0.0
 10
59.887159
 20
139.409921
 30
0.0
 10
59.932985
 20
139.696415
 30
0.0
 10
59.980057
 20
139.997847
 30
0.0
 10
60.028510
 20
140.314688
 30
0.0
 10
60.078469
 20
140.647401
 30
0.0
 10
60.130065
 20
140.996461
 30
0.0
 10
60.190300
 20
141.397882
 30
0.0
 10
60.252543
 20
141.794878
 30
0.0
 10
60.316826
 20
142.187517
 30
0.0
 10
60.383184
 20
142.575876
 30
0.0
 10
60.451656
 20
142.960025
 30
0.0
 10
60.522273
 20
143.340037
 30
0.0
 10
60.595068
 20
143.715986
 30
0.0
 10
60.670080
 20
144.087944
 30
0.0
 10
60.747338
 20
144.455983
 30
0.0
 10
60.826872
 20
144.820178
 30
0.0
 10
60.908718
 20
145.180601
 30
0.0
 10
60.992914
 20
145.537324
 30
0.0
 10
61.079491
 20
145.890421
 30
0.0
 10
61.168486
 20
146.239964
 30
0.0
 10
61.259934
 20
146.586025
 30
0.0
 10
61.353869
 20
146.928678
 30
0.0
 10
61.450328
 20
147.267997
 30
0.0
 10
61.549346
 20
147.604052
 30
0.0
 10
61.650956
 20
147.936915
 30
0.0
 10
61.755189
 20
148.266661
 30
0.0
 10
61.862083
 20
148.593362
 30
0.0
 10
61.971671
 20
148.917090
 30
0.0
 10
62.083981
 20
149.237919
 30
0.0
 10
62.199054
 20
149.555921
 30
0.0
 10
62.316920
 20
149.871171
 30
0.0
 10
62.437618
 20
150.183740
 30
0.0
 10
62.561178
 20
150.493701
 30
0.0
 10
62.687636
 20
150.801127
 30
0.0
 10
62.817031
 20
151.106090
 30
0.0
 10
62.949388
 20
151.408663
 30
0.0
 10
63.084752
 20
151.708919
 30
0.0
 10
63.223150
 20
152.006931
 30
0.0
 10
63.205449
 20
152.302772
 30
0.0
 10
62.930407
 20
152.596513
 30
0.0
 10
62.484873
 20
152.888229
 30
0.0
 10
61.955690
 20
153.177991
 30
0.0
 10
61.429720
 20
153.465873
 30
0.0
 10
60.993803
 20
153.751948
 30
0.0
 10
60.734799
 20
154.036288
 30
0.0
 10
60.739562
 20
154.318966
 30
0.0
 10
60.906826
 20
154.600055
 30
0.0
 10
61.077467
 20
154.879628
 30
0.0
 10
61.251523
 20
155.157756
 30
0.0
 10
61.429024
 20
155.434513
 30
0.0
 10
61.610007
 20
155.709973
 30
0.0
 10
61.794503
 20
155.984207
 30
0.0
 10
61.982553
 20
156.257288
 30
0.0
 10
62.174186
 20
156.529290
 30
0.0
 10
62.369438
 20
156.800284
 30
0.0
 10
62.568343
 20
157.070345
 30
0.0
 10
62.770935
 20
157.339543
 30
0.0
 10
62.977249
 20
157.607953
 30
0.0
 10
63.187318
 20
157.875647
 30
0.0
 10
63.401178
 20
158.142697
 30
0.0
 10
63.618858
 20
158.409177
 30
0.0
 10
63.840399
 20
158.675159
 30
0.0
 10
64.065837
 20
158.940720
 30
0.0
 10
64.295202
 20
159.205928
 30
0.0
 10
64.528533
 20
159.470854
 30
0.0
 10
64.765856
 20
159.735573
 30
0.0
 10
65.007212
 20
160.000157
 30
0.0
 10
65.252631
 20
160.264680
 30
0.0
 10
65.502149
 20
160.529216
 30
0.0
 10
65.755797
 20
160.793836
 30
0.0
 10
66.112056
 20
161.160026
 30
0.0
 10
66.460872
 20
161.513301
 30
0.0
 10
66.802746
 20
161.854006
 30
0.0
 10
67.138171
 20
162.182481
 30
0.0
 10
67.467649
 20
162.499069
 30
0.0
 10
67.791668
 20
162.804111
 30
0.0
 10
68.110734
 20
163.097950
 30
0.0
 10
68.425337
 20
163.380927
 30
0.0
 10
68.735971
 20
163.653381
 30
0.0
 10
69.043134
 20
163.915659
 30
0.0
 10
69.347326
 20
164.168103
 30
0.0
 10
69.649040
 20
164.411055
 30
0.0
 10
69.948774
 20
164.644855
 30
0.0
 10
70.247025
 20
164.869845
 30
0.0
 10
70.544290
 20
165.086367
 30
0.0
 10
70.841062
 20
165.294761
 30
0.0
 10
71.137835
 20
165.495368
 30
0.0
 10
71.435105
 20
165.688535
 30
0.0
 10
71.733375
 20
165.874603
 30
0.0
 10
72.033137
 20
166.053913
 30
0.0
 10
72.334889
 20
166.226808
 30
0.0
 10
72.639126
 20
166.393629
 30
0.0
 10
72.946349
 20
166.554717
 30
0.0
 10
73.257052
 20
166.710415
 30
0.0
 10
73.571721
 20
166.861059
 30
0.0
 10
73.890862
 20
167.006999
 30
0.0
 10
74.214966
 20
167.148575
 30
0.0
 10
74.544533
 20
167.286130
 30
0.0
 10
74.880059
 20
167.420004
 30
0.0
 10
75.222041
 20
167.550539
 30
0.0
 10
75.570976
 20
167.678076
 30
0.0
 10
75.927360
 20
167.802958
 30
0.0
 10
76.412727
 20
167.967668
 30
0.0
 10
76.857949
 20
168.113351
 30
0.0
 10
77.272734
 20
168.241166
 30
0.0
 10
77.666791
 20
168.352272
 30
0.0
 10
78.049826
 20
168.447829
 30
0.0
 10
78.431548
 20
168.528996
 30
0.0
 10
78.821668
 20
168.596932
 30
0.0
 10
79.229889
 20
168.652795
 30
0.0
 10
79.443812
 20
168.676561
 30
0.0
 10
79.665906
 20
168.697743
 30
0.0
 10
79.897377
 20
168.716487
 30
0.0
 10
80.139444
 20
168.732937
 30
0.0
 10
80.393315
 20
168.747239
 30
0.0
 10
80.660205
 20
168.759537
 30
0.0
 10
80.941328
 20
168.769977
 30
0.0
 10
81.237891
 20
168.778702
 30
0.0
 10
81.551126
 20
168.785858
 30
0.0
 10
81.882233
 20
168.791590
 30
0.0
 10
82.232425
 20
168.796042
 30
0.0
 10
82.602919
 20
168.799359
 30
0.0
 10
82.994928
 20
168.801687
 30
0.0
 10
83.409662
 20
168.803170
 30
0.0
 10
83.848339
 20
168.803954
 30
0.0
 10
84.312178
 20
168.804183
 30
0.0
 10
84.857950
 20
168.803400
 30
0.0
 10
85.377271
 20
168.800849
 30
0.0
 10
85.871616
 20
168.796223
 30
0.0
 10
86.342455
 20
168.789219
 30
0.0
 10
86.791255
 20
168.779530
 30
0.0
 10
87.219486
 20
168.766851
 30
0.0
 10
87.628622
 20
168.750877
 30
0.0
 10
88.020128
 20
168.731303
 30
0.0
 10
88.395477
 20
168.707823
 30
0.0
 10
88.756141
 20
168.680132
 30
0.0
 10
89.103586
 20
168.647923
 30
0.0
 10
89.439290
 20
168.610893
 30
0.0
 10
89.764722
 20
168.568735
 30
0.0
 10
90.081349
 20
168.521144
 30
0.0
 10
90.390647
 20
168.467815
 30
0.0
 10
90.694087
 20
168.408443
 30
0.0
 10
90.993137
 20
168.342721
 30
0.0
 10
91.289267
 20
168.270345
 30
0.0
 10
91.583947
 20
168.191010
 30
0.0
 10
91.878650
 20
168.104409
 30
0.0
 10
92.174843
 20
168.010238
 30
0.0
 10
92.474000
 20
167.908191
 30
0.0
 10
92.777590
 20
167.797964
 30
0.0
 10
93.087084
 20
167.679251
 30
0.0
 10
93.403944
 20
167.551748
 30
0.0
 10
93.729654
 20
167.415147
 30
0.0
 10
94.065677
 20
167.269143
 30
0.0
 10
94.413491
 20
167.113429
 30
0.0
 10
94.774565
 20
166.947703
 30
0.0
 10
95.150368
 20
166.771657
 30
0.0
 10
95.542370
 20
166.584988
 30
0.0
 10
95.952045
 20
166.387391
 30
0.0
 10
96.273670
 20
166.225580
 30
0.0
 10
96.593165
 20
166.052580
 30
0.0
 10
96.912888
 20
165.866499
 30
0.0
 10
97.235193
 20
165.665444
 30
0.0
 10
97.562429
 20
165.447522
 30
0.0
 10
97.896958
 20
165.210841
 30
0.0
 10
98.241128
 20
164.953507
 30
0.0
 10
98.597297
 20
164.673629
 30
0.0
 10
98.967817
 20
164.369313
 30
0.0
 10
99.355045
 20
164.038666
 30
0.0
 10
99.761331
 20
163.679795
 30
0.0
 10
100.189033
 20
163.290808
 30
0.0
 10
100.640504
 20
162.869813
 30
0.0
 10
101.118098
 20
162.414916
 30
0.0
 10
101.624172
 20
161.924224
 30
0.0
 10
102.161075
 20
161.395847
 30
0.0
 10
102.447283
 20
161.110415
 30
0.0
 10
102.728231
 20
160.826273
 30
0.0
 10
103.003972
 20
160.543305
 30
0.0
 10
103.274561
 20
160.261399
 30
0.0
 10
103.540057
 20
159.980441
 30
0.0
 10
103.800513
 20
159.700318
 30
0.0
 10
104.055987
 20
159.420915
 30
0.0
 10
104.306529
 20
159.142120
 30
0.0
 10
104.552205
 20
158.863816
 30
0.0
 10
104.793071
 20
158.585894
 30
0.0
 10
105.029180
 20
158.308241
 30
0.0
 10
105.260587
 20
158.030742
 30
0.0
 10
105.487348
 20
157.753284
 30
0.0
 10
105.709519
 20
157.475753
 30
0.0
 10
105.927152
 20
157.198034
 30
0.0
 10
106.140303
 20
156.920015
 30
0.0
 10
106.349030
 20
156.641580
 30
0.0
 10
106.553386
 20
156.362617
 30
0.0
 10
106.753432
 20
156.083013
 30
0.0
 10
106.949221
 20
155.802654
 30
0.0
 10
107.140809
 20
155.521428
 30
0.0
 10
107.328256
 20
155.239219
 30
0.0
 10
107.511617
 20
154.955915
 30
0.0
 10
107.690946
 20
154.671403
 30
0.0
 10
107.866296
 20
154.385571
 30
0.0
 10
108.037725
 20
154.098302
 30
0.0
 10
108.205283
 20
153.809483
 30
0.0
 10
108.369034
 20
153.518999
 30
0.0
 10
108.529030
 20
153.226739
 30
0.0
 10
108.685330
 20
152.932588
 30
0.0
 10
108.837987
 20
152.636434
 30
0.0
 10
108.987061
 20
152.338164
 30
0.0
 10
109.132605
 20
152.037664
 30
0.0
 10
109.274676
 20
151.734820
 30
0.0
 10
109.413331
 20
151.429519
 30
0.0
 10
109.548623
 20
151.121646
 30
0.0
 10
109.680610
 20
150.811089
 30
0.0
 10
109.809346
 20
150.497734
 30
0.0
 10
109.934894
 20
150.181467
 30
0.0
 10
110.057300
 20
149.862175
 30
0.0
 10
110.176622
 20
149.539746
 30
0.0
 10
110.292915
 20
149.214065
 30
0.0
 10
110.406233
 20
148.885016
 30
0.0
 10
110.516633
 20
148.552488
 30
0.0
 10
110.624170
 20
148.216366
 30
0.0
 10
110.728906
 20
147.876538
 30
0.0
 10
110.830892
 20
147.532890
 30
0.0
 10
110.930187
 20
147.185309
 30
0.0
 10
111.026848
 20
146.833679
 30
0.0
 10
111.120931
 20
146.477890
 30
0.0
 10
111.212490
 20
146.117829
 30
0.0
 10
111.301580
 20
145.753380
 30
0.0
 10
111.388258
 20
145.384432
 30
0.0
 10
111.472580
 20
145.010869
 30
0.0
 10
111.554601
 20
144.632577
 30
0.0
 10
111.634376
 20
144.249444
 30
0.0
 10
111.711962
 20
143.861354
 30
0.0
 10
111.787416
 20
143.468196
 30
0.0
 10
111.860793
 20
143.069856
 30
0.0
 10
111.932149
 20
142.666222
 30
0.0
 10
112.001538
 20
142.257179
 30
0.0
 10
112.069017
 20
141.842612
 30
0.0
 10
112.134642
 20
141.422411
 30
0.0
 10
112.198468
 20
140.996458
 30
0.0
 10
112.300832
 20
140.432287
 30
0.0
 10
112.460916
 20
139.738203
 30
0.0
 10
112.673104
 20
138.947565
 30
0.0
 10
112.931784
 20
138.093738
 30
0.0
 10
113.231345
 20
137.210091
 30
0.0
 10
113.566173
 20
136.329981
 30
0.0
 10
113.930658
 20
135.486772
 30
0.0
 10
114.319182
 20
134.713834
 30
0.0
 10
115.121965
 20
133.600867
 30
0.0
 10
115.962155
 20
132.525373
 30
0.0
 10
116.844159
 20
131.497477
 30
0.0
 10
117.772378
 20
130.527303
 30
0.0
 10
118.751215
 20
129.624979
 30
0.0
 10
119.785074
 20
128.800625
 30
0.0
 10
120.878359
 20
128.064371
 30
0.0
 10
122.035469
 20
127.426339
 30
0.0
 10
124.766570
 20
126.380552
 30
0.0
 10
127.503383
 20
125.828748
 30
0.0
 10
130.283855
 20
125.604942
 30
0.0
 10
133.145940
 20
125.543146
 30
0.0
 10
136.127583
 20
125.477371
 30
0.0
 10
139.266732
 20
125.241632
 30
0.0
 10
142.601336
 20
124.669944
 30
0.0
 10
146.169343
 20
123.596315
 30
0.0
 10
152.368795
 20
120.788909
 30
0.0
 10
156.572141
 20
117.916248
 30
0.0
 10
159.327006
 20
115.039542
 30
0.0
 10
161.181005
 20
112.220005
 30
0.0
 10
162.681761
 20
109.518842
 30
0.0
 10
164.376891
 20
106.997265
 30
0.0
 10
166.814018
 20
104.716482
 30
0.0
 10
170.540762
 20
102.737706
 30
0.0
 10
172.583800
 20
101.990880
 30
0.0
 10
175.055482
 20
101.127340
 30
0.0
 10
177.770171
 20
100.108896
 30
0.0
 10
180.542218
 20
98.897353
 30
0.0
 10
183.185991
 20
97.454524
 30
0.0
 10
185.515843
 20
95.742218
 30
0.0
 10
187.346132
 20
93.722240
 30
0.0
 10
188.491220
 20
91.356402
 30
0.0
 10
189.065466
 20
88.442001
 30
0.0
 10
189.206068
 20
85.210356
 30
0.0
 10
188.877459
 20
81.875262
 30
0.0
 10
188.044074
 20
78.650510
 30
0.0
 10
186.670349
 20
75.749891
 30
0.0
 10
184.720719
 20
73.387193
 30
0.0
 10
182.159622
 20
71.776212
 30
0.0
 10
178.951493
 20
71.130734
 30
0.0
 10
176.432467
 20
71.135047
 30
0.0
 10
173.764101
 20
71.285592
 30
0.0
 10
170.999478
 20
71.600920
 30
0.0
 10
168.191675
 20
72.099577
 30
0.0
 10
165.393770
 20
72.800107
 30
0.0
 10
162.658840
 20
73.721053
 30
0.0
 10
160.039971
 20
74.880959
 30
0.0
 10
157.590233
 20
76.298369
 30
0.0
 10
154.103858
 20
79.052962
 30
0.0
 10
151.737639
 20
81.730339
 30
0.0
 10
150.042811
 20
84.275189
 30
0.0
 10
148.570617
 20
86.632201
 30
0.0
 10
146.872288
 20
88.746065
 30
0.0
 10
144.499065
 20
90.561475
 30
0.0
 10
141.002189
 20
92.023120
 30
0.0
 10
135.932892
 20
93.075689
 30
0.0
 10
133.479670
 20
93.306254
 30
0.0
 10
131.529537
 20
93.263061
 30
0.0
 10
129.998168
 20
92.976388
 30
0.0
 10
128.801246
 20
92.476518
 30
0.0
 10
127.854453
 20
91.793732
 30
0.0
 10
127.073464
 20
90.958318
 30
0.0
 10
126.373961
 20
90.000553
 30
0.0
 10
125.671625
 20
88.950721
 30
0.0
 10
124.937726
 20
87.292939
 30
0.0
 10
124.793177
 20
85.515246
 30
0.0
 10
125.113756
 20
83.648934
 30
0.0
 10
125.775246
 20
81.725294
 30
0.0
 10
126.653428
 20
79.775624
 30
0.0
 10
127.624086
 20
77.831217
 30
0.0
 10
128.563002
 20
75.923365
 30
0.0
 10
129.345955
 20
74.083360
 30
0.0
 10
130.574156
 20
71.093862
 30
0.0
 10
132.040043
 20
68.009849
 30
0.0
 10
133.648757
 20
64.908771
 30
0.0
 10
135.305435
 20
61.868087
 30
0.0
 10
136.915221
 20
58.965251
 30
0.0
 10
138.383251
 20
56.277714
 30
0.0
 10
139.614664
 20
53.882930
 30
0.0
 10
140.514599
 20
51.858360
 30
0.0
 10
140.716677
 20
51.342594
 30
0.0
 10
141.003951
 20
50.617850
 30
0.0
 10
141.363076
 20
49.717407
 30
0.0
 10
141.780699
 20
48.674541
 30
0.0
 10
142.243474
 20
47.522535
 30
0.0
 10
142.738052
 20
46.294670
 30
0.0
 10
143.251079
 20
45.024220
 30
0.0
 10
143.769212
 20
43.744470
 30
0.0
 10
144.315148
 20
42.392719
 30
0.0
 10
144.907863
 20
40.915910
 30
0.0
 10
145.528419
 20
39.361793
 30
0.0
 10
146.157881
 20
37.778116
 30
0.0
 10
146.777308
 20
36.212632
 30
0.0
 10
147.367768
 20
34.713085
 30
0.0
 10
147.910322
 20
33.327226
 30
0.0
 10
148.386033
 20
32.102803
 30
0.0
 10
148.827075
 20
30.968384
 30
0.0
 10
149.270252
 20
29.840478
 30
0.0
 10
149.703594
 20
28.748744
 30
0.0
 10
150.115135
 20
27.722846
 30
0.0
 10
150.492905
 20
26.792447
 30
0.0
 10
150.824935
 20
25.987208
 30
0.0
 10
151.099261
 20
25.336791
 30
0.0
 10
151.303911
 20
24.870860
 30
0.0
 10
152.067025
 20
23.082586
 30
0.0
 10
153.037611
 20
20.640701
 30
0.0
 10
154.133518
 20
17.770049
 30
0.0
 10
155.272587
 20
14.695480
 30
0.0
 10
156.372666
 20
11.641831
 30
0.0
 10
157.351600
 20
8.833951
 30
0.0
 10
158.127237
 20
6.496685
 30
0.0
 10
158.617417
 20
4.854874
 30
0.0
 10
158.772561
 20
3.964263
 30
0.0
 10
158.770444
 20
3.144819
 30
0.0
 10
158.637848
 20
2.401496
 30
0.0
 10
158.401620
 20
1.739246
 30
0.0
 10
158.088589
 20
1.163024
 30
0.0
 10
157.725581
 20
0.677775
 30
0.0
 10
157.339422
 20
0.288457
 30
0.0
 10
156.956937
 20
0.000019
 30
0.0
 10
156.471228
 20
-0.041688
 30
0.0
 10
155.193921
 20
-0.060526
 30
0.0
 10
153.135547
 20
-0.061849
 30
0.0
 10
150.306635
 20
-0.051080
 30
0.0
 10
146.717721
 20
-0.033592
 30
0.0
 10
142.379330
 20
-0.014753
 30
0.0
 10
137.301994
 20
0.000037
 30
0.0
 10
131.496245
 20
0.005408
 30
0.0
 10
121.717356
 20
-0.025749
 30
0.0
 10
114.381963
 20
-0.098436
 30
0.0
 10
109.127769
 20
-0.187529
 30
0.0
 10
105.592478
 20
-0.267912
 30
0.0
 10
103.413793
 20
-0.314468
 30
0.0
 10
102.229423
 20
-0.302085
 30
0.0
 10
101.677068
 20
-0.205632
 30
0.0
 10
101.394437
 20
0.000003
 30
0.0
 10
101.034310
 20
0.651748
 30
0.0
 10
100.576928
 20
1.909530
 30
0.0
 10
100.034767
 20
3.649168
 30
0.0
 10
99.420307
 20
5.746477
 30
0.0
 10
98.746022
 20
8.077277
 30
0.0
 10
98.024386
 20
10.517389
 30
0.0
 10
97.267884
 20
12.942628
 30
0.0
 10
96.488986
 20
15.228813
 30
0.0
 10
95.741236
 20
17.418016
 30
0.0
 10
95.046326
 20
19.624768
 30
0.0
 10
94.368948
 20
21.833591
 30
0.0
 10
93.673795
 20
24.029014
 30
0.0
 10
92.925561
 20
26.195552
 30
0.0
 10
92.088946
 20
28.317730
 30
0.0
 10
91.128638
 20
30.380070
 30
0.0
 10
90.009334
 20
32.367093
 30
0.0
 10
89.554876
 20
33.136329
 30
0.0
 10
89.088862
 20
33.957863
 30
0.0
 10
88.598327
 20
34.785046
 30
0.0
 10
88.070304
 20
35.571221
 30
0.0
 10
87.491827
 20
36.269734
 30
0.0
 10
86.849929
 20
36.833929
 30
0.0
 10
86.131643
 20
37.217157
 30
0.0
 10
85.324005
 20
37.372758
 30
0.0
 10
84.394035
 20
37.252106
 30
0.0
 10
83.549744
 20
36.866282
 30
0.0
 10
82.779701
 20
36.269231
 30
0.0
 10
82.072475
 20
35.514899
 30
0.0
 10
81.416641
 20
34.657226
 30
0.0
 10
80.800768
 20
33.750157
 30
0.0
 10
80.213428
 20
32.847637
 30
0.0
 10
79.643190
 20
32.003608
 30
0.0
 10
78.334489
 20
29.941380
 30
0.0
 10
77.083555
 20
27.593470
 30
0.0
 10
75.914393
 20
25.097772
 30
0.0
 10
74.851014
 20
22.592183
 30
0.0
 10
73.917418
 20
20.214601
 30
0.0
 10
73.137615
 20
18.102913
 30
0.0
 10
72.535611
 20
16.395020
 30
0.0
 10
72.135413
 20
15.228813
 30
0.0
 10
71.661472
 20
13.708758
 30
0.0
 10
71.101053
 20
11.724418
 30
0.0
 10
70.486886
 20
9.467318
 30
0.0
 10
69.851712
 20
7.128981
 30
0.0
 10
69.228266
 20
4.900933
 30
0.0
 10
68.649284
 20
2.974697
 30
0.0
 10
68.147504
 20
1.541796
 30
0.0
 10
67.755659
 20
0.793758
 30
0.0
 10
67.661028
 20
0.694539
 30
0.0
 10
67.566394
 20
0.595320
 30
0.0
 10
67.471764
 20
0.496102
 30
0.0
 10
67.377133
 20
0.396883
 30
0.0
 10
67.282502
 20
0.297664
 30
0.0
 10
67.187868
 20
0.198445
 30
0.0
 10
67.093237
 20
0.099227
 30
0.0
 10
66.998607
 20
0.000008
 30
0.0
 10
63.263084
 20
0.000802
 30
0.0
 10
59.527559
 20
0.001595
 30
0.0
 10
55.792037
 20
0.002389
 30
0.0
 10
52.056514
 20
0.003183
 30
0.0
 10
48.320992
 20
0.003977
 30
0.0
 10
44.585467
 20
0.004770
 30
0.0
 10
40.849944
 20
0.005564
 30
0.0
 10
37.114422
 20
0.006358
 30
0.0
 10
31.244651
 20
0.000934
 30
0.0
 10
25.993820
 20
-0.013883
 30
0.0
 10
21.408834
 20
-0.032721
 30
0.0
 10
17.536596
 20
-0.050210
 30
0.0
 10
14.424009
 20
-0.060952
 30
0.0
 10
12.117976
 20
-0.059629
 30
0.0
 10
10.665401
 20
-0.040791
 30
0.0
 10
10.113187
 20
0.000918
 30
0.0
 10
10.031188
 20
0.035565
 30
0.0
 10
9.949189
 20
0.070212
 30
0.0
 10
9.867189
 20
0.104862
 30
0.0
 10
9.785190
 20
0.139509
 30
0.0
 10
9.703191
 20
0.174157
 30
0.0
 10
9.621192
 20
0.208807
 30
0.0
 10
9.539193
 20
0.243454
 30
0.0
  0
ENDSEC
  0
SECTION
  2
OBJECTS
  0
DICTIONARY
  5
C
330
0
100
AcDbDictionary
  3
ACAD_GROUP
350
D
  3
ACAD_MLINESTYLE
350
17
  0
DICTIONARY
  5
D
330
C
100
AcDbDictionary
  0
DICTIONARY
  5
1A
330
C
100
AcDbDictionary
  0
DICTIONARY
  5
17
330
C
100
AcDbDictionary
  3
STANDARD
350
18
  0
DICTIONARY
  5
19
330
C
100
AcDbDictionary
  0
ENDSEC
  0
EOF
