<?xml version="1.0" encoding="UTF-8" standalone="no"?>
<!-- Created with Inkscape (http://www.inkscape.org/) -->

<svg
   xmlns:dc="http://purl.org/dc/elements/1.1/"
   xmlns:cc="http://creativecommons.org/ns#"
   xmlns:rdf="http://www.w3.org/1999/02/22-rdf-syntax-ns#"
   xmlns:svg="http://www.w3.org/2000/svg"
   xmlns="http://www.w3.org/2000/svg"
   xmlns:sodipodi="http://sodipodi.sourceforge.net/DTD/sodipodi-0.dtd"
   xmlns:inkscape="http://www.inkscape.org/namespaces/inkscape"
   version="1.1"
   id="svg80"
   width="638.87347"
   height="818.76453"
   viewBox="0 0 638.87347 818.76453"
   sodipodi:docname="meeple_maleficent.svg"
   inkscape:version="0.92.4 5da689c313, 2019-01-14">
  <metadata
     id="metadata86">
    <rdf:RDF>
      <cc:Work
         rdf:about="">
        <dc:format>image/svg+xml</dc:format>
        <dc:type
           rdf:resource="http://purl.org/dc/dcmitype/StillImage" />
        <dc:title />
      </cc:Work>
    </rdf:RDF>
  </metadata>
  <defs
     id="defs84" />
  <sodipodi:namedview
     pagecolor="#ffffff"
     bordercolor="#666666"
     borderopacity="1"
     objecttolerance="10"
     gridtolerance="10"
     guidetolerance="10"
     inkscape:pageopacity="0"
     inkscape:pageshadow="2"
     inkscape:window-width="1920"
     inkscape:window-height="1012"
     id="namedview82"
     showgrid="false"
     inkscape:zoom="0.81621112"
     inkscape:cx="290.25734"
     inkscape:cy="388.59332"
     inkscape:window-x="1280"
     inkscape:window-y="0"
     inkscape:window-maximized="1"
     inkscape:current-layer="svg80"
     showguides="true">
    <inkscape:grid
       type="xygrid"
       id="grid60"
       originx="663.02269"
       originy="-57.806738" />
  </sodipodi:namedview>
  <path
     style="fill:#000000;stroke-width:1.33333337"
     d="M 58.283668,726.64055 C 99.602568,635.59986 84.244787,673.61238 123.03296,591.14553 131.67562,561.5485 74.660602,520.96798 27.033094,489.17358 8.7320833,471.78025 -0.75019437,459.86849 0.04638457,438.11406 0.14143207,414.28329 6.1183568,406.91241 36.223134,385.71381 c 31.136683,-17.47972 65.339986,-29.02682 99.062586,-40.76647 17.7672,-5.92165 55.955,-9.21427 72.19398,-22.92273 4.04128,-4.5967 3.74533,-12.38227 4.15797,-17.54079 -0.30827,-14.77101 2.20095,-29.43587 6.0507,-43.23352 7.33191,-21.69495 16.47127,-37.70541 30.6372,-52.40375 13.89966,-15.09511 30.91679,-26.43778 50.9257,-29.70315 18.8848,-1.69452 36.21214,-2.36801 52.37363,3.67954 18.32683,7.01881 36.97242,18.73254 55.1957,47.16352 12.78147,19.22279 14.00119,35.98077 17.0363,53.68483 2.84811,15.722 1.05407,29.00503 4.4251,36.67029 2.33828,3.87492 6.34507,5.15418 10.1779,6.61835 54.75909,18.81487 119.037,34.07525 165.5257,60.73805 34.75259,22.01722 33.65247,31.88338 34.8879,50.41609 -2.52992,30.74874 -23.32228,42.35613 -43.7453,59.00874 -75.16307,66.42134 -93.42046,70.96283 -80.73326,110.5085 3.71646,11.79206 45.36546,98.4821 61.01278,121.98122 52.06592,84.66641 96.70942,82.73892 9.03875,88.18394 -30.27495,0.55369 -52.45698,1.35571 -87.65317,0.75442 -77.04297,-0.55507 -74.93114,-27.03259 -115.74423,-26.90403 -11.42843,0.036 -44.59711,25.07829 -59.67072,25.24234 -16.86555,0.18356 -47.54492,-27.47292 -63.70449,-27.43054 -32.31912,0.0847 -59.38748,27.10269 -117.59926,27.09217 -62.121396,-0.0107 -74.839894,0.57416 -75.710684,0.0205 -87.754336,-7.6981 -54.5206429,7.31846 -6.080248,-89.93078 z"
     id="path195-3"
     inkscape:connector-curvature="0"
     sodipodi:nodetypes="cccccsaccccccccccccccccsssccc" />
  <path
     style="fill:#000000;fill-opacity:1;stroke:#000000;stroke-width:1.19174159;stroke-opacity:1"
     d="m 261.12004,256.06671 2.48503,89.97912 -76.49828,0.4279 C 108.91695,210.58665 62.311054,179.51559 261.12004,256.06671 Z"
     id="rect103"
     inkscape:connector-curvature="0"
     sodipodi:nodetypes="cccc" />
  <path
     style="fill:#000000;stroke-width:2.5293231"
     d="m 238.15663,447.45308 c -24.93108,-3.14271 -41.33258,-7.47368 -44.98945,-11.87998 -2.67309,-3.22085 -0.97814,-5.89024 10.69955,-16.85068 7.6317,-7.16301 21.21601,-18.7236 30.18734,-25.69032 24.90865,-19.34274 25.72071,-26.82575 6.08335,-56.05578 -16.90855,-31.86622 -39.92628,-47.33238 -64.14988,-72.71437 l -6.19403,-6.66087 9.97258,1.5849 c 16.65416,2.77964 30.52501,9.44472 50.59544,0.53245 0.52479,-0.52481 -3.64478,-10.00715 -9.26572,-21.07185 -19.51228,-26.2144 -34.22894,-57.48435 -27.0786,-84.1617 6.40661,-22.08964 14.9575,-34.63811 27.70995,-52.6036 16.48629,-30.24148 14.80914,-44.760625 -1.01489,-78.581911 -8.25285,-17.6391311 10.45474,-19.366025 32.33258,-9.695135 26.47059,12.57197 33.93898,33.701345 35.68583,54.945005 0.23739,16.91652 -4.90367,19.631693 -5.49382,36.778771 2.24019,20.2352 22.61254,41.95668 39.01085,43.08147 12.03408,0.47167 33.71549,-12.60865 36.1752,-31.03161 2.80209,-20.700031 -2.61514,-32.873886 -3.86739,-51.313901 1.85851,-24.065965 13.67356,-42.966779 28.80122,-49.623922 22.60175,-9.9462236 54.89895,-17.7538188 33.48609,12.091641 -11.04625,26.437391 -10.30967,45.368832 2.94113,66.481177 16.26046,24.083585 28.68932,42.242135 29.92112,73.487105 2.9045,27.3121 -13.02254,47.59226 -36.28894,78.40839 -5.70618,7.55778 -9.80892,14.30738 -9.11723,14.99907 24.86415,2.16142 13.39723,6.71998 58.13523,-2.85239 7.96208,-1.21389 7.87057,-1.04377 -5.77535,10.73647 -25.8503,30.77215 -42.14321,48.85255 -48.8576,57.68559 -22.31306,29.30597 -24.94272,41.91526 -11.64756,55.85036 10.03406,10.51708 29.03099,24.86949 45.4852,34.36464 17.58712,10.14893 19.44361,13.43093 10.27833,18.17048 -17.60679,9.10483 -168.55053,17.28883 -213.76056,11.5899 z"
     id="path4755-6"
     inkscape:connector-curvature="0"
     sodipodi:nodetypes="ccscccccccccsccccccscccscccccsscc" />
  <path
     style="fill:#000000;fill-opacity:1;stroke:#000000;stroke-width:1.19174159;stroke-opacity:1"
     d="m 380.29891,255.90743 -2.48503,89.97912 76.49828,0.4279 C 532.502,210.42737 579.1079,179.35631 380.29891,255.90743 Z"
     id="rect103-5"
     inkscape:connector-curvature="0"
     sodipodi:nodetypes="cccc" />
</svg>
