  0
SECTION
  2
HEADER
  9
$ACADVER
  1
AC1014
  9
$HANDSEED
  5
FFFF
  9
$MEASUREMENT
 70
     1
  0
ENDSEC
  0
SECTION
  2
TABLES
  0
TABLE
  2
VPORT
  5
8
330
0
100
AcDbSymbolTable
 70
     4
  0
VPORT
  5
2E
330
8
100
AcDbSymbolTableRecord
100
AcDbViewportTableRecord
  2
*ACTIVE
 70
     0
 10
0.0
 20
0.0
 11
1.0
 21
1.0
 12
210.0
 22
148.5
 13
0.0
 23
0.0
 14
10.0
 24
10.0
 15
10.0
 25
10.0
 16
0.0
 26
0.0
 36
1.0
 17
0.0
 27
0.0
 37
0.0
 40
341.0
 41
1.24
 42
50.0
 43
0.0
 44
0.0
 50
0.0
 51
0.0
 71
     0
 72
   100
 73
     1
 74
     3
 75
     0
 76
     0
 77
     0
 78
     0
  0
ENDTAB
  0
TABLE
  2
LTYPE
  5
5
330
0
100
AcDbSymbolTable
 70
     1
  0
LTYPE
  5
14
330
5
100
AcDbSymbolTableRecord
100
AcDbLinetypeTableRecord
  2
BYBLOCK
 70
     0
  3

 72
    65
 73
     0
 40
0.0
  0
LTYPE
  5
15
330
5
100
AcDbSymbolTableRecord
100
AcDbLinetypeTableRecord
  2
BYLAYER
 70
     0
  3

 72
    65
 73
     0
 40
0.0
  0
LTYPE
  5
16
330
5
100
AcDbSymbolTableRecord
100
AcDbLinetypeTableRecord
  2
CONTINUOUS
 70
     0
  3
Solid line
 72
    65
 73
     0
 40
0.0
  0
ENDTAB
  0
TABLE
  2
LAYER
  5
2
100
AcDbSymbolTable
 70
1
  0
LAYER
  5
50
100
AcDbSymbolTableRecord
100
AcDbLayerTableRecord
  2
0
 70
0
  6
CONTINUOUS
  0
ENDTAB
  0
TABLE
  2
STYLE
  5
3
330
0
100
AcDbSymbolTable
 70
     1
  0
STYLE
  5
11
330
3
100
AcDbSymbolTableRecord
100
AcDbTextStyleTableRecord
  2
STANDARD
 70
     0
 40
0.0
 41
1.0
 50
0.0
 71
     0
 42
2.5
  3
txt
  4

  0
ENDTAB
  0
TABLE
  2
VIEW
  5
6
330
0
100
AcDbSymbolTable
 70
     0
  0
ENDTAB
  0
TABLE
  2
UCS
  5
7
330
0
100
AcDbSymbolTable
 70
     0
  0
ENDTAB
  0
TABLE
  2
APPID
  5
9
330
0
100
AcDbSymbolTable
 70
     2
  0
APPID
  5
12
330
9
100
AcDbSymbolTableRecord
100
AcDbRegAppTableRecord
  2
ACAD
 70
     0
  0
ENDTAB
  0
TABLE
  2
DIMSTYLE
  5
A
330
0
100
AcDbSymbolTable
 70
     1
  0
DIMSTYLE
105
27
330
A
100
AcDbSymbolTableRecord
100
AcDbDimStyleTableRecord
  2
ISO-25
 70
     0
  3

  4

  5

  6

  7

 40
1.0
 41
2.5
 42
0.625
 43
3.75
 44
1.25
 45
0.0
 46
0.0
 47
0.0
 48
0.0
140
2.5
141
2.5
142
0.0
143
0.03937007874016
144
1.0
145
0.0
146
1.0
147
0.625
 71
     0
 72
     0
 73
     0
 74
     0
 75
     0
 76
     0
 77
     1
 78
     8
170
     0
171
     3
172
     1
173
     0
174
     0
175
     0
176
     0
177
     0
178
     0
270
     2
271
     2
272
     2
273
     2
274
     3
340
11
275
     0
280
     0
281
     0
282
     0
283
     0
284
     8
285
     0
286
     0
287
     3
288
     0
  0
ENDTAB
  0
TABLE
  2
BLOCK_RECORD
  5
1
330
0
100
AcDbSymbolTable
 70
     1
  0
BLOCK_RECORD
  5
1F
330
1
100
AcDbSymbolTableRecord
100
AcDbBlockTableRecord
  2
*MODEL_SPACE
  0
BLOCK_RECORD
  5
1B
330
1
100
AcDbSymbolTableRecord
100
AcDbBlockTableRecord
  2
*PAPER_SPACE
  0
ENDTAB
  0
ENDSEC
  0
SECTION
  2
BLOCKS
  0
BLOCK
  5
20
330
1F
100
AcDbEntity
  8
0
100
AcDbBlockBegin
  2
*MODEL_SPACE
 70
     0
 10
0.0
 20
0.0
 30
0.0
  3
*MODEL_SPACE
  1

  0
ENDBLK
  5
21
330
1F
100
AcDbEntity
  8
0
100
AcDbBlockEnd
  0
BLOCK
  5
1C
330
1B
100
AcDbEntity
 67
     1
  8
0
100
AcDbBlockBegin
  2
*PAPER_SPACE
  1

  0
ENDBLK
  5
1D
330
1B
100
AcDbEntity
 67
     1
  8
0
100
AcDbBlockEnd
  0
ENDSEC
  0
SECTION
  2
ENTITIES
  0
LWPOLYLINE
  5
100
100
AcDbEntity
  8
0
 62
7
100
AcDbPolyline
 90
530
 70
1
 10
83.676030
 20
170.022713
 30
0.0
 10
82.588378
 20
170.013894
 30
0.0
 10
81.502925
 20
169.969315
 30
0.0
 10
80.421147
 20
169.884513
 30
0.0
 10
79.344512
 20
169.755029
 30
0.0
 10
78.591219
 20
169.604726
 30
0.0
 10
77.851050
 20
169.392180
 30
0.0
 10
77.117990
 20
169.148539
 30
0.0
 10
76.386034
 20
168.904952
 30
0.0
 10
75.595779
 20
168.654256
 30
0.0
 10
74.807498
 20
168.396423
 30
0.0
 10
74.026231
 20
168.119745
 30
0.0
 10
73.257026
 20
167.812512
 30
0.0
 10
72.552769
 20
167.488651
 30
0.0
 10
71.861717
 20
167.136436
 30
0.0
 10
71.178309
 20
166.768405
 30
0.0
 10
70.496988
 20
166.397094
 30
0.0
 10
69.819237
 20
165.967419
 30
0.0
 10
69.157916
 20
165.497937
 30
0.0
 10
68.476249
 20
165.085552
 30
0.0
 10
67.737466
 20
164.827164
 30
0.0
 10
66.646695
 20
164.879623
 30
0.0
 10
65.542724
 20
165.223399
 30
0.0
 10
64.451825
 20
165.521115
 30
0.0
 10
63.400265
 20
165.435396
 30
0.0
 10
61.451712
 20
164.303835
 30
0.0
 10
59.825940
 20
162.647658
 30
0.0
 10
58.528376
 20
160.664525
 30
0.0
 10
57.564446
 20
158.552095
 30
0.0
 10
57.207994
 20
156.765301
 30
0.0
 10
57.256320
 20
154.903476
 30
0.0
 10
57.426799
 20
153.013749
 30
0.0
 10
57.436800
 20
151.143245
 30
0.0
 10
57.246803
 20
149.772079
 30
0.0
 10
56.979301
 20
148.410469
 30
0.0
 10
56.719242
 20
147.048276
 30
0.0
 10
56.551584
 20
145.675362
 30
0.0
 10
56.435273
 20
143.202511
 30
0.0
 10
56.429029
 20
140.723935
 30
0.0
 10
56.548009
 20
138.249644
 30
0.0
 10
56.807388
 20
135.789659
 30
0.0
 10
57.131352
 20
134.751924
 30
0.0
 10
57.614685
 20
133.718342
 30
0.0
 10
57.947973
 20
132.708983
 30
0.0
 10
57.821796
 20
131.743913
 30
0.0
 10
56.715078
 20
130.543078
 30
0.0
 10
55.103167
 20
129.858339
 30
0.0
 10
53.272243
 20
129.424054
 30
0.0
 10
51.508485
 20
128.974572
 30
0.0
 10
50.059291
 20
128.561563
 30
0.0
 10
48.585559
 20
128.235811
 30
0.0
 10
47.104649
 20
127.934241
 30
0.0
 10
45.633910
 20
127.593778
 30
0.0
 10
43.170089
 20
126.950094
 30
0.0
 10
40.711152
 20
126.285792
 30
0.0
 10
38.266973
 20
125.572938
 30
0.0
 10
35.847427
 20
124.783615
 30
0.0
 10
35.834648
 20
124.779196
 30
0.0
 10
35.821842
 20
124.774830
 30
0.0
 10
35.809036
 20
124.770465
 30
0.0
 10
35.796257
 20
124.766046
 30
0.0
 10
36.382780
 20
128.058918
 30
0.0
 10
36.980749
 20
131.488085
 30
0.0
 10
37.600387
 20
135.115834
 30
0.0
 10
38.251921
 20
139.004453
 30
0.0
 10
37.239583
 20
139.929328
 30
0.0
 10
34.890721
 20
141.702044
 30
0.0
 10
32.172328
 20
143.725737
 30
0.0
 10
30.051388
 20
145.403546
 30
0.0
 10
28.253756
 20
146.218336
 30
0.0
 10
27.139030
 20
145.469995
 30
0.0
 10
26.464914
 20
144.167790
 30
0.0
 10
25.989103
 20
143.320986
 30
0.0
 10
24.775623
 20
136.492197
 30
0.0
 10
23.832594
 20
130.657140
 30
0.0
 10
23.023432
 20
125.286535
 30
0.0
 10
22.211556
 20
119.851101
 30
0.0
 10
18.994709
 20
118.536892
 30
0.0
 10
15.819773
 20
117.135294
 30
0.0
 10
12.697122
 20
115.628253
 30
0.0
 10
9.637130
 20
113.997711
 30
0.0
 10
8.615232
 20
113.363372
 30
0.0
 10
7.622966
 20
112.650804
 30
0.0
 10
6.687324
 20
111.914832
 30
0.0
 10
5.835295
 20
111.210286
 30
0.0
 10
5.067694
 20
110.543221
 30
0.0
 10
4.364363
 20
109.880651
 30
0.0
 10
3.720828
 20
109.218857
 30
0.0
 10
3.132617
 20
108.554115
 30
0.0
 10
2.595225
 20
107.882661
 30
0.0
 10
2.104211
 20
107.200769
 30
0.0
 10
1.655207
 20
106.504764
 30
0.0
 10
1.243844
 20
105.790976
 30
0.0
 10
0.697762
 20
104.675765
 30
0.0
 10
0.367152
 20
103.590878
 30
0.0
 10
0.180204
 20
102.191656
 30
0.0
 10
0.065104
 20
100.133441
 30
0.0
 10
-0.000073
 20
97.962506
 30
0.0
 10
0.079892
 20
96.571054
 30
0.0
 10
0.381131
 20
95.459209
 30
0.0
 10
0.979777
 20
94.127090
 30
0.0
 10
2.078981
 20
92.267551
 30
0.0
 10
3.558941
 20
90.400325
 30
0.0
 10
5.305683
 20
88.653048
 30
0.0
 10
7.205237
 20
87.153356
 30
0.0
 10
9.142169
 20
85.954034
 30
0.0
 10
11.051086
 20
85.082227
 30
0.0
 10
13.115117
 20
84.474325
 30
0.0
 10
14.262528
 20
84.249461
 30
0.0
 10
15.517391
 20
84.066721
 30
0.0
 10
14.293584
 20
78.350203
 30
0.0
 10
13.036207
 20
72.704756
 30
0.0
 10
12.387154
 20
69.906012
 30
0.0
 10
11.720377
 20
67.121823
 30
0.0
 10
11.032768
 20
64.351122
 30
0.0
 10
10.321214
 20
61.592838
 30
0.0
 10
9.582607
 20
58.845900
 30
0.0
 10
8.813835
 20
56.109238
 30
0.0
 10
8.011789
 20
53.381780
 30
0.0
 10
7.173358
 20
50.662462
 30
0.0
 10
6.295432
 20
47.950207
 30
0.0
 10
5.374902
 20
45.243946
 30
0.0
 10
4.408655
 20
42.542611
 30
0.0
 10
3.393583
 20
39.845131
 30
0.0
 10
2.783264
 20
38.204002
 30
0.0
 10
2.195140
 20
36.525798
 30
0.0
 10
1.618899
 20
34.821424
 30
0.0
 10
1.044224
 20
33.101791
 30
0.0
 10
0.460802
 20
31.377808
 30
0.0
 10
-0.141682
 20
29.660382
 30
0.0
 10
-0.773544
 20
27.960421
 30
0.0
 10
-1.445097
 20
26.288833
 30
0.0
 10
-2.166656
 20
24.656531
 30
0.0
 10
-2.948537
 20
23.074418
 30
0.0
 10
-3.801053
 20
21.553405
 30
0.0
 10
-4.734520
 20
20.104399
 30
0.0
 10
-5.759251
 20
18.738313
 30
0.0
 10
-6.885563
 20
17.466048
 30
0.0
 10
-8.123769
 20
16.298521
 30
0.0
 10
-9.484184
 20
15.246633
 30
0.0
 10
-11.426600
 20
14.521564
 30
0.0
 10
-13.501134
 20
13.949119
 30
0.0
 10
-18.028933
 20
13.173821
 30
0.0
 10
-23.032343
 20
12.744164
 30
0.0
 10
-28.476125
 20
12.483579
 30
0.0
 10
-34.325041
 20
12.215487
 30
0.0
 10
-40.543850
 20
11.763319
 30
0.0
 10
-47.097318
 20
10.950504
 30
0.0
 10
-53.950203
 20
9.600467
 30
0.0
 10
-54.765512
 20
7.715970
 30
0.0
 10
-55.284714
 20
5.455311
 30
0.0
 10
-55.529745
 20
2.932803
 30
0.0
 10
-55.522548
 20
0.262755
 30
0.0
 10
-55.285055
 20
-2.440525
 30
0.0
 10
-54.839203
 20
-5.062720
 30
0.0
 10
-54.206934
 20
-7.489526
 30
0.0
 10
-53.410186
 20
-9.606629
 30
0.0
 10
-51.370709
 20
-10.969850
 30
0.0
 10
-48.585297
 20
-11.371130
 30
0.0
 10
-45.287107
 20
-11.045724
 30
0.0
 10
-41.709295
 20
-10.228895
 30
0.0
 10
-38.085011
 20
-9.155904
 30
0.0
 10
-34.647412
 20
-8.062008
 30
0.0
 10
-31.629654
 20
-7.182466
 30
0.0
 10
-29.264890
 20
-6.752540
 30
0.0
 10
-27.316753
 20
-6.357861
 30
0.0
 10
-25.368617
 20
-5.963182
 30
0.0
 10
-23.420480
 20
-5.568503
 30
0.0
 10
-21.472343
 20
-5.173824
 30
0.0
 10
-19.524206
 20
-4.779148
 30
0.0
 10
-17.576069
 20
-4.384469
 30
0.0
 10
-15.627933
 20
-3.989790
 30
0.0
 10
-13.679796
 20
-3.595111
 30
0.0
 10
-12.182923
 20
-3.278931
 30
0.0
 10
-10.375150
 20
-2.770836
 30
0.0
 10
-8.378771
 20
-2.103475
 30
0.0
 10
-6.316080
 20
-1.309502
 30
0.0
 10
-4.309372
 20
-0.421571
 30
0.0
 10
-2.480940
 20
0.527666
 30
0.0
 10
-0.953079
 20
1.505559
 30
0.0
 10
0.151918
 20
2.479453
 30
0.0
 10
0.811160
 20
3.168690
 30
0.0
 10
1.681560
 20
4.057473
 30
0.0
 10
2.705102
 20
5.183807
 30
0.0
 10
3.823772
 20
6.585686
 30
0.0
 10
4.979553
 20
8.301109
 30
0.0
 10
6.114432
 20
10.368074
 30
0.0
 10
7.170392
 20
12.824576
 30
0.0
 10
8.089418
 20
15.708619
 30
0.0
 10
10.842347
 20
23.909978
 30
0.0
 10
13.472284
 20
32.080166
 30
0.0
 10
18.403235
 20
48.486534
 30
0.0
 10
22.962387
 20
65.246721
 30
0.0
 10
27.229853
 20
82.679725
 30
0.0
 10
31.954764
 20
81.910822
 30
0.0
 10
35.737919
 20
81.071236
 30
0.0
 10
38.339593
 20
80.158818
 30
0.0
 10
39.520058
 20
79.171414
 30
0.0
 10
39.721171
 20
78.398460
 30
0.0
 10
39.620169
 20
77.511040
 30
0.0
 10
39.118098
 20
76.137736
 30
0.0
 10
38.116010
 20
73.907134
 30
0.0
 10
35.467147
 20
68.571396
 30
0.0
 10
32.201509
 20
62.326512
 30
0.0
 10
29.127013
 20
56.359742
 30
0.0
 10
27.051569
 20
51.858352
 30
0.0
 10
26.561793
 20
50.617869
 30
0.0
 10
25.783912
 20
48.674618
 30
0.0
 10
24.824922
 20
46.294805
 30
0.0
 10
23.791819
 20
43.744634
 30
0.0
 10
22.652906
 20
40.916074
 30
0.0
 10
21.405837
 20
37.778280
 30
0.0
 10
20.201570
 20
34.713249
 30
0.0
 10
19.191066
 20
32.102967
 30
0.0
 10
18.834261
 20
29.463222
 30
0.0
 10
19.145026
 20
26.529818
 30
0.0
 10
19.605290
 20
24.014790
 30
0.0
 10
19.696978
 20
22.630162
 30
0.0
 10
17.857465
 20
18.450983
 30
0.0
 10
15.749856
 20
13.398582
 30
0.0
 10
13.865269
 20
8.552680
 30
0.0
 10
12.694822
 20
4.992994
 30
0.0
 10
12.486324
 20
4.082053
 30
0.0
 10
12.350749
 20
3.273748
 30
0.0
 10
12.288250
 20
2.563487
 30
0.0
 10
12.298981
 20
1.946669
 30
0.0
 10
12.199098
 20
1.860785
 30
0.0
 10
12.100587
 20
1.773396
 30
0.0
 10
12.003734
 20
1.684274
 30
0.0
 10
11.908824
 20
1.593202
 30
0.0
 10
11.025397
 20
0.542203
 30
0.0
 10
10.358271
 20
-0.664046
 30
0.0
 10
9.936609
 20
-1.997019
 30
0.0
 10
9.789583
 20
-3.428198
 30
0.0
 10
9.936618
 20
-4.859438
 30
0.0
 10
10.358280
 20
-6.192554
 30
0.0
 10
11.025407
 20
-7.398972
 30
0.0
 10
11.908834
 20
-8.450114
 30
0.0
 10
12.979421
 20
-9.317424
 30
0.0
 10
14.207947
 20
-9.972347
 30
0.0
 10
15.565133
 20
-10.386274
 30
0.0
 10
17.021700
 20
-10.530607
 30
0.0
 10
18.478186
 20
-10.386274
 30
0.0
 10
19.835195
 20
-9.972347
 30
0.0
 10
21.063543
 20
-9.317424
 30
0.0
 10
22.134049
 20
-8.450114
 30
0.0
 10
22.485916
 20
-8.079182
 30
0.0
 10
22.810352
 20
-7.684275
 30
0.0
 10
23.105921
 20
-7.266887
 30
0.0
 10
23.371183
 20
-6.828507
 30
0.0
 10
23.636515
 20
-7.266956
 30
0.0
 10
23.932233
 20
-7.684307
 30
0.0
 10
24.256839
 20
-8.079161
 30
0.0
 10
24.608834
 20
-8.450114
 30
0.0
 10
25.679281
 20
-9.317368
 30
0.0
 10
26.907636
 20
-9.972297
 30
0.0
 10
28.264675
 20
-10.386256
 30
0.0
 10
29.721183
 20
-10.530607
 30
0.0
 10
31.177672
 20
-10.386256
 30
0.0
 10
32.534680
 20
-9.972297
 30
0.0
 10
33.763027
 20
-9.317368
 30
0.0
 10
34.833534
 20
-8.450114
 30
0.0
 10
35.214052
 20
-8.046257
 30
0.0
 10
35.561834
 20
-7.614200
 30
0.0
 10
35.875288
 20
-7.155942
 30
0.0
 10
36.152831
 20
-6.673480
 30
0.0
 10
36.423722
 20
-7.141922
 30
0.0
 10
36.727278
 20
-7.587602
 30
0.0
 10
37.062069
 20
-8.008623
 30
0.0
 10
37.426657
 20
-8.403090
 30
0.0
 10
38.497163
 20
-9.290066
 30
0.0
 10
39.725510
 20
-9.959784
 30
0.0
 10
41.082516
 20
-10.383033
 30
0.0
 10
42.539005
 20
-10.530607
 30
0.0
 10
43.995515
 20
-10.383033
 30
0.0
 10
45.352555
 20
-9.959782
 30
0.0
 10
46.580909
 20
-9.290066
 30
0.0
 10
47.651355
 20
-8.403090
 30
0.0
 10
48.046000
 20
-7.973293
 30
0.0
 10
48.405301
 20
-7.512346
 30
0.0
 10
48.727402
 20
-7.022640
 30
0.0
 10
49.010446
 20
-6.506565
 30
0.0
 10
49.299839
 20
-7.022632
 30
0.0
 10
49.629171
 20
-7.512344
 30
0.0
 10
49.996535
 20
-7.973295
 30
0.0
 10
50.400024
 20
-8.403090
 30
0.0
 10
51.494404
 20
-9.290066
 30
0.0
 10
52.750159
 20
-9.959782
 30
0.0
 10
54.137486
 20
-10.383033
 30
0.0
 10
55.626579
 20
-10.530607
 30
0.0
 10
57.115734
 20
-10.383033
 30
0.0
 10
58.503204
 20
-9.959782
 30
0.0
 10
59.759128
 20
-9.290066
 30
0.0
 10
60.853651
 20
-8.403090
 30
0.0
 10
61.756885
 20
-7.328006
 30
0.0
 10
62.438979
 20
-6.094010
 30
0.0
 10
62.870106
 20
-4.730395
 30
0.0
 10
63.020443
 20
-3.266451
 30
0.0
 10
62.967822
 20
-2.398339
 30
0.0
 10
62.814192
 20
-1.560811
 30
0.0
 10
62.565896
 20
-0.759486
 30
0.0
 10
63.294329
 20
0.000016
 30
0.0
 10
64.361870
 20
1.982258
 30
0.0
 10
65.100404
 20
4.723471
 30
0.0
 10
65.742701
 20
7.534720
 30
0.0
 10
66.521520
 20
9.727070
 30
0.0
 10
67.839455
 20
11.421367
 30
0.0
 10
69.405190
 20
12.570013
 30
0.0
 10
70.932625
 20
13.672682
 30
0.0
 10
72.135648
 20
15.229059
 30
0.0
 10
73.873741
 20
19.341081
 30
0.0
 10
75.505291
 20
23.692765
 30
0.0
 10
77.328911
 20
28.006268
 30
0.0
 10
79.643200
 20
32.003746
 30
0.0
 10
80.800773
 20
33.750300
 30
0.0
 10
82.072475
 20
35.515053
 30
0.0
 10
83.549733
 20
36.866449
 30
0.0
 10
85.323992
 20
37.372928
 30
0.0
 10
86.849942
 20
36.834064
 30
0.0
 10
88.070375
 20
35.571274
 30
0.0
 10
89.088995
 20
33.957839
 30
0.0
 10
90.009493
 20
32.367032
 30
0.0
 10
92.089113
 20
28.317719
 30
0.0
 10
93.673983
 20
24.029106
 30
0.0
 10
95.046533
 20
19.624966
 30
0.0
 10
96.489200
 20
15.229059
 30
0.0
 10
97.637814
 20
13.665883
 30
0.0
 10
99.280636
 20
12.837345
 30
0.0
 10
101.070926
 20
12.009131
 30
0.0
 10
102.661950
 20
10.446925
 30
0.0
 10
103.787998
 20
7.699989
 30
0.0
 10
104.507477
 20
4.452157
 30
0.0
 10
104.959838
 20
1.670987
 30
0.0
 10
105.284529
 20
0.324027
 30
0.0
 10
105.395390
 20
0.126540
 30
0.0
 10
106.316915
 20
-0.873673
 30
0.0
 10
106.052861
 20
-1.688084
 30
0.0
 10
105.889367
 20
-2.541722
 30
0.0
 10
105.833333
 20
-3.428198
 30
0.0
 10
105.980368
 20
-4.859438
 30
0.0
 10
106.402031
 20
-6.192554
 30
0.0
 10
107.069157
 20
-7.398972
 30
0.0
 10
107.952585
 20
-8.450114
 30
0.0
 10
109.023171
 20
-9.317424
 30
0.0
 10
110.251698
 20
-9.972344
 30
0.0
 10
111.608883
 20
-10.386274
 30
0.0
 10
113.065449
 20
-10.530607
 30
0.0
 10
114.521935
 20
-10.386274
 30
0.0
 10
115.878943
 20
-9.972344
 30
0.0
 10
117.107293
 20
-9.317424
 30
0.0
 10
118.177799
 20
-8.450114
 30
0.0
 10
118.529666
 20
-8.079182
 30
0.0
 10
118.854104
 20
-7.684275
 30
0.0
 10
119.149672
 20
-7.266887
 30
0.0
 10
119.414933
 20
-6.828507
 30
0.0
 10
119.680265
 20
-7.266956
 30
0.0
 10
119.975982
 20
-7.684307
 30
0.0
 10
120.300589
 20
-8.079161
 30
0.0
 10
120.652585
 20
-8.450114
 30
0.0
 10
121.723031
 20
-9.317368
 30
0.0
 10
122.951386
 20
-9.972297
 30
0.0
 10
124.308426
 20
-10.386256
 30
0.0
 10
125.764933
 20
-10.530607
 30
0.0
 10
127.221422
 20
-10.386256
 30
0.0
 10
128.578430
 20
-9.972297
 30
0.0
 10
129.806777
 20
-9.317368
 30
0.0
 10
130.877284
 20
-8.450114
 30
0.0
 10
131.255841
 20
-8.048450
 30
0.0
 10
131.601977
 20
-7.618854
 30
0.0
 10
131.914170
 20
-7.163316
 30
0.0
 10
132.190897
 20
-6.683814
 30
0.0
 10
132.461090
 20
-7.149357
 30
0.0
 10
132.763707
 20
-7.592290
 30
0.0
 10
133.097212
 20
-8.010805
 30
0.0
 10
133.460072
 20
-8.403090
 30
0.0
 10
134.530579
 20
-9.290066
 30
0.0
 10
135.758925
 20
-9.959784
 30
0.0
 10
137.115931
 20
-10.383033
 30
0.0
 10
138.572420
 20
-10.530607
 30
0.0
 10
140.028930
 20
-10.383033
 30
0.0
 10
141.385970
 20
-9.959782
 30
0.0
 10
142.614325
 20
-9.290066
 30
0.0
 10
143.684771
 20
-8.403090
 30
0.0
 10
144.086424
 20
-7.965125
 30
0.0
 10
144.451464
 20
-7.494939
 30
0.0
 10
144.777838
 20
-6.995009
 30
0.0
 10
145.063496
 20
-6.467806
 30
0.0
 10
145.355651
 20
-6.995038
 30
0.0
 10
145.689542
 20
-7.494950
 30
0.0
 10
146.062970
 20
-7.965112
 30
0.0
 10
146.473746
 20
-8.403090
 30
0.0
 10
147.568126
 20
-9.290066
 30
0.0
 10
148.823881
 20
-9.959782
 30
0.0
 10
150.211208
 20
-10.383033
 30
0.0
 10
151.700301
 20
-10.530607
 30
0.0
 10
153.189456
 20
-10.383033
 30
0.0
 10
154.576926
 20
-9.959782
 30
0.0
 10
155.832850
 20
-9.290066
 30
0.0
 10
156.927373
 20
-8.403090
 30
0.0
 10
157.830689
 20
-7.328006
 30
0.0
 10
158.512960
 20
-6.094010
 30
0.0
 10
158.944262
 20
-4.730395
 30
0.0
 10
159.094681
 20
-3.266451
 30
0.0
 10
158.944262
 20
-1.802588
 30
0.0
 10
158.512960
 20
-0.439150
 30
0.0
 10
157.830689
 20
0.794665
 30
0.0
 10
156.927373
 20
1.869670
 30
0.0
 10
156.818907
 20
1.973633
 30
0.0
 10
156.708089
 20
2.075122
 30
0.0
 10
156.595162
 20
2.174396
 30
0.0
 10
156.480372
 20
2.271713
 30
0.0
 10
156.613159
 20
2.845790
 30
0.0
 10
156.670208
 20
3.469092
 30
0.0
 10
156.637379
 20
4.139531
 30
0.0
 10
156.500534
 20
4.855017
 30
0.0
 10
155.109603
 20
8.428895
 30
0.0
 10
152.755341
 20
13.398984
 30
0.0
 10
150.245117
 20
18.452767
 30
0.0
 10
148.386300
 20
22.277726
 30
0.0
 10
148.464498
 20
23.647315
 30
0.0
 10
148.980475
 20
25.940086
 30
0.0
 10
149.361372
 20
28.614846
 30
0.0
 10
149.034323
 20
31.130415
 30
0.0
 10
147.914730
 20
33.892657
 30
0.0
 10
146.481924
 20
37.292002
 30
0.0
 10
145.008989
 20
40.764111
 30
0.0
 10
143.769011
 20
43.744631
 30
0.0
 10
142.737853
 20
46.294802
 30
0.0
 10
141.780514
 20
48.674615
 30
0.0
 10
141.003777
 20
50.617866
 30
0.0
 10
140.514427
 20
51.858349
 30
0.0
 10
138.344677
 20
56.592031
 30
0.0
 10
135.202888
 20
62.706284
 30
0.0
 10
131.924790
 20
68.952822
 30
0.0
 10
129.346119
 20
74.083349
 30
0.0
 10
128.369248
 20
76.413677
 30
0.0
 10
127.969833
 20
78.106093
 30
0.0
 10
128.134023
 20
79.333426
 30
0.0
 10
128.847958
 20
80.268501
 30
0.0
 10
131.724699
 20
81.228718
 30
0.0
 10
137.354736
 20
82.195720
 30
0.0
 10
144.520827
 20
83.122958
 30
0.0
 10
152.005718
 20
83.963883
 30
0.0
 10
153.573972
 20
84.172123
 30
0.0
 10
155.135228
 20
84.446367
 30
0.0
 10
156.508775
 20
84.750929
 30
0.0
 10
157.513906
 20
85.050122
 30
0.0
 10
160.523499
 20
86.581065
 30
0.0
 10
163.404251
 20
88.774453
 30
0.0
 10
165.871202
 20
91.374918
 30
0.0
 10
167.639389
 20
94.127087
 30
0.0
 10
168.241612
 20
95.459770
 30
0.0
 10
168.544375
 20
96.570252
 30
0.0
 10
168.624605
 20
97.960738
 30
0.0
 10
168.559229
 20
100.133438
 30
0.0
 10
168.443899
 20
102.195929
 30
0.0
 10
168.255828
 20
103.597488
 30
0.0
 10
167.921670
 20
104.688513
 30
0.0
 10
167.368088
 20
105.819398
 30
0.0
 10
166.747865
 20
106.864356
 30
0.0
 10
166.033614
 20
107.887093
 30
0.0
 10
165.226828
 20
108.886125
 30
0.0
 10
164.328996
 20
109.859977
 30
0.0
 10
163.332552
 20
110.828844
 30
0.0
 10
162.242040
 20
111.783910
 30
0.0
 10
161.077114
 20
112.680184
 30
0.0
 10
159.857435
 20
113.472677
 30
0.0
 10
152.844873
 20
117.091325
 30
0.0
 10
145.530107
 20
120.107861
 30
0.0
 10
138.039271
 20
122.729752
 30
0.0
 10
130.498503
 20
125.164469
 30
0.0
 10
129.201259
 20
125.526808
 30
0.0
 10
127.886516
 20
125.826763
 30
0.0
 10
126.568930
 20
126.117384
 30
0.0
 10
125.263164
 20
126.451728
 30
0.0
 10
123.951762
 20
126.865338
 30
0.0
 10
122.652404
 20
127.317878
 30
0.0
 10
121.353337
 20
127.771427
 30
0.0
 10
120.042810
 20
128.188056
 30
0.0
 10
118.383878
 20
128.625986
 30
0.0
 10
116.711532
 20
129.014784
 30
0.0
 10
115.041101
 20
129.409957
 30
0.0
 10
113.387918
 20
129.867025
 30
0.0
 10
112.405861
 20
130.074472
 30
0.0
 10
111.380328
 20
130.248803
 30
0.0
 10
110.465748
 20
130.560392
 30
0.0
 10
109.816561
 20
131.179607
 30
0.0
 10
109.618111
 20
132.229024
 30
0.0
 10
109.921347
 20
133.353924
 30
0.0
 10
110.396208
 20
134.513561
 30
0.0
 10
110.712631
 20
135.667186
 30
0.0
 10
110.913765
 20
137.937957
 30
0.0
 10
111.015206
 20
140.217443
 30
0.0
 10
111.023884
 20
142.499698
 30
0.0
 10
110.946726
 20
144.778776
 30
0.0
 10
110.783071
 20
146.519796
 30
0.0
 10
110.525666
 20
148.252172
 30
0.0
 10
110.253481
 20
149.983531
 30
0.0
 10
110.045489
 20
151.721504
 30
0.0
 10
110.029244
 20
153.412353
 30
0.0
 10
110.121920
 20
155.118686
 30
0.0
 10
110.105965
 20
156.800874
 30
0.0
 10
109.763854
 20
158.419287
 30
0.0
 10
108.877238
 20
160.455910
 30
0.0
 10
107.702607
 20
162.385748
 30
0.0
 10
106.226636
 20
164.042200
 30
0.0
 10
104.436013
 20
165.258662
 30
0.0
 10
103.210863
 20
165.498566
 30
0.0
 10
101.899876
 20
165.334615
 30
0.0
 10
100.569181
 20
165.118735
 30
0.0
 10
99.284906
 20
165.202852
 30
0.0
 10
98.605269
 20
165.496078
 30
0.0
 10
97.981643
 20
165.913815
 30
0.0
 10
97.377001
 20
166.375788
 30
0.0
 10
96.754312
 20
166.801721
 30
0.0
 10
96.079448
 20
167.206041
 30
0.0
 10
95.401686
 20
167.606514
 30
0.0
 10
94.712682
 20
167.984928
 30
0.0
 10
94.004093
 20
168.323075
 30
0.0
 10
93.363976
 20
168.577116
 30
0.0
 10
92.710630
 20
168.797440
 30
0.0
 10
92.048370
 20
168.991550
 30
0.0
 10
91.381514
 20
169.166951
 30
0.0
 10
90.549738
 20
169.367576
 30
0.0
 10
89.712019
 20
169.544655
 30
0.0
 10
88.868663
 20
169.688558
 30
0.0
 10
88.019961
 20
169.789652
 30
0.0
 10
86.937704
 20
169.879232
 30
0.0
 10
85.852069
 20
169.950915
 30
0.0
 10
84.764396
 20
170.000231
 30
0.0
  0
ENDSEC
  0
SECTION
  2
OBJECTS
  0
DICTIONARY
  5
C
330
0
100
AcDbDictionary
  3
ACAD_GROUP
350
D
  3
ACAD_MLINESTYLE
350
17
  0
DICTIONARY
  5
D
330
C
100
AcDbDictionary
  0
DICTIONARY
  5
1A
330
C
100
AcDbDictionary
  0
DICTIONARY
  5
17
330
C
100
AcDbDictionary
  3
STANDARD
350
18
  0
DICTIONARY
  5
19
330
C
100
AcDbDictionary
  0
ENDSEC
  0
EOF
