<?xml version="1.0" encoding="UTF-8" standalone="no"?>
<!-- Created with Inkscape (http://www.inkscape.org/) -->

<svg
   xmlns:dc="http://purl.org/dc/elements/1.1/"
   xmlns:cc="http://creativecommons.org/ns#"
   xmlns:rdf="http://www.w3.org/1999/02/22-rdf-syntax-ns#"
   xmlns:svg="http://www.w3.org/2000/svg"
   xmlns="http://www.w3.org/2000/svg"
   xmlns:sodipodi="http://sodipodi.sourceforge.net/DTD/sodipodi-0.dtd"
   xmlns:inkscape="http://www.inkscape.org/namespaces/inkscape"
   version="1.1"
   id="svg80"
   width="795.45331"
   height="677.15033"
   viewBox="0 0 795.45329 677.15034"
   sodipodi:docname="meeple_goldorak.svg"
   inkscape:version="0.92.4 5da689c313, 2019-01-14">
  <metadata
     id="metadata86">
    <rdf:RDF>
      <cc:Work
         rdf:about="">
        <dc:format>image/svg+xml</dc:format>
        <dc:type
           rdf:resource="http://purl.org/dc/dcmitype/StillImage" />
        <dc:title />
      </cc:Work>
    </rdf:RDF>
  </metadata>
  <defs
     id="defs84" />
  <sodipodi:namedview
     pagecolor="#ffffff"
     bordercolor="#666666"
     borderopacity="1"
     objecttolerance="10"
     gridtolerance="10"
     guidetolerance="10"
     inkscape:pageopacity="0"
     inkscape:pageshadow="2"
     inkscape:window-width="1920"
     inkscape:window-height="1012"
     id="namedview82"
     showgrid="true"
     inkscape:zoom="0.81621112"
     inkscape:cx="364.20465"
     inkscape:cy="361.24847"
     inkscape:window-x="1280"
     inkscape:window-y="0"
     inkscape:window-maximized="1"
     inkscape:current-layer="svg80"
     showguides="true">
    <inkscape:grid
       type="xygrid"
       id="grid60"
       originx="742.72662"
       originy="-58.797601" />
  </sodipodi:namedview>
  <path
     style="fill:#000000;stroke-width:1.33333337"
     d="m 115.24732,674.90035 c -3.76063,-2.39123 -4.29973,-7.8408 -1.76314,-17.82311 3.27394,-12.88401 20.4428,-59.41619 28.2123,-76.46268 1.33691,-2.93333 5.99031,-14.63333 10.34071,-26 4.3505,-11.36667 12.1754,-31.16667 17.3887,-44 5.2132,-12.83334 10.75699,-26.63334 12.31949,-30.66667 6.5845,-16.99753 31.3821,-60.7297 41.8195,-83.33334 6.476,-14.02484 6.9136,-15.6658 5.3051,-19.89648 -2.9025,-7.6339 -42.2672,-13.57776 -87.1233,-18.09332 -15.4918,-1.55952 -28.31477,0.70985 -39.34125,-6.87656 -9.766139,-6.71928 -14.809467,-22.41937 -19.197937,-31.55652 -3.89406,-8.10776 -4.0234,-8.95707 -3.45713,-22.70097 0.51962,-12.61151 1.03963,-15.10738 4.45509,-21.3827 1.98551,-3.64803 4.30478,-7.07881 7.137099,-10.44239 2.83232,-3.36357 6.17768,-6.65993 10.215348,-10.03911 4.03767,-3.37919 -3.296332,-12.47119 0.50796,-15.73402 28.92815,-24.81088 75.13426,-24.19387 112.92384,-35.5685 12.28305,-3.69719 24.57593,-7.38149 36.98775,-10.62019 7.35681,-1.91967 15.10147,-2.50688 22.20417,-5.21971 4.61051,-1.76095 9.26581,-3.8582 13.00206,-7.08283 0.68197,-0.58858 1.2715,-1.33051 1.6259,-2.15871 2.04432,-4.77734 2.12197,-13.88725 2.53207,-15.38208 0.41,-1.49484 -0.41687,-9.49137 0.0111,-11.88883 0.4279,-2.39746 0.8855,-5.32171 1.4142,-8.92371 0.5971,-4.06838 1.2737,-7.95535 2.041,-11.68435 0.7672,-3.72901 1.625,-7.30006 2.5844,-10.73663 0.9595,-3.43658 2.0206,-6.73867 3.1944,-9.92974 1.1738,-3.19108 2.4603,-6.27114 3.8706,-9.26366 1.4103,-2.992517 2.9443,-5.897487 4.6132,-8.738397 1.6689,-2.84091 3.4726,-5.61774 5.4222,-8.35398 1.9496,-2.73623 4.0451,-5.43187 6.2975,-8.11037 2.2525,-2.67851 4.6619,-5.339883 7.2393,-8.007603 3.6298,-3.75695 6.9396,-6.97951 10.0896,-9.77798 3.1499,-2.79847 6.14,-5.17284 9.1303,-7.23339 2.9902,-2.06056 5.9806,-3.80729 9.1313,-5.3505 3.1506,-1.54321 6.4614,-2.88288 10.0925,-4.1293 5.1268,-1.75987 8.2438,-2.70589 12.482,-3.21198 2.119,-0.25304 4.5184,-0.39608 7.5893,-0.47587 3.07103,-0.0798 6.81363,-0.0963 11.61933,-0.0963 5.6389,0 10.1523,0.059 14.0143,0.27545 3.862,0.21645 7.0726,0.59038 10.1063,1.22026 3.0337,0.62989 5.8904,1.51573 9.0444,2.756 3.1539,1.24028 6.6052,2.83499 10.8282,4.88262 3.2602,1.58083 6.3397,3.53642 9.9978,6.47721 3.6581,2.9408 7.8948,6.86681 13.4694,12.38847 2.9113,2.88367 5.6083,5.710803 8.1088,8.518023 2.5006,2.80722 4.8049,5.59452 6.9308,8.39851 2.1259,2.804 4.0734,5.62469 5.8607,8.49869 1.7872,2.874 3.4141,5.80131 4.8987,8.818537 1.4846,3.01723 2.8269,6.12438 4.045,9.35807 1.218,3.23369 2.3117,6.59391 3.2991,10.11729 0.9875,3.52338 1.8686,7.2099 2.6615,11.09618 0.793,3.88629 1.4976,7.97233 2.132,12.29475 0.722,4.91934 1.3358,8.73405 2.0153,11.74535 0.6796,3.0113 1.4249,23.2192 2.4098,24.92494 0.985,1.70573 2.2097,2.9093 3.848,3.91195 1.6384,1.00265 4.18721,1.885 6.3299,2.7064 4.94669,1.89631 10.02424,3.43199 15.0453,5.12157 6.56879,2.21038 13.0708,4.63941 19.72953,6.56194 6.52585,1.88416 13.26261,2.97903 19.78796,4.86492 39.50073,11.41611 85.1946,12.96627 117.02721,38.99165 5.61138,4.5877 6.0847,14.01013 10.8361,18.85181 4.7514,4.84168 8.6005,9.95315 11.4866,15.27261 3.4658,6.38798 3.9798,8.84206 4.5009,21.48964 0.5671,13.76357 0.4418,14.58161 -3.4768,22.70097 -6.6712,13.82248 -15.36161,30.13939 -30.37401,35.75625 -3.8334,1.43428 -21.09649,1.83279 -28.71359,2.65594 -36.4777,3.94207 -82.0097,9.22307 -87.5245,13.96669 -4.9597,4.26611 -4.5194,9.7363 1.8817,23.37734 9.8287,20.94577 35.1311,65.72071 42.2122,84 1.5625,4.03333 7.0979,17.83333 12.3009,30.66667 5.203,12.83333 13.0553,32.63333 17.4494,44 4.3942,11.36667 9.3569,23.66667 11.0282,27.33333 6.3697,13.97439 24.4157,63.36364 27.6416,75.65097 2.4464,9.31826 -2.52961,15.96698 -6.27591,18.34906 -0.8708,0.55369 -34.07939,-0.0317 -96.22939,-0.0204 -112.0897,0.0203 -111.06411,2.72754 -113.77061,0.0204 -3.0976,-3.09754 -10.61905,-35.63377 -18.54029,-57.55771 -7.92124,-21.92394 -12.289,-45.17946 -24.49002,-64.7746 -4.5657,-7.33262 -9.07451,-18.6546 -17.70833,-18.91905 -9.84308,-0.3015 -15.77131,12.26209 -21.4708,20.29285 -13.4005,18.88176 -25.43997,54.83995 -28.37585,63.4008 -4.23092,12.33705 -13.2681,51.11307 -16.5534,54.55765 l -2.8613,3 -112.9481,-0.0204 c -62.12139,-0.0107 -101.18112,0.57416 -102.05191,0.0205 z"
     id="path195-3"
     inkscape:connector-curvature="0"
     sodipodi:nodetypes="csccccccssssssssaaaaasscssssssscsssssssssscssssssssscsssaaaaasccccccccsccscsczaaasccccc" />
  <path
     style="fill:#000000;stroke-width:4.95366955"
     d="m 270.72667,165.94793 c -20.54549,0 -49.38194,-22.82948 -54.47669,-43.12853 -1.83593,-7.31483 -10.15244,-21.06087 -18.48115,-30.546752 C 179.93869,71.965229 171.43418,52.89127 166.56636,22.29152 L 163.02023,0 181.40542,21.22395 c 28.65134,33.07531 48.12223,40.69692 103.96802,40.69692 37.81041,0 47.88281,-1.50487 49.734,-7.4305 1.27675,-4.08678 3.46231,-11.02529 4.85682,-15.41889 1.93723,-6.10362 4.11734,-6.67562 9.23983,-2.42433 8.66769,7.19357 32.2526,-4.38791 40.56486,-19.9196 l 5.86549,-10.95974 5.54573,10.36233 c 7.97179,14.89544 34.90777,27.53294 43.49476,20.4064 5.22082,-4.33288 6.68829,-3.46133 6.68829,3.97234 0,17.82638 9.97813,21.41199 59.58551,21.41199 44.88278,0 49.04247,-0.89141 70.5087,-15.11003 12.54661,-8.31057 27.38072,-22.24277 32.96464,-30.96048 L 624.57477,0 l 0.0832,15.4766 c 0.11789,21.90181 -12.23735,54.16422 -28.86632,75.375287 -7.81689,9.970893 -18.25482,26.751353 -23.19536,37.289933 -10.08186,21.50552 -32.80573,37.7598 -52.82796,37.78759 z"
     id="path349"
     inkscape:connector-curvature="0"
     sodipodi:nodetypes="ccssccsccccccssscccccccc" />
  <path
     style="fill:#000000;stroke-width:4.95366955"
     d="m 642.72667,265.94793 c 8.1889,13.46561 12.7171,15.968 29.6641,16.39318 16.8276,0.42205 19.9999,-1.06073 19.9999,-9.34926 0,-28.88871 -37.7396,-75.83701 -72.7063,-90.44707 -24.4213,-10.20387 -20.0789,-13.48766 13.2321,-10.00597 74.8277,7.82105 162.8887,54.53049 162.5358,122.23279 -0.1931,37.05627 -8.6194,57.36141 -35.6006,85.78745 -24.971,26.30829 -90.2825,37.06325 -130.0349,40.61598 l -27.0901,-0.2271 c 0,0 13.15729,-7.85554 19.6881,-11.86199 11.35795,-6.96775 24.77226,-11.47296 33.9053,-21.17555 17.23624,-18.31111 35.9721,-54.84187 36.0242,-66.28515 0.04,-8.69047 -2.9406,-10.16978 -19.9583,-9.90734 -18.0823,0.2789 -21.0596,2.21266 -30.9809,20.12315 z"
     id="path349-7"
     inkscape:connector-curvature="0"
     sodipodi:nodetypes="ccsssccscaacccc" />
  <path
     style="fill:#000000;stroke-width:4.95366955"
     d="m 152.72666,265.94793 c -8.1889,13.46561 -12.7171,15.968 -29.6641,16.39318 -16.8276,0.42205 -19.9999,-1.06073 -19.9999,-9.34926 0,-28.88871 37.7396,-75.83701 72.7063,-90.44707 24.4213,-10.20387 20.0789,-13.48766 -13.2321,-10.00597 C 87.709157,180.35986 -0.35184275,227.0693 0.00105725,294.7716 c 0.1931,37.05627 8.61939995,57.36141 35.60059975,85.78745 24.971,26.30829 90.282503,37.06325 130.034903,40.61598 l 27.0901,-0.2271 c 0,0 -13.15729,-7.85554 -19.6881,-11.86199 -11.35795,-6.96775 -24.77226,-11.47296 -33.9053,-21.17555 -17.23624,-18.31111 -35.9721,-54.84187 -36.0242,-66.28515 -0.04,-8.69047 2.9406,-10.16978 19.9583,-9.90734 18.0823,0.2789 21.0596,2.21266 30.9809,20.12315 z"
     id="path349-7-3"
     inkscape:connector-curvature="0"
     sodipodi:nodetypes="ccsssccscaacccc" />
</svg>
