<?xml version="1.0" encoding="UTF-8" standalone="no"?>
<!-- Created with Inkscape (http://www.inkscape.org/) -->

<svg
   xmlns:dc="http://purl.org/dc/elements/1.1/"
   xmlns:cc="http://creativecommons.org/ns#"
   xmlns:rdf="http://www.w3.org/1999/02/22-rdf-syntax-ns#"
   xmlns:svg="http://www.w3.org/2000/svg"
   xmlns="http://www.w3.org/2000/svg"
   xmlns:sodipodi="http://sodipodi.sourceforge.net/DTD/sodipodi-0.dtd"
   xmlns:inkscape="http://www.inkscape.org/namespaces/inkscape"
   version="1.1"
   id="svg80"
   width="795.45331"
   height="677.15033"
   viewBox="0 0 795.45329 677.15034"
   sodipodi:docname="meeple_goldorak_mold.svg"
   inkscape:version="0.92.4 5da689c313, 2019-01-14">
  <metadata
     id="metadata86">
    <rdf:RDF>
      <cc:Work
         rdf:about="">
        <dc:format>image/svg+xml</dc:format>
        <dc:type
           rdf:resource="http://purl.org/dc/dcmitype/StillImage" />
        <dc:title />
      </cc:Work>
    </rdf:RDF>
  </metadata>
  <defs
     id="defs84" />
  <sodipodi:namedview
     pagecolor="#ffffff"
     bordercolor="#666666"
     borderopacity="1"
     objecttolerance="10"
     gridtolerance="10"
     guidetolerance="10"
     inkscape:pageopacity="0"
     inkscape:pageshadow="2"
     inkscape:window-width="1920"
     inkscape:window-height="1012"
     id="namedview82"
     showgrid="false"
     inkscape:zoom="0.81621109"
     inkscape:cx="528.75358"
     inkscape:cy="400.67288"
     inkscape:window-x="1280"
     inkscape:window-y="0"
     inkscape:window-maximized="1"
     inkscape:current-layer="svg80"
     showguides="true">
    <inkscape:grid
       type="xygrid"
       id="grid60"
       originx="742.72662"
       originy="-58.797601" />
  </sodipodi:namedview>
  <path
     style="fill:#000000;stroke-width:1.33333337"
     d="m 115.24732,674.90035 c -3.76063,-2.39123 -4.29973,-7.8408 -1.76314,-17.82311 3.27394,-12.88401 20.4428,-59.41619 28.2123,-76.46268 1.33691,-2.93333 5.99031,-14.63333 10.34071,-26 4.3505,-11.36667 12.1754,-31.16667 17.3887,-44 5.2132,-12.83334 10.75699,-26.63334 12.31949,-30.66667 6.5845,-16.99753 31.3821,-60.7297 41.8195,-83.33334 6.476,-14.02484 6.9136,-15.6658 5.3051,-19.89648 -2.9025,-7.6339 -55.74411,-8.67707 -100.60021,-13.19263 -74.39308,4.35408 -52.221129,-130.87777 -23.75356,-144.54797 45.47502,-11.8799 115.46129,-11.42212 169.66541,-30.49339 4.6556,-1.63803 9.26581,-3.8582 13.00206,-7.08283 0.68197,-0.58858 1.2715,-1.33051 1.6259,-2.15871 2.04432,-4.77734 2.12197,-13.88725 2.53207,-15.38208 0.41,-1.49484 -0.41687,-9.49137 0.0111,-11.88883 0.4279,-2.39746 0.8855,-5.32171 1.4142,-8.92371 0.5971,-4.06838 1.2737,-7.95535 2.041,-11.68435 0.7672,-3.72901 1.625,-7.30006 2.5844,-10.73663 0.9595,-3.43658 2.0206,-6.73867 3.1944,-9.92974 1.1738,-3.19108 2.4603,-6.27114 3.8706,-9.26366 1.4103,-2.992517 2.9443,-5.897487 4.6132,-8.738397 1.6689,-2.84091 3.4726,-5.61774 5.4222,-8.35398 1.9496,-2.73623 4.0451,-5.43187 6.2975,-8.11037 2.2525,-2.67851 4.6619,-5.339883 7.2393,-8.007603 3.6298,-3.75695 6.9396,-6.97951 10.0896,-9.77798 3.1499,-2.79847 6.14,-5.17284 9.1303,-7.23339 2.9902,-2.06056 5.9806,-3.80729 9.1313,-5.3505 3.1506,-1.54321 6.4614,-2.88288 10.0925,-4.1293 5.1268,-1.75987 8.2438,-2.70589 12.482,-3.21198 2.119,-0.25304 4.5184,-0.39608 7.5893,-0.47587 3.07103,-0.0798 6.81363,-0.0963 11.61933,-0.0963 5.6389,0 10.1523,0.059 14.0143,0.27545 3.862,0.21645 7.0726,0.59038 10.1063,1.22026 3.0337,0.62989 5.8904,1.51573 9.0444,2.756 3.1539,1.24028 6.6052,2.83499 10.8282,4.88262 3.2602,1.58083 6.3397,3.53642 9.9978,6.47721 3.6581,2.9408 7.8948,6.86681 13.4694,12.38847 2.9113,2.88367 5.6083,5.710803 8.1088,8.518023 2.5006,2.80722 4.8049,5.59452 6.9308,8.39851 2.1259,2.804 4.0734,5.62469 5.8607,8.49869 1.7872,2.874 3.4141,5.80131 4.8987,8.818537 1.4846,3.01723 2.8269,6.12438 4.045,9.35807 1.218,3.23369 2.3117,6.59391 3.2991,10.11729 0.9875,3.52338 1.8686,7.2099 2.6615,11.09618 0.793,3.88629 1.4976,7.97233 2.132,12.29475 0.722,4.91934 1.3358,8.73405 2.0153,11.74535 0.6796,3.0113 1.4249,23.2192 2.4098,24.92494 0.985,1.70573 2.2097,2.9093 3.848,3.91195 1.6384,1.00265 4.12728,2.06278 6.3299,2.7064 55.25519,16.14594 118.24023,12.24291 170.36483,28.28899 35.44385,61.95625 31.25222,137.29233 -34.51563,143.97831 -36.4777,3.94207 -82.0097,9.22307 -87.5245,13.96669 -4.9597,4.26611 -4.5194,9.7363 1.8817,23.37734 9.8287,20.94577 35.1311,65.72071 42.2122,84 1.5625,4.03333 7.0979,17.83333 12.3009,30.66667 5.203,12.83333 13.0553,32.63333 17.4494,44 4.3942,11.36667 9.3569,23.66667 11.0282,27.33333 6.3697,13.97439 24.4157,63.36364 27.6416,75.65097 2.4464,9.31826 -2.52961,15.96698 -6.27591,18.34906 -0.8708,0.55369 -34.07939,-0.0317 -96.22939,-0.0204 -112.0897,0.0203 -111.06411,2.72754 -113.77061,0.0204 -3.0976,-3.09754 -10.61905,-35.63377 -18.54029,-57.55771 -7.92124,-21.92394 -12.289,-45.17946 -24.49002,-64.7746 -4.5657,-7.33262 -9.07451,-18.6546 -17.70833,-18.91905 -9.84308,-0.3015 -15.77131,12.26209 -21.4708,20.29285 -13.4005,18.88176 -25.43997,54.83995 -28.37585,63.4008 -4.23092,12.33705 -13.2681,51.11307 -16.5534,54.55765 l -2.8613,3 -112.9481,-0.0204 c -62.12139,-0.0107 -101.18112,0.57416 -102.05191,0.0205 z"
     id="path195-3"
     inkscape:connector-curvature="0"
     sodipodi:nodetypes="csccccccccaaasscssssssscsssssssssscssssssssscsssacccccsccscsczaaasccccc" />
  <path
     style="fill:#000000;stroke-width:4.95366955"
     d="m 270.72667,165.94793 c -20.54549,0 -65.38194,-22.82948 -70.47669,-43.12853 C 191.6756,106.31577 186.8244,106.55412 173.51431,97.068238 152.70672,81.195887 128.59772,-32.031751 181.40542,-6.77605 c 52.54222,27.56203 48.12223,40.69692 103.96802,40.69692 28.21245,-0.82285 41.48391,2.145553 54.59082,-22.84939 1.93723,-6.10362 15.45019,-8.51338 18.42863,-2.42433 11.73062,7.19357 17.55052,0.512783 25.86278,-15.018907 5.31797,-9.971035 18.65071,-9.681023 23.96925,-0.291117 5.52144,14.282853 13.58681,22.81833 23.58569,16.424587 2.84038,-7.059621 20.52573,-4.652376 21.23722,2.747167 1.68462,17.520087 26.05325,21.41199 57.9009,21.41199 44.88278,0 49.04247,-0.89141 70.5087,-15.11003 30.99063,-12.733888 46.97751,30.099392 14.33422,72.041047 -7.81689,9.970893 -18.25482,26.751353 -23.19536,37.289933 -10.08186,21.50552 -32.80573,37.7598 -52.82796,37.78759 z"
     id="path349"
     inkscape:connector-curvature="0"
     sodipodi:nodetypes="ccccccccccssccccc" />
  <path
     style="fill:#000000;stroke-width:5.60097837"
     d="m 177.97091,261.49758 c -10.46886,13.46561 11.7422,15.968 -9.92319,16.39318 -21.51276,0.42205 -25.37762,-1.06022 -25.56829,-9.34926 -0.84787,-36.8598 13.20234,-50.83723 39.60818,-90.44707 9.99101,-19.27492 -0.22048,-38.98806 -32.39197,-35.50637 -101.787138,12.72175 -139.42343,80.64348 -138.972275,147.73319 1.543219,76.51685 49.542578,133.81538 107.514195,146.45211 40.93831,9.85932 76.51929,-3.41721 56.23358,-38.87622 -11.12412,-31.42288 -34.12299,-50.25308 -32.02565,-82.45491 -0.0511,-8.69047 3.85258,-8.43712 25.60836,-8.17468 23.11679,0.2789 -1.07697,2.21266 11.60662,20.12315 z"
     id="path349-7-3"
     inkscape:connector-curvature="0"
     sodipodi:nodetypes="ccsccccccccc" />
  <path
     style="fill:#000000;stroke-width:5.60097837"
     d="m 612.92598,257.20835 c 10.46886,13.46561 -11.7422,15.968 9.92319,16.39318 21.51276,0.42205 25.37762,-1.06022 25.56829,-9.34926 0.84787,-36.8598 -13.20234,-50.83723 -39.60818,-90.44707 -9.99101,-19.27492 0.22048,-38.98806 32.39197,-35.50637 101.78714,12.72175 139.42343,80.64348 138.97228,147.73319 -1.54322,76.51685 -49.54258,133.81538 -107.51421,146.45211 -40.9383,9.85932 -76.51928,-3.41721 -56.23357,-38.87622 17.24999,-30.19771 34.12299,-50.25308 32.02565,-82.45491 0.0511,-8.69047 -3.85258,-8.43712 -25.60836,-8.17468 -23.11679,0.2789 1.07697,2.21266 -11.60662,20.12315 z"
     id="path349-7-3-3"
     inkscape:connector-curvature="0"
     sodipodi:nodetypes="ccsccccccccc" />
  <path
     style="fill:#000000;stroke-width:4.95366955"
     d="m 519.47683,167.06249 c 20.54549,0 65.38194,-22.82948 70.47669,-43.12853 8.57438,-16.50363 13.42558,-16.26528 26.73567,-25.751157 20.80759,-15.87235 44.91659,-129.099991 -7.89111,-103.844289 -52.54222,27.562029 -48.12223,40.696919 -103.96802,40.696919 -28.21245,-0.82285 -41.48391,2.14555 -54.59082,-22.84939 -1.93723,-6.10362 -15.45019,-8.51338 -18.42863,-2.42433 -11.73062,7.19357 -17.55052,0.512783 -25.86278,-15.018906 -5.31797,-9.971035 -18.65071,-9.681023 -23.96925,-0.291117 -5.52144,14.282852 -13.58681,22.818329 -23.58569,16.424586 -2.84038,-7.059621 -20.52573,-4.652376 -21.23722,2.747167 -1.68462,17.52009 -26.05325,21.41199 -57.9009,21.41199 -44.88278,0 -49.04247,-0.89141 -70.5087,-15.11003 -30.99063,-12.733888 -46.97751,30.09939 -14.33422,72.04105 7.81689,9.970887 18.25482,26.751347 23.19536,37.289927 10.08186,21.50552 32.80573,37.7598 52.82796,37.78759 z"
     id="path349-7"
     inkscape:connector-curvature="0"
     sodipodi:nodetypes="ccccccccccssccccc" />
</svg>
