  0
SECTION
  2
HEADER
  9
$ACADVER
  1
AC1014
  9
$HANDSEED
  5
FFFF
  9
$MEASUREMENT
 70
     1
  0
ENDSEC
  0
SECTION
  2
TABLES
  0
TABLE
  2
VPORT
  5
8
330
0
100
AcDbSymbolTable
 70
     4
  0
VPORT
  5
2E
330
8
100
AcDbSymbolTableRecord
100
AcDbViewportTableRecord
  2
*ACTIVE
 70
     0
 10
0.0
 20
0.0
 11
1.0
 21
1.0
 12
210.0
 22
148.5
 13
0.0
 23
0.0
 14
10.0
 24
10.0
 15
10.0
 25
10.0
 16
0.0
 26
0.0
 36
1.0
 17
0.0
 27
0.0
 37
0.0
 40
341.0
 41
1.24
 42
50.0
 43
0.0
 44
0.0
 50
0.0
 51
0.0
 71
     0
 72
   100
 73
     1
 74
     3
 75
     0
 76
     0
 77
     0
 78
     0
  0
ENDTAB
  0
TABLE
  2
LTYPE
  5
5
330
0
100
AcDbSymbolTable
 70
     1
  0
LTYPE
  5
14
330
5
100
AcDbSymbolTableRecord
100
AcDbLinetypeTableRecord
  2
BYBLOCK
 70
     0
  3

 72
    65
 73
     0
 40
0.0
  0
LTYPE
  5
15
330
5
100
AcDbSymbolTableRecord
100
AcDbLinetypeTableRecord
  2
BYLAYER
 70
     0
  3

 72
    65
 73
     0
 40
0.0
  0
LTYPE
  5
16
330
5
100
AcDbSymbolTableRecord
100
AcDbLinetypeTableRecord
  2
CONTINUOUS
 70
     0
  3
Solid line
 72
    65
 73
     0
 40
0.0
  0
ENDTAB
  0
TABLE
  2
LAYER
  5
2
100
AcDbSymbolTable
 70
1
  0
LAYER
  5
50
100
AcDbSymbolTableRecord
100
AcDbLayerTableRecord
  2
0
 70
0
  6
CONTINUOUS
  0
ENDTAB
  0
TABLE
  2
STYLE
  5
3
330
0
100
AcDbSymbolTable
 70
     1
  0
STYLE
  5
11
330
3
100
AcDbSymbolTableRecord
100
AcDbTextStyleTableRecord
  2
STANDARD
 70
     0
 40
0.0
 41
1.0
 50
0.0
 71
     0
 42
2.5
  3
txt
  4

  0
ENDTAB
  0
TABLE
  2
VIEW
  5
6
330
0
100
AcDbSymbolTable
 70
     0
  0
ENDTAB
  0
TABLE
  2
UCS
  5
7
330
0
100
AcDbSymbolTable
 70
     0
  0
ENDTAB
  0
TABLE
  2
APPID
  5
9
330
0
100
AcDbSymbolTable
 70
     2
  0
APPID
  5
12
330
9
100
AcDbSymbolTableRecord
100
AcDbRegAppTableRecord
  2
ACAD
 70
     0
  0
ENDTAB
  0
TABLE
  2
DIMSTYLE
  5
A
330
0
100
AcDbSymbolTable
 70
     1
  0
DIMSTYLE
105
27
330
A
100
AcDbSymbolTableRecord
100
AcDbDimStyleTableRecord
  2
ISO-25
 70
     0
  3

  4

  5

  6

  7

 40
1.0
 41
2.5
 42
0.625
 43
3.75
 44
1.25
 45
0.0
 46
0.0
 47
0.0
 48
0.0
140
2.5
141
2.5
142
0.0
143
0.03937007874016
144
1.0
145
0.0
146
1.0
147
0.625
 71
     0
 72
     0
 73
     0
 74
     0
 75
     0
 76
     0
 77
     1
 78
     8
170
     0
171
     3
172
     1
173
     0
174
     0
175
     0
176
     0
177
     0
178
     0
270
     2
271
     2
272
     2
273
     2
274
     3
340
11
275
     0
280
     0
281
     0
282
     0
283
     0
284
     8
285
     0
286
     0
287
     3
288
     0
  0
ENDTAB
  0
TABLE
  2
BLOCK_RECORD
  5
1
330
0
100
AcDbSymbolTable
 70
     1
  0
BLOCK_RECORD
  5
1F
330
1
100
AcDbSymbolTableRecord
100
AcDbBlockTableRecord
  2
*MODEL_SPACE
  0
BLOCK_RECORD
  5
1B
330
1
100
AcDbSymbolTableRecord
100
AcDbBlockTableRecord
  2
*PAPER_SPACE
  0
ENDTAB
  0
ENDSEC
  0
SECTION
  2
BLOCKS
  0
BLOCK
  5
20
330
1F
100
AcDbEntity
  8
0
100
AcDbBlockBegin
  2
*MODEL_SPACE
 70
     0
 10
0.0
 20
0.0
 30
0.0
  3
*MODEL_SPACE
  1

  0
ENDBLK
  5
21
330
1F
100
AcDbEntity
  8
0
100
AcDbBlockEnd
  0
BLOCK
  5
1C
330
1B
100
AcDbEntity
 67
     1
  8
0
100
AcDbBlockBegin
  2
*PAPER_SPACE
  1

  0
ENDBLK
  5
1D
330
1B
100
AcDbEntity
 67
     1
  8
0
100
AcDbBlockEnd
  0
ENDSEC
  0
SECTION
  2
ENTITIES
  0
LWPOLYLINE
  5
100
100
AcDbEntity
  8
0
 62
7
100
AcDbPolyline
 90
584
 70
1
 10
82.701929
 20
172.139896
 30
0.0
 10
82.636019
 20
172.138944
 30
0.0
 10
82.570590
 20
172.137515
 30
0.0
 10
82.505658
 20
172.135636
 30
0.0
 10
82.441230
 20
172.133282
 30
0.0
 10
82.377314
 20
172.130472
 30
0.0
 10
82.313931
 20
172.127191
 30
0.0
 10
82.251082
 20
172.123439
 30
0.0
 10
82.188783
 20
172.119211
 30
0.0
 10
80.227345
 20
171.941491
 30
0.0
 10
78.454065
 20
171.698736
 30
0.0
 10
76.833921
 20
171.380041
 30
0.0
 10
75.331894
 20
170.974497
 30
0.0
 10
73.912963
 20
170.471198
 30
0.0
 10
72.542104
 20
169.859237
 30
0.0
 10
71.184296
 20
169.127707
 30
0.0
 10
69.804523
 20
168.265700
 30
0.0
 10
69.104367
 20
167.819121
 30
0.0
 10
68.486274
 20
167.444027
 30
0.0
 10
67.939023
 20
167.104004
 30
0.0
 10
67.451385
 20
166.762643
 30
0.0
 10
67.012137
 20
166.383532
 30
0.0
 10
66.610050
 20
165.930259
 30
0.0
 10
66.233903
 20
165.366413
 30
0.0
 10
65.872466
 20
164.655584
 30
0.0
 10
65.871672
 20
164.655820
 30
0.0
 10
65.870878
 20
164.656076
 30
0.0
 10
65.870085
 20
164.656340
 30
0.0
 10
65.869291
 20
164.656605
 30
0.0
 10
65.868497
 20
164.656869
 30
0.0
 10
65.867703
 20
164.657134
 30
0.0
 10
65.866910
 20
164.657389
 30
0.0
 10
65.865851
 20
164.657624
 30
0.0
 10
65.469765
 20
163.958620
 30
0.0
 10
65.094506
 20
163.497342
 30
0.0
 10
64.730085
 20
163.231475
 30
0.0
 10
64.366510
 20
163.118703
 30
0.0
 10
63.993789
 20
163.116719
 30
0.0
 10
63.601928
 20
163.183194
 30
0.0
 10
63.180936
 20
163.275821
 30
0.0
 10
62.720823
 20
163.352284
 30
0.0
 10
61.084971
 20
163.473562
 30
0.0
 10
59.758929
 20
163.449498
 30
0.0
 10
58.694069
 20
163.307406
 30
0.0
 10
57.841756
 20
163.074593
 30
0.0
 10
57.153360
 20
162.778371
 30
0.0
 10
56.580246
 20
162.446050
 30
0.0
 10
56.073783
 20
162.104940
 30
0.0
 10
55.585341
 20
161.782353
 30
0.0
 10
54.865439
 20
161.276114
 30
0.0
 10
54.233292
 20
160.700165
 30
0.0
 10
53.695322
 20
160.066181
 30
0.0
 10
53.257950
 20
159.385838
 30
0.0
 10
52.927599
 20
158.670809
 30
0.0
 10
52.710689
 20
157.932770
 30
0.0
 10
52.613645
 20
157.183394
 30
0.0
 10
52.642886
 20
156.434359
 30
0.0
 10
52.604948
 20
155.312012
 30
0.0
 10
52.560971
 20
154.298020
 30
0.0
 10
52.508899
 20
153.364578
 30
0.0
 10
52.446663
 20
152.483883
 30
0.0
 10
52.372199
 20
151.628131
 30
0.0
 10
52.283445
 20
150.769517
 30
0.0
 10
52.178336
 20
149.880238
 30
0.0
 10
52.054808
 20
148.932491
 30
0.0
 10
51.928924
 20
147.917241
 30
0.0
 10
51.828552
 20
146.924200
 30
0.0
 10
51.751000
 20
145.938214
 30
0.0
 10
51.693580
 20
144.944126
 30
0.0
 10
51.653601
 20
143.926781
 30
0.0
 10
51.628387
 20
142.871023
 30
0.0
 10
51.615210
 20
141.761695
 30
0.0
 10
51.611427
 20
140.583646
 30
0.0
 10
51.655649
 20
139.640938
 30
0.0
 10
51.786192
 20
138.860602
 30
0.0
 10
51.999875
 20
138.201837
 30
0.0
 10
52.293517
 20
137.623834
 30
0.0
 10
52.663937
 20
137.085790
 30
0.0
 10
53.107950
 20
136.546898
 30
0.0
 10
53.622377
 20
135.966352
 30
0.0
 10
54.204034
 20
135.303348
 30
0.0
 10
54.315114
 20
135.206093
 30
0.0
 10
54.473655
 20
135.111692
 30
0.0
 10
54.671230
 20
135.019786
 30
0.0
 10
54.899409
 20
134.930013
 30
0.0
 10
55.149771
 20
134.842013
 30
0.0
 10
55.413884
 20
134.755425
 30
0.0
 10
55.683325
 20
134.669891
 30
0.0
 10
55.949665
 20
134.585047
 30
0.0
 10
55.918074
 20
134.218855
 30
0.0
 10
55.879968
 20
133.821883
 30
0.0
 10
55.832941
 20
133.405312
 30
0.0
 10
55.774582
 20
132.980325
 30
0.0
 10
55.702486
 20
132.558106
 30
0.0
 10
55.614239
 20
132.149835
 30
0.0
 10
55.507438
 20
131.766694
 30
0.0
 10
55.379673
 20
131.419865
 30
0.0
 10
55.341655
 20
131.338802
 30
0.0
 10
55.298229
 20
131.260097
 30
0.0
 10
55.249842
 20
131.183955
 30
0.0
 10
55.196941
 20
131.110578
 30
0.0
 10
55.139982
 20
131.040175
 30
0.0
 10
55.079405
 20
130.972947
 30
0.0
 10
55.015664
 20
130.909100
 30
0.0
 10
54.949209
 20
130.848842
 30
0.0
 10
54.567603
 20
130.542457
 30
0.0
 10
54.166193
 20
130.261565
 30
0.0
 10
53.747961
 20
130.003715
 30
0.0
 10
53.315902
 20
129.766466
 30
0.0
 10
52.872997
 20
129.547367
 30
0.0
 10
52.422237
 20
129.343976
 30
0.0
 10
51.966611
 20
129.153849
 30
0.0
 10
51.509107
 20
128.974536
 30
0.0
 10
50.796968
 20
128.729960
 30
0.0
 10
50.072118
 20
128.527403
 30
0.0
 10
49.337743
 20
128.356141
 30
0.0
 10
48.597032
 20
128.205442
 30
0.0
 10
47.853169
 20
128.064581
 30
0.0
 10
47.109338
 20
127.922830
 30
0.0
 10
46.368732
 20
127.769459
 30
0.0
 10
45.634532
 20
127.593742
 30
0.0
 10
44.402629
 20
127.272733
 30
0.0
 10
43.170710
 20
126.950058
 30
0.0
 10
41.940014
 20
126.622229
 30
0.0
 10
40.711774
 20
126.285755
 30
0.0
 10
39.487224
 20
125.937143
 30
0.0
 10
38.267595
 20
125.572902
 30
0.0
 10
37.054126
 20
125.189544
 30
0.0
 10
35.848049
 20
124.783578
 30
0.0
 10
32.498006
 20
123.618017
 30
0.0
 10
29.147042
 20
122.438256
 30
0.0
 10
25.806152
 20
121.225298
 30
0.0
 10
22.486334
 20
119.960147
 30
0.0
 10
19.198588
 20
118.623806
 30
0.0
 10
15.953912
 20
117.197278
 30
0.0
 10
12.763304
 20
115.661565
 30
0.0
 10
9.637762
 20
113.997672
 30
0.0
 10
9.124796
 20
113.693708
 30
0.0
 10
8.615864
 20
113.363333
 30
0.0
 10
8.114340
 20
113.013401
 30
0.0
 10
7.623598
 20
112.650766
 30
0.0
 10
7.147012
 20
112.282278
 30
0.0
 10
6.687956
 20
111.914793
 30
0.0
 10
6.249803
 20
111.555166
 30
0.0
 10
5.835927
 20
111.210247
 30
0.0
 10
5.443814
 20
110.875919
 30
0.0
 10
5.068327
 20
110.543182
 30
0.0
 10
4.708907
 20
110.211567
 30
0.0
 10
4.364995
 20
109.880612
 30
0.0
 10
4.036032
 20
109.549852
 30
0.0
 10
3.721460
 20
109.218818
 30
0.0
 10
3.420719
 20
108.887049
 30
0.0
 10
3.133250
 20
108.554076
 30
0.0
 10
2.858483
 20
108.219423
 30
0.0
 10
2.595857
 20
107.882622
 30
0.0
 10
2.344826
 20
107.543209
 30
0.0
 10
2.104844
 20
107.200730
 30
0.0
 10
1.875363
 20
106.854721
 30
0.0
 10
1.655840
 20
106.504725
 30
0.0
 10
1.445726
 20
106.150284
 30
0.0
 10
1.244476
 20
105.790937
 30
0.0
 10
0.940013
 20
105.207999
 30
0.0
 10
0.698394
 20
104.675726
 30
0.0
 10
0.510643
 20
104.151034
 30
0.0
 10
0.367785
 20
103.590840
 30
0.0
 10
0.260841
 20
102.952061
 30
0.0
 10
0.180836
 20
102.191617
 30
0.0
 10
0.118794
 20
101.266425
 30
0.0
 10
0.065737
 20
100.133402
 30
0.0
 10
0.019764
 20
98.919256
 30
0.0
 10
0.000560
 20
97.962467
 30
0.0
 10
0.017641
 20
97.200549
 30
0.0
 10
0.080524
 20
96.571015
 30
0.0
 10
0.198726
 20
96.011384
 30
0.0
 10
0.381763
 20
95.459170
 30
0.0
 10
0.639152
 20
94.851888
 30
0.0
 10
0.980410
 20
94.127051
 30
0.0
 10
1.475294
 20
93.206219
 30
0.0
 10
2.079614
 20
92.267512
 30
0.0
 10
2.779122
 20
91.326881
 30
0.0
 10
3.559573
 20
90.400286
 30
0.0
 10
4.406720
 20
89.503677
 30
0.0
 10
5.306316
 20
88.653010
 30
0.0
 10
6.244115
 20
87.864239
 30
0.0
 10
7.205869
 20
87.153317
 30
0.0
 10
8.273390
 20
86.456653
 30
0.0
 10
9.307597
 20
85.865296
 30
0.0
 10
10.338054
 20
85.369059
 30
0.0
 10
11.394326
 20
84.957759
 30
0.0
 10
12.505979
 20
84.621207
 30
0.0
 10
13.702577
 20
84.349212
 30
0.0
 10
15.013686
 20
84.131595
 30
0.0
 10
16.468870
 20
83.958164
 30
0.0
 10
20.835345
 20
83.492304
 30
0.0
 10
24.969611
 20
82.990233
 30
0.0
 10
28.775631
 20
82.451126
 30
0.0
 10
32.157366
 20
81.874168
 30
0.0
 10
35.018776
 20
81.258535
 30
0.0
 10
37.263829
 20
80.603406
 30
0.0
 10
38.796479
 20
79.907959
 30
0.0
 10
39.520693
 20
79.171375
 30
0.0
 10
39.652829
 20
78.775992
 30
0.0
 10
39.721806
 20
78.398421
 30
0.0
 10
39.715244
 20
77.992233
 30
0.0
 10
39.620793
 20
77.511001
 30
0.0
 10
39.426076
 20
76.908296
 30
0.0
 10
39.118723
 20
76.137697
 30
0.0
 10
38.686364
 20
75.152772
 30
0.0
 10
38.116634
 20
73.907095
 30
0.0
 10
36.919794
 20
71.427074
 30
0.0
 10
35.467772
 20
68.571357
 30
0.0
 10
33.861555
 20
65.488355
 30
0.0
 10
32.202133
 20
62.326473
 30
0.0
 10
30.590498
 20
59.234121
 30
0.0
 10
29.127638
 20
56.359704
 30
0.0
 10
27.914539
 20
53.851631
 30
0.0
 10
27.052193
 20
51.858313
 30
0.0
 10
26.850007
 20
51.342555
 30
0.0
 10
26.562418
 20
50.617830
 30
0.0
 10
26.202802
 20
49.717413
 30
0.0
 10
25.784536
 20
48.674579
 30
0.0
 10
25.320993
 20
47.522607
 30
0.0
 10
24.825546
 20
46.294766
 30
0.0
 10
24.311572
 20
45.024337
 30
0.0
 10
23.792443
 20
43.744595
 30
0.0
 10
23.245942
 20
42.392844
 30
0.0
 10
22.653531
 20
40.916035
 30
0.0
 10
22.034080
 20
39.361918
 30
0.0
 10
21.406461
 20
37.778241
 30
0.0
 10
20.789542
 20
36.212757
 30
0.0
 10
20.202194
 20
34.713210
 30
0.0
 10
19.663287
 20
33.327351
 30
0.0
 10
19.191690
 20
32.102929
 30
0.0
 10
18.758171
 20
30.975711
 30
0.0
 10
18.328375
 20
29.868440
 30
0.0
 10
17.913519
 20
28.809332
 30
0.0
 10
17.524820
 20
27.826600
 30
0.0
 10
17.173495
 20
26.948462
 30
0.0
 10
16.870762
 20
26.203133
 30
0.0
 10
16.627838
 20
25.618827
 30
0.0
 10
16.455940
 20
25.223762
 30
0.0
 10
15.580517
 20
23.199361
 30
0.0
 10
14.544160
 20
20.639326
 30
0.0
 10
13.419100
 20
17.739408
 30
0.0
 10
12.277566
 20
14.695364
 30
0.0
 10
11.191787
 20
11.702940
 30
0.0
 10
10.233994
 20
8.957898
 30
0.0
 10
9.476415
 20
6.655983
 30
0.0
 10
8.991280
 20
4.992956
 30
0.0
 10
8.777829
 20
4.057966
 30
0.0
 10
8.641133
 20
3.230817
 30
0.0
 10
8.581639
 20
2.506944
 30
0.0
 10
8.599797
 20
1.881784
 30
0.0
 10
8.696055
 20
1.350770
 30
0.0
 10
8.870862
 20
0.909339
 30
0.0
 10
9.124667
 20
0.552927
 30
0.0
 10
9.457919
 20
0.276967
 30
0.0
 10
9.539890
 20
0.242343
 30
0.0
 10
9.621862
 20
0.207720
 30
0.0
 10
9.703834
 20
0.173097
 30
0.0
 10
9.785805
 20
0.138473
 30
0.0
 10
9.867777
 20
0.103850
 30
0.0
 10
9.949749
 20
0.069226
 30
0.0
 10
10.031721
 20
0.034603
 30
0.0
 10
10.113692
 20
-0.000020
 30
0.0
 10
10.899062
 20
-0.103068
 30
0.0
 10
12.894253
 20
-0.270882
 30
0.0
 10
15.817079
 20
-0.456263
 30
0.0
 10
19.385357
 20
-0.612017
 30
0.0
 10
23.316903
 20
-0.690951
 30
0.0
 10
27.329533
 20
-0.645866
 30
0.0
 10
31.141065
 20
-0.429563
 30
0.0
 10
34.469312
 20
0.005147
 30
0.0
 10
35.996616
 20
0.429758
 30
0.0
 10
37.474793
 20
1.064875
 30
0.0
 10
38.921320
 20
1.826353
 30
0.0
 10
40.353669
 20
2.630052
 30
0.0
 10
41.789319
 20
3.391827
 30
0.0
 10
43.245744
 20
4.027539
 30
0.0
 10
44.740415
 20
4.453041
 30
0.0
 10
46.290813
 20
4.584195
 30
0.0
 10
47.640902
 20
4.391042
 30
0.0
 10
48.926952
 20
3.938975
 30
0.0
 10
50.168914
 20
3.303186
 30
0.0
 10
51.386743
 20
2.558863
 30
0.0
 10
52.600390
 20
1.781192
 30
0.0
 10
53.829808
 20
1.045362
 30
0.0
 10
55.094953
 20
0.426562
 30
0.0
 10
56.415777
 20
-0.000020
 30
0.0
 10
58.283918
 20
-0.366249
 30
0.0
 10
60.174871
 20
-0.631279
 30
0.0
 10
62.081879
 20
-0.798313
 30
0.0
 10
63.998177
 20
-0.870545
 30
0.0
 10
65.917004
 20
-0.851177
 30
0.0
 10
67.831600
 20
-0.743407
 30
0.0
 10
69.735203
 20
-0.550433
 30
0.0
 10
71.621050
 20
-0.275457
 30
0.0
 10
73.269465
 20
0.142381
 30
0.0
 10
74.869094
 20
0.775987
 30
0.0
 10
76.437179
 20
1.541379
 30
0.0
 10
77.990957
 20
2.354581
 30
0.0
 10
79.547673
 20
3.131614
 30
0.0
 10
81.124569
 20
3.788498
 30
0.0
 10
82.738887
 20
4.241258
 30
0.0
 10
84.407865
 20
4.405911
 30
0.0
 10
85.830937
 20
4.255260
 30
0.0
 10
87.205805
 20
3.862346
 30
0.0
 10
88.547457
 20
3.296812
 30
0.0
 10
89.870881
 20
2.628300
 30
0.0
 10
91.191073
 20
1.926448
 30
0.0
 10
92.523020
 20
1.260899
 30
0.0
 10
93.881711
 20
0.701292
 30
0.0
 10
95.282137
 20
0.317273
 30
0.0
 10
97.388054
 20
-0.043489
 30
0.0
 10
99.514219
 20
-0.321330
 30
0.0
 10
101.654129
 20
-0.511838
 30
0.0
 10
103.801279
 20
-0.610605
 30
0.0
 10
105.949171
 20
-0.613250
 30
0.0
 10
108.091299
 20
-0.515296
 30
0.0
 10
110.221163
 20
-0.312369
 30
0.0
 10
112.332260
 20
-0.000052
 30
0.0
 10
113.878247
 20
0.410372
 30
0.0
 10
115.374355
 20
1.032945
 30
0.0
 10
116.838212
 20
1.784819
 30
0.0
 10
118.287446
 20
2.583152
 30
0.0
 10
119.739683
 20
3.345096
 30
0.0
 10
121.212553
 20
3.987809
 30
0.0
 10
122.723683
 20
4.428448
 30
0.0
 10
124.290702
 20
4.584164
 30
0.0
 10
125.783259
 20
4.408824
 30
0.0
 10
127.217650
 20
3.962671
 30
0.0
 10
128.612096
 20
3.324387
 30
0.0
 10
129.984816
 20
2.572666
 30
0.0
 10
131.354029
 20
1.786190
 30
0.0
 10
132.737953
 20
1.043650
 30
0.0
 10
134.154813
 20
0.423728
 30
0.0
 10
135.622827
 20
0.005115
 30
0.0
 10
138.534337
 20
-0.391000
 30
0.0
 10
141.868965
 20
-0.589187
 30
0.0
 10
145.380195
 20
-0.631909
 30
0.0
 10
148.821517
 20
-0.561643
 30
0.0
 10
151.946415
 20
-0.420853
 30
0.0
 10
154.508378
 20
-0.252012
 30
0.0
 10
156.260891
 20
-0.097588
 30
0.0
 10
156.957443
 20
-0.000052
 30
0.0
 10
157.339920
 20
0.288391
 30
0.0
 10
157.726066
 20
0.677728
 30
0.0
 10
158.089050
 20
1.162998
 30
0.0
 10
158.402058
 20
1.739250
 30
0.0
 10
158.638259
 20
2.401526
 30
0.0
 10
158.770834
 20
3.144870
 30
0.0
 10
158.772951
 20
3.964330
 30
0.0
 10
158.617799
 20
4.854949
 30
0.0
 10
158.127629
 20
6.496752
 30
0.0
 10
157.352024
 20
8.834002
 30
0.0
 10
156.373130
 20
11.641858
 30
0.0
 10
155.273098
 20
14.695478
 30
0.0
 10
154.134075
 20
17.770021
 30
0.0
 10
153.038210
 20
20.640647
 30
0.0
 10
152.067652
 20
23.082513
 30
0.0
 10
151.304549
 20
24.870781
 30
0.0
 10
151.099886
 20
25.336720
 30
0.0
 10
150.825529
 20
25.987156
 30
0.0
 10
150.493450
 20
26.792424
 30
0.0
 10
150.115628
 20
27.722855
 30
0.0
 10
149.704034
 20
28.748782
 30
0.0
 10
149.270644
 20
29.840545
 30
0.0
 10
148.827435
 20
30.968472
 30
0.0
 10
148.386380
 20
32.102897
 30
0.0
 10
147.910673
 20
33.327320
 30
0.0
 10
147.368126
 20
34.713178
 30
0.0
 10
146.777674
 20
36.212725
 30
0.0
 10
146.158255
 20
37.778209
 30
0.0
 10
145.528803
 20
39.361886
 30
0.0
 10
144.908255
 20
40.916004
 30
0.0
 10
144.315543
 20
42.392812
 30
0.0
 10
143.769610
 20
43.744563
 30
0.0
 10
143.251479
 20
45.024305
 30
0.0
 10
142.738452
 20
46.294734
 30
0.0
 10
142.243880
 20
47.522575
 30
0.0
 10
141.781113
 20
48.674547
 30
0.0
 10
141.363494
 20
49.717381
 30
0.0
 10
141.004375
 20
50.617798
 30
0.0
 10
140.717101
 20
51.342524
 30
0.0
 10
140.515026
 20
51.858281
 30
0.0
 10
139.603888
 20
53.974532
 30
0.0
 10
138.345276
 20
56.591963
 30
0.0
 10
136.843652
 20
59.554537
 30
0.0
 10
135.203486
 20
62.706216
 30
0.0
 10
133.529243
 20
65.890969
 30
0.0
 10
131.925389
 20
68.952754
 30
0.0
 10
130.496393
 20
71.735535
 30
0.0
 10
129.346717
 20
74.083281
 30
0.0
 10
128.785235
 20
75.338986
 30
0.0
 10
128.369847
 20
76.413610
 30
0.0
 10
128.098823
 20
77.328756
 30
0.0
 10
127.970432
 20
78.106025
 30
0.0
 10
127.982946
 20
78.767025
 30
0.0
 10
128.134624
 20
79.333358
 30
0.0
 10
128.423740
 20
79.826626
 30
0.0
 10
128.848560
 20
80.268433
 30
0.0
 10
129.866690
 20
80.744786
 30
0.0
 10
131.725300
 20
81.228650
 30
0.0
 10
134.272235
 20
81.714214
 30
0.0
 10
137.355337
 20
82.195652
 30
0.0
 10
140.822456
 20
82.667150
 30
0.0
 10
144.521429
 20
83.122890
 30
0.0
 10
148.300102
 20
83.557050
 30
0.0
 10
152.006319
 20
83.963815
 30
0.0
 10
152.780027
 20
84.057454
 30
0.0
 10
153.574574
 20
84.172055
 30
0.0
 10
154.367371
 20
84.303156
 30
0.0
 10
155.135830
 20
84.446299
 30
0.0
 10
155.857359
 20
84.597021
 30
0.0
 10
156.509377
 20
84.750861
 30
0.0
 10
157.069288
 20
84.903358
 30
0.0
 10
157.514508
 20
85.050054
 30
0.0
 10
159.017598
 20
85.716759
 30
0.0
 10
160.524101
 20
86.580997
 30
0.0
 10
161.998391
 20
87.610845
 30
0.0
 10
163.404852
 20
88.774385
 30
0.0
 10
164.707864
 20
90.039694
 30
0.0
 10
165.871804
 20
91.374850
 30
0.0
 10
166.861054
 20
92.747931
 30
0.0
 10
167.639990
 20
94.127019
 30
0.0
 10
167.983343
 20
94.852523
 30
0.0
 10
168.242214
 20
95.459702
 30
0.0
 10
168.426218
 20
96.011329
 30
0.0
 10
168.544976
 20
96.570184
 30
0.0
 10
168.608098
 20
97.199038
 30
0.0
 10
168.625217
 20
97.960670
 30
0.0
 10
168.605928
 20
98.917856
 30
0.0
 10
168.559849
 20
100.133370
 30
0.0
 10
168.506694
 20
101.269131
 30
0.0
 10
168.444519
 20
102.195861
 30
0.0
 10
168.364160
 20
102.957356
 30
0.0
 10
168.256448
 20
103.597420
 30
0.0
 10
168.112213
 20
104.159850
 30
0.0
 10
167.922290
 20
104.688445
 30
0.0
 10
167.677511
 20
105.227004
 30
0.0
 10
167.368708
 20
105.819330
 30
0.0
 10
167.070443
 20
106.344496
 30
0.0
 10
166.748485
 20
106.864288
 30
0.0
 10
166.403021
 20
107.378527
 30
0.0
 10
166.034234
 20
107.887025
 30
0.0
 10
165.642315
 20
108.389595
 30
0.0
 10
165.227448
 20
108.886057
 30
0.0
 10
164.789819
 20
109.376221
 30
0.0
 10
164.329616
 20
109.859909
 30
0.0
 10
163.844381
 20
110.343255
 30
0.0
 10
163.333172
 20
110.828776
 30
0.0
 10
162.798446
 20
111.310847
 30
0.0
 10
162.242660
 20
111.783842
 30
0.0
 10
161.668270
 20
112.242140
 30
0.0
 10
161.077734
 20
112.680116
 30
0.0
 10
160.473510
 20
113.092149
 30
0.0
 10
159.858055
 20
113.472609
 30
0.0
 10
156.397434
 20
115.370164
 30
0.0
 10
152.845493
 20
117.091257
 30
0.0
 10
149.218003
 20
118.661821
 30
0.0
 10
145.530727
 20
120.107793
 30
0.0
 10
141.799435
 20
121.455104
 30
0.0
 10
138.039891
 20
122.729684
 30
0.0
 10
134.267867
 20
123.957472
 30
0.0
 10
130.499123
 20
125.164401
 30
0.0
 10
129.853603
 20
125.356684
 30
0.0
 10
129.201879
 20
125.526740
 30
0.0
 10
128.545779
 20
125.681198
 30
0.0
 10
127.887135
 20
125.826695
 30
0.0
 10
127.227783
 20
125.969856
 30
0.0
 10
126.569550
 20
126.117316
 30
0.0
 10
125.914275
 20
126.275707
 30
0.0
 10
125.263784
 20
126.451660
 30
0.0
 10
124.604932
 20
126.648325
 30
0.0
 10
123.949254
 20
126.855313
 30
0.0
 10
123.296067
 20
127.070377
 30
0.0
 10
122.644684
 20
127.291262
 30
0.0
 10
121.994415
 20
127.515719
 30
0.0
 10
121.344574
 20
127.741493
 30
0.0
 10
120.694475
 20
127.966333
 30
0.0
 10
120.043430
 20
128.187988
 30
0.0
 10
119.544648
 20
128.353977
 30
0.0
 10
119.045052
 20
128.517735
 30
0.0
 10
118.545222
 20
128.680864
 30
0.0
 10
118.045734
 20
128.844956
 30
0.0
 10
117.547169
 20
129.011612
 30
0.0
 10
117.050106
 20
129.182430
 30
0.0
 10
116.555121
 20
129.359007
 30
0.0
 10
116.062795
 20
129.542946
 30
0.0
 10
115.845842
 20
129.625236
 30
0.0
 10
115.622894
 20
129.709236
 30
0.0
 10
115.398032
 20
129.795125
 30
0.0
 10
115.175343
 20
129.883081
 30
0.0
 10
114.958909
 20
129.973282
 30
0.0
 10
114.752811
 20
130.065913
 30
0.0
 10
114.561134
 20
130.161153
 30
0.0
 10
114.387962
 20
130.259181
 30
0.0
 10
114.230455
 20
130.361312
 30
0.0
 10
114.082675
 20
130.469363
 30
0.0
 10
113.944081
 20
130.584269
 30
0.0
 10
113.814128
 20
130.706961
 30
0.0
 10
113.692279
 20
130.838375
 30
0.0
 10
113.577993
 20
130.979440
 30
0.0
 10
113.470725
 20
131.131089
 30
0.0
 10
113.369935
 20
131.294260
 30
0.0
 10
113.302180
 20
131.521505
 30
0.0
 10
113.237294
 20
131.937576
 30
0.0
 10
113.175059
 20
132.503834
 30
0.0
 10
113.115260
 20
133.181638
 30
0.0
 10
113.057676
 20
133.932354
 30
0.0
 10
113.002093
 20
134.717338
 30
0.0
 10
112.948295
 20
135.497954
 30
0.0
 10
112.896063
 20
136.235560
 30
0.0
 10
112.944913
 20
136.260589
 30
0.0
 10
112.991115
 20
136.285804
 30
0.0
 10
113.034414
 20
136.311204
 30
0.0
 10
113.074554
 20
136.336789
 30
0.0
 10
113.111276
 20
136.362560
 30
0.0
 10
113.144325
 20
136.388542
 30
0.0
 10
113.173439
 20
136.414762
 30
0.0
 10
113.198363
 20
136.441226
 30
0.0
 10
113.779999
 20
137.104229
 30
0.0
 10
114.294368
 20
137.684775
 30
0.0
 10
114.738299
 20
138.223668
 30
0.0
 10
115.108623
 20
138.761714
 30
0.0
 10
115.402170
 20
139.339718
 30
0.0
 10
115.615771
 20
139.998483
 30
0.0
 10
115.746256
 20
140.778816
 30
0.0
 10
115.790454
 20
141.721523
 30
0.0
 10
115.786671
 20
142.899573
 30
0.0
 10
115.773521
 20
144.008899
 30
0.0
 10
115.748306
 20
145.064658
 30
0.0
 10
115.708330
 20
146.082003
 30
0.0
 10
115.650910
 20
147.076091
 30
0.0
 10
115.573361
 20
148.062078
 30
0.0
 10
115.472986
 20
149.055118
 30
0.0
 10
115.347097
 20
150.070369
 30
0.0
 10
115.223574
 20
151.018116
 30
0.0
 10
115.118466
 20
151.907395
 30
0.0
 10
115.029714
 20
152.766009
 30
0.0
 10
114.955247
 20
153.621762
 30
0.0
 10
114.893009
 20
154.502457
 30
0.0
 10
114.840933
 20
155.435898
 30
0.0
 10
114.796957
 20
156.449891
 30
0.0
 10
114.759018
 20
157.572237
 30
0.0
 10
114.788260
 20
158.321273
 30
0.0
 10
114.691214
 20
159.070648
 30
0.0
 10
114.474303
 20
159.808687
 30
0.0
 10
114.143950
 20
160.523717
 30
0.0
 10
113.706577
 20
161.204060
 30
0.0
 10
113.168605
 20
161.838044
 30
0.0
 10
112.536460
 20
162.413992
 30
0.0
 10
111.816563
 20
162.920231
 30
0.0
 10
111.328116
 20
163.242841
 30
0.0
 10
110.821651
 20
163.584008
 30
0.0
 10
110.248537
 20
163.916412
 30
0.0
 10
109.560139
 20
164.212728
 30
0.0
 10
108.707823
 20
164.445636
 30
0.0
 10
107.642965
 20
164.587811
 30
0.0
 10
106.316929
 20
164.611933
 30
0.0
 10
104.681082
 20
164.490678
 30
0.0
 10
104.476818
 20
164.462270
 30
0.0
 10
104.274547
 20
164.425422
 30
0.0
 10
104.074225
 20
164.383493
 30
0.0
 10
103.875809
 20
164.339843
 30
0.0
 10
103.679253
 20
164.297833
 30
0.0
 10
103.484511
 20
164.260823
 30
0.0
 10
103.291543
 20
164.232173
 30
0.0
 10
103.100299
 20
164.215242
 30
0.0
 10
101.764934
 20
165.291334
 30
0.0
 10
100.287781
 20
166.461335
 30
0.0
 10
98.700138
 20
167.650606
 30
0.0
 10
97.033295
 20
168.784511
 30
0.0
 10
95.318546
 20
169.788413
 30
0.0
 10
93.587185
 20
170.587674
 30
0.0
 10
91.870504
 20
171.107658
 30
0.0
 10
90.199796
 20
171.273726
 30
0.0
 10
89.672330
 20
171.276790
 30
0.0
 10
88.939281
 20
171.361219
 30
0.0
 10
88.044912
 20
171.501359
 30
0.0
 10
87.033490
 20
171.671554
 30
0.0
 10
85.949280
 20
171.846153
 30
0.0
 10
84.836548
 20
171.999500
 30
0.0
 10
83.739560
 20
172.105941
 30
0.0
  0
ENDSEC
  0
SECTION
  2
OBJECTS
  0
DICTIONARY
  5
C
330
0
100
AcDbDictionary
  3
ACAD_GROUP
350
D
  3
ACAD_MLINESTYLE
350
17
  0
DICTIONARY
  5
D
330
C
100
AcDbDictionary
  0
DICTIONARY
  5
1A
330
C
100
AcDbDictionary
  0
DICTIONARY
  5
17
330
C
100
AcDbDictionary
  3
STANDARD
350
18
  0
DICTIONARY
  5
19
330
C
100
AcDbDictionary
  0
ENDSEC
  0
EOF
