  0
SECTION
  2
HEADER
  9
$ACADVER
  1
AC1014
  9
$HANDSEED
  5
FFFF
  9
$MEASUREMENT
 70
     1
  0
ENDSEC
  0
SECTION
  2
TABLES
  0
TABLE
  2
VPORT
  5
8
330
0
100
AcDbSymbolTable
 70
     4
  0
VPORT
  5
2E
330
8
100
AcDbSymbolTableRecord
100
AcDbViewportTableRecord
  2
*ACTIVE
 70
     0
 10
0.0
 20
0.0
 11
1.0
 21
1.0
 12
210.0
 22
148.5
 13
0.0
 23
0.0
 14
10.0
 24
10.0
 15
10.0
 25
10.0
 16
0.0
 26
0.0
 36
1.0
 17
0.0
 27
0.0
 37
0.0
 40
341.0
 41
1.24
 42
50.0
 43
0.0
 44
0.0
 50
0.0
 51
0.0
 71
     0
 72
   100
 73
     1
 74
     3
 75
     0
 76
     0
 77
     0
 78
     0
  0
ENDTAB
  0
TABLE
  2
LTYPE
  5
5
330
0
100
AcDbSymbolTable
 70
     1
  0
LTYPE
  5
14
330
5
100
AcDbSymbolTableRecord
100
AcDbLinetypeTableRecord
  2
BYBLOCK
 70
     0
  3

 72
    65
 73
     0
 40
0.0
  0
LTYPE
  5
15
330
5
100
AcDbSymbolTableRecord
100
AcDbLinetypeTableRecord
  2
BYLAYER
 70
     0
  3

 72
    65
 73
     0
 40
0.0
  0
LTYPE
  5
16
330
5
100
AcDbSymbolTableRecord
100
AcDbLinetypeTableRecord
  2
CONTINUOUS
 70
     0
  3
Solid line
 72
    65
 73
     0
 40
0.0
  0
ENDTAB
  0
TABLE
  2
LAYER
  5
2
100
AcDbSymbolTable
 70
2
  0
LAYER
  5
50
100
AcDbSymbolTableRecord
100
AcDbLayerTableRecord
  2
0
 70
0
  6
CONTINUOUS
  0
LAYER
  5
51
100
AcDbSymbolTableRecord
100
AcDbLayerTableRecord
  2
Calque_1
 70
0
  6
CONTINUOUS
  0
ENDTAB
  0
TABLE
  2
STYLE
  5
3
330
0
100
AcDbSymbolTable
 70
     1
  0
STYLE
  5
11
330
3
100
AcDbSymbolTableRecord
100
AcDbTextStyleTableRecord
  2
STANDARD
 70
     0
 40
0.0
 41
1.0
 50
0.0
 71
     0
 42
2.5
  3
txt
  4

  0
ENDTAB
  0
TABLE
  2
VIEW
  5
6
330
0
100
AcDbSymbolTable
 70
     0
  0
ENDTAB
  0
TABLE
  2
UCS
  5
7
330
0
100
AcDbSymbolTable
 70
     0
  0
ENDTAB
  0
TABLE
  2
APPID
  5
9
330
0
100
AcDbSymbolTable
 70
     2
  0
APPID
  5
12
330
9
100
AcDbSymbolTableRecord
100
AcDbRegAppTableRecord
  2
ACAD
 70
     0
  0
ENDTAB
  0
TABLE
  2
DIMSTYLE
  5
A
330
0
100
AcDbSymbolTable
 70
     1
  0
DIMSTYLE
105
27
330
A
100
AcDbSymbolTableRecord
100
AcDbDimStyleTableRecord
  2
ISO-25
 70
     0
  3

  4

  5

  6

  7

 40
1.0
 41
2.5
 42
0.625
 43
3.75
 44
1.25
 45
0.0
 46
0.0
 47
0.0
 48
0.0
140
2.5
141
2.5
142
0.0
143
0.03937007874016
144
1.0
145
0.0
146
1.0
147
0.625
 71
     0
 72
     0
 73
     0
 74
     0
 75
     0
 76
     0
 77
     1
 78
     8
170
     0
171
     3
172
     1
173
     0
174
     0
175
     0
176
     0
177
     0
178
     0
270
     2
271
     2
272
     2
273
     2
274
     3
340
11
275
     0
280
     0
281
     0
282
     0
283
     0
284
     8
285
     0
286
     0
287
     3
288
     0
  0
ENDTAB
  0
TABLE
  2
BLOCK_RECORD
  5
1
330
0
100
AcDbSymbolTable
 70
     1
  0
BLOCK_RECORD
  5
1F
330
1
100
AcDbSymbolTableRecord
100
AcDbBlockTableRecord
  2
*MODEL_SPACE
  0
BLOCK_RECORD
  5
1B
330
1
100
AcDbSymbolTableRecord
100
AcDbBlockTableRecord
  2
*PAPER_SPACE
  0
ENDTAB
  0
ENDSEC
  0
SECTION
  2
BLOCKS
  0
BLOCK
  5
20
330
1F
100
AcDbEntity
  8
0
100
AcDbBlockBegin
  2
*MODEL_SPACE
 70
     0
 10
0.0
 20
0.0
 30
0.0
  3
*MODEL_SPACE
  1

  0
ENDBLK
  5
21
330
1F
100
AcDbEntity
  8
0
100
AcDbBlockEnd
  0
BLOCK
  5
1C
330
1B
100
AcDbEntity
 67
     1
  8
0
100
AcDbBlockBegin
  2
*PAPER_SPACE
  1

  0
ENDBLK
  5
1D
330
1B
100
AcDbEntity
 67
     1
  8
0
100
AcDbBlockEnd
  0
ENDSEC
  0
SECTION
  2
ENTITIES
  0
LWPOLYLINE
  5
100
100
AcDbEntity
  8
Calque_1
 62
7
100
AcDbPolyline
 90
400
 70
1
 10
102.372511
 20
16.598957
 30
0.0
 10
93.975939
 20
19.914077
 30
0.0
 10
85.714295
 20
23.613317
 30
0.0
 10
77.608129
 20
27.681137
 30
0.0
 10
69.677997
 20
32.102008
 30
0.0
 10
61.944450
 20
36.860388
 30
0.0
 10
54.428044
 20
41.940738
 30
0.0
 10
47.149329
 20
47.327538
 30
0.0
 10
40.128860
 20
53.005238
 30
0.0
 10
35.389071
 20
57.126708
 30
0.0
 10
30.754741
 20
61.425008
 30
0.0
 10
26.277053
 20
65.907938
 30
0.0
 10
22.007190
 20
70.583308
 30
0.0
 10
17.996337
 20
75.458928
 30
0.0
 10
14.295676
 20
80.542608
 30
0.0
 10
10.956391
 20
85.842149
 30
0.0
 10
8.029665
 20
91.365369
 30
0.0
 10
5.985633
 20
96.030669
 30
0.0
 10
4.245983
 20
100.843819
 30
0.0
 10
2.808097
 20
105.776219
 30
0.0
 10
1.669358
 20
110.799289
 30
0.0
 10
0.827147
 20
115.884429
 30
0.0
 10
0.278848
 20
121.003029
 30
0.0
 10
0.021843
 20
126.126509
 30
0.0
 10
0.053513
 20
131.226269
 30
0.0
 10
0.573448
 20
138.624459
 30
0.0
 10
1.592296
 20
145.988510
 30
0.0
 10
3.065178
 20
153.300320
 30
0.0
 10
4.947216
 20
160.541820
 30
0.0
 10
7.193532
 20
167.694880
 30
0.0
 10
9.759247
 20
174.741430
 30
0.0
 10
12.599482
 20
181.663360
 30
0.0
 10
15.669361
 20
188.442590
 30
0.0
 10
18.831210
 20
194.587620
 30
0.0
 10
22.357603
 20
200.530121
 30
0.0
 10
26.186718
 20
206.299781
 30
0.0
 10
30.256738
 20
211.926311
 30
0.0
 10
34.505838
 20
217.439411
 30
0.0
 10
38.872199
 20
222.868781
 30
0.0
 10
43.294001
 20
228.244121
 30
0.0
 10
47.709424
 20
233.595141
 30
0.0
 10
50.279331
 20
236.530811
 30
0.0
 10
52.997986
 20
239.339171
 30
0.0
 10
55.807001
 20
242.069391
 30
0.0
 10
58.647990
 20
244.770661
 30
0.0
 10
61.462568
 20
247.492141
 30
0.0
 10
64.192347
 20
250.283021
 30
0.0
 10
66.778942
 20
253.192471
 30
0.0
 10
69.163966
 20
256.269672
 30
0.0
 10
70.436819
 20
257.924372
 30
0.0
 10
71.843989
 20
259.614402
 30
0.0
 10
73.269298
 20
261.340372
 30
0.0
 10
74.596571
 20
263.102912
 30
0.0
 10
75.709632
 20
264.902642
 30
0.0
 10
76.492303
 20
266.740202
 30
0.0
 10
76.828409
 20
268.616202
 30
0.0
 10
76.601773
 20
270.531272
 30
0.0
 10
75.981198
 20
271.812232
 30
0.0
 10
74.995291
 20
272.807652
 30
0.0
 10
73.731037
 20
273.587622
 30
0.0
 10
72.275423
 20
274.222242
 30
0.0
 10
70.715433
 20
274.781592
 30
0.0
 10
69.138055
 20
275.335772
 30
0.0
 10
67.630273
 20
275.954852
 30
0.0
 10
66.279073
 20
276.708952
 30
0.0
 10
63.287127
 20
278.732292
 30
0.0
 10
60.290920
 20
280.763522
 30
0.0
 10
57.311181
 20
282.823062
 30
0.0
 10
54.368639
 20
284.931362
 30
0.0
 10
51.484021
 20
287.108862
 30
0.0
 10
48.678058
 20
289.375992
 30
0.0
 10
45.971478
 20
291.753212
 30
0.0
 10
43.385010
 20
294.260942
 30
0.0
 10
40.701808
 20
296.945332
 30
0.0
 10
37.946963
 20
299.667572
 30
0.0
 10
35.224711
 20
302.456742
 30
0.0
 10
32.639293
 20
305.341952
 30
0.0
 10
30.294946
 20
308.352292
 30
0.0
 10
28.295910
 20
311.516863
 30
0.0
 10
26.746421
 20
314.864743
 30
0.0
 10
25.750721
 20
318.425033
 30
0.0
 10
25.462149
 20
321.109733
 30
0.0
 10
25.555339
 20
323.819593
 30
0.0
 10
25.981108
 20
326.532453
 30
0.0
 10
26.690270
 20
329.226153
 30
0.0
 10
27.633642
 20
331.878533
 30
0.0
 10
28.762041
 20
334.467433
 30
0.0
 10
30.026279
 20
336.970673
 30
0.0
 10
31.377174
 20
339.366113
 30
0.0
 10
33.404137
 20
342.356303
 30
0.0
 10
35.741491
 20
345.101903
 30
0.0
 10
38.318519
 20
347.658393
 30
0.0
 10
41.064502
 20
350.081283
 30
0.0
 10
43.908725
 20
352.426063
 30
0.0
 10
46.780469
 20
354.748223
 30
0.0
 10
49.609017
 20
357.103243
 30
0.0
 10
52.323652
 20
359.546633
 30
0.0
 10
52.963427
 20
360.080493
 30
0.0
 10
53.674494
 20
360.574793
 30
0.0
 10
54.414605
 20
361.052713
 30
0.0
 10
55.141513
 20
361.537433
 30
0.0
 10
55.812969
 20
362.052123
 30
0.0
 10
56.386726
 20
362.619963
 30
0.0
 10
56.820535
 20
363.264133
 30
0.0
 10
57.072149
 20
364.007813
 30
0.0
 10
57.098539
 20
364.662303
 30
0.0
 10
56.958602
 20
365.295413
 30
0.0
 10
56.689191
 20
365.911293
 30
0.0
 10
56.327158
 20
366.514063
 30
0.0
 10
55.909352
 20
367.107893
 30
0.0
 10
55.472626
 20
367.696914
 30
0.0
 10
55.053828
 20
368.285254
 30
0.0
 10
54.689811
 20
368.877074
 30
0.0
 10
53.628050
 20
370.709814
 30
0.0
 10
52.491283
 20
372.502184
 30
0.0
 10
51.312365
 20
374.271434
 30
0.0
 10
50.124155
 20
376.034804
 30
0.0
 10
48.959509
 20
377.809554
 30
0.0
 10
47.851285
 20
379.612914
 30
0.0
 10
46.832340
 20
381.462154
 30
0.0
 10
45.935531
 20
383.374504
 30
0.0
 10
44.658594
 20
386.491564
 30
0.0
 10
43.458772
 20
389.654944
 30
0.0
 10
42.357922
 20
392.860094
 30
0.0
 10
41.377900
 20
396.102454
 30
0.0
 10
40.540564
 20
399.377454
 30
0.0
 10
39.867770
 20
402.680544
 30
0.0
 10
39.381376
 20
406.007174
 30
0.0
 10
39.103238
 20
409.352774
 30
0.0
 10
38.925523
 20
412.794314
 30
0.0
 10
38.783397
 20
416.330764
 30
0.0
 10
38.760287
 20
419.899494
 30
0.0
 10
38.939619
 20
423.437904
 30
0.0
 10
39.404821
 20
426.883375
 30
0.0
 10
40.239318
 20
430.173295
 30
0.0
 10
41.526537
 20
433.245065
 30
0.0
 10
43.349904
 20
436.036055
 30
0.0
 10
45.384416
 20
438.120595
 30
0.0
 10
47.753599
 20
439.825335
 30
0.0
 10
50.390781
 20
441.195065
 30
0.0
 10
53.229287
 20
442.274545
 30
0.0
 10
56.202443
 20
443.108575
 30
0.0
 10
59.243576
 20
443.741905
 30
0.0
 10
62.286011
 20
444.219345
 30
0.0
 10
65.263075
 20
444.585645
 30
0.0
 10
68.995881
 20
444.833815
 30
0.0
 10
72.741361
 20
444.774115
 30
0.0
 10
76.489057
 20
444.445105
 30
0.0
 10
80.228512
 20
443.885235
 30
0.0
 10
83.949266
 20
443.132985
 30
0.0
 10
87.640866
 20
442.226835
 30
0.0
 10
91.292849
 20
441.205285
 30
0.0
 10
94.894760
 20
440.106795
 30
0.0
 10
100.518699
 20
437.587275
 30
0.0
 10
105.959314
 20
433.984145
 30
0.0
 10
111.274601
 20
429.818195
 30
0.0
 10
116.522560
 20
425.610225
 30
0.0
 10
121.761188
 20
421.881034
 30
0.0
 10
127.048484
 20
419.151434
 30
0.0
 10
132.442446
 20
417.942224
 30
0.0
 10
138.001071
 20
418.774204
 30
0.0
 10
139.565367
 20
419.664404
 30
0.0
 10
140.738987
 20
420.990164
 30
0.0
 10
141.605318
 20
422.653774
 30
0.0
 10
142.247741
 20
424.557495
 30
0.0
 10
142.749642
 20
426.603595
 30
0.0
 10
143.194406
 20
428.694345
 30
0.0
 10
143.665417
 20
430.732005
 30
0.0
 10
144.246060
 20
432.618865
 30
0.0
 10
147.091468
 20
440.707205
 30
0.0
 10
149.681484
 20
448.880405
 30
0.0
 10
152.087782
 20
457.114885
 30
0.0
 10
154.382036
 20
465.387075
 30
0.0
 10
156.635921
 20
473.673405
 30
0.0
 10
158.921109
 20
481.950306
 30
0.0
 10
161.309276
 20
490.194206
 30
0.0
 10
163.872096
 20
498.381536
 30
0.0
 10
166.150929
 20
505.821421
 30
0.0
 10
168.248311
 20
513.365143
 30
0.0
 10
170.302768
 20
520.940226
 30
0.0
 10
172.452821
 20
528.474194
 30
0.0
 10
174.837001
 20
535.894574
 30
0.0
 10
177.593841
 20
543.128889
 30
0.0
 10
180.861841
 20
550.104664
 30
0.0
 10
184.779551
 20
556.749422
 30
0.0
 10
185.738211
 20
558.222915
 30
0.0
 10
186.753691
 20
559.773286
 30
0.0
 10
187.838451
 20
561.314586
 30
0.0
 10
189.004941
 20
562.760864
 30
0.0
 10
190.265641
 20
564.026170
 30
0.0
 10
191.633001
 20
565.024554
 30
0.0
 10
193.119481
 20
565.670064
 30
0.0
 10
194.737541
 20
565.876752
 30
0.0
 10
196.356911
 20
565.587333
 30
0.0
 10
197.819491
 20
564.860543
 30
0.0
 10
199.143562
 20
563.783300
 30
0.0
 10
200.347372
 20
562.442520
 30
0.0
 10
201.449212
 20
560.925119
 30
0.0
 10
202.467352
 20
559.318012
 30
0.0
 10
203.420052
 20
557.708117
 30
0.0
 10
204.325592
 20
556.182349
 30
0.0
 10
207.907872
 20
549.515476
 30
0.0
 10
210.832012
 20
542.546224
 30
0.0
 10
213.253282
 20
535.345496
 30
0.0
 10
215.326922
 20
527.984194
 30
0.0
 10
217.208212
 20
520.533219
 30
0.0
 10
219.052402
 20
513.063474
 30
0.0
 10
221.014762
 20
505.645859
 30
0.0
 10
223.250542
 20
498.351276
 30
0.0
 10
225.891442
 20
490.150806
 30
0.0
 10
228.391772
 20
481.888676
 30
0.0
 10
230.845812
 20
473.605255
 30
0.0
 10
233.347792
 20
465.340935
 30
0.0
 10
235.992002
 20
457.136095
 30
0.0
 10
238.872682
 20
449.031105
 30
0.0
 10
242.084102
 20
441.066355
 30
0.0
 10
245.720532
 20
433.282225
 30
0.0
 10
246.627022
 20
431.338325
 30
0.0
 10
247.505472
 20
429.280545
 30
0.0
 10
248.408992
 20
427.198735
 30
0.0
 10
249.390702
 20
425.182775
 30
0.0
 10
250.503722
 20
423.322514
 30
0.0
 10
251.801172
 20
421.707814
 30
0.0
 10
253.336162
 20
420.428534
 30
0.0
 10
255.161823
 20
419.574524
 30
0.0
 10
260.899113
 20
418.776924
 30
0.0
 10
266.552903
 20
419.666244
 30
0.0
 10
272.151553
 20
421.826694
 30
0.0
 10
277.723463
 20
424.842505
 30
0.0
 10
283.296983
 20
428.297895
 30
0.0
 10
288.900493
 20
431.777085
 30
0.0
 10
294.562373
 20
434.864305
 30
0.0
 10
300.310983
 20
437.143765
 30
0.0
 10
302.983843
 20
437.952555
 30
0.0
 10
305.669603
 20
438.760745
 30
0.0
 10
308.368833
 20
439.536265
 30
0.0
 10
311.082104
 20
440.247045
 30
0.0
 10
313.809974
 20
440.861025
 30
0.0
 10
316.553024
 20
441.346145
 30
0.0
 10
319.311824
 20
441.670315
 30
0.0
 10
322.086934
 20
441.801495
 30
0.0
 10
325.391124
 20
441.846895
 30
0.0
 10
328.792634
 20
441.870895
 30
0.0
 10
332.224024
 20
441.788895
 30
0.0
 10
335.617894
 20
441.516285
 30
0.0
 10
338.906814
 20
440.968505
 30
0.0
 10
342.023384
 20
440.060955
 30
0.0
 10
344.900194
 20
438.709025
 30
0.0
 10
347.469804
 20
436.828135
 30
0.0
 10
349.835724
 20
434.218085
 30
0.0
 10
351.709394
 20
431.218335
 30
0.0
 10
353.143924
 20
427.910305
 30
0.0
 10
354.192444
 20
424.375375
 30
0.0
 10
354.908084
 20
420.694934
 30
0.0
 10
355.343964
 20
416.950394
 30
0.0
 10
355.553224
 20
413.223134
 30
0.0
 10
355.589024
 20
409.594554
 30
0.0
 10
355.383464
 20
406.235194
 30
0.0
 10
354.858534
 20
402.905564
 30
0.0
 10
354.057004
 20
399.611674
 30
0.0
 10
353.021654
 20
396.359564
 30
0.0
 10
351.795274
 20
393.155234
 30
0.0
 10
350.420644
 20
390.004714
 30
0.0
 10
348.940544
 20
386.914024
 30
0.0
 10
347.397754
 20
383.889164
 30
0.0
 10
346.399514
 20
382.188344
 30
0.0
 10
345.262344
 20
380.577364
 30
0.0
 10
344.026494
 20
379.029764
 30
0.0
 10
342.732214
 20
377.519104
 30
0.0
 10
341.419764
 20
376.018924
 30
0.0
 10
340.129364
 20
374.502794
 30
0.0
 10
338.901294
 20
372.944264
 30
0.0
 10
337.775784
 20
371.316874
 30
0.0
 10
337.131874
 20
370.387924
 30
0.0
 10
336.417584
 20
369.456924
 30
0.0
 10
335.687684
 20
368.517904
 30
0.0
 10
334.996904
 20
367.564874
 30
0.0
 10
334.400014
 20
366.591863
 30
0.0
 10
333.951764
 20
365.592893
 30
0.0
 10
333.706904
 20
364.561983
 30
0.0
 10
333.720204
 20
363.493153
 30
0.0
 10
333.976684
 20
362.616433
 30
0.0
 10
334.440114
 20
361.839653
 30
0.0
 10
335.064334
 20
361.141343
 30
0.0
 10
335.803184
 20
360.500083
 30
0.0
 10
336.610494
 20
359.894413
 30
0.0
 10
337.440114
 20
359.302883
 30
0.0
 10
338.245864
 20
358.704073
 30
0.0
 10
338.981594
 20
358.076513
 30
0.0
 10
341.077794
 20
356.230163
 30
0.0
 10
343.284234
 20
354.489383
 30
0.0
 10
345.546474
 20
352.803723
 30
0.0
 10
347.810104
 20
351.122753
 30
0.0
 10
350.020694
 20
349.396023
 30
0.0
 10
352.123824
 20
347.573093
 30
0.0
 10
354.065064
 20
345.603523
 30
0.0
 10
355.789994
 20
343.436883
 30
0.0
 10
357.502234
 20
340.930153
 30
0.0
 10
359.165594
 20
338.314243
 30
0.0
 10
360.713464
 20
335.603523
 30
0.0
 10
362.079204
 20
332.812403
 30
0.0
 10
363.196174
 20
329.955283
 30
0.0
 10
363.997754
 20
327.046553
 30
0.0
 10
364.417304
 20
324.100603
 30
0.0
 10
364.388204
 20
321.131843
 30
0.0
 10
363.780924
 20
317.787643
 30
0.0
 10
362.652274
 20
314.582973
 30
0.0
 10
361.092314
 20
311.508553
 30
0.0
 10
359.191144
 20
308.555112
 30
0.0
 10
357.038824
 20
305.713372
 30
0.0
 10
354.725444
 20
302.974072
 30
0.0
 10
352.341074
 20
300.327922
 30
0.0
 10
349.975804
 20
297.765652
 30
0.0
 10
347.538044
 20
295.341702
 30
0.0
 10
344.924934
 20
293.112652
 30
0.0
 10
342.175564
 20
291.035422
 30
0.0
 10
339.328994
 20
289.066942
 30
0.0
 10
336.424334
 20
287.164162
 30
0.0
 10
333.500634
 20
285.283992
 30
0.0
 10
330.596984
 20
283.383382
 30
0.0
 10
327.752464
 20
281.419242
 30
0.0
 10
325.736544
 20
280.210242
 30
0.0
 10
323.464224
 20
279.158682
 30
0.0
 10
321.087024
 20
278.173372
 30
0.0
 10
318.756464
 20
277.163142
 30
0.0
 10
316.624044
 20
276.036792
 30
0.0
 10
314.841294
 20
274.703132
 30
0.0
 10
313.559704
 20
273.070992
 30
0.0
 10
312.930804
 20
271.049162
 30
0.0
 10
313.072724
 20
269.154512
 30
0.0
 10
313.852884
 20
267.462592
 30
0.0
 10
315.126134
 20
265.928612
 30
0.0
 10
316.747344
 20
264.507812
 30
0.0
 10
318.571404
 20
263.155392
 30
0.0
 10
320.453154
 20
261.826582
 30
0.0
 10
322.247494
 20
260.476602
 30
0.0
 10
323.809264
 20
259.060662
 30
0.0
 10
327.548114
 20
255.280282
 30
0.0
 10
331.393004
 20
251.598391
 30
0.0
 10
335.294644
 20
247.969941
 30
0.0
 10
339.203784
 20
244.349881
 30
0.0
 10
343.071144
 20
240.693171
 30
0.0
 10
346.847454
 20
236.954741
 30
0.0
 10
350.483444
 20
233.089551
 30
0.0
 10
353.929844
 20
229.052551
 30
0.0
 10
358.452714
 20
223.446971
 30
0.0
 10
362.964874
 20
217.774451
 30
0.0
 10
367.377784
 20
212.006781
 30
0.0
 10
371.602885
 20
206.115761
 30
0.0
 10
375.551655
 20
200.073191
 30
0.0
 10
379.135515
 20
193.850880
 30
0.0
 10
382.265945
 20
187.420610
 30
0.0
 10
384.854395
 20
180.754200
 30
0.0
 10
386.660105
 20
174.706370
 30
0.0
 10
388.065055
 20
168.527120
 30
0.0
 10
389.083745
 20
162.248900
 30
0.0
 10
389.730665
 20
155.904190
 30
0.0
 10
390.020315
 20
149.525440
 30
0.0
 10
389.967215
 20
143.145120
 30
0.0
 10
389.585785
 20
136.795689
 30
0.0
 10
388.890565
 20
130.509619
 30
0.0
 10
387.852945
 20
124.448599
 30
0.0
 10
386.423045
 20
118.458489
 30
0.0
 10
384.644005
 20
112.544289
 30
0.0
 10
382.558975
 20
106.710969
 30
0.0
 10
380.211095
 20
100.963499
 30
0.0
 10
377.643495
 20
95.306849
 30
0.0
 10
374.899325
 20
89.746019
 30
0.0
 10
372.021725
 20
84.285968
 30
0.0
 10
369.445705
 20
79.689838
 30
0.0
 10
366.720074
 20
75.159278
 30
0.0
 10
363.837374
 20
70.717238
 30
0.0
 10
360.790164
 20
66.386648
 30
0.0
 10
357.570964
 20
62.190478
 30
0.0
 10
354.172334
 20
58.151668
 30
0.0
 10
350.586814
 20
54.293168
 30
0.0
 10
346.806944
 20
50.637928
 30
0.0
 10
341.010424
 20
45.590958
 30
0.0
 10
334.961384
 20
40.810138
 30
0.0
 10
328.681684
 20
36.307428
 30
0.0
 10
322.193184
 20
32.094778
 30
0.0
 10
315.517744
 20
28.184137
 30
0.0
 10
308.677233
 20
24.587467
 30
0.0
 10
301.693513
 20
21.316717
 30
0.0
 10
294.588443
 20
18.383837
 30
0.0
 10
282.659383
 20
14.113667
 30
0.0
 10
270.504653
 20
10.405077
 30
0.0
 10
258.164183
 20
7.259047
 30
0.0
 10
245.677932
 20
4.676527
 30
0.0
 10
233.085822
 20
2.658507
 30
0.0
 10
220.427802
 20
1.205927
 30
0.0
 10
207.743802
 20
0.319777
 30
0.0
 10
195.073771
 20
0.001007
 30
0.0
 10
183.285751
 20
0.244067
 30
0.0
 10
171.487817
 20
1.031057
 30
0.0
 10
159.713556
 20
2.351687
 30
0.0
 10
147.996545
 20
4.195657
 30
0.0
 10
136.370366
 20
6.552667
 30
0.0
 10
124.868601
 20
9.412427
 30
0.0
 10
113.524830
 20
12.764637
 30
0.0
  0
LWPOLYLINE
  5
101
100
AcDbEntity
  8
Calque_1
 62
1
100
AcDbPolyline
 90
2
 70
0
 10
195.668718
 20
636.520999
 30
0.0
 10
195.212418
 20
-102.905395
 30
0.0
  0
LWPOLYLINE
  5
102
100
AcDbEntity
  8
Calque_1
 62
1
100
AcDbPolyline
 90
2
 70
0
 10
135.611071
 20
416.905004
 30
0.0
 10
194.184578
 20
416.904994
 30
0.0
  0
ENDSEC
  0
SECTION
  2
OBJECTS
  0
DICTIONARY
  5
C
330
0
100
AcDbDictionary
  3
ACAD_GROUP
350
D
  3
ACAD_MLINESTYLE
350
17
  0
DICTIONARY
  5
D
330
C
100
AcDbDictionary
  0
DICTIONARY
  5
1A
330
C
100
AcDbDictionary
  0
DICTIONARY
  5
17
330
C
100
AcDbDictionary
  3
STANDARD
350
18
  0
DICTIONARY
  5
19
330
C
100
AcDbDictionary
  0
ENDSEC
  0
EOF
