<?xml version="1.0" encoding="UTF-8" standalone="no"?>
<!-- Created with Inkscape (http://www.inkscape.org/) -->

<svg
   xmlns:dc="http://purl.org/dc/elements/1.1/"
   xmlns:cc="http://creativecommons.org/ns#"
   xmlns:rdf="http://www.w3.org/1999/02/22-rdf-syntax-ns#"
   xmlns:svg="http://www.w3.org/2000/svg"
   xmlns="http://www.w3.org/2000/svg"
   xmlns:sodipodi="http://sodipodi.sourceforge.net/DTD/sodipodi-0.dtd"
   xmlns:inkscape="http://www.inkscape.org/namespaces/inkscape"
   width="390.03989mm"
   height="565.87842mm"
   viewBox="0 0 390.0399 565.87841"
   version="1.1"
   id="svg8"
   inkscape:version="0.92.2 2405546, 2018-03-11"
   sodipodi:docname="meeple_faery.svg">
  <defs
     id="defs2" />
  <sodipodi:namedview
     id="base"
     pagecolor="#ffffff"
     bordercolor="#666666"
     borderopacity="1.0"
     inkscape:pageopacity="0.0"
     inkscape:pageshadow="2"
     inkscape:zoom="0.24748737"
     inkscape:cx="286.27815"
     inkscape:cy="1077.3684"
     inkscape:document-units="mm"
     inkscape:current-layer="layer1"
     showgrid="false"
     inkscape:window-width="1920"
     inkscape:window-height="1015"
     inkscape:window-x="1280"
     inkscape:window-y="0"
     inkscape:window-maximized="1" />
  <metadata
     id="metadata5">
    <rdf:RDF>
      <cc:Work
         rdf:about="">
        <dc:format>image/svg+xml</dc:format>
        <dc:type
           rdf:resource="http://purl.org/dc/dcmitype/StillImage" />
        <dc:title />
      </cc:Work>
    </rdf:RDF>
  </metadata>
  <g
     inkscape:label="Calque 1"
     inkscape:groupmode="layer"
     id="layer1"
     transform="translate(72.016875,-34.146527)">
    <path
       style="fill:#000000;stroke-width:0.97391868"
       d="m 30.355634,583.42599 c -22.5524903,-8.31436 -43.884996,-20.89168 -62.24365,-36.40628 -12.734546,-10.76177 -24.890166,-23.32637 -32.099194,-38.36013 -5.858918,-12.21824 -8.443181,-26.31859 -7.976152,-39.8609 0.681386,-19.75793 7.163207,-39.34475 15.615848,-57.21632 7.890588,-16.68321 20.32906,-30.88919 32.040062,-45.15255 6.602858,-8.04192 15.4151378,-14.20129 21.4545415,-22.67453 3.11192053,-4.366 8.8957596,-9.1021 7.4378072,-14.2616 -1.0904363,-3.85891 -7.0055973,-3.92445 -10.3227003,-6.17768 -7.9544184,-5.40324 -16.1753884,-10.67251 -22.8940624,-17.55199 -6.967024,-7.13377 -15.810128,-14.3609 -17.634288,-24.16409 -1.322262,-7.10595 1.952243,-14.71669 5.626452,-20.94108 4.928519,-8.34929 13.922196,-13.49767 20.946478,-20.18052 1.573459,-1.49697 4.358008,-2.32477 4.748497,-4.46118 0.324886,-1.77749 -1.517424,-3.28277 -2.382341,-4.86926 -2.702148,-4.95646 -6.554844,-9.29834 -8.75428,-14.49743 -3.488553,-8.24635 -6.387695,-17.03542 -6.832293,-25.97827 -0.447203,-8.99526 -1.404668,-19.67065 4.246666,-26.68328 4.91987,-6.10497 14.120761,-7.68115 21.9131707,-8.54959 9.9279542,-1.10645 20.1026473,1.48115 29.6316843,4.47881 15.293161,4.81094 28.012204,26.73572 43.106311,21.33259 4.766477,-1.70622 4.476311,-9.101 6.244988,-13.84466 7.991992,-21.43482 12.49527,-44.02617 19.626036,-65.76267 6.441955,-19.636822 9.470835,-41.154306 20.907455,-58.367885 2.49175,-3.75041 5.45663,-9.237661 9.95799,-9.12733 4.54362,0.111367 7.21992,5.815117 9.58805,9.694403 10.56829,17.31213 12.46028,38.605918 18.92495,57.831072 7.3136,21.7498 12.1224,44.58809 22.46999,65.06905 2.50191,4.95203 4.13811,12.07726 9.44129,13.7077 15.43599,4.74573 29.67866,-12.93726 45.14916,-17.56924 7.11094,-2.12907 14.35339,-4.59377 21.77595,-4.65773 8.62152,-0.0743 19.00007,-0.82276 25.38287,4.97344 7.0127,6.36821 8.20795,17.7613 8.11917,27.23358 -0.0843,8.99259 -4.03161,17.73225 -8.19127,25.70539 -2.44097,4.67879 -6.79314,8.11728 -9.62197,12.57229 -1.5746,2.47979 -4.48386,4.91764 -4.05561,7.82372 0.36697,2.49021 3.43385,3.68577 5.26139,5.41664 5.39452,5.10918 12.54537,8.55431 16.8084,14.63963 4.5719,6.52621 9.33326,14.37071 8.59821,22.30504 -0.84416,9.11215 -8.21054,16.63707 -14.4124,23.36619 -6.23217,6.76201 -14.75153,10.98574 -22.22334,16.34641 -4.89926,3.51498 -14.14952,4.37792 -14.82166,10.37008 -0.60152,5.36251 7.15281,8.08493 10.87846,11.9885 9.78509,10.2524 21.22676,18.97364 30.12058,30.00811 11.99656,14.884 24.82338,30.18132 30.92455,48.29835 5.36245,15.92345 6.29557,33.59505 4.03613,50.24458 -2.20561,16.25287 -9.05567,31.80232 -16.86884,46.22365 -6.67653,12.32337 -14.86937,24.19213 -25.21478,33.64804 -15.10125,13.80285 -33.12928,24.89419 -52.2185,32.25409 -31.47444,12.13506 -65.78203,18.29015 -99.51467,18.38283 -31.39166,0.0862 -63.247225,-5.73932 -92.701136,-16.59799 z"
       id="path94"
       inkscape:connector-curvature="0"
       sodipodi:nodetypes="aaaaaaaaaaaaaaaaaaaaaaaaaaaaaaaaaaaaaaaaaaaaaaaaaaa" />
    <path
       style="fill:none;fill-rule:evenodd;stroke:#ff0000;stroke-width:0.66222543px;stroke-linecap:butt;stroke-linejoin:miter;stroke-opacity:1"
       d="m 123.65184,-36.496041 -0.4563,739.426381"
       id="path96"
       inkscape:connector-type="polyline"
       inkscape:connector-curvature="0"
       sodipodi:nodetypes="cc" />
    <path
       style="fill:none;fill-rule:evenodd;stroke:#ff0000;stroke-width:0.14416005px;stroke-linecap:butt;stroke-linejoin:miter;stroke-opacity:1"
       d="m 63.594194,183.11995 58.573506,1e-5"
       id="path822"
       inkscape:connector-type="polyline"
       inkscape:connector-curvature="0"
       sodipodi:nodetypes="cc" />
  </g>
</svg>
