  0
SECTION
  2
HEADER
  9
$ACADVER
  1
AC1014
  9
$HANDSEED
  5
FFFF
  9
$MEASUREMENT
 70
     1
  0
ENDSEC
  0
SECTION
  2
TABLES
  0
TABLE
  2
VPORT
  5
8
330
0
100
AcDbSymbolTable
 70
     4
  0
VPORT
  5
2E
330
8
100
AcDbSymbolTableRecord
100
AcDbViewportTableRecord
  2
*ACTIVE
 70
     0
 10
0.0
 20
0.0
 11
1.0
 21
1.0
 12
210.0
 22
148.5
 13
0.0
 23
0.0
 14
10.0
 24
10.0
 15
10.0
 25
10.0
 16
0.0
 26
0.0
 36
1.0
 17
0.0
 27
0.0
 37
0.0
 40
341.0
 41
1.24
 42
50.0
 43
0.0
 44
0.0
 50
0.0
 51
0.0
 71
     0
 72
   100
 73
     1
 74
     3
 75
     0
 76
     0
 77
     0
 78
     0
  0
ENDTAB
  0
TABLE
  2
LTYPE
  5
5
330
0
100
AcDbSymbolTable
 70
     1
  0
LTYPE
  5
14
330
5
100
AcDbSymbolTableRecord
100
AcDbLinetypeTableRecord
  2
BYBLOCK
 70
     0
  3

 72
    65
 73
     0
 40
0.0
  0
LTYPE
  5
15
330
5
100
AcDbSymbolTableRecord
100
AcDbLinetypeTableRecord
  2
BYLAYER
 70
     0
  3

 72
    65
 73
     0
 40
0.0
  0
LTYPE
  5
16
330
5
100
AcDbSymbolTableRecord
100
AcDbLinetypeTableRecord
  2
CONTINUOUS
 70
     0
  3
Solid line
 72
    65
 73
     0
 40
0.0
  0
ENDTAB
  0
TABLE
  2
LAYER
  5
2
100
AcDbSymbolTable
 70
2
  0
LAYER
  5
50
100
AcDbSymbolTableRecord
100
AcDbLayerTableRecord
  2
0
 70
0
  6
CONTINUOUS
  0
LAYER
  5
51
100
AcDbSymbolTableRecord
100
AcDbLayerTableRecord
  2
Calque_1
 70
0
  6
CONTINUOUS
  0
ENDTAB
  0
TABLE
  2
STYLE
  5
3
330
0
100
AcDbSymbolTable
 70
     1
  0
STYLE
  5
11
330
3
100
AcDbSymbolTableRecord
100
AcDbTextStyleTableRecord
  2
STANDARD
 70
     0
 40
0.0
 41
1.0
 50
0.0
 71
     0
 42
2.5
  3
txt
  4

  0
ENDTAB
  0
TABLE
  2
VIEW
  5
6
330
0
100
AcDbSymbolTable
 70
     0
  0
ENDTAB
  0
TABLE
  2
UCS
  5
7
330
0
100
AcDbSymbolTable
 70
     0
  0
ENDTAB
  0
TABLE
  2
APPID
  5
9
330
0
100
AcDbSymbolTable
 70
     2
  0
APPID
  5
12
330
9
100
AcDbSymbolTableRecord
100
AcDbRegAppTableRecord
  2
ACAD
 70
     0
  0
ENDTAB
  0
TABLE
  2
DIMSTYLE
  5
A
330
0
100
AcDbSymbolTable
 70
     1
  0
DIMSTYLE
105
27
330
A
100
AcDbSymbolTableRecord
100
AcDbDimStyleTableRecord
  2
ISO-25
 70
     0
  3

  4

  5

  6

  7

 40
1.0
 41
2.5
 42
0.625
 43
3.75
 44
1.25
 45
0.0
 46
0.0
 47
0.0
 48
0.0
140
2.5
141
2.5
142
0.0
143
0.03937007874016
144
1.0
145
0.0
146
1.0
147
0.625
 71
     0
 72
     0
 73
     0
 74
     0
 75
     0
 76
     0
 77
     1
 78
     8
170
     0
171
     3
172
     1
173
     0
174
     0
175
     0
176
     0
177
     0
178
     0
270
     2
271
     2
272
     2
273
     2
274
     3
340
11
275
     0
280
     0
281
     0
282
     0
283
     0
284
     8
285
     0
286
     0
287
     3
288
     0
  0
ENDTAB
  0
TABLE
  2
BLOCK_RECORD
  5
1
330
0
100
AcDbSymbolTable
 70
     1
  0
BLOCK_RECORD
  5
1F
330
1
100
AcDbSymbolTableRecord
100
AcDbBlockTableRecord
  2
*MODEL_SPACE
  0
BLOCK_RECORD
  5
1B
330
1
100
AcDbSymbolTableRecord
100
AcDbBlockTableRecord
  2
*PAPER_SPACE
  0
ENDTAB
  0
ENDSEC
  0
SECTION
  2
BLOCKS
  0
BLOCK
  5
20
330
1F
100
AcDbEntity
  8
0
100
AcDbBlockBegin
  2
*MODEL_SPACE
 70
     0
 10
0.0
 20
0.0
 30
0.0
  3
*MODEL_SPACE
  1

  0
ENDBLK
  5
21
330
1F
100
AcDbEntity
  8
0
100
AcDbBlockEnd
  0
BLOCK
  5
1C
330
1B
100
AcDbEntity
 67
     1
  8
0
100
AcDbBlockBegin
  2
*PAPER_SPACE
  1

  0
ENDBLK
  5
1D
330
1B
100
AcDbEntity
 67
     1
  8
0
100
AcDbBlockEnd
  0
ENDSEC
  0
SECTION
  2
ENTITIES
  0
LWPOLYLINE
  5
100
100
AcDbEntity
  8
Calque_1
 62
7
100
AcDbPolyline
 90
289
 70
1
 10
61.283980
 20
18.255111
 30
0.0
 10
60.462470
 20
18.482731
 30
0.0
 10
59.036400
 20
18.163281
 30
0.0
 10
55.169350
 20
16.761071
 30
0.0
 10
53.127740
 20
16.117251
 30
0.0
 10
51.280330
 20
15.804261
 30
0.0
 10
49.826810
 20
16.041571
 30
0.0
 10
48.966860
 20
17.048661
 30
0.0
 10
49.013760
 20
18.520851
 30
0.0
 10
50.151700
 20
19.484451
 30
0.0
 10
52.057600
 20
20.125821
 30
0.0
 10
54.408410
 20
20.631341
 30
0.0
 10
59.152610
 20
21.980241
 30
0.0
 10
60.899910
 20
23.196351
 30
0.0
 10
61.799950
 20
25.022061
 30
0.0
 10
61.570180
 20
25.800801
 30
0.0
 10
60.756320
 20
26.588481
 30
0.0
 10
59.562500
 20
27.387001
 30
0.0
 10
58.192860
 20
28.198251
 30
0.0
 10
55.742600
 20
29.866541
 30
0.0
 10
55.070240
 20
30.727351
 30
0.0
 10
55.038540
 20
31.608471
 30
0.0
 10
55.790050
 20
32.658121
 30
0.0
 10
56.842410
 20
33.021441
 30
0.0
 10
59.601700
 20
32.390371
 30
0.0
 10
62.820510
 20
31.117891
 30
0.0
 10
64.447270
 20
30.679461
 30
0.0
 10
66.002940
 20
30.606661
 30
0.0
 10
68.055660
 20
30.989161
 30
0.0
 10
69.824170
 20
31.616651
 30
0.0
 10
72.805180
 20
33.479011
 30
0.0
 10
75.539080
 20
35.938501
 30
0.0
 10
78.619030
 20
38.739872
 30
0.0
 10
84.202160
 20
43.218556
 30
0.0
 10
88.534630
 20
47.006684
 30
0.0
 10
96.931680
 20
55.775783
 30
0.0
 10
98.090940
 20
57.906125
 30
0.0
 10
98.655090
 20
60.128232
 30
0.0
 10
98.514600
 20
62.500372
 30
0.0
 10
97.559910
 20
65.080814
 30
0.0
 10
96.226830
 20
67.878404
 30
0.0
 10
94.983190
 20
70.913013
 30
0.0
 10
92.873070
 20
77.306144
 30
0.0
 10
91.447310
 20
83.485919
 30
0.0
 10
90.923670
 20
88.678053
 30
0.0
 10
90.051020
 20
93.324240
 30
0.0
 10
87.826120
 20
96.825921
 30
0.0
 10
84.838540
 20
99.678336
 30
0.0
 10
81.677860
 20
102.376728
 30
0.0
 10
70.919880
 20
108.791606
 30
0.0
 10
60.383880
 20
114.099223
 30
0.0
 10
49.239120
 20
121.453526
 30
0.0
 10
37.408240
 20
128.507839
 30
0.0
 10
30.542860
 20
132.008007
 30
0.0
 10
28.009280
 20
132.883905
 30
0.0
 10
25.849130
 20
133.177251
 30
0.0
 10
23.892910
 20
132.888220
 30
0.0
 10
21.971130
 20
132.016992
 30
0.0
 10
19.914290
 20
130.563743
 30
0.0
 10
17.552910
 20
128.528654
 30
0.0
 10
10.738710
 20
123.712110
 30
0.0
 10
7.504700
 20
122.246900
 30
0.0
 10
4.937970
 20
121.708769
 30
0.0
 10
2.403670
 20
122.193804
 30
0.0
 10
0.784780
 20
123.547093
 30
0.0
 10
0.052270
 20
125.615914
 30
0.0
 10
0.177130
 20
128.247535
 30
0.0
 10
1.130330
 20
131.289239
 30
0.0
 10
2.882860
 20
134.588300
 30
0.0
 10
8.669800
 20
141.347587
 30
0.0
 10
11.938140
 20
144.403584
 30
0.0
 10
15.065040
 20
146.812029
 30
0.0
 10
16.813110
 20
147.652897
 30
0.0
 10
18.811020
 20
148.187247
 30
0.0
 10
21.153820
 20
148.366870
 30
0.0
 10
23.936580
 20
148.143557
 30
0.0
 10
31.202220
 20
146.295290
 30
0.0
 10
41.368460
 20
142.256770
 30
0.0
 10
73.444720
 20
126.066258
 30
0.0
 10
81.962640
 20
121.769293
 30
0.0
 10
89.577630
 20
118.629271
 30
0.0
 10
96.475830
 20
116.641200
 30
0.0
 10
102.843390
 20
115.800093
 30
0.0
 10
108.866460
 20
116.100959
 30
0.0
 10
114.731190
 20
117.538808
 30
0.0
 10
120.623740
 20
120.108651
 30
0.0
 10
126.730240
 20
123.805497
 30
0.0
 10
163.626670
 20
147.503428
 30
0.0
 10
177.927980
 20
157.144793
 30
0.0
 10
186.242580
 20
164.560794
 30
0.0
 10
189.133860
 20
168.329706
 30
0.0
 10
191.891430
 20
171.280617
 30
0.0
 10
194.667640
 20
173.103189
 30
0.0
 10
196.110350
 20
173.494368
 30
0.0
 10
197.614850
 20
173.487068
 30
0.0
 10
199.158840
 20
173.120782
 30
0.0
 10
200.696420
 20
172.464484
 30
0.0
 10
203.686710
 20
170.303859
 30
0.0
 10
206.454600
 20
167.049203
 30
0.0
 10
208.868950
 20
162.744534
 30
0.0
 10
210.981240
 20
155.934861
 30
0.0
 10
211.553970
 20
152.504156
 30
0.0
 10
211.425590
 20
149.917835
 30
0.0
 10
211.031730
 20
147.664346
 30
0.0
 10
210.283800
 20
145.404071
 30
0.0
 10
209.093270
 20
142.797388
 30
0.0
 10
207.061280
 20
141.272751
 30
0.0
 10
204.918030
 20
140.830117
 30
0.0
 10
202.970060
 20
141.193465
 30
0.0
 10
201.523960
 20
142.086778
 30
0.0
 10
198.462810
 20
146.475202
 30
0.0
 10
197.336100
 20
148.468977
 30
0.0
 10
195.924600
 20
150.106965
 30
0.0
 10
194.850600
 20
150.539642
 30
0.0
 10
193.398960
 20
150.427277
 30
0.0
 10
189.525350
 20
148.785618
 30
0.0
 10
179.035240
 20
141.362021
 30
0.0
 10
167.056270
 20
131.327432
 30
0.0
 10
156.190450
 20
122.173111
 30
0.0
 10
144.273940
 20
114.220391
 30
0.0
 10
131.773120
 20
105.287262
 30
0.0
 10
127.182600
 20
100.470848
 30
0.0
 10
123.898990
 20
95.911782
 30
0.0
 10
121.738460
 20
92.178452
 30
0.0
 10
120.517160
 20
89.839240
 30
0.0
 10
119.120270
 20
85.615350
 30
0.0
 10
119.400330
 20
81.495636
 30
0.0
 10
120.926900
 20
77.555670
 30
0.0
 10
123.269520
 20
73.871026
 30
0.0
 10
126.215520
 20
70.808025
 30
0.0
 10
129.906650
 20
68.633752
 30
0.0
 10
134.444030
 20
67.274913
 30
0.0
 10
139.928800
 20
66.658221
 30
0.0
 10
142.112050
 20
66.703411
 30
0.0
 10
144.285240
 20
66.687471
 30
0.0
 10
148.558850
 20
66.164539
 30
0.0
 10
152.403350
 20
64.855145
 30
0.0
 10
155.982300
 20
62.922193
 30
0.0
 10
158.849510
 20
60.763636
 30
0.0
 10
161.308780
 20
58.158971
 30
0.0
 10
163.964490
 20
54.234339
 30
0.0
 10
165.618750
 20
49.858900
 30
0.0
 10
166.183170
 20
46.196931
 30
0.0
 10
166.311500
 20
44.538605
 30
0.0
 10
166.436330
 20
42.335578
 30
0.0
 10
170.726830
 20
40.846185
 30
0.0
 10
176.512570
 20
38.920493
 30
0.0
 10
189.536080
 20
35.423551
 30
0.0
 10
192.766970
 20
34.774381
 30
0.0
 10
196.182780
 20
34.199681
 30
0.0
 10
199.654330
 20
33.950551
 30
0.0
 10
203.052380
 20
34.278101
 30
0.0
 10
204.907580
 20
35.047321
 30
0.0
 10
206.754390
 20
36.394691
 30
0.0
 10
210.328340
 20
39.746537
 30
0.0
 10
212.008240
 20
41.212334
 30
0.0
 10
213.585260
 20
42.178927
 30
0.0
 10
215.035780
 20
42.376976
 30
0.0
 10
216.336170
 20
41.537144
 30
0.0
 10
216.539280
 20
40.626863
 30
0.0
 10
215.928700
 20
39.584855
 30
0.0
 10
214.763270
 20
38.459232
 30
0.0
 10
213.301840
 20
37.298108
 30
0.0
 10
210.526280
 20
35.061811
 30
0.0
 10
209.729830
 20
34.082861
 30
0.0
 10
209.672730
 20
33.260861
 30
0.0
 10
210.805770
 20
32.422111
 30
0.0
 10
212.552560
 20
32.458211
 30
0.0
 10
217.038200
 20
33.934101
 30
0.0
 10
219.352450
 20
34.763451
 30
0.0
 10
221.431240
 20
35.246781
 30
0.0
 10
223.062270
 20
35.078891
 30
0.0
 10
224.033240
 20
33.954541
 30
0.0
 10
223.930540
 20
32.514461
 30
0.0
 10
222.762980
 20
31.389621
 30
0.0
 10
220.874950
 20
30.490221
 30
0.0
 10
218.610810
 20
29.726421
 30
0.0
 10
214.331790
 20
28.246391
 30
0.0
 10
213.005670
 20
27.350511
 30
0.0
 10
212.680980
 20
26.230971
 30
0.0
 10
213.503150
 20
25.352541
 30
0.0
 10
215.232770
 20
24.873101
 30
0.0
 10
220.125120
 20
24.461871
 30
0.0
 10
222.643240
 20
24.205421
 30
0.0
 10
224.779580
 20
23.698631
 30
0.0
 10
226.211830
 20
22.779191
 30
0.0
 10
226.617690
 20
21.284751
 30
0.0
 10
225.942640
 20
19.995351
 30
0.0
 10
224.486130
 20
19.489171
 30
0.0
 10
222.483780
 20
19.531471
 30
0.0
 10
220.171190
 20
19.887571
 30
0.0
 10
215.557700
 20
20.602221
 30
0.0
 10
213.728010
 20
20.491341
 30
0.0
 10
212.530510
 20
19.755371
 30
0.0
 10
212.178560
 20
18.385521
 30
0.0
 10
212.730220
 20
16.868741
 30
0.0
 10
215.283040
 20
13.645151
 30
0.0
 10
216.653550
 20
12.063711
 30
0.0
 10
217.666350
 20
10.586091
 30
0.0
 10
218.006130
 20
9.274971
 30
0.0
 10
217.357550
 20
8.193041
 30
0.0
 10
215.688880
 20
7.721541
 30
0.0
 10
214.003730
 20
8.552341
 30
0.0
 10
212.315740
 20
10.285661
 30
0.0
 10
210.638530
 20
12.521741
 30
0.0
 10
207.371000
 20
16.903091
 30
0.0
 10
205.807950
 20
18.248841
 30
0.0
 10
204.310210
 20
18.498271
 30
0.0
 10
203.388550
 20
17.835281
 30
0.0
 10
202.643800
 20
16.766411
 30
0.0
 10
201.446670
 20
14.091521
 30
0.0
 10
200.875090
 20
12.825781
 30
0.0
 10
200.242050
 20
11.834681
 30
0.0
 10
199.487950
 20
11.288361
 30
0.0
 10
198.553190
 20
11.356961
 30
0.0
 10
197.453510
 20
12.291691
 30
0.0
 10
196.991310
 20
13.564411
 30
0.0
 10
197.232430
 20
16.749971
 30
0.0
 10
197.782670
 20
20.165881
 30
0.0
 10
197.148160
 20
23.064391
 30
0.0
 10
193.841960
 20
25.277251
 30
0.0
 10
189.922540
 20
26.467711
 30
0.0
 10
181.535840
 20
28.862561
 30
0.0
 10
173.036730
 20
30.424331
 30
0.0
 10
169.236230
 20
31.101611
 30
0.0
 10
166.218060
 20
31.692851
 30
0.0
 10
163.866630
 20
31.676551
 30
0.0
 10
162.066300
 20
30.531231
 30
0.0
 10
159.484070
 20
27.540221
 30
0.0
 10
156.689680
 20
24.603591
 30
0.0
 10
153.013920
 20
22.068331
 30
0.0
 10
149.677450
 20
20.281401
 30
0.0
 10
144.369310
 20
18.356091
 30
0.0
 10
138.624300
 20
17.634701
 30
0.0
 10
135.576440
 20
17.916511
 30
0.0
 10
131.769210
 20
18.915101
 30
0.0
 10
127.725020
 20
20.860211
 30
0.0
 10
123.966280
 20
23.981571
 30
0.0
 10
120.932710
 20
28.331741
 30
0.0
 10
118.733300
 20
33.254591
 30
0.0
 10
117.394370
 20
37.916782
 30
0.0
 10
116.942210
 20
41.485003
 30
0.0
 10
116.039400
 20
43.911101
 30
0.0
 10
113.583740
 20
44.704719
 30
0.0
 10
109.954420
 20
44.192015
 30
0.0
 10
105.530610
 20
42.699145
 30
0.0
 10
87.473960
 20
33.449151
 30
0.0
 10
83.870330
 20
31.410901
 30
0.0
 10
80.318840
 20
29.035491
 30
0.0
 10
77.529790
 20
26.169351
 30
0.0
 10
76.643140
 20
24.504261
 30
0.0
 10
76.213450
 20
22.658891
 30
0.0
 10
76.546060
 20
21.225211
 30
0.0
 10
77.627060
 20
19.997171
 30
0.0
 10
80.875890
 20
17.841781
 30
0.0
 10
82.464550
 20
16.756311
 30
0.0
 10
83.643280
 20
15.560251
 30
0.0
 10
84.122480
 20
14.174541
 30
0.0
 10
83.612580
 20
12.520111
 30
0.0
 10
82.666970
 20
11.708691
 30
0.0
 10
81.488360
 20
11.756791
 30
0.0
 10
78.722110
 20
13.401151
 30
0.0
 10
75.893720
 20
15.392041
 30
0.0
 10
74.637430
 20
15.873331
 30
0.0
 10
73.583060
 20
15.668331
 30
0.0
 10
73.195880
 20
14.662711
 30
0.0
 10
73.259980
 20
12.777441
 30
0.0
 10
73.927240
 20
7.583741
 30
0.0
 10
73.955040
 20
2.518881
 30
0.0
 10
73.219790
 20
0.794651
 30
0.0
 10
71.713470
 20
0.014511
 30
0.0
 10
70.109800
 20
0.471461
 30
0.0
 10
69.060620
 20
2.017121
 30
0.0
 10
68.075260
 20
6.983741
 30
0.0
 10
67.656530
 20
12.132701
 30
0.0
 10
67.315620
 20
13.906281
 30
0.0
 10
66.703550
 20
14.682311
 30
0.0
 10
65.594850
 20
14.177451
 30
0.0
 10
64.373360
 20
12.518051
 30
0.0
 10
61.613030
 20
7.430201
 30
0.0
 10
58.464490
 20
2.807941
 30
0.0
 10
56.757750
 20
1.730531
 30
0.0
 10
54.969690
 20
2.040451
 30
0.0
 10
53.895110
 20
3.538631
 30
0.0
 10
54.106500
 20
5.589431
 30
0.0
 10
56.880300
 20
10.545761
 30
0.0
 10
60.277370
 20
15.303091
 30
0.0
 10
61.267840
 20
17.105141
 30
0.0
 10
61.283940
 20
18.255061
 30
0.0
  0
ENDSEC
  0
SECTION
  2
OBJECTS
  0
DICTIONARY
  5
C
330
0
100
AcDbDictionary
  3
ACAD_GROUP
350
D
  3
ACAD_MLINESTYLE
350
17
  0
DICTIONARY
  5
D
330
C
100
AcDbDictionary
  0
DICTIONARY
  5
1A
330
C
100
AcDbDictionary
  0
DICTIONARY
  5
17
330
C
100
AcDbDictionary
  3
STANDARD
350
18
  0
DICTIONARY
  5
19
330
C
100
AcDbDictionary
  0
ENDSEC
  0
EOF
