<?xml version="1.0" encoding="UTF-8" standalone="no"?>
<!-- Created with Inkscape (http://www.inkscape.org/) -->

<svg
   xmlns:dc="http://purl.org/dc/elements/1.1/"
   xmlns:cc="http://creativecommons.org/ns#"
   xmlns:rdf="http://www.w3.org/1999/02/22-rdf-syntax-ns#"
   xmlns:svg="http://www.w3.org/2000/svg"
   xmlns="http://www.w3.org/2000/svg"
   xmlns:sodipodi="http://sodipodi.sourceforge.net/DTD/sodipodi-0.dtd"
   xmlns:inkscape="http://www.inkscape.org/namespaces/inkscape"
   width="226.63506mm"
   height="173.543mm"
   viewBox="0 0 226.63506 173.543"
   version="1.1"
   id="svg8"
   inkscape:version="0.92.2 2405546, 2018-03-11"
   sodipodi:docname="jump_crazy.svg">
  <defs
     id="defs2" />
  <sodipodi:namedview
     id="base"
     pagecolor="#ffffff"
     bordercolor="#666666"
     borderopacity="1.0"
     inkscape:pageopacity="0.0"
     inkscape:pageshadow="2"
     inkscape:zoom="0.7"
     inkscape:cx="364.48743"
     inkscape:cy="351.56558"
     inkscape:document-units="mm"
     inkscape:current-layer="layer1"
     showgrid="false"
     inkscape:window-width="1920"
     inkscape:window-height="1015"
     inkscape:window-x="1280"
     inkscape:window-y="0"
     inkscape:window-maximized="1" />
  <metadata
     id="metadata5">
    <rdf:RDF>
      <cc:Work
         rdf:about="">
        <dc:format>image/svg+xml</dc:format>
        <dc:type
           rdf:resource="http://purl.org/dc/dcmitype/StillImage" />
        <dc:title></dc:title>
      </cc:Work>
    </rdf:RDF>
  </metadata>
  <g
     inkscape:label="Calque 1"
     inkscape:groupmode="layer"
     id="layer1"
     transform="translate(-225.45609,36.453989)">
    <path
       style="fill:#000000;stroke-width:4.33641768"
       d="m 286.74007,118.8339 c -1.20712,-1.53151 -10.99286,5.11347 -12.31712,1.20645 -1.61662,-4.76962 11.84984,-2.12639 12.83313,-7.9734 0.34751,-2.06638 -7.71262,-4.208 -6.76138,-6.58641 1.54783,-3.87004 6.96582,1.45105 10.9644,1.00181 5.91874,-0.66499 8.01519,-4.28357 12.61609,-8.133211 4.98235,-4.168809 6.60079,-5.018747 9.9156,-8.266812 6.62962,-6.49613 12.75408,-10.863423 9.02528,-18.07413 -3.64993,-7.058185 -6.63624,-17.676948 -6.63624,-23.597239 0,-7.178029 -5.1782,-9.983394 -9.24581,-13.698675 C 301.15147,29.247929 291.52663,26.977792 285.84004,22.989788 279.97916,18.827425 269.6401,12.343548 262.8644,8.5811718 251.66014,2.3597 249.86282,2.357818 243.00907,8.560357 c -4.14475,3.750937 -9.82146,6.819885 -12.61494,6.819885 -8.00447,0 -5.93504,-10.8904372 3.73183,-19.6388178 9.58015,-8.6699092 9.53962,-14.5464642 64.77492,15.2813268 24.08385,13.005602 36.55076,13.617254 53.28552,2.260761 25.06163,-17.0073012 53.4914,-32.602082 59.51234,-40.755297 4.01188,-5.432619 7.26095,-9.51148 11.37227,-8.926291 4.11132,0.585189 8.32894,4.322523 11.2541,10.742534 2.05275,4.505293 2.68502,10.240378 2.68502,10.240378 -0.0335,3.821257 -0.5389,5.8493131 -2.4607,9.7067682 -2.49888,2.8768583 -6.112,2.1323284 -7.56931,0.7106097 -2.95376,-2.8816232 -3.34284,-6.1474469 -5.59936,-8.0201869 -4.64864,-3.858042 -27.14494,17.8666087 -39.73415,27.933854 -6.2946,5.033623 -17.34365,10.545016 -24.41733,16.885849 -7.07368,6.340834 -10.172,13.511107 -11.25596,15.448022 -3.17181,5.667714 -0.72385,11.259159 2.75236,15.968214 3.47621,4.709056 8.66971,6.852739 16.65928,7.212805 2.91298,-0.06682 5.82751,-0.175746 8.63005,0.49368 2.62633,0.627335 5.15118,1.7836 7.42345,3.242346 2.00438,1.286765 3.86601,2.881644 5.32648,4.763222 1.9115,2.462665 3.73372,5.236334 4.30997,8.300071 0.61215,3.254593 0.62045,4.002884 0.81758,7.523322 4.38676,1.510176 14.7833,5.292708 23.09975,6.912028 4.12713,0.80362 9.09198,2.07824 13.5163,1.14545 4.93739,-1.04096 10.03723,-11.121856 13.28379,-7.259044 1.85659,2.209018 -7.72698,6.336324 -6.66347,8.276284 2.0144,3.67444 12.84005,-5.238501 14.36051,-0.69367 1.45207,4.34039 -12.12778,4.36006 -11.35226,7.72357 0.69602,3.01877 14.50944,0.0501 13.93671,4.94622 -0.54879,4.69132 -11.94617,-1.47534 -14.08718,1.52936 -2.42361,3.40134 8.15469,9.03849 4.82704,11.56233 -4.4157,3.34906 -9.15258,-11.45718 -13.04734,-10.30523 -2.74662,1.07555 -2.97048,8.29534 -5.75702,7.14133 -3.94846,-1.95885 0.89477,-8.52002 -1.40503,-11.70743 -1.55778,-2.15901 -4.85022,-2.60752 -7.22562,-3.40332 -5.49041,-1.83937 -11.24552,-3.228 -16.88581,-3.95662 -5.64028,-0.72861 -8.88602,-2.61847 -10.97043,-0.10691 -1.90448,1.93503 -3.18927,4.06512 -5.37662,5.92764 -2.18735,1.86251 -5.27726,3.45746 -7.01223,4.32219 -3.46993,1.72947 -7.00073,2.52247 -11.05315,2.6467 -3.3254,0 -10.06884,-1.29878 -14.65802,-6.34687 -4.58917,-5.04809 -7.02407,-13.845486 -7.02407,-17.503433 0,-8.936152 -20.60818,3.019823 -29.46825,8.035853 -4.52392,2.56116 -10.80289,5.61184 -11.26051,10.79026 -0.3683,4.16761 10.33509,5.29843 7.39912,10.13878 -2.14654,3.53887 -7.55153,-4.83898 -10.02952,-3.14825 -1.81532,1.23858 3.35639,15.10239 -1.86962,15.65382 -5.13808,0.54218 -2.89384,-14.23751 -5.00992,-14.6678 -2.80151,-0.56967 -6.86192,15.69468 -11.73386,12.64186 -4.91501,-3.07982 7.90518,-14.19612 6.31429,-16.21461 z"
       id="path56"
       inkscape:connector-curvature="0"
       sodipodi:nodetypes="sasssssssaccssssccssscscsscscaaascsassasasaccasscsscssaassssas" />
  </g>
</svg>
